<svg width="36" height="36" viewBox="0 0 36 36" fill="none" xmlns="http://www.w3.org/2000/svg">
<g clip-path="url(#clip0_436_17462)">
<path fill-rule="evenodd" clip-rule="evenodd" d="M18.8244 33.997L18.8243 33.9971C18.6701 34.1257 18.5051 34.2633 18.3164 34.4117C18.0371 34.2512 17.75 34.0654 17.4564 33.8754L17.4564 33.8754C16.7369 33.4096 15.9783 32.9186 15.1994 32.7138C14.5806 32.5511 14.0443 32.4334 13.5548 32.3259L13.5547 32.3259C11.9484 31.9734 10.8451 31.7313 8.98019 30.3697C4.62951 27.1932 2.92827 23.0385 5.16776 16.9471C5.64905 15.6377 5.39188 13.7029 3.50313 12.3821C4.42799 9.62597 4.53201 8.71643 3.45251 5.92523C3.69451 5.74218 4.11897 5.41027 4.54398 5.07791L4.544 5.0779C4.97151 4.7436 5.39958 4.40887 5.64308 4.22474L5.73912 4.23962C7.93871 4.58044 8.60451 4.68361 9.40171 4.22885C15.8875 0.527363 20.5146 0.914339 26.43 4.15172C27.2467 4.59846 28.3305 4.72583 30.6001 4.33288C30.8463 4.51221 31.2027 4.85966 31.5589 5.20697C31.9146 5.55377 32.2702 5.90044 32.5159 6.0795C31.4504 8.88956 31.5729 9.76101 32.5473 12.5003C30.6832 13.8545 30.3888 15.4921 30.8937 16.7925C33.2433 22.8429 31.6177 27.0272 27.3255 30.2806C25.5034 31.6617 24.4776 31.9016 22.9367 32.2621C22.4471 32.3766 21.9055 32.5033 21.2699 32.6826C20.6106 32.8688 20.2009 33.1102 19.733 33.3858L19.7329 33.3859L19.7328 33.3859C19.5652 33.4847 19.39 33.5879 19.1932 33.6945C19.0729 33.7898 18.9526 33.8901 18.8249 33.9965L18.8245 33.9969L18.8244 33.997ZM29.9148 14.1246L29.8491 14.3113L29.7917 14.4985L29.7439 14.6867L29.7045 14.8754L29.6743 15.0634L29.6524 15.2513L29.6393 15.4383L29.6347 15.6245L29.638 15.8088L29.6494 15.9913L29.6685 16.1721L29.6948 16.3514L29.7292 16.5275L29.7697 16.7008L29.8171 16.8719L29.8715 17.0401L29.9255 17.1866L30.1287 17.734L30.3027 18.2509L30.4544 18.7554L30.5846 19.2471L30.6933 19.7264L30.7812 20.1933L30.8483 20.6486L30.8957 21.0918L30.9234 21.5236L30.9321 21.9446L30.9222 22.3545L30.8942 22.7544L30.8483 23.1451L30.7851 23.5263L30.7045 23.8991L30.6068 24.2638L30.4923 24.6213L30.361 24.9722L30.2125 25.317L30.0476 25.6554L29.8655 25.9892L29.6668 26.3179L29.4505 26.6413L29.2178 26.9609L28.9672 27.2761L28.6997 27.5873L28.4153 27.8945L28.1137 28.1976L27.7945 28.4972L27.4589 28.7931L27.1061 29.0846L26.7344 29.3746L26.5305 29.5267L26.3327 29.6694L26.1437 29.8003L25.9623 29.9209L25.7875 30.0322L25.6198 30.1344L25.4579 30.2278L25.3014 30.3135L25.1493 30.3919L25.0016 30.4642L24.8565 30.5305L24.7131 30.5918L24.5707 30.6487L24.4288 30.702L24.2857 30.752L24.1414 30.7991L23.994 30.8443L23.8433 30.888L23.6887 30.9304L23.529 30.972L23.3633 31.0137L23.1926 31.0553L23.0116 31.0981L22.6381 31.1857L22.4386 31.2328L22.2311 31.2824L22.0152 31.3349L21.7902 31.3915L21.5564 31.4516L21.3134 31.5166L21.0547 31.5882L20.864 31.6455L20.6776 31.7075L20.4996 31.7729L20.3304 31.8411L20.1693 31.9118L20.0165 31.9841L19.8706 32.0579L19.7317 32.1317L19.5989 32.2054L19.4715 32.2781L19.349 32.35L19.2289 32.4204L19.1103 32.4901L18.9925 32.5586L18.8731 32.6264L18.6591 32.7442L18.5306 32.8464L18.4759 32.8909L18.4219 32.9346L18.3675 32.979L18.3231 33.0158L18.2947 32.9971L18.2002 32.9362L18.1055 32.8746L18.0086 32.8122L17.9105 32.7491L17.8102 32.6849L17.7088 32.6206L17.6068 32.5567L17.5019 32.4921L17.3952 32.4275L17.2882 32.3636L17.1795 32.3005L17.0686 32.2374L16.9558 32.1754L16.8419 32.1148L16.7263 32.0555L16.608 31.9972L16.4879 31.941L16.3662 31.8862L16.2425 31.8341L16.1168 31.7837L15.9882 31.7363L15.8574 31.6918L15.7246 31.6506L15.5952 31.6141L15.3347 31.5471L15.0898 31.4862L14.8541 31.4296L14.6266 31.3764L14.4074 31.3267L14.1967 31.2793L13.993 31.2344L13.7965 31.1915L13.6067 31.1498L13.4239 31.1089L13.2476 31.0684L13.0763 31.0275L12.9101 30.9866L12.7487 30.9446L12.5915 30.9016L12.437 30.8564L12.2844 30.809L12.1346 30.7593L11.9854 30.7061L11.8358 30.6487L11.6851 30.5875L11.5335 30.5214L11.3788 30.4498L11.2202 30.3714L11.0576 30.2868L10.891 30.1949L10.7182 30.0946L10.5393 29.9855L10.3533 29.8669L10.1605 29.7385L9.96015 29.5999L9.75396 29.4518L9.37669 29.1683L9.01885 28.8827L8.67763 28.5934L8.35341 28.2994L8.04618 28.0014L7.75595 27.6994L7.48309 27.3933L7.22703 27.0825L6.98797 26.767L6.76628 26.4475L6.56122 26.1225L6.37314 25.7919L6.27472 25.599L11.6098 22.4546L9.6785 26.009L11.5361 26.1731L12.2308 25.9806L11.9333 22.2643L17.1687 19.1788L17.1713 19.2152L19.2562 19.3465L21.4536 18.6557L20.6668 17.1173L20.9144 16.9714L21.7009 18.5707L28.039 16.436L26.5945 13.624L30.9824 11.0381L31.0352 11.2361L31.0983 11.4544L31.1658 11.677L31.2384 11.9047L31.3111 12.1247L31.2334 12.1962L31.0692 12.3583L30.9142 12.5236L30.7676 12.6915L30.6298 12.8624L30.5011 13.0361L30.381 13.212L30.2697 13.3906L30.1675 13.5712L30.0745 13.754L29.9903 13.9384L29.9148 14.1246ZM22.3903 16.1016L24.0168 15.1432L24.1236 15.1968L25.496 14.3197L25.925 15.6375L22.3903 16.1016ZM19.2801 19.596L17.1545 19.4373L17.0718 20.4032L14.8732 21.7003L15.1522 22.3437L17.1627 21.0784L17.3118 21.4172L15.3048 22.6974L15.545 23.2512L17.5663 21.9883L17.7042 22.2921L15.6867 23.5762L15.9269 24.1303L17.9589 22.8635L18.1199 23.2247L16.0907 24.5075L16.3316 25.0628L18.375 23.7956L19.1021 24.8488L21.294 24.7841L21.6548 23.1442L24.2224 24.098L24.1925 23.4159L21.6639 22.4763L21.6912 22.1594L24.2618 23.1143L24.2319 22.4322L21.7004 21.4915L21.705 21.1531L24.257 22.1011L24.2271 21.4186L21.7145 20.4852L21.7196 20.1204L24.198 21.0412L24.1681 20.3588L21.7287 19.4526V19.4457L21.5814 18.8887C21.1562 19.0106 20.8288 19.1157 20.4932 19.2236L20.4931 19.2236C20.1394 19.3372 19.7765 19.4538 19.2801 19.596ZM21.2656 24.9808L19.0929 25.0297L18.0252 26.1847L20.1071 27.2797L21.2656 24.9808ZM19.9922 27.4244L17.9249 26.3158L16.4924 27.7698L16.9281 29.4467L19.9922 27.4244ZM16.6874 29.4777L16.3049 27.8241L13.9907 27.6867L13.3389 29.0506L16.6874 29.4777ZM13.1125 29.0007L13.7995 27.6682L12.3384 26.1679L11.6612 26.3899L13.1125 29.0007ZM29.3775 10.6875L29.1868 10.7097L29.0008 10.729L28.8206 10.7452C28.0513 10.8046 27.3097 10.8035 26.5542 10.6326L26.4268 10.5997L26.3017 10.5639C25.2399 10.2222 24.3308 9.77943 23.4392 9.34511C21.9717 8.63028 20.5513 7.93843 18.5747 7.75847L18.223 7.73849C15.9234 7.68248 13.9898 8.56727 12.188 9.39172C10.6314 10.104 9.17323 10.7712 7.66259 10.7478L7.53372 10.7432L7.40261 10.7359L7.26739 10.726L7.13087 10.7136L6.99135 10.6995L6.84717 10.6832L6.69869 10.6649L6.54592 10.6451L6.38736 10.6236L6.22282 10.6003L6.05174 10.5753L5.87431 10.5485L5.68979 10.5205L5.33494 10.4488L5.29348 10.6516L5.24492 10.866L5.19094 11.0836L5.13211 11.3042L5.06843 11.5289L5.00026 11.7582L4.92798 11.9919L5.03089 12.0879L5.19972 12.2595L5.35903 12.4349L5.50844 12.6147L5.64833 12.7983L5.77794 12.9849L5.89766 13.1739L6.00766 13.3653L6.10833 13.5588L6.19929 13.7542L6.2809 13.9507L6.35281 14.1479L6.41631 14.346L6.47028 14.5446L6.51566 14.7422L6.55227 14.9392L6.58085 15.136L6.60083 15.332L6.61297 15.5255L6.61745 15.7178L6.61446 15.9091L6.60363 16.0977L6.58607 16.2832L6.56124 16.4669L6.52967 16.6479L6.4912 16.8259L6.44619 17.0007L6.39464 17.1722L6.34347 17.321L6.14886 17.8733L5.98432 18.3932L5.84144 18.9003L5.72042 19.3943L5.62032 19.8754L5.54094 20.3438L5.48192 20.8001L5.4427 21.244L5.42272 21.6762L5.4216 22.0971L5.43878 22.5071L5.47408 22.9062L5.52693 23.2962L5.59716 23.6759L5.68456 24.0471L5.78915 24.41L5.90999 24.766L6.04763 25.1139L6.12925 25.2945L16.4753 19.1971L9.67666 19.3214L9.71588 13.4537L15.6432 9.77759L13.8148 13.7934L15.8965 13.8504L12.7626 16.884L11.2477 16.2079L11.326 17.9866L16.7674 17.0879L16.8363 18.9843L17.1418 18.8045L16.9836 16.6242L18.0308 16.8011L19.4325 16.5909L20.154 16.1138L20.5137 16.8171L20.7658 16.6686L20.602 16.3364L21.5381 16.2135L23.6592 14.9633L19.6433 12.9434L21.9986 12.4687L18.7426 9.34448L25.2782 11.0622L26.4405 13.3241L30.9002 10.6957L30.878 10.5977L30.8569 10.5007C30.6121 10.522 30.1929 10.5786 29.8282 10.6278L29.8281 10.6279C29.6584 10.6508 29.5005 10.6721 29.3775 10.6875ZM30.8296 8.00245C30.7112 8.71701 30.6975 9.28272 30.7931 9.99467C30.5361 10.0064 30.1246 10.0656 29.7752 10.1158C29.6237 10.1376 29.4839 10.1577 29.3734 10.1715L29.1827 10.1938L28.9967 10.2132L28.8164 10.2294C28.0471 10.2888 27.3055 10.2877 26.5504 10.1168L26.423 10.0839L26.2979 10.0481C25.2358 9.70639 24.3265 9.26351 23.4347 8.82913C21.9673 8.11434 20.547 7.42256 18.5705 7.2425L18.2188 7.22252C15.9193 7.16641 13.9857 8.05123 12.1838 8.87571C10.6272 9.58799 9.16906 10.2552 7.65843 10.2319L7.52956 10.2272L7.39826 10.2199L7.26323 10.21L7.12671 10.1977L6.9872 10.1837L6.84301 10.1674L6.69454 10.1493L6.54176 10.1293L6.38357 10.1078L6.21903 10.0843L6.04796 10.0593L5.87053 10.0326L5.68601 10.0046L5.42398 9.98234C5.47229 9.75039 5.46873 9.56109 5.46506 9.36621C5.46354 9.28539 5.462 9.20361 5.46413 9.11743L5.46189 8.90602L5.45255 8.69404L5.43593 8.48113L5.4124 8.26709L5.38139 8.05194L5.34367 7.83548L5.29903 7.61734L5.24786 7.39602L5.19015 7.17228L5.12627 6.94499L5.05605 6.71321L4.97948 6.47584L4.90552 6.25844L5.02747 6.16319L5.18548 6.03974L5.34516 5.91479L5.50503 5.79134L5.66191 5.66864L5.81413 5.54986L5.95962 5.43649L6.04721 5.36851L6.16655 5.387L6.35126 5.41501L6.52869 5.44172L6.69977 5.46675L6.86431 5.49028L7.02249 5.51176L7.17527 5.53155L7.32393 5.54986L7.46811 5.56592L7.60763 5.57993L7.74415 5.59225L7.87918 5.60215L8.01048 5.60943L8.13916 5.6141L8.26709 5.61616L8.39409 5.61485L8.52091 5.61037L8.6466 5.60196L8.77173 5.58982L8.89742 5.57302L9.02144 5.55191L9.1447 5.52595L9.26684 5.49551L9.38749 5.46021L9.50684 5.42024L9.62394 5.37542L9.73712 5.32723L9.84787 5.2755L9.95657 5.22003L10.0524 5.16718L10.3936 4.97518L10.727 4.79346L11.0622 4.61678L11.3991 4.44533L11.7376 4.27967L12.0777 4.1198L12.4196 3.96591C12.986 3.7218 13.5618 3.50018 14.1457 3.30158C17.0114 2.39802 19.1779 2.44489 21.984 3.29337L22.1347 3.3408L22.2851 3.39011L22.4339 3.44072L22.5817 3.49283L22.729 3.54662L22.8764 3.60209L23.023 3.65905L23.1685 3.71732L23.3147 3.77727L23.4606 3.83872L23.6057 3.90129L23.7504 3.96553L23.8963 4.03165L24.0418 4.09888L24.1873 4.16742L24.3335 4.23765L24.4801 4.30918L24.6271 4.38202L24.7741 4.45598L24.9215 4.53124L25.0703 4.608L25.2199 4.68626L25.3699 4.76526L25.5206 4.84594L25.6726 4.92774L25.8258 5.01067L25.9869 5.09845L26.0837 5.14981L26.192 5.20341L26.3048 5.25514L26.4189 5.30314L26.5353 5.34852L26.6558 5.39092L26.7783 5.43033L26.9034 5.46619L27.0308 5.49906L27.1617 5.52875L27.2945 5.55509L27.4306 5.57806L27.5681 5.59767L27.7089 5.6141L27.8529 5.62755L27.9995 5.63764L28.1484 5.64492L28.3011 5.64884L28.4577 5.65015L28.6173 5.64809L28.7808 5.64342L28.9488 5.63558L29.121 5.62494L29.2968 5.6113L29.477 5.59505L29.6627 5.57563L29.8533 5.5534L30.0493 5.52838L30.251 5.50036L30.3582 5.48412L30.3589 5.48468L30.4745 5.59375L30.5985 5.71197L30.727 5.83654L30.8594 5.96503L30.9934 6.09558L31.1288 6.22669L31.2645 6.35687L31.2756 6.36714L31.2649 6.39721L31.1839 6.64131L31.1088 6.87906L31.0402 7.11158L30.9775 7.33962L30.9216 7.56337L30.8723 7.78431L30.8296 8.00245Z" fill="#262625"/>
<path fill-rule="evenodd" clip-rule="evenodd" d="M25.2714 5.79904L26.0943 6.10757L25.7735 7.12282L26.6729 7.46031L26.994 6.44524L27.8206 6.75527L26.9036 9.6561L26.077 9.34607L26.4479 8.173L25.5484 7.83552L25.1775 9.00859L24.355 8.70005L25.2714 5.79904ZM22.2199 4.28867L24.6723 5.36798L24.4118 6.07059L23.5885 5.70846L22.794 7.85027L21.9876 7.49505L22.7817 5.35342L21.9592 4.99147L22.2199 4.28867ZM19.5154 4.89379L19.8782 4.95636C19.9169 4.96308 19.9946 4.96271 20.1113 4.95467C20.1703 4.95187 20.2215 4.92815 20.2652 4.8837C20.3082 4.83888 20.3349 4.7836 20.3444 4.7173C20.3586 4.61925 20.3411 4.5395 20.2916 4.47749C20.2423 4.41474 20.1395 4.37029 19.9826 4.34321L19.6052 4.27803L19.5154 4.89379ZM18.3901 6.5474L18.8307 3.51733L20.2632 3.76442C20.5287 3.81037 20.7286 3.86995 20.861 3.94428C20.9945 4.01786 21.0945 4.12917 21.1611 4.27896C21.2274 4.42781 21.2465 4.59889 21.2188 4.79144C21.1944 4.9599 21.14 5.09886 21.0569 5.20979C20.9751 5.31867 20.8669 5.40482 20.7424 5.46006C20.6614 5.49517 20.5553 5.51814 20.4232 5.52711C20.5203 5.58202 20.5893 5.63244 20.6311 5.67801C20.6584 5.70808 20.6968 5.76878 20.7452 5.86048C20.7934 5.95274 20.8248 6.02166 20.8382 6.06966L21.1264 7.01973L20.1547 6.8522L19.8304 5.84666C19.7895 5.71742 19.749 5.6302 19.7083 5.58613C19.655 5.52976 19.5846 5.49248 19.5081 5.48004L19.4323 5.46697L19.2535 6.69663L18.3901 6.5474ZM16.6814 5.49872L16.2154 4.46255L16.0679 5.60462L16.6814 5.49872ZM16.9567 6.12326L15.9775 6.2921L15.9153 6.8156L15.0369 6.96725L15.6417 3.75677L16.5789 3.59503L18.0655 6.44468L17.1659 6.59988L16.9567 6.12326ZM12.9304 7.15588L13.3477 6.9906C13.4888 6.93457 13.5789 6.86845 13.6181 6.7915C13.6579 6.71418 13.6623 6.62939 13.6317 6.5375C13.6033 6.45215 13.552 6.395 13.4775 6.36605C13.4029 6.33729 13.2942 6.35055 13.1506 6.40752L12.7352 6.57224L12.9304 7.15588ZM12.552 6.02353L12.9076 5.88252C13.0352 5.83191 13.1159 5.7727 13.1504 5.70491C13.1842 5.63693 13.1857 5.55792 13.1557 5.4679C13.1276 5.38405 13.0811 5.32802 13.0154 5.30075C12.9491 5.27311 12.8542 5.28413 12.7304 5.33325L12.3692 5.47649L12.552 6.02353ZM11.3493 5.21988L12.8804 4.6129C13.1355 4.51167 13.3546 4.50326 13.5367 4.58675C13.7195 4.67005 13.8448 4.81348 13.9124 5.01612C13.9694 5.18664 13.9699 5.35211 13.9132 5.51291C13.8747 5.62012 13.8017 5.72228 13.6922 5.81865C13.8984 5.79306 14.0673 5.8235 14.1976 5.90867C14.3276 5.99477 14.4234 6.12924 14.4847 6.31245C14.5338 6.4541 14.5473 6.60568 14.5239 6.75378C14.5015 6.89474 14.444 7.02781 14.3567 7.14075C14.3026 7.21079 14.2096 7.28344 14.0775 7.35796C13.902 7.45713 13.7845 7.51895 13.724 7.54305L12.3122 8.10278L11.3493 5.21988ZM10.1319 7.86671L9.50796 6.93419L9.54494 8.08672L10.1319 7.86671ZM10.5027 8.42924L9.56511 8.78092L9.58752 9.30797L8.7467 9.62342L8.83056 6.34738L9.72778 6.01083L11.646 8.53589L10.7849 8.85899L10.5027 8.42924Z" fill="#262625"/>
</g>
<defs>
<clipPath id="clip0_436_17462">
<rect width="36" height="36" fill="white"/>
</clipPath>
</defs>
</svg>
