<svg width="36" height="36" viewBox="0 0 36 36" fill="none" xmlns="http://www.w3.org/2000/svg">
<g clip-path="url(#clip0_47_128)">
<path d="M17.977 2.96692C12.4518 3.01296 2.04602 4.07196 2.04602 17.977C2.04602 31.882 12.682 32.8489 17.9309 33.0331C23.2259 32.895 33.8618 31.9741 33.8618 17.977C33.8618 3.97987 23.5021 3.01296 17.977 2.96692ZM17.2403 4.07195C17.6547 4.07195 18.2993 4.07195 18.7136 4.07195V14.8921H17.2403V4.07195ZM3.8417 17.977C3.8417 6.97268 11.0705 4.07195 16.8259 4.07195L12.0834 17.5626L10.0115 30.2245C9.45897 30.1324 3.79566 27.4158 3.8417 17.977ZM18.023 32.0662C15.4446 32.0202 11.669 31.1914 10.7482 30.5928L17.0561 16.7799H18.8978L25.1597 30.6849C24.2388 31.2835 20.5554 32.0662 18.023 32.0662ZM25.8964 30.3166L24.0086 17.5626L19.128 4.07195C24.8834 4.07195 32.1122 7.01872 32.1122 17.977C32.1583 27.4158 26.4489 30.2245 25.8964 30.3166Z" fill="#262625"/>
</g>
<defs>
<clipPath id="clip0_47_128">
<rect width="32" height="32" fill="white" transform="translate(2 2)"/>
</clipPath>
</defs>
</svg>
