<svg width="36" height="36" viewBox="0 0 36 36" fill="none" xmlns="http://www.w3.org/2000/svg">
<path fill-rule="evenodd" clip-rule="evenodd" d="M33.2806 11H24.565C23.7584 11 23.104 11.6315 23.104 12.411V14.1143C23.104 14.8933 23.7584 15.5248 24.565 15.5248H33.2806C34.0878 15.5248 34.7417 14.8933 34.7417 14.1143V12.411C34.7417 11.6315 34.0878 11 33.2806 11Z" fill="#262625"/>
<path fill-rule="evenodd" clip-rule="evenodd" d="M33.2806 20.0499H24.565C23.7584 20.0499 23.104 20.6819 23.104 21.4609V23.1642C23.104 23.9433 23.7584 24.5748 24.565 24.5748H33.2806C34.0878 24.5748 34.7417 23.9433 34.7417 23.1642V21.4609C34.7417 20.6819 34.0878 20.0499 33.2806 20.0499Z" fill="#262625"/>
<path fill-rule="evenodd" clip-rule="evenodd" d="M21.6437 15.5251H14.0982C13.2911 15.5251 12.6372 14.8931 12.6372 14.1141V12.4108C12.6372 11.6318 11.9833 11.0002 11.1766 11.0002H2.46101C1.6539 11.0002 1 11.6318 1 12.4108V14.1141C1 14.8931 1.6539 15.5251 2.46101 15.5251H11.1762H11.1766H11.177C11.9837 15.5251 12.6371 16.1566 12.6371 16.9356V18.6389C12.6371 19.4184 11.9832 20.0499 11.1765 20.0499H2.46101C1.6539 20.0499 1 20.6819 1 21.4609V23.1642C1 23.9433 1.6539 24.5743 2.46101 24.5743H11.1766C11.9833 24.5743 12.6372 23.9433 12.6372 23.1642V21.4609C12.6372 20.6819 13.2911 20.0499 14.0982 20.0499H21.6437C22.4503 20.0499 23.1042 19.418 23.1042 18.6389V16.9356C23.1042 16.1566 22.4503 15.5251 21.6437 15.5251Z" fill="#262625"/>
</svg>
