<svg width="36" height="36" viewBox="0 0 36 36" fill="none" xmlns="http://www.w3.org/2000/svg">
<g clip-path="url(#clip0_436_17439)">
<path d="M30.9912 10.512C29.6892 8.23082 27.7608 6.31802 25.4952 5.01602C23.2308 3.69842 20.628 3.00842 18.0084 3.00842C15.4056 3.00842 12.786 3.69962 10.5048 5.01722C8.2548 6.31922 6.3264 8.23082 5.0088 10.5132C3.7068 12.7776 3 15.3804 3 18C3 20.6196 3.7068 23.2224 5.0088 25.5036C6.3264 27.7536 8.2548 29.682 10.5048 30.9828C12.786 32.2848 15.4056 32.9916 18.0084 32.9916C20.628 32.9916 23.2308 32.2848 25.4964 30.9828C27.762 29.6976 29.6904 27.7524 30.9924 25.5036C32.31 23.2224 32.9844 20.6184 33.0012 18C33 15.3804 32.3088 12.7776 30.9912 10.512ZM29.2236 24.588C28.0824 26.484 26.46 28.1388 24.516 29.2476C22.524 30.3888 20.274 30.9996 18.0084 30.9996C15.7428 30.9996 13.4604 30.3888 11.5008 29.2644C9.54 28.1388 7.8852 26.4684 6.7284 24.5076C5.6028 22.5468 4.992 20.2656 4.992 18C4.992 15.75 5.6028 13.4688 6.7272 11.4924C7.884 9.54842 9.5388 7.87682 11.4996 6.73562C13.4604 5.59442 15.7416 5.00042 18.0072 5.00042C20.2908 5.00282 22.5336 5.60042 24.5148 6.73562C26.4588 7.87682 28.0824 9.51602 29.2224 11.4432C30.3792 13.4196 30.99 15.7332 30.99 17.9988C30.9912 20.298 30.3804 22.596 29.2236 24.588Z" fill="#262625"/>
<path d="M13.9584 19.4304V30.0192L14.5044 30.1956C15.468 30.3876 16.4652 30.6132 17.4444 30.6612H17.7492V19.4292H13.9584V19.4304Z" fill="#262625"/>
<path d="M7.03318 11.6688C6.48718 12.6324 6.02038 13.6452 5.76358 14.7384L5.53918 15.6384H10.1832V8.0376C10.0548 8.118 9.92638 8.2308 9.78118 8.3424C8.67238 9.2424 7.70758 10.3992 7.03318 11.6688Z" fill="#262625"/>
<path d="M5.41083 19.4304C5.42643 19.6068 5.45883 19.7676 5.47563 19.9452C5.71683 21.4872 6.21483 23.0304 7.03443 24.3312C7.78923 25.5684 8.65683 26.742 9.78243 27.6732L10.1844 27.9792V19.4304H5.41083Z" fill="#262625"/>
<path d="M14.5056 5.82005L13.9596 5.98085V15.6384H17.7516V5.33765C17.6556 5.33765 17.5428 5.33765 17.4468 5.35325C16.4652 5.40245 15.4692 5.59565 14.5056 5.82005Z" fill="#262625"/>
<path d="M28.9188 11.6051C27.8424 9.72474 26.2356 8.15035 24.3396 7.04155C22.572 6.02875 20.5788 5.41795 18.57 5.35435C18.4416 5.33875 18.2808 5.33875 18.1356 5.33875V30.6623H18.57C20.6268 30.6143 22.5708 29.9063 24.3384 28.9583C26.2344 27.9623 27.8412 26.3075 28.9176 24.3947C30.0588 22.4663 30.6528 20.2331 30.6528 17.9999C30.6528 15.7667 30.06 13.5323 28.9188 11.6051ZM21.5592 9.11395C21.6072 9.09835 21.6876 9.06595 21.7356 9.06595H23.568L25.416 9.05035C25.5612 9.05035 25.722 9.01795 25.8816 9.05035C25.9464 9.06595 26.0268 9.09834 26.0748 9.16314C26.1228 9.22794 26.1228 9.30835 26.0904 9.38755C26.0748 9.45235 25.9944 9.53275 25.8972 9.54835C25.8168 9.59635 25.6728 9.54835 25.56 9.54835L21.768 9.56395C21.7044 9.56395 21.6072 9.56395 21.5436 9.53155C21.4956 9.51595 21.4476 9.43555 21.4476 9.37075C21.4308 9.27475 21.4788 9.16195 21.5592 9.11395ZM26.0904 10.2227C26.0748 10.3187 25.9944 10.3511 25.8972 10.3991C25.8168 10.4315 25.6728 10.3991 25.56 10.3991H21.768C21.7044 10.3991 21.6072 10.3991 21.5436 10.3511C21.4956 10.3355 21.4476 10.2707 21.4476 10.2227C21.432 10.1267 21.4956 10.0295 21.5604 9.98155C21.6084 9.93355 21.6888 9.93355 21.7368 9.93355H23.568L25.416 9.90114C25.5612 9.90114 25.722 9.86874 25.8816 9.90114C25.9464 9.90114 26.0268 9.94915 26.0748 10.0295C26.1228 10.0943 26.1228 10.1579 26.0904 10.2227ZM18.972 15.8627C18.9396 15.7499 18.9876 15.6383 19.0524 15.5255C19.1004 15.4127 19.1976 15.3011 19.2768 15.2039C19.4052 15.0935 19.5456 14.9963 19.6944 14.9147C19.8228 14.8187 19.9356 14.7383 20.0316 14.6099C20.0952 14.5139 20.16 14.4011 20.1444 14.3051C20.112 14.2091 20.064 14.1599 20.016 14.0963C19.9356 14.0807 19.8228 14.0807 19.7268 14.1287C19.6464 14.1767 19.5984 14.2571 19.5336 14.3051C19.4052 14.4503 19.1964 14.4815 18.9876 14.4659C18.804 14.4467 18.636 14.3543 18.522 14.2091C18.4092 14.0807 18.3612 13.8875 18.3456 13.7111C18.3132 13.4699 18.3132 13.2455 18.3936 13.0367C18.4416 12.8435 18.5376 12.6347 18.6984 12.5231C18.8592 12.4115 19.0524 12.3779 19.2288 12.4103C19.3728 12.4103 19.4856 12.4907 19.6308 12.5387C19.7112 12.5867 19.776 12.6347 19.8552 12.6191C19.9356 12.5867 20.016 12.5063 20.016 12.4427C20.0316 12.3467 19.968 12.2819 19.8876 12.2015C19.7748 12.1535 19.6632 12.1055 19.5504 12.0731C19.422 12.0251 19.3092 11.9927 19.1964 11.8967C19.0836 11.7839 19.02 11.6555 19.02 11.4791C19.02 11.3183 19.1004 11.1743 19.2288 11.1095C19.3572 11.0135 19.518 11.0291 19.6944 11.0615C19.8864 11.1095 20.0964 11.1419 20.2404 11.2547C20.4492 11.3195 20.5776 11.4635 20.7384 11.5763C20.8188 11.6567 20.8992 11.7371 20.9796 11.8331C20.9472 11.9135 20.9316 12.0095 20.9148 12.1067C20.8992 12.2831 20.9304 12.4919 21.0276 12.6695C21.0924 12.8459 21.1404 13.0715 21.3168 13.1519L21.8148 13.4567C21.7344 13.4891 21.6864 13.5371 21.606 13.5851C21.4452 13.6655 21.3336 13.8419 21.2364 14.0027C21.1392 14.1635 21.0432 14.3075 21.0432 14.4683C21.0756 14.6135 21.0756 14.7575 21.156 14.8535L21.3168 14.9819L19.9668 15.8339C19.806 15.9623 19.662 16.0907 19.4844 16.1387C19.3716 16.1867 19.2432 16.1867 19.1472 16.1387C19.068 16.0715 18.9888 15.9755 18.972 15.8627ZM28.9188 16.4891C28.6296 16.9199 28.2444 17.2775 27.7932 17.5331C27.4236 17.7419 27.0216 17.8703 26.6196 17.9351C26.298 17.9831 25.9932 17.9831 25.6716 17.9831L23.0196 18.0155C22.8756 18.0155 22.7472 18.0155 22.5696 18.0311C22.4568 18.0311 22.3776 18.0791 22.3284 18.1439C22.2804 18.1919 22.2804 18.2567 22.3128 18.3203C22.3284 18.4007 22.4256 18.4163 22.4892 18.4487C22.602 18.4643 22.698 18.4811 22.8108 18.4643L25.1244 18.4007C25.3968 18.4007 25.6704 18.4007 25.9596 18.4487C26.2968 18.4643 26.634 18.5447 26.94 18.7379C27.246 18.8987 27.5028 19.1399 27.7272 19.4123C27.9516 19.7171 28.0968 20.0555 28.1928 20.4239C28.2888 20.7527 28.3056 21.0995 28.2408 21.4367C28.1772 21.7907 27.9996 22.1279 27.7428 22.4171C27.4704 22.7063 27.1644 22.9307 26.7792 23.0915C26.5224 23.1719 26.2488 23.2679 25.992 23.2835C25.7832 23.2991 25.5588 23.2835 25.3656 23.2835L22.9224 23.2991C22.8096 23.2991 22.6656 23.2991 22.5528 23.3315C22.4568 23.3639 22.3764 23.3795 22.3284 23.4443C22.3128 23.4923 22.3128 23.6051 22.3284 23.6363C22.3764 23.7323 22.4892 23.7491 22.5696 23.7815C22.698 23.7971 22.8108 23.7971 22.9236 23.7971H24.5784C24.7392 23.7971 24.9156 23.8295 25.0608 23.8451C25.2852 23.8775 25.5432 23.9099 25.7352 24.0059C25.944 24.0863 26.1216 24.2471 26.25 24.4235C26.3952 24.6167 26.4588 24.8255 26.4744 25.0823C26.5068 25.2743 26.4744 25.4999 26.394 25.7087C26.2812 25.8851 26.1204 26.0459 25.944 26.1419C25.7832 26.2547 25.5744 26.3351 25.3812 26.3663C25.2204 26.3987 25.044 26.3987 24.8676 26.4143L23.952 26.4299C23.8716 26.4299 23.7912 26.4299 23.7264 26.4623C23.694 26.4779 23.6304 26.5103 23.6136 26.5751C23.5788 26.6255 23.586 26.6939 23.6292 26.7359C23.6616 26.7995 23.7252 26.8319 23.79 26.8487C23.9508 26.8967 24.0792 26.8811 24.2232 26.8811C24.3672 26.8811 24.5604 26.8487 24.7056 26.8967C24.882 26.9291 25.0428 26.9927 25.1232 27.1055C25.236 27.2339 25.284 27.3947 25.2996 27.5555C25.2996 27.6683 25.2996 27.7643 25.284 27.9095C25.2684 28.0055 25.2204 28.1183 25.1232 28.1507C25.0584 28.1987 24.9624 28.2143 24.9144 28.1831C24.834 28.1351 24.786 28.0703 24.7536 27.9743C24.7056 27.9095 24.6888 27.8459 24.6252 27.7979C24.5292 27.6851 24.3684 27.6695 24.2232 27.6371C24.0144 27.6047 23.8212 27.6371 23.6292 27.6371C23.4048 27.6371 23.2116 27.5891 22.9872 27.5411C22.7628 27.4607 22.5528 27.3479 22.3932 27.1715C22.2648 27.0107 22.152 26.8343 22.1196 26.6255C22.104 26.4335 22.104 26.2559 22.2 26.0951C22.2804 25.9187 22.4244 25.7903 22.602 25.7099C22.8264 25.5815 23.0844 25.5815 23.3256 25.5815L24.6108 25.5659C24.6912 25.5659 24.8196 25.5815 24.9156 25.5503C24.948 25.5023 24.996 25.4051 24.996 25.3415C24.9636 25.2767 24.9312 25.2131 24.8676 25.1651C24.7548 25.1171 24.6588 25.1327 24.5616 25.1327C24.4812 25.1327 24.3696 25.1327 24.2892 25.1651L22.056 25.1807C21.8796 25.1807 21.6864 25.1807 21.5256 25.1651C21.252 25.1015 21.0276 24.9731 20.802 24.8279C20.5608 24.6191 20.3196 24.3455 20.208 24.0563C20.0964 23.7587 20.0472 23.4419 20.0628 23.1239C20.0952 22.7543 20.208 22.3847 20.4492 22.0787C20.5944 21.8699 20.8188 21.7091 21.0756 21.5975C21.2748 21.5315 21.4788 21.4835 21.6864 21.4523H22.2804L25.0284 21.4199C25.1256 21.4199 25.2372 21.4199 25.3344 21.3719C25.3824 21.3563 25.4472 21.2915 25.4472 21.2435C25.4472 21.1955 25.3992 21.1151 25.3344 21.0827C25.2696 21.0347 25.206 21.0347 25.11 21.0023H24.8208L21.864 21.0347C21.6072 21.0347 21.366 21.0023 21.1092 20.9711C20.9004 20.9231 20.6592 20.8751 20.466 20.7947C20.2416 20.6663 20.0484 20.5055 19.872 20.3291C19.6308 20.0567 19.422 19.7027 19.3092 19.3175C19.1484 18.8195 19.1004 18.2891 19.1808 17.7755C19.2288 17.4059 19.3092 17.0039 19.518 16.6991C19.6944 16.4099 19.968 16.1855 20.2416 15.9755C20.5632 15.7667 20.9004 15.5903 21.2376 15.4931C21.4944 15.4283 21.768 15.4127 22.0572 15.3803C22.2816 15.3803 22.4904 15.3647 22.716 15.3647L25.062 15.3323C25.1748 15.3323 25.2864 15.3167 25.3992 15.2999C25.4952 15.2675 25.608 15.2195 25.656 15.1391C25.6884 15.0431 25.6716 14.9147 25.6236 14.8499C25.5756 14.7851 25.4628 14.7371 25.3824 14.7047C25.2696 14.6891 25.158 14.6891 25.0452 14.6891C24.9324 14.6735 24.8364 14.6891 24.708 14.6891L21.6072 14.7047C21.5592 14.6399 21.5436 14.5439 21.5436 14.4803C21.528 14.3519 21.5592 14.1911 21.6564 14.0783C21.7368 13.9175 21.9132 13.8371 22.074 13.7411C22.2828 13.6451 22.5084 13.6283 22.7496 13.5959C23.0388 13.5803 23.2956 13.5959 23.5692 13.5959C23.7456 13.5959 23.9064 13.5803 24.0672 13.5311C24.1632 13.4987 24.2436 13.4831 24.276 13.4183C24.2916 13.3703 24.276 13.3055 24.2436 13.2419C24.1956 13.1615 24.1476 13.1291 24.0504 13.1135C23.9052 13.0811 23.7444 13.1135 23.616 13.1291C23.3592 13.1615 23.1024 13.1447 22.8612 13.1447C22.62 13.1447 22.4268 13.1603 22.218 13.1123C22.0416 13.0643 21.8808 12.9515 21.72 12.8075C21.5916 12.6791 21.4956 12.5183 21.4308 12.3419C21.4152 12.2459 21.3828 12.1655 21.4152 12.0683L21.4476 11.7791H23.2152C23.2956 11.6663 23.3916 11.5547 23.4876 11.4095L23.874 11.0555H26.076C26.1888 11.0555 26.3328 11.0555 26.4612 11.0231C26.622 11.0231 26.7828 11.0231 26.9112 10.9583C27.0072 10.9103 27.072 10.8455 27.168 10.8131C27.2328 10.7327 27.2964 10.6847 27.3924 10.6523C27.5052 10.7003 27.618 10.7807 27.7308 10.8455C28.0356 11.0219 28.3404 11.2799 28.5816 11.5691C28.806 11.8259 28.9992 12.0995 29.1756 12.3731C29.3688 12.7751 29.4816 13.2251 29.5296 13.6583C29.5944 14.0735 29.5944 14.4959 29.5296 14.9111C29.4324 15.4775 29.2404 16.0235 28.9188 16.4891Z" fill="#262625"/>
</g>
<defs>
<clipPath id="clip0_436_17439">
<rect width="30" height="30" fill="white" transform="translate(3 3)"/>
</clipPath>
</defs>
</svg>
