<svg width="36" height="36" viewBox="0 0 36 36" fill="none" xmlns="http://www.w3.org/2000/svg">
<path d="M15.6881 17.8855H15.0167C14.803 18.0424 13.9379 18.657 13.1163 19.2482C13.3935 19.4085 13.6774 19.5521 13.968 19.6824L15.6881 17.8855Z" fill="#262625"/>
<path d="M14.6694 17.8855H13.4202C13.3033 17.9422 12.6954 18.2261 12.0408 18.5334C12.3247 18.7505 12.622 18.9543 12.9259 19.1346L14.6694 17.8855Z" fill="#262625"/>
<path d="M11.8604 18.3932L12.9426 17.8888H11.2793C11.4463 18.0458 11.8437 18.3798 11.8604 18.3932Z" fill="#262625"/>
<path d="M21.4396 16.3891C21.4396 16.2622 21.3761 16.1921 21.2492 16.172C21.1824 16.162 21.0555 16.1687 20.9787 16.172H20.982V16.6597C21.0254 16.6597 21.1323 16.663 21.2091 16.6463C21.3527 16.6163 21.4396 16.5227 21.4396 16.3891Z" fill="#262625"/>
<path d="M24.8998 15.7412H11.0655V17.6818L11.0689 17.6851H24.9032V15.7412H24.8998ZM12.328 17.3745V17.3611C12.2612 17.1707 12.2011 17.0171 12.1377 16.8768H11.6767C11.6734 16.8835 11.6634 16.9002 11.6634 16.9002C11.6033 17.0505 11.5465 17.2008 11.4964 17.3611V17.3745H11.3294L11.9172 16.0585H11.9807L12.5451 17.3745H12.328ZM12.9359 17.4012C12.8491 17.4012 12.6954 17.3645 12.6286 17.2876H12.6153L12.652 17.1073H12.6888C12.7723 17.2375 12.8591 17.2977 12.9827 17.2977C13.1196 17.2977 13.2399 17.1741 13.2399 17.0271C13.2399 16.8701 13.1063 16.8234 12.9693 16.7699C12.819 16.7098 12.652 16.643 12.652 16.4126C12.652 16.1921 12.8157 16.0552 13.0762 16.0552C13.1597 16.0552 13.2799 16.0752 13.3601 16.142L13.3067 16.309H13.2699C13.2332 16.2122 13.1564 16.1554 13.0528 16.1554C12.9259 16.1554 12.8257 16.2422 12.8257 16.3591C12.8257 16.5161 12.956 16.5595 13.0962 16.6163C13.2532 16.6798 13.4135 16.7499 13.4135 16.9637C13.4102 17.2208 13.2131 17.4012 12.9359 17.4012ZM14.0715 17.3745H13.8912V16.1955C13.7175 16.1955 13.6073 16.1955 13.497 16.2088H13.4837V16.0819H14.4556H14.469V16.2088H14.4556C14.3387 16.1955 14.2018 16.1955 14.0715 16.1955V17.3745ZM15.1203 17.4012C14.7061 17.4012 14.4155 17.124 14.4155 16.7232C14.4155 16.3257 14.7061 16.0585 15.1203 16.0585C15.4777 16.0585 15.8384 16.2489 15.8384 16.6998C15.8384 17.114 15.5545 17.4012 15.1203 17.4012ZM17.1443 17.3745H17.0809L16.9773 17.2609C16.9773 17.2609 16.1757 16.3858 16.169 16.3758V17.3745H16.0421V16.0819H16.1323C16.1323 16.0819 17.0074 17.0338 17.0174 17.0405C17.0174 17.0204 17.0174 16.0819 17.0174 16.0819H17.131H17.1443V17.3745ZM19.3888 17.3778H19.1851V17.3645C19.165 17.1073 19.1216 16.6631 19.0949 16.4426C18.8845 16.8167 18.7275 17.1006 18.6206 17.3511H18.5839L18.4803 17.134C18.3902 16.9436 18.143 16.486 18.123 16.446C18.1196 16.4994 18.0996 16.6263 18.0996 16.6263C18.0695 16.9136 18.0361 17.1841 18.0361 17.3678V17.3812H17.8825V17.3645C17.9326 17.0639 18.0461 16.2856 18.0628 16.0953V16.0819H18.1196H18.133C18.2833 16.3758 18.4503 16.7198 18.6473 17.0405C18.664 17.0104 18.8644 16.6464 18.8644 16.6464L19.1717 16.0819H19.2252H19.2385V16.0953C19.2953 16.6397 19.3454 17.0472 19.3922 17.3645V17.3778H19.3888ZM20.4676 17.3745L20.4543 17.3611C20.3908 17.1774 20.3274 17.0171 20.2639 16.8768H19.8163C19.813 16.8835 19.803 16.9002 19.803 16.9002C19.7395 17.0505 19.6727 17.1975 19.6226 17.3611V17.3745H19.469L20.0568 16.0585H20.1103L20.6847 17.3745H20.4676ZM21.5331 17.3745H21.5197L21.4062 17.2075L21.1891 16.9269C21.1891 16.9269 21.0421 16.7532 21.0354 16.7466H20.982C20.982 16.7666 20.982 17.3745 20.982 17.3745H20.8016V16.0819H21.1958C21.483 16.0819 21.6333 16.1788 21.6333 16.3758C21.6333 16.5562 21.483 16.6831 21.2492 16.7332C21.2726 16.7599 21.7636 17.3745 21.7636 17.3745H21.5331ZM22.7221 16.2088H22.7088C22.5919 16.1955 22.4549 16.1955 22.3247 16.1955C22.3247 16.2188 22.3247 17.3745 22.3247 17.3745H22.1443V16.1955C21.9706 16.1955 21.8604 16.1955 21.7502 16.2088H21.7368V16.0819H22.7088H22.7221V16.2088ZM23.0561 17.3745H22.8758V16.0819H23.0561V17.3745ZM24.4222 17.3745H24.3587L24.2552 17.2609C24.2552 17.2609 23.4536 16.3858 23.4469 16.3758V17.3745H23.32V16.0819H23.4102C23.4102 16.0819 24.2853 17.0338 24.2953 17.0405V16.0819H24.4222V17.3745Z" fill="#262625"/>
<path d="M19.8564 16.7733H20.2272C20.2138 16.7432 20.0635 16.3791 20.0468 16.3357C20.0268 16.3825 19.8664 16.7432 19.8564 16.7733Z" fill="#262625"/>
<path d="M10.8618 16.6964L10.2472 16.7799C10.3307 16.8801 10.4176 16.9837 10.5077 17.0872L10.8618 17.0137V16.6964Z" fill="#262625"/>
<path d="M15.1303 16.132C14.8163 16.132 14.6226 16.3691 14.6159 16.7465C14.6159 17.0906 14.813 17.311 15.1136 17.311C15.2505 17.311 15.3708 17.2676 15.461 17.1674C15.5779 17.0438 15.628 16.8568 15.628 16.7298C15.628 16.7232 15.628 16.7165 15.628 16.7065C15.628 16.5528 15.6113 16.4326 15.5144 16.3123C15.4309 16.2021 15.2806 16.132 15.1303 16.132Z" fill="#262625"/>
<path d="M9.09491 15.0532C9.09491 15.0532 9.2686 15.3638 9.37214 15.5375H16.2325C16.2225 15.5141 16.2125 15.474 16.2125 15.474C16.1624 15.2602 16.0688 15.0832 15.9352 14.9463C15.7515 14.7592 15.491 14.6657 15.1704 14.6657V14.6624H8.75423C8.97133 14.8294 9.08823 15.0398 9.09491 15.0532Z" fill="#262625"/>
<path d="M10.8618 17.2208C10.8083 17.2308 10.7449 17.2442 10.6647 17.2576C10.7282 17.331 10.7916 17.4012 10.8618 17.4713V17.2208Z" fill="#262625"/>
<path d="M10.8618 16.2155L9.86646 16.2823C9.94328 16.3825 10.0201 16.486 10.1036 16.5929L10.8618 16.4927V16.2155Z" fill="#262625"/>
<path d="M17.2545 17.8855H16.7736C16.6032 18.176 15.9252 19.3283 15.4142 20.1867C15.7849 20.2836 16.1657 20.3571 16.5531 20.4072L17.2545 17.8855Z" fill="#262625"/>
<path d="M16.5431 17.8855H15.972C15.7616 18.1026 14.8898 19.0111 14.1717 19.7659C14.5124 19.9095 14.8598 20.0298 15.2171 20.13L16.5431 17.8855Z" fill="#262625"/>
<path d="M25.1069 17.478C25.177 17.4045 25.2405 17.3344 25.3073 17.2642L25.1069 17.2242V17.478Z" fill="#262625"/>
<path d="M11.7302 16.7733H12.1009C12.0909 16.7432 11.9272 16.3791 11.9105 16.3357C11.8872 16.3825 11.7435 16.7432 11.7302 16.7733Z" fill="#262625"/>
<path d="M26.0989 16.2823L25.1036 16.2155V16.4927L25.8617 16.5929C25.9486 16.4894 26.0287 16.3825 26.0989 16.2823Z" fill="#262625"/>
<path d="M25.7215 16.7799L25.1036 16.6964V17.0137C25.177 17.0271 25.3006 17.0505 25.4609 17.0872C25.5511 16.987 25.638 16.8868 25.7215 16.7799Z" fill="#262625"/>
<path d="M26.8738 15.0565C26.8804 15.0431 26.994 14.8361 27.2178 14.6691H20.7983C20.4777 14.6691 20.2205 14.7626 20.0334 14.9496C19.8998 15.0832 19.8063 15.2602 19.7562 15.4773C19.7562 15.4773 19.7462 15.5141 19.7328 15.5441H26.5965C26.7068 15.3571 26.7969 15.1934 26.8738 15.0565Z" fill="#262625"/>
<path d="M26.4696 15.7379H25.1036V16.0051L26.2425 16.0785C26.326 15.9616 26.4028 15.8447 26.4696 15.7379Z" fill="#262625"/>
<path d="M21.8036 19.7692L20.0034 17.8888H19.4322L20.7549 20.1333C21.1156 20.0298 21.463 19.9095 21.8036 19.7692Z" fill="#262625"/>
<path d="M24.6894 17.8855H23.0261C23.3066 18.0157 23.7008 18.2028 24.1082 18.3898C24.1183 18.3831 24.5191 18.0558 24.6894 17.8855Z" fill="#262625"/>
<path d="M23.9279 18.5301L22.5485 17.8855H21.2993C21.6767 18.156 22.3815 18.657 23.0461 19.1313C23.3467 18.9543 23.6406 18.7539 23.9279 18.5301Z" fill="#262625"/>
<path d="M18.7141 17.8855L19.4155 20.4038C19.803 20.3504 20.1837 20.2803 20.5545 20.1834L19.1951 17.8855H18.7141Z" fill="#262625"/>
<path d="M22.8524 19.2482L20.9519 17.8855H20.2806C20.6213 18.2395 21.3761 19.0277 22.004 19.6791C22.2913 19.5521 22.5752 19.4085 22.8524 19.2482Z" fill="#262625"/>
<path d="M24.97 17.8988C24.7662 18.0992 24.5458 18.2963 24.312 18.4867C25.0935 18.8541 25.8584 19.2115 25.8584 19.2115C25.9586 19.2616 26.2559 19.3785 26.4563 19.3217L28.0661 18.8474C27.9826 18.8307 27.9325 18.814 27.9225 18.8107L24.97 17.8988Z" fill="#262625"/>
<path d="M21.1423 21.1888L20.6614 20.3705C20.2739 20.474 19.8765 20.5542 19.469 20.6109L19.6994 21.4493C19.7028 21.4626 19.7596 21.6998 19.9232 21.8C20.0034 21.8501 20.0936 21.8601 20.2004 21.8334L21.4028 21.5061C21.2559 21.3892 21.159 21.2188 21.1423 21.1888Z" fill="#262625"/>
<path d="M22.8424 20.8514L21.9506 19.9229C21.5966 20.0765 21.2325 20.2034 20.8584 20.3103L21.316 21.0819C21.3694 21.1787 21.5565 21.4392 21.7135 21.4159L23.0895 21.0418C22.9493 20.9616 22.8491 20.8581 22.8424 20.8514Z" fill="#262625"/>
<path d="M19.2652 20.631C18.968 20.6644 18.664 20.6911 18.3534 20.7011C18.5705 20.9115 19.2185 21.5294 19.2185 21.5294C19.4489 21.7532 19.5057 21.8066 19.6894 21.8601C19.5592 21.7098 19.509 21.5227 19.5024 21.4927L19.2652 20.631Z" fill="#262625"/>
<path d="M16.7602 20.4339C17.1276 20.4773 17.5017 20.5007 17.8825 20.504V17.8888H17.4683L16.7602 20.4339Z" fill="#262625"/>
<path d="M16.4696 21.4927C16.463 21.5194 16.4129 21.7098 16.2826 21.8601C16.3828 21.8334 16.483 21.7833 16.5765 21.6931C16.5765 21.6931 17.3714 20.9349 17.6186 20.7044C17.3113 20.6944 17.004 20.671 16.7068 20.6343L16.4696 21.4927Z" fill="#262625"/>
<path d="M23.0328 19.3818C22.7455 19.5488 22.4516 19.7024 22.1477 19.8394C22.6186 20.3304 22.986 20.7111 22.986 20.7111C23.0595 20.7879 23.2933 20.9783 23.4837 20.9316L23.7108 20.8681C23.7108 20.8681 24.4255 20.6744 24.7595 20.5842C24.636 20.5274 24.5491 20.464 24.5424 20.4606L23.0328 19.3818Z" fill="#262625"/>
<path d="M18.5071 17.8855H18.0862V20.5007C18.467 20.4974 18.8411 20.4773 19.2118 20.4306L18.5071 17.8855Z" fill="#262625"/>
<path d="M15.3107 20.3671C15.0334 20.838 14.8297 21.1821 14.8297 21.1821C14.813 21.2121 14.7128 21.3858 14.5658 21.5027L15.7682 21.8334C15.8718 21.8567 15.9653 21.8467 16.0421 21.8C16.2158 21.6964 16.2692 21.4493 16.2692 21.4459L16.4997 20.6076C16.0989 20.5508 15.6981 20.4706 15.3107 20.3671Z" fill="#262625"/>
<path d="M10.8618 15.7412H9.49905C9.56919 15.8481 9.64601 15.9617 9.72283 16.0819L10.8584 16.0051V15.7412H10.8618Z" fill="#262625"/>
<path d="M34.9766 14.7592C34.9232 14.6757 34.8297 14.6691 34.7595 14.6657H27.7989C27.3213 14.6657 27.0541 15.1467 27.0508 15.15C26.9907 15.2636 26.9205 15.3972 26.8337 15.5375H34.4289C34.6226 15.5241 34.6493 15.4874 34.6994 15.4139C34.6994 15.4139 34.9466 15.0064 34.9499 14.9997C34.9866 14.9262 35 14.8761 35 14.836C34.9967 14.7926 34.9833 14.7693 34.9766 14.7592Z" fill="#262625"/>
<path d="M26.3394 16.2956C26.2659 16.4025 26.1824 16.5127 26.0989 16.6263L32.2913 17.4579C32.5284 17.488 32.5985 17.4078 32.6119 17.3911C32.6687 17.2976 32.9192 16.8467 32.9192 16.8501C32.9392 16.81 32.9626 16.7699 32.9927 16.7398C32.9559 16.7365 32.9259 16.7332 32.9158 16.7332L26.3394 16.2956Z" fill="#262625"/>
<path d="M24.1316 18.6303C23.8377 18.8574 23.5338 19.0712 23.2198 19.2649C23.988 19.8127 24.666 20.297 24.666 20.297C24.6694 20.297 24.9666 20.5174 25.2171 20.4439C25.825 20.2168 25.9118 19.9897 25.9987 19.7693C26.0054 19.7492 26.0521 19.6357 26.1456 19.5221C25.9419 19.4853 25.7749 19.3985 25.7649 19.3952L24.1316 18.6303Z" fill="#262625"/>
<path d="M25.6881 17.1373C27.0274 17.4112 29.9432 18.0091 29.9432 18.0091C30.1036 18.0425 30.5611 18.1126 30.7916 18.0491L32.1744 17.645L25.9553 16.81C25.8718 16.9202 25.7816 17.0271 25.6881 17.1373Z" fill="#262625"/>
<path d="M25.5378 17.3076C25.4108 17.4513 25.2772 17.5949 25.137 17.7385L27.986 18.6169H27.9893C27.9927 18.6203 28.3834 18.7472 28.6807 18.6704L30.1303 18.2428C30.0067 18.2261 29.9165 18.2095 29.9065 18.2061L25.5378 17.3076Z" fill="#262625"/>
<path d="M26.4796 16.0919L32.9392 16.5228C33.0394 16.5361 33.3333 16.5595 33.4836 16.5228C33.6607 16.4626 33.7141 16.3558 33.7542 16.2856L34.018 15.8214C34.0347 15.7946 34.0514 15.7646 34.0815 15.7345H26.7134C26.6433 15.8481 26.5631 15.9683 26.4796 16.0919Z" fill="#262625"/>
<path d="M12.7455 19.2649C12.4349 19.0712 12.1276 18.8608 11.8337 18.627C11.0188 19.0077 10.2038 19.3885 10.2038 19.3885C10.1938 19.3918 10.0234 19.4787 9.81969 19.5154C9.91655 19.629 9.96331 19.7425 9.96999 19.7659C10.0568 19.9863 10.147 20.2135 10.7482 20.4406C11.0021 20.5207 11.2993 20.297 11.3027 20.2936L12.7455 19.2649Z" fill="#262625"/>
<path d="M12.9793 20.7111L13.8177 19.8394C13.5171 19.7058 13.2232 19.5521 12.9326 19.3818C12.1343 19.9529 11.4229 20.464 11.4229 20.464C11.4162 20.4673 11.3294 20.5341 11.2025 20.5875L12.4817 20.9382C12.6721 20.9817 12.9059 20.7913 12.9793 20.7111Z" fill="#262625"/>
<path d="M10.8384 17.7385C10.6948 17.5915 10.5612 17.4513 10.4376 17.3076C9.15169 17.5715 6.06887 18.2061 6.06887 18.2061C6.05885 18.2095 5.96867 18.2261 5.84509 18.2428C6.31603 18.3798 6.81703 18.5301 7.29465 18.6704C7.59191 18.7505 7.97935 18.6203 7.98937 18.6169L10.8384 17.7385Z" fill="#262625"/>
<path d="M15.1069 20.3103C14.7328 20.2034 14.3688 20.0732 14.0147 19.9229C13.5171 20.4439 13.123 20.8514 13.123 20.8514C13.1163 20.8581 13.0161 20.9616 12.8725 21.0418L14.2485 21.4159C14.4089 21.4426 14.5959 21.1787 14.6493 21.0785L15.1069 20.3103Z" fill="#262625"/>
<path d="M11.66 18.49C11.4229 18.2963 11.2058 18.0993 11.0021 17.9022C10.4443 18.0759 8.04615 18.814 8.04949 18.814C8.04281 18.814 7.98603 18.8307 7.90253 18.8508C8.77428 19.1113 9.4523 19.3083 9.51242 19.325C9.71282 19.3818 10.0101 19.2616 10.1136 19.2115L11.66 18.49Z" fill="#262625"/>
<path d="M10.284 17.134C10.1904 17.0238 10.1036 16.9169 10.0168 16.8067L3.79433 17.6417C4.01477 17.7085 4.53915 17.8588 5.18043 18.0492C5.41757 18.1093 5.86513 18.0391 6.02879 18.0057L10.284 17.134Z" fill="#262625"/>
<path d="M9.49571 16.0986C9.41221 15.975 9.33205 15.8548 9.26525 15.7412H1.89386C1.96734 15.8281 2.10762 16.1053 2.2145 16.289C2.2479 16.3591 2.30802 16.4627 2.48504 16.5261C2.63534 16.5629 2.92926 16.5395 3.02946 16.5295L9.49571 16.0986Z" fill="#262625"/>
<path d="M9.14168 15.5408C9.05818 15.3972 8.9847 15.2669 8.92457 15.1534C8.92457 15.1534 8.64735 14.6691 8.17641 14.6691H1.21584C1.0455 14.6724 0.9787 14.7459 0.97536 14.8394C0.97202 14.8728 0.98538 14.9262 1.02546 14.9997C1.04216 15.0298 1.27596 15.4139 1.27596 15.4139C1.33274 15.5041 1.36948 15.5241 1.5465 15.5375V15.5408H9.14168Z" fill="#262625"/>
<path d="M9.63265 16.299C9.63265 16.299 3.01944 16.7399 2.97602 16.7432C3.00274 16.7733 3.02946 16.8067 3.0495 16.8467L3.35678 17.3912C3.37014 17.4112 3.44362 17.488 3.67742 17.458L9.87313 16.6296C9.78963 16.5161 9.70947 16.4059 9.63265 16.299Z" fill="#262625"/>
</svg>
