<svg width="36" height="36" viewBox="0 0 36 36" fill="none" xmlns="http://www.w3.org/2000/svg">
<path d="M33.639 16.8923C33.5679 16.5395 33.4585 16.1921 33.319 15.8584C33.1822 15.533 33.0099 15.2184 32.813 14.9231C32.6161 14.6304 32.3891 14.3569 32.1402 14.108C31.8913 13.8591 31.6178 13.6321 31.3251 13.4352C31.0298 13.2355 30.718 13.066 30.3898 12.9292C30.0588 12.7897 29.7115 12.6803 29.3559 12.6092C28.9922 12.5354 28.6202 12.4971 28.2482 12.4971C27.8763 12.4971 27.5016 12.5354 27.1405 12.6092C26.7877 12.6803 26.4404 12.7897 26.1067 12.9292C25.7812 13.066 25.4667 13.2383 25.1713 13.4352C25.0592 13.509 24.9525 13.5911 24.8458 13.6731C24.7392 13.5911 24.6325 13.5118 24.5204 13.4352C24.225 13.2355 23.9132 13.066 23.585 12.9292C23.254 12.7897 22.9067 12.6803 22.5511 12.6092C22.1901 12.5354 21.8154 12.4971 21.4434 12.4971C21.0715 12.4971 20.6968 12.5354 20.3357 12.6092C19.9829 12.6803 19.6356 12.7897 19.3019 12.9292C18.9764 13.066 18.6619 13.2383 18.3665 13.4352C18.2489 13.5145 18.134 13.5993 18.0219 13.6868C17.9098 13.5993 17.7949 13.5145 17.68 13.4352C17.3846 13.2355 17.0728 13.066 16.7446 12.9292C16.4137 12.7897 16.0663 12.6803 15.7108 12.6092C15.3498 12.5354 14.9751 12.4971 14.6031 12.4971C14.2311 12.4971 13.8564 12.5354 13.4954 12.6092C13.1426 12.6803 12.7952 12.7897 12.4616 12.9292C12.1361 13.066 11.8216 13.2383 11.5262 13.4352C11.4086 13.5145 11.2964 13.5966 11.187 13.6841C11.0776 13.5966 10.9628 13.5145 10.8479 13.4352C10.5525 13.2355 10.2407 13.066 9.91249 12.9292C9.58155 12.7897 9.23421 12.6803 8.87865 12.6092C8.51762 12.5354 8.14292 12.4971 7.77096 12.4971C7.39899 12.4971 7.02429 12.5354 6.66327 12.6092C6.31044 12.6803 5.96309 12.7897 5.62942 12.9292C5.30395 13.066 4.98942 13.2383 4.69403 13.4352C4.40138 13.6321 4.12788 13.8591 3.87899 14.108C3.6301 14.3569 3.40309 14.6304 3.20617 14.9231C3.01745 15.2184 2.84788 15.533 2.71113 15.8584C2.57164 16.1894 2.46224 16.5367 2.39113 16.8923C2.31728 17.2533 2.27899 17.628 2.27899 18C2.27899 18.3719 2.31728 18.7466 2.39113 19.1077C2.46224 19.4605 2.57164 19.8078 2.71113 20.1388C2.84788 20.4643 3.02019 20.7788 3.21711 21.0742C3.41403 21.3641 3.64104 21.6403 3.88993 21.8892C4.13882 22.1381 4.41233 22.3651 4.70497 22.562C5.00036 22.7617 5.31215 22.9313 5.64036 23.068C5.9713 23.2075 6.31865 23.3169 6.67421 23.388C7.03523 23.4619 7.40993 23.5001 7.7819 23.5001C8.15386 23.5001 8.52856 23.4619 8.88959 23.388C9.24241 23.3169 9.58976 23.2075 9.92344 23.068C10.2489 22.9313 10.5634 22.759 10.8588 22.562C10.9737 22.4827 11.0886 22.4007 11.198 22.3131C11.3074 22.4007 11.4222 22.4827 11.5371 22.562C11.8325 22.7617 12.1443 22.9313 12.4725 23.068C12.8034 23.2075 13.1508 23.3169 13.5036 23.388C13.8646 23.4619 14.2393 23.5001 14.6113 23.5001C14.9833 23.5001 15.358 23.4619 15.719 23.388C16.0718 23.3169 16.4192 23.2075 16.7528 23.068C17.0783 22.9313 17.3928 22.759 17.6882 22.562C17.8058 22.4827 17.9207 22.3979 18.0328 22.3104C18.145 22.3979 18.2598 22.4827 18.3775 22.562C18.6728 22.7617 18.9846 22.9313 19.3128 23.068C19.6438 23.2075 19.9911 23.3169 20.3467 23.388C20.7077 23.4619 21.0824 23.5001 21.4544 23.5001C21.8263 23.5001 22.201 23.4619 22.5621 23.388C22.9149 23.3169 23.2622 23.2075 23.5959 23.068C23.9214 22.9313 24.2359 22.759 24.5313 22.562C24.6434 22.4882 24.7501 22.4061 24.8568 22.3241C24.9634 22.4061 25.0701 22.4854 25.1822 22.562C25.4776 22.7617 25.7894 22.9313 26.1176 23.068C26.4486 23.2075 26.7959 23.3169 27.1487 23.388C27.5098 23.4619 27.8845 23.5001 28.2564 23.5001C28.6284 23.5001 29.0031 23.4619 29.3641 23.388C29.7169 23.3169 30.0643 23.2075 30.398 23.068C30.7234 22.9313 31.038 22.759 31.3334 22.562C31.626 22.3651 31.8995 22.1381 32.1484 21.8892C32.3973 21.6403 32.6243 21.3668 32.8212 21.0742C33.0209 20.7788 33.1904 20.467 33.3272 20.1388C33.4667 19.8078 33.5761 19.4605 33.6472 19.1049C33.721 18.7412 33.7593 18.3692 33.7593 17.9972C33.7511 17.628 33.7128 17.2533 33.639 16.8923ZM5.38053 14.4444C5.61027 14.2885 5.85369 14.1572 6.10805 14.0478C6.36788 13.9384 6.63865 13.8537 6.91215 13.799C7.19386 13.7415 7.48651 13.7114 7.77643 13.7114C8.06634 13.7114 8.35899 13.7415 8.6407 13.799C8.91694 13.8564 9.18771 13.9384 9.4448 14.0478C9.69916 14.1545 9.94532 14.2885 10.1723 14.4444C10.2216 14.4772 10.2708 14.5128 10.32 14.5484C10.2216 14.6687 10.1286 14.7945 10.0438 14.9231C9.84412 15.2184 9.67455 15.5302 9.53779 15.8584C9.39831 16.1894 9.28891 16.5367 9.21779 16.8923C9.14395 17.2533 9.10566 17.628 9.10566 18C9.10566 18.3719 9.14395 18.7466 9.21779 19.1077C9.28891 19.4605 9.39831 19.8078 9.53779 20.1388C9.67455 20.4643 9.84685 20.7788 10.0438 21.0742C10.1313 21.2027 10.2243 21.3285 10.3228 21.4489C10.2735 21.4844 10.2243 21.52 10.1723 21.5555C9.94258 21.7114 9.69916 21.8427 9.4448 21.9521C9.18497 22.0615 8.91421 22.1463 8.6407 22.201C8.35899 22.2584 8.06634 22.2885 7.77643 22.2885C7.48651 22.2885 7.19386 22.2584 6.91215 22.201C6.63591 22.1436 6.36515 22.0615 6.10805 21.9521C5.85369 21.8454 5.61027 21.7114 5.38053 21.5555C5.15352 21.4024 4.94019 21.2246 4.746 21.0331C4.55181 20.839 4.37677 20.6256 4.22361 20.3986C4.06771 20.1689 3.93643 19.9254 3.82703 19.6711C3.71762 19.4113 3.63284 19.1405 3.57814 18.867C3.5207 18.5853 3.49062 18.2926 3.49062 18.0027C3.49062 17.7128 3.5207 17.4201 3.57814 17.1384C3.63557 16.8622 3.71762 16.5914 3.82703 16.3343C3.93369 16.08 4.06771 15.8338 4.22361 15.6068C4.37677 15.3798 4.55455 15.1665 4.746 14.9723C4.94019 14.7754 5.15352 14.5976 5.38053 14.4444ZM11.053 20.3986C10.8971 20.1689 10.7658 19.9254 10.6564 19.6711C10.547 19.4113 10.4622 19.1405 10.4075 18.867C10.3501 18.5853 10.32 18.2926 10.32 18.0027C10.32 17.7128 10.3501 17.4201 10.4075 17.1384C10.465 16.8622 10.547 16.5914 10.6564 16.3343C10.7631 16.08 10.8971 15.8338 11.053 15.6068C11.0968 15.5412 11.146 15.4755 11.1952 15.4099C11.2445 15.4755 11.291 15.5412 11.3375 15.6068C11.4933 15.8366 11.6246 16.08 11.734 16.3343C11.8434 16.5942 11.9282 16.8649 11.9829 17.1384C12.0404 17.4201 12.0704 17.7128 12.0704 18.0027C12.0704 18.2926 12.0404 18.5853 11.9829 18.867C11.9255 19.1432 11.8434 19.414 11.734 19.6711C11.6274 19.9254 11.4933 20.1716 11.3375 20.3986C11.2937 20.4643 11.2445 20.5299 11.1952 20.5955C11.146 20.5326 11.0968 20.467 11.053 20.3986ZM12.3412 21.0769C12.5409 20.7815 12.7104 20.4697 12.8472 20.1415C12.9867 19.8106 13.0961 19.4632 13.1672 19.1077C13.241 18.7466 13.2793 18.3719 13.2793 18C13.2793 17.628 13.241 17.2533 13.1672 16.8923C13.0961 16.5395 12.9867 16.1921 12.8472 15.8584C12.7104 15.533 12.5381 15.2184 12.3412 14.9231C12.2537 14.7945 12.1607 14.6687 12.0622 14.5484C12.1115 14.5128 12.1607 14.4772 12.2099 14.4444C12.4397 14.2885 12.6831 14.1572 12.9375 14.0478C13.1973 13.9384 13.4681 13.8537 13.7416 13.799C14.0233 13.7415 14.3159 13.7114 14.6058 13.7114C14.8957 13.7114 15.1884 13.7415 15.4701 13.799C15.7463 13.8564 16.0171 13.9384 16.2742 14.0478C16.5286 14.1545 16.7747 14.2885 17.0017 14.4444C17.0537 14.48 17.1057 14.5155 17.1549 14.5538C17.0592 14.6742 16.9662 14.7972 16.8814 14.9231C16.6817 15.2184 16.5122 15.5302 16.3754 15.8584C16.2359 16.1894 16.1265 16.5367 16.0554 16.8923C15.9816 17.2533 15.9433 17.628 15.9433 18C15.9433 18.3719 15.9816 18.7466 16.0554 19.1077C16.1265 19.4605 16.2359 19.8078 16.3754 20.1388C16.5122 20.4643 16.6845 20.7788 16.8814 21.0742C16.9689 21.2027 17.0592 21.3258 17.1576 21.4461C17.1057 21.4844 17.0564 21.52 17.0017 21.5555C16.772 21.7114 16.5286 21.8427 16.2742 21.9521C16.0144 22.0615 15.7436 22.1463 15.4701 22.201C15.1884 22.2584 14.8957 22.2885 14.6058 22.2885C14.3159 22.2885 14.0233 22.2584 13.7416 22.201C13.4653 22.1436 13.1945 22.0615 12.9375 21.9521C12.6831 21.8454 12.4397 21.7114 12.2099 21.5555C12.1607 21.5227 12.1087 21.4872 12.0622 21.4489C12.1607 21.3313 12.2537 21.2054 12.3412 21.0769ZM17.8906 20.3986C17.7347 20.1689 17.6034 19.9254 17.494 19.6711C17.3846 19.4113 17.2998 19.1405 17.2451 18.867C17.1877 18.5853 17.1576 18.2926 17.1576 18.0027C17.1576 17.7128 17.1877 17.4201 17.2451 17.1384C17.3026 16.8622 17.3846 16.5914 17.494 16.3343C17.6007 16.08 17.7347 15.8338 17.8906 15.6068C17.9344 15.5412 17.9809 15.4783 18.0274 15.4154C18.0739 15.4783 18.1204 15.5412 18.1641 15.6068C18.32 15.8366 18.4513 16.08 18.5607 16.3343C18.6701 16.5942 18.7549 16.8649 18.8096 17.1384C18.867 17.4201 18.8971 17.7128 18.8971 18.0027C18.8971 18.2926 18.867 18.5853 18.8096 18.867C18.7522 19.1432 18.6701 19.414 18.5607 19.6711C18.454 19.9254 18.32 20.1716 18.1641 20.3986C18.1204 20.4643 18.0739 20.5272 18.0274 20.5901C17.9809 20.5272 17.9344 20.4643 17.8906 20.3986ZM19.1706 21.0769C19.3703 20.7815 19.5398 20.4697 19.6766 20.1415C19.8161 19.8106 19.9255 19.4632 19.9966 19.1077C20.0704 18.7466 20.1087 18.3719 20.1087 18C20.1087 17.628 20.0704 17.2533 19.9966 16.8923C19.9255 16.5395 19.8161 16.1921 19.6766 15.8584C19.5398 15.533 19.3675 15.2184 19.1706 14.9231C19.0858 14.7945 18.9928 14.6714 18.8971 14.5511C18.9463 14.5128 18.9983 14.4772 19.0503 14.4417C19.28 14.2858 19.5234 14.1545 19.7778 14.0451C20.0376 13.9357 20.3084 13.8509 20.5819 13.7962C20.8636 13.7388 21.1563 13.7087 21.4462 13.7087C21.7361 13.7087 22.0287 13.7388 22.3104 13.7962C22.5867 13.8537 22.8575 13.9357 23.1145 14.0451C23.3689 14.1518 23.6151 14.2858 23.8421 14.4417C23.8858 14.4718 23.9296 14.5019 23.9706 14.5319C23.8694 14.6578 23.7737 14.7863 23.6834 14.9203C23.4838 15.2157 23.3142 15.5275 23.1775 15.8557C23.038 16.1866 22.9286 16.534 22.8575 16.8896C22.7836 17.2506 22.7453 17.6253 22.7453 17.9972C22.7453 18.3692 22.7836 18.7439 22.8575 19.1049C22.9286 19.4578 23.038 19.8051 23.1775 20.136C23.3142 20.4615 23.4865 20.776 23.6834 21.0714C23.7737 21.2054 23.8694 21.334 23.9733 21.4598C23.9296 21.4926 23.8858 21.5227 23.8421 21.5528C23.6123 21.7087 23.3689 21.84 23.1145 21.9494C22.8547 22.0588 22.5839 22.1436 22.3104 22.1983C22.0287 22.2557 21.7361 22.2858 21.4462 22.2858C21.1563 22.2858 20.8636 22.2557 20.5819 22.1983C20.3057 22.1408 20.0349 22.0588 19.7778 21.9494C19.5234 21.8427 19.28 21.7087 19.0503 21.5528C18.9983 21.5172 18.9463 21.4817 18.8971 21.4434C18.9928 21.3285 19.0831 21.2027 19.1706 21.0769ZM24.6927 20.3986C24.5368 20.1689 24.4055 19.9254 24.2961 19.6711C24.1867 19.4113 24.1019 19.1405 24.0472 18.867C23.9898 18.5853 23.9597 18.2926 23.9597 18.0027C23.9597 17.7128 23.9898 17.4201 24.0472 17.1384C24.1046 16.8622 24.1867 16.5914 24.2961 16.3343C24.4028 16.08 24.5368 15.8338 24.6927 15.6068C24.7419 15.533 24.7939 15.4619 24.8486 15.3907C24.9033 15.4619 24.9552 15.533 25.0045 15.6068C25.1604 15.8366 25.2916 16.08 25.401 16.3343C25.5104 16.5942 25.5952 16.8649 25.6499 17.1384C25.7074 17.4201 25.7375 17.7128 25.7375 18.0027C25.7375 18.2926 25.7074 18.5853 25.6499 18.867C25.5925 19.1432 25.5104 19.414 25.401 19.6711C25.2944 19.9254 25.1604 20.1716 25.0045 20.3986C24.9552 20.4725 24.9033 20.5436 24.8486 20.6147C24.7939 20.5436 24.7419 20.4725 24.6927 20.3986ZM26.0082 21.0769C26.2079 20.7815 26.3775 20.4697 26.5142 20.1415C26.6537 19.8106 26.7631 19.4632 26.8342 19.1077C26.908 18.7466 26.9463 18.3719 26.9463 18C26.9463 17.628 26.908 17.2533 26.8342 16.8923C26.7631 16.5395 26.6537 16.1921 26.5142 15.8584C26.3775 15.533 26.2051 15.2184 26.0082 14.9231C25.918 14.789 25.8222 14.6605 25.721 14.5347C25.7648 14.5046 25.8086 14.4718 25.8523 14.4417C26.0821 14.2858 26.3255 14.1545 26.5798 14.0451C26.8397 13.9357 27.1104 13.8509 27.3839 13.7962C27.6657 13.7388 27.9583 13.7087 28.2482 13.7087C28.5381 13.7087 28.8308 13.7388 29.1125 13.7962C29.3887 13.8537 29.6595 13.9357 29.9166 14.0451C30.171 14.1518 30.4171 14.2858 30.6441 14.4417C30.8711 14.5948 31.0845 14.7726 31.2786 14.9668C31.4728 15.161 31.6479 15.3743 31.801 15.6013C31.9569 15.8311 32.0882 16.0745 32.1976 16.3289C32.307 16.5887 32.3918 16.8595 32.4465 17.133C32.5039 17.4147 32.534 17.7073 32.534 17.9972C32.534 18.2872 32.5039 18.5798 32.4465 18.8615C32.3891 19.1378 32.307 19.4085 32.1976 19.6656C32.091 19.92 31.9569 20.1661 31.801 20.3931C31.6479 20.6201 31.4701 20.8335 31.2786 21.0277C31.0872 21.2219 30.8711 21.3969 30.6441 21.5501C30.4144 21.706 30.171 21.8372 29.9166 21.9466C29.6568 22.056 29.386 22.1408 29.1125 22.1955C28.8308 22.253 28.5381 22.2831 28.2482 22.2831C27.9583 22.2831 27.6657 22.253 27.3839 22.1955C27.1077 22.1381 26.8369 22.056 26.5798 21.9466C26.3255 21.84 26.0821 21.706 25.8523 21.5501C25.8086 21.52 25.7648 21.4899 25.721 21.4571C25.8222 21.3395 25.918 21.2109 26.0082 21.0769Z" fill="#262625"/>
</svg>
