<svg width="36" height="36" viewBox="0 0 36 36" fill="none" xmlns="http://www.w3.org/2000/svg">
<path d="M13.8908 16.3594C13.9292 15.9083 14.4955 15.3996 14.4188 14.9388C14.3516 14.5741 13.9004 14.2669 13.4493 14.1997C13.1901 14.1613 12.3359 14.0942 12.1439 14.0846C11.9135 14.075 11.2992 14.0654 11.0977 14.0654C10.9057 14.0654 10.397 14.0558 10.2434 14.0558C10.0898 14.0558 9.90744 14.0462 9.65788 14.0078C9.40832 13.9694 9.23554 13.9118 8.99558 13.8446C8.75561 13.7678 8.56364 13.7102 8.37167 13.6718C8.1797 13.6334 7.93974 13.595 7.77656 13.5758C7.61339 13.5566 7.27744 13.5374 7.03748 13.5278C6.78792 13.5278 6.18321 13.5278 5.98164 13.5278C5.78967 13.5278 5.17536 13.5566 5.02179 13.5566C4.85861 13.5566 4.69544 13.5566 4.61865 13.5566C4.54186 13.5566 4.56106 13.595 4.52266 13.6046C4.48427 13.6142 4.3019 13.6046 4.19631 13.6046C4.09073 13.6046 4.01394 13.6046 3.97555 13.595C3.93715 13.595 3.88916 13.595 3.88916 13.595C3.88916 13.595 3.87956 13.6334 3.91795 13.643C3.95635 13.6526 4.04274 13.6622 4.08113 13.6622C4.10992 13.6622 4.35949 13.6814 4.44587 13.691C4.53226 13.691 4.68584 13.691 4.78182 13.7006C4.87781 13.7102 5.05058 13.7102 5.16576 13.7102C5.28095 13.7102 5.73208 13.7102 5.89525 13.7102C6.05843 13.7198 6.37518 13.7198 6.52876 13.7198C6.68233 13.7294 7.04708 13.739 7.33503 13.7774C7.62299 13.8158 7.85335 13.8446 8.14131 13.9118C8.41967 13.979 8.74602 14.0846 8.89959 14.1326C9.06277 14.1805 9.28353 14.2381 9.38912 14.2669C9.5043 14.2957 9.60988 14.2957 9.63868 14.3245C9.66748 14.3437 9.66748 14.3725 9.64828 14.4109C9.62908 14.4493 9.61948 14.4589 9.60029 14.4973C9.59069 14.5357 9.57149 14.5549 9.57149 14.5549H9.46591C9.46591 14.5549 9.4851 14.5357 9.4851 14.5165C9.4851 14.4973 9.42751 14.4589 9.36032 14.4493C9.29313 14.4397 9.00518 14.4109 8.92839 14.4013C8.8516 14.3917 8.56364 14.3629 8.41007 14.3629C8.25649 14.3629 7.64219 14.3629 7.48861 14.3629C7.33503 14.3725 6.75912 14.3533 6.61514 14.3629C6.47116 14.3725 5.96244 14.3629 5.82806 14.3629C5.69368 14.3629 5.37693 14.3629 5.24255 14.3629C5.11777 14.3629 4.68584 14.3629 4.53226 14.3629C4.37868 14.3629 3.86036 14.3437 3.76438 14.3533C3.66839 14.3533 3.38044 14.3437 3.23646 14.3437C3.09248 14.3437 2.60296 14.3245 2.47817 14.3245C2.34379 14.3245 2.18062 14.3149 2.13263 14.2957C2.08463 14.2765 1.80628 14.1326 1.69109 14.0846C1.57591 14.027 1.36474 13.9214 1.30715 13.8926C1.24956 13.8638 1.19197 13.8254 1.17277 13.8158C1.15358 13.8062 1.07679 13.883 1.05759 13.9118C1.03839 13.9406 1 13.9118 1 13.9118C1 13.9118 1.26876 13.6142 1.32635 13.547C1.38394 13.4799 1.45113 13.3935 1.47993 13.3839C1.50872 13.3743 1.6239 13.3743 1.70069 13.3839C1.76788 13.3935 2.22861 13.4319 2.315 13.4415C2.40139 13.4511 2.78533 13.4607 2.89091 13.4703C2.9965 13.4703 3.47642 13.4799 3.6396 13.4799C3.80277 13.4799 4.31149 13.499 4.45547 13.4894C4.60905 13.4799 5.03138 13.4415 5.15617 13.4319C5.29054 13.4223 5.69368 13.3935 5.88565 13.3935C6.07762 13.3839 6.47116 13.3935 6.59595 13.3839C6.72073 13.3743 7.21985 13.3743 7.38302 13.3743C7.5558 13.3743 8.03573 13.3935 8.1989 13.4031C8.36208 13.4031 9.06277 13.4415 9.24514 13.4511C9.42751 13.4607 10.3394 13.4894 10.5409 13.499C10.7425 13.5086 11.0401 13.5182 11.2032 13.5086C11.3664 13.499 12.1247 13.4607 12.3551 13.4607C12.5854 13.4511 13.1997 13.4415 13.4397 13.4511C13.6893 13.4607 14.2844 13.5182 14.4859 13.5374C14.6875 13.5662 14.8891 13.6142 14.9371 13.6142C14.9947 13.6142 15.081 13.6238 15.1194 13.6526C15.1482 13.6814 15.177 13.7486 15.2442 13.787C15.3018 13.8254 15.3882 13.835 15.417 13.8734C15.4458 13.9118 15.4458 13.9982 15.465 14.027C15.4842 14.0654 15.5514 14.1709 15.561 14.2477C15.5706 14.3245 15.561 14.4589 15.513 14.5357C15.465 14.6221 15.3786 14.7181 15.2922 14.814C15.2058 14.91 15.0619 15.006 14.9467 15.1116C14.8219 15.2172 14.6203 15.3708 14.5147 15.5147C14.4092 15.6587 14.342 15.7547 14.3228 15.8987C14.3036 16.0427 14.3132 16.129 14.3036 16.1578C14.294 16.1866 14.2748 16.2442 14.2364 16.2826C14.198 16.321 14.054 16.4938 13.9964 16.561C13.9388 16.6282 13.8524 16.7625 13.8332 16.8009C13.814 16.8393 13.7948 16.8681 13.7948 16.8681L13.7565 16.8105C13.7565 16.8105 13.8332 16.7242 13.8428 16.6954C13.8812 16.6378 13.8716 16.5322 13.8908 16.3594Z" fill="#262625"/>
<path d="M2.00769 14.6605L2.02689 14.5741C2.02689 14.5741 2.27645 14.5741 2.35324 14.5741C2.43003 14.5741 2.88116 14.5933 3.04433 14.5933C3.20751 14.5933 3.69703 14.6125 3.82181 14.6029C3.937 14.5933 4.60889 14.6125 4.75287 14.6125C4.89685 14.6125 5.59754 14.6125 5.74152 14.6221C5.8855 14.6221 6.68218 14.6317 6.80696 14.6317C6.93174 14.6317 7.59404 14.6317 7.74761 14.6317C7.90119 14.6317 8.56349 14.6317 8.70747 14.6317C8.86104 14.6317 9.23539 14.6413 9.32177 14.6317C9.40816 14.6317 9.47535 14.6221 9.48495 14.6125C9.50415 14.6125 9.55214 14.5837 9.59053 14.6029C9.61933 14.6221 9.63852 14.6509 9.64812 14.6701C9.66732 14.6893 9.69612 14.7085 9.70571 14.7277C9.72491 14.7373 9.75371 14.7565 9.7825 14.7853C9.8017 14.8141 9.8017 14.8141 9.84009 14.8429C9.87849 14.8717 9.87849 14.8812 9.86889 14.9004C9.85929 14.9196 9.8017 14.9772 9.7825 15.0156C9.76331 15.054 9.75371 15.0828 9.74411 15.0924C9.73451 15.102 9.65772 15.1116 9.65772 15.1116C9.65772 15.1116 9.70571 15.0828 9.69612 15.054C9.68652 15.0252 9.63852 14.958 9.53294 14.9484C9.42736 14.9388 9.1682 14.9676 9.04342 14.9772C8.92823 14.9868 8.15075 15.054 8.00677 15.0732C7.87239 15.0828 6.78776 15.1596 6.60539 15.1788C6.42302 15.198 5.56875 15.246 5.40557 15.2556C5.2424 15.2652 4.59929 15.3036 4.40732 15.3132C4.20575 15.3228 3.75462 15.342 3.58185 15.3516C3.40908 15.3612 3.06353 15.3708 2.99634 15.3612C2.92915 15.3612 2.84276 15.3228 2.80437 15.3036C2.75638 15.2844 2.48762 15.1596 2.40123 15.1212C2.32444 15.0828 2.19006 15.0348 2.16127 14.9964C2.13247 14.9676 2.15167 14.91 2.15167 14.8717C2.15167 14.8333 2.15167 14.7853 2.10368 14.7469C2.06528 14.7085 2.00769 14.6605 2.00769 14.6605Z" fill="#262625"/>
<path d="M2.87158 15.7259V15.6492C2.87158 15.6492 2.98676 15.6492 3.04436 15.6396C3.10195 15.63 3.35151 15.63 3.50509 15.6204C3.66826 15.6108 4.30176 15.582 4.49373 15.5724C4.6953 15.5628 5.59757 15.5148 5.77034 15.4956C5.94311 15.486 7.12373 15.3996 7.29651 15.39C7.45968 15.3708 8.44833 15.294 8.60191 15.2844C8.75548 15.2748 9.2738 15.2172 9.45618 15.2076C9.63855 15.1884 9.66734 15.1692 9.69614 15.1692C9.72494 15.1692 9.74413 15.15 9.77293 15.1884C9.80172 15.2268 9.85931 15.294 9.89771 15.3132C9.9361 15.342 10.0513 15.4092 10.0513 15.4476C10.0513 15.486 10.0225 15.534 10.0033 15.5628C9.9841 15.6012 9.9841 15.6684 9.9841 15.6684L9.86891 15.6875C9.86891 15.6875 9.87851 15.6588 9.87851 15.6396C9.87851 15.6204 9.85931 15.5724 9.81132 15.5532C9.76333 15.534 9.67694 15.5148 9.60015 15.534C9.52337 15.5532 9.14902 15.6108 9.00505 15.6396C8.85147 15.6684 7.9876 15.8123 7.77643 15.8411C7.56526 15.8795 6.73019 16.0043 6.53822 16.0331C6.33665 16.0619 5.56877 16.1579 5.30001 16.1867C5.03125 16.2155 4.7049 16.2443 4.52253 16.2539C4.34016 16.2635 4.15779 16.2827 4.02341 16.2635C3.88903 16.2443 3.60107 16.1579 3.47629 16.1291C3.35151 16.1003 3.15954 16.0427 3.13074 16.0139C3.10195 15.9851 3.08275 15.9467 3.07315 15.9083C3.06355 15.8699 3.00596 15.7835 2.96757 15.7739C2.93877 15.7643 2.87158 15.7259 2.87158 15.7259Z" fill="#262625"/>
<path d="M3.95637 16.5898C3.95637 16.5898 4.00436 16.5994 4.06195 16.5898C4.11954 16.5803 4.15794 16.5611 4.22513 16.5515C4.29232 16.5515 4.47469 16.5419 4.58027 16.5323C4.68586 16.5323 4.99301 16.4939 5.0986 16.4843C5.20418 16.4747 5.7225 16.4267 5.88567 16.3979C6.04885 16.3787 6.96071 16.2443 7.11429 16.2251C7.26786 16.2059 8.02615 16.0907 8.23732 16.0523C8.44848 16.0139 9.13958 15.8892 9.32195 15.8604C9.50432 15.822 9.71549 15.7932 9.79228 15.774C9.86907 15.7548 9.92666 15.7164 9.97465 15.7356C10.0226 15.7452 10.061 15.7836 10.1186 15.8124C10.1762 15.8412 10.2626 15.87 10.3106 15.8796C10.3586 15.8988 10.397 15.918 10.4066 15.9371C10.4162 15.9563 10.4066 16.0235 10.3874 16.0523C10.3682 16.0907 10.3586 16.1099 10.349 16.1483C10.3394 16.1867 10.3394 16.2155 10.3394 16.2155L10.2338 16.2539C10.2338 16.2539 10.253 16.2059 10.2338 16.1771C10.2146 16.1483 10.157 16.1099 10.1282 16.1099C10.0994 16.1099 10.0514 16.1195 9.99385 16.1387C9.94585 16.1579 9.28356 16.3499 9.17797 16.3883L8.39089 16.609C8.29491 16.6378 7.671 16.7914 7.49823 16.8298C7.32545 16.8682 6.67275 17.0026 6.50958 17.0314C6.3464 17.0602 5.7321 17.137 5.57852 17.1466C5.42495 17.1562 5.39615 17.1658 5.27137 17.1562C5.14659 17.1466 4.90662 17.1178 4.76265 17.0986C4.60907 17.0794 4.45549 17.041 4.3979 17.0314C4.34031 17.0218 4.29232 17.0122 4.26352 16.945C4.23473 16.8778 4.24433 16.8298 4.19633 16.7818C4.15794 16.7338 4.10035 16.6858 4.07155 16.6762C4.03316 16.657 3.98517 16.657 3.97557 16.6474C3.94677 16.6282 3.95637 16.5898 3.95637 16.5898Z" fill="#262625"/>
<path d="M5.27136 17.4824C5.27136 17.4824 5.71289 17.4344 5.81848 17.4248C5.91446 17.4056 6.60556 17.3096 6.76873 17.2808C6.93191 17.2424 7.6422 17.0889 7.76698 17.0601C7.89176 17.0313 8.66924 16.8297 8.82282 16.7913C8.9764 16.7529 9.49472 16.5993 9.63869 16.5609C9.78267 16.5129 10.1954 16.3882 10.2338 16.369C10.2818 16.3498 10.3298 16.3114 10.3778 16.321C10.4258 16.3306 10.5602 16.369 10.6081 16.3786C10.6561 16.3978 10.7809 16.417 10.8097 16.4362C10.8289 16.4554 10.8385 16.4745 10.8385 16.5129C10.8385 16.5513 10.8385 16.7241 10.8385 16.7433C10.8385 16.7625 10.8865 16.8009 10.8865 16.8009L10.7713 16.8489C10.7425 16.8585 10.6945 16.8777 10.6945 16.8777C10.6945 16.8777 10.7041 16.8297 10.7041 16.8105C10.6945 16.7913 10.6273 16.7529 10.6081 16.7529C10.5889 16.7433 10.5698 16.7529 10.5122 16.7721C10.4642 16.7913 10.3298 16.8489 10.2626 16.8777C10.1954 16.9065 9.80187 17.0601 9.68669 17.1081C9.57151 17.156 9.09158 17.3384 8.938 17.3864C8.78443 17.444 8.09333 17.6744 7.96855 17.7128C7.84377 17.7512 7.39264 17.8759 7.27746 17.9047C7.17187 17.9335 7.11428 17.9527 7.02789 17.9623C6.94151 17.9623 6.59596 17.9335 6.45198 17.9143C6.308 17.8951 5.91446 17.8375 5.85687 17.8183C5.79928 17.7991 5.77049 17.78 5.73209 17.7416C5.7033 17.7032 5.6745 17.6744 5.61691 17.6456C5.55932 17.6168 5.50173 17.588 5.45373 17.5688C5.40574 17.5496 5.38654 17.54 5.35775 17.5304C5.32895 17.5208 5.30016 17.5112 5.28096 17.5016C5.27136 17.5016 5.27136 17.4824 5.27136 17.4824Z" fill="#262625"/>
<path d="M7.11414 18.2504C7.11414 18.2504 7.25811 18.212 7.29651 18.1928C7.3349 18.1736 7.57487 18.1064 7.64206 18.0872C7.71884 18.068 7.978 18.0008 8.08359 17.9624C8.18917 17.924 8.70749 17.7512 8.81308 17.7129C8.90906 17.6745 9.52337 17.4441 9.64815 17.4057C9.77293 17.3577 10.4448 17.0794 10.5504 17.041C10.6464 17.0026 10.7424 16.9642 10.7808 16.9354C10.8192 16.9162 10.9248 16.8586 10.9727 16.849C11.0207 16.8394 11.1263 16.8202 11.1743 16.8202C11.2223 16.8202 11.2511 16.8202 11.2703 16.8394C11.2895 16.8586 11.2991 16.8874 11.2991 16.9258C11.2991 16.9642 11.3087 17.0506 11.3471 17.0889C11.3855 17.1177 11.4527 17.1465 11.5199 17.1657C11.5871 17.1849 11.6542 17.1945 11.683 17.1945C11.7118 17.1945 11.7214 17.1945 11.7214 17.1945C11.7214 17.1945 11.5871 17.2809 11.5487 17.2905L11.3663 17.3769C11.3663 17.3769 11.3567 17.3385 11.3375 17.3289C11.3183 17.3193 11.2511 17.3193 11.2031 17.3289C11.1455 17.3289 11.0975 17.3577 11.0495 17.3865C11.0015 17.4153 10.5312 17.6649 10.4352 17.7129C10.3392 17.7608 9.61935 18.1352 9.52337 18.1832C9.42738 18.2312 8.96665 18.4519 8.88986 18.4903C8.81308 18.5287 8.76508 18.5575 8.69789 18.5575C8.6307 18.5671 8.46753 18.5671 8.32355 18.5671C8.17957 18.5671 7.89162 18.5575 7.80523 18.5575C7.71884 18.5575 7.59406 18.5479 7.51727 18.5191C7.45008 18.4903 7.44049 18.4519 7.40209 18.4039C7.3637 18.356 7.27731 18.308 7.23892 18.2984C7.20052 18.2888 7.14293 18.2792 7.12373 18.2888C7.11414 18.308 7.11414 18.2504 7.11414 18.2504Z" fill="#262625"/>
<path d="M8.7843 18.8455C8.7843 18.8455 9.34102 18.5671 9.4274 18.5287C9.51379 18.4903 10.3489 18.068 10.4544 18.0008C10.56 17.9432 11.1743 17.6073 11.3087 17.5305C11.4431 17.4537 11.6255 17.3577 11.6543 17.3385C11.6831 17.3193 11.7023 17.2905 11.7407 17.2809C11.779 17.2713 11.7982 17.2617 11.7982 17.2617C11.7982 17.2617 11.8462 17.3289 11.875 17.3673C11.9038 17.4057 11.971 17.4729 12.0478 17.4825C12.1246 17.4921 12.1534 17.4921 12.2014 17.4921C12.2494 17.4921 12.3262 17.4729 12.3262 17.4729C12.3262 17.4729 12.1246 17.6649 12.0862 17.6937C12.0478 17.7224 11.6063 18.0872 11.5199 18.164C11.4335 18.2408 11.1071 18.4903 11.0304 18.5575C10.9536 18.6151 10.7232 18.7879 10.6752 18.8167C10.6272 18.8455 10.4928 18.8935 10.4161 18.9127C10.3393 18.9319 9.96492 19.0087 9.83054 19.0374C9.69616 19.0662 9.40821 19.1142 9.35062 19.1142C9.29302 19.1142 9.21624 19.1142 9.16824 19.0662C9.12025 19.0183 9.09145 18.9415 9.02427 18.9031C8.95708 18.8743 8.91868 18.8551 8.87069 18.8551C8.7939 18.8743 8.7843 18.8455 8.7843 18.8455Z" fill="#262625"/>
<path d="M10.4161 19.1717C10.4161 19.1717 10.7233 18.9509 10.7905 18.8934C10.8577 18.8358 11.1264 18.6246 11.2032 18.567C11.28 18.5094 11.5968 18.2503 11.7023 18.1639C11.7983 18.0871 12.0959 17.8375 12.1727 17.7607C12.2495 17.6935 12.403 17.5496 12.403 17.5496C12.403 17.5496 12.4126 17.6072 12.4414 17.6263C12.4702 17.6455 12.5086 17.6935 12.5662 17.7223C12.6334 17.7511 12.7198 17.7511 12.7774 17.7511C12.8446 17.7511 12.9022 17.7415 12.931 17.7415C12.9597 17.7415 12.9981 17.7511 12.9981 17.7991C12.9981 17.8375 13.0077 17.8663 13.0077 17.8855C13.0077 17.9047 13.0173 17.9239 13.0173 17.9239L12.5662 18.423C12.4798 18.519 12.2207 18.7974 12.1439 18.8742C12.0671 18.9605 11.8559 19.1813 11.8367 19.2005C11.8079 19.2197 11.7407 19.2005 11.6927 19.1813C11.6352 19.1429 11.5872 19.1717 11.52 19.1909C11.4528 19.2101 11.328 19.2485 11.2512 19.2677C11.184 19.2869 10.9825 19.3253 10.9345 19.3253C10.8865 19.3253 10.8289 19.3253 10.7905 19.2869C10.7617 19.2485 10.6849 19.1813 10.6465 19.1621C10.6081 19.1429 10.5697 19.1333 10.5505 19.1429C10.5025 19.1621 10.4257 19.2005 10.4161 19.1717Z" fill="#262625"/>
<path d="M11.8943 19.2678C11.8943 19.2678 12.1918 18.9606 12.2494 18.8934C12.3166 18.8262 12.6718 18.4423 12.7486 18.3559C12.8253 18.2695 12.9501 18.116 12.9885 18.0776C13.0173 18.0392 13.0461 18.0104 13.0557 18.0104C13.0749 18.0104 13.1517 18.0104 13.2189 17.9912C13.2861 17.9816 13.3821 17.9528 13.4109 17.9624C13.4397 17.972 13.4397 17.9912 13.4397 18.0104C13.4397 18.0296 13.4492 18.2407 13.4492 18.3079C13.4492 18.3751 13.4492 18.5287 13.4397 18.5767C13.4205 18.6343 13.2669 18.9414 13.2285 19.0278C13.1901 19.1142 13.0845 19.3062 13.0749 19.3446C13.0557 19.383 13.0557 19.3926 13.0365 19.4022C13.0269 19.4118 12.9981 19.3734 12.9597 19.3254C12.9021 19.2582 12.8541 19.2678 12.7965 19.287C12.739 19.3062 12.4222 19.383 12.3646 19.3926C12.307 19.4022 12.211 19.431 12.163 19.4214C12.1151 19.4118 12.0863 19.3734 12.0671 19.335C12.0383 19.2966 12.0095 19.2678 11.9807 19.2678C11.9231 19.2774 11.8943 19.2678 11.8943 19.2678Z" fill="#262625"/>
<path d="M13.3245 19.0471C13.3245 19.0471 13.4013 18.8743 13.4108 18.8455C13.43 18.8167 13.4492 18.7592 13.4492 18.7592C13.4492 18.7592 13.4684 18.8455 13.4876 18.8935C13.5068 18.9319 13.5452 18.9799 13.5644 19.0279C13.574 19.0663 13.6508 19.2487 13.6604 19.2775C13.67 19.3063 13.6988 19.3543 13.6892 19.3831C13.6796 19.4119 13.6892 19.4311 13.6988 19.4598C13.7084 19.4886 13.718 19.5078 13.6988 19.5174C13.67 19.527 13.622 19.5654 13.6028 19.575C13.5836 19.5846 13.5452 19.5846 13.5164 19.5462C13.4972 19.527 13.4396 19.5174 13.3917 19.479C13.3437 19.4407 13.3437 19.4119 13.3533 19.3735C13.3533 19.3351 13.3821 19.1911 13.3629 19.1527C13.3533 19.1143 13.3245 19.0471 13.3245 19.0471Z" fill="#262625"/>
<path d="M11.8367 19.6421C11.8367 19.6421 11.9231 19.7573 11.9902 19.7573C12.0478 19.7573 12.067 19.7381 12.0958 19.7285C12.1246 19.7189 12.1726 19.7189 12.1918 19.7285C12.211 19.7381 12.2494 19.7765 12.2398 19.8149C12.2398 19.8533 12.259 19.93 12.2878 19.9876C12.3166 20.0548 12.4414 20.314 12.5182 20.4292C12.595 20.554 12.8061 20.8515 12.8925 20.9667C12.9885 21.0723 13.286 21.4082 13.3628 21.4754C13.4396 21.5426 13.8332 21.8785 13.9771 21.9745C14.1211 22.0705 14.4571 22.2913 14.6586 22.3873C14.8602 22.4929 15.1194 22.608 15.1866 22.6368C15.2537 22.6656 15.2921 22.6656 15.3113 22.6848C15.3209 22.704 15.3497 22.7232 15.3497 22.7232L15.2729 22.848L15.2058 22.9536L15.1482 22.9248C15.1482 22.9248 15.1866 22.8864 15.177 22.8576C15.1578 22.8288 15.1482 22.8 15.1002 22.7712C15.0522 22.7424 14.8506 22.6656 14.7642 22.6176C14.6778 22.5792 14.2939 22.3681 14.1499 22.2817C14.0155 22.1953 13.6796 21.9649 13.5164 21.8306C13.3532 21.7058 13.0077 21.3602 12.9021 21.2354C12.7869 21.1107 12.547 20.7939 12.4702 20.6787C12.3934 20.5635 12.1918 20.1892 12.1438 20.0932C12.0958 19.9972 12.0766 19.93 12.0382 19.8917C11.9998 19.8533 11.9806 19.8437 11.971 19.8437C11.9519 19.8437 11.9135 19.8341 11.9135 19.8341C11.9135 19.8341 11.9039 19.8053 11.8751 19.7381C11.8559 19.6997 11.8367 19.6421 11.8367 19.6421Z" fill="#262625"/>
<path d="M12.2589 19.7189C12.2589 19.7189 12.3453 19.7189 12.4125 19.6901C12.4797 19.6613 12.6621 19.6133 12.7293 19.5941C12.8061 19.5749 12.8924 19.5365 12.9212 19.5269C12.9596 19.5173 12.9884 19.5077 13.0076 19.5077C13.0268 19.5077 13.046 19.5269 13.0652 19.5557C13.094 19.5941 13.1228 19.6613 13.1516 19.6901C13.19 19.7189 13.238 19.7669 13.3052 19.7573C13.3724 19.7477 13.4396 19.7381 13.4972 19.7189C13.5547 19.6901 13.6603 19.6229 13.6795 19.6133C13.6987 19.6037 13.7371 19.5749 13.7467 19.5845C13.7563 19.5941 13.7755 19.6229 13.7947 19.6229C13.8139 19.6229 13.8331 19.6517 13.8427 19.6709C13.8523 19.6901 14.0059 19.9108 14.0923 20.0164C14.1787 20.1124 14.2938 20.2468 14.3802 20.3332C14.4666 20.41 14.7066 20.6211 14.8026 20.6883C14.8985 20.7555 15.1769 20.9475 15.3017 21.0051C15.4265 21.0723 15.58 21.149 15.7048 21.2066C15.8296 21.2546 15.9544 21.3122 15.9928 21.3218C16.0312 21.341 16.0408 21.3602 16.06 21.3794C16.0888 21.3986 16.0984 21.4274 16.0888 21.4466C16.0792 21.4754 15.9448 21.677 15.8968 21.7729C15.8392 21.8785 15.7336 22.0417 15.6952 22.1089C15.6568 22.1857 15.5416 22.3585 15.5128 22.416C15.4841 22.4736 15.3977 22.608 15.3881 22.6272C15.3881 22.6368 15.3593 22.6368 15.3497 22.6272C15.3401 22.6176 15.3785 22.5792 15.3785 22.5312C15.3785 22.4832 15.3497 22.416 15.3209 22.3873C15.2921 22.3585 15.2153 22.3201 15.1673 22.3009C15.1193 22.2817 14.9081 22.1761 14.8026 22.1185C14.697 22.0609 14.4762 21.9361 14.3322 21.8401C14.1882 21.7441 13.9963 21.6194 13.8811 21.5234C13.7563 21.4274 13.5835 21.2738 13.478 21.1682C13.3724 21.0627 13.19 20.8611 13.0748 20.7171C12.9596 20.5731 12.8157 20.3716 12.7389 20.2372C12.6621 20.0932 12.5757 19.9204 12.5565 19.8916C12.5277 19.8628 12.4893 19.8148 12.4317 19.7956C12.3741 19.7764 12.3453 19.7669 12.3165 19.7669C12.2877 19.7669 12.2493 19.7669 12.2397 19.7477C12.2589 19.7285 12.2589 19.7189 12.2589 19.7189Z" fill="#262625"/>
<path d="M9.77305 14.3438C9.77305 14.3438 10.2338 14.3438 10.3682 14.3438C10.5025 14.3438 10.8961 14.3438 10.9345 14.3438C10.9729 14.3438 11.0305 14.3629 11.0497 14.3629L11.088 14.3725C11.088 14.3725 11.1072 14.4205 11.088 14.4301C11.0688 14.4493 11.0592 14.4973 11.0401 14.5261C11.0305 14.5549 11.0401 14.5837 11.0209 14.5933C11.0017 14.6029 10.9249 14.6125 10.9249 14.6125C10.9249 14.6125 10.9345 14.5741 10.9153 14.5645C10.8961 14.5549 10.8385 14.5261 10.7905 14.5357C10.7425 14.5357 10.5121 14.5645 10.4353 14.5645C10.3586 14.5741 10.157 14.6029 10.109 14.6029C10.0706 14.6125 10.0226 14.6029 9.99381 14.5933C9.96502 14.5837 9.84983 14.5357 9.82104 14.5069C9.79224 14.4781 9.77305 14.4685 9.76345 14.4685L9.71545 14.4589L9.73465 14.4013C9.75385 14.3725 9.77305 14.3438 9.77305 14.3438Z" fill="#262625"/>
<path d="M9.90735 14.9964C9.90735 14.9964 9.95534 14.9292 9.96494 14.9196C9.98414 14.91 10.0897 14.8716 10.1377 14.862C10.1857 14.8524 10.3873 14.8045 10.4833 14.7757C10.5792 14.7565 10.752 14.7181 10.8384 14.6989C10.9248 14.6797 11.0016 14.6509 11.0208 14.6509C11.0496 14.6509 11.088 14.6605 11.1168 14.6797C11.1456 14.6989 11.1936 14.7373 11.2223 14.7565C11.2511 14.7757 11.2799 14.8141 11.2703 14.8333C11.2607 14.8524 11.2511 14.8716 11.2319 14.8908C11.2127 14.91 11.2223 14.9196 11.2127 14.9388C11.2032 14.958 11.2032 14.9964 11.2032 14.9964C11.2032 14.9964 11.1264 15.0156 11.1168 15.0252C11.1072 15.0252 11.088 15.0348 11.088 15.0348C11.088 15.0348 11.1072 14.9868 11.0976 14.9772C11.0784 14.9676 11.0304 14.9292 10.9728 14.9196C10.9152 14.9196 10.7616 14.958 10.7136 14.9772C10.6656 14.9964 10.4737 15.0444 10.3969 15.0636C10.3201 15.0828 10.2529 15.1212 10.1953 15.1116C10.1377 15.102 10.0897 15.0828 10.0321 15.054C9.98414 15.0252 9.96494 15.0156 9.95534 15.006C9.94574 15.0156 9.90735 14.9964 9.90735 14.9964Z" fill="#262625"/>
<path d="M10.1089 15.5147C10.1089 15.5147 10.1089 15.4763 10.1377 15.4572C10.1569 15.438 10.2145 15.4284 10.2433 15.4092C10.2721 15.39 10.3584 15.3612 10.4544 15.3324C10.5504 15.294 10.7328 15.246 10.8 15.2268C10.8768 15.2076 11.0399 15.15 11.0783 15.1404C11.1167 15.1212 11.1743 15.0924 11.2127 15.0924C11.2511 15.0924 11.3279 15.1116 11.3759 15.1308C11.4239 15.15 11.4623 15.1692 11.4719 15.198C11.4815 15.2268 11.4623 15.2748 11.4431 15.294C11.4239 15.3228 11.4239 15.342 11.4143 15.3612C11.4047 15.3804 11.4047 15.4188 11.4047 15.4188C11.4047 15.4188 11.3759 15.438 11.3471 15.4476L11.2991 15.4572C11.2991 15.4572 11.2991 15.4188 11.2799 15.3996C11.2607 15.3708 11.1935 15.3516 11.1551 15.3612C11.1167 15.3708 10.9536 15.438 10.896 15.4668C10.8384 15.4955 10.6656 15.5723 10.5984 15.6011C10.5408 15.6299 10.5024 15.6491 10.4352 15.6395C10.3776 15.6299 10.3201 15.6203 10.2721 15.6011C10.2241 15.5819 10.1665 15.5435 10.1377 15.5435C10.1473 15.5147 10.1089 15.5147 10.1089 15.5147Z" fill="#262625"/>
<path d="M10.4929 15.937L10.704 15.841C10.7712 15.8026 11.04 15.6875 11.1264 15.6491C11.2128 15.6107 11.3471 15.5435 11.3759 15.5339C11.4047 15.5243 11.4335 15.4955 11.4719 15.4955C11.5103 15.4955 11.5871 15.5147 11.6255 15.5243C11.6735 15.5339 11.7311 15.5435 11.7407 15.5723C11.7599 15.6011 11.7599 15.6587 11.7599 15.6683C11.7503 15.6875 11.7311 15.745 11.7407 15.7642C11.7407 15.7834 11.7503 15.841 11.7503 15.841L11.6831 15.8794C11.6543 15.8986 11.6063 15.9178 11.6063 15.9178C11.6063 15.9178 11.5967 15.8794 11.5679 15.8602C11.5391 15.8314 11.4911 15.8218 11.4527 15.8314C11.4239 15.841 11.2704 15.9274 11.2032 15.9658C11.1456 16.0042 10.992 16.1002 10.9728 16.1098C10.944 16.129 10.9248 16.1578 10.8576 16.1482C10.7808 16.1386 10.752 16.129 10.7136 16.1098C10.6752 16.0906 10.5985 16.0426 10.5793 16.0234C10.5601 16.0042 10.4833 15.985 10.4833 15.9658C10.4833 15.937 10.4929 15.937 10.4929 15.937Z" fill="#262625"/>
<path d="M10.8769 16.4458C10.8769 16.4458 11.0881 16.3115 11.1745 16.2539C11.2608 16.1963 11.4816 16.0715 11.568 16.0235C11.6544 15.9755 11.7408 15.9179 11.7792 15.9083C11.8272 15.8987 11.9327 15.9083 11.9903 15.9083C12.0479 15.9083 12.0863 15.9083 12.0863 15.9371C12.0959 15.9659 12.0863 15.9947 12.0767 16.0139C12.0767 16.0427 12.0767 16.1099 12.0767 16.1099L11.6544 16.4458C11.5872 16.5034 11.424 16.6474 11.4144 16.6474C11.4048 16.6474 11.3472 16.609 11.28 16.5802C11.2129 16.5514 11.1745 16.5514 11.1457 16.5418C11.1169 16.5322 11.0785 16.513 11.0401 16.4938C11.0017 16.4746 10.9825 16.465 10.9537 16.465C10.9249 16.465 10.8673 16.4842 10.8673 16.4842L10.8769 16.4458Z" fill="#262625"/>
<path d="M11.3855 16.8105C11.3855 16.8105 11.4911 16.7145 11.5679 16.6473C11.6447 16.5802 11.8654 16.4074 11.923 16.3498C11.9806 16.3018 12.1342 16.1866 12.1534 16.1674C12.1726 16.1482 12.2014 16.1482 12.2302 16.1482C12.259 16.1482 12.3262 16.129 12.3549 16.129C12.3837 16.129 12.4317 16.129 12.4413 16.1674C12.4509 16.2058 12.4701 16.2826 12.4605 16.3114C12.4605 16.3402 12.4605 16.3786 12.4701 16.3882C12.4797 16.4074 12.4893 16.417 12.4893 16.417C12.4893 16.417 12.4605 16.4458 12.4221 16.4842C12.3837 16.5226 12.2494 16.6473 12.2014 16.6953C12.1438 16.7529 12.0286 16.8585 11.9902 16.9065C11.9518 16.9545 11.8846 17.0121 11.8846 17.0121C11.8846 17.0121 11.8654 16.9449 11.827 16.9161C11.7886 16.8873 11.7023 16.8681 11.6447 16.8681C11.5871 16.8681 11.5199 16.8105 11.4911 16.8105C11.4623 16.8009 11.4335 16.8201 11.4335 16.8201C11.4335 16.8201 11.3951 16.8393 11.3855 16.8105Z" fill="#262625"/>
<path d="M11.9231 17.1274L12.2111 16.8394C12.2686 16.7818 12.451 16.609 12.499 16.561C12.547 16.5131 12.5758 16.4747 12.6238 16.4555C12.6718 16.4363 12.7294 16.4075 12.7582 16.4171C12.787 16.4267 12.8062 16.4651 12.8158 16.5035C12.8254 16.5418 12.8638 16.5994 12.9309 16.6186C12.9981 16.6378 13.0365 16.6474 13.0749 16.6474C13.1037 16.6474 13.1229 16.6378 13.1229 16.6378C13.1229 16.6378 13.0557 16.705 13.0173 16.7434C12.9789 16.7818 12.8734 16.8874 12.8062 16.945C12.739 17.0026 12.5758 17.1658 12.5278 17.2137C12.4798 17.2617 12.4126 17.3097 12.4126 17.3097C12.4126 17.3097 12.4126 17.2617 12.3742 17.2329C12.3262 17.185 12.2686 17.1945 12.2111 17.1945C12.1535 17.1945 12.1247 17.185 12.0863 17.1562C12.0575 17.1274 12.0287 17.0986 12.0095 17.0986C11.9903 17.0986 11.9519 17.1178 11.9423 17.1178C11.9711 17.1274 11.9231 17.1274 11.9231 17.1274Z" fill="#262625"/>
<path d="M12.499 17.3865C12.499 17.3865 12.6622 17.2329 12.739 17.1561C12.8158 17.0793 12.9694 16.9354 13.0365 16.8682C13.1037 16.801 13.2189 16.6858 13.2189 16.6858C13.2189 16.6858 13.2477 16.7242 13.2957 16.7242C13.3533 16.7338 13.4109 16.7434 13.4493 16.7434C13.4877 16.7434 13.5645 16.7434 13.5837 16.7242C13.6029 16.705 13.6317 16.6954 13.6317 16.6954C13.6317 16.6954 13.5933 16.7434 13.5549 16.801C13.5165 16.8586 13.3917 17.0217 13.3341 17.1177C13.2669 17.2137 13.1229 17.4345 13.0941 17.4729C13.0653 17.5113 13.0173 17.6073 12.9981 17.6264C12.979 17.6552 12.9598 17.684 12.9598 17.684C12.9598 17.684 12.9694 17.636 12.9214 17.5689C12.883 17.5017 12.8638 17.5017 12.8254 17.4921C12.787 17.4825 12.7774 17.5017 12.7294 17.4729C12.6814 17.4441 12.6526 17.3961 12.6238 17.3865C12.595 17.3769 12.595 17.3769 12.5662 17.3865C12.5182 17.3961 12.499 17.3865 12.499 17.3865Z" fill="#262625"/>
<path d="M13.6797 16.8105C13.6797 16.8105 13.6989 16.8393 13.7181 16.8681C13.7373 16.8969 13.7661 16.9161 13.7565 16.9353C13.7565 16.9545 13.6605 17.1273 13.6413 17.1753C13.6221 17.2233 13.5549 17.4345 13.5453 17.492C13.5261 17.5496 13.5069 17.6456 13.4877 17.6936C13.4685 17.7416 13.4493 17.7608 13.4493 17.78L13.4397 17.8376C13.4397 17.8376 13.4013 17.8664 13.3821 17.8664L13.3245 17.8856V17.8376C13.3245 17.8184 13.2957 17.78 13.2765 17.7512C13.2573 17.7128 13.2381 17.6744 13.2573 17.6072C13.2765 17.54 13.3053 17.4632 13.3341 17.4057C13.3629 17.3481 13.3725 17.2905 13.4109 17.2041C13.4493 17.1177 13.4781 17.0409 13.5261 16.9737C13.5741 16.9065 13.5933 16.8681 13.6125 16.8393C13.6509 16.8201 13.6797 16.8105 13.6797 16.8105Z" fill="#262625"/>
<path d="M11.2032 14.3725C11.2032 14.3725 11.3952 14.3629 11.5295 14.3629C11.6735 14.3629 11.8463 14.3629 11.9423 14.3821C12.0383 14.3917 12.1918 14.4013 12.2494 14.4013C12.307 14.4013 12.3934 14.3917 12.5374 14.3917C12.6814 14.4013 12.9309 14.4013 13.1037 14.4301C13.2765 14.4589 13.43 14.4877 13.5644 14.5357C13.6988 14.5837 13.958 14.6893 14.0348 14.7852C14.1115 14.8812 14.1691 14.958 14.1595 15.0828C14.1499 15.2076 14.1019 15.3324 14.0636 15.4092C14.0252 15.4859 13.9292 15.6491 13.91 15.6779C13.8908 15.7067 13.7468 15.8411 13.6892 15.9083C13.6316 15.9755 13.4396 16.177 13.3629 16.273C13.2861 16.3594 13.2285 16.4362 13.1997 16.465C13.1613 16.5034 13.1421 16.5322 13.1421 16.5322H13.1133C13.1133 16.5322 13.1421 16.4938 13.1325 16.4554C13.1229 16.417 13.0941 16.3498 13.0557 16.3306C13.0173 16.3114 13.0077 16.3018 12.9885 16.3114C12.9597 16.321 12.9405 16.3306 12.9309 16.3306C12.9117 16.3306 12.9021 16.3402 12.9021 16.3402C12.9021 16.3402 12.9885 16.2442 13.0269 16.2058C13.0653 16.1674 13.1709 16.0619 13.2093 16.0331C13.2477 15.9947 13.2765 15.9755 13.2957 15.9755C13.3149 15.9755 13.3725 15.9947 13.4109 15.9755C13.4492 15.9563 13.526 15.8795 13.5356 15.8219C13.5356 15.7643 13.5164 15.7163 13.478 15.6875C13.4396 15.6587 13.3917 15.6395 13.3533 15.6395C13.3149 15.6395 13.2765 15.6491 13.2381 15.6683C13.2189 15.6779 13.1901 15.6875 13.1901 15.6875C13.1901 15.6875 13.1901 15.6587 13.1997 15.6203C13.2093 15.5819 13.1805 15.5339 13.1613 15.5051C13.1421 15.4667 13.0941 15.4475 13.0461 15.438C12.9885 15.4284 12.9693 15.4475 12.9501 15.4284C12.9309 15.4092 12.9405 15.3804 12.9309 15.342C12.9117 15.3036 12.8829 15.246 12.8349 15.2268C12.7869 15.2076 12.739 15.198 12.7198 15.198C12.691 15.198 12.691 15.1788 12.691 15.15C12.691 15.1116 12.6814 15.0252 12.6526 14.9964C12.6238 14.9772 12.5758 14.9292 12.5374 14.9292C12.499 14.9196 12.4798 14.9196 12.4798 14.9004C12.4798 14.8812 12.499 14.8428 12.499 14.8044C12.499 14.7661 12.4894 14.7085 12.4414 14.6701C12.3934 14.6413 12.3454 14.6221 12.3262 14.5933C12.307 14.5645 12.2686 14.5261 12.259 14.5261C12.2494 14.5261 12.211 14.5261 12.1822 14.5261C12.1534 14.5261 12.0863 14.5453 12.0287 14.5549C11.9807 14.5645 11.9519 14.5741 11.9231 14.5645C11.8943 14.5549 11.8367 14.5357 11.7983 14.5357C11.7599 14.5357 11.6639 14.5453 11.5967 14.5453C11.5295 14.5549 11.4719 14.5645 11.4144 14.5549C11.3664 14.5549 11.328 14.5357 11.28 14.5165C11.2416 14.4973 11.2224 14.4877 11.2032 14.4781C11.1744 14.4589 11.1648 14.4493 11.1648 14.4493C11.1648 14.4493 11.1648 14.4301 11.1744 14.4109C11.184 14.3917 11.2032 14.3725 11.2032 14.3725Z" fill="#262625"/>
<path d="M11.328 14.8237C11.328 14.8237 11.4623 14.7661 11.5583 14.7373C11.6543 14.7085 11.8367 14.6605 11.9135 14.6413C11.9903 14.6221 12.0574 14.6029 12.0862 14.6125C12.115 14.6221 12.1534 14.6221 12.1822 14.6221H12.2302C12.2302 14.6221 12.2494 14.6413 12.2398 14.6509C12.2302 14.6605 12.2302 14.6701 12.2014 14.6989C12.1726 14.7277 12.1534 14.7565 12.1246 14.7757C12.0958 14.7853 12.0191 14.8045 11.9327 14.8237C11.8463 14.8429 11.7215 14.8909 11.6735 14.9005C11.6255 14.9101 11.6159 14.9293 11.5391 14.9101C11.4623 14.9005 11.4431 14.8909 11.4143 14.8813C11.3856 14.8717 11.376 14.8813 11.3664 14.8909C11.3472 14.9005 11.3376 14.8909 11.3376 14.8909V14.8525C11.3184 14.8429 11.328 14.8237 11.328 14.8237Z" fill="#262625"/>
<path d="M11.5583 15.1692C11.5583 15.1692 11.6927 15.102 11.7983 15.054C11.9135 15.006 12.1342 14.9292 12.1822 14.91C12.2302 14.9004 12.2782 14.8812 12.307 14.9004C12.3358 14.9196 12.355 14.9292 12.3454 14.958C12.3358 14.9772 12.2974 15.0348 12.2782 15.0444C12.2494 15.0636 12.0958 15.1404 12.0382 15.1692C11.9806 15.198 11.8463 15.2652 11.8079 15.2652C11.7695 15.2652 11.7311 15.2556 11.6831 15.246C11.6447 15.2364 11.6255 15.2268 11.6063 15.2268C11.5871 15.2268 11.5487 15.2268 11.5487 15.2268C11.5487 15.2268 11.5583 15.2172 11.5583 15.198C11.5583 15.1884 11.5583 15.1692 11.5583 15.1692Z" fill="#262625"/>
<path d="M11.8079 15.5436C11.8079 15.5436 11.9519 15.4572 11.9999 15.4285C12.0479 15.3997 12.2111 15.3229 12.2783 15.2845C12.3455 15.2461 12.4222 15.2173 12.4606 15.2173C12.499 15.2173 12.5374 15.2365 12.5374 15.2557C12.5374 15.2749 12.5374 15.3133 12.5182 15.3517C12.499 15.3805 12.4894 15.4093 12.4318 15.4572C12.3743 15.5148 12.3263 15.5436 12.2879 15.5724C12.2495 15.6012 12.1919 15.6492 12.1631 15.6588C12.1343 15.6588 12.0863 15.6396 12.0671 15.63C12.0383 15.63 11.9711 15.5916 11.9519 15.582C11.9327 15.5724 11.9039 15.5628 11.8847 15.5628C11.8655 15.5628 11.7983 15.582 11.7983 15.582L11.8079 15.5436Z" fill="#262625"/>
<path d="M12.2014 15.8602C12.2014 15.8602 12.2878 15.7834 12.355 15.7258C12.4126 15.6779 12.5278 15.6011 12.5854 15.5627C12.6429 15.5243 12.6813 15.4955 12.7005 15.4955C12.7197 15.4955 12.7389 15.4955 12.7485 15.5147C12.7581 15.5243 12.7965 15.5243 12.8061 15.5531C12.8157 15.5819 12.8061 15.6107 12.8157 15.6203C12.8253 15.6395 12.8541 15.6299 12.8541 15.6491C12.8637 15.6587 12.8541 15.6971 12.8541 15.6971C12.8541 15.6971 12.7293 15.793 12.6909 15.8314C12.6429 15.8698 12.5758 15.937 12.5566 15.9466C12.5374 15.9562 12.4798 15.9178 12.4318 15.8986C12.3934 15.8794 12.307 15.8506 12.2686 15.8506C12.2206 15.8602 12.2014 15.8602 12.2014 15.8602Z" fill="#262625"/>
<path d="M12.547 16.0907C12.547 16.0907 12.6526 15.9947 12.7006 15.9467C12.7486 15.8987 12.8062 15.8507 12.8446 15.8123C12.8829 15.7739 12.9693 15.7163 12.9693 15.7163C12.9693 15.7163 13.0077 15.7163 12.9981 15.7451C12.9885 15.7643 13.0173 15.7739 13.0365 15.7739C13.0557 15.7739 13.0941 15.7643 13.1037 15.7739C13.1133 15.7739 13.1325 15.7835 13.1325 15.8123C13.1325 15.8411 13.1325 15.8603 13.1421 15.8699C13.1517 15.8699 13.1805 15.8699 13.1805 15.8795C13.1805 15.8891 13.1901 15.9083 13.1901 15.9083C13.1901 15.9083 13.0557 16.0427 12.9981 16.1002C12.9405 16.1578 12.8446 16.2538 12.835 16.2634C12.8254 16.273 12.8158 16.2922 12.8158 16.2922C12.8158 16.2922 12.7966 16.2346 12.7486 16.1962C12.7006 16.1482 12.6814 16.1386 12.6334 16.129C12.5854 16.0907 12.547 16.0907 12.547 16.0907Z" fill="#262625"/>
<path d="M13.3436 16.4362C13.3436 16.4362 13.4204 16.3402 13.4972 16.2634L13.67 16.081C13.6988 16.0522 13.718 16.0234 13.718 16.0234C13.718 16.0234 13.67 16.129 13.6604 16.1866C13.6508 16.2346 13.6412 16.3306 13.6412 16.369C13.6412 16.4074 13.622 16.4554 13.6124 16.5034C13.6028 16.5514 13.6028 16.5993 13.6028 16.5993C13.6028 16.5993 13.5644 16.6185 13.5452 16.6281C13.5164 16.6377 13.4876 16.6569 13.4876 16.6569C13.4876 16.6569 13.4876 16.5802 13.4492 16.5418C13.4204 16.5034 13.4108 16.4938 13.382 16.4746C13.3532 16.4554 13.3148 16.4554 13.3148 16.4554L13.3436 16.4362Z" fill="#262625"/>
<path d="M15.1385 13.5759C15.1385 13.5759 15.2729 13.5279 15.3689 13.4895C15.4553 13.4511 15.9064 13.2976 16.0408 13.2592C16.2136 13.2112 16.6071 13.1248 16.8375 13.0864C17.0775 13.048 17.5478 13 18.0085 13C18.4021 13 18.7668 13.0288 18.9588 13.0576C19.1507 13.0768 19.5347 13.144 19.6883 13.192C19.8418 13.2304 20.1106 13.2976 20.2546 13.3455C20.3985 13.3935 20.6289 13.4703 20.7153 13.5087C20.8017 13.5471 20.8593 13.5567 20.8785 13.5759C20.8881 13.5855 20.8977 13.6143 20.9457 13.6335C20.9937 13.6527 21.0608 13.6815 21.0608 13.6815C21.0608 13.6815 21.032 13.7007 21.0033 13.7199C20.9649 13.7391 20.9169 13.7583 20.8785 13.7775C20.8401 13.7967 20.8017 13.8159 20.8017 13.8159C20.8017 13.8159 20.8017 13.7679 20.7825 13.7487C20.7633 13.7295 20.6481 13.6719 20.5329 13.6335C20.4273 13.5951 20.2546 13.5375 20.0914 13.4895C19.9282 13.4415 19.6403 13.3647 19.4483 13.3264C19.2563 13.288 19.0452 13.2592 18.8628 13.24C18.6708 13.2208 18.2389 13.1824 18.0181 13.192C17.7973 13.192 17.3654 13.2208 17.1446 13.2496C16.9335 13.2784 16.5783 13.3264 16.3768 13.3839C16.1752 13.4319 15.8968 13.4991 15.7913 13.5375C15.6857 13.5759 15.5513 13.6239 15.5129 13.6335C15.4745 13.6335 15.3785 13.6239 15.3497 13.6239C15.3209 13.6239 15.2921 13.6239 15.2729 13.6239C15.2537 13.6239 15.2057 13.6527 15.1865 13.6431C15.1769 13.5951 15.1385 13.5759 15.1385 13.5759Z" fill="#262625"/>
<path d="M21.848 16.3786C21.848 16.3786 21.8 16.321 21.7712 16.2922C21.7424 16.2634 21.7328 16.129 21.704 16.0522C21.6752 15.9755 21.56 15.8219 21.4928 15.7547C21.4256 15.6875 21.3009 15.5531 21.0417 15.3899C20.8017 15.2364 20.5522 15.102 20.2834 14.9964C20.0147 14.8908 19.8323 14.8236 19.5059 14.7468C19.1892 14.6797 18.7669 14.6029 18.3157 14.5837C17.8646 14.5645 17.471 14.6029 17.2119 14.6413C16.9527 14.6797 16.5784 14.7468 16.2328 14.862C15.8873 14.9772 15.8009 15.0156 15.6953 15.0732C15.5897 15.1212 15.3306 15.2556 15.2346 15.3228C15.1386 15.3899 14.985 15.4955 14.8986 15.5531C14.8027 15.6107 14.7835 15.6587 14.7355 15.6491C14.6587 15.6299 14.6299 15.5531 14.6299 15.5531C14.6299 15.5531 14.6971 15.4667 14.7643 15.3995C14.8315 15.3324 14.985 15.198 15.081 15.1212C15.177 15.0444 15.369 14.8812 15.3978 14.8428C15.4266 14.814 15.5129 14.7084 15.5129 14.7084C15.5129 14.7084 15.5417 14.766 15.5897 14.7564C15.6377 14.7372 15.7145 14.6797 15.7625 14.6125C15.8105 14.5357 15.8873 14.3629 15.8681 14.2285C15.8489 14.0845 15.8297 13.979 15.7913 13.9598C15.7529 13.931 15.6857 13.883 15.6377 13.883C15.5897 13.8734 15.5705 13.883 15.5513 13.8734C15.5225 13.8638 15.4938 13.835 15.4938 13.835C15.4938 13.835 15.6089 13.787 15.6665 13.7678C15.7145 13.7486 15.9449 13.6622 16.0985 13.6238C16.252 13.5854 16.4152 13.5374 16.6168 13.499C16.8088 13.4606 17.0967 13.4126 17.3271 13.3935C17.5574 13.3743 17.855 13.3455 18.0278 13.3551C18.2005 13.3551 18.6133 13.3839 18.7765 13.403C18.9396 13.4222 19.266 13.4606 19.4579 13.5086C19.6499 13.5566 20.0147 13.643 20.1682 13.7006C20.3314 13.7582 20.5138 13.8158 20.5426 13.835C20.5618 13.8542 20.581 13.8734 20.6098 13.8926C20.6386 13.9022 20.6674 13.9214 20.6674 13.9214C20.6674 13.9214 20.5906 14.0078 20.533 14.1037C20.3794 14.3725 20.5618 14.7084 20.8113 14.8908C21.1377 15.1308 21.7232 15.4955 21.8288 16.0426C21.8576 16.1482 21.848 16.3786 21.848 16.3786Z" fill="#262625"/>
<path d="M22.0688 16.0906C22.0496 15.8987 21.9344 15.7067 21.848 15.5819C21.7616 15.4571 21.704 15.3227 21.608 15.1596C21.512 14.9964 21.2337 14.8332 21.0609 14.7084C20.9265 14.6125 20.7538 14.4013 20.7538 14.2381C20.7538 14.1613 20.7154 14.0365 20.6194 14.0941C20.6386 14.0557 20.677 14.0173 20.725 13.979C20.8114 13.9022 20.9745 13.7966 21.1377 13.7486C21.2913 13.691 21.6656 13.595 21.8096 13.5566C21.9632 13.5182 22.3855 13.451 22.5679 13.4318C22.7407 13.4222 23.0478 13.403 23.2014 13.403C23.3646 13.403 23.6621 13.4222 23.8925 13.4414C24.1324 13.4702 24.4588 13.5182 24.6796 13.5278C24.8907 13.5374 25.2651 13.547 25.4282 13.547C25.5914 13.5374 25.889 13.5278 26.0522 13.5278C26.2153 13.5278 26.8008 13.5086 27.0024 13.4894C27.1944 13.4798 27.7319 13.4414 27.9239 13.4318C28.1254 13.4222 28.7301 13.4126 28.9029 13.4126C29.0757 13.4126 29.8244 13.451 30.0163 13.4606C30.2083 13.4702 30.6786 13.499 30.8514 13.5086C31.0242 13.5182 31.2738 13.5278 31.4177 13.5374C31.5617 13.547 31.9936 13.5374 32.08 13.5374C32.176 13.5374 32.5024 13.5374 32.6751 13.5278C32.8575 13.5182 33.3278 13.4798 33.5006 13.4702C33.6734 13.451 34.1245 13.4126 34.2589 13.403C34.4029 13.3934 34.5469 13.3742 34.6044 13.3838C34.662 13.3934 34.7388 13.4414 34.758 13.4606C34.7772 13.4798 34.8636 13.5758 34.9212 13.643C34.9788 13.7102 35.046 13.787 35.0556 13.8062C35.0652 13.835 35.1036 13.883 35.094 13.9022C35.0844 13.9214 35.0748 13.9598 35.0556 13.9694C35.0364 13.979 34.9308 14.0269 34.9308 14.0269C34.9308 14.0269 34.9212 13.979 34.8924 13.9694C34.854 13.9502 34.7964 13.931 34.758 13.9502C34.71 13.9694 34.5757 14.0269 34.4893 14.0653C34.4029 14.1037 34.2685 14.1613 34.2013 14.1709C34.1341 14.1805 33.8846 14.1901 33.7214 14.1901C33.5582 14.1901 33.0687 14.1997 32.8575 14.1997C32.6463 14.2093 31.9361 14.2093 31.7825 14.2189C31.6289 14.2189 30.9762 14.2285 30.7746 14.2285C30.5635 14.2285 29.9876 14.2381 29.7956 14.2381C29.6036 14.2381 28.7685 14.2477 28.5862 14.2477C28.4038 14.2477 27.8855 14.2477 27.7415 14.2573C27.5975 14.2573 27.4151 14.2669 27.2328 14.2765C27.0504 14.2861 26.8008 14.3149 26.7241 14.3245C26.6473 14.3245 26.5513 14.3149 26.5225 14.3053C26.4841 14.2957 26.4841 14.2861 26.4649 14.2861C26.4457 14.2861 26.3785 14.2765 26.3785 14.2765L26.3689 14.2477C26.3689 14.2477 26.4457 14.2285 26.5129 14.2189C26.5801 14.1997 26.6377 14.1709 26.7528 14.1517C26.868 14.1229 27.1656 14.0749 27.3096 14.0461C27.4535 14.0173 28.1158 13.9022 28.3078 13.883C28.4998 13.8542 28.9989 13.8062 29.1717 13.787C29.3445 13.7774 29.8436 13.739 30.0163 13.7294C30.1891 13.7198 30.5827 13.7006 30.6786 13.7006C30.7746 13.7006 31.1106 13.7102 31.245 13.7198C31.3793 13.7294 31.4465 13.7294 31.4465 13.7294L31.4753 13.643C31.4753 13.643 31.3313 13.6334 31.2162 13.6238C31.101 13.6142 30.7938 13.6142 30.6882 13.6142C30.5827 13.6142 30.2179 13.6142 30.0739 13.6238C29.9396 13.6334 29.738 13.6046 29.5748 13.6046C29.3828 13.595 28.9413 13.6046 28.7589 13.6142C28.5766 13.6238 28.0678 13.6814 27.9047 13.7006C27.7415 13.7198 27.1848 13.7966 26.9352 13.8446C26.6761 13.8926 26.2825 13.9694 26.1001 14.0077C25.9178 14.0461 25.6778 14.0941 25.4666 14.1133C25.2555 14.1325 24.8235 14.1421 24.67 14.1421C24.5164 14.1421 24.0461 14.1325 23.8157 14.1325C23.5853 14.1325 23.1918 14.1325 22.9614 14.1613C22.7311 14.1901 22.5391 14.2285 22.4239 14.2765C22.3087 14.3149 22.1839 14.3629 22.1072 14.4205C22.0304 14.4781 21.992 14.5453 21.992 14.5645C21.992 14.5837 22.0016 14.6029 22.0016 14.6029L22.0592 14.6221C22.0592 14.6221 22.0016 14.67 21.9632 14.6988C21.9248 14.7276 21.896 14.7948 21.8768 14.8524C21.8672 14.91 21.848 15.054 21.8384 15.1116C21.8384 15.1692 21.8288 15.198 21.848 15.246C21.8672 15.2939 21.9632 15.4571 22.0016 15.5339C22.04 15.6011 22.136 15.7643 22.1647 15.8123C22.1935 15.8603 22.2415 15.9275 22.2799 15.985C22.3183 16.0426 22.3759 16.177 22.3855 16.2154C22.3951 16.2634 22.3951 16.321 22.3951 16.3882V16.7049C22.3951 16.7529 22.3855 16.8009 22.3759 16.8105C22.3663 16.8201 22.3375 16.8489 22.3375 16.8777C22.3375 16.9065 22.3183 16.9641 22.3087 16.9929C22.2991 17.0217 22.2799 17.0889 22.2799 17.0889C22.2799 17.0889 22.2415 17.0121 22.2415 17.0025C22.2415 16.9929 22.2607 16.9257 22.2511 16.8393C22.2415 16.6857 22.0976 16.3882 22.0688 16.0906Z" fill="#262625"/>
<path d="M21.9823 14.7757C21.9823 14.7757 22.0207 14.7181 22.1263 14.6413C22.2127 14.5838 22.3566 14.5166 22.443 14.4878C22.5294 14.459 22.8558 14.3918 22.9997 14.3726C23.1437 14.363 23.5373 14.3534 23.6716 14.3534C23.806 14.3534 24.046 14.363 24.1324 14.3534C24.2188 14.3534 24.3339 14.3534 24.4203 14.3534C24.5067 14.3534 24.6795 14.3534 24.7275 14.3534C24.7755 14.3534 24.8811 14.3438 24.9099 14.3534C24.9386 14.363 24.9962 14.3726 24.9962 14.3918C25.0058 14.411 25.0058 14.4302 24.9962 14.459C24.977 14.4878 24.9866 14.5166 24.9866 14.5262V14.5454C24.9866 14.5454 24.9674 14.555 24.9482 14.5646C24.929 14.5742 24.8523 14.6221 24.8523 14.6221C24.8523 14.6221 24.8523 14.6029 24.8331 14.5742C24.8139 14.5454 24.7755 14.5166 24.7371 14.507C24.6987 14.4974 24.5739 14.4878 24.5259 14.4878C24.4683 14.4878 24.3435 14.4782 24.2955 14.4782C24.2476 14.4782 24.2188 14.4686 24.1996 14.4686C24.1708 14.4686 24.1516 14.4686 24.1324 14.4878C24.1132 14.507 24.1036 14.5166 24.094 14.5166C24.0844 14.5166 24.0556 14.5166 24.046 14.5166C24.0364 14.5166 24.0172 14.5262 24.0556 14.5646C24.1036 14.6125 24.1708 14.6125 24.2284 14.6221C24.2859 14.6317 24.3723 14.6509 24.4395 14.6605C24.5067 14.6701 24.5931 14.6893 24.6411 14.6989C24.6987 14.7085 24.7467 14.7085 24.7659 14.7181C24.7851 14.7181 24.8235 14.7373 24.8139 14.7565C24.8139 14.7757 24.8043 14.7949 24.7947 14.8141C24.7851 14.8333 24.7851 14.8621 24.7947 14.8813C24.7947 14.9005 24.7947 14.9101 24.7755 14.9197C24.7563 14.9293 24.6987 14.9485 24.6891 14.9581C24.6795 14.9677 24.6507 14.9581 24.6507 14.9581C24.6507 14.9581 24.6603 14.9197 24.6507 14.9101C24.6411 14.9005 24.6219 14.8813 24.5739 14.8621C24.5259 14.8429 24.4011 14.8141 24.3435 14.8045C24.2859 14.7949 24.1804 14.7661 24.1228 14.7565C24.0556 14.7469 24.0172 14.7277 23.998 14.7373C23.9788 14.7565 23.9692 14.7661 23.9596 14.7757C23.95 14.7757 23.9308 14.7661 23.9116 14.7757C23.902 14.7853 23.8828 14.8045 23.8924 14.8141C23.902 14.8333 23.95 14.8525 23.9884 14.8717C24.0364 14.8909 24.1804 14.9293 24.238 14.9485C24.3051 14.9677 24.4107 15.0157 24.4683 15.0253C24.5259 15.0349 24.5931 15.0541 24.6027 15.0925C24.6123 15.1213 24.6123 15.1597 24.5931 15.1789C24.5739 15.1981 24.5643 15.2269 24.5643 15.2365C24.5547 15.2461 24.5547 15.2844 24.5547 15.2844C24.5547 15.2844 24.4971 15.3228 24.4875 15.3228L24.4299 15.342C24.4299 15.342 24.4491 15.3132 24.4299 15.2748C24.4107 15.2365 24.3627 15.2077 24.3051 15.1789C24.238 15.1501 24.1132 15.1021 24.0652 15.0829C24.0172 15.0637 23.854 15.0061 23.8252 14.9869C23.7868 14.9773 23.7484 14.9581 23.71 14.9677C23.6716 14.9773 23.662 14.9965 23.6716 15.0157C23.6812 15.0349 23.71 15.0445 23.71 15.0637C23.71 15.0829 23.71 15.1021 23.7004 15.1021C23.6908 15.1021 23.6908 15.1117 23.6908 15.1117C23.6908 15.1117 23.7772 15.1693 23.8348 15.1981C23.8924 15.2269 24.0268 15.3036 24.0652 15.3228C24.1036 15.342 24.2188 15.3996 24.2476 15.4188C24.2763 15.438 24.3339 15.4668 24.3243 15.4956C24.3147 15.5244 24.3051 15.5628 24.2955 15.582C24.2859 15.6012 24.3051 15.6108 24.2763 15.6204C24.2476 15.63 24.1612 15.6588 24.1612 15.6588C24.1612 15.6588 24.1612 15.6396 24.1516 15.6204C24.142 15.6108 24.1324 15.582 24.0844 15.5532C24.0364 15.5244 23.8636 15.4188 23.8156 15.3996C23.7676 15.3804 23.662 15.3228 23.6332 15.294C23.6045 15.2748 23.5469 15.2173 23.5277 15.2077C23.5085 15.1981 23.4605 15.1693 23.4317 15.2077C23.4125 15.2269 23.3933 15.2748 23.4125 15.294C23.4317 15.3132 23.4605 15.342 23.4605 15.342C23.4605 15.342 23.4317 15.3612 23.4317 15.3804C23.4413 15.39 23.5181 15.4476 23.5757 15.486C23.6332 15.5244 23.7868 15.63 23.8252 15.6588C23.8636 15.6876 23.95 15.7356 23.9788 15.7644C24.0076 15.7932 24.0172 15.8124 23.9884 15.8316C23.9692 15.8508 23.9596 15.8796 23.9596 15.8796C23.9596 15.8796 23.9596 15.9083 23.9596 15.9179C23.9596 15.9275 23.9596 15.9467 23.9596 15.9467C23.9596 15.9467 23.95 15.9563 23.9116 15.9659C23.8828 15.9755 23.8348 15.9755 23.8348 15.9755C23.8348 15.9755 23.8252 15.9563 23.8252 15.9371C23.8252 15.9179 23.806 15.8988 23.7772 15.87C23.7388 15.8316 23.614 15.7548 23.5565 15.7068C23.4989 15.6684 23.3837 15.5916 23.3549 15.5628C23.3261 15.534 23.2781 15.4668 23.2493 15.438C23.2205 15.4188 23.1821 15.39 23.1533 15.3996C23.1245 15.4092 23.0861 15.438 23.0861 15.4668C23.0861 15.4956 23.0765 15.5148 23.0957 15.534C23.1149 15.5532 23.1437 15.5628 23.1437 15.5724C23.1437 15.582 23.1149 15.5916 23.1149 15.6108C23.1245 15.63 23.2205 15.7068 23.2685 15.7452C23.3165 15.7836 23.4701 15.9084 23.5085 15.9467C23.5469 15.9851 23.6236 16.0523 23.6332 16.0811C23.6428 16.1099 23.6428 16.1675 23.6236 16.1867C23.6141 16.2059 23.5757 16.2155 23.5469 16.2155C23.5181 16.2251 23.4701 16.2251 23.4701 16.2251C23.4701 16.2251 23.4893 16.1867 23.4797 16.1771C23.4701 16.1579 23.4029 16.1195 23.3549 16.0811C23.3069 16.0427 23.1533 15.9083 23.0957 15.8604C23.0381 15.8124 22.9805 15.7548 22.9613 15.7068C22.9422 15.6684 22.9038 15.6108 22.8558 15.6108C22.8078 15.6108 22.7598 15.6204 22.731 15.6588C22.7022 15.6972 22.7022 15.7356 22.7214 15.7548C22.7406 15.774 22.779 15.7932 22.7694 15.8028L22.7214 15.8316C22.7214 15.8316 22.7694 15.8604 22.827 15.9083C22.8942 15.9659 23.0093 16.0619 23.0573 16.1003C23.1053 16.1387 23.1917 16.2251 23.2109 16.2443C23.2301 16.2635 23.2493 16.3019 23.2493 16.3307C23.2493 16.3595 23.2397 16.4075 23.2301 16.4171C23.2205 16.4363 23.2301 16.4459 23.2109 16.4555C23.1821 16.4651 23.1437 16.4651 23.1245 16.4651C23.1053 16.4651 23.0957 16.4555 23.0957 16.4555C23.0957 16.4555 23.1341 16.4267 23.1341 16.4075C23.1341 16.3979 23.0765 16.3403 23.0477 16.3115C23.0093 16.2827 22.8462 16.1387 22.7886 16.0811C22.731 16.0235 22.6446 15.9371 22.6158 15.8796C22.5966 15.822 22.5966 15.7548 22.5678 15.7164C22.539 15.6684 22.4622 15.6204 22.4334 15.5724C22.4046 15.5244 22.2991 15.3612 22.2511 15.2652C22.2031 15.1693 22.1551 15.0925 22.1359 15.0061C22.1263 14.9197 22.1359 14.8717 22.1167 14.8429C22.0975 14.8141 22.0687 14.7757 22.0495 14.7757C22.0399 14.7853 21.9823 14.7757 21.9823 14.7757Z" fill="#262625"/>
<path d="M22.3759 15.9948C22.3759 15.9948 22.5102 16.1483 22.5486 16.1771C22.587 16.2059 22.6542 16.2539 22.6734 16.2635C22.6926 16.2731 22.779 16.3595 22.7982 16.3883C22.8174 16.4171 22.875 16.4651 22.875 16.4939C22.875 16.5227 22.8462 16.6091 22.827 16.6283C22.8078 16.6475 22.779 16.6762 22.7502 16.6762C22.731 16.6762 22.683 16.6666 22.683 16.6666C22.683 16.6666 22.7406 16.657 22.7406 16.6283C22.7406 16.6091 22.731 16.5899 22.6926 16.5515C22.6542 16.5131 22.635 16.4939 22.5966 16.4459C22.5582 16.3883 22.5198 16.3307 22.5198 16.3307L22.491 16.3403H22.4622C22.4622 16.3403 22.4526 16.2443 22.443 16.1963C22.4334 16.1483 22.4142 16.1003 22.4046 16.0811C22.3855 16.0523 22.3759 15.9948 22.3759 15.9948Z" fill="#262625"/>
<path d="M22.3567 17.108C22.3567 17.108 22.3951 17.0312 22.3951 16.9929C22.3951 16.9641 22.4143 16.9065 22.4239 16.8873L22.4335 16.8489C22.4335 16.8489 22.5007 16.9353 22.5199 16.9545C22.5391 16.9833 22.6063 17.0312 22.6254 17.0696C22.6542 17.108 22.7598 17.2424 22.8078 17.3096C22.8558 17.3768 22.9902 17.5496 23.0094 17.588C23.0382 17.6264 23.1054 17.7319 23.1054 17.7607C23.1054 17.7895 23.0958 17.8279 23.0862 17.8567C23.067 17.8855 23.0574 17.9143 23.0382 17.9239C23.019 17.9239 22.9518 17.9335 22.9518 17.9335C22.9518 17.9335 22.971 17.9047 22.971 17.8855C22.971 17.8663 22.9422 17.8183 22.8942 17.7895C22.8462 17.7607 22.7598 17.7223 22.7406 17.6935C22.7214 17.6744 22.6638 17.5112 22.635 17.4536C22.5967 17.3864 22.5391 17.2712 22.5007 17.2232C22.4623 17.1752 22.4431 17.1176 22.4239 17.1176C22.4047 17.1176 22.4143 17.1272 22.3951 17.1272C22.3759 17.1176 22.3567 17.108 22.3567 17.108Z" fill="#262625"/>
<path d="M22.4718 16.7433C22.4718 16.7433 22.5582 16.7721 22.6158 16.7721C22.6638 16.7721 22.7022 16.7721 22.7214 16.7721C22.731 16.7625 22.7598 16.7241 22.8078 16.7145C22.8557 16.7049 22.9037 16.7145 22.9613 16.7433C23.0093 16.7817 23.2589 17.0217 23.2877 17.0601C23.3261 17.0985 23.4796 17.2521 23.5372 17.2904C23.5852 17.3384 23.662 17.4152 23.6812 17.444C23.7004 17.4728 23.7004 17.5016 23.6908 17.5208C23.6812 17.54 23.662 17.5496 23.6524 17.5688C23.6428 17.588 23.6428 17.636 23.6236 17.6552C23.614 17.6744 23.5948 17.684 23.5564 17.684C23.518 17.684 23.4892 17.684 23.4892 17.684C23.4892 17.684 23.5276 17.6648 23.5276 17.636C23.5276 17.6072 23.518 17.5784 23.4796 17.5592C23.4413 17.54 23.4125 17.5208 23.3549 17.492C23.3069 17.4632 23.2589 17.4248 23.2301 17.3864C23.1917 17.348 23.1053 17.2329 23.0669 17.1849C23.0285 17.1369 22.9229 17.0121 22.8749 16.9641C22.8269 16.9161 22.779 16.8777 22.7214 16.8681C22.6638 16.8585 22.6446 16.8489 22.635 16.8489C22.6254 16.8489 22.5966 16.8873 22.6062 16.8969C22.6158 16.9065 22.587 16.8777 22.5582 16.8489C22.5294 16.8297 22.4718 16.7433 22.4718 16.7433Z" fill="#262625"/>
<path d="M22.9421 16.6282C22.9421 16.6282 22.9517 16.609 22.9517 16.5898C22.9517 16.561 22.9613 16.5322 22.9709 16.5322C22.9805 16.5322 23.0477 16.561 23.0861 16.561C23.1245 16.561 23.1341 16.5514 23.1341 16.5514C23.1341 16.5514 23.1533 16.513 23.2109 16.5034C23.2589 16.4938 23.2781 16.4938 23.2973 16.4938C23.3165 16.4938 23.3357 16.4842 23.3933 16.513C23.4509 16.5322 23.5948 16.657 23.6524 16.705C23.71 16.753 23.9404 16.9258 23.998 16.9834C24.0652 17.0314 24.1324 17.0794 24.1516 17.0986C24.1708 17.1178 24.2379 17.1753 24.2187 17.2041C24.1995 17.2329 24.1708 17.2617 24.1612 17.2905C24.1516 17.3193 24.1516 17.3577 24.1516 17.3769C24.142 17.3961 24.1132 17.4057 24.094 17.3961C24.0748 17.3961 24.0268 17.3961 24.0268 17.3961C24.0268 17.3961 24.0556 17.3769 24.0652 17.3577C24.0748 17.3385 24.0556 17.3193 24.0268 17.3001C23.998 17.2809 23.9596 17.2521 23.902 17.2233C23.854 17.1945 23.7772 17.1369 23.71 17.0794C23.6428 17.0314 23.4797 16.8778 23.4413 16.8394C23.4029 16.801 23.2877 16.705 23.2589 16.6954C23.2301 16.6858 23.1437 16.6666 23.1149 16.657C23.0861 16.6474 23.0381 16.6378 23.0381 16.6378C23.0381 16.6378 23.0189 16.6666 23.0093 16.6666C22.9901 16.6666 22.9901 16.6666 22.9901 16.6666C22.9901 16.6666 22.9901 16.6666 22.9709 16.6474C22.9517 16.6474 22.9421 16.6282 22.9421 16.6282Z" fill="#262625"/>
<path d="M23.3453 16.3787V16.3307C23.3453 16.3307 23.3741 16.3211 23.4221 16.3211C23.4605 16.3211 23.4989 16.3211 23.5469 16.3019C23.5949 16.2827 23.5949 16.2923 23.6237 16.2731C23.6525 16.2539 23.6717 16.2443 23.7005 16.2251C23.7293 16.2059 23.7293 16.1771 23.7485 16.1771C23.7677 16.1771 23.8253 16.1675 23.8445 16.1771C23.8637 16.1867 23.9884 16.2923 24.0556 16.3307C24.1324 16.3787 24.3532 16.5131 24.43 16.5611C24.5164 16.6091 24.6411 16.6762 24.6795 16.7146C24.7179 16.753 24.7467 16.7722 24.7467 16.801C24.7467 16.8394 24.7179 16.8586 24.6987 16.8874C24.6795 16.9162 24.6891 16.9354 24.6795 16.9642C24.6699 16.9834 24.6603 17.0122 24.6603 17.0122L24.5548 17.0314C24.5548 17.0314 24.5835 17.0026 24.5739 16.9834C24.5739 16.9546 24.5548 16.9258 24.5068 16.9066C24.4588 16.8778 24.4012 16.8778 24.3532 16.8586C24.3052 16.8394 24.2188 16.7818 24.1708 16.7434C24.1228 16.705 23.9884 16.6091 23.9308 16.5611C23.8733 16.5227 23.7773 16.4459 23.7389 16.4267C23.6909 16.4075 23.6141 16.3883 23.5661 16.3883C23.5181 16.3883 23.4605 16.3883 23.4509 16.3883C23.4413 16.3883 23.4221 16.4363 23.4029 16.4267C23.3837 16.4075 23.3741 16.4075 23.3549 16.3883C23.3453 16.3883 23.3453 16.3787 23.3453 16.3787Z" fill="#262625"/>
<path d="M23.9596 16.0427C23.9596 16.0427 24.0268 16.0331 24.0364 16.0043C24.046 15.9755 24.046 15.9083 24.046 15.8795C24.0556 15.8507 24.046 15.8315 24.0652 15.8315C24.0748 15.8315 24.1132 15.8507 24.142 15.8507C24.1708 15.8507 24.2092 15.8507 24.2667 15.8795C24.3147 15.9083 24.5355 16.0235 24.6507 16.0715C24.7659 16.1195 24.9962 16.2443 25.0634 16.2635C25.1306 16.2923 25.2554 16.3307 25.265 16.3691C25.2842 16.3979 25.2938 16.4363 25.2746 16.465C25.2554 16.4938 25.2362 16.513 25.2458 16.5322C25.2554 16.5514 25.2746 16.5802 25.2554 16.5898C25.2362 16.5994 25.1978 16.609 25.169 16.6186C25.1402 16.6282 25.1114 16.6282 25.1114 16.6282C25.1114 16.6282 25.1402 16.609 25.1306 16.5802C25.121 16.5514 25.1018 16.513 25.0538 16.5034C25.0058 16.4938 24.9482 16.4842 24.9002 16.4746C24.8523 16.465 24.8139 16.4458 24.7371 16.3979C24.6699 16.3595 24.5259 16.2731 24.4491 16.2347C24.3723 16.1963 24.238 16.1195 24.1804 16.0907C24.1324 16.0619 24.1132 16.0427 24.094 16.0331C24.0652 16.0235 24.0364 16.0235 24.0172 16.0331C24.0172 16.0523 23.9596 16.0427 23.9596 16.0427Z" fill="#262625"/>
<path d="M24.3723 15.6491C24.3723 15.6491 24.3819 15.6108 24.3915 15.5628C24.4011 15.5148 24.3915 15.4956 24.4011 15.4956C24.4203 15.486 24.4395 15.5052 24.4683 15.4956C24.4971 15.4956 24.5355 15.4956 24.5547 15.5052C24.5739 15.5148 24.6891 15.5628 24.7371 15.582C24.7947 15.6012 25.073 15.7067 25.1594 15.7355C25.2554 15.7739 25.4186 15.8315 25.4953 15.8603C25.5721 15.8891 25.6201 15.8987 25.6489 15.9179C25.6777 15.9467 25.6969 15.9755 25.6969 16.0235C25.6969 16.0715 25.7065 16.0907 25.6873 16.1099C25.6681 16.1387 25.6585 16.1387 25.6585 16.1579C25.6585 16.1675 25.6777 16.1963 25.6585 16.2155C25.6489 16.2347 25.6297 16.2347 25.5817 16.2443C25.5337 16.2539 25.5145 16.2539 25.5145 16.2539C25.5145 16.2539 25.5529 16.2155 25.5145 16.1867C25.4761 16.1579 25.4665 16.1387 25.3898 16.1099C25.313 16.0811 25.1882 16.0331 25.1306 16.0043C25.073 15.9851 24.833 15.8699 24.7659 15.8507C24.6987 15.8219 24.5547 15.7739 24.5067 15.7451C24.4587 15.7163 24.4395 15.7067 24.4203 15.6875C24.4203 15.6491 24.3723 15.6491 24.3723 15.6491Z" fill="#262625"/>
<path d="M24.6796 15.2364C24.6796 15.2364 24.6796 15.1212 24.6892 15.1116C24.7084 15.102 24.7564 15.1212 24.7756 15.1212C24.7947 15.1212 24.8619 15.1212 24.9195 15.1308C24.9771 15.15 25.2843 15.2268 25.4091 15.246C25.5338 15.2748 25.697 15.3131 25.8026 15.3323C25.9082 15.3515 25.9754 15.3515 25.9946 15.3899C26.0138 15.4283 26.0138 15.5051 26.0138 15.5435C26.0138 15.5819 26.0234 15.6779 26.0138 15.6875C26.0042 15.6971 25.9562 15.7259 25.9178 15.7355C25.8794 15.7451 25.8698 15.7547 25.8698 15.7547C25.8698 15.7547 25.889 15.7067 25.8602 15.6779C25.841 15.6491 25.745 15.6107 25.6778 15.5915C25.6106 15.5723 25.4282 15.5147 25.3323 15.4859C25.2363 15.4571 25.0635 15.3995 25.0059 15.3899C24.9483 15.3707 24.8811 15.3611 24.8427 15.3323C24.8043 15.3035 24.766 15.2652 24.7468 15.2556C24.718 15.246 24.6796 15.2364 24.6796 15.2364Z" fill="#262625"/>
<path d="M24.9003 14.7949V14.7469C24.9003 14.7469 24.9579 14.6893 24.9675 14.6893C24.9867 14.6893 25.0251 14.6797 25.0826 14.6893C25.1402 14.6989 25.409 14.7277 25.505 14.7469C25.6106 14.7661 25.8793 14.8045 25.9561 14.8141C26.0329 14.8237 26.1577 14.8141 26.1961 14.8237C26.2633 14.8429 26.2537 14.9005 26.2537 14.9389C26.2537 14.9773 26.2633 15.0445 26.2633 15.0637C26.2633 15.0829 26.2249 15.1117 26.1865 15.1405C26.1481 15.1693 26.1097 15.1884 26.0905 15.2076C26.0713 15.2172 26.1001 15.1597 26.0713 15.1309C26.0521 15.1117 26.0137 15.0925 25.9561 15.0829C25.8985 15.0733 25.7929 15.0445 25.7353 15.0349C25.6778 15.0253 25.4474 14.9773 25.361 14.9581C25.2746 14.9389 25.169 14.9293 25.1018 14.9005C25.0442 14.8717 25.0059 14.8237 24.9675 14.8045C24.9387 14.8045 24.9003 14.7949 24.9003 14.7949Z" fill="#262625"/>
<path d="M25.0827 14.4781C25.0827 14.4781 25.0635 14.4301 25.0635 14.4205C25.0635 14.4109 25.0635 14.3917 25.0635 14.3917C25.0635 14.3917 25.1595 14.4013 25.2362 14.3821C25.3034 14.3725 25.505 14.3341 25.6394 14.3149C25.7642 14.2957 26.0137 14.2477 26.0905 14.2381C26.1673 14.2285 26.2729 14.2093 26.3017 14.2189C26.3401 14.2381 26.3593 14.2669 26.3689 14.3053C26.3785 14.3437 26.3977 14.4109 26.4073 14.4493C26.4169 14.4781 26.4457 14.5261 26.4361 14.5453C26.4361 14.5645 26.3881 14.6125 26.3593 14.6413C26.3305 14.6701 26.2537 14.7372 26.2537 14.7372C26.2537 14.7372 26.2633 14.6797 26.2441 14.6509C26.2249 14.6125 26.1769 14.5741 26.1193 14.5549C26.0617 14.5357 25.8314 14.5165 25.7546 14.5261C25.6778 14.5261 25.4762 14.5261 25.3802 14.5261C25.2842 14.5261 25.1979 14.5069 25.1595 14.4877C25.1211 14.4685 25.1307 14.4781 25.1115 14.4685C25.1019 14.4589 25.0827 14.4781 25.0827 14.4781Z" fill="#262625"/>
<path d="M26.3977 14.7373C26.3977 14.7373 26.4937 14.6317 26.5129 14.6029C26.5417 14.5741 26.5609 14.5357 26.5801 14.5357C26.5993 14.5357 26.6569 14.5357 26.6953 14.5261C26.7433 14.5069 27.0792 14.5069 27.1656 14.5069C27.252 14.5069 27.8663 14.5069 27.9911 14.5069C28.1254 14.5069 28.9893 14.4973 29.1237 14.4973C29.2677 14.4973 29.8916 14.4973 30.0451 14.4973C30.2083 14.4877 30.9762 14.4973 31.1586 14.4877C31.341 14.4781 32.3008 14.4781 32.4544 14.4685C32.6176 14.4685 33.3566 14.4493 33.491 14.4493C33.6254 14.4493 33.8942 14.4397 33.9709 14.4397C34.0573 14.4301 34.1341 14.4205 34.1629 14.4301C34.1917 14.4397 34.2013 14.4685 34.2109 14.4877C34.2205 14.5069 34.2685 14.6605 34.2877 14.7181C34.3069 14.7853 34.3261 14.8717 34.3261 14.9101C34.3261 14.9484 34.3453 15.006 34.3357 15.0156C34.3261 15.0252 34.2397 15.0732 34.2205 15.0828C34.2013 15.0828 34.1821 15.0924 34.1821 15.0924C34.1821 15.0924 34.2013 15.0636 34.1917 15.0348C34.1821 15.0156 34.1245 14.9772 34.0957 14.9676C34.0669 14.958 34.0189 14.9676 33.9518 14.9964C33.8846 15.0252 33.7022 15.0732 33.5966 15.0924C33.491 15.1116 33.443 15.1308 33.2703 15.1308C33.0879 15.1308 32.6751 15.1308 32.5024 15.1308C32.3296 15.1212 31.8017 15.1116 31.5521 15.0924C31.3026 15.0828 30.6882 15.0444 30.4771 15.0348C30.2659 15.0252 29.6036 14.9868 29.45 14.9772C29.2965 14.9676 28.5286 14.9196 28.3654 14.9101C28.2022 14.9005 27.4056 14.8525 27.2808 14.8333C27.1464 14.8237 26.868 14.8045 26.7912 14.7949C26.7049 14.7949 26.5897 14.7757 26.5417 14.7661C26.4937 14.7565 26.4937 14.7373 26.4649 14.7277C26.4457 14.7373 26.3977 14.7373 26.3977 14.7373Z" fill="#262625"/>
<path d="M26.0713 15.3516C26.0713 15.3516 26.1865 15.2845 26.2345 15.2461C26.2825 15.2077 26.34 15.1693 26.3496 15.1405C26.3592 15.1021 26.3592 15.0829 26.3592 15.0829C26.3592 15.0829 26.7048 15.0925 26.7816 15.1021C26.8584 15.1117 27.2423 15.1309 27.3383 15.1405C27.4343 15.1501 28.0486 15.1885 28.2406 15.2077C28.4325 15.2173 29.2868 15.2749 29.4596 15.2845C29.6323 15.2941 30.3138 15.3324 30.4866 15.342C30.6594 15.3516 31.3121 15.3804 31.5233 15.39C31.7344 15.3996 32.4831 15.4188 32.6079 15.4188C32.7327 15.4188 33.155 15.4284 33.2222 15.4188C33.299 15.4188 33.3854 15.4092 33.4334 15.4092C33.4814 15.4092 33.5389 15.4092 33.5389 15.4668C33.5389 15.5148 33.5293 15.7356 33.5102 15.8028C33.491 15.87 33.443 15.9947 33.4046 16.0235C33.3662 16.0523 33.3086 16.0811 33.3086 16.0811C33.3086 16.0811 33.3278 16.0331 33.3182 16.0043C33.299 15.9755 33.251 15.9372 33.2126 15.9372C33.1742 15.9372 32.9534 15.9947 32.8479 16.0043C32.7423 16.0139 32.5599 16.0331 32.4255 16.0331C32.2911 16.0331 31.984 16.0139 31.8208 16.0043C31.6672 15.9947 31.2353 15.9564 31.0241 15.9372C30.813 15.918 30.2275 15.8508 29.9587 15.822C29.6899 15.7932 29.1428 15.726 28.9604 15.6972C28.7685 15.6684 28.1446 15.5916 27.9814 15.5628C27.8182 15.534 27.3671 15.4764 27.2519 15.4572C27.1271 15.438 26.7432 15.3804 26.6376 15.3708C26.5224 15.3612 26.4552 15.342 26.4072 15.342C26.3592 15.342 26.3209 15.342 26.2537 15.342C26.1865 15.342 26.1961 15.342 26.1673 15.342C26.1385 15.342 26.1289 15.342 26.1001 15.342C26.0905 15.3516 26.0713 15.3516 26.0713 15.3516Z" fill="#262625"/>
<path d="M25.7833 15.8988C25.7833 15.8988 25.8793 15.87 25.9273 15.8412C25.9753 15.8124 26.0617 15.7932 26.0905 15.7548C26.1193 15.7164 26.1193 15.7068 26.1193 15.678C26.1193 15.6492 26.1097 15.63 26.1097 15.63C26.1097 15.63 26.2728 15.6396 26.3304 15.6492C26.3976 15.6588 26.7048 15.6972 26.7912 15.7164C26.8872 15.726 27.3575 15.8028 27.4823 15.822C27.607 15.8412 28.4709 15.9564 28.6437 15.9852C28.8165 16.0043 29.5555 16.1003 29.6899 16.1195C29.8243 16.1387 30.6594 16.2251 30.7842 16.2347C30.9185 16.2443 31.3793 16.2923 31.5424 16.3019C31.7056 16.3115 32.0512 16.3307 32.1951 16.3403C32.3487 16.3403 32.4543 16.3403 32.4927 16.3499C32.5311 16.3595 32.5599 16.3883 32.5503 16.4171C32.5407 16.4459 32.5119 16.6762 32.4927 16.7242C32.4735 16.7722 32.4543 16.8586 32.4351 16.897C32.4159 16.9258 32.3967 16.9642 32.3583 16.9834C32.3199 17.0026 32.3103 17.0122 32.3103 17.0122C32.3103 17.0122 32.3391 16.9642 32.3199 16.9354C32.3007 16.9066 32.2527 16.8586 32.2239 16.849C32.1951 16.849 32.0704 16.8682 31.9936 16.8778C31.9168 16.8874 31.7632 16.9066 31.6672 16.9162C31.5712 16.9258 31.4369 16.9354 31.3793 16.9354C31.3121 16.9354 31.1969 16.9162 31.0913 16.9066C30.9857 16.8874 30.6018 16.8394 30.4578 16.8202C30.3234 16.801 29.8723 16.7242 29.6803 16.6858C29.4884 16.6474 28.8261 16.5131 28.6917 16.4843C28.5573 16.4555 28.0678 16.3499 27.943 16.3211C27.8182 16.2923 27.2711 16.1675 27.1463 16.1291C27.0215 16.1003 26.676 16.0139 26.58 15.9947C26.484 15.9756 26.292 15.9276 26.2441 15.918C26.1961 15.9084 26.1385 15.8892 26.0905 15.9084C26.0425 15.918 25.9561 15.9468 25.9273 15.9564C25.8985 15.966 25.8889 15.9756 25.8505 15.966C25.8025 15.9276 25.7833 15.8988 25.7833 15.8988Z" fill="#262625"/>
<path d="M25.3611 16.369C25.3611 16.369 25.4475 16.3594 25.4955 16.3498C25.5339 16.3402 25.6394 16.321 25.6874 16.3018C25.7354 16.2826 25.7546 16.2826 25.7546 16.2538C25.7546 16.225 25.745 16.1674 25.7546 16.1386C25.7642 16.1099 25.7738 16.0811 25.7738 16.0811C25.7738 16.0811 25.8698 16.1003 25.9178 16.1099C25.9562 16.1099 26.1002 16.1386 26.1578 16.1578C26.2153 16.177 26.8872 16.3402 26.9928 16.369C27.0984 16.3978 27.8663 16.5802 28.0007 16.609C28.1351 16.6378 28.759 16.7721 28.8933 16.8009C29.0373 16.8297 29.9588 17.0025 30.1124 17.0217C30.2659 17.0505 30.7938 17.1273 30.9186 17.1465C31.0434 17.1561 31.2258 17.1753 31.2642 17.1849C31.3026 17.1945 31.3314 17.2137 31.3314 17.2521C31.3218 17.3097 31.2738 17.4344 31.245 17.492C31.2162 17.5496 31.1682 17.6552 31.1202 17.7128C31.0722 17.7704 31.0338 17.8184 30.9954 17.8376C30.957 17.8568 30.9474 17.8664 30.9474 17.8664C30.9474 17.8664 30.9762 17.8184 30.9666 17.7896C30.957 17.7608 30.9186 17.7224 30.8706 17.7128C30.8226 17.7032 30.7267 17.7128 30.6403 17.7128C30.5443 17.7128 30.2659 17.7032 30.0164 17.6648C29.7764 17.6264 29.3925 17.5688 29.1429 17.5112C28.8933 17.4536 28.5286 17.3673 28.2694 17.2905C28.0103 17.2137 27.5879 17.0985 27.3192 17.0025C27.0504 16.9161 26.7145 16.8009 26.5609 16.7434C26.4073 16.6858 25.9754 16.5322 25.9082 16.513C25.841 16.4842 25.793 16.4746 25.745 16.4746C25.697 16.4746 25.6298 16.4842 25.5722 16.4746C25.5147 16.465 25.4571 16.4458 25.4283 16.4362C25.3995 16.4266 25.3803 16.417 25.3611 16.3978C25.3515 16.3882 25.3611 16.369 25.3611 16.369Z" fill="#262625"/>
<path d="M24.8523 16.801C24.8523 16.801 25.0155 16.7626 25.1019 16.7338C25.169 16.705 25.265 16.6666 25.3418 16.6762C25.4186 16.6858 25.5914 16.7434 25.6874 16.7722C25.7834 16.8106 26.1193 16.9257 26.2153 16.9641C26.3017 17.0025 27.0888 17.2617 27.2135 17.3001C27.3383 17.3385 28.0102 17.5401 28.1542 17.5784C28.2982 17.6168 28.9509 17.78 29.1044 17.8184C29.258 17.8472 29.5172 17.8952 29.594 17.9144C29.6708 17.924 29.7475 17.9528 29.7475 17.9816C29.7571 18.02 29.7475 18.0776 29.7379 18.1064C29.7283 18.1352 29.6996 18.2311 29.6804 18.2887C29.6612 18.3463 29.6324 18.4231 29.594 18.4615C29.5652 18.4999 29.4884 18.5095 29.4884 18.5095C29.4884 18.5095 29.5268 18.4807 29.5172 18.4519C29.5076 18.4135 29.498 18.3943 29.4692 18.3751C29.4404 18.3559 29.4212 18.3367 29.3828 18.3367C29.3444 18.3367 29.2292 18.3463 29.1524 18.3463C29.0661 18.3559 28.7781 18.3559 28.6725 18.3559C28.5573 18.3559 28.4517 18.3655 28.3654 18.3559C28.279 18.3463 28.183 18.3271 28.0486 18.2887C27.9142 18.2503 27.5975 18.1352 27.4535 18.0776C27.3095 18.02 26.8872 17.8376 26.772 17.78C26.6568 17.732 26.2345 17.5209 26.1001 17.4537C25.9657 17.3865 25.7642 17.2809 25.6586 17.2233C25.553 17.1657 25.3226 17.0409 25.2554 17.0121C25.1978 16.9833 25.1307 16.9641 25.0731 16.9545C25.0251 16.9449 24.9483 16.9162 24.9291 16.9066C24.9099 16.897 24.8523 16.8778 24.8523 16.8778V16.801Z" fill="#262625"/>
<path d="M24.3148 17.1754C24.3148 17.1754 24.4876 17.137 24.5356 17.1178C24.5836 17.0986 24.6796 17.0794 24.7083 17.089C24.7467 17.0986 24.8715 17.1562 24.9483 17.1946C25.0251 17.233 25.361 17.4153 25.4666 17.4729C25.5722 17.5305 26.0137 17.7609 26.1193 17.8089C26.2153 17.8569 26.5417 18.02 26.6664 18.068C26.7816 18.116 27.1944 18.2984 27.3096 18.3464C27.4151 18.3944 27.5879 18.452 27.6839 18.4904C27.7799 18.5288 27.9047 18.5576 27.9623 18.5768C28.0198 18.5959 28.1254 18.6247 28.135 18.6439C28.1446 18.6727 28.1446 18.7111 28.1254 18.7495C28.1062 18.7879 28.0582 18.9223 28.039 18.9607C28.0198 18.9991 27.9814 19.0855 27.9527 19.1143C27.9239 19.1431 27.9047 19.1623 27.8855 19.1623C27.8663 19.1623 27.8663 19.1623 27.8663 19.1623C27.8663 19.1623 27.9047 19.1143 27.9047 19.1047C27.9047 19.0855 27.8855 19.0279 27.8567 19.0087C27.8279 18.9895 27.7895 18.9703 27.7607 18.9703C27.7319 18.9703 27.6263 18.9703 27.5303 18.9607C27.4343 18.9511 27.2808 18.9319 27.1656 18.9031C27.0504 18.8743 26.9736 18.8647 26.8776 18.8263C26.7816 18.7879 26.5705 18.6727 26.4649 18.6151C26.3497 18.548 26.0041 18.3368 25.8986 18.26C25.793 18.1928 25.2939 17.8281 25.2171 17.7801C25.1403 17.7225 24.9579 17.5977 24.8907 17.5401C24.8139 17.4825 24.7083 17.3961 24.67 17.3769C24.6316 17.3577 24.5068 17.3097 24.4588 17.3001C24.4204 17.2809 24.3724 17.2714 24.3628 17.2426C24.3052 17.2138 24.3148 17.1754 24.3148 17.1754Z" fill="#262625"/>
<path d="M23.7773 17.4921C23.7773 17.4921 23.8733 17.5017 23.9117 17.4921C23.95 17.4825 24.0364 17.4537 24.0652 17.4537C24.094 17.4537 24.142 17.4441 24.19 17.4633C24.238 17.4825 24.3628 17.5593 24.43 17.6073C24.4972 17.6553 24.7563 17.8664 24.8427 17.924C24.9291 17.9816 25.3226 18.2696 25.409 18.3272C25.4858 18.3848 25.8506 18.6247 25.9561 18.6823C26.0521 18.7399 26.2345 18.8551 26.3209 18.9031C26.4073 18.9511 26.5033 18.9991 26.5321 19.0279C26.5608 19.0566 26.5896 19.0854 26.5704 19.143C26.5416 19.2006 26.4649 19.3254 26.4457 19.3542C26.4265 19.383 26.3689 19.4406 26.3497 19.4598C26.3209 19.479 26.3113 19.4886 26.3113 19.4886C26.3113 19.4886 26.3497 19.4406 26.3497 19.4118C26.3401 19.383 26.3209 19.335 26.2729 19.3062C26.2249 19.2774 26.1289 19.2678 26.0521 19.2486C25.9753 19.2294 25.7066 19.1622 25.601 19.1334C25.4954 19.1046 25.409 19.0758 25.3418 19.0279C25.2746 18.9799 25.1019 18.8167 25.0155 18.7399C24.9291 18.6631 24.7563 18.4999 24.6507 18.4039C24.5548 18.3176 24.3436 18.116 24.2764 18.0488C24.1996 17.9816 23.998 17.7992 23.9692 17.7608C23.9308 17.7225 23.8541 17.6457 23.8253 17.6169C23.7965 17.5881 23.7773 17.5977 23.7677 17.5689C23.7485 17.5497 23.7581 17.5113 23.7677 17.5017C23.7677 17.5113 23.7773 17.4921 23.7773 17.4921Z" fill="#262625"/>
<path d="M23.163 17.9048L23.1822 17.828C23.1918 17.7992 23.1918 17.7896 23.1918 17.7896C23.1918 17.7896 23.2781 17.7896 23.3453 17.7896C23.4125 17.78 23.4509 17.7608 23.5085 17.7704C23.5661 17.78 23.5949 17.7896 23.6237 17.8472C23.6525 17.9048 23.7389 18.0008 23.8061 18.0584C23.8637 18.116 24.1612 18.3943 24.2572 18.4807C24.3436 18.5671 24.6315 18.8359 24.7371 18.9319C24.8331 19.0182 24.9771 19.143 25.0155 19.1814C25.0539 19.2198 25.1403 19.3062 25.1595 19.3254C25.1787 19.3542 25.1691 19.4022 25.1499 19.431C25.1307 19.4694 25.0827 19.5462 25.0443 19.575C25.0059 19.6038 24.9387 19.6613 24.9387 19.6613C24.9387 19.6613 24.9675 19.6038 24.9579 19.5846C24.9483 19.5558 24.9003 19.5078 24.8619 19.4982C24.8235 19.4886 24.6507 19.4406 24.5835 19.4214C24.5068 19.4022 24.3532 19.335 24.3052 19.2966C24.2572 19.2582 24.0652 19.0278 24.0268 18.9799C23.9788 18.9223 23.8157 18.7015 23.7581 18.6343C23.7005 18.5575 23.5661 18.3751 23.4989 18.2888C23.4317 18.2024 23.3165 18.0488 23.2877 18.02C23.2589 17.9912 23.2494 17.972 23.2302 17.9528C23.1726 17.9144 23.163 17.9048 23.163 17.9048Z" fill="#262625"/>
<path d="M22.5679 17.9816C22.5679 17.9816 22.6735 18.0008 22.7406 18.0008C22.7982 18.0008 22.8558 17.9912 22.8846 18.0008C22.9134 18.0104 22.9422 18.0008 22.971 18.0392C22.9998 18.068 23.0094 18.1255 23.0286 18.1639C23.0382 18.1927 23.2398 18.4711 23.2686 18.5191C23.2974 18.5671 23.4413 18.7495 23.4989 18.8262C23.5565 18.903 23.7293 19.1238 23.7773 19.1814C23.8253 19.2486 23.9213 19.3446 23.9501 19.383C23.9789 19.4213 24.0364 19.5077 24.046 19.5269C24.0556 19.5461 24.0364 19.5749 24.0172 19.5941C23.9981 19.6133 23.9693 19.6517 23.9405 19.6805C23.9117 19.7093 23.8637 19.7381 23.8541 19.7477C23.8445 19.7477 23.8637 19.7093 23.8637 19.6901C23.8637 19.6709 23.8541 19.6421 23.8157 19.6133C23.7677 19.5749 23.6909 19.5461 23.6333 19.5269C23.5757 19.5077 23.4605 19.4693 23.3837 19.4405C23.307 19.4117 23.2686 19.383 23.2398 19.3542C23.2014 19.3062 23.115 19.1622 23.0766 19.0758C23.0286 18.9894 22.8942 18.7399 22.8558 18.6631C22.8174 18.5959 22.8078 18.5479 22.7982 18.5095C22.7886 18.4711 22.7886 18.3175 22.779 18.2791C22.7598 18.2407 22.7214 18.1735 22.6927 18.1447C22.6639 18.1255 22.6543 18.1159 22.6447 18.1159C22.6351 18.1063 22.5871 18.0967 22.5871 18.0967C22.5871 18.0967 22.5871 18.0392 22.5871 18.0296C22.5679 18.0008 22.5679 17.9816 22.5679 17.9816Z" fill="#262625"/>
<path d="M22.5294 18.7878C22.5294 18.7878 22.5966 18.903 22.6254 18.9414C22.6542 18.9798 22.7118 19.0662 22.7502 19.1238C22.779 19.191 22.8846 19.3446 22.9038 19.4021C22.9326 19.4597 22.9614 19.5077 22.9614 19.5653C22.9518 19.6229 22.9134 19.6901 22.8942 19.7189C22.875 19.7477 22.875 19.7765 22.8462 19.8053C22.8078 19.8341 22.7598 19.8437 22.7598 19.8437C22.7598 19.8437 22.7982 19.8053 22.7982 19.7765C22.7982 19.7477 22.7694 19.6997 22.7598 19.6805C22.7406 19.6613 22.7022 19.6229 22.6638 19.5941C22.6158 19.5749 22.5294 19.5269 22.5198 19.4981C22.5102 19.4693 22.5102 19.4405 22.5294 19.3925C22.5582 19.3254 22.5582 19.2486 22.539 19.191C22.5294 19.1334 22.5198 19.1142 22.5102 19.095C22.5006 19.0758 22.4814 19.0662 22.4814 19.0662C22.4814 19.0662 22.5198 18.9414 22.5198 18.9126L22.5294 18.7878Z" fill="#262625"/>
<path d="M19.9187 21.389C19.9187 21.389 20.0819 21.3314 20.1587 21.293C20.2355 21.2546 20.3794 21.197 20.4754 21.149C20.5714 21.1011 20.8402 20.9571 20.9457 20.8899C21.0609 20.8227 21.2049 20.7171 21.3201 20.6211C21.4353 20.5251 21.6272 20.3524 21.704 20.2756C21.7808 20.1988 21.9632 19.9876 22.0112 19.9108C22.0688 19.834 22.1552 19.6901 22.1552 19.6901L22.3567 19.7957C22.4431 19.8436 22.5391 19.882 22.6063 19.8916C22.6735 19.9012 22.7119 19.9108 22.7791 19.9012C22.8463 19.8916 22.8655 19.882 22.9038 19.8436C22.9422 19.8053 22.9806 19.7381 22.9902 19.6997C23.0094 19.6613 23.0286 19.6133 23.0286 19.6133C23.0286 19.6133 23.1054 19.6517 23.1534 19.6709L23.3934 19.7573C23.4606 19.7765 23.5469 19.7957 23.5853 19.8244C23.6237 19.8532 23.6333 19.8724 23.6333 19.9012C23.6333 19.93 23.6045 19.9972 23.5757 20.0452C23.5469 20.0932 23.4606 20.2948 23.4222 20.3524C23.3838 20.4196 23.2398 20.6595 23.163 20.7651C23.0862 20.8707 22.8463 21.1778 22.7503 21.2642C22.6639 21.3506 22.5487 21.4658 22.4815 21.4946C22.4143 21.533 22.3087 21.5522 22.2415 21.5906L21.8672 21.8209C21.7712 21.8785 21.6272 21.9649 21.5313 22.0129C21.4353 22.0609 21.1857 22.1857 21.1089 22.2241C21.0321 22.2625 20.9265 22.3009 20.8786 22.3297C20.8306 22.3489 20.7922 22.3681 20.7538 22.3681C20.7154 22.3681 20.6866 22.3393 20.6674 22.3105C20.6482 22.2817 20.533 22.0705 20.485 21.9937C20.437 21.9169 20.2738 21.629 20.2451 21.5714C20.2067 21.5138 20.1971 21.4946 20.1203 21.4658C20.0723 21.4466 20.0531 21.437 20.0339 21.437C20.0051 21.437 19.9955 21.437 19.9571 21.4274C19.9379 21.4178 19.9187 21.389 19.9187 21.389Z" fill="#262625"/>
<path d="M19.3619 21.5523C19.3619 21.5523 19.4963 21.5139 19.5635 21.4947C19.6307 21.4755 19.7075 21.4467 19.7459 21.4371C19.7939 21.4275 19.8131 21.4275 19.8323 21.4467C19.8611 21.4755 19.8803 21.5139 19.8899 21.5523C19.8995 21.5907 20.0434 21.821 20.0818 21.9074C20.1298 21.9842 20.2546 22.2146 20.293 22.2818C20.3314 22.349 20.4754 22.5793 20.5042 22.6273C20.533 22.6753 20.5714 22.7425 20.5906 22.7809C20.6193 22.8193 20.6577 22.9057 20.6673 22.9441C20.6865 22.9825 20.6961 23.0113 20.6865 23.04C20.6769 23.0688 20.5906 23.2128 20.581 23.2512C20.5618 23.2896 20.485 23.424 20.485 23.424C20.485 23.424 20.4754 23.3088 20.4562 23.2608C20.437 23.2032 20.4178 23.1744 20.3794 23.1456C20.341 23.1168 20.2642 23.0976 20.2354 23.0784C20.2066 23.0592 20.1778 23.04 20.1394 22.9633C20.101 22.8865 20.005 22.6273 19.9666 22.5409C19.9283 22.4449 19.8035 22.1378 19.7651 22.0322C19.7267 21.9266 19.6595 21.7538 19.6211 21.7154C19.5923 21.6771 19.5059 21.6099 19.4771 21.6099C19.4483 21.6099 19.4099 21.6003 19.4003 21.6003C19.3907 21.6003 19.3619 21.6099 19.3619 21.6099V21.5523Z" fill="#262625"/>
<path d="M23.7485 19.8725C23.7485 19.8725 23.8061 19.8821 23.8349 19.8629C23.8637 19.8437 23.9309 19.7957 23.9789 19.7477C24.0268 19.6997 24.0748 19.6421 24.094 19.6133C24.1132 19.5846 24.1228 19.575 24.1228 19.575C24.1228 19.575 24.1516 19.5845 24.1516 19.6037C24.1516 19.6229 24.1036 19.7861 24.0844 19.8245C24.0652 19.8629 24.0172 20.0069 23.9885 20.0741C23.9501 20.1509 23.8445 20.362 23.8061 20.4292C23.7677 20.4964 23.5853 20.7844 23.5181 20.8804C23.4413 20.9763 23.2206 21.2547 23.1534 21.3315C23.0862 21.4083 22.8174 21.6674 22.7502 21.7346C22.6831 21.8018 22.2031 22.1186 22.1071 22.1666C22.0112 22.2241 21.704 22.3969 21.6368 22.4449C21.5696 22.4833 21.3489 22.5889 21.2817 22.6273C21.2049 22.6657 21.0129 22.7521 20.9745 22.7617C20.9265 22.7713 20.8785 22.7617 20.8305 22.7617C20.7921 22.7521 20.7729 22.7521 20.7537 22.7521C20.7345 22.7521 20.6866 22.7617 20.6866 22.7617L20.6674 22.7233C20.6674 22.7233 20.8497 22.6561 20.9361 22.6081C21.0225 22.5601 21.416 22.3777 21.5216 22.3201C21.6272 22.2529 21.8576 22.1282 21.9824 22.0514C22.0975 21.9746 22.3855 21.7634 22.4815 21.677C22.5871 21.5906 22.875 21.3027 22.9326 21.2355C22.9806 21.1683 23.2206 20.9571 23.2686 20.8995C23.3262 20.842 23.4221 20.7556 23.4893 20.6596C23.5565 20.554 23.7197 20.3044 23.7485 20.2277C23.7773 20.1509 23.8157 20.0933 23.8061 20.0645C23.7965 20.0357 23.7965 20.0069 23.7869 19.9973C23.7773 19.9973 23.7197 19.9781 23.7197 19.9781L23.7389 19.9109C23.7389 19.8821 23.7485 19.8725 23.7485 19.8725Z" fill="#262625"/>
<path d="M18.834 21.6483C18.834 21.6483 18.8916 21.6483 18.9396 21.6291C18.9876 21.6099 19.1123 21.5619 19.1603 21.5619C19.2083 21.5523 19.2851 21.5523 19.2947 21.5811C19.3043 21.6003 19.3235 21.6483 19.3427 21.7059C19.3619 21.7635 19.5059 22.1378 19.5443 22.2338C19.5827 22.3298 19.7362 22.7233 19.765 22.8001C19.7938 22.8769 19.8706 23.0593 19.8802 23.0977C19.8898 23.1361 19.9282 23.232 19.9186 23.2608C19.909 23.2896 19.8514 23.3856 19.8226 23.4336C19.7842 23.4816 19.6691 23.6448 19.6691 23.6448C19.6691 23.6448 19.6595 23.5776 19.6787 23.5584C19.6883 23.5392 19.7075 23.5008 19.6979 23.472C19.6883 23.4528 19.6595 23.3856 19.6307 23.3472C19.5923 23.3184 19.5251 23.2896 19.4867 23.2608C19.4483 23.2224 19.4291 23.2128 19.4099 23.1073C19.3811 23.0017 19.3139 22.7137 19.2947 22.6273C19.2755 22.5409 19.1795 22.1378 19.1603 22.0514C19.1411 21.9746 19.1219 21.8594 19.0835 21.8211C19.0548 21.7827 18.9876 21.7251 18.9588 21.7155C18.93 21.7059 18.9012 21.7155 18.8916 21.7155C18.882 21.7155 18.8628 21.7155 18.8628 21.7155L18.834 21.6483Z" fill="#262625"/>
<path d="M18.3253 21.6962C18.3253 21.6962 18.4213 21.6866 18.4597 21.677C18.4981 21.6674 18.5941 21.6482 18.6517 21.6482C18.7093 21.6482 18.7669 21.6674 18.7764 21.6962C18.786 21.7346 18.8052 21.8402 18.8052 21.8882C18.8148 21.9361 18.9204 22.3873 18.93 22.4545C18.9396 22.5217 19.0644 23.0016 19.074 23.0784C19.0836 23.1456 19.1316 23.3183 19.122 23.3567C19.122 23.3951 19.122 23.4335 19.122 23.4431C19.1124 23.4527 19.0452 23.5487 19.0068 23.5871C18.9684 23.6255 18.8436 23.7887 18.8436 23.7887C18.8436 23.7887 18.834 23.7407 18.8532 23.7215C18.8724 23.7023 18.9108 23.6639 18.9012 23.6351C18.8916 23.5967 18.8628 23.5295 18.834 23.5007C18.8052 23.4719 18.7285 23.4335 18.6997 23.4047C18.6709 23.3663 18.6517 23.3471 18.6421 23.2607C18.6325 23.184 18.6037 22.752 18.5941 22.6176C18.5845 22.4737 18.5557 22.0897 18.5461 22.0321C18.5365 21.9745 18.5269 21.917 18.4885 21.8786C18.4501 21.8402 18.4117 21.821 18.3829 21.8114C18.3541 21.8018 18.3349 21.8018 18.3349 21.8018L18.3253 21.6962Z" fill="#262625"/>
<path d="M17.7974 21.7058C17.7974 21.7058 17.8934 21.7058 17.9126 21.6962C17.9318 21.6866 18.0278 21.677 18.095 21.677C18.1621 21.677 18.2389 21.6962 18.2389 21.7346C18.2389 21.773 18.2485 21.8882 18.2485 21.965C18.2485 22.0417 18.2773 22.4161 18.2869 22.4833C18.2869 22.5409 18.3253 22.9632 18.3253 23.0688C18.3349 23.1744 18.3445 23.3663 18.3445 23.4047C18.3445 23.4431 18.3445 23.4911 18.3445 23.4911C18.3445 23.4911 18.2293 23.6063 18.1909 23.6447C18.1525 23.6735 18.0182 23.7887 18.0182 23.7887C18.0182 23.7887 18.0374 23.7311 18.0566 23.7119C18.0758 23.6831 18.095 23.6447 18.0758 23.6255C18.0566 23.5967 17.9606 23.4911 17.9318 23.4719C17.903 23.4527 17.855 23.3951 17.855 23.3471C17.8454 23.2992 17.8742 22.9536 17.8934 22.8096C17.903 22.6657 17.9318 22.3489 17.9414 22.2337C17.951 22.1185 17.9606 21.9938 17.9414 21.9458C17.9222 21.8978 17.8838 21.8402 17.855 21.8306C17.8262 21.821 17.7782 21.8114 17.7782 21.8114L17.7974 21.7058Z" fill="#262625"/>
<path d="M17.2695 21.6674C17.2695 21.6674 17.3367 21.6674 17.3751 21.6674C17.4135 21.6674 17.4423 21.6578 17.4998 21.6578C17.5574 21.6578 17.5958 21.6578 17.6438 21.6674C17.6822 21.6866 17.7206 21.7058 17.711 21.773C17.7014 21.8402 17.6918 22.0802 17.6822 22.157C17.6726 22.2242 17.6342 22.7233 17.6342 22.7617C17.6342 22.8001 17.615 23.0208 17.615 23.0976C17.615 23.1552 17.5862 23.2896 17.5862 23.3376C17.5766 23.3856 17.5574 23.472 17.5574 23.4816C17.5574 23.4912 17.5478 23.5104 17.5478 23.5104C17.5478 23.5104 17.4614 23.5871 17.4231 23.5967C17.3943 23.6159 17.3943 23.5775 17.3751 23.5583C17.3559 23.5391 17.3271 23.5391 17.2791 23.5104C17.2311 23.4912 17.1639 23.424 17.1255 23.3664C17.0967 23.3184 17.0871 23.2704 17.1063 23.184C17.1255 23.1072 17.1927 22.8193 17.2215 22.7233C17.2407 22.6273 17.3079 22.3489 17.3271 22.2433C17.3463 22.1474 17.3847 21.9938 17.3847 21.9362C17.3847 21.8786 17.3655 21.8306 17.3367 21.8018C17.3079 21.773 17.2983 21.773 17.2791 21.7634C17.2599 21.7538 17.2407 21.7538 17.2407 21.7538L17.2695 21.6674Z" fill="#262625"/>
<path d="M16.7415 21.5811C16.7415 21.5811 16.8087 21.5907 16.8471 21.5907C16.8855 21.5907 16.943 21.5811 17.0102 21.6003C17.0774 21.6194 17.1542 21.629 17.1638 21.6578C17.1734 21.6866 17.1926 21.7154 17.1734 21.7826C17.1542 21.8498 17.039 22.3201 17.0198 22.4065C17.0006 22.4833 16.9143 22.8673 16.8951 22.9344C16.8759 23.0016 16.8279 23.2128 16.8183 23.2608C16.7991 23.3088 16.7703 23.4048 16.7703 23.4144C16.7703 23.424 16.6935 23.4624 16.6743 23.472C16.6551 23.4816 16.6359 23.4912 16.6359 23.4912C16.6359 23.4912 16.6647 23.4528 16.6551 23.424C16.6455 23.3952 16.6167 23.376 16.5783 23.376C16.5399 23.376 16.5015 23.4048 16.4727 23.3952C16.4439 23.3856 16.3959 23.3664 16.3671 23.2896C16.3287 23.2128 16.3287 23.1936 16.3383 23.136C16.3479 23.0784 16.5015 22.7137 16.5303 22.6273C16.5591 22.5409 16.7031 22.1858 16.7319 22.0994C16.7703 22.013 16.8087 21.8978 16.8087 21.869C16.8087 21.8306 16.7799 21.7826 16.7607 21.7634C16.7415 21.7442 16.7223 21.7346 16.7127 21.7346C16.7031 21.7346 16.6935 21.725 16.6935 21.725L16.7415 21.5811Z" fill="#262625"/>
<path d="M16.2137 21.4371C16.2137 21.4371 16.2617 21.4563 16.3192 21.4563C16.3672 21.4563 16.4248 21.4563 16.4824 21.4755C16.54 21.4947 16.6168 21.5427 16.636 21.5715C16.6456 21.6003 16.6168 21.6675 16.588 21.7443C16.5496 21.8211 16.396 22.2434 16.3576 22.3298C16.3192 22.4162 16.1561 22.8289 16.1369 22.8865C16.1177 22.9441 16.0409 23.1169 16.0217 23.1553C16.0025 23.2033 15.9833 23.2417 15.9833 23.2417L15.8969 23.2705C15.8969 23.2705 15.9257 23.2321 15.9065 23.2129C15.8969 23.1937 15.8489 23.1457 15.8201 23.1457C15.7913 23.1457 15.7529 23.1553 15.7241 23.1649C15.6857 23.1841 15.6378 23.1841 15.6186 23.1457C15.5994 23.1169 15.5514 23.0209 15.5514 23.0017C15.5418 22.9825 15.5322 22.9441 15.5514 22.9057C15.5706 22.8577 15.7337 22.5698 15.7721 22.5122C15.8105 22.4546 15.9929 22.1474 16.0313 22.0706C16.0697 21.9938 16.1753 21.8211 16.1945 21.7827C16.2137 21.7443 16.2233 21.7155 16.2137 21.6867C16.1945 21.6579 16.1945 21.6387 16.1849 21.6387C16.1657 21.6291 16.1369 21.6291 16.1369 21.6291L16.2137 21.4371Z" fill="#262625"/>
<path d="M17.9989 14.8812C15.4457 14.8812 13.5164 16.4554 13.5164 18.2407C13.5164 20.026 15.4457 21.6002 17.9989 21.6002C20.5521 21.6002 22.491 20.026 22.491 18.2407C22.4814 16.4554 20.5521 14.8812 17.9989 14.8812ZM17.9989 21.4658C15.4169 21.4658 13.6603 19.8533 13.6603 18.2503C13.6603 16.6474 15.4169 15.0348 17.9989 15.0348C20.5809 15.0348 22.3374 16.6474 22.3374 18.2503C22.3374 19.8533 20.5809 21.4658 17.9989 21.4658Z" fill="#262625"/>
<path d="M17.9893 16.0811C18.6036 16.0906 19.0259 16.3402 19.0259 17.0217C19.0259 17.732 18.594 17.9624 17.9893 17.972C17.4134 17.972 16.9526 17.7608 16.9526 17.0217C16.9526 16.369 17.423 16.0906 17.9893 16.0811ZM19.7362 18.0679C20.3505 17.7224 20.4753 17.3673 20.4273 16.9545C20.3409 16.2058 19.3139 15.6683 17.9605 15.6875C16.3287 15.7067 15.3401 16.5226 15.3401 16.7433C15.3401 16.9641 15.6664 17.0121 15.6664 17.1273V19.3733C15.6664 19.5173 15.3593 19.6709 15.3593 19.8245C15.3593 19.9877 16.4151 20.7651 18.1525 20.7555C19.6786 20.7459 20.5617 20.1028 20.5713 19.335C20.5809 18.9126 20.3409 18.3559 19.7362 18.0679ZM18.1045 20.3716H18.0661C17.5286 20.3716 16.9238 20.218 16.9238 19.3637C16.9238 18.4999 17.519 18.3271 18.0853 18.3175C18.6228 18.3271 19.1987 18.5191 19.1987 19.3637C19.1987 20.1124 18.6708 20.3716 18.1045 20.3716Z" fill="#262625"/>
</svg>
