<svg width="36" height="36" viewBox="0 0 36 36" fill="none" xmlns="http://www.w3.org/2000/svg">
<g clip-path="url(#clip0_47_116)">
<path d="M18 2.29932C9.32845 2.29932 2.29926 9.32851 2.29926 18C2.29926 26.6716 9.32845 33.7008 18 33.7008C26.6715 33.7008 33.7007 26.6716 33.7007 18C33.7007 9.32851 26.6715 2.29932 18 2.29932ZM32.6759 18C32.6759 26.1066 26.1066 32.676 18 32.676C9.89342 32.676 3.32407 26.1066 3.32407 18C3.32407 9.89348 9.89342 3.32413 18 3.32413C26.1066 3.32413 32.6759 9.89348 32.6759 18Z" fill="#262625"/>
<path d="M25.6079 11.3398C25.8181 11.5632 26.1335 11.9442 26.3043 12.1675L29.4838 10.1442C29.3262 9.93397 29.0765 9.61864 28.8795 9.39528L26.8692 10.7223L26.7378 10.8405L26.843 10.696L27.7364 8.92229L27.1057 8.29163L25.332 9.18507L25.1875 9.29017L25.3057 9.15879L26.6327 7.14857C26.3962 6.95149 26.1729 6.76755 25.8838 6.54419L23.8605 9.72375C24.1101 9.92083 24.4517 10.2099 24.6619 10.407L26.567 9.42156L26.6853 9.32959L26.5933 9.44784L25.6079 11.3398Z" fill="#262625"/>
<path d="M18.3948 7.31938L19.262 5.37485L19.3145 5.20405L19.3014 5.38799L19.3934 7.98945C19.6955 8.01573 20.0109 8.05514 20.3262 8.1077L20.1817 4.25806C19.7481 4.20551 19.3145 4.17923 18.8809 4.15295L18.0269 6.28142L18.0007 6.43909L17.9744 6.28142L17.1204 4.15295C16.6868 4.16609 16.2532 4.20551 15.8196 4.25806L15.6751 8.1077C15.9904 8.05514 16.3058 8.01573 16.608 7.98945L16.6999 5.38799L16.6868 5.20405L16.7393 5.37485L17.6065 7.31938H18.3948Z" fill="#262625"/>
<path d="M11.3656 10.3807C11.8649 9.85514 12.1539 9.23762 11.6547 8.65952C11.3788 8.34419 10.9189 8.2785 10.5379 8.43616L10.4985 8.4493L10.5116 8.40988C10.5642 8.26536 10.6036 7.77923 10.1963 7.45076C9.9992 7.29309 9.74956 7.2274 9.49993 7.25368C9.02693 7.30623 8.67219 7.62156 7.67365 8.72521C7.37146 9.05368 6.93788 9.57923 6.67511 9.92083L9.39482 12.496C10.3014 11.4975 10.6561 11.1296 11.3656 10.3807ZM7.83131 9.75003C8.38314 9.07996 8.96124 8.47558 9.22402 8.23908C9.30285 8.16025 9.39482 8.08142 9.51307 8.05514C9.69701 8.00258 9.88095 8.13397 9.92036 8.31791C9.95978 8.50185 9.84153 8.67266 9.72328 8.81718C9.42109 9.14565 8.35686 10.2624 8.35686 10.2624L7.83131 9.75003ZM8.89555 10.7617C8.89555 10.7617 9.9335 9.6712 10.262 9.31645C10.3934 9.17193 10.4853 9.09309 10.5773 9.05368C10.6955 9.00112 10.8269 8.98798 10.9452 9.06682C11.0634 9.14565 11.116 9.27704 11.0897 9.40842C11.0503 9.56609 10.932 9.71061 10.8269 9.82886C10.6824 9.98652 9.46051 11.2873 9.46051 11.2873L8.89555 10.7617Z" fill="#262625"/>
<path d="M18 8.69788V18.0001H8.69781C8.69781 12.8497 12.8496 8.69788 18 8.69788Z" fill="#262625"/>
<path d="M27.3022 18C27.3022 23.1504 23.1372 27.3022 18 27.3022V18H27.3022Z" fill="#262625"/>
</g>
<defs>
<clipPath id="clip0_47_116">
<rect width="36" height="36" fill="white"/>
</clipPath>
</defs>
</svg>
