<svg width="36" height="36" viewBox="0 0 36 36" fill="none" xmlns="http://www.w3.org/2000/svg">
<g clip-path="url(#clip0_954_36688)">
<path d="M27.6636 26.9103C29.8633 26.9103 31.1791 25.337 31.1791 23.3949C31.1791 21.4527 29.8633 19.8794 27.6636 19.8794H20.5317V26.9103H27.6636ZM27.6636 14.656C29.5999 14.656 30.778 13.2627 30.778 11.543C30.778 9.82336 29.5999 8.42859 27.6636 8.42859H20.5317V14.656H27.6636ZM10.4874 19.878V21.6196H6.0689V12.9144H10.4874V14.656H14.7068V8.42713H4.07847V10.6371H-0.339996V8.42713V4.0072H27.6636C32.0455 4.0072 35.599 7.55924 35.599 11.9426C35.6019 13.8672 34.9023 15.7259 33.632 17.1719C35.097 18.6735 36 20.7283 36 22.9924C36 27.5967 32.2679 31.3288 27.6636 31.3288H-0.339996V26.9089V24.6989H4.07993V26.9089H14.7082V19.878H10.4874Z" fill="#262625"/>
</g>
<defs>
<clipPath id="clip0_954_36688">
<rect width="36" height="36" fill="white"/>
</clipPath>
</defs>
</svg>
