<svg width="36" height="36" viewBox="0 0 36 36" fill="none" xmlns="http://www.w3.org/2000/svg">
<g clip-path="url(#clip0_442_18273)">
<path d="M17.9778 2.35596C9.34356 2.35596 2.35608 9.34344 2.35608 18.0222C2.35608 26.7009 9.34356 33.6884 18.0223 33.6884C26.701 33.6884 33.644 26.6564 33.644 18.0222C33.644 9.34344 26.612 2.35596 17.9778 2.35596ZM17.9778 31.9971C10.2782 31.9971 4.00281 25.7217 4.00281 18.0222C4.00281 10.3226 10.2337 4.00269 17.9778 4.00269C25.7219 4.00269 31.9527 10.2781 31.9527 17.9777C31.9972 25.7217 25.7219 31.9971 17.9778 31.9971Z" fill="#262625"/>
<path d="M20.5591 10.8567H14.4617V12.993H8.36438V20.8261C8.36438 25.3212 11.8359 29.8609 11.9694 30.1279C12.1474 29.8609 14.5507 26.7009 15.3519 23.0069C16.064 24.7427 16.9541 26.4339 18.0667 27.9916C18.2448 27.7246 20.6481 24.5646 21.4492 20.8706C22.1613 22.6064 23.096 24.2976 24.1641 25.8553C24.3421 25.5438 27.7691 21.0486 27.7691 16.5535V8.6759H20.5591V10.8567ZM14.4617 20.9151C14.4617 24.3421 12.1474 27.4575 12.0139 27.7246C11.8804 27.5021 9.52154 24.3421 9.52154 20.9151V14.1502H14.4617V20.9151ZM20.5591 18.7788C20.5591 22.2058 18.2448 25.3212 18.1113 25.5883C17.9777 25.3657 15.6189 22.2058 15.6189 18.7788V11.9694H20.5591V18.7788ZM21.7163 9.83307H26.6565V16.6425C26.6565 20.0695 24.3421 23.1849 24.1641 23.452C24.0306 23.2294 21.6718 20.114 21.6718 16.6425L21.7163 9.83307Z" fill="#262625"/>
<path d="M26.3894 15.5299V10.0557H21.9388L26.3004 17.7998C26.3449 17.4437 26.3894 16.7316 26.3894 15.5299Z" fill="#262625"/>
<path d="M25.7218 19.936L21.9388 13.3046V16.7761C21.9388 18.9569 23.0959 21.4047 24.1641 23.0069C24.8317 22.0278 25.3213 21.0041 25.7218 19.936Z" fill="#262625"/>
<path d="M20.2921 17.6662V12.2365H15.8414L20.203 19.9805C20.2476 19.58 20.2921 18.8679 20.2921 17.6662Z" fill="#262625"/>
<path d="M19.669 22.0724L15.8859 15.4409V18.9124C15.8859 21.0932 17.0431 23.5411 18.1112 25.1433C18.7343 24.1641 19.2239 23.1405 19.669 22.0724Z" fill="#262625"/>
<path d="M14.2392 19.847V14.3727H9.78857L14.1502 22.1168C14.1947 21.7607 14.2392 21.0486 14.2392 19.847Z" fill="#262625"/>
<path d="M13.5716 24.2531L9.78857 17.5771V21.0486C9.78857 23.2294 10.9457 25.6773 12.0139 27.2795C12.637 26.3449 13.1711 25.3212 13.5716 24.2531Z" fill="#262625"/>
</g>
<defs>
<clipPath id="clip0_442_18273">
<rect width="32" height="32" fill="white" transform="translate(2 2)"/>
</clipPath>
</defs>
</svg>
