<svg width="36" height="36" viewBox="0 0 36 36" fill="none" xmlns="http://www.w3.org/2000/svg">
<mask id="mask0_438_17499" style="mask-type:luminance" maskUnits="userSpaceOnUse" x="3" y="15" width="30" height="7">
<path d="M3 15.0178H33V21.0755H3V15.0178Z" fill="white"/>
</mask>
<g mask="url(#mask0_438_17499)">
<path d="M9.76731 15.1267C9.3 15.118 7.27212 15.1122 6.08942 15.1122H3V16.2228C5.48654 16.2228 8.4375 16.2171 9.72981 16.2372C9.96058 16.2401 10.1885 16.2632 10.3702 16.4247C10.5404 16.5747 10.5981 16.8113 10.5231 17.0161C10.4019 17.3478 10.0644 17.4286 9.72981 17.4344C9.21635 17.443 7.81154 17.4459 6.76154 17.4459C4.18558 17.4488 5.30192 17.4459 3 17.4459V18.5536C5.48654 18.5536 8.44327 18.5478 9.72981 18.568C10.1308 18.5738 10.5548 18.7122 10.5548 19.1622C10.5548 19.6122 10.1308 19.7565 9.72981 19.7622C8.44615 19.7824 5.48654 19.7767 3 19.7767V20.8872C5.49519 20.8872 8.76058 20.8959 9.76731 20.8728C10.2981 20.8613 11.0856 20.7257 11.5413 20.0334C11.9712 19.3844 11.8673 18.5392 11.3019 17.9997C11.8673 17.4574 11.9712 16.6122 11.5413 15.9661C11.0827 15.2738 10.2981 15.1411 9.76731 15.1267ZM29.5904 15.1434C28.9327 15.129 27.9375 15.1203 27.0606 15.1174C24.9202 15.1088 26.2067 15.1117 24.1673 15.1117V16.2251C26.3394 16.2251 27.8596 16.2078 29.5356 16.254C30.0288 16.2684 30.5567 16.3203 31.0327 16.6492C31.4827 16.9607 31.751 17.4597 31.751 17.9963C31.751 18.5328 31.4913 19.0319 31.0413 19.3463C30.5654 19.6751 30.0375 19.7271 29.5442 19.7415C27.8683 19.7876 26.3452 19.7703 24.176 19.7703L24.1673 20.8838C26.351 20.8838 27.9202 20.8924 29.5904 20.8521C30.2596 20.8376 31.0817 20.7597 31.8433 20.2146C32.5644 19.6982 33 18.8876 33 17.9934C33 17.0992 32.5644 16.2886 31.8433 15.7722V15.7809C31.0846 15.2357 30.2596 15.1578 29.5904 15.1434ZM14.426 16.8257C14.4231 16.2892 14.426 15.6546 14.426 15.1122H13.1423C13.1423 15.6603 13.1308 16.7738 13.1538 17.3132C13.1971 18.3574 13.5375 18.6834 14.6048 18.7209C15.3462 18.7469 15.9317 18.7382 16.9558 18.7353V17.6161C16.1365 17.6161 15.8019 17.6161 15.1962 17.6074C14.6135 17.5959 14.4288 17.4055 14.426 16.8257ZM19.174 17.6161C19.774 17.6161 20.5067 17.6132 20.7837 17.6074C21.3663 17.5959 21.551 17.4113 21.5538 16.8459H21.5625V15.1122H22.8433V16.7969C22.8404 16.993 22.8375 17.1719 22.8317 17.3132C22.7885 18.3661 22.4452 18.6863 21.3115 18.7209C20.9423 18.7353 19.9615 18.7353 19.1769 18.7353H19.024V20.8872H17.5154V17.6161H19.174Z" fill="#262625"/>
</g>
</svg>
