<svg width="36" height="36" viewBox="0 0 36 36" fill="none" xmlns="http://www.w3.org/2000/svg">
<g clip-path="url(#clip0_442_18300)">
<path d="M20.0869 30.162C19.7511 30.3059 19.7511 30.066 19.943 29.9701C20.9985 29.4903 21.862 28.6268 22.3898 27.6193C21.5262 28.147 20.9025 28.051 20.2309 28.4828C19.5592 28.9146 19.2713 29.7782 18.5037 30.3059C19.3673 31.1695 20.039 31.4094 20.5187 31.4094C20.9025 31.4573 21.2863 31.4094 21.6701 31.3134C22.6297 31.1215 23.4453 30.6418 24.2129 30.4978C22.5337 29.9221 20.9985 29.8262 20.0869 30.162Z" fill="#262625"/>
<path d="M16.3928 31.6012C15.3373 31.8891 13.85 32.4648 12.3628 32.4648C12.4587 32.6087 12.6027 32.7526 12.7466 32.8966C12.8426 32.9445 12.8905 32.9445 12.9865 32.9445C14.6177 32.6087 15.865 31.937 17.2563 31.5532C16.9685 31.5532 16.6327 31.5532 16.3928 31.6012Z" fill="#262625"/>
<path d="M24.8845 29.1064C24.021 29.1544 23.2054 29.3943 22.4377 29.6822C23.3973 29.5862 24.6446 30.6897 26.0839 29.7301C26.2758 29.5862 26.9475 29.2984 27.2833 29.1064C26.7076 29.1064 25.892 28.9625 24.8845 29.1064Z" fill="#262625"/>
<path d="M21.7181 29.4423C23.2534 29.0585 24.5487 27.955 25.1724 26.4678C24.4048 26.9955 23.973 26.8516 23.0615 27.7151C22.7256 28.051 22.3418 29.0105 21.7181 29.4423Z" fill="#262625"/>
<path d="M15.0015 3.00746C13.2744 2.81556 12.4108 3.43924 11.7391 4.20686C12.1229 4.20686 12.5068 4.20686 12.8426 4.15888C13.6582 3.96698 14.4258 3.5352 15.0015 3.00746Z" fill="#262625"/>
<path d="M11.1634 5.50225C11.8351 5.4063 12.4588 5.11844 12.9865 4.68666C11.979 4.44678 10.9715 4.78261 10.2519 5.50225C10.5397 5.55023 10.8276 5.55023 11.1634 5.50225Z" fill="#262625"/>
<path d="M7.6132 6.79759C8.28486 6.22188 8.76462 5.50224 9.05248 4.68665C7.85308 5.16641 7.03749 6.22188 6.84558 7.51723C6.89356 7.42128 7.32534 7.03747 7.6132 6.79759Z" fill="#262625"/>
<path d="M8.09296 6.84558C8.38081 6.84558 8.66867 6.84558 9.0045 6.79761C9.62819 6.65368 10.2039 6.36582 10.6837 5.88606C9.72414 5.69416 8.71664 6.07797 8.09296 6.84558Z" fill="#262625"/>
<path d="M9.10047 7.27734C7.61322 7.32532 7.03751 7.80508 6.41382 8.81258C6.70167 8.71662 6.98953 8.62067 7.27739 8.52472C7.94905 8.28484 8.57274 7.85306 9.10047 7.27734Z" fill="#262625"/>
<path d="M11.6912 3.29541C10.2039 3.77517 9.67617 4.30291 9.29236 5.45433C10.6357 5.02255 11.1634 4.35088 11.6912 3.29541Z" fill="#262625"/>
<path d="M6.02999 11.5472C4.83059 12.1709 4.11095 13.4663 4.30286 14.8096C4.44679 14.6177 4.54274 14.3778 4.68667 14.1859C5.31035 13.4183 5.74214 12.5068 6.02999 11.5472Z" fill="#262625"/>
<path d="M2.43182 18.8396C2.52778 19.1754 2.57575 19.4633 2.62373 19.7991C2.81563 21.1904 4.25491 21.7661 4.83062 22.2459C4.35086 20.9026 3.53527 19.7032 2.43182 18.8396Z" fill="#262625"/>
<path d="M8.52476 26.2278C8.33286 25.844 8.18893 25.0764 7.8531 24.4047C7.51727 23.877 7.18143 23.3493 6.79763 22.8695C6.50977 24.5487 7.70917 25.5562 8.52476 26.2278Z" fill="#262625"/>
<path d="M11.2114 28.0509C10.7796 27.6192 10.4438 26.5637 10.06 26.1799C9.34031 25.4123 9.14841 25.4602 8.52472 24.7406C8.71662 26.2279 9.7721 27.5232 11.2114 28.0509Z" fill="#262625"/>
<path d="M3.34332 21.958C3.3913 22.1019 3.63118 22.5337 3.82308 22.9175C4.30284 23.973 5.35832 24.5487 6.46176 24.8845C5.83808 23.6851 4.63868 22.7256 3.34332 21.958Z" fill="#262625"/>
<path d="M6.55774 27.1874C6.70167 27.2833 7.0375 27.5712 7.37333 27.859C8.4288 28.7706 9.77213 28.3388 10.9715 28.5787C9.29237 27.4273 7.61321 27.3793 6.55774 27.1874Z" fill="#262625"/>
<path d="M4.97455 24.8845C5.0705 24.9805 5.35836 25.4123 5.59824 25.7001C6.55776 26.9475 7.99704 26.8036 8.81263 27.0914C7.75716 25.988 6.41383 25.2204 4.97455 24.8845Z" fill="#262625"/>
<path d="M6.26989 22.8216C6.36585 21.3343 5.55025 20.7586 5.4543 19.991C5.11847 21.2383 5.2624 22.3418 6.41382 23.829C6.31787 23.4932 6.26989 23.1574 6.26989 22.8216Z" fill="#262625"/>
<path d="M4.78262 20.8546C4.83059 20.4707 4.87857 20.1349 4.92655 19.7991C5.16643 18.7436 5.0225 18.1199 4.92655 17.1124C4.015 18.5037 4.11095 19.5592 4.78262 20.8546Z" fill="#262625"/>
<path d="M3.05551 18.7436C3.29539 18.9355 3.53527 19.3193 3.72718 19.5592C3.77515 18.0719 3.29539 16.5847 2.43182 15.3853C2.62373 16.4407 2.09599 17.7841 3.05551 18.7436Z" fill="#262625"/>
<path d="M4.06296 17.4963C4.15891 17.3044 4.30284 17.0645 4.44677 16.8726C5.31033 15.8651 5.16641 15.0015 5.45426 14.1379C4.59069 15.0015 3.91903 15.7211 4.06296 17.4963Z" fill="#262625"/>
<path d="M3.91902 13.1784C4.54271 11.8351 4.83056 10.7316 4.54271 9.34033C4.30283 9.96402 3.63116 10.6837 3.63116 11.6432C3.67914 12.075 3.967 13.1304 3.91902 13.1784Z" fill="#262625"/>
<path d="M3.53522 16.3448C3.72713 14.8096 4.01498 14.042 3.29534 12.3148C3.10344 13.0824 2.3838 14.3298 3.05546 15.5292C3.19939 15.7691 3.3913 16.0569 3.53522 16.3448Z" fill="#262625"/>
<path d="M7.4693 8.95654C6.22192 9.29238 5.31038 10.2999 4.97455 11.4993C5.02252 11.4513 5.55026 11.0675 5.83812 10.9236C6.50978 10.3958 7.08549 9.72416 7.4693 8.95654Z" fill="#262625"/>
<path d="M5.07044 10.108C5.83806 9.14844 6.31782 7.94904 6.41377 6.70166C6.17389 6.98952 5.93401 7.27737 5.69413 7.56523C5.31032 8.04499 5.07044 8.6207 5.02247 9.24439C4.97449 9.53225 5.07044 9.77212 5.07044 10.108Z" fill="#262625"/>
<path d="M24.2609 4.20686C23.5892 3.43924 22.6777 2.81556 20.9985 3.00746C21.6222 3.58317 22.3419 3.96698 23.1095 4.15888C23.4933 4.20686 23.8771 4.20686 24.2609 4.20686Z" fill="#262625"/>
<path d="M23.0615 4.63869C23.5412 5.11845 24.1649 5.4063 24.8366 5.50225C25.1244 5.55023 25.4603 5.55023 25.7481 5.50225C25.0765 4.78261 24.069 4.44678 23.0615 4.63869Z" fill="#262625"/>
<path d="M28.3868 6.79759C28.6267 7.03747 29.1064 7.42128 29.1544 7.46926C28.9625 6.22188 28.1469 5.11843 26.9475 4.63867C27.2833 5.50224 27.7631 6.22188 28.3868 6.79759Z" fill="#262625"/>
<path d="M27.907 6.84558C27.2834 6.07797 26.3238 5.74214 25.3643 5.88606C25.7961 6.36582 26.4198 6.65368 27.0435 6.79761C27.3313 6.84558 27.6192 6.84558 27.907 6.84558Z" fill="#262625"/>
<path d="M26.8995 7.27734C27.4273 7.85306 28.051 8.28484 28.7226 8.5727C29.0105 8.66865 29.2983 8.7646 29.5862 8.86055C29.0105 7.80508 28.3868 7.32532 26.8995 7.27734Z" fill="#262625"/>
<path d="M26.7556 5.45433C26.3238 4.30291 25.7961 3.77517 24.3568 3.29541C24.8845 4.35088 25.4123 5.02255 26.7556 5.45433Z" fill="#262625"/>
<path d="M31.3613 14.2339C31.5053 14.4258 31.6492 14.6177 31.7451 14.8576C31.8891 13.5143 31.2174 12.1709 30.018 11.5952C30.2579 12.5068 30.7376 13.4183 31.3613 14.2339Z" fill="#262625"/>
<path d="M31.1694 22.1979C31.7451 21.7182 33.1844 21.1425 33.3763 19.7511C33.4243 19.4153 33.4723 19.1275 33.5682 18.7916C32.4648 19.7032 31.6492 20.9026 31.1694 22.1979Z" fill="#262625"/>
<path d="M29.2024 22.8695C28.8186 23.3493 28.4828 23.877 28.1469 24.4047C27.8111 25.0284 27.6672 25.796 27.4753 26.2278C28.2909 25.5562 29.4903 24.5487 29.2024 22.8695Z" fill="#262625"/>
<path d="M27.4752 24.7406C26.8515 25.4602 26.7076 25.3643 25.94 26.1799C25.5562 26.6117 25.1724 27.6671 24.7886 28.0509C26.2758 27.5712 27.2833 26.2758 27.4752 24.7406Z" fill="#262625"/>
<path d="M29.5862 24.8366C30.6417 24.4528 31.7451 23.8771 32.2249 22.8696C32.4168 22.4857 32.6087 22.054 32.7046 21.91C31.4093 22.7256 30.2099 23.6851 29.5862 24.8366Z" fill="#262625"/>
<path d="M28.6746 27.859C29.0104 27.5712 29.3463 27.2833 29.4902 27.1874C28.4347 27.4273 26.7556 27.4273 25.0764 28.6267C26.2758 28.3388 27.6191 28.7706 28.6746 27.859Z" fill="#262625"/>
<path d="M27.1874 27.0914C28.003 26.7556 29.4903 26.8995 30.4018 25.7001C30.6417 25.3643 30.9296 24.9805 31.0255 24.8845C30.066 25.1724 28.4348 25.6521 27.1874 27.0914Z" fill="#262625"/>
<path d="M30.5937 19.991C30.4977 20.7586 29.6821 21.3343 29.7781 22.8216C29.7781 23.1574 29.7301 23.4932 29.6821 23.829C30.7376 22.3418 30.9295 21.2383 30.5937 19.991Z" fill="#262625"/>
<path d="M31.0734 19.7991C31.1694 20.1349 31.2174 20.5187 31.2174 20.9025C31.889 19.6072 31.985 18.5517 31.0254 17.1604C30.9775 18.1199 30.8335 18.6956 31.0734 19.7991Z" fill="#262625"/>
<path d="M32.2729 19.5592C32.4648 19.3193 32.7526 18.9835 32.9445 18.7436C33.9041 17.7841 33.3763 16.4407 33.5682 15.3853C32.7047 16.5847 32.2249 18.0719 32.2729 19.5592Z" fill="#262625"/>
<path d="M30.5457 14.1379C30.8336 15.0015 30.6896 15.8651 31.5532 16.8726C31.6971 17.0645 31.8411 17.3044 31.937 17.4963C32.0809 15.7211 31.4573 15.0015 30.5457 14.1379Z" fill="#262625"/>
<path d="M32.3208 11.6432C32.3208 10.6837 31.6971 10.012 31.4093 9.34033C31.1214 10.7316 31.4093 11.8351 32.033 13.1784C32.033 13.1304 32.3208 12.075 32.3208 11.6432Z" fill="#262625"/>
<path d="M32.4648 16.3448C32.6087 16.0569 32.7526 15.7691 32.9445 15.5292C33.5682 14.3298 32.8486 13.0824 32.7046 12.3148C32.033 14.042 32.2729 14.8096 32.4648 16.3448Z" fill="#262625"/>
<path d="M30.1619 10.9236C30.4498 11.1155 30.9296 11.4513 30.9775 11.4993C30.6897 10.2519 29.7302 9.29238 28.5308 8.95654C28.9146 9.72416 29.4903 10.3958 30.1619 10.9236Z" fill="#262625"/>
<path d="M31.0255 9.24439C31.0255 8.6207 30.7856 8.04499 30.4018 7.56523C30.1619 7.27737 29.8261 6.98952 29.6342 6.70166C29.6821 7.94904 30.1619 9.14844 30.9775 10.108C30.9295 9.77212 31.0255 9.53225 31.0255 9.24439Z" fill="#262625"/>
<path d="M15.8171 28.6268C14.9535 28.051 13.994 28.051 13.5622 27.7632C14.1379 28.7227 14.9535 29.5383 15.961 30.066C16.1529 30.162 16.2489 30.4498 15.913 30.3059C14.9535 29.9221 12.9865 30.066 11.7871 30.6897C12.6027 30.8816 13.6102 31.4573 14.7136 31.5533C15.6732 31.6492 16.4408 31.2175 17.5922 31.2654C19.0795 31.3614 19.3193 32.177 22.8216 33.0405C22.9655 33.0885 23.1094 33.0405 23.2054 32.9446C23.3014 32.8486 23.4453 32.7047 23.5412 32.5608C20.5667 32.3689 18.9835 31.4094 17.7361 30.3539C17.0645 29.7302 16.2969 28.9626 15.8171 28.6268Z" fill="#262625"/>
<path d="M13.5142 29.6821C12.7466 29.3463 11.883 29.1544 11.0674 29.1064C10.0599 29.0105 9.29233 29.1544 8.71661 29.1064C9.05245 29.2983 9.72411 29.6342 9.91601 29.7301C11.3073 30.6896 12.5547 29.5382 13.5142 29.6821Z" fill="#262625"/>
<path d="M14.2339 29.4423C13.6582 28.9625 13.2264 28.051 12.8905 27.7151C11.931 26.8516 11.5472 26.9955 10.7796 26.4678C11.4033 27.955 12.6986 29.0585 14.2339 29.4423Z" fill="#262625"/>
<path d="M13.0825 14.09L12.9865 14.1379C12.9386 14.1379 12.8906 14.1379 12.7946 14.1379C12.6507 14.09 12.5068 14.09 12.4108 14.1379L12.2189 14.1859C12.123 14.2339 12.123 14.1859 12.123 14.1379C12.123 14.09 12.123 14.09 12.1709 14.042C12.2189 13.946 12.2189 13.8501 12.123 13.7541C12.027 13.7061 11.9311 13.7541 11.8831 13.8021L11.6912 13.946C11.6432 13.994 11.6432 14.042 11.7392 14.042C11.8351 14.042 11.8351 14.1379 11.8351 14.2339C11.8351 14.3298 11.8351 14.3778 11.7871 14.4738C11.7392 14.5697 11.7871 14.7136 11.9311 14.7616H11.979C12.1709 14.7616 12.3628 14.7616 12.5068 14.7616C12.7467 14.7616 12.9386 14.6177 13.0345 14.3778C13.0345 14.3298 13.1305 14.2339 13.1305 14.1859C13.1305 14.1379 13.1305 14.042 13.0825 14.09Z" fill="#262625"/>
<path d="M16.7286 14.09L16.6326 14.1379C16.5847 14.1379 16.5367 14.1379 16.4887 14.1379C16.3448 14.09 16.2009 14.09 16.0569 14.1379L15.865 14.1859C15.7691 14.2339 15.7691 14.1859 15.7691 14.1379L15.8171 14.042C15.865 13.946 15.865 13.8501 15.8171 13.7541C15.7211 13.7061 15.6252 13.7541 15.5772 13.8021L15.3853 13.946C15.3373 13.994 15.3373 14.042 15.4332 14.042C15.5292 14.042 15.5292 14.1379 15.5292 14.2339C15.5292 14.3298 15.4812 14.3778 15.4812 14.4738C15.4332 14.5697 15.4812 14.7136 15.6252 14.7616C15.6731 14.7616 15.6731 14.7616 15.7211 14.7616C15.913 14.7616 16.1049 14.7616 16.2488 14.7616C16.4887 14.7616 16.6806 14.6177 16.7766 14.3778C16.7766 14.3298 16.8725 14.2339 16.8725 14.1859C16.8725 14.1379 16.7766 14.042 16.7286 14.09Z" fill="#262625"/>
<path d="M18.024 9.14849C18.3119 9.14849 18.5997 8.90861 18.5997 8.57278C18.5997 8.23695 18.3598 7.99707 18.024 7.99707C17.6882 7.99707 17.4483 8.23695 17.4483 8.57278C17.4483 8.90861 17.6882 9.14849 18.024 9.14849Z" fill="#262625"/>
<path d="M15.6732 9.3403C15.961 9.29233 16.2009 9.00447 16.1529 8.71662C16.105 8.42876 15.8171 8.18888 15.5292 8.23686C15.2414 8.28483 15.0015 8.57269 15.0495 8.86054C15.0975 9.19638 15.3853 9.38828 15.6732 9.3403Z" fill="#262625"/>
<path d="M13.0824 8.86056C12.7946 8.95651 12.6027 9.24437 12.6986 9.53222C12.7946 9.82008 13.0824 10.012 13.3703 9.91603H13.4182C13.7061 9.82008 13.85 9.48425 13.7541 9.19639C13.6581 8.95651 13.3703 8.76461 13.0824 8.86056Z" fill="#262625"/>
<path d="M10.7796 9.82007C10.4917 9.96399 10.3958 10.2998 10.5397 10.5397C10.6356 10.8276 10.9235 10.9715 11.2114 10.8755C11.4992 10.7796 11.6431 10.4917 11.5472 10.2039C11.5472 10.1559 11.4992 10.0599 11.4512 10.012C11.3553 9.82007 11.0195 9.67614 10.7796 9.82007Z" fill="#262625"/>
<path d="M20.3268 9.3403C20.6147 9.38828 20.9025 9.1484 20.9505 8.86054C20.9985 8.57269 20.7586 8.28483 20.4708 8.23686C20.1829 8.18888 19.8951 8.42876 19.8471 8.71662C19.7991 9.00447 19.991 9.29233 20.3268 9.3403Z" fill="#262625"/>
<path d="M22.5817 9.91601C22.8695 10.012 23.2054 9.86803 23.3013 9.58018C23.3973 9.29232 23.2533 8.95649 22.9655 8.86054C22.6776 8.76458 22.3418 8.90851 22.2458 9.19637C22.1019 9.48422 22.2938 9.82006 22.5817 9.91601Z" fill="#262625"/>
<path d="M24.7406 10.7796C25.0285 10.9235 25.3643 10.8276 25.5082 10.5397C25.6522 10.2518 25.5562 9.91602 25.2683 9.82007C24.9805 9.67614 24.6447 9.77209 24.5007 10.012C24.3568 10.2998 24.4528 10.6357 24.6926 10.7796C24.6926 10.7796 24.6926 10.7796 24.7406 10.7796Z" fill="#262625"/>
<path d="M19.1754 19.3673C19.2714 19.3673 19.2714 19.4633 19.2714 19.5592C19.2714 19.6552 19.2234 19.7031 19.2234 19.7991C19.1754 19.943 19.2234 20.039 19.3673 20.0869H19.4153C19.6072 20.0869 19.7991 20.0869 19.943 20.0869C20.1829 20.0869 20.3748 19.943 20.4708 19.7031C20.5187 19.6552 20.5187 19.5592 20.5667 19.5112C20.6147 19.4153 20.5187 19.3673 20.4708 19.4153C20.4228 19.4153 20.3748 19.4153 20.3748 19.4153C20.3268 19.4153 20.2789 19.4153 20.2309 19.4153C20.087 19.3673 19.943 19.3673 19.7991 19.4153C19.7511 19.4633 19.7031 19.4633 19.6072 19.4633C19.5112 19.5112 19.5112 19.4633 19.5112 19.4153L19.5592 19.3193C19.6072 19.2234 19.6072 19.1274 19.5592 19.0315C19.4633 18.9835 19.3673 19.0315 19.3193 19.0794L19.1274 19.2234C19.0315 19.2713 19.0795 19.3673 19.1754 19.3673Z" fill="#262625"/>
<path d="M22.5817 19.3673C22.6776 19.3673 22.6776 19.4633 22.6776 19.5592C22.6776 19.6552 22.6776 19.7031 22.6296 19.7991C22.5817 19.943 22.6296 20.039 22.7736 20.0869H22.8216C23.0135 20.0869 23.2054 20.0869 23.3493 20.0869C23.5892 20.0869 23.7811 19.943 23.877 19.7031C23.925 19.6552 23.925 19.5592 23.973 19.5112C24.0209 19.4153 23.925 19.3673 23.877 19.4153C23.829 19.4153 23.829 19.4633 23.7811 19.4633C23.7331 19.4633 23.6851 19.4633 23.5892 19.4633C23.4452 19.4153 23.3013 19.4153 23.2054 19.4633C23.1574 19.5112 23.1094 19.5112 23.0135 19.5112C22.9175 19.5592 22.9175 19.5112 22.9175 19.4633C22.9175 19.4153 22.9175 19.4153 22.9655 19.3673C23.0135 19.2713 23.0135 19.1754 22.9175 19.0794C22.8215 19.0315 22.7256 19.0794 22.6776 19.1274L22.4857 19.2713C22.4857 19.2713 22.5337 19.3673 22.5817 19.3673Z" fill="#262625"/>
<path d="M13.7061 17.4003C13.8021 17.4003 13.8021 17.4962 13.8021 17.5922C13.8021 17.6881 13.7541 17.7361 13.7541 17.832C13.7061 17.976 13.7541 18.0719 13.898 18.1199H13.946C14.1379 18.1199 14.3298 18.1199 14.4737 18.1199C14.7136 18.1199 14.9055 17.976 15.0015 17.7361C15.0015 17.6881 15.0974 17.5922 15.0974 17.5442C15.1454 17.4482 15.0494 17.4003 15.0015 17.4482C14.9535 17.4482 14.9535 17.4962 14.9055 17.4962C14.8575 17.4962 14.8096 17.4962 14.7136 17.4962C14.5697 17.4482 14.4258 17.4482 14.3298 17.4962L14.1379 17.5442C14.042 17.5442 14.042 17.5442 14.042 17.4962C14.042 17.4482 14.042 17.4482 14.0899 17.4003C14.1379 17.3043 14.1379 17.2084 14.042 17.1124C13.946 17.0644 13.85 17.1124 13.8021 17.1604C13.7541 17.2084 13.6581 17.2563 13.6102 17.3043C13.6102 17.3043 13.6581 17.4003 13.7061 17.4003Z" fill="#262625"/>
<path d="M20.7107 22.6776C20.8066 22.6776 20.8066 22.7736 20.8066 22.8695C20.8066 22.9655 20.7586 23.0134 20.7586 23.1094C20.7107 23.2533 20.7586 23.3493 20.9026 23.3972H20.9505C21.1424 23.3972 21.3343 23.3972 21.4783 23.3972C21.7181 23.3972 21.9101 23.2533 22.006 23.0134C22.006 22.9655 22.102 22.8695 22.102 22.8215C22.102 22.7736 22.054 22.6776 22.006 22.7256C21.958 22.7256 21.958 22.7736 21.9101 22.7736C21.8621 22.7736 21.8141 22.7736 21.7661 22.7736C21.6222 22.7256 21.4783 22.7256 21.3343 22.7736C21.2864 22.8215 21.2384 22.8215 21.1424 22.8215C21.0465 22.8695 21.0465 22.8215 21.0465 22.7736L21.0945 22.6776C21.1424 22.5816 21.1424 22.4857 21.0945 22.3897C20.9985 22.3418 20.9026 22.3897 20.8546 22.4377L20.6627 22.5817C20.6147 22.6296 20.6147 22.7256 20.7107 22.6776Z" fill="#262625"/>
<path d="M14.2819 8.4288C13.7541 7.85309 12.8906 7.80511 12.3148 8.33285C12.075 8.57273 11.931 8.86058 11.8831 9.19641C11.6432 9.00451 11.3553 8.90856 11.0195 8.90856C10.2519 8.90856 9.62819 9.53225 9.67617 10.2999C9.67617 10.8756 10.06 11.4033 10.6357 11.5952V12.8426H8.09296L10.5877 15.4813V22.006C10.5877 23.1095 11.0195 23.925 12.4108 24.069C13.8021 24.2129 15.3373 24.4048 16.057 24.5008C17.0165 24.5967 17.4963 24.7406 18.072 25.5562C18.5997 24.7886 19.1274 24.5967 20.087 24.5008C20.8066 24.4048 22.3898 24.2609 23.7331 24.069C25.0765 23.8771 25.5562 23.1095 25.5562 22.006V15.5292L28.003 12.8906H25.4603V11.6432C26.1799 11.4513 26.6117 10.6837 26.4198 9.91605C26.2279 9.19641 25.4603 8.76463 24.6927 8.95653C24.5008 9.00451 24.3568 9.10046 24.2129 9.19641C24.1169 8.4288 23.4453 7.90106 22.6777 7.99701C22.3418 8.04499 22.054 8.18892 21.8141 8.4288C21.6222 7.70916 20.8546 7.27737 20.087 7.46928C19.7511 7.56523 19.5112 7.75713 19.3193 8.04499C18.9835 7.37333 18.1679 7.03749 17.4963 7.37333C17.2084 7.51725 16.9685 7.75713 16.8246 8.04499C16.3928 7.4213 15.5292 7.27737 14.9056 7.70916C14.5697 7.85309 14.3778 8.14094 14.2819 8.4288ZM10.9715 15.0975L9.38831 13.4183H17.8801V15.0975H10.9715ZM14.3778 22.9176H11.3073C11.2114 22.6777 11.1154 22.4378 11.1154 22.1979H14.3778V22.9176ZM14.3778 21.0945H11.1154V18.6957H14.3778V21.0945ZM17.8801 24.5967C17.4483 24.2609 16.9205 24.069 16.3928 24.021L14.6657 23.8291V21.3823H17.928L17.8801 24.5967ZM17.8801 20.2789H14.6657V19.6072H17.928L17.8801 20.2789ZM17.8801 18.4558H11.1154V16.7766H17.8801V18.4558ZM17.8801 16.4888H11.1154V15.3853H17.8801V16.4888ZM18.1199 13.4183H21.3823V15.8171H18.1199V13.4183ZM21.3823 16.9206V17.6402H18.1199V16.9685L21.3823 16.9206ZM23.5412 23.5412L19.6072 23.973C19.0795 24.021 18.5517 24.2129 18.1199 24.5487V22.054H24.8846C24.8846 22.9176 24.5967 23.4453 23.5412 23.5412ZM24.8846 21.8141H18.1199V20.6627H24.8846V21.8141ZM24.8846 20.4228H18.1199V18.6957H24.8846V20.4228ZM24.8846 18.5038H21.6702V16.105H24.9325V18.5038H24.8846ZM25.8441 14.2819L25.1724 14.9535H21.6702V14.2339L25.8441 14.2819ZM15.4333 7.80511C16.009 7.70916 16.5367 8.09297 16.6327 8.66868C16.6327 8.76463 16.6327 8.86058 16.6327 9.00451L17.0165 8.95653C16.9685 8.86058 16.9685 8.76463 16.9685 8.6207C16.9205 8.04499 17.3523 7.56523 17.928 7.51725C18.5038 7.46928 18.9835 7.90106 19.0315 8.47677C19.0315 8.52475 19.0315 8.57273 19.0315 8.6207C19.0315 8.71665 19.0315 8.81261 18.9835 8.95653L19.3673 9.00451C19.3673 8.90856 19.3673 8.81261 19.3673 8.66868C19.4153 8.09297 19.943 7.70916 20.5187 7.75713C21.0945 7.80511 21.4783 8.33285 21.4303 8.90856C21.4303 9.05249 21.3823 9.19641 21.2864 9.29237L21.7181 9.38832C21.7181 9.29237 21.7181 9.19641 21.7661 9.10046C21.958 8.57273 22.5337 8.28487 23.0615 8.47677C23.5892 8.66868 23.8771 9.24439 23.6852 9.77213C23.6372 9.86808 23.5892 9.96403 23.5412 10.012L23.925 10.1559C23.925 10.06 23.973 9.96403 24.021 9.86808C24.2609 9.34034 24.8846 9.14844 25.4123 9.43629C25.94 9.67617 26.1319 10.2999 25.8441 10.8276C25.7481 11.0195 25.6042 11.1634 25.4123 11.2594L24.1169 11.979L23.925 10.6837C23.6852 10.5877 23.4453 10.4438 23.1574 10.3478L22.1979 11.1155L21.8141 9.86808C21.5742 9.77213 21.2864 9.72415 20.9985 9.67617L20.087 10.6357L19.5112 9.43629C19.2234 9.38832 18.9835 9.38832 18.6957 9.38832L17.976 10.4438L17.2084 9.38832C16.9205 9.38832 16.6807 9.43629 16.3928 9.43629L15.8171 10.6357L14.9056 9.67617C14.6177 9.72415 14.3778 9.77213 14.09 9.86808L13.7062 11.1155L12.6507 10.3478C12.4108 10.4438 12.1709 10.5397 11.8831 10.6837L11.7391 11.979L10.4438 11.2594C9.96402 10.9715 9.77212 10.3478 10.012 9.86808C10.2999 9.38832 10.9235 9.19641 11.4033 9.43629C11.5952 9.53225 11.7391 9.67617 11.8351 9.86808C11.8831 9.96403 11.931 10.06 11.931 10.1559L12.3148 10.012C12.2669 9.91605 12.2189 9.8201 12.1709 9.72415C12.075 9.14844 12.4588 8.6207 13.0345 8.52475C13.6102 8.4288 14.1379 8.81261 14.2339 9.38832L14.6177 9.29237C14.5697 9.19641 14.5217 9.10046 14.5217 9.00451C14.5217 8.38082 14.8576 7.85309 15.4333 7.80511Z" fill="#262625"/>
</g>
<defs>
<clipPath id="clip0_442_18300">
<rect width="32" height="32" fill="white" transform="translate(2 2)"/>
</clipPath>
</defs>
</svg>
