<svg width="36" height="36" viewBox="0 0 36 36" fill="none" xmlns="http://www.w3.org/2000/svg">
<path d="M17.0068 4.62464C13.6059 4.68936 9.51055 5.27995 7.13198 6.70733C5.59827 7.63704 3.71248 9.53024 3.13378 12.4449C2.55507 15.3596 2.82258 18.1984 3.39332 21.116C3.96407 24.0337 5.10727 27.2999 8.27413 28.9823C11.441 30.6647 13.5649 30.8643 17.9053 30.8518C22.2457 30.8643 24.3696 30.6647 27.5365 28.9823C30.7033 27.2999 31.8465 24.0337 32.4173 21.116C32.988 18.1984 33.2555 15.3596 32.6768 12.4449C32.0981 9.53024 30.2123 7.63704 28.6786 6.70733C25.5883 5.00739 22.1884 4.68133 18.8038 4.62464C18.1874 4.62874 17.5776 4.61776 17.0068 4.62464ZM21.4354 5.40925C22.6912 5.52906 25.8335 5.77261 28.1853 7.17479C30.5372 8.57696 31.5884 10.3601 32.0276 12.5227C32.4668 14.6854 32.4286 17.4205 31.82 20.8823C31.2115 24.3441 29.5086 27.2244 27.1988 28.4374C24.889 29.6504 21.9566 30.2923 17.9053 30.2297C13.854 30.2923 10.9216 29.6504 8.61181 28.4374C6.30198 27.2244 4.59911 24.3441 3.99056 20.8823C3.382 17.4205 3.34378 14.6854 3.78298 12.5227C4.22218 10.3601 5.27344 8.57696 7.62525 7.17479C9.97707 5.77261 13.1194 5.52906 14.3752 5.40925C16.7205 5.21457 19.1195 5.1993 21.4354 5.40925ZM17.1263 6.01111C15.1985 6.03515 13.1348 6.27106 11.7224 6.57458C10.1084 6.92145 9.55649 7.04393 8.16455 7.87663C6.7726 8.70934 5.06102 10.4048 4.53581 13.0153C4.0106 15.6259 4.25353 18.1687 4.77152 20.782C5.28952 23.3952 6.32695 26.3207 9.2011 27.8276C13.9778 30.3154 21.9526 30.2164 26.6095 27.8276C29.4837 26.3207 30.5211 23.3952 31.0391 20.782C31.5571 18.1687 31.8 15.6259 31.2748 13.0153C30.7496 10.4048 29.038 8.70934 27.6461 7.87663C26.2541 7.04393 25.7022 6.92145 24.0882 6.57458C22.6758 6.27106 20.6121 6.03515 18.6843 6.01111C18.1498 6.01518 17.6213 6.00527 17.1263 6.01111ZM20.9179 7.26649C21.4421 7.31565 22.3479 7.39065 23.3721 7.58795C23.5237 7.61917 23.609 7.6682 23.5757 7.81241C21.9287 11.8071 20.1695 15.8033 18.3344 19.7981C18.087 20.3278 17.7744 20.3482 17.5213 19.8961C15.6698 15.8687 13.8954 11.8398 12.2349 7.81241C12.2016 7.6682 12.2869 7.61917 12.4385 7.58795C13.4627 7.39065 14.3685 7.31565 14.8927 7.26649C16.8941 7.10182 18.9482 7.09067 20.9179 7.26649ZM10.7826 8.0223C10.8763 8.01992 10.9077 8.08186 10.9044 8.19908L10.9057 8.19544V14.9173C10.9057 17.0388 11.2526 18.0338 12.1909 19.7636L16.6877 28.0444C16.8412 28.337 16.5921 28.3179 16.3215 28.3209C13.6403 28.2057 11.5872 27.6844 9.91453 26.8208C7.91932 25.7908 6.44828 23.3452 5.92262 20.4056C5.39695 17.4659 5.3638 15.1434 5.74318 13.307C6.12256 11.4706 7.03058 9.9562 9.06205 8.76553C9.5686 8.46863 10.1177 8.23297 10.6733 8.04481C10.7164 8.03087 10.7529 8.02305 10.7826 8.0223ZM25.028 8.0223C25.0578 8.02305 25.0942 8.03087 25.1373 8.04481C25.6929 8.23297 26.242 8.46863 26.7486 8.76553C28.78 9.9562 29.688 11.4706 30.0674 13.307C30.4468 15.1434 30.4137 17.4659 29.888 20.4056C29.3623 23.3452 27.8913 25.7908 25.8961 26.8208C24.2234 27.6844 22.1704 28.2057 19.4891 28.3209C19.2185 28.3179 18.9694 28.337 19.1229 28.0444L23.6197 19.7636C24.558 18.0338 24.9049 17.0388 24.9049 14.9173V8.19544L24.9062 8.19908C24.9029 8.08186 24.9343 8.01992 25.028 8.0223Z" fill="#262625"/>
</svg>
