<svg width="36" height="36" viewBox="0 0 36 36" fill="none" xmlns="http://www.w3.org/2000/svg">
<path d="M28.9599 19.6289C28.2567 19.9468 27.4349 19.8571 26.8096 19.4055L25.9843 18.8093L20.4279 14.7984L20.4093 14.7853L20.3926 14.7731L20.3535 14.7459C20.1253 14.5872 19.4202 14.1103 18.8987 13.902C18.8965 13.903 18.8945 13.9045 18.8923 13.9058C18.8514 13.8868 18.8097 13.8694 18.7673 13.8539C18.7638 13.8526 18.7609 13.851 18.7574 13.8504C18.6251 13.8013 18.4882 13.7656 18.3488 13.744C18.5609 13.7452 18.7709 13.7481 18.9802 13.7529L19.1189 13.7558C22.5949 13.8404 25.683 14.3254 27.8452 15.0529H27.8462C29.8382 15.7228 31.0446 16.5994 31.0446 17.5574C31.0446 18.3212 30.2791 19.0324 28.9599 19.6289ZM23.2804 21.0475C21.6727 21.2558 19.8942 21.3715 18.0243 21.3715C16.1541 21.3715 14.3759 21.2561 12.7682 21.0478C11.2996 20.7834 12.007 19.7907 12.3916 19.3645C12.3951 19.3598 12.3992 19.3557 12.4038 19.352C12.4967 19.2491 12.5688 19.1815 12.5816 19.17L12.5835 19.168C12.8353 18.9135 13.0902 18.6622 13.3483 18.4142C14.1818 17.6103 15.0468 16.8399 15.9413 16.1046C16.2083 15.885 16.4753 15.6709 16.7413 15.4636L16.7432 15.4623C16.7716 15.4387 16.8008 15.4162 16.8307 15.3946C17.0352 15.243 17.5544 14.8966 18.0243 14.8978C18.4938 14.8966 19.0131 15.243 19.2172 15.3946C19.2278 15.4017 19.2368 15.4088 19.2454 15.4158L19.2688 15.4334C19.2794 15.4411 19.288 15.4482 19.2935 15.453L19.3028 15.4604L19.307 15.4636C19.5765 15.674 19.8434 15.8876 20.1076 16.1046C21.0017 16.84 21.8664 17.6105 22.6996 18.4142C22.9585 18.6628 23.2142 18.9147 23.4666 19.17L23.4733 19.177C23.497 19.1982 23.5611 19.2603 23.6416 19.3482L23.6426 19.3492C24.024 19.7665 24.766 20.7796 23.2804 21.0475ZM9.23838 19.4055C8.61338 19.8571 7.79158 19.9468 7.08868 19.6289C5.76948 19.0327 5.00308 18.3212 5.00308 17.5574C5.00308 16.5994 6.20978 15.7228 8.20178 15.0529C10.3633 14.3256 13.4528 13.8404 16.9287 13.7558L17.0678 13.7529C17.2777 13.7481 17.4876 13.7452 17.6998 13.7439C17.5575 13.7657 17.4213 13.8016 17.2905 13.8503L17.2857 13.8516C17.2417 13.8683 17.1983 13.8864 17.1556 13.9061C17.1535 13.9046 17.1514 13.9032 17.1492 13.9019C16.6277 14.1103 15.9223 14.5872 15.6941 14.7458L15.6557 14.7731L15.6198 14.7987L10.0637 18.8093L9.23838 19.4055ZM28.0554 14.2763C25.9163 13.6385 23.2227 13.2007 20.2442 13.0545C19.5336 13.0194 18.8223 13.0013 18.1109 13H17.9362C17.2118 13.0013 16.5003 13.0196 15.8035 13.0545C12.824 13.2006 10.1304 13.6378 7.991 14.2763C4.9269 15.1904 3 16.5167 3 17.9926C3 19.2426 4.383 20.3862 6.667 21.2618C7.59424 21.6169 8.6702 21.9291 9.8635 22.1852C10.8334 22.3945 11.8814 22.5679 12.9895 22.698C14.5632 22.8839 16.2581 22.9858 18.0238 22.9858C19.7892 22.9858 21.4837 22.8842 23.0574 22.698C24.107 22.5767 25.1503 22.4055 26.1837 22.1852C27.3767 21.9288 28.4529 21.6169 29.3802 21.2618C31.6645 20.3861 33.0469 19.2426 33.0469 17.9926C33.0469 16.517 31.1192 15.1904 28.0554 14.2763Z" fill="#262625"/>
</svg>
