<svg width="36" height="36" viewBox="0 0 36 36" fill="none" xmlns="http://www.w3.org/2000/svg">
<path d="M33.1645 14.6321L24.1623 14.6333C23.9331 14.6333 23.7834 14.5655 23.7834 14.2493V12.913C23.7834 12.5277 23.576 12.3242 23.1997 12.3242H12.8931C12.5079 12.3242 12.3095 12.5418 12.3095 12.9092V14.2455C12.3095 14.5271 12.1763 14.6295 11.9293 14.6295L6.02977 14.6308C5.57793 14.6308 5.31425 14.8458 5.17857 15.1287L2.30497 20.7428C2.26785 20.8145 2.24609 20.8977 2.24609 20.9821C2.24609 21.2036 2.39073 21.4916 2.79393 21.4916L11.928 21.4903C12.2096 21.4903 12.3082 21.6183 12.3082 21.8743V23.2093C12.3082 23.6125 12.5411 23.7943 12.8931 23.7943H23.1984C23.5491 23.7943 23.7834 23.6241 23.7834 23.2132L23.7821 21.8781C23.7821 21.6055 23.8973 21.4941 24.161 21.4941L29.8903 21.4929C30.2845 21.4929 30.5687 21.3892 30.7671 21.0218L33.6074 15.473C33.6701 15.3527 33.7111 15.2849 33.7111 15.1428C33.7111 14.7639 33.3859 14.6321 33.1645 14.6321ZM30.8951 16.8682L29.5255 19.5473C29.4397 19.7034 29.2874 19.7085 29.1799 19.7085H22.3856C22.104 19.7085 22.0016 19.8353 22.0016 20.0913V21.6324C22.0016 21.8871 21.889 22.0113 21.6151 22.0113H14.4765C14.2371 22.0113 14.0912 21.9268 14.0912 21.6285V20.0887C14.0912 19.8071 13.9619 19.7073 13.7059 19.7073H5.37441C5.16961 19.7073 5.02881 19.5793 5.02881 19.4001C5.02881 19.3476 5.04161 19.3002 5.06465 19.2554L6.43425 16.5777C6.48673 16.4842 6.57249 16.4164 6.77857 16.4164L13.7059 16.4177C13.9453 16.4177 14.0938 16.3217 14.0938 16.0311V14.49C14.0938 14.2173 14.2128 14.1085 14.4765 14.1085L21.6138 14.1073C21.8698 14.1073 21.9978 14.2212 21.9978 14.4938V16.0337C21.9978 16.2986 22.1207 16.4151 22.3856 16.4151H30.584C30.8451 16.4151 30.9309 16.5866 30.9309 16.7236C30.9309 16.7735 30.9181 16.8234 30.8951 16.8682Z" fill="#262625"/>
</svg>
