<svg width="36" height="36" viewBox="0 0 36 36" fill="none" xmlns="http://www.w3.org/2000/svg">
<path fill-rule="evenodd" clip-rule="evenodd" d="M33.0335 30.882C33.0488 30.5122 33.0629 30.044 33.0629 29.57C33.0629 28.5567 32.2321 27.5964 32.2248 27.5881C27.9795 22.8834 20.8063 15.9239 18.1385 15.6824C18.0845 15.6767 18.0002 15.682 18.0002 15.682C18.0017 18.8941 18.1085 18.7439 16.214 19.5442C16.0188 19.6265 9.66554 22.3119 3.60581 27.8007C2.86931 28.6334 2.93751 29.4658 2.93751 29.4658C2.93751 29.9697 2.95293 30.3139 2.96966 30.8797C5.76469 28.4835 14.0584 21.6743 18.0002 21.6743C21.94 21.6743 30.2397 28.4878 33.0335 30.882ZM32.9193 26.9544C32.9631 27.0036 34 28.1885 34 29.57C34 30.6454 33.9286 31.7276 33.9281 31.736C33.9261 31.788 33.9009 32.2453 33.6475 32.3694C33.606 32.3894 33.5623 32.3997 33.5162 32.3997C33.4204 32.3997 33.3138 32.3562 33.1959 32.2695C33.0872 32.1731 22.2651 22.6178 17.9999 22.6178C13.7356 22.6178 2.91337 32.1731 2.79897 32.2741C2.68472 32.3575 2.57972 32.4 2.48525 32.4C2.4392 32.4 2.39475 32.3899 2.35367 32.3694C2.09966 32.2453 2.07454 31.788 2.07232 31.7382C2.07148 31.7276 2 30.6454 2 29.57C2 28.1885 3.03694 27.0036 3.08108 26.9544L3.08161 26.9539C3.53196 26.4544 14.1554 14.7327 17.9999 14.7327C21.8452 14.7327 32.4683 26.4544 32.9193 26.9544ZM33.0184 19.7331C33.0337 19.3639 33.0478 18.8964 33.0478 18.4226C33.0478 17.4106 32.2178 16.4509 32.2105 16.4426C27.9695 11.7427 20.8035 4.79012 18.1384 4.54876C18.0844 4.54308 18.0002 4.54838 18.0002 4.54838C18.0017 7.75739 18.1084 7.60706 16.2157 8.40689C16.0209 8.48901 9.67393 11.1717 3.62015 16.6552C2.88441 17.4869 2.95261 18.3188 2.95261 18.3188C2.95261 18.8218 2.96804 19.1659 2.98476 19.7309C5.77689 17.3373 14.0624 10.5348 18.0002 10.5348C21.936 10.5348 30.2274 17.3417 33.0184 19.7331ZM32.9045 15.8094C32.9482 15.8587 33.9839 17.0423 33.9839 18.4226C33.9839 19.4969 33.9128 20.5781 33.9122 20.5864C33.9103 20.6384 33.8851 21.0952 33.6319 21.2192C33.5904 21.2392 33.5467 21.2493 33.5006 21.2493C33.4051 21.2493 33.2985 21.2062 33.1808 21.1196C33.0722 21.0228 22.2608 11.4772 18 11.4772C13.7398 11.4772 2.9284 21.0228 2.81431 21.124C2.70014 21.2075 2.59528 21.2496 2.50081 21.2496C2.45476 21.2496 2.41047 21.2394 2.36923 21.2192C2.11553 21.0952 2.09063 20.6384 2.08834 20.5886C2.08758 20.5781 2.01595 19.4969 2.01595 18.4226C2.01595 17.0423 3.05189 15.8587 3.09611 15.8094L3.09664 15.8089C3.54646 15.3102 14.1592 3.59998 18 3.59998C21.8415 3.59998 32.4536 15.3102 32.9045 15.8094Z" fill="#262625"/>
</svg>
