<svg width="36" height="36" viewBox="0 0 36 36" fill="none" xmlns="http://www.w3.org/2000/svg">
<path d="M26.93 11.6312C25.3488 12.4051 23.7677 13.1791 22.1865 13.9526H22.1854C23.1495 14.3214 24.1131 14.6917 25.0762 15.0633C25.6728 15.2932 26.3804 15.5819 26.6407 16.2867C26.9083 17.0104 26.5147 17.6561 26.167 18.2006C25.6406 19.0249 25.1143 19.8492 24.588 20.673C22.7156 23.6053 20.8419 26.5376 18.9622 29.4655C18.9588 28.5617 18.9568 27.6572 18.955 26.7532V26.7516C19.6737 24.4911 20.3752 22.2254 21.0519 19.9515C21.2438 19.3058 21.4339 18.6596 21.6213 18.0127C21.7341 17.623 21.6612 17.3897 21.2862 17.2039C20.3287 16.7313 19.3706 16.2591 18.4119 15.7876C17.4538 16.2591 16.4958 16.7313 15.5377 17.2039C15.1629 17.3897 15.0899 17.623 15.2026 18.0127C15.3906 18.6596 15.5803 19.3058 15.7726 19.9515C16.4487 22.2254 17.1504 24.4909 17.8696 26.7516L17.8691 26.7532C17.8675 27.6571 17.8652 28.5615 17.8618 29.4655C15.9822 26.5376 14.1091 23.6053 12.2361 20.673C11.7097 19.8492 11.1834 19.0249 10.6577 18.2006C10.31 17.6561 9.91574 17.0104 10.1833 16.2867C10.4443 15.5819 11.1514 15.2932 11.7478 15.0633C12.711 14.6917 13.6746 14.3213 14.6387 13.9526H14.6382C13.0565 13.1791 11.4753 12.4051 9.89421 11.6312L9.89196 11.6289C10.3857 12.4548 10.8782 13.2813 11.3708 14.1078C10.5554 14.4207 9.74041 14.7336 8.92561 15.0477C7.21374 12.3666 5.50058 9.68577 3.79449 7C8.66173 8.7265 13.5246 10.4663 18.4123 12.1348C23.3006 10.4663 28.1628 8.7265 33.0307 7C31.3246 9.68577 29.6108 12.3666 27.8986 15.0478C27.0843 14.7338 26.2689 14.4209 25.4534 14.108C25.946 13.2815 26.4392 12.4549 26.9323 11.6291" fill="#262625"/>
</svg>
