<svg width="36" height="36" viewBox="0 0 36 36" fill="none" xmlns="http://www.w3.org/2000/svg">
<g clip-path="url(#clip0_442_18480)">
<path d="M17.1154 31.1463C14.3484 30.9999 12.4392 30.4332 11.2405 29.4036C9.17881 27.6313 8.0028 25.1154 5.98552 18.1596C5.71528 17.2285 5.418 16.2234 5.32385 15.9252C4.7049 13.9646 3.80959 10.2003 3.25689 7.23369C3.18715 6.86144 3.11392 6.47612 3.09212 6.37587C2.991 5.89552 3.19761 5.51456 3.64482 5.35677C4.71274 4.98017 17.9157 4.69335 24.4888 4.90432C25.0982 4.9235 26.1443 4.95663 26.8138 4.97755C29.4527 5.0595 31.9991 5.22862 32.3653 5.34631C32.7436 5.46748 32.999 5.91121 32.918 6.30351C32.897 6.40376 32.8142 6.85011 32.734 7.29558C31.5022 14.1024 28.3542 24.4023 26.6534 27.1867C25.8758 28.4604 24.7573 29.5858 23.7687 30.0906C22.3417 30.8194 19.4918 31.2718 17.1163 31.1463H17.1154ZM19.5494 28.334C22.3608 28.0908 23.9291 27.0725 25.2821 24.6107C25.9534 23.3884 27.4502 19.6302 28.5949 16.2931C30.008 12.1714 31.884 5.54246 31.6757 5.40995C31.5318 5.31928 31.415 5.39077 31.3741 5.59563C30.9356 7.77157 29.7343 11.44 28.9183 13.0963C27.9157 15.1328 26.2899 17.3828 24.9979 18.5214L24.6893 18.7933L24.2142 19.9763C22.0775 25.302 21.7201 25.6271 18.0055 25.6271C14.3161 25.6271 13.8698 25.2261 11.8316 20.0696C11.6259 19.55 11.4306 19.0496 11.3966 18.9581C11.3521 18.8387 11.2841 18.7524 11.1595 18.6573C10.3435 18.0349 8.58601 15.7901 7.6724 14.2044C6.61407 12.3658 5.54964 9.41834 4.79992 6.24946C4.57936 5.31841 4.60028 5.37159 4.46429 5.38467C4.25419 5.40472 4.3466 5.92778 4.93156 8.03659C6.65156 14.2288 8.19459 18.7872 9.99479 22.9953C10.9773 25.2915 11.8264 26.4745 13.0904 27.307C14.0276 27.9243 14.9177 28.1849 16.6429 28.3479C16.955 28.3776 19.1719 28.3671 19.5485 28.3349L19.5494 28.334ZM19.6217 25.4423C21.1543 25.2453 21.9119 24.6699 22.6912 23.1112C22.9894 22.5149 24.2901 19.3687 24.4348 18.8936L24.4618 18.8056L23.7766 18.8291C23.4 18.8422 22.625 18.8727 22.0557 18.8971C20.6836 18.9555 15.3893 18.9555 13.9919 18.8971C13.4026 18.8727 12.611 18.8422 12.2335 18.8291L11.5474 18.8056L11.5718 18.9032C11.5989 19.0122 12.4758 21.2125 12.8429 22.0921C13.6632 24.0606 14.3406 24.8922 15.3902 25.2209C16.3081 25.5086 18.2975 25.6123 19.6217 25.4423ZM22.6189 18.694C23.3381 18.6635 24.1113 18.6286 24.3371 18.6155L24.7477 18.592L24.9674 18.3888C25.5811 17.8205 26.6988 16.4622 27.4389 15.3847C28.9566 13.1765 30.0882 10.3616 31.1247 6.21895C31.361 5.27482 31.3906 5.36026 30.8161 5.32887C22.8325 4.88427 13.8236 4.86335 6.34557 5.26959C5.9864 5.28877 5.48339 5.3158 5.22883 5.32887C4.63603 5.35938 4.66218 5.29749 4.87925 6.16054C6.33336 11.9491 7.96618 15.2452 10.8177 18.15L11.2501 18.5902L11.5954 18.6129C11.9188 18.6338 14.446 18.7315 15.3727 18.7585C16.4215 18.789 21.4115 18.7445 22.6197 18.694H22.6189ZM8.44827 12.5524C8.40556 12.521 8.39858 12.2559 8.40643 10.8986L8.41602 9.28235L9.70537 9.27189C10.5545 9.26491 11.0697 9.27537 11.2127 9.3024C12.9187 9.62321 13.019 12.0633 11.3443 12.5114C11.0278 12.5959 8.55463 12.6326 8.44828 12.5532L8.44827 12.5524ZM10.9572 11.6876C11.5186 11.3694 11.4585 10.3014 10.8674 10.1027C10.687 10.0425 9.5929 10.0469 9.55368 10.1079C9.51968 10.1611 9.5127 11.6265 9.54583 11.7128C9.58506 11.8157 10.768 11.7948 10.9572 11.6876ZM12.4819 12.5585C12.4541 12.4852 13.1375 10.9579 13.6362 9.97889C13.9361 9.38957 14.1523 9.26491 14.8819 9.25881C15.8391 9.25097 15.8391 9.25183 17.0012 11.827C17.3874 12.684 17.4135 12.6055 16.7432 12.6047C16.0963 12.6038 16.139 12.6212 15.9838 12.2961L15.8627 12.0415H13.9378L13.6475 12.5864L13.0747 12.5959C12.6197 12.6038 12.4976 12.5959 12.4828 12.5567L12.4819 12.5585ZM15.4651 11.2944C15.4965 11.2438 14.936 10.0992 14.8802 10.0992C14.8296 10.0992 14.2743 11.256 14.3022 11.3014C14.3318 11.3502 15.4346 11.3432 15.4643 11.2944L15.4651 11.2944ZM18.5503 12.5663C17.254 12.378 16.7222 10.7077 17.6603 9.76792C18.1101 9.31722 18.3585 9.25968 19.8118 9.27276L20.912 9.28235V10.0451L18.8302 10.0818L18.6933 10.1925C18.2565 10.5464 18.294 11.399 18.7596 11.6806C18.8685 11.746 18.9653 11.7538 19.8955 11.7704L20.9128 11.7887V12.5881L19.8414 12.5933C19.2521 12.5959 18.6715 12.5837 18.5521 12.5663L18.5503 12.5663ZM21.4429 12.5576C21.4123 12.521 21.4036 12.0729 21.4106 10.8951L21.4202 9.28322H22.51V12.589L21.9974 12.5994C21.5946 12.6073 21.476 12.5985 21.4429 12.5593L21.4429 12.5576ZM22.8752 12.5733C22.8255 12.4931 24.1052 9.75659 24.2848 9.56044C24.6797 9.12804 25.9804 9.15507 26.3213 9.60229C26.527 9.87253 27.7492 12.521 27.6934 12.5768C27.676 12.5942 27.4101 12.6038 27.1015 12.5977L26.541 12.5872L26.2507 12.0424H24.3258L24.2081 12.2743C24.0285 12.6273 24.08 12.6055 23.4514 12.6055C23.1454 12.6055 22.8856 12.5907 22.8743 12.5724L22.8752 12.5733ZM25.8697 11.2796C25.8697 11.1976 25.3353 10.0992 25.2952 10.0992C25.2394 10.0992 25.2037 10.162 24.9491 10.7059C24.6266 11.3946 24.5934 11.3345 25.2882 11.3345C25.7825 11.3345 25.8697 11.3266 25.8697 11.2796Z" fill="#262625" stroke="#262625" stroke-width="0.871769"/>
</g>
<defs>
<clipPath id="clip0_442_18480">
<rect width="30" height="30" fill="white" transform="translate(3 3)"/>
</clipPath>
</defs>
</svg>
