<svg width="36" height="36" viewBox="0 0 36 36" fill="none" xmlns="http://www.w3.org/2000/svg">
<path d="M22.2167 30.4333C21.4389 21.4444 27.3611 14.1611 33.8389 13.3056C37.8 21.3222 30.4389 28.9833 22.2167 30.4333Z" fill="#262625"/>
<path d="M29.1667 7.97778C30.1444 8.58889 31.6889 10.0611 32.2278 10.7778C23.95 15.1889 21.4056 23.2556 21.6222 30.5278C21.2667 30.5944 20.8667 30.6222 20.5389 30.6833C19.9167 20.2 24.5333 12.6556 29.1667 7.97778Z" fill="#262625"/>
<path d="M22.6889 5.1611C23.8722 5.37221 25.6389 5.99999 26.6111 6.5111C21.9889 15.45 19.6833 20.5111 20.0167 30.7444L18.9556 30.8111C19.0444 16.4278 20.3667 13.5555 22.6889 5.1611Z" fill="#262625"/>
<path d="M19.9111 4.73333C18.7222 4.62222 17.3667 4.58333 15.9611 4.69444C17.2222 13.4444 17.3667 17.15 17.6056 30.8278C17.9056 30.8333 18.1167 30.8333 18.4833 30.8167C18.4278 17.2278 18.7222 13.5611 19.9111 4.73333Z" fill="#262625"/>
<path d="M13.3056 5.1611C12.1222 5.37221 10.3611 5.99999 9.38889 6.5111C14.0056 15.45 16.3167 20.5111 15.9778 30.7444L17.0444 30.8111C16.9556 16.4278 15.6333 13.5555 13.3056 5.1611Z" fill="#262625"/>
<path d="M6.83888 7.97778C5.8611 8.58889 4.32222 10.0611 3.77777 10.7778C12.0555 15.1889 14.5944 23.2556 14.3778 30.5278C14.7389 30.5944 15.1444 30.6222 15.4667 30.6833C16.0833 20.2 11.4778 12.6556 6.83888 7.97778Z" fill="#262625"/>
<path d="M13.7833 30.4333C14.5556 21.4444 8.63889 14.1611 2.16667 13.3056C-1.80555 21.3222 5.56111 28.9833 13.7833 30.4333Z" fill="#262625"/>
</svg>
