<svg width="36" height="36" viewBox="0 0 36 36" fill="none" xmlns="http://www.w3.org/2000/svg">
<path fill-rule="evenodd" clip-rule="evenodd" d="M10.1707 12.274C17.6827 12.274 28.2196 12.9551 33.1951 14.9987C33.683 15.1934 34.0244 15.3392 34.0244 15.6798C34.0244 16.1662 33.0001 16.4582 32.0733 16.7501C28.366 17.9181 21.7804 19.2801 12.0733 19.9617L3.14633 11.009C2.26825 11.009 1.53664 11.0578 1 11.1062L10.2684 20.3509L7.73167 24C22.7074 21.6159 29.4881 19.2803 32.5125 17.9181C33.1466 17.5775 35 16.7987 35 15.6798C35 14.9985 34.3659 14.6093 33.5857 14.2687C30.4636 12.9551 25.2927 12.0791 20.1707 11.6413C14.8537 11.106 7.78042 10.9601 3.87795 11.0088L12.2195 19.329C13.8292 19.2315 15.3902 19.0854 16.8536 18.9396L10.1707 12.274Z" fill="#262625"/>
</svg>
