<svg width="36" height="36" viewBox="0 0 36 36" fill="none" xmlns="http://www.w3.org/2000/svg">
<path d="M19.552 3.12864C18.9286 3.05171 18.2654 2.99998 17.6154 2.99998C17.6022 2.99998 17.5889 2.99998 17.5756 3.0013C16.9124 2.99998 16.2758 3.03844 15.6259 3.12731C8.55624 4.07966 3.05176 10.1665 3.05176 17.4881C3.05176 24.8231 8.55624 30.9086 15.6259 31.8476C16.2758 31.9392 16.9124 31.975 17.5756 31.9736C17.5889 31.975 17.6022 31.975 17.6154 31.975C18.2654 31.975 18.9286 31.9378 19.552 31.8476C26.6348 30.8688 32.1128 24.7965 32.1128 17.4881C32.1128 10.1797 26.6348 4.10619 19.552 3.12864ZM15.6259 4.94314C16.2758 4.85294 16.9124 4.79989 17.5756 4.80121C17.5889 4.80121 17.6022 4.80121 17.6154 4.79989C18.2654 4.80121 18.9153 4.85162 19.552 4.95508C23.7035 5.59838 27.2052 8.27503 29.0091 11.904C28.5581 14.0395 27.1256 16.1246 25.5737 17.5518C25.5605 13.0739 23.173 9.26717 19.552 7.27228C18.9286 6.93803 18.2919 6.65285 17.6154 6.42339C16.9788 6.21647 16.3156 6.04935 15.6259 5.94589C14.6045 5.7907 13.5567 5.7655 12.4558 5.86896C13.4506 5.43125 14.525 5.11159 15.6259 4.94314ZM21.3691 17.6035C21.3691 18.5055 21.3293 19.3928 21.1303 20.2431C20.8518 21.466 20.2815 22.6611 19.552 23.754C18.9949 24.6175 18.3184 25.4001 17.6287 26.0964C17.6154 26.0951 17.6154 26.0845 17.6154 26.0845C16.8461 25.3762 16.1829 24.5644 15.6259 23.6784C14.4984 21.8612 13.8352 19.7258 13.8352 17.4351C13.8352 16.5358 13.9414 15.6617 14.1536 14.8115C14.4321 13.5633 14.9494 12.3921 15.6259 11.3257C16.1962 10.4636 16.8594 9.66509 17.6154 8.94486C18.3582 9.66509 19.0081 10.4636 19.552 11.3377C20.6926 13.1641 21.3691 15.3129 21.3691 17.6035ZM4.84236 17.4881C4.84236 12.3921 7.89306 7.97925 12.2569 5.95915C13.4506 6.26953 14.6045 6.7709 15.6259 7.41288C16.2758 7.81212 16.8727 8.27503 17.4297 8.77641C16.8196 8.791 16.2227 8.84273 15.6259 8.94353C9.07353 10.0378 4.72299 16.3806 6.04937 22.8799C5.28007 21.2458 4.84236 19.418 4.84236 17.4881ZM19.552 30.0345C18.9153 30.1233 18.2654 30.1751 17.6154 30.1883C17.6022 30.191 17.5889 30.191 17.5756 30.191C16.9124 30.191 16.2758 30.1366 15.6259 30.0358C11.5008 29.4031 8.02568 26.7782 6.20853 23.1863C6.72582 20.9368 7.98589 18.9551 9.65714 17.4364C9.6704 21.9156 12.0314 25.725 15.6259 27.7173C16.2625 28.0528 16.9124 28.3486 17.6154 28.5662C18.2256 28.7863 18.8888 28.9402 19.552 29.0437C20.56 29.1829 21.5946 29.2214 22.6689 29.1193C21.6874 29.545 20.6529 29.8541 19.552 30.0345ZM22.8944 29.0171C21.7007 28.7094 20.5865 28.2186 19.552 27.5886C18.9153 27.1907 18.3051 26.7264 17.7348 26.2118C18.1195 26.2264 18.7694 26.1866 19.552 26.0447C23.2526 25.3629 30.2028 22.4289 29.2478 12.4173C29.9243 13.9759 30.3089 15.6869 30.3089 17.4881C30.3089 22.5815 27.2582 26.9984 22.8944 29.0171Z" fill="#262625"/>
</svg>
