<svg width="36" height="36" viewBox="0 0 36 36" fill="none" xmlns="http://www.w3.org/2000/svg">
<path d="M13.8676 7V15.4118C10.2926 15.4118 9.16029 15.7029 9.16029 15.7029C9.16029 15.7029 2.49559 16.5441 2.39853 22.1735L2.41471 22.7559C2.54412 25.2471 3.56323 26.25 3.56323 26.25C4.42059 27.2853 5.58529 28.0132 6.89559 28.3529C6.89559 28.3529 8.35147 28.8059 11.1824 28.9515L13.8838 29H17.7662V7H13.8676ZM13.8515 26.3471H11.9103C9.62941 26.3794 7.05735 26.0074 6.53971 23.3706L6.49118 23.0956L6.475 22.8691C6.32941 20.3941 8.01176 19.0029 10.1794 18.4368L10.325 18.4044C11.3926 18.1779 12.4926 18.0647 13.5765 18.0809H13.8515V26.3471ZM23.4441 10.5103L22.7324 10.85V7H18.8338V29H22.7485V18.8735C22.7485 17.5794 22.8456 16.2044 23.5412 15.0721L23.7191 14.8294C23.7191 14.8294 25.6118 11.7882 32.1309 12.9368L32.7941 13.0824L33.4412 13.2603L34.2015 9.62059L33.4412 9.44265C30.0765 8.73088 26.5824 9.10294 23.4441 10.5103Z" fill="#262625"/>
</svg>
