<svg width="36" height="36" viewBox="0 0 36 36" fill="none" xmlns="http://www.w3.org/2000/svg">
<path d="M30.6764 23.0683C30.0152 22.4352 27.7079 20.2405 25.9915 17.7925L25.9493 17.7222L25.9634 17.7362C25.2458 16.7092 24.6409 15.64 24.3032 14.613C24.0781 13.9377 23.9515 13.2202 23.9374 12.5026C23.9515 11.8977 24.0641 11.2927 24.3032 10.73C24.5143 10.1813 24.8378 9.61853 25.2177 9.05578V9.04171C25.7805 8.23979 26.4698 7.45193 27.1733 6.73442C27.6797 6.21388 29.8604 4.08949 30.5779 3.38604C30.7327 3.21722 30.8452 3.02026 30.9015 2.79515C30.9437 2.52785 30.9578 2.24647 30.9578 1.97916V1.57117L17.9301 11.7289C17.719 11.8695 17.5643 12.0665 17.4799 12.2916C17.3954 12.0665 17.2407 11.8695 17.0437 11.7289L4.01599 1.57117V23.406L17.0578 13.2483C17.2688 13.1076 17.4236 12.9106 17.508 12.6855C17.5643 12.8544 17.6487 13.0091 17.7894 13.1357C18.732 14.0361 23.023 18.1161 24.1766 21.5911C24.4158 22.2664 24.5424 22.9839 24.5424 23.7014C24.5424 24.3064 24.4158 24.8973 24.1766 25.446C23.6561 26.7684 22.4884 28.1612 21.3066 29.3852C20.8001 29.9058 18.5913 32.0161 17.9019 32.7195C17.7472 32.8743 17.6346 33.0853 17.5783 33.2964C17.5361 33.5918 17.5221 33.9013 17.5221 34.1968V34.6048L30.5498 24.4471C30.803 24.2782 30.9719 23.9969 31 23.6874C30.9859 23.4623 30.8734 23.2231 30.6764 23.0683ZM6.94231 20.4797C5.92935 21.2675 5.16964 21.8865 4.63502 22.2945C4.59281 22.3367 4.59281 22.2242 4.59281 22.1539C4.59281 22.0835 4.59281 21.9991 4.62095 21.9569C5.73239 20.958 10.1219 17.6096 11.4021 14.416C11.9508 13.192 11.9508 11.7851 11.4021 10.5471C10.1359 7.35345 5.74646 4.00507 4.62095 3.00619C4.59281 2.97805 4.59281 2.85143 4.59281 2.80922C4.59281 2.76702 4.59281 2.6404 4.64909 2.6826C5.1837 3.0906 5.92935 3.70963 6.94231 4.49748C8.02561 5.34161 9.03856 6.25608 9.99524 7.2409C11.5991 8.90102 12.8371 10.7018 12.8371 12.4745C12.8371 14.2612 11.6132 16.0621 9.99524 17.7081C9.03856 18.707 8.02561 19.6355 6.94231 20.4797ZM16.6779 13.0795C15.3695 13.9799 13.3999 15.6259 10.7972 17.68C10.7409 17.7222 10.755 17.5674 10.769 17.5111C10.7831 17.4267 10.8112 17.3564 10.8394 17.286C11.782 16.3153 12.5839 15.232 13.217 14.0502C13.6672 13.2061 13.7657 12.6433 14.5676 12.6433H16.8046C17.1563 12.6433 16.8327 12.9528 16.6779 13.0795ZM25.1333 8.12724C24.5002 8.91509 23.9796 9.74515 23.6561 10.5471C23.1074 11.7851 23.1074 13.2061 23.6561 14.4441C24.0781 15.4993 24.6268 16.5123 25.288 17.4408C25.5835 17.8347 25.7101 18.0036 25.9071 18.2709C25.9493 18.3412 25.9915 18.4115 26.0196 18.496L26.0478 18.7492C25.9774 18.707 25.9211 18.6507 25.8508 18.5944C25.6398 18.3975 25.3584 18.1442 25.0207 17.7785C23.3888 16.1465 22.221 14.2472 22.221 12.4886C22.221 10.73 23.445 8.94323 25.0629 7.29718C26.0196 6.32643 27.0467 5.42602 28.1159 4.58189C28.5239 4.25831 28.8756 3.97693 29.2132 3.7237L29.7057 3.35791C29.7338 3.32977 29.7479 3.38605 29.7338 3.40011C29.7479 3.51266 29.7197 3.61115 29.6494 3.69556C29.5368 3.80811 29.4243 3.90659 29.3117 4.00507C28.1018 5.00396 26.4136 6.50932 25.1333 8.12724ZM18.3099 13.0795C18.1552 12.9528 17.8175 12.6293 18.1552 12.6293H20.3218C21.1518 12.6293 21.4613 13.4593 21.8975 14.3035C22.5728 15.429 23.3606 16.4841 24.261 17.4267C24.3454 17.5393 24.4017 17.68 24.4298 17.8207C24.458 17.9051 24.4299 17.9332 24.3454 17.8629C21.6583 15.9073 18.8023 13.4875 18.3099 13.0795ZM21.2503 30.3841C21.1237 30.4967 21.0252 30.567 21.0393 30.4826C21.0393 30.3982 21.0393 30.2153 21.1096 30.1449C22.6853 28.5974 24.247 26.8669 24.8097 25.5022C25.0629 24.9254 25.2036 24.3205 25.2177 23.6874C25.2177 23.0121 25.1052 22.3508 24.8801 21.7177C24.3595 20.2405 23.2059 18.6366 22.01 17.2438C21.7146 16.8921 21.4613 16.5967 21.3628 16.4841C21.3347 16.4419 21.3347 16.4138 21.3628 16.4138C21.4473 16.4138 21.5317 16.456 21.602 16.5123C21.6302 16.5404 21.9678 16.8921 22.1507 17.0891C22.5306 17.483 22.8964 17.9332 23.2903 18.3834C24.7112 20.0576 25.9634 21.9006 25.9634 23.7014C25.9634 25.3475 24.7956 26.9795 23.2481 28.4989C22.8963 28.8788 22.1788 29.5681 21.2503 30.3841ZM30.1137 24.3205C28.6364 25.3615 26.4136 27.1764 23.445 29.5259C23.3606 29.5963 23.3747 29.3993 23.3747 29.343C23.3747 29.2727 23.3888 29.2023 23.431 29.1461C24.5143 28.0346 25.4287 26.7966 26.1744 25.4319C26.6809 24.4752 26.8075 23.828 27.736 23.828H30.2684C30.6483 23.8421 30.2825 24.2079 30.1137 24.3205Z" fill="#262625"/>
</svg>
