<svg width="36" height="36" viewBox="0 0 36 36" fill="none" xmlns="http://www.w3.org/2000/svg">
<path d="M33.104 6.032C31.856 5.72 30.6 5.448 29.32 5.312C28.072 5.176 26.832 4.976 25.576 4.92C23.728 4.8 21.888 4.68 20.04 4.696C18.6 4.648 17.168 4.68 15.728 4.72C13.768 4.728 11.808 4.896 9.848 5.008C7.544 5.248 5.232 5.424 2.96 5.92C2.096 9.256 1.808 12.848 2.8 16.184C3.848 19.424 6.008 22.168 8.416 24.512C11.08 27.12 14.184 29.296 17.608 30.776C17.712 30.808 17.824 30.896 17.928 30.824C21 29.384 23.952 27.624 26.48 25.336C28.112 23.904 29.616 22.312 30.856 20.528C32.44 18.32 33.424 15.688 33.688 12.984C33.928 10.664 33.704 8.296 33.104 6.032ZM31.552 17.928C29.8 21.336 27.04 24.12 23.992 26.4C22.952 27.16 21.872 27.88 20.744 28.496C19.816 29.024 18.888 29.56 17.888 29.944C15.296 28.968 12.992 27.368 10.864 25.632C9.312 24.328 7.824 22.928 6.56 21.328C5.008 19.416 3.776 17.192 3.288 14.76C2.768 12.064 2.944 9.256 3.688 6.624C5.8 6.16 7.968 5.992 10.112 5.76C11.512 5.664 12.912 5.584 14.32 5.496C15.976 5.48 17.64 5.4 19.296 5.424C20.424 5.456 21.544 5.44 22.672 5.488C23.84 5.56 25.016 5.624 26.184 5.696C28.072 5.928 29.984 6.064 31.832 6.536C32.032 6.6 32.28 6.592 32.448 6.728C33.376 10.424 33.216 14.48 31.552 17.928Z" fill="#262625"/>
<path d="M16.392 6.616C16.36 6.272 16.72 5.992 17.04 5.968C18.176 5.96 19.312 5.968 20.448 5.968C20.448 6.104 20.448 6.248 20.448 6.384C19.688 6.392 18.928 6.392 18.168 6.384C18.016 6.392 17.856 6.376 17.72 6.44C17.584 6.624 17.648 6.872 17.632 7.08C17.632 7.232 17.608 7.496 17.816 7.512C18.248 7.536 18.672 7.512 19.104 7.52C19.224 7.504 19.376 7.544 19.472 7.448C19.544 7.344 19.536 7.208 19.568 7.088C19.064 7.072 18.568 7.08 18.072 7.08C18.072 6.944 18.08 6.816 18.08 6.68C18.872 6.68 19.672 6.68 20.464 6.68C20.464 6.976 20.512 7.272 20.432 7.56C20.32 7.864 19.984 8.016 19.68 8C18.8 8 17.92 8 17.04 8C16.776 8.016 16.52 7.872 16.408 7.632C16.368 7.304 16.392 6.96 16.392 6.616Z" fill="#262625"/>
<path d="M21.704 5.968C22.16 5.968 22.616 5.968 23.072 5.968C23.072 6.344 23.064 6.72 23.072 7.104C23.072 7.272 23.128 7.448 23.256 7.552C23.88 7.648 24.52 7.592 25.152 7.608C25.152 7.776 25.16 7.944 25.16 8.112C24.264 8.104 23.368 8.048 22.464 8.032C22.168 8.024 21.776 7.904 21.712 7.568C21.688 7.032 21.712 6.496 21.704 5.968Z" fill="#262625"/>
<path d="M7.016 6.576C8.16 6.48 9.304 6.368 10.448 6.28C10.432 6.424 10.416 6.568 10.392 6.712C9.552 6.792 8.72 6.84 7.88 6.912C7.696 6.904 7.632 7.088 7.616 7.24C8.368 7.176 9.12 7.088 9.88 7.024C9.88 7.168 9.88 7.304 9.888 7.448C9.152 7.536 8.416 7.584 7.68 7.664C7.464 7.672 7.472 7.912 7.464 8.072C8.4 7.984 9.336 7.872 10.28 7.784C10.256 7.952 10.232 8.12 10.208 8.28C8.96 8.416 7.712 8.56 6.472 8.68C6.24 8.72 5.944 8.664 5.888 8.4C5.832 8.032 5.936 7.656 6.016 7.304C6.136 6.864 6.576 6.592 7.016 6.576Z" fill="#262625"/>
<path d="M25.96 6.60799C26.032 6.28799 26.432 6.27199 26.696 6.29599C27.824 6.43999 28.944 6.60799 30.064 6.75199C30.064 6.88799 30.072 7.03199 30.072 7.16799C29.256 7.05599 28.448 6.93599 27.632 6.83999C27.384 6.74399 27.344 7.14399 27.584 7.12799C28.272 7.23199 28.968 7.32799 29.656 7.42399C29.656 7.51999 29.656 7.71199 29.656 7.80799C28.976 7.72799 28.296 7.61599 27.616 7.55199C27.448 7.51999 27.384 7.79199 27.504 7.87999C27.632 7.95999 27.784 7.95999 27.928 7.98399C28.72 8.08799 29.512 8.21599 30.304 8.31999C30.312 8.46399 30.312 8.60799 30.32 8.75199C28.992 8.58399 27.672 8.42399 26.344 8.24799C26.128 8.23999 25.96 8.05599 25.96 7.83999C25.944 7.43199 25.928 7.01599 25.96 6.60799Z" fill="#262625"/>
<path d="M15.224 6.528C15.24 6.224 14.88 6.064 14.616 6.08C13.808 6.088 13 6.128 12.192 6.2C11.872 6.248 11.48 6.44 11.448 6.8C11.392 7.256 11.36 7.712 11.304 8.168C11.592 8.176 11.872 8.176 12.16 8.176C12.16 7.96 12.16 7.736 12.16 7.52C12.8 7.48 13.44 7.472 14.08 7.464C14.08 7.664 14.08 7.856 14.08 8.056C14.464 8.056 14.848 8.056 15.232 8.056C15.224 7.544 15.224 7.032 15.224 6.528ZM14.048 7.064C13.432 7.072 12.816 7.096 12.2 7.112C12.216 6.984 12.224 6.856 12.24 6.728C12.392 6.64 12.544 6.504 12.736 6.528C13.112 6.528 13.496 6.496 13.872 6.488C14.152 6.512 14.016 6.872 14.048 7.064Z" fill="#262625"/>
<path d="M15.456 8.664C17.296 8.624 19.136 8.6 20.976 8.56C22.128 8.6 23.288 8.648 24.44 8.696C25.504 8.792 26.568 8.872 27.632 8.976C29.008 9.168 30.392 9.296 31.744 9.624C31.968 11.08 32 12.584 31.728 14.04C31.48 15.472 30.944 16.84 30.2 18.088C28.568 20.736 26.416 23.056 23.976 24.976C22.104 26.488 20.064 27.808 17.904 28.872C16.976 28.336 16.04 27.808 15.12 27.272C14.872 27.136 14.784 26.84 14.792 26.576C14.8 26.056 14.88 25.536 15.008 25.032C15.32 23.552 15.76 22.072 16.6 20.8C17.208 19.88 18.096 19.088 19.192 18.832C21.376 18.296 23.624 18.104 25.864 17.896C26.032 17.88 26.2 17.848 26.36 17.808C25.496 17.8 24.64 17.64 23.784 17.56C23.032 17.464 22.272 17.48 21.52 17.384C21.432 17.248 21.656 17.184 21.736 17.12C22.576 16.616 23.496 16.296 24.4 15.936C25.328 15.616 26.264 15.32 27.24 15.192C27.704 15.128 28.248 15.248 28.52 15.664C28.832 16.128 28.76 16.712 28.728 17.248C29.112 16.96 29.312 16.52 29.512 16.096C29.832 15.344 30.104 14.552 30.192 13.736C30.256 13.088 29.928 12.344 29.28 12.128C28.456 11.888 27.6 11.824 26.752 11.712C25.832 11.624 24.912 11.552 23.992 11.528C23.256 11.464 22.664 10.968 22 10.696C20.896 10.44 19.752 10.544 18.632 10.544C17.384 10.576 16.144 10.6 14.896 10.632C12.768 10.64 10.648 10.84 8.52 10.944C7.392 11.048 6.264 11.184 5.136 11.304C4.808 11.32 4.456 11.408 4.136 11.288C3.952 10.984 4.096 10.616 4.088 10.288C4.12 10.048 4.088 9.68 4.384 9.592C4.84 9.448 5.328 9.424 5.808 9.344C7.944 9.024 10.104 8.92 12.264 8.768C13.328 8.664 14.392 8.712 15.456 8.664Z" fill="#262625"/>
<path d="M6.64 12.288C10.064 11.832 13.504 11.536 16.952 11.48C17.568 11.52 18.224 11.416 18.808 11.696C19.336 11.968 19.824 12.304 20.336 12.6C20.664 12.792 21.096 12.792 21.416 12.584C21.776 12.368 21.968 11.968 22.072 11.576C22.488 11.904 22.968 12.184 23.512 12.216C24.952 12.336 26.4 12.408 27.84 12.56C28.336 12.616 28.848 12.64 29.32 12.816C29.648 12.944 29.696 13.344 29.696 13.648C29.672 14.392 29.456 15.12 29.112 15.776C29 15.472 28.856 15.144 28.568 14.968C28.016 14.608 27.32 14.632 26.704 14.776C25.264 15.088 23.864 15.552 22.48 16.064C20.504 16.792 18.536 17.728 17.04 19.248C16.52 19.768 16.08 20.352 15.648 20.944C14.656 22.528 14.112 24.336 13.552 26.104C13.2 26.024 12.848 25.856 12.648 25.544C12.44 25.232 12.44 24.824 12.536 24.472C12.72 23.76 12.976 23.072 13.104 22.352C12.768 22.928 12.528 23.552 12.168 24.112C12.008 24.36 11.696 24.6 11.392 24.44C11.168 24.32 10.84 24.24 10.784 23.952C10.776 23.664 10.88 23.384 10.984 23.12C11.24 22.48 11.528 21.864 11.792 21.224C11.304 21.776 10.936 22.416 10.488 23C10.248 23.328 9.76 23.24 9.496 22.992C9.2 22.76 9.088 22.312 9.28 21.976C9.72 21.208 10.328 20.552 10.784 19.792C10.08 20.312 9.464 20.944 8.768 21.48C8.6 21.616 8.352 21.64 8.176 21.496C7.848 21.232 7.472 20.784 7.736 20.352C8.296 19.576 9.096 19.032 9.76 18.36C9.032 18.728 8.384 19.224 7.696 19.664C7.44 19.824 7.048 19.92 6.808 19.68C6.56 19.432 6.296 19.16 6.208 18.808C6.152 18.48 6.448 18.256 6.672 18.08C7.384 17.56 8.16 17.136 8.896 16.664C8.032 16.904 7.2 17.256 6.376 17.616C6.088 17.76 5.72 17.768 5.472 17.544C5.144 17.232 4.92 16.76 5 16.296C5.032 16.088 5.248 15.984 5.416 15.888C6.392 15.392 7.448 15.072 8.456 14.64C7.408 14.736 6.368 14.928 5.336 15.16C5.032 15.248 4.656 15.168 4.48 14.888C4.224 14.464 4.216 13.96 4.144 13.48C4.096 13.184 4.2 12.84 4.488 12.712C5.16 12.384 5.92 12.392 6.64 12.288Z" fill="#262625"/>
</svg>
