<svg width="36" height="36" viewBox="0 0 36 36" fill="none" xmlns="http://www.w3.org/2000/svg">
<path d="M15.1066 3.04283C17.1488 2.97806 19.1902 2.9868 21.2298 3.06874C21.6696 3.10682 22.1076 3.16689 22.5412 3.25013C22.7318 3.25166 22.9292 3.20468 23.1068 3.31998C23.1109 3.32183 23.1161 3.32244 23.1203 3.32449L23.1101 3.32899C23.1109 3.33013 23.1116 3.33126 23.1124 3.33237L23.4864 3.3504C23.4899 3.35213 23.4942 3.35221 23.4977 3.35378C23.4944 3.35092 23.4897 3.34895 23.4864 3.34589C23.6566 3.31491 23.8323 3.33981 23.9878 3.41574L24.2018 3.43715C24.4142 3.46689 24.6225 3.52199 24.8226 3.60051C24.8593 3.57448 24.9002 3.55482 24.9443 3.54531C24.9918 3.53505 25.0411 3.53567 25.0885 3.54643C25.2303 3.58236 25.3772 3.59831 25.5234 3.59262C25.7216 3.60647 25.9374 3.59261 26.0563 3.81457C26.1336 3.89578 26.2569 3.82829 26.3402 3.89569L26.5103 3.91935C26.5757 3.95702 26.6578 3.95094 26.7232 3.99258C27.3754 4.29784 28.0552 4.54395 28.6678 4.93444C29.3942 5.42194 30.0508 6.0066 30.6191 6.6717C30.8313 7.05436 31.1271 7.38763 31.2996 7.79608C31.3018 7.80201 31.3022 7.80842 31.3041 7.8141C31.3786 7.90931 31.4344 8.01707 31.4663 8.13294L31.4911 8.25799L31.5767 8.38643C31.5799 8.38934 31.5819 8.39352 31.5846 8.39657C31.6139 8.41625 31.6377 8.44381 31.6511 8.47656C31.6656 8.51222 31.6676 8.55196 31.6579 8.58922L31.6703 8.74019C31.6569 8.74232 31.6431 8.74196 31.6297 8.74357C31.643 8.75172 31.6572 8.75858 31.6703 8.76723C31.7904 8.92788 31.8579 9.12214 31.8629 9.32266C31.8617 9.32761 31.8596 9.33248 31.8584 9.3373C31.8609 9.33623 31.8638 9.33618 31.8663 9.33505C31.9811 9.40249 31.9501 9.53284 31.9778 9.62797C31.9699 9.70577 31.9699 9.78452 31.9778 9.86231C32.1049 10.6635 32.0368 11.4837 31.7795 12.253C31.7701 12.2947 31.7648 12.3376 31.7638 12.3803C31.442 13.1042 31.0625 13.8014 30.6293 14.4646C30.5827 14.5476 30.514 14.6163 30.431 14.6629L30.4276 14.6618C30.2902 14.8376 30.1928 15.0553 29.9623 15.1439V15.1406C29.8658 15.2907 29.7311 15.4113 29.5713 15.491C29.5742 15.4944 29.5775 15.4976 29.5804 15.5011C29.5399 15.5011 29.4871 15.512 29.4474 15.5124C29.1553 15.6821 28.3381 16.1432 28.2374 16.2244C27.9484 16.4574 27.7371 16.5767 27.4882 16.7066C27.4926 16.7056 27.4974 16.7065 27.5017 16.7055C27.3865 16.8767 27.2089 16.9953 27.0071 17.0378L27.0083 17.0401L26.6252 17.2203L26.6241 17.2181C26.1421 17.4838 25.6401 17.7119 25.1223 17.8986C25.1198 17.8998 25.1168 17.8997 25.1144 17.9008L25.0502 17.9605C24.9791 18.0079 24.8909 18.0235 24.8136 18.0709C24.8125 18.0728 24.8091 18.0737 24.808 18.0754H24.8113C24.7978 18.1143 24.7694 18.1462 24.7325 18.1644C24.6954 18.1826 24.6522 18.1856 24.6131 18.1723C24.6146 18.1704 24.616 18.1685 24.6176 18.1667L24.6153 18.1678L24.5432 18.1825L24.5421 18.1813V18.1825C24.3616 18.3292 24.1842 18.468 23.9224 18.3808C23.7263 18.3163 23.5729 18.4603 23.3929 18.4709C23.1967 18.5139 23.031 18.6679 22.8206 18.6523C22.8208 18.6541 22.8203 18.6561 22.8206 18.6579L22.6617 18.7717C22.6582 18.7707 22.655 18.7684 22.6516 18.7672L22.575 18.819C22.3877 18.9246 22.1583 18.9345 21.9813 19.0612L21.9779 19.0601C21.8275 19.1491 21.6595 19.2035 21.4855 19.2201V19.2212L21.1205 19.3485C21.1131 19.3411 21.1073 19.3323 21.1014 19.3237V19.3485C21.0813 19.3777 21.0534 19.4012 21.0214 19.4161C20.9945 19.4286 20.9652 19.4322 20.9357 19.4319L20.9369 19.433C20.8787 19.5243 20.801 19.6026 20.7104 19.6617C20.6199 19.7207 20.5175 19.7601 20.4107 19.7766C20.2915 19.802 20.1767 19.8452 20.0705 19.9051L19.7629 20.0256C19.0425 20.2958 18.2986 20.4993 17.5682 20.7422C17.4493 20.7818 17.3276 20.8121 17.2066 20.8458C17.2022 20.843 17.1976 20.8406 17.1931 20.8379C16.6411 21.0478 16.0708 21.2054 15.4896 21.31C15.4889 21.3141 15.4906 21.3191 15.4896 21.3235C15.0495 21.5772 14.5413 21.6309 14.0734 21.8113L14.0104 21.8632C13.9423 21.8987 13.8611 21.8914 13.7839 21.8958C13.7824 21.8955 13.7809 21.895 13.7794 21.8947C13.7808 21.8967 13.7826 21.8983 13.7839 21.9003C13.4154 22.14 13.2451 22.14 13.0786 21.9003C13.0577 21.8811 13.041 21.8572 13.0313 21.8305C13.0216 21.8036 13.0195 21.7743 13.0234 21.746C13.0273 21.7178 13.0373 21.6903 13.0538 21.6671C13.0704 21.6441 13.0928 21.6259 13.1181 21.613L13.171 21.5838C13.2812 21.4991 13.3146 21.3141 13.4966 21.3246C13.4974 21.3236 13.498 21.3223 13.4989 21.3213V21.3201C13.4988 21.3098 13.5001 21.2995 13.5034 21.2897C13.5074 21.2777 13.514 21.2665 13.5225 21.257C13.531 21.2476 13.5414 21.2398 13.5529 21.2345C13.5625 21.2301 13.5729 21.2276 13.5834 21.2266C13.5854 21.2243 13.5881 21.2223 13.5901 21.2199C13.595 21.2166 13.5988 21.2119 13.6036 21.2086C13.6154 21.1682 13.6369 21.1315 13.6679 21.1027C13.6986 21.0741 13.7364 21.0553 13.7771 21.0464C13.7804 21.0424 13.7853 21.0391 13.7884 21.0351L13.874 20.945C14.102 20.8002 14.2365 20.5473 14.4982 20.4402C14.5188 20.4376 14.538 20.4298 14.5579 20.4245V20.3749C14.5827 20.3663 14.6085 20.3611 14.6345 20.358C14.6432 20.3494 14.6543 20.3423 14.6661 20.3388C14.678 20.3354 14.6912 20.3349 14.7032 20.3377C14.7121 20.3397 14.7194 20.3451 14.7269 20.3501C14.7474 20.3412 14.7689 20.3375 14.7911 20.3377C14.7835 20.3263 14.7813 20.3141 14.7855 20.3017C14.7934 20.278 14.8038 20.2622 14.8136 20.2622C14.9345 20.1888 15.0358 20.0682 15.2023 20.1236C15.2082 20.1148 15.216 20.1069 15.2249 20.1011C15.2336 20.0955 15.2439 20.0916 15.2542 20.0898C15.5021 20.0424 15.6483 19.8067 15.8659 19.7259V19.7169C15.9054 19.6863 15.94 19.6538 15.9718 19.62L16.0642 19.5153C16.0285 19.3013 16.1835 19.2594 16.338 19.2178L16.3459 19.2235L16.3425 19.2178L16.8281 18.9238L16.9069 18.8562C16.98 18.8042 17.0647 18.7708 17.1536 18.7559C17.1558 18.75 17.1589 18.7445 17.1593 18.7379C17.2366 18.5812 17.3956 18.5397 17.5344 18.4743C17.9716 18.2484 18.3918 17.991 18.7929 17.7059C19.2577 17.5213 19.7042 17.2934 20.1257 17.0243C20.7959 16.6535 21.4558 16.2662 22.1221 15.8875L22.1581 15.8977C23.147 15.261 24.0677 14.5245 24.9071 13.7007L24.9026 13.6985C24.9419 13.6189 25.0073 13.5543 25.0874 13.516C25.0911 13.5141 25.0932 13.5101 25.0964 13.5081C25.1002 13.4827 25.1044 13.4574 25.111 13.4326C25.1091 13.432 25.107 13.4292 25.1043 13.4292C25.5781 12.8126 26.0383 12.19 26.2286 11.4148C26.1691 11.1384 26.1691 10.8519 26.2286 10.5755L25.9515 9.62234C25.9493 9.61842 25.9458 9.61498 25.9436 9.61107C25.895 9.58411 25.8523 9.5481 25.8197 9.50292C25.7866 9.45702 25.7655 9.4041 25.7555 9.34857C25.7504 9.34288 25.746 9.33616 25.7408 9.33054L25.5729 9.06691C25.5698 9.06415 25.567 9.06069 25.5639 9.0579C25.4603 9.03192 25.3931 8.98467 25.3882 8.87088C25.3839 8.86546 25.3789 8.86059 25.3747 8.85511C25.2839 8.84458 25.1956 8.81691 25.1167 8.77061C25.034 8.722 24.9627 8.65577 24.9082 8.57683C24.858 8.58299 24.8068 8.58181 24.7584 8.56669C24.7044 8.5498 24.6557 8.51955 24.6153 8.47994H24.6288C24.6217 8.47657 24.6141 8.47418 24.6074 8.4698C23.5882 8.14815 22.5331 7.95286 21.4664 7.88733C21.2147 7.87346 20.9668 7.8233 20.7172 7.79157C20.6685 7.72605 20.6228 7.71629 20.5718 7.76566C20.558 7.77211 20.5453 7.78064 20.5347 7.79157C20.2074 7.85466 19.9011 7.71189 19.5838 7.69468V7.70031C18.5925 7.70031 17.5889 7.68662 16.5937 7.71834C15.9018 7.73821 15.2058 7.86674 14.5218 7.87269C13.6792 7.87272 12.8698 8.1009 12.041 8.18814C11.726 8.22193 11.4466 8.38632 11.1217 8.38643L11.1194 8.38418C11.1134 8.38724 11.1064 8.38804 11.1003 8.39094C11.0302 8.4577 10.9474 8.5102 10.8558 8.5419C10.7627 8.57402 10.664 8.58461 10.5663 8.57458C10.5611 8.57704 10.5556 8.57876 10.5505 8.58134C10.5474 8.5836 10.5435 8.58475 10.5403 8.58697C10.416 8.78964 10.2043 8.83253 9.9973 8.87201C9.99072 8.87633 9.98349 8.87989 9.97702 8.8844C9.95249 8.93643 9.91328 8.98031 9.86436 9.01058C9.81563 9.04067 9.75938 9.05457 9.70213 9.05339C9.66204 9.12633 9.60845 9.19115 9.54214 9.24154C9.47378 9.29344 9.39498 9.32999 9.31119 9.34857L9.03291 9.65163C8.76706 9.9654 8.53875 10.3103 8.35468 10.6791C8.12645 11.2654 7.99945 11.8867 7.97838 12.5155V12.8468C7.92485 14.1077 7.84758 15.3707 8.02007 16.6277C8.04781 16.8259 7.97685 17.0399 8.07189 17.2361V17.4209C8.1807 17.5675 8.05425 17.7575 8.1609 17.9042V18.2771C8.23821 18.5606 8.26753 18.8544 8.34679 19.1378V19.3249C8.49949 19.7551 8.75983 20.1638 8.63296 20.6554C8.61726 20.9903 8.76385 21.2915 8.83124 21.6085C8.83067 21.6111 8.83063 21.6139 8.83012 21.6164C8.83493 21.6141 8.83936 21.6105 8.84476 21.6085H8.86279C8.8818 21.6437 8.90558 21.6761 8.93264 21.7054L8.95855 21.9037C8.98829 21.9632 8.97374 22.0392 9.02728 22.0907L9.05319 22.1921L9.01601 22.209C9.02088 22.2228 9.02614 22.2361 9.03066 22.2496C9.04183 22.2511 9.05308 22.2526 9.06333 22.2575C9.07763 22.2643 9.0903 22.2747 9.10051 22.2868C9.06481 22.5961 9.25778 22.8563 9.28753 23.1498C9.27542 23.1844 9.26962 23.2174 9.26725 23.2489C9.27513 23.2159 9.28517 23.1803 9.29879 23.1419C9.33065 23.3399 9.50092 23.4885 9.49708 23.6984C9.48418 23.6902 9.47284 23.6806 9.46103 23.6725C9.46943 23.6838 9.47785 23.695 9.48581 23.7063C9.68903 24.3397 9.97032 24.9455 10.324 25.5089C10.9398 26.4742 11.8302 27.2337 12.8803 27.6901C13.0013 27.7236 13.1124 27.7855 13.2048 27.8703L13.3738 27.9098L13.5518 27.9582C13.7335 27.9933 13.9225 28.0084 14.0622 28.1599H14.0656L14.4621 28.1937C14.493 28.2132 14.5237 28.234 14.5523 28.2568L15.0333 28.2906C15.0613 28.3084 15.0911 28.3251 15.1212 28.339L15.8986 28.3942C15.9244 28.4074 15.9493 28.4225 15.9729 28.4393C17.3729 28.4789 18.7753 28.475 20.1753 28.4393C20.2049 28.4235 20.2332 28.4064 20.2609 28.3886L20.7487 28.348L20.751 28.3469C20.7455 28.3458 20.7394 28.3463 20.7341 28.3447C20.7544 28.3169 20.7836 28.2956 20.8163 28.2849C20.8488 28.2744 20.884 28.2747 20.9166 28.2849C20.9126 28.2903 20.9065 28.2937 20.9019 28.2985C20.9114 28.2949 20.9224 28.2945 20.9312 28.2894L21.3278 28.2511C21.3574 28.2334 21.385 28.2131 21.4146 28.1914C21.606 28.2067 21.7789 28.1025 21.9655 28.072L21.9621 28.0686C22.1008 27.9461 22.2926 27.985 22.4432 27.9019L22.4454 27.903L22.4432 27.9008C22.4724 27.8909 22.5037 27.8864 22.5344 27.8884C22.5333 27.8905 22.5311 27.892 22.5299 27.894C22.5311 27.8926 22.5334 27.8921 22.5344 27.8906L22.6358 27.8106L22.6786 27.7949C22.6932 27.7913 22.7086 27.7889 22.7237 27.7892L22.8341 27.7216C22.9486 27.6611 23.0743 27.6219 23.2036 27.6067L23.3005 27.5233L23.3422 27.5087C23.3569 27.5056 23.3721 27.5043 23.3873 27.5053L23.4842 27.4231C23.566 27.3604 23.6652 27.323 23.7681 27.3172C23.8047 27.2875 23.8365 27.2523 23.8616 27.2124L23.9483 27.1347C23.9499 27.1297 23.9511 27.1241 23.9529 27.1189L24.0542 27.0434C24.0577 27.0459 24.0616 27.0473 24.0655 27.049C24.1074 27.0936 24.1167 27.0742 24.1342 27.0299C24.1369 27.0264 24.1414 27.0238 24.1433 27.0197C24.2031 26.9003 24.3005 26.8039 24.4204 26.7448C24.4577 26.715 24.4925 26.6817 24.5252 26.6468C24.5276 26.6455 24.5295 26.6426 24.5319 26.6412C24.5474 26.5997 24.5716 26.5622 24.6029 26.5308C24.6348 26.4989 24.6734 26.4741 24.7156 26.4587C24.7177 26.455 24.7214 26.4522 24.7235 26.4485L24.7989 26.3618C24.8941 26.2845 24.9303 26.1634 25.0175 26.0801L25.2947 25.7038C25.2957 25.7028 25.296 25.7004 25.2969 25.6993C25.2935 25.663 25.2989 25.6263 25.3149 25.5934C25.3304 25.5619 25.3545 25.5351 25.3837 25.5157C25.3867 25.5125 25.3891 25.5085 25.3927 25.5056C25.6296 25.1296 25.8289 24.7309 25.9875 24.3158C26.0371 24.2048 26.0252 24.0631 26.1441 23.9857C26.1483 23.9809 26.1495 23.974 26.1532 23.9688L26.1599 23.8134C26.175 23.8092 26.1906 23.8086 26.2061 23.8066C26.2113 23.7889 26.2155 23.7705 26.223 23.7536C26.2323 23.7276 26.2453 23.7033 26.2568 23.6782V23.6173H26.285C26.2863 23.6148 26.287 23.6119 26.2884 23.6094C26.3045 23.5818 26.3225 23.5553 26.3413 23.5294C26.3443 23.4931 26.3458 23.4572 26.3458 23.4213H26.4168C26.4185 23.4191 26.4216 23.4176 26.4235 23.4157H26.4179L26.4348 23.3199C26.465 23.316 26.4959 23.3162 26.5261 23.3199V23.1295C26.5584 23.1263 26.5918 23.1263 26.6241 23.1295C26.6245 23.1321 26.6237 23.1348 26.6241 23.1374C26.6264 23.1341 26.6281 23.1303 26.6308 23.1272C26.632 23.127 26.6331 23.1264 26.6342 23.1261C26.6271 23.1182 26.6215 23.109 26.6173 23.0991C26.609 23.0793 26.6081 23.0566 26.6139 23.036C26.626 23.0095 26.6324 22.9806 26.632 22.9515C26.6784 22.8798 26.7189 22.7943 26.8224 22.8568C26.822 22.8533 26.8229 22.8492 26.8224 22.8456C26.8255 22.8427 26.8272 22.8384 26.8303 22.8354C26.8253 22.8372 26.8208 22.8411 26.8156 22.8422C26.8085 22.8123 26.8086 22.7809 26.8156 22.7509C26.8461 22.7434 26.8781 22.7416 26.9091 22.7464C26.9082 22.7515 26.905 22.7562 26.9035 22.7611C26.9069 22.7574 26.9114 22.7547 26.9148 22.7509C26.9154 22.7495 26.9162 22.7478 26.917 22.7464V22.7431L26.9069 22.7453L26.9193 22.5605L27.0128 22.4637L27.1097 22.3701L27.2708 22.2699C27.2731 22.2654 27.2771 22.2618 27.2798 22.2575H27.2775C27.2537 22.1643 27.3415 22.1359 27.3812 22.0783C27.4481 22.0387 27.423 21.9424 27.4916 21.9026C27.518 21.856 27.562 21.8204 27.6133 21.8046C27.6251 21.8046 27.6373 21.8026 27.6482 21.7978C27.6589 21.7931 27.6685 21.7861 27.6764 21.7775C27.6804 21.771 27.6859 21.7651 27.6921 21.7606C27.6985 21.7561 27.7059 21.7522 27.7135 21.7505C27.715 21.7502 27.7166 21.7507 27.718 21.7505C27.7203 21.6995 27.7284 21.649 27.78 21.613C27.7911 21.5972 27.8049 21.5832 27.8217 21.5736C27.8279 21.5701 27.8353 21.5693 27.842 21.5669C27.8396 21.558 27.8407 21.5494 27.8454 21.5409C27.8551 21.5234 27.8611 21.515 27.869 21.515C27.945 21.4598 28.0121 21.3927 28.0673 21.3167L28.0943 21.2829L28.136 21.2694H28.1586C28.1609 21.2615 28.1646 21.2538 28.1664 21.2458L28.2814 21.2289C28.2988 21.2145 28.316 21.1997 28.3309 21.1827C28.342 21.1733 28.3541 21.1652 28.3659 21.1568L28.456 20.9607C28.505 20.9538 28.5503 20.9301 28.5844 20.8943C28.6185 20.8584 28.6396 20.8117 28.6441 20.7624L28.7298 20.661L28.9078 20.6532C28.9058 20.6557 28.9041 20.6585 28.9021 20.661C28.904 20.6596 28.9059 20.658 28.9078 20.6565L29.3821 20.2622V20.2701C29.3849 20.2679 29.3868 20.264 29.39 20.2622L29.4553 20.1653L29.7708 19.78L29.8079 19.7428C29.8217 19.7322 29.8367 19.7226 29.853 19.7158C29.8731 19.7075 29.8946 19.7037 29.9161 19.7023C29.93 19.6913 29.9452 19.682 29.9612 19.6741C29.9635 19.6541 29.9652 19.634 29.9702 19.6144H30.1234L30.1211 19.6167L30.1234 19.6155C30.2363 19.5877 30.3492 19.4706 30.4648 19.5592L30.5143 19.6099L30.6968 19.771H30.698C30.7178 19.7676 30.7385 19.7686 30.7577 19.7744C30.777 19.7802 30.7949 19.7909 30.8095 19.8048L30.8309 19.9806L30.912 20.0853C31.0803 20.8061 31.0858 21.556 30.9267 22.2789C30.6491 23.3179 30.5202 24.3989 30.084 25.3963C30.0443 25.4953 29.998 25.5941 29.9623 25.6971C29.948 25.7346 29.9315 25.7715 29.9116 25.8064C29.8937 25.8381 29.8692 25.8704 29.8474 25.9021L29.8158 25.9472C29.792 25.997 29.7718 26.0486 29.7561 26.1015C29.746 26.1371 29.7349 26.173 29.7212 26.2074C29.7053 26.2589 29.6852 26.3106 29.6694 26.364C29.6588 26.3984 29.6456 26.4319 29.6299 26.4643C29.6126 26.4946 29.5934 26.5244 29.5725 26.5522L29.5387 26.5939C29.5109 26.6355 29.4825 26.6787 29.4587 26.7223C29.4349 26.7659 29.4317 26.7841 29.4159 26.8158C29.3936 26.8801 29.3654 26.9422 29.3325 27.0017L29.2908 27.0321C28.9859 27.2915 28.8937 27.6984 28.625 27.9819L28.6261 27.9841C28.4469 28.326 28.2255 28.644 27.9682 28.9316C27.9679 28.9342 27.9684 28.9369 27.9682 28.9395C27.8135 29.1378 27.7335 29.3898 27.4916 29.5107L27.4803 29.5085C27.3534 29.6608 27.2279 29.8161 27.1029 29.9704C27.1016 29.9729 27.1009 29.9757 27.0995 29.9783C26.9369 30.1032 26.871 30.3411 26.6331 30.3748C26.6321 30.3705 26.6297 30.3666 26.6286 30.3624C26.6283 30.3658 26.6274 30.3691 26.6275 30.3726C26.5501 30.4856 26.4886 30.6135 26.3379 30.6452C26.3297 30.5736 26.3075 30.5242 26.2748 30.4965C26.2865 30.5344 26.2975 30.5843 26.3086 30.6486C25.8105 31.0934 25.2463 31.4587 24.6367 31.7313C24.566 31.7759 24.4996 31.8275 24.4384 31.8845L24.337 31.9116C24.2994 31.9334 24.2617 31.956 24.2221 31.9758C24.2099 31.973 24.1972 31.972 24.1849 31.9747C24.1726 31.9774 24.1611 31.9838 24.1511 31.9916C24.1181 32.0202 24.083 32.0465 24.0464 32.0704C24.0109 32.1295 23.9534 32.1312 23.8943 32.1313C23.8914 32.1464 23.878 32.1576 23.8515 32.1651L23.687 32.1617C23.681 32.1643 23.6748 32.1666 23.6689 32.1696V32.1989C23.644 32.2094 23.6176 32.2147 23.5912 32.2203L23.5923 32.2214C23.5883 32.2365 23.5792 32.2497 23.5664 32.2586L23.4042 32.2507C23.3938 32.2554 23.3836 32.2606 23.3738 32.2664V32.2946C23.3451 32.313 23.3141 32.3271 23.2825 32.3397C23.28 32.3463 23.2788 32.3533 23.2769 32.36C23.2519 32.3585 23.2264 32.363 23.2036 32.3735C23.1523 32.4328 23.059 32.4038 23.0054 32.4625L22.9096 32.4805C22.8461 32.5162 22.7668 32.513 22.7113 32.5526L22.5333 32.5842C22.4719 32.6099 22.3964 32.6041 22.335 32.6495C22.0812 32.6634 21.8444 32.79 21.5847 32.7543C21.5827 32.7529 21.581 32.7511 21.579 32.7498C21.3652 32.9243 21.0941 32.8536 20.8569 32.8872C20.4253 32.9695 19.988 33.0176 19.5489 33.0303C18.6825 33.0184 17.8139 33.0303 16.9475 33.0303C16.2238 33.0303 15.5156 32.8811 14.7979 32.8117C14.7721 32.8117 14.7481 32.7764 14.7224 32.7565C14.7238 32.7549 14.7244 32.7526 14.7258 32.7509H14.7224L14.3596 32.7363C14.3559 32.7328 14.351 32.7312 14.3472 32.7284C14.2438 32.7437 14.1397 32.7579 14.0656 32.654C14.0312 32.654 13.997 32.6525 13.963 32.6472C13.9619 32.6461 13.9608 32.6449 13.9597 32.6439C13.9108 32.6543 13.8604 32.6546 13.8121 32.6416C13.7736 32.6312 13.7391 32.6112 13.7073 32.5875C13.6945 32.5827 13.6813 32.5771 13.669 32.5684L13.3107 32.5537C13.2274 32.4766 13.1118 32.54 13.0167 32.4726L12.922 32.4614C12.8706 32.404 12.7832 32.4255 12.7237 32.3724H12.6347C12.5536 32.2912 12.4363 32.3598 12.3452 32.289C12.3151 32.2841 12.2841 32.2841 12.2539 32.289L11.6884 31.9792L11.3076 31.8856C10.9923 31.636 10.5656 31.5905 10.2643 31.319L10.1618 31.2277L10.0604 31.1916C9.83584 31.0931 9.68011 30.9016 9.50159 30.7421L9.50271 30.7399C9.35358 30.6783 9.22289 30.5794 9.12304 30.4526C9.09291 30.4262 9.06454 30.3974 9.03629 30.3692H9.03291C9.031 30.3667 9.0281 30.3649 9.02615 30.3624L9.0239 30.3613V30.3591C8.88528 30.1849 8.64438 30.1096 8.56536 29.8983L8.5417 29.7958C8.20066 29.651 8.02962 29.3283 7.8353 29.0567C7.57158 28.6899 7.22927 28.3742 7.06469 27.9379C7.05279 27.9102 6.98128 27.904 6.93963 27.8861C6.9042 27.8606 6.87012 27.8326 6.83824 27.8027C6.69752 27.5332 6.55029 27.2672 6.40561 27.0096C6.38391 26.974 6.36225 26.9344 6.34252 26.8969C6.28899 26.7978 6.21352 26.7121 6.16001 26.613C5.25991 24.9277 4.68702 23.1212 4.22108 21.2773C4.20526 21.2357 4.19465 21.1924 4.18277 21.1489C4.17597 21.1178 4.16592 21.0874 4.15799 21.0565C4.08919 20.9978 4.05587 20.9308 4.10166 20.8424C4.09521 20.8185 4.08964 20.7944 4.08363 20.7703C4.07018 20.7051 4.06235 20.6386 4.05997 20.572C4.05347 20.466 4.03343 20.3605 3.99913 20.26C3.98623 20.2178 3.97556 20.175 3.96871 20.1315C3.96737 20.1217 3.96456 20.1121 3.96308 20.1022C3.89541 20.0422 3.86525 19.9748 3.91801 19.8837C3.90509 19.8338 3.89284 19.7838 3.87633 19.735C3.70978 19.0093 3.66015 18.2656 3.47976 17.5538C3.47349 17.5005 3.46996 17.4464 3.46962 17.3927C3.41016 16.7979 3.40547 16.2029 3.29048 15.6081C3.14375 14.1806 2.91813 12.7545 3.2195 11.319C3.25614 11.2695 3.29419 11.2211 3.33217 11.1726C3.37696 10.7726 3.52796 10.3967 3.61044 10.0031C3.61179 10.0003 3.61246 9.99696 3.61382 9.99413C3.61247 9.99538 3.6118 9.99738 3.61044 9.99864C3.59519 9.71488 3.75284 9.49179 3.86732 9.25506C3.86934 9.24714 3.87093 9.23897 3.87408 9.2314C3.91536 8.88572 4.11348 8.60591 4.24248 8.30193C4.23913 8.29659 4.23453 8.29187 4.23122 8.28616L4.24812 8.1904L4.32247 8.09125C4.34293 8.06668 4.35741 8.03688 4.36416 8.00563L4.82946 7.33191C4.83387 7.33224 4.83856 7.33159 4.84298 7.33191V7.32965C5.61727 6.21964 6.65332 5.31723 7.85896 4.70235C8.17802 4.53391 8.51745 4.40536 8.85039 4.26072C9.04361 4.19415 9.22937 4.10576 9.40244 3.99708C9.4542 4.00793 9.50808 4.00557 9.55904 3.99145C9.61 3.97729 9.6566 3.95082 9.69537 3.91484C9.87578 3.89898 10.0744 3.94514 10.1933 3.74697L10.6237 3.6974C10.6249 3.6968 10.6259 3.69572 10.6271 3.69515H10.6237C10.6654 3.66182 10.7145 3.63938 10.7668 3.62868C10.8191 3.61801 10.8731 3.62 10.9245 3.63431C10.9236 3.63528 10.922 3.63561 10.9211 3.63656C10.9221 3.63595 10.9235 3.63608 10.9245 3.63544L11.2084 3.60164C11.209 3.60955 11.2071 3.61779 11.2073 3.6253C11.2132 3.6167 11.2212 3.60953 11.2265 3.60051C11.4622 3.50036 11.7125 3.43835 11.9678 3.418C11.964 3.41793 11.9603 3.418 11.9565 3.418C12.1074 3.33906 12.2801 3.31238 12.4477 3.34251C12.4404 3.34963 12.4315 3.35443 12.4241 3.36054C12.4379 3.35511 12.4524 3.35066 12.4657 3.34251L12.8082 3.32223H12.8127L12.8533 3.29294C12.8667 3.28302 12.88 3.27499 12.8939 3.27492C13.6373 3.27492 14.3592 3.0647 15.1066 3.04283ZM23.0842 31.8902L23.0865 31.889C23.0854 31.8854 23.0851 31.8815 23.0842 31.8778H23.0707C23.0751 31.8819 23.0803 31.8855 23.0842 31.8902ZM13.7726 29.4093C13.7682 29.4095 13.7636 29.4102 13.7591 29.4104C13.7639 29.4139 13.769 29.4168 13.7738 29.4206C13.7753 29.418 13.7791 29.4166 13.7805 29.4138C13.7824 29.4098 13.7842 29.4054 13.7862 29.4014C13.7815 29.4039 13.7772 29.4069 13.7726 29.4093ZM20.253 29.2234L20.2699 29.2358C20.2726 29.2315 20.2739 29.2264 20.2767 29.2223C20.2688 29.2227 20.2609 29.2229 20.253 29.2234ZM21.1216 28.3942C21.1385 28.3975 21.1549 28.4052 21.1735 28.4201C21.1845 28.425 21.1957 28.4296 21.2061 28.4359C21.2341 28.4729 21.2507 28.4688 21.267 28.4562C21.2595 28.4558 21.252 28.4554 21.2456 28.4517C21.2383 28.4475 21.2329 28.4409 21.2287 28.4337C21.2156 28.4199 21.199 28.409 21.1813 28.4021C21.1638 28.3953 21.1449 28.393 21.1261 28.3942C21.1248 28.3943 21.123 28.3941 21.1216 28.3942ZM22.3361 28.1599C22.328 28.1677 22.3171 28.1715 22.308 28.1779H22.3283L22.3395 28.1565C22.3384 28.1575 22.3373 28.1588 22.3361 28.1599ZM13.4054 28.17H13.4076L13.4054 28.1678V28.17ZM23.3839 27.5053C23.3877 27.4826 23.3991 27.4618 23.4166 27.4467C23.4344 27.4315 23.4574 27.4232 23.4808 27.4231L23.3839 27.5053ZM7.67194 25.812C7.67309 25.8127 7.67418 25.8136 7.67532 25.8142C7.67729 25.8152 7.679 25.8167 7.68095 25.8176V25.8064C7.67783 25.8083 7.67521 25.8104 7.67194 25.812ZM28.1473 25.3129L28.1495 25.3152C28.1491 25.3137 28.1488 25.3121 28.1484 25.3106L28.1473 25.3129ZM28.4301 23.7029C28.4301 23.7063 28.4289 23.7097 28.4289 23.7131L28.4425 23.6973C28.4378 23.6943 28.4339 23.6897 28.4289 23.686C28.4296 23.6915 28.4291 23.6975 28.4301 23.7029ZM26.6128 23.6162C26.6143 23.6163 26.6158 23.6171 26.6173 23.6173C26.616 23.616 26.6152 23.6142 26.6139 23.6128C26.6135 23.6139 26.6133 23.6151 26.6128 23.6162ZM26.5283 23.3255C26.5283 23.3278 26.5283 23.33 26.5283 23.3323L26.5362 23.3221C26.5378 23.321 26.5381 23.3177 26.5396 23.3165C26.5356 23.3191 26.5326 23.3232 26.5283 23.3255ZM26.8674 23.1565C26.8794 23.1595 26.8914 23.1644 26.9046 23.1689C26.9076 23.1585 26.9094 23.1478 26.9125 23.1374C26.8957 23.1424 26.8808 23.149 26.8674 23.1565ZM26.6308 23.1272C26.6285 23.1278 26.6264 23.129 26.6241 23.1295L26.6331 23.1239C26.6322 23.1248 26.6317 23.1262 26.6308 23.1272ZM27.2685 22.458C27.2755 22.4591 27.2825 22.4609 27.2899 22.4625V22.4535C27.2881 22.4516 27.2871 22.4488 27.2854 22.4468C27.2795 22.4501 27.2743 22.4545 27.2685 22.458ZM8.92701 22.1809C8.9308 22.1838 8.93279 22.1885 8.93602 22.1921V22.1831L8.93039 22.1797L8.92701 22.1809ZM8.64648 21.8846V21.8902C8.65038 21.8884 8.65307 21.8843 8.65661 21.8823C8.6529 21.8818 8.64925 21.8807 8.64535 21.8801C8.64555 21.8815 8.64627 21.8831 8.64648 21.8846ZM28.4154 21.5117H28.438C28.4346 21.5083 28.4308 21.5051 28.4267 21.5015C28.4241 21.5061 28.4183 21.5078 28.4154 21.5117ZM28.7974 21.2322C28.8001 21.2299 28.8012 21.2266 28.803 21.2244H28.7951C28.7956 21.2269 28.7973 21.2296 28.7974 21.2322ZM29.6525 20.9337C29.6553 20.935 29.6586 20.9355 29.6615 20.9371C29.6584 20.9332 29.6563 20.9287 29.6536 20.9247C29.6531 20.9277 29.653 20.9307 29.6525 20.9337ZM15.4964 20.9348H15.4998C15.5015 20.9332 15.5036 20.9319 15.5054 20.9303L15.4975 20.9202C15.4965 20.9249 15.4975 20.93 15.4964 20.9348ZM29.5409 20.6453L29.5387 20.6464L29.5511 20.6498C29.5501 20.6453 29.5506 20.6408 29.5499 20.6363C29.547 20.6394 29.5437 20.6421 29.5409 20.6453ZM18.3479 20.1777C18.3452 20.1848 18.3434 20.1927 18.3434 20.2003C18.3434 20.2083 18.3448 20.2165 18.3479 20.2239L18.358 20.2228C18.3597 20.2151 18.3613 20.2049 18.3591 20.1924C18.3586 20.1863 18.3543 20.1818 18.3513 20.1766C18.3503 20.1772 18.3489 20.1771 18.3479 20.1777ZM30.218 19.8589C30.221 19.8584 30.224 19.8582 30.227 19.8578C30.2264 19.8566 30.2254 19.8556 30.2248 19.8544L30.218 19.8589ZM17.0996 18.9542L17.1041 18.9531L17.1018 18.952L17.0996 18.9542ZM17.4026 18.8708C17.4013 18.8765 17.401 18.8822 17.3993 18.8877C17.4005 18.8849 17.4039 18.8828 17.4049 18.8798C17.406 18.8758 17.4085 18.8723 17.4105 18.8686L17.4026 18.8708ZM24.8418 17.8332C24.8456 17.8315 24.8492 17.8292 24.853 17.8276V17.8265L24.8474 17.8276L24.8373 17.8186C24.8384 17.8235 24.841 17.8281 24.8418 17.8332ZM25.5245 17.173L25.529 17.1764C25.5275 17.1741 25.5261 17.1718 25.5245 17.1696V17.173ZM21.2906 16.7483C21.2872 16.7642 21.2872 16.7835 21.2895 16.8023C21.2986 16.7941 21.309 16.7874 21.3177 16.7787C21.3177 16.7707 21.3205 16.7638 21.3222 16.7573C21.3154 16.7603 21.3091 16.7644 21.3019 16.7663C21.2978 16.7599 21.2942 16.7538 21.2906 16.7483ZM22.9344 15.7985C22.9336 15.8025 22.9337 15.8067 22.9333 15.8109C22.9343 15.8099 22.9367 15.8097 22.9378 15.8087C22.9397 15.8024 22.9423 15.7966 22.9445 15.7906C22.9413 15.7935 22.9375 15.7956 22.9344 15.7985ZM23.7996 15.1406C23.803 15.1407 23.8064 15.1405 23.8098 15.1406L23.8041 15.1372C23.8027 15.1384 23.801 15.1393 23.7996 15.1406ZM24.8553 14.2032C24.858 14.203 24.8605 14.2013 24.8632 14.201L24.8587 14.1998C24.8576 14.201 24.8563 14.202 24.8553 14.2032ZM25.1133 13.9238C25.1143 13.9201 25.1149 13.9164 25.1155 13.9125L25.1122 13.9114C25.113 13.9157 25.1128 13.9198 25.1133 13.9238ZM25.3228 13.7233C25.3248 13.732 25.3236 13.741 25.3251 13.7492C25.3312 13.7379 25.3383 13.727 25.3442 13.7154H25.3138C25.3163 13.7183 25.3206 13.7201 25.3228 13.7233ZM29.648 13.0439C29.6517 13.0447 29.6553 13.0464 29.6592 13.0473C29.6584 13.0407 29.6602 13.0337 29.6592 13.027L29.6581 13.0259C29.6546 13.0318 29.6515 13.038 29.648 13.0439ZM5.12125 12.662L5.12013 12.6642C5.12215 12.6628 5.12377 12.661 5.12576 12.6597C5.12568 12.6564 5.12584 12.653 5.12576 12.6496C5.12355 12.6533 5.12357 12.6583 5.12125 12.662ZM27.7699 11.6153C27.7682 11.6174 27.7659 11.6189 27.7642 11.621C27.7688 11.6192 27.7731 11.6169 27.7778 11.6153L27.7766 11.6165C27.782 11.6136 27.7871 11.6105 27.7924 11.6075C27.7851 11.605 27.777 11.6051 27.7699 11.6018V11.6153ZM30.1459 10.8447C30.1461 10.8477 30.1469 10.8508 30.1471 10.8537C30.1499 10.8511 30.1511 10.8463 30.1538 10.8436C30.1512 10.844 30.1486 10.8443 30.1459 10.8447ZM10.3578 9.99638C10.3933 9.94135 10.4195 9.94533 10.4491 9.99638H10.3578ZM24.7212 8.47994H24.7257C24.727 8.47863 24.7289 8.47782 24.7302 8.47656H24.7246C24.7235 8.47777 24.7223 8.47877 24.7212 8.47994ZM22.8082 7.8096C22.8112 7.81216 22.8153 7.81392 22.8183 7.81636C22.8205 7.81191 22.8216 7.80701 22.824 7.80284C22.8142 7.80315 22.8044 7.80258 22.7947 7.80284C22.7991 7.80519 22.8038 7.80718 22.8082 7.8096ZM14.3382 7.52456H14.3517C14.3555 7.5238 14.3592 7.52305 14.363 7.52231C14.3592 7.52213 14.3555 7.52249 14.3517 7.52231C14.3486 7.51906 14.3447 7.51637 14.3416 7.51329C14.3405 7.51695 14.3395 7.52068 14.3382 7.52456ZM7.78798 7.23727C7.79127 7.23673 7.79483 7.23663 7.79812 7.23614C7.80165 7.22957 7.80578 7.2234 7.80939 7.21699C7.80249 7.22358 7.79501 7.23043 7.78798 7.23727ZM23.296 5.71519C23.2979 5.71491 23.2998 5.71436 23.3017 5.71407C23.2997 5.71181 23.2978 5.70964 23.296 5.70731V5.71519ZM22.7271 5.33101H22.744C22.7447 5.32484 22.7453 5.31882 22.7462 5.31299C22.7403 5.31909 22.7326 5.32382 22.7271 5.33101ZM12.2596 3.62192L12.2573 3.62417L12.2539 3.62642C12.2555 3.62524 12.2581 3.62541 12.2596 3.62417V3.62192C12.2671 3.62216 12.2746 3.62061 12.2821 3.62079C12.2796 3.61754 12.2763 3.61503 12.2742 3.61178C12.2695 3.61536 12.2641 3.61807 12.2596 3.62192Z" fill="#262625"/>
</svg>
