<svg width="36" height="36" viewBox="0 0 36 36" fill="none" xmlns="http://www.w3.org/2000/svg">
<g clip-path="url(#clip0_1032_27431)">
<path fill-rule="evenodd" clip-rule="evenodd" d="M29.7039 3.79948V4.427L17.7995 2.32697L5.89612 4.427V3.79948L17.7995 1.7L29.7039 3.79948Z" fill="#262625"/>
<path fill-rule="evenodd" clip-rule="evenodd" d="M29.7039 5.04059L17.7995 2.9543L5.89612 5.04059L5.8963 7.15748L5.99945 7.09903C6.04141 7.07558 10.2653 4.7337 17.8224 4.7337C25.3801 4.7337 29.5547 7.07613 29.5971 7.0994L29.6991 7.15803L29.7039 5.04059Z" fill="#262625"/>
<path fill-rule="evenodd" clip-rule="evenodd" d="M5.99964 7.09885L5.89648 7.1573V13.4942C5.89648 16.879 6.69219 20.2489 8.26163 23.51C11.9459 31.1593 17.6579 33.8351 17.7151 33.8613L17.7997 33.9L17.8842 33.8613C17.9419 33.8351 23.6491 31.1585 27.3332 23.51C28.9034 20.2489 29.6993 16.879 29.6993 13.4942V7.15785L29.5972 7.09922C29.5551 7.07595 25.3803 4.73352 17.8226 4.73352C10.2655 4.73352 6.04159 7.0754 5.99964 7.09885ZM17.8226 5.14283C24.6471 5.14283 28.6432 7.06331 29.2909 7.40006V13.4942C29.2909 16.8167 28.5084 20.1265 26.9661 23.3335C23.5901 30.3383 18.5102 33.0887 17.7997 33.4476C17.0887 33.0887 12.0049 30.3383 8.6299 23.3335C7.08758 20.1265 6.30524 16.8167 6.30524 13.4942V7.40079C6.95878 7.06441 10.9969 5.14283 17.8226 5.14283Z" fill="#262625"/>
<path fill-rule="evenodd" clip-rule="evenodd" d="M19.6101 27.5422C19.8083 27.6792 19.6645 27.9172 19.5177 27.9544C19.3649 27.996 19.2343 27.8264 19.1603 28.0123C19.1187 28.1122 19.2316 28.8687 20.0055 28.8687C20.7279 28.8687 21.0725 27.9412 21.1405 27.8016C21.2088 27.6624 21.2528 27.4847 21.1845 27.4847C20.8675 27.4847 20.7752 27.6728 20.7752 27.6728C20.7752 27.6728 20.7512 27.4918 20.9087 27.3551C21.0386 27.2435 21.209 27.2707 21.2706 27.2707C21.3998 27.2707 21.3794 27.1745 21.4575 26.9841C21.6354 26.5361 21.7578 26.516 21.8734 26.3117C21.9692 26.1453 21.7882 26.0801 21.4311 26.0466C21.0729 26.0125 20.8811 26.027 20.7211 26.0503C20.5608 26.0732 20.4012 26.1382 20.3017 26.3833C20.2484 26.5162 20.3461 26.647 20.5337 26.6131C20.7211 26.5781 20.9016 26.4363 20.9016 26.4363C20.9016 26.4363 20.8171 26.7719 20.5373 26.8414C20.2779 26.9051 19.9716 26.7487 20.0128 26.4861C20.0665 26.1455 20.3019 25.896 20.7314 25.8119C21.1616 25.7252 21.5903 25.7915 21.9727 25.8855C22.3538 25.9817 22.6343 25.9235 22.9886 25.9028C23.7526 25.8619 24.2261 25.6816 24.2261 25.6816C24.2261 25.6816 23.8818 25.961 23.4045 26.0902C22.9272 26.2205 22.5016 26.1664 22.3638 26.2205C22.2526 26.2681 22.0954 26.4889 21.9659 26.7412C21.8468 26.9731 21.72 27.2404 21.7748 27.2404C22.2185 27.2573 22.3811 27.1602 22.3811 27.1602C22.3811 27.1602 22.2933 27.3516 22.0819 27.4421C21.9351 27.5015 21.6861 27.5015 21.6861 27.5015C21.6861 27.5015 21.5742 27.7849 21.4481 28.0407C21.3212 28.2963 21.1132 28.6955 20.7389 28.893C20.3631 29.0902 19.6445 29.3361 19.192 28.6851C18.7132 28.0022 19.1502 27.2254 19.6101 27.5422ZM14.054 27.6312C14.1424 27.8573 13.9547 27.9751 13.8457 27.9751C13.7363 27.9751 13.6002 27.894 13.5718 28.0306C13.5458 28.1662 13.8622 28.8656 14.5984 28.8656C15.3349 28.8656 15.6762 28.4394 15.6244 28.0576C15.5667 27.6314 14.8897 27.4621 14.3501 27.1783C14.0861 27.0398 13.4894 26.9471 13.4894 26.3885C13.4894 25.1957 15.3045 25.9575 15.3045 25.9575C15.3045 25.9575 15.3083 25.8084 15.3928 25.8014C15.4337 25.7976 15.5157 25.7815 15.543 25.9163C15.57 26.0523 15.69 26.7686 15.69 26.7686C15.69 26.7686 15.4232 26.2232 14.6911 25.985C14.5615 25.9396 13.9952 25.8319 13.9985 26.2802C14.0053 26.5464 14.3298 26.6659 14.8923 26.8843C15.6315 27.1741 16.0102 27.444 15.8356 28.2212C15.6695 28.9674 14.9399 29.0902 14.5852 29.0902C14.2312 29.0902 13.4166 28.8419 13.4166 28.0231C13.4166 27.4442 13.9846 27.4577 14.054 27.6312ZM17.9326 23.1464L18.2307 23.2877C18.4025 23.3542 18.5123 23.3249 18.5516 23.3084C18.5932 23.2905 18.7506 23.1215 18.7849 22.9777C18.801 22.9191 18.7924 22.8681 18.7612 22.8306C18.6453 22.6932 18.4399 22.062 18.3637 21.7208C18.3355 21.5942 18.3697 21.2448 18.3963 20.9636C18.4195 20.7221 18.4338 20.5721 18.4217 20.5334C18.4014 20.4737 18.3122 20.416 18.2096 20.3509L18.0471 20.2403C17.9604 20.1694 17.9566 20.0728 17.9518 19.9691L17.9346 19.8081C17.8968 19.6582 17.1341 18.8791 17.0159 18.872C16.8446 18.8608 16.8001 19.0488 16.7891 19.1618C16.7823 19.228 16.8587 19.5233 16.9276 19.7852L17.0036 20.1008C17.0817 20.5972 17.6094 21.4713 17.8344 21.8443L17.9412 22.0257C17.9873 22.1309 17.9694 22.2139 17.8873 22.2604C17.8076 22.3062 17.1218 22.2346 16.7942 22.1591C16.6535 22.1268 16.4798 22.0567 16.3104 21.988C16.1163 21.9106 15.9324 21.8355 15.8261 21.8302C15.7021 21.8238 15.6433 21.8489 15.5976 21.87L15.5233 21.8907L15.4492 21.867C15.3584 21.8269 15.1885 21.7536 14.7248 21.7117C14.0489 21.6483 13.9982 21.7842 13.9707 21.8577C13.9371 21.9511 14.3503 22.3905 14.4241 22.4493C14.5181 22.5252 14.8221 22.6408 15.0077 22.61C15.2198 22.5759 15.5658 22.533 15.6086 22.5416L15.6783 22.5842L15.7429 22.63C15.8016 22.654 16.1794 22.6747 16.2935 22.6807C16.4252 22.6879 16.7711 22.7595 17.024 22.8124L17.3065 22.8694C17.4172 22.8898 17.7023 23.0305 17.9326 23.1464Z" fill="#262625"/>
<path fill-rule="evenodd" clip-rule="evenodd" d="M24.9245 14.3808C24.9094 14.3623 24.897 14.3612 24.8891 14.3632C24.882 14.3656 24.8722 14.3724 24.8695 14.3944C24.857 14.4885 24.7389 14.7306 24.6451 14.7663C24.4551 14.8398 24.3567 15.0626 24.2854 15.2249C24.2489 15.3086 24.2134 15.3885 24.1852 15.3896C24.1731 15.3905 24.1597 15.3775 24.1451 15.3504C24.028 15.1485 24.0936 14.8398 24.1462 14.591L24.1582 14.5299C24.2011 14.3202 24.4466 14.0263 24.5934 13.85L24.6582 13.772C24.7581 13.6474 24.7832 13.2253 24.7645 13.1936C24.7585 13.1917 24.7544 13.1952 24.7521 13.1989C24.7498 13.2007 24.7478 13.2029 24.7464 13.2055L24.7442 13.2051V13.2073C24.7381 13.2139 24.733 13.2146 24.7281 13.2359C24.7019 13.3678 24.4607 13.6358 24.0489 13.992C23.9644 14.0651 23.8682 14.1972 23.7894 14.3033C23.7387 14.3729 23.6791 14.4532 23.6634 14.457C23.5613 13.9125 23.746 13.6012 23.8338 13.4508L23.8746 13.3744C24.0489 12.9002 24.4976 12.5411 24.5023 12.5378C24.5084 12.5241 24.5084 12.5094 24.4974 12.5001C24.4802 12.4869 24.4486 12.4926 24.399 12.5175L24.3719 12.5311C24.2154 12.6071 23.7434 12.837 23.454 13.3907C23.246 13.7894 23.1656 14.235 23.1656 14.571C23.1656 14.7425 23.1863 14.8847 23.2215 14.9788C23.3231 15.25 23.5012 15.9239 23.556 16.1884C23.5901 16.3524 23.5954 16.9154 23.5954 17.2683C23.5954 17.4407 23.5947 17.5615 23.5947 17.566C23.5936 17.566 23.5049 17.8522 23.5049 17.8522C23.5045 17.8551 23.4617 18.0787 23.0963 18.4523C22.7284 18.828 22.3187 18.9475 22.3151 18.949C22.1506 18.9618 22.0005 18.955 21.9952 18.9336C21.9952 18.5041 21.2598 17.505 20.8834 17.1754C20.4994 16.8388 20.1925 16.5977 19.6711 16.2804C19.1401 15.9572 18.5496 14.6023 18.5428 14.5891L18.4917 14.4061C18.4917 14.4061 18.4631 14.0406 18.4553 13.9455C18.4745 13.9565 18.4996 13.972 18.4996 13.972L18.6806 14.0774L18.8886 14.1573C18.8904 14.1578 19.1608 14.2108 19.1608 14.2108C19.1608 14.2113 19.3122 14.2888 19.3122 14.2888L19.4525 14.3801L19.6707 14.5376L19.8948 14.6554C19.8994 14.6567 20.1639 14.6703 20.1639 14.6703L20.17 14.6485C20.17 14.6485 19.8636 14.5047 19.8629 14.5047C19.8629 14.5003 19.7526 14.3115 19.7526 14.3115C19.7097 14.25 19.6669 14.1884 19.6242 14.1267C19.62 14.1237 19.465 14.0312 19.465 14.0312C19.3994 14.0212 19.3336 14.012 19.2678 14.0034C19.2678 14.0017 19.2292 13.9686 19.2092 13.9506C19.2264 13.9405 19.2588 13.9204 19.2588 13.9204C19.2588 13.9228 19.4699 13.9471 19.4706 13.9471C19.4706 13.9493 19.6584 14.077 19.6584 14.077L19.8635 14.235C19.8668 14.2366 20.0575 14.3106 20.0575 14.3106L20.0826 14.3205L19.9989 14.1027C19.9465 14.0525 19.8938 14.0027 19.8407 13.9534L19.6084 13.7558C19.6066 13.7542 19.4259 13.6611 19.4259 13.6611C19.4241 13.6608 19.2314 13.5957 19.2314 13.5957C19.2314 13.5953 19.0274 13.4653 19.0274 13.4653C19.0274 13.4653 19.0296 13.4513 19.0311 13.4394C19.0569 13.4493 19.3134 13.5523 19.3134 13.5523C19.3149 13.5525 19.5593 13.619 19.5593 13.619C19.559 13.6181 19.7643 13.6974 19.7643 13.6974C19.7636 13.6967 20.0591 13.8409 20.0591 13.8409C20.0617 13.8421 20.3065 13.8953 20.3065 13.8953C20.3107 13.8955 20.6084 13.8421 20.6084 13.8421C20.6123 13.8403 20.8961 13.6428 20.8961 13.6428C20.8994 13.6375 20.9516 13.52 20.9516 13.52L20.9628 13.4929L20.8715 13.5307C20.8708 13.5307 20.6139 13.6611 20.6136 13.6611L20.4356 13.7009C20.4356 13.7 20.2348 13.6606 20.2345 13.6606H20.2348C20.2348 13.6582 20.072 13.5067 20.072 13.5067L19.8407 13.2828L19.6317 13.1758C19.6288 13.1745 19.3843 13.1349 19.3843 13.1349C19.3843 13.1344 19.2356 13.0587 19.233 13.0574C19.2337 13.0574 19.2341 13.0547 19.2341 13.0508C19.2341 13.0329 19.2295 12.9937 19.2277 12.9753L19.5351 13.0012L19.8719 12.9741C19.8719 12.975 20.0615 13.0136 20.0615 13.0136L20.2533 13.0928L20.4498 13.1193L20.4851 13.1241L20.2662 12.9147C20.264 12.9136 20.0454 12.7557 20.0454 12.7557C20.0428 12.7544 19.8622 12.6882 19.8622 12.6882C19.8589 12.6875 19.5577 12.662 19.5516 12.6615C19.5542 12.6613 19.5546 12.6562 19.5546 12.6487C19.5546 12.6303 19.5516 12.6043 19.55 12.591L19.6923 12.5668C19.6923 12.5677 19.9203 12.619 19.9203 12.619C19.9203 12.6197 20.1361 12.7493 20.1361 12.7493L20.3693 12.829C20.3761 12.8291 20.7099 12.7767 20.7099 12.7767L20.7299 12.774L20.6282 12.6397C20.6225 12.6353 20.4547 12.5831 20.4543 12.5831C20.4543 12.5822 20.3158 12.4797 20.3158 12.4797L20.1093 12.3346C20.1064 12.333 19.9523 12.2806 19.9523 12.2806C19.9498 12.2797 19.7068 12.2408 19.7061 12.2406C19.7061 12.2381 19.5866 12.1281 19.5841 12.1263C19.5877 12.1256 19.5952 12.0873 19.598 12.0699L19.7264 12.1058L19.8917 12.1846L20.1264 12.259L20.0745 12.1554L19.9833 12.0602L19.9034 11.9572L19.938 11.9486C19.938 11.9517 20.1878 12.079 20.1878 12.079L20.3823 12.1454C20.3823 12.1465 20.5326 12.2874 20.5326 12.2874C20.5348 12.2892 20.8191 12.4497 20.8191 12.4497L20.8477 12.4658L20.7959 12.3269C20.7944 12.3238 20.6401 12.1265 20.6401 12.1265L20.5117 11.9044C20.5106 11.9019 20.2781 11.6653 20.2781 11.6653C20.2759 11.6631 19.98 11.505 19.9793 11.505C19.9793 11.5037 19.8666 11.376 19.8666 11.376C19.7976 11.3059 19.7288 11.2356 19.6601 11.1652C19.6601 11.1624 19.639 11.0902 19.6282 11.0536C19.6632 11.0648 19.8287 11.1197 19.8287 11.1197L20.0602 11.1851C20.0602 11.1857 20.2255 11.2886 20.2255 11.2886C20.2255 11.2897 20.3633 11.457 20.3633 11.457C20.3682 11.4609 20.5877 11.5532 20.5877 11.5532L21.1471 11.6258L21.1797 11.6298L21.0262 11.4682C21.0223 11.4653 20.7259 11.3335 20.7259 11.3335L20.548 11.2038C20.548 11.2014 20.4485 11.023 20.4485 11.023L20.3448 10.839C20.3429 10.8363 20.1755 10.6785 20.1755 10.6785C20.1729 10.6767 19.9668 10.5583 19.9668 10.5583L19.7629 10.3887C19.7629 10.387 19.7138 10.2853 19.6824 10.2176L19.8241 10.3541L20.0947 10.591C20.098 10.593 20.3045 10.6851 20.3045 10.6851L20.4813 10.828L20.6867 11.0376C20.6938 11.0409 21.0148 11.0862 21.0148 11.0862L21.0549 11.0921L20.729 10.8097C20.729 10.8046 20.6553 10.5783 20.6553 10.5783C20.5989 10.5235 20.542 10.4692 20.4846 10.4154L20.3959 10.3112C20.3959 10.3084 20.3076 10.0393 20.3076 10.0393C20.2469 9.9761 20.1857 9.91337 20.124 9.85113C20.124 9.84966 19.8296 9.57502 19.8288 9.57392V9.57337C19.8288 9.56916 19.8184 9.5272 19.8123 9.49953C19.8349 9.51089 19.8657 9.5272 19.8657 9.5272L20.1359 9.68458C20.1385 9.68587 20.4602 9.77784 20.4602 9.77784L20.7959 9.85736L21.1837 9.91928L21.0925 9.73479C21.0861 9.72892 20.8931 9.65032 20.8931 9.65032L20.7141 9.54589C20.7123 9.54534 20.4937 9.453 20.4937 9.453L20.3012 9.37421C20.3012 9.37238 20.1762 9.21115 20.1066 9.12211C20.1735 9.167 20.2766 9.23717 20.2766 9.23717C20.2816 9.23882 20.4501 9.25219 20.4501 9.25219L20.9787 9.25238C20.9787 9.25384 21.1927 9.36945 21.1927 9.36982C21.1927 9.37055 21.3752 9.56732 21.3752 9.56732L21.3992 9.59316L21.377 9.3711C21.3748 9.36469 21.2588 9.21976 21.2588 9.21976C21.2555 9.2172 20.9457 9.04607 20.9457 9.04607L20.6995 8.95336C20.6976 8.95281 20.3266 8.88722 20.3248 8.88722V8.88667C20.3248 8.88319 20.2539 8.79873 20.2539 8.79873C20.2524 8.798 19.9824 8.54809 19.9824 8.54809C19.9387 8.52528 19.8949 8.50274 19.851 8.48048C19.851 8.47975 19.8098 8.43743 19.7841 8.41068H19.923C19.923 8.41288 20.1359 8.54076 20.1359 8.54076C20.1377 8.54204 20.4219 8.63365 20.4219 8.63365L20.7845 8.6866H20.7841C20.7841 8.69045 20.9186 8.84105 20.9186 8.84105L21.1147 8.96143C21.189 8.97515 21.2635 8.9884 21.338 9.00118L21.3691 9.00613L20.9104 8.44402C20.9074 8.44127 20.6881 8.3231 20.6881 8.3231C20.6863 8.322 20.4291 8.24303 20.4291 8.24303C20.4291 8.24028 20.2026 7.98341 20.2026 7.98341C20.2 7.98067 19.9164 7.81009 19.9164 7.81009C19.8479 7.79274 19.7792 7.77601 19.7103 7.75989C19.7231 7.73919 19.7658 7.66883 19.7658 7.66847C19.7665 7.67048 19.993 7.56806 19.993 7.56806C19.993 7.56861 20.325 7.5032 20.325 7.5032C20.334 7.49551 20.3591 7.41618 20.3591 7.41618C20.3549 7.4028 20.213 7.31083 20.213 7.31083C20.1565 7.29246 20.0998 7.27438 20.043 7.25659C20.0326 7.25788 19.9428 7.31046 19.9428 7.31083C19.9428 7.30918 19.665 7.32182 19.665 7.32182C19.665 7.32164 19.3331 7.24359 19.3331 7.24322C19.3331 7.24157 18.991 6.95649 18.991 6.95649C18.9386 6.92953 18.8862 6.90278 18.8336 6.87624C18.8298 6.8755 18.2647 6.80936 18.2632 6.80936C18.2632 6.80222 18.1304 6.60398 18.1304 6.60398L17.9487 6.40537C17.9479 6.40427 17.7173 6.19614 17.7173 6.19614L17.7101 6.21134L17.6328 6.38247C17.6332 6.38082 17.5566 6.49918 17.5566 6.49918V6.50211C17.5566 6.52391 17.5674 6.63824 17.5674 6.63824C17.5707 6.64539 17.6454 6.72197 17.6471 6.72417C17.6432 6.72417 17.6189 6.84326 17.6189 6.84418C17.6181 6.83593 17.3089 6.84857 17.3083 6.84857C17.3083 6.84711 17.0557 6.73113 17.0557 6.73113C17.054 6.73003 16.8604 6.66444 16.8604 6.66444C16.8565 6.66316 16.406 6.67708 16.406 6.67708C16.3961 6.68221 16.3197 6.80057 16.3197 6.80057L16.3094 6.81614L16.5077 6.84473C16.5077 6.84546 16.537 6.86415 16.5533 6.87459L16.5025 6.916C16.5025 6.91343 16.2268 6.90079 16.2268 6.90079C16.2222 6.90152 16.0282 6.98012 16.0282 6.98012L16.008 6.98873L16.1042 7.05341C16.1103 7.05561 16.5223 7.06862 16.5223 7.06862L16.8283 7.1474V7.14777C16.8283 7.15198 16.8866 7.23516 16.8866 7.23516C16.8866 7.23516 16.928 7.29361 16.9435 7.31651L16.8125 7.3887C16.8142 7.38851 16.4402 7.54626 16.4402 7.54626L15.6672 7.9803C15.6665 7.97957 15.1583 8.05542 15.1583 8.05542C15.1544 8.05671 14.9593 8.16535 14.9593 8.16535C14.9551 8.16828 14.7984 8.3854 14.7984 8.3854C14.7968 8.38815 14.7081 8.65839 14.7081 8.65839C14.7011 9.11753 14.7195 9.12816 14.7261 9.13182C14.7413 9.14135 14.8739 9.21647 14.9765 9.1615C15.0927 9.09829 15.3413 9.03618 15.4705 9.0087C15.5342 8.99569 15.5641 9.01859 15.5694 9.04223C15.5764 9.06806 15.5571 9.10324 15.5095 9.11625L15.4827 9.12413C15.2581 9.18514 15.0289 9.25897 15.0364 9.34564L15.076 9.41178C15.1762 9.48488 15.4368 9.45025 15.5751 9.41892L15.7195 9.37843C15.8441 9.34051 15.9857 9.29818 16.1066 9.31174C16.1764 9.3198 16.238 9.34985 16.3107 9.38411C16.4093 9.43175 16.522 9.4858 16.69 9.49679C16.9701 9.51621 17.1614 9.57283 17.1764 9.58932C17.214 9.66572 17.1898 9.77876 17.1709 9.86964L17.1564 9.9519C17.078 10.663 16.2841 11.4669 15.9016 11.8526C15.7982 11.957 15.7299 12.0259 15.7153 12.0547L15.6713 12.1564C15.6341 12.2507 15.6039 12.3321 15.4826 12.3808C15.4124 12.4081 15.2488 12.5312 15.059 12.6734C14.7849 12.8779 14.445 13.1322 14.3514 13.1212C14.1947 13.1027 13.4631 12.599 13.4324 12.5681C12.7198 11.8786 12.4217 12.0201 12.2433 12.1043L12.2151 12.1175C12.0025 12.2143 11.7794 12.8163 11.7592 12.9455L11.6731 13.3163L11.607 13.5888C11.5874 13.6809 11.4996 13.9074 11.4159 14.1261L11.244 14.6025C11.2156 14.7128 11.1467 14.8678 11.0907 14.9931L11.0146 15.1787C10.9617 15.3966 10.9608 16.5897 11.0529 16.6952L11.057 16.6996L11.0751 16.7049C11.1676 16.6954 11.3662 16.4907 11.4615 16.392L11.4835 16.3691C11.5641 16.2881 11.6497 16.0719 11.6497 15.981C11.6497 15.892 11.6081 15.7058 11.5916 15.6551C11.4626 15.2612 11.5113 14.8858 11.5348 14.7058L11.5441 14.6256C11.5509 14.542 11.6346 14.4495 11.716 14.3608L11.8188 14.2419C11.8752 14.1668 11.9379 14.1419 11.9937 14.1197L12.0855 14.0673L12.0998 14.0525C12.1607 13.9915 12.2627 13.8885 12.3074 13.7507L12.3946 13.3735L12.4137 13.2727C12.4181 13.2526 12.4283 13.2414 12.4454 13.2377C12.48 13.23 12.5319 13.2575 12.554 13.287L13.1847 14.0188C13.3463 14.1564 13.5122 14.3205 13.5122 14.3566L13.5121 14.3597C13.5121 14.3592 13.5082 14.3599 13.5082 14.3599C13.4199 14.3691 12.9756 14.2744 12.9018 14.2533C12.2981 14.0763 12.0225 14.1074 11.81 14.3735C11.5678 14.6782 11.644 15.6113 11.6935 15.7135C11.7389 15.8062 11.9599 16.9431 11.9697 17.0946C11.9796 17.2432 12.0372 17.5089 12.0973 17.5699L12.1138 17.5867C12.1881 17.6604 12.3842 17.8573 12.4188 18.0516C12.4562 18.263 12.9053 18.8291 13.0766 18.8799C13.1026 18.8874 13.1307 18.882 13.152 18.8652C13.2827 18.7725 13.342 18.3194 13.3492 18.1281C13.3576 17.8898 13.2721 17.7745 13.1812 17.6512L13.1464 17.603C13.0795 17.5118 12.9617 17.4786 12.884 17.4568C12.8508 17.4475 12.8054 17.4365 12.8054 17.4262C12.8054 17.4228 12.7962 17.0735 12.6848 17.0061C12.5982 16.9528 12.5095 16.6159 12.4991 16.4876C12.489 16.3603 12.4397 16.0528 12.3736 15.9178C12.3067 15.7822 12.2504 15.5323 12.279 15.3396C12.2909 15.2568 12.3499 15.2307 12.3979 15.2232C12.4807 15.21 12.5764 15.2458 12.5912 15.2747C12.6242 15.341 13.2609 15.7251 13.4756 15.8075C13.609 15.8581 13.7895 16.0105 13.9489 16.1465C14.0623 16.2416 14.1597 16.3235 14.2206 16.3526C14.3026 16.3922 14.5353 16.3967 14.7222 16.4004C14.8213 16.4021 14.9243 16.4044 14.9382 16.4127C14.8624 16.4431 14.8633 16.5761 14.8695 16.619C14.947 17.1692 16.9487 18.6805 17.1035 18.7654C17.2827 18.8616 17.9254 19.5327 17.9816 19.6239C18.0399 19.7141 18.0965 19.8121 18.0857 19.8876C18.0703 19.9992 18.115 20.1267 18.2044 20.2307C18.29 20.3277 18.4016 20.3861 18.5047 20.3861C18.5941 20.3861 18.6539 20.3059 18.698 20.248L18.7074 20.2359C18.8268 20.0778 19.004 19.8462 19.0269 19.4839C19.0513 19.1126 19.2209 18.9651 19.2763 18.9554C19.301 18.9508 19.3191 18.9583 19.3257 18.9746C19.3325 18.9915 19.3243 19.0197 19.2907 19.0418C19.2174 19.0915 19.1716 19.2558 19.1214 19.4315C19.1211 19.433 19.1027 19.6109 19.1027 19.6109C19.0985 19.7437 19.0934 19.8943 18.9608 20.0404C18.7621 20.2555 18.5342 20.7514 18.4752 21.3777C18.4395 21.7549 18.6093 22.2983 18.9798 22.9909L19.0056 23.0404L19.1059 23.2086C19.2072 23.3714 19.3765 23.6422 19.3686 23.7056C19.3578 23.795 19.3494 23.8652 19.1951 24.0589C19.0254 24.2718 18.4063 24.9922 18.3459 25.0035C18.2228 25.0035 18.202 25.0193 18.1029 25.0944L17.9985 25.1739C17.8842 25.2551 17.8642 25.3159 17.845 25.3696C17.8309 25.4101 17.8175 25.4455 17.7643 25.4852L17.7246 25.512C17.7163 25.5191 17.694 25.5506 17.4452 25.7996C17.1599 26.0816 17.0326 26.4007 17.0765 26.7179C17.0907 26.817 17.176 26.8516 17.4292 26.8632C17.6821 26.8749 18.2618 26.4693 18.2876 26.3372L18.2966 26.2868C18.3188 26.1677 18.356 25.9669 18.4215 25.9379C18.5007 25.9033 18.6363 25.7468 18.7358 25.6331L18.755 25.6116C18.8079 25.5504 18.8208 25.4896 18.8334 25.4317C18.8442 25.3859 18.8541 25.3397 18.8842 25.2976C18.9078 25.2668 18.9424 25.25 18.9826 25.2315C19.0595 25.1946 19.1564 25.1477 19.2262 24.9724C19.2957 24.8005 19.7101 24.5032 20.0128 24.2868C20.1674 24.1769 20.2887 24.0889 20.3177 24.0503C20.3574 23.9984 20.3818 23.8986 20.3818 23.7927C20.3818 23.667 20.3481 23.5332 20.2691 23.4588C20.1542 23.3522 20.0461 23.0349 20.0139 22.9354V22.9332C20.0139 22.892 20.01 22.8165 20.0038 22.6759C20.0031 22.6695 20.0031 22.6628 20.0031 22.6567C20.0031 22.285 20.5557 21.9213 20.7942 21.7646L20.903 21.6895C21.768 20.9266 21.9373 20.3465 21.9694 20.1873L21.9869 19.9966C21.9923 19.8645 21.9967 19.7386 22.0764 19.7221C22.1075 19.7161 22.1594 19.7412 22.1909 19.7787C22.2088 19.7991 22.2352 19.8414 22.2176 19.8903C22.1782 19.9973 22.165 21.073 22.1647 21.1177C22.1676 21.1252 22.2577 21.2315 22.2577 21.2315L22.2742 21.2507L22.2792 21.2256C22.2803 21.2131 22.3299 20.92 22.3299 20.8163C22.3299 20.7003 22.5164 20.2036 22.5615 20.195C22.5615 20.1965 22.5644 20.2007 22.5644 20.2007C22.5863 20.2694 22.6141 20.439 22.6141 20.6179C22.6141 20.7936 22.5875 20.9783 22.5022 21.0853C22.3726 21.2456 22.2695 21.4993 22.2022 21.6668L22.1399 21.8091C22.1329 21.8289 22.1299 21.8498 22.131 21.8707C22.131 22.007 22.2011 22.2976 22.2473 22.3516C22.2594 22.3645 22.2691 22.3645 22.2759 22.3621C22.2909 22.3564 22.3045 22.337 22.3045 22.2228C22.3045 21.7881 22.6698 21.4728 22.6742 21.4704C22.9963 21.2148 23.0665 20.7408 23.0665 20.3797C23.0665 20.1063 23.0263 19.8976 23.0252 19.892C22.9743 19.8164 22.9228 19.7413 22.8706 19.6666C22.8781 19.6703 22.9201 19.6358 22.934 19.6246C22.9479 19.6426 23.0947 19.8372 23.0947 19.8372C23.1194 19.8718 23.1821 19.9728 23.1821 20.0129C23.1821 20.2366 23.2165 20.3898 23.2411 20.5021L23.2471 20.5286C23.2729 20.6477 23.434 21.0283 23.4411 21.0446L23.4584 21.0847L23.4637 21.0411C23.4637 21.0393 23.4891 20.8403 23.4637 20.6701C23.449 20.5746 23.4673 20.4576 23.4858 20.3311L23.5152 20.0409C23.5152 19.8051 23.4814 19.6562 23.3974 19.5206L23.3545 19.4555C23.3376 19.429 23.3211 19.403 23.323 19.3976L23.3545 19.3841C24.0348 19.1532 24.3514 18.6523 24.4803 18.3749C24.6156 18.081 24.6227 17.6285 24.6227 17.5415C24.6227 17.4281 24.6178 16.8399 24.519 16.5378C24.4611 16.3595 24.4796 16.1681 24.499 15.9614L24.5201 15.6076C24.5201 15.3656 24.6474 15.1859 24.7709 15.0122L24.918 14.7842C25.0142 14.5944 24.9631 14.4283 24.9245 14.3808Z" fill="#262625"/>
<path fill-rule="evenodd" clip-rule="evenodd" d="M17.3098 6.80533C17.3211 6.80606 17.4657 6.73736 17.4657 6.73736C17.4721 6.72435 17.4386 6.58749 17.4386 6.58749C17.3342 6.46374 17.2294 6.34043 17.124 6.21757L17.1084 6.19943L17.1031 6.22215L17.0694 6.37037C17.0696 6.36891 16.9695 6.60819 16.9695 6.60819L16.965 6.61827L17.1757 6.726L17.3098 6.80533Z" fill="#262625"/>
</g>
<defs>
<clipPath id="clip0_1032_27431">
<rect width="33.6" height="33.6" fill="white" transform="translate(1 1)"/>
</clipPath>
</defs>
</svg>
