<svg width="36" height="36" viewBox="0 0 36 36" fill="none" xmlns="http://www.w3.org/2000/svg">
<g clip-path="url(#clip0_833_2134)">
<path d="M3.17578 18.6711C3.17578 18.2385 3.17578 17.8116 3.17578 17.379C3.18732 17.2925 3.20462 17.2117 3.21616 17.1252C3.31422 16.4042 3.35459 15.6659 3.51033 14.9564C4.93506 8.35767 10.6109 3.54129 17.3423 3.22405C21.0108 3.051 24.3333 4.06042 27.2404 6.31576C30.2917 8.68069 32.1548 11.7782 32.8182 15.5909C32.9047 16.0812 32.9566 16.5772 33.02 17.0733C33.02 17.7136 33.02 18.3481 33.02 18.9883C33.0027 19.0633 32.9854 19.1383 32.9739 19.2133C32.8066 20.1535 32.7143 21.1168 32.4605 22.0224C30.4821 29.0018 23.8257 33.4894 16.5578 32.7453C13.0739 32.3934 10.0687 30.9629 7.58263 28.5057C5.20039 26.1523 3.78143 23.2971 3.32575 19.9747C3.26807 19.5421 3.22193 19.1037 3.17578 18.6711ZM17.873 4.90834C17.4807 4.90834 17.077 4.90257 16.6847 4.90834C16.5405 4.90834 16.3905 4.93141 16.2463 4.94295C13.345 5.17367 10.732 6.16579 8.3844 7.87315C7.29422 8.66338 6.38286 9.61512 5.95025 10.913C5.68491 11.7147 5.52341 12.5626 5.41381 13.4048C5.02735 16.3465 5.27538 19.2479 6.08868 22.0973C6.65396 24.1046 7.54225 25.962 8.76509 27.652C9.74567 28.996 11.0954 29.8093 12.6297 30.3458C16.0387 31.5282 19.4938 31.5917 22.9431 30.5995C25.2735 29.9304 27.1827 28.7191 28.3363 26.4177C29.8995 23.3029 30.8166 20.067 30.8455 16.5715C30.857 15.1929 30.7416 13.8143 30.5224 12.453C30.1879 10.3996 29.2073 8.74991 27.4307 7.62512C24.5236 5.77932 21.3281 4.89103 17.873 4.90834Z" fill="#262625"/>
<path d="M7.68555 13.9124C7.73169 12.8453 7.72592 11.8474 7.84129 10.8668C7.97395 9.7132 8.62575 8.88836 9.72169 8.43844C11.1695 7.84433 12.6923 7.51554 14.2381 7.30212C15.9224 7.06563 17.6183 6.97911 19.3198 7.03679C21.3791 7.10601 23.4094 7.34827 25.3533 8.06928C25.7744 8.22502 26.1781 8.4096 26.5819 8.61149C27.6432 9.14215 28.1335 10.0766 28.3066 11.1956C28.4046 11.807 28.4104 12.43 28.4277 13.0472C28.5315 17.1656 27.9317 21.186 26.6627 25.1083C26.4089 25.8812 26.132 26.6311 25.8494 27.3925C25.809 27.5021 25.734 27.6001 25.6475 27.6809C24.8284 28.425 23.8305 28.8172 22.7807 29.1056C20.8715 29.6248 18.9218 29.717 16.9607 29.5959C15.4956 29.5094 14.0478 29.2902 12.6634 28.7941C12.3347 28.673 12.0059 28.5288 11.6886 28.3731C11.0484 28.0616 10.6042 27.5886 10.3216 26.908C8.9603 23.6721 8.09508 20.3092 7.83552 16.8022C7.75476 15.8216 7.73169 14.8295 7.68555 13.9124ZM18.57 24.295C18.57 22.3915 18.57 20.5111 18.57 18.6249C19.1641 18.6249 19.7063 18.6249 20.2831 18.6249C20.2831 20.5284 20.2831 22.3973 20.2831 24.295C20.71 24.295 21.0964 24.295 21.5117 24.295C21.5175 24.2085 21.5233 24.1393 21.5233 24.0643C21.5233 21.0014 21.5233 17.9443 21.5233 14.8872C21.5233 14.7718 21.4944 14.6507 21.4367 14.5411C21.1137 13.8662 20.7734 13.1971 20.4446 12.528C20.3754 12.3723 20.2831 12.3204 20.1101 12.3262C19.3256 12.3377 18.5412 12.3319 17.7625 12.3319C17.4279 12.3319 17.4279 12.3319 17.4279 12.6665C17.4279 16.4388 17.4279 20.2112 17.4279 23.9951C17.4279 24.0989 17.4279 24.197 17.4279 24.3123C17.8028 24.295 18.1547 24.295 18.57 24.295ZM14.1458 12.3781C12.9518 12.3781 11.7636 12.3781 10.5927 12.3781C10.5927 16.3754 10.5927 20.3496 10.5927 24.3354C11.008 24.3354 11.4002 24.3354 11.8213 24.3354C11.8213 22.4261 11.8213 20.54 11.8213 18.6076C12.4558 18.6076 13.0614 18.6076 13.6556 18.6076C13.6556 18.1462 13.6556 17.7194 13.6556 17.2637C13.0326 17.2637 12.4327 17.2637 11.8328 17.2637C11.8328 16.0697 11.8328 14.893 11.8328 13.699C12.6115 13.699 13.3671 13.699 14.1458 13.699C14.1458 13.2375 14.1458 12.8164 14.1458 12.3781ZM24.3093 13.7163C24.7419 13.7163 25.1399 13.7163 25.5552 13.7163C25.5552 13.2491 25.5552 12.8107 25.5552 12.3781C24.292 12.3781 23.0518 12.3781 21.8117 12.3781C21.8117 12.8338 21.8117 13.2606 21.8117 13.7163C22.2212 13.7163 22.6019 13.7163 23.0576 13.7163C23.0576 17.2579 23.0576 20.7707 23.0576 24.295C23.5133 24.295 23.894 24.295 24.315 24.295C24.3093 20.7822 24.3093 17.2637 24.3093 13.7163ZM15.9455 24.3354C15.9455 20.3265 15.9455 16.3408 15.9455 12.3435C15.5244 12.3435 15.1322 12.3435 14.74 12.3435C14.74 16.3523 14.74 20.3381 14.74 24.3354C15.1437 24.3354 15.536 24.3354 15.9455 24.3354Z" fill="#262625"/>
<path d="M20.2724 16.9859C19.6898 16.9859 19.1476 16.9859 18.5996 16.9859C18.5996 15.8784 18.5996 14.7825 18.5996 13.6577C18.9169 13.6577 19.2283 13.6519 19.5456 13.6635C19.5975 13.6635 19.6667 13.75 19.6898 13.8077C19.8744 14.246 20.0532 14.6787 20.232 15.117C20.2493 15.1574 20.2666 15.2035 20.2666 15.2439C20.2724 15.815 20.2724 16.3975 20.2724 16.9859Z" fill="#262625"/>
</g>
<defs>
<clipPath id="clip0_833_2134">
<rect width="30" height="30" fill="white" transform="translate(3 3)"/>
</clipPath>
</defs>
</svg>
