<svg width="36" height="36" viewBox="0 0 36 36" fill="none" xmlns="http://www.w3.org/2000/svg">
<g clip-path="url(#clip0_442_18751)">
<path d="M17.996 3C9.72958 3 3 9.72958 3 18.004C3 26.2785 9.72958 33.0081 17.996 33.0081C26.2704 33.0081 32.9919 26.2785 32.9919 18.004C33 9.72958 26.2704 3 17.996 3ZM16.815 31.5764V27.6616C17.2033 27.7102 17.5915 27.7344 17.996 27.7344C18.3842 27.7344 18.7724 27.7102 19.1526 27.6697V31.5845C18.7724 31.6169 18.3842 31.6331 17.996 31.6331C17.5996 31.625 17.2033 31.6088 16.815 31.5764ZM20.8754 17.632V10.2149L19.1607 9.72149V17.6239H16.8231V9.72958L15.1084 10.223V17.6401H8.55675C8.70235 12.5444 12.876 8.45969 17.996 8.45969C23.1159 8.45969 27.2896 12.5524 27.4352 17.632H20.8754ZM27.4352 18.0283C27.3785 22.1777 24.6366 25.6881 20.8673 26.9013V18.0283H27.4352ZM15.1003 18.0283V26.8932C11.3473 25.68 8.61337 22.1696 8.55675 18.0283H15.1003ZM16.815 18.0283H19.1526V27.2734C18.7724 27.3219 18.3842 27.3462 17.996 27.3462C17.5996 27.3462 17.2033 27.3219 16.815 27.2734V18.0283ZM20.8754 31.3176V27.2977C24.8954 26.0682 27.8315 22.3152 27.8315 17.8989C27.8315 12.4796 23.4233 8.06336 17.996 8.06336C12.5767 8.06336 8.16042 12.4716 8.16042 17.8989C8.16042 22.3152 11.0803 26.052 15.0922 27.2977V31.3095C8.97735 29.983 4.37503 24.5152 4.37503 18.004C4.37503 10.4899 10.4899 4.37503 17.996 4.37503C25.5101 4.37503 31.625 10.4899 31.625 18.004C31.625 24.5314 27.0146 29.9992 20.8754 31.3176ZM6.21111 11.9296L6.88245 12.1723L6.09787 14.3319L6.65597 14.5341L7.40011 12.4958L8.07145 12.7466L7.3354 14.7848L8.32219 15.1407L8.00674 16.0305L5.10299 14.9709L6.21111 11.9296ZM11.225 10.3758L10.5493 11.0267L8.40566 8.80175L9.08129 8.1508L11.225 10.3758ZM14.1054 7.48908C14.162 7.64276 14.2348 7.73173 14.3238 7.74791C14.3562 7.756 14.4047 7.74791 14.4613 7.73982C14.5179 7.73173 14.5907 7.70747 14.6716 7.6832L14.9871 7.57805L15.2216 7.49717C15.3996 7.43246 15.4643 7.32731 15.4077 7.17363C15.3591 7.04422 15.2782 6.99569 15.1488 7.01186L14.9628 7.06039L14.7848 7.10892L14.2672 7.25452L13.9113 7.34349C13.8547 7.35967 13.7738 7.37584 13.6767 7.39202C13.4098 7.44055 13.2157 7.36775 13.0863 7.17363C13.0135 7.06848 12.9488 6.94716 12.9083 6.80965C12.8194 6.567 12.787 6.37288 12.787 6.25155C12.7951 6.04125 12.8841 5.87948 13.0377 5.75816C13.1914 5.63683 13.5473 5.48315 14.0892 5.29712C14.1863 5.26476 14.2672 5.2405 14.3562 5.21623C14.5584 5.15961 14.6959 5.11917 14.8415 5.10299C14.9871 5.07873 15.1165 5.07873 15.2216 5.0949C15.343 5.11108 15.4481 5.15961 15.5452 5.24858C15.6341 5.33756 15.715 5.45888 15.7635 5.61256L15.8283 5.80669L14.9385 6.11405L14.89 6.0089C14.8415 5.91992 14.7687 5.87139 14.6716 5.87139C14.6635 5.87139 14.6473 5.87139 14.6069 5.87948C14.5422 5.89566 14.4775 5.91184 14.4047 5.92801C14.4047 5.92801 14.2834 5.96037 14.2267 5.98463C14.1701 6.00081 14.0003 6.0736 14.0003 6.0736C13.9356 6.10596 13.8789 6.12214 13.8385 6.16258C13.7495 6.2192 13.7253 6.30817 13.7576 6.42141C13.7981 6.53465 13.8789 6.59126 14.0164 6.57509C14.0407 6.57509 14.0731 6.567 14.1135 6.55891C14.1539 6.55082 14.1863 6.54273 14.2187 6.53465L14.4532 6.46994L14.6878 6.39714L15.1731 6.25964C15.2378 6.23537 15.3025 6.2192 15.3672 6.21111C15.4319 6.20302 15.5047 6.19493 15.5694 6.19493C15.893 6.19493 16.1356 6.42141 16.2893 6.88245C16.4672 7.39202 16.3297 7.756 15.8849 7.98248C15.8606 7.99865 15.8202 8.01483 15.7635 8.03909C15.715 8.06336 15.6665 8.07954 15.6341 8.08762C15.5452 8.11998 15.4319 8.16042 15.2944 8.20895C15.1569 8.25748 15.076 8.28984 15.0518 8.29792C15.0194 8.30601 14.89 8.35454 14.6473 8.42734C14.4047 8.50822 14.801 8.36263 14.6716 8.41116C14.615 8.42734 14.5584 8.4516 14.5018 8.45969C14.4451 8.47587 14.3885 8.49205 14.3319 8.50013C14.2106 8.54058 14.0892 8.56484 13.9841 8.56484C13.8709 8.56484 13.7738 8.54058 13.6767 8.50822C13.5958 8.47587 13.5231 8.41925 13.4503 8.33028C13.3775 8.24131 13.3208 8.12807 13.2723 7.99865L13.1914 7.79644L14.1054 7.48908ZM20.6166 5.05446L20.3335 6.17067L20.5762 6.22729L21.8946 5.36991L22.9623 5.63683L21.1343 6.76921L22.4284 8.68617L21.3446 8.41116L20.3659 6.99569L20.1394 6.94716L19.8644 8.04718L18.9585 7.82071L19.7026 4.82799L20.6166 5.05446ZM29.4411 13.1348L28.7617 13.3936L29.0286 14.0812C29.0367 14.1054 29.0528 14.154 29.0771 14.2106C29.1014 14.2753 29.1176 14.3238 29.1337 14.3562C29.1499 14.3966 29.1661 14.429 29.1823 14.4532C29.1984 14.4775 29.2146 14.5018 29.2389 14.526C29.3117 14.5988 29.433 14.5988 29.6029 14.5341C29.7161 14.4856 29.797 14.429 29.8293 14.34C29.8536 14.2753 29.8455 14.1782 29.7889 14.0488L29.6918 13.79L29.4411 13.1348ZM30.622 13.9679C30.6624 14.065 30.6867 14.1297 30.6948 14.1701C30.7029 14.2106 30.7191 14.2591 30.7433 14.3319C30.8161 14.615 30.7919 14.8334 30.6624 14.9951C30.6139 15.0599 30.5573 15.1084 30.4926 15.1569C30.4279 15.1974 30.3632 15.2378 30.2985 15.2702C30.2338 15.3025 30.161 15.3349 30.0801 15.3672C29.8455 15.4562 29.6514 15.4966 29.5058 15.4724C29.3602 15.4562 29.2065 15.3349 29.0448 15.1246C29.069 15.3915 29.0448 15.5775 28.972 15.6665C28.8992 15.7635 28.7374 15.8606 28.4867 15.9577L28.1308 16.0952L27.791 15.2216L28.058 15.1165C28.2359 15.0437 28.3492 14.979 28.3896 14.9143C28.43 14.8415 28.4219 14.7201 28.3492 14.5341L28.0256 13.6848L27.3057 13.9598L26.966 13.0863L29.8536 11.9782L30.622 13.9679ZM25.8336 7.23025L28.1793 9.45457L27.6778 9.98032L26.0197 8.40307L25.7285 8.71043L27.3057 10.2068L26.8366 10.6921L25.2675 9.19574L24.8792 9.60016L26.5616 11.1936L26.0682 11.7193L23.7064 9.47075L25.8336 7.23025Z" fill="#262625"/>
</g>
<defs>
<clipPath id="clip0_442_18751">
<rect width="30" height="30" fill="white" transform="translate(3 3)"/>
</clipPath>
</defs>
</svg>
