<svg width="36" height="36" viewBox="0 0 36 36" fill="none" xmlns="http://www.w3.org/2000/svg">
<path d="M18.0525 11.6445C8.74172 11.6445 1.26172 14.443 1.26172 17.9476C1.26172 21.4261 8.79402 24.2507 18.0525 24.2507C27.3109 24.2507 34.8433 21.4261 34.8433 17.9476C34.8694 14.4953 27.3109 11.6445 18.0525 11.6445ZM18.0525 23.7015C9.16018 23.7015 1.96787 21.1384 1.96787 17.9476C1.96787 14.783 9.18633 12.1938 18.0525 12.1938C26.9448 12.1938 34.1371 14.7568 34.1371 17.9476C34.1633 21.1384 26.9448 23.7015 18.0525 23.7015ZM24.6694 19.2291C24.6694 19.2553 24.6694 19.2815 24.6694 19.2815C24.6694 19.3076 24.7217 19.3338 24.7479 19.3599C24.7479 19.3599 24.774 19.3861 24.7479 19.4122C24.6433 19.6476 24.5386 19.7784 24.4079 19.9615C24.2771 20.1445 24.1463 20.2753 23.9894 20.4061C23.754 20.6153 23.3879 20.8245 23.1002 20.6938C22.9694 20.6153 22.9171 20.4584 22.9171 20.3015C22.9171 19.9091 23.1002 19.4907 23.4402 19.0722C23.8325 18.5753 24.3033 18.3138 24.5909 18.4707C24.9048 18.6015 24.8263 18.9676 24.6694 19.2291ZM16.3525 16.6138C16.3263 16.4568 16.3786 16.2738 16.5356 16.143C16.614 16.0645 16.7186 16.0645 16.7971 16.1168C16.8756 16.1691 16.8233 16.3261 16.7709 16.4568C16.6925 16.5876 16.5617 16.6922 16.4309 16.6922C16.3786 16.6661 16.3525 16.6661 16.3525 16.6138ZM18.0525 12.6907C9.47403 12.6907 2.5171 15.0707 2.5171 17.9738C2.5171 20.8507 9.47403 23.2307 18.0525 23.2307C26.6309 23.2307 33.5879 20.8507 33.5879 17.9476C33.5879 15.0445 26.6309 12.6907 18.0525 12.6907ZM10.0756 21.4261C9.16018 21.4261 8.34941 20.8768 8.2448 19.883C8.19249 19.3338 8.34941 18.863 8.66326 18.4445C8.9248 18.0784 9.39556 17.7907 9.78787 17.7122C9.91864 17.6861 10.0756 17.7122 10.154 17.7907C10.2586 17.9215 10.2325 18.0522 10.1279 18.1307C9.84018 18.2876 9.47403 18.5491 9.29095 18.8891C9.13403 19.1768 9.10787 19.543 9.34326 19.8568C9.70941 20.4061 10.7294 20.4322 11.6971 19.543C11.9325 19.3338 12.1417 19.1245 12.3509 18.863C12.7694 18.3922 12.9002 18.2091 13.4756 17.4245V17.3984C13.4756 17.3984 13.4756 17.3984 13.4494 17.3722C13.0833 17.3722 12.7433 17.503 12.4294 17.7384C12.3509 17.8168 12.2202 17.7907 12.1417 17.7122C12.0894 17.6076 12.1156 17.4768 12.2202 17.4245C12.7171 17.0584 13.2925 17.0061 13.8417 16.9015C13.8417 16.9015 13.894 16.9015 13.9202 16.8491C14.1556 16.5615 14.3386 16.2738 14.574 15.9861C14.8356 15.6722 15.1494 15.4107 15.3848 15.1753C15.7248 14.8876 15.9602 14.783 16.1694 14.6522C16.2217 14.6261 16.1694 14.5738 16.1433 14.5738C14.8879 14.3384 13.5802 14.0245 12.3509 14.4953C11.4879 14.8091 11.1217 15.4891 11.3048 15.9599C11.4356 16.2738 11.854 16.3261 12.2725 16.143C12.6125 15.9861 12.9002 15.7245 13.1356 15.3845C13.2663 15.2015 13.5017 15.3322 13.3709 15.6461C13.0048 16.5091 12.2986 17.1891 11.4617 17.2153C10.7294 17.2415 10.2848 16.7184 10.2848 16.0645C10.2848 14.783 11.7233 13.9199 13.2402 13.7891C15.0709 13.6322 16.7971 14.1291 18.6017 14.3384C19.9879 14.4953 21.3217 14.5215 22.7079 14.1815C22.8648 14.1553 22.9956 14.2599 22.9694 14.4168C22.9433 14.6522 22.7602 14.8876 22.3156 15.1491C21.7925 15.4368 21.2433 15.5153 20.6679 15.5153C19.2817 15.5153 18.0002 14.9922 16.6663 14.7045C16.6663 14.7568 16.6925 14.8353 16.6402 14.8615C15.9079 15.4107 15.2279 15.9599 14.7833 16.7184C14.7571 16.7445 14.7833 16.7445 14.8094 16.7445C15.2017 16.7184 15.5417 16.7184 15.9079 16.6922C15.9602 16.6922 15.9602 16.6661 15.9602 16.6138C15.934 16.3522 16.0125 16.0384 16.2479 15.8291C16.4833 15.6199 16.7971 15.5938 16.9802 15.7507C17.2156 15.9338 17.1894 16.2476 17.0586 16.483C16.9279 16.7184 16.7186 16.8491 16.5356 16.9276C16.5356 16.9276 16.4833 16.9276 16.5094 16.9799C16.5094 17.0322 16.7971 17.1891 16.8233 17.2415C16.8494 17.2676 16.8233 17.3461 16.7971 17.3722C16.7709 17.3984 16.7186 17.4245 16.6663 17.4245C16.614 17.4245 16.5879 17.3984 16.5356 17.3722C16.4048 17.2938 16.2479 17.1891 16.1694 17.0584C16.1433 17.0061 16.1171 17.0061 16.0386 17.0061C15.6463 17.0322 15.0448 17.0845 14.6263 17.1368C14.5217 17.1368 14.5217 17.163 14.4956 17.2153C13.8417 18.2876 13.1356 19.4645 12.3509 20.2491C11.514 21.1907 10.8079 21.4261 10.0756 21.4261ZM27.9386 16.143C27.8079 16.3522 25.3494 20.1184 25.1925 20.4845C25.1402 20.6153 25.1402 20.6938 25.1925 20.7722C25.3233 20.9553 25.6109 20.8507 25.794 20.7199C26.3171 20.3538 26.6833 19.9091 27.1017 19.5168C27.1279 19.4907 27.154 19.4907 27.1802 19.5168C27.2325 19.5691 27.3371 19.6476 27.3894 19.6999C27.4156 19.7261 27.4156 19.7522 27.3894 19.7784C26.9971 20.2753 26.5525 20.7199 26.134 21.0599C25.4802 21.5568 24.8263 21.6876 24.4863 21.3738C24.3556 21.243 24.3033 21.0861 24.3033 20.9291C24.3033 20.8507 24.2509 20.8507 24.2248 20.8768C23.8325 21.2691 23.1525 21.6876 22.5509 21.3738C22.0279 21.1122 21.9233 20.5107 22.0279 19.9876C22.0279 19.9876 22.0279 19.9091 21.9494 19.9353C21.8448 20.0138 21.714 20.0922 21.5309 20.1707C21.3217 20.2491 21.2171 20.2753 21.0079 20.2753C20.7463 20.2753 20.5371 20.1707 20.3802 19.9091C20.3017 19.7784 20.2494 19.5691 20.2494 19.4122C20.2494 19.3861 20.2233 19.3599 20.1971 19.4122C19.7786 20.0399 19.3863 20.6676 18.9679 21.3215C18.9417 21.3476 18.9156 21.3738 18.8894 21.3738C18.6279 21.3738 18.3402 21.3738 18.0786 21.3738C18.0263 21.3738 18.0002 21.3476 18.0263 21.2953C18.1833 21.0076 18.9679 19.8568 19.5171 18.863C19.674 18.6015 19.6479 18.4445 19.5433 18.3922C19.4386 18.3138 19.2033 18.4184 18.994 18.5753C18.4709 18.9676 18.0263 19.5953 17.7909 19.883C17.6602 20.0399 17.5294 20.3015 17.1894 20.6676C16.6402 21.2691 15.9079 21.6091 15.2279 21.3738C14.8356 21.243 14.574 20.9291 14.4694 20.563C14.4433 20.4845 14.4171 20.4584 14.3648 20.5107C14.2602 20.6415 14.0248 20.8507 13.8156 20.9815C13.7894 21.0076 13.7371 21.0338 13.6848 21.0076C13.6325 20.9815 13.5017 20.7984 13.4756 20.7199C13.4494 20.6676 13.4756 20.6415 13.5017 20.6153C13.7894 20.3799 13.9202 20.223 14.0509 20.0922C14.1294 19.9876 14.2079 19.8568 14.2863 19.6476C14.4433 19.2291 14.8356 18.4445 15.594 18.0261C15.8817 17.8691 16.1694 17.7645 16.5094 17.7122C16.6402 17.6861 16.7709 17.7122 16.7971 17.8168C16.8233 17.8691 16.8494 17.9738 16.8756 18.0261C16.9017 18.0784 16.8756 18.1045 16.8233 18.1307C16.3786 18.3138 15.934 18.5753 15.6202 18.9938C15.254 19.4645 15.1756 20.0399 15.4109 20.3538C15.594 20.5891 15.8556 20.6415 16.1433 20.5368C16.5617 20.4061 16.9017 20.0399 17.0848 19.5953C17.2679 19.1245 17.3202 18.6015 17.1633 18.1045C17.1371 18.0261 17.1633 17.9476 17.2156 17.9215C17.3202 17.843 17.4771 17.7645 17.5033 17.7384C17.6079 17.6861 17.7125 17.7122 17.7648 17.7907C17.9217 17.9999 18.0002 18.3138 18.0002 18.6538C18.0002 18.7322 18.0263 18.7322 18.0786 18.6799C18.3402 18.3922 18.6017 18.1045 18.8633 17.8691C19.1248 17.6599 19.4648 17.503 19.7525 17.503C20.1448 17.503 20.354 17.7907 20.3279 18.2615C20.3279 18.3138 20.3802 18.3138 20.4063 18.2876C20.5371 18.1045 20.6156 18.0261 20.7463 17.9215C21.034 17.6861 21.2956 17.5815 21.6094 17.6076C21.9756 17.6338 22.2633 17.9738 22.2109 18.3399C22.1848 18.5753 22.0279 18.8107 21.8186 18.9153C21.6356 19.0199 21.4002 18.9938 21.2433 18.863C21.1125 18.7584 21.0863 18.5753 21.1125 18.4184C21.1125 18.3922 21.0863 18.3399 21.034 18.3922C20.6679 18.7584 20.6417 19.2291 20.8771 19.4645C21.1386 19.6999 21.5048 19.543 21.7925 19.3599C22.3156 19.0199 22.7079 18.5753 23.1525 18.2091C23.4663 17.9738 23.8063 17.7645 24.1986 17.7122C24.4079 17.6861 24.6171 17.6861 24.8263 17.7907C25.114 17.8953 25.2709 18.1307 25.2971 18.3399C25.2971 18.3922 25.3494 18.4184 25.3756 18.3661C25.5848 18.0261 26.7879 16.2476 26.8925 16.0645C26.9186 16.0122 26.9448 15.9861 27.0233 15.9861C27.2848 15.9861 27.6248 15.9861 27.8602 15.9861C27.9386 16.0907 27.9386 16.1168 27.9386 16.143Z" fill="#262625"/>
</svg>
