<svg width="36" height="36" viewBox="0 0 36 36" fill="none" xmlns="http://www.w3.org/2000/svg">
<path d="M12.0929 17.6715L11.0162 15.6684L33.6906 15.6841L33.7698 15.8875C34.002 16.7639 34.3686 18.673 33.0573 20.77C31.648 23.0234 29.1146 24.5556 27.3412 25.2612C26.1219 25.7463 23.256 26.9356 18.5849 26.9982C13.9139 27.0608 9.65688 25.4658 8.02359 24.4631C4.88844 22.5383 3.97006 20.77 3.65338 20.2066C3.32263 19.6182 2.95668 18.4383 3.00418 17.1864C3.05168 15.9345 3.90103 13.3399 6.59852 11.412C9.40115 9.4089 13.2647 7.9692 18.5849 8.0005C23.9052 8.0318 27.2462 9.22111 30.128 11.2398C32.6456 13.0034 33.4162 14.7608 33.6748 15.6684C32.8092 15.4181 31.002 14.9173 30.8247 14.8547C30.603 14.7765 29.9538 14.5887 29.8271 14.1505C29.7004 13.7123 28.1329 12.1161 25.061 10.8486C21.9892 9.58103 18.3632 9.44019 15.0381 9.92531C11.7129 10.4104 9.51199 12.1318 8.56194 12.7891C7.6119 13.4463 6.1227 15.3085 6.02849 17.4368C5.93844 19.4711 7.73857 21.5994 9.40115 22.8669C11.0637 24.1345 15.8931 25.2925 18.5849 25.2925C20.7384 25.2925 22.8073 24.75 23.5726 24.4631C24.7391 24.098 27.1068 22.8481 27.2462 20.77C27.3855 18.6918 23.8207 18.214 22.0209 18.2349H13.0905C12.7611 18.2349 12.2882 17.8593 12.0929 17.6715Z" fill="#262625"/>
</svg>
