<svg width="36" height="36" viewBox="0 0 36 36" fill="none" xmlns="http://www.w3.org/2000/svg">
<path d="M3.53926 15.0539C3.95593 15.0735 4.34808 15.0882 4.74024 15.1078C4.96083 15.1176 5.18632 15.1274 5.40691 15.1372C5.75005 15.1519 6.09318 15.1715 6.43632 15.1862C6.65691 15.1961 6.87259 15.2059 7.09318 15.2157C7.34808 15.2255 7.60299 15.2402 7.85299 15.25C8.03926 15.2598 8.22063 15.2647 8.40691 15.2745C8.76475 15.2941 9.12259 15.3088 9.48044 15.3284C9.66671 15.3382 9.85299 15.3431 10.0442 15.3529C10.353 15.3676 10.6618 15.3872 10.9657 15.4019C11.1667 15.4117 11.3677 15.4215 11.5638 15.4313C11.8726 15.4461 12.1863 15.4657 12.4951 15.4804C12.6814 15.4902 12.8677 15.5 13.0589 15.5098C13.2893 15.5196 13.5246 15.5245 13.7549 15.5441C14.1765 15.5735 14.5687 15.4755 14.9559 15.3333C15.5393 15.1176 16.1324 14.9411 16.7353 14.7892C17.1275 14.6911 17.5197 14.6029 17.9167 14.5147C17.9657 14.5049 18.0197 14.5049 18.0687 14.5147C18.9314 14.6911 19.7844 14.9166 20.6226 15.1911C20.8873 15.2794 21.152 15.3725 21.4167 15.4608C21.5932 15.5196 21.7746 15.549 21.9608 15.5441C22.2353 15.5392 22.5049 15.5245 22.7795 15.5147C22.9853 15.5049 23.1912 15.5 23.3971 15.4902C23.701 15.4755 24.0049 15.4559 24.3089 15.4411C24.5197 15.4313 24.7304 15.4215 24.9363 15.4117C25.2549 15.397 25.5687 15.3774 25.8873 15.3627C26.1177 15.3529 26.3432 15.3431 26.5736 15.3333C26.8922 15.3186 27.2157 15.299 27.5344 15.2843C27.7549 15.2745 27.9706 15.2696 28.1912 15.2549C28.5197 15.2402 28.853 15.2206 29.1814 15.2059C29.4118 15.1961 29.6373 15.1862 29.8677 15.1764C30.2059 15.1617 30.5393 15.1421 30.8775 15.1274C31.1079 15.1176 31.3432 15.1078 31.5736 15.098C31.8726 15.0882 32.1716 15.0735 32.4706 15.0686C32.5344 15.0686 32.603 15.0784 32.6667 15.0931C32.8432 15.1372 32.8971 15.2451 32.8089 15.4068C32.7206 15.5784 32.6275 15.7451 32.5295 15.9068C32.2795 16.3137 32.0049 16.701 31.6667 17.0441C31.4559 17.2549 31.2157 17.4264 30.9412 17.549C30.5736 17.7157 30.1961 17.8382 29.8138 17.9608C28.6422 18.3235 27.4804 18.696 26.304 19.049C24.8971 19.4657 23.4902 19.8676 22.0785 20.2696C21.4167 20.4608 20.75 20.6519 20.0834 20.8284C19.4118 21.0049 18.7402 21.1617 18.0638 21.3284C18.0098 21.3431 17.951 21.3382 17.8971 21.3284C16.5687 21.0196 15.25 20.6715 13.9412 20.2892C12.5148 19.8725 11.0785 19.4706 9.65201 19.049C8.48534 18.701 7.32848 18.3333 6.17161 17.9706C5.84808 17.8676 5.53436 17.7549 5.21573 17.6372C4.76965 17.4755 4.41181 17.196 4.10299 16.8382C3.73534 16.4068 3.42652 15.9362 3.16671 15.4362C3.06867 15.2451 3.1275 15.1323 3.33828 15.0931C3.42161 15.0637 3.49514 15.0588 3.53926 15.0539ZM13.7746 17.8578C13.7059 17.8676 13.6422 17.8774 13.5785 17.8823C13.402 17.8921 13.2304 17.897 13.054 17.9019C12.8579 17.9068 12.6618 17.9117 12.4657 17.9215C12.3481 17.9264 12.2304 17.9313 12.1177 17.9411C12.0049 17.946 11.8922 17.9608 11.7746 17.9657C11.6079 17.9706 11.4363 17.9706 11.2697 17.9804C11.0148 17.9902 10.7648 18.0098 10.5098 18.0245C10.3236 18.0343 10.1373 18.0441 9.95103 18.0539C9.75985 18.0637 9.56867 18.0686 9.3824 18.0735C9.32848 18.0735 9.27456 18.0735 9.22063 18.0735C9.10789 18.0784 9.00005 18.0833 8.8873 18.0882C8.77456 18.0931 8.66671 18.0931 8.55397 18.098C8.52946 18.098 8.50495 18.1127 8.48044 18.1176C8.48044 18.1274 8.48044 18.1323 8.48044 18.1421C8.51475 18.1568 8.54416 18.1764 8.58338 18.1862C8.72063 18.2255 8.85789 18.2598 8.99514 18.3039C9.80887 18.5539 10.6226 18.8088 11.4461 19.0196C11.6814 19.0784 11.9167 19.1372 12.1618 19.1274C12.5736 19.1176 12.9804 19.098 13.3922 19.0931C13.7206 19.0882 14.0491 19.0833 14.3775 19.0882C14.5442 19.0882 14.6961 19.147 14.8285 19.2451C14.8677 19.2745 14.8922 19.3088 14.8873 19.3725C14.8236 19.397 14.7549 19.4264 14.6814 19.451C14.4167 19.5343 14.152 19.6127 13.8873 19.6961C13.8481 19.7059 13.7942 19.7157 13.7991 19.7647C13.804 19.8186 13.8579 19.8235 13.902 19.8333C14.0442 19.8725 14.1912 19.9019 14.3334 19.9461C14.8481 20.1029 15.3579 20.2647 15.8726 20.4166C16 20.4559 16.1324 20.4804 16.2599 20.5098C16.2991 20.5196 16.3334 20.5196 16.3677 20.4755C16.3481 20.451 16.3383 20.4215 16.3138 20.4019C16.2697 20.3578 16.2255 20.3186 16.1814 20.2794C15.8579 20.0098 15.5589 19.7206 15.3138 19.3823C15.0246 18.9853 14.7549 18.5686 14.4755 18.1666C14.2697 17.8676 14.0687 17.5686 13.8481 17.2745C13.7402 17.1323 13.6128 17 13.4804 16.8725C13.2991 16.6961 13.0589 16.6274 12.8236 16.5637C12.304 16.4264 11.7746 16.348 11.2402 16.2745C10.9706 16.2353 10.6961 16.2059 10.4265 16.1764C10.1226 16.1372 9.81377 16.1029 9.50985 16.0686C9.25495 16.0392 9.00005 16.0147 8.74514 15.9853C8.35299 15.9411 7.95593 15.897 7.56377 15.8529C7.36279 15.8333 7.16671 15.8137 6.96573 15.7941C6.68632 15.7647 6.41181 15.7353 6.1324 15.7059C5.95103 15.6862 5.77456 15.6715 5.59318 15.6519C5.49024 15.6421 5.3922 15.6225 5.28926 15.6127C5.19122 15.6029 5.08828 15.6029 4.98534 15.5882C4.74514 15.549 4.50495 15.549 4.26475 15.5539C4.24514 15.5539 4.22554 15.5686 4.20103 15.5735C4.23534 15.6961 4.29907 15.7941 4.36769 15.8921C4.59808 16.2206 4.86769 16.5049 5.17652 16.7598C5.50985 17.0392 5.8775 17.2255 6.31377 17.2745C6.51965 17.299 6.72063 17.3333 6.92652 17.3529C7.20593 17.3823 7.48044 17.4019 7.75985 17.4215C8.00005 17.4362 8.23534 17.4411 8.47554 17.451C8.76965 17.4608 9.05887 17.4755 9.35299 17.4804C9.8922 17.4853 10.4363 17.4804 10.9755 17.4853C11.3775 17.4853 11.7746 17.5 12.1765 17.5C12.3873 17.5 12.5981 17.5 12.8089 17.5C12.9314 17.5 13.0589 17.5 13.1814 17.5C13.2353 17.5 13.2893 17.5049 13.3383 17.5196C13.4706 17.5637 13.5883 17.6274 13.6961 17.7157C13.7402 17.7451 13.7746 17.7843 13.7746 17.8578ZM21.1079 19.299C21.1324 19.2794 21.152 19.2549 21.1814 19.2304C21.3089 19.1372 21.4559 19.0882 21.6079 19.0833C21.8677 19.0784 22.1275 19.0784 22.3873 19.0833C22.8334 19.0931 23.2844 19.1127 23.7304 19.1225C23.8432 19.1274 23.9559 19.1323 24.0638 19.1078C24.3236 19.0588 24.5883 19.0049 24.8432 18.9313C25.4657 18.7549 26.0883 18.5686 26.7108 18.3823C26.9314 18.3186 27.1471 18.2549 27.3677 18.1911C27.4167 18.1764 27.4657 18.1617 27.4951 18.1029C27.4706 18.098 27.451 18.0882 27.4314 18.0882C27.3236 18.0833 27.2157 18.0882 27.1128 18.0833C27.0049 18.0784 26.8971 18.0539 26.7893 18.0539C26.6128 18.0588 26.4363 18.0343 26.2599 18.0392C26.0638 18.0441 25.8677 18.0098 25.6716 18.0049C25.4363 18 25.201 17.9853 24.9706 17.9706C24.8138 17.9657 24.652 17.9608 24.4951 17.951C24.4265 17.9461 24.3579 17.946 24.2844 17.9411C24.1079 17.9313 23.9314 17.9166 23.7549 17.9117C23.554 17.9019 23.3481 17.897 23.1471 17.8921C23.0295 17.8872 22.9118 17.8774 22.7942 17.8725C22.6079 17.8676 22.4216 17.8578 22.2353 17.8529C22.2206 17.8529 22.2059 17.8431 22.1814 17.8333C22.2059 17.7941 22.2206 17.7598 22.2451 17.7353C22.3432 17.6274 22.4755 17.5686 22.6079 17.5147C22.7549 17.4559 22.9118 17.4608 23.0687 17.4559C24.4069 17.446 25.75 17.4706 27.0883 17.4362C27.3922 17.4264 27.6912 17.4264 27.9951 17.4068C28.4069 17.3823 28.8187 17.348 29.2304 17.3137C29.4069 17.299 29.5834 17.2696 29.7599 17.2402C29.9608 17.2059 30.1569 17.1617 30.3383 17.0588C30.5736 16.9313 30.7844 16.7696 30.9853 16.5882C31.2746 16.3235 31.5246 16.0196 31.7353 15.6911C31.7599 15.6519 31.7942 15.6078 31.7746 15.549C31.75 15.549 31.7304 15.5441 31.7108 15.5441C31.3334 15.5392 30.9657 15.5833 30.5932 15.6225C30.2157 15.6666 29.8432 15.701 29.4657 15.7353C29.2746 15.7549 29.0785 15.7745 28.8873 15.7941C28.5491 15.8284 28.2108 15.8676 27.8726 15.9068C27.6128 15.9362 27.353 15.9608 27.0981 15.9902C26.7157 16.0343 26.3334 16.0784 25.9559 16.1225C25.7697 16.1421 25.5834 16.1617 25.3971 16.1862C25.1373 16.2206 24.8824 16.25 24.6226 16.2892C24.3187 16.3333 24.0148 16.3823 23.7108 16.4362C23.5295 16.4706 23.353 16.5147 23.1765 16.5588C22.8971 16.6274 22.6275 16.7255 22.4265 16.9461C22.2893 17.098 22.152 17.2451 22.0344 17.4117C21.6961 17.897 21.3726 18.3823 21.0442 18.8725C20.7549 19.3088 20.4314 19.7157 20.0442 20.0686C19.9363 20.1666 19.8285 20.2549 19.7206 20.3529C19.6814 20.3872 19.6422 20.4166 19.6324 20.4853C19.6667 20.4902 19.6961 20.5 19.7206 20.4951C19.8432 20.4706 19.9706 20.451 20.0932 20.4117C20.5197 20.2843 20.9412 20.1519 21.3677 20.0245C21.6177 19.951 21.8677 19.8529 22.1275 19.8137C22.1569 19.8088 22.201 19.799 22.201 19.7549C22.2059 19.7108 22.1667 19.701 22.1324 19.6862C22.1275 19.6862 22.1226 19.6813 22.1128 19.6813C21.8726 19.6029 21.6324 19.5245 21.3922 19.4411C21.3285 19.4215 21.2648 19.4019 21.201 19.3774C21.1569 19.3725 21.1177 19.3578 21.1079 19.299ZM18 15.7304C18 15.7353 18 15.7353 18 15.7402C17.9755 15.7402 17.9559 15.7402 17.9314 15.7451C17.8726 15.7549 17.8187 15.7647 17.7648 15.7745C17.1814 15.897 16.6128 16.0588 16.0491 16.2549C15.853 16.3235 15.6569 16.4068 15.4706 16.4951C15.3383 16.5539 15.3236 16.6029 15.3628 16.7402C15.4216 16.9362 15.4755 17.1323 15.5442 17.3235C15.6961 17.7745 15.8726 18.2108 16.1128 18.6225C16.2059 18.7843 16.3138 18.9411 16.4559 19.0637C16.8726 19.4264 17.3383 19.7157 17.8383 19.9559C17.9559 20.0098 18.0638 20.0196 18.1716 19.951C18.1814 19.946 18.1961 19.9411 18.2059 19.9362C18.4804 19.8088 18.7402 19.6568 18.9902 19.4853C19.1618 19.3676 19.3236 19.2451 19.4853 19.1176C19.7157 18.9362 19.8628 18.6911 19.9951 18.4362C20.1814 18.0784 20.3334 17.701 20.4608 17.3186C20.5295 17.1176 20.5883 16.9166 20.6471 16.7157C20.6765 16.6127 20.6569 16.5735 20.5687 16.5147C20.5442 16.5 20.5197 16.4853 20.4951 16.4755C20.3432 16.4117 20.1912 16.3382 20.0393 16.2843C19.5197 16.098 18.9853 15.951 18.4461 15.8235C18.2991 15.7843 18.1471 15.7598 18 15.7304Z" fill="#262625"/>
</svg>
