<svg width="36" height="36" viewBox="0 0 36 36" fill="none" xmlns="http://www.w3.org/2000/svg">
<g clip-path="url(#clip0_1191_31097)">
<path d="M30.5054 14.9167H26.9405C25.0068 14.9167 23.4458 16.4847 23.4458 18.4113C23.4458 20.345 25.0138 21.906 26.9405 21.906H30.5054C32.439 21.906 34 20.3379 34 18.4113C34 16.4847 32.432 14.9167 30.5054 14.9167ZM30.2874 20.4645H27.1444C26.0123 20.4645 25.0982 19.5504 25.0982 18.4184C25.0982 17.2863 26.0123 16.3722 27.1444 16.3722H30.2874C31.4195 16.3722 32.3336 17.2863 32.3336 18.4184C32.3406 19.5504 31.4195 20.4645 30.2874 20.4645Z" fill="#262625"/>
<path d="M21.02 19.0371C22.1521 19.0371 23.0661 18.1231 23.0661 16.991C23.0661 15.8589 22.1521 14.9238 21.02 14.9238H16.2668C14.3331 14.9238 12.7721 16.4918 12.7721 18.4184C12.7721 20.352 14.3401 21.913 16.2668 21.913H22.7286V20.4645H16.4777C15.3456 20.4645 14.4316 19.5504 14.4316 18.4184C14.4316 17.2863 15.3456 16.3722 16.4777 16.3722H20.802C21.1325 16.3722 21.3997 16.6605 21.3997 16.991C21.3997 17.3215 21.1325 17.5887 20.802 17.5887H15.3949V19.0371H21.02Z" fill="#262625"/>
<path d="M6.30323 20.4645C4.84069 20.4645 3.65238 19.3465 3.65238 17.884C3.65238 16.4214 4.84069 15.2542 6.30323 15.2542H12.1112V13.862H6.02197C3.80004 13.862 2 15.662 2 17.884C2 20.1059 3.80004 21.9059 6.02197 21.9059H12.1182V17.5324H7.06262V18.9809H10.4166V20.4645H6.30323Z" fill="#262625"/>
<path d="M30.8921 16.8504H30.6038C30.7655 16.9629 30.9905 17.1527 31.1874 17.4199H30.2101C30.0694 17.1949 29.8866 17.0051 29.6757 16.8504H29.3874C29.5491 16.9629 29.7741 17.1527 29.971 17.4199H28.8811V16.8504H28.6069V17.4199H27.517C27.7069 17.1527 27.9389 16.9558 28.1006 16.8504H27.8123C27.6014 17.0051 27.4186 17.1949 27.278 17.4199H26.3006C26.4904 17.1527 26.7225 16.9558 26.8842 16.8504H26.5959C26.0967 17.216 25.7451 17.7996 25.7451 18.4676C25.7451 19.0793 26.0475 19.6278 26.4623 19.9793H26.7436C26.5818 19.8247 26.4342 19.67 26.3076 19.5082H27.2639C27.3764 19.6911 27.517 19.8458 27.6788 19.9793H27.96C27.7983 19.8247 27.6506 19.67 27.5311 19.5082H28.6069V19.9793H28.8811V19.5082H29.9569C29.8304 19.677 29.6827 19.8247 29.528 19.9793H29.8093C29.964 19.8458 30.1046 19.6911 30.2241 19.5082H31.1804C31.0538 19.67 30.9062 19.8247 30.7444 19.9793H31.0257C31.4406 19.6278 31.7429 19.0793 31.7429 18.4676C31.7429 17.8066 31.3913 17.216 30.8921 16.8504ZM26.1318 19.234C26.0334 19.0442 25.9701 18.8403 25.949 18.6082H26.9615C26.9756 18.8332 27.0319 19.0371 27.1162 19.234H26.1318ZM26.9615 18.334H25.949C25.9701 18.0949 26.0334 17.884 26.1318 17.7012H27.1303C27.0389 17.898 26.9826 18.109 26.9615 18.334ZM28.6069 19.234H27.3553C27.2569 19.0442 27.1866 18.8473 27.1725 18.6082H28.6069V19.234ZM28.6069 18.334H27.1725C27.1936 18.0949 27.2639 17.884 27.3553 17.7012H28.6069V18.334ZM28.8741 17.7012H30.1257C30.2171 17.884 30.2874 18.0949 30.3085 18.334H28.8741V17.7012ZM30.1327 19.234H28.8811V18.6082H30.3155C30.2944 18.8403 30.2312 19.0442 30.1327 19.234ZM31.3492 17.7012C31.4406 17.884 31.5109 18.102 31.532 18.334H30.5194C30.5054 18.109 30.4491 17.898 30.3577 17.7012H31.3492ZM30.3577 19.234C30.4421 19.0371 30.4983 18.8262 30.5124 18.6082H31.532C31.5109 18.8473 31.4476 19.0512 31.3492 19.234H30.3577Z" fill="#262625"/>
</g>
<defs>
<clipPath id="clip0_1191_31097">
<rect width="32" height="32" fill="white" transform="translate(2 2)"/>
</clipPath>
</defs>
</svg>
