<svg width="36" height="36" viewBox="0 0 36 36" fill="none" xmlns="http://www.w3.org/2000/svg">
<path d="M2 16.3986C2 15.3362 2.66048 14.6194 3.90976 14.6194H12.0173V16.126H4.15296C3.9328 16.126 3.73696 16.2386 3.73696 16.5714V19.0828C3.73696 19.3874 3.86496 19.5846 4.26688 19.5846H9.80544C10.0973 19.5846 10.3226 19.4809 10.3226 19.0969V18.5094H7.08032V17.0745H12.0173V19.3823C12.0173 20.487 11.2134 21.0911 9.95136 21.0911H3.92256C2.70272 21.0911 2 20.4306 2 19.3247V16.3986ZM19.2493 21.0911L22.0192 16.1823V21.0911H23.7549V14.6194H21.0848L18.4442 19.2671L15.8035 14.6182H13.1347V21.0898H14.8704V16.1823L17.6403 21.0911H19.2493ZM34 21.0911H26.7398C25.5174 21.0911 24.8173 20.4306 24.8173 19.326V16.3986C24.8173 15.3362 25.4752 14.6194 26.7245 14.6194H34V16.2463H26.969C26.7488 16.2463 26.5517 16.3577 26.5517 16.6905V18.9625C26.5517 19.2684 26.681 19.4642 27.0829 19.4642H34V21.0911Z" fill="#262625"/>
</svg>
