<svg width="36" height="36" viewBox="0 0 36 36" fill="none" xmlns="http://www.w3.org/2000/svg">
<path d="M18.5283 13.0537L24.5751 16.6879C24.5717 17.7011 24.5521 20.0796 24.5521 20.0796C24.3292 23.3974 26.5708 24.0465 28.9187 23.3242C31.5746 22.5075 33.0166 19.5012 32.1973 16.579C31.5976 14.4412 30.1514 12.9942 28.3394 11.8542C25.5057 10.072 22.336 9.4893 19.0625 9.32341C15.282 9.132 11.6325 9.69006 8.25441 11.4782C5.90308 12.7228 4.11661 14.482 3.59513 17.2332C2.91628 20.8198 5.78398 24.0524 9.16041 23.5105C10.5862 23.2817 11.3459 22.4242 11.3731 20.9499C11.3969 19.639 11.3935 17.7913 11.3705 16.4803L17.4275 13.0248C17.3799 16.2115 17.4904 20.2158 17.3144 23.4008C17.1867 25.7045 15.8078 27.1124 13.5185 27.3923C10.6687 27.741 8.00431 27.2587 5.57301 25.6951C1.29654 22.944 0.380342 17.5173 3.51006 13.491C5.46582 10.9746 8.14297 9.65263 11.1629 8.89806C16.7214 7.51057 22.1914 7.65689 27.5338 9.8568C30.6227 11.1294 32.9783 13.1754 33.9387 16.4803C34.8728 19.6951 34.0748 22.5543 31.5738 24.7466C28.7358 27.2349 25.3501 28.015 21.6529 27.2136C19.8579 26.8248 18.8099 25.6211 18.6704 23.7819C18.4024 20.2736 18.6125 16.7568 18.5283 13.0537Z" fill="#262625"/>
</svg>
