<svg width="36" height="36" viewBox="0 0 36 36" fill="none" xmlns="http://www.w3.org/2000/svg">
<g clip-path="url(#clip0_442_18769)">
<path opacity="0.992" fill-rule="evenodd" clip-rule="evenodd" d="M2.99182 16.5963C3.57167 16.5963 4.15152 16.5963 4.73137 16.5963C4.73137 16.9738 4.73137 17.3512 4.73137 17.7287C5.3878 17.7287 6.04423 17.7287 6.70066 17.7287C6.70066 17.3512 6.70066 16.9738 6.70066 16.5963C7.2805 16.5963 7.86036 16.5963 8.44021 16.5963C8.44021 17.8599 8.44021 19.1236 8.44021 20.3872C7.86036 20.3872 7.2805 20.3872 6.70066 20.3872C6.70066 19.9715 6.70066 19.5557 6.70066 19.14C6.04423 19.14 5.3878 19.14 4.73137 19.14C4.73137 19.5557 4.73137 19.9715 4.73137 20.3872C4.15152 20.3872 3.57167 20.3872 2.99182 20.3872C2.99182 19.1236 2.99182 17.8599 2.99182 16.5963Z" fill="#262625"/>
<path opacity="0.986" fill-rule="evenodd" clip-rule="evenodd" d="M11.8536 16.5963C12.4882 16.5963 13.1227 16.5963 13.7573 16.5963C14.5329 17.8577 15.3042 19.1213 16.0712 20.3872C15.4367 20.3872 14.8021 20.3872 14.1676 20.3872C13.4006 19.1213 12.6292 17.8577 11.8536 16.5963Z" fill="#262625"/>
<path opacity="0.987" fill-rule="evenodd" clip-rule="evenodd" d="M15.464 16.5963C16.1259 16.5963 16.7878 16.5963 17.4497 16.5963C17.8729 17.2867 18.2941 17.9787 18.7133 18.6723C18.3951 19.2174 18.0669 19.7562 17.7287 20.2887C16.9695 19.0602 16.2146 17.8294 15.464 16.5963Z" fill="#262625"/>
<path opacity="0.986" fill-rule="evenodd" clip-rule="evenodd" d="M20.1739 16.5963C20.8085 16.5963 21.443 16.5963 22.0776 16.5963C21.302 17.8577 20.5307 19.1213 19.7636 20.3872C19.1291 20.3872 18.4945 20.3872 17.86 20.3872C18.6243 19.1195 19.3956 17.8559 20.1739 16.5963Z" fill="#262625"/>
<path opacity="0.986" fill-rule="evenodd" clip-rule="evenodd" d="M23.8663 16.5963C24.5009 16.5963 25.1354 16.5963 25.77 16.5963C26.5456 17.8577 27.3169 19.1213 28.0839 20.3872C27.4493 20.3872 26.8149 20.3872 26.1803 20.3872C25.4131 19.1208 24.6417 17.8572 23.8663 16.5963Z" fill="#262625"/>
<path opacity="0.992" fill-rule="evenodd" clip-rule="evenodd" d="M29.1014 16.5963C29.6812 16.5963 30.2612 16.5963 30.841 16.5963C30.841 17.3895 30.841 18.1827 30.841 18.9759C31.8913 18.9759 32.9416 18.9759 33.9919 18.9759C33.9919 19.4463 33.9919 19.9168 33.9919 20.3872C32.3618 20.3872 30.7315 20.3872 29.1014 20.3872C29.1014 19.1236 29.1014 17.8599 29.1014 16.5963Z" fill="#262625"/>
<path opacity="0.983" fill-rule="evenodd" clip-rule="evenodd" d="M11.4433 20.3873C10.7815 20.3873 10.1195 20.3873 9.45764 20.3873C10.2039 19.1465 10.9588 17.9102 11.7223 16.6785C12.0606 17.211 12.3888 17.7498 12.707 18.2949C12.2819 18.9906 11.8607 19.6881 11.4433 20.3873Z" fill="#262625"/>
<path opacity="0.983" fill-rule="evenodd" clip-rule="evenodd" d="M23.4397 20.3873C22.7833 20.3873 22.1268 20.3873 21.4704 20.3873C22.2181 19.1492 22.9702 17.9129 23.7269 16.6785C24.0641 17.2134 24.3951 17.7523 24.7197 18.2949C24.2962 18.9947 23.8695 19.6921 23.4397 20.3873Z" fill="#262625"/>
</g>
<defs>
<clipPath id="clip0_442_18769">
<rect width="31" height="3.79089" fill="white" transform="translate(3 16.6045)"/>
</clipPath>
</defs>
</svg>
