<svg width="36" height="36" viewBox="0 0 36 36" fill="none" xmlns="http://www.w3.org/2000/svg">
<path fill-rule="evenodd" clip-rule="evenodd" d="M21.2167 24.4505C21.7752 24.9452 21.4546 25.947 22.0173 26.4246C23.0933 27.3373 25.8064 26.2697 27.1032 26.7471C27.3304 26.83 27.5323 26.9613 27.6469 27.1762C28.7169 29.2032 22.9916 31.36 21.6925 31.6531C20.3019 31.9628 19.0751 31.9225 17.6167 31.9225C17.6167 31.8443 17.589 31.787 17.6847 31.787C18.0923 31.3218 18.451 30.8421 18.7166 30.3011C18.9585 29.7704 19.2026 29.2397 19.4445 28.7087C19.5591 28.6262 19.6759 28.5435 19.7906 28.4582V28.5262C19.8179 28.6068 19.9752 29.0695 19.8586 29.0695V29.1375H19.9942V29.0695C20.9812 28.2268 20.9492 25.7856 21.2167 24.4505ZM15.6594 17.8383C16.1094 19.7063 17.6528 20.986 19.6544 20.986V21.054C17.9477 21.3713 17.5094 21.3881 16.1222 20.642C16.1899 20.9137 16.3503 21.2345 16.4183 21.5063C15.9821 21.4769 15.368 20.3351 15.2154 19.3173C15.1178 18.665 15.2097 18.0634 15.6594 17.8383ZM18.2408 16.0952C19.9207 17.2592 20.1529 19.6992 23.2549 20.1496C23.7749 20.1347 24.2969 20.12 24.8172 20.1029C23.8254 20.7846 22.9582 21.0455 22.2031 21.0014C20.115 20.8796 18.8829 18.4273 18.2408 16.0952ZM20.2657 13.8535C23.1546 13.945 23.7193 17.3348 25.6301 18.8081C25.8337 18.9225 26.0398 19.0372 26.2438 19.1519V19.2879C23.2762 19.1943 23.0044 17.3434 21.6688 15.3649C21.5935 14.5987 20.8571 14.3084 20.2657 13.8535ZM16.8014 8.41918H17.209V8.48718C16.9055 8.73762 16.2283 9.55054 15.8018 9.50173C15.8269 9.31456 15.6253 9.07691 15.0356 9.23423V9.09847H15.1033C15.5725 8.72079 16.2624 8.65493 16.8014 8.41918ZM13.6469 29.7377C13.6469 29.7377 13.3109 29.778 13.2301 29.8853C13.1496 29.9931 12.7195 30.6985 12.7195 30.6985C12.7195 30.6985 11.8258 30.1478 11.8928 30.1275C11.9601 30.1071 12.3364 29.402 12.4977 29.3342C12.6591 29.2671 14.1911 29.1259 14.1911 29.1259L15.1521 29.2804L15.4433 29.2949C15.6672 28.0263 15.9039 26.8547 15.422 25.5461C14.2925 21.5592 9.55856 19.6933 5.9967 21.9499C5.88416 22.0368 5.65575 22.1828 5.51573 22.2536C5.17193 21.0272 4.96106 19.762 4.96106 18.497C4.96106 11.0646 11.0231 5.00256 18.456 5.00256C25.8884 5.00256 31.9502 11.0646 31.9502 18.497C31.9502 19.604 31.7924 20.8692 31.5287 21.9233L31.4742 21.8691C30.7264 21.4698 27.2157 20.3541 27.1949 19.3559C27.6256 19.2455 28.0587 19.1372 28.4897 19.0268C28.7591 18.8865 29.2083 18.601 29.4777 18.4607C27.3953 17.8957 26.5904 15.1617 25.9912 14.0869C25.5626 13.319 24.8584 12.8136 24.6817 12.2232C24.9681 12.2871 25.5522 12.4099 25.8386 12.4734L25.7114 12.1869C25.3783 11.1913 23.7285 10.9793 22.9876 10.3914C22.9006 10.3123 22.4424 9.91376 22.6438 9.91376C22.9386 9.84576 23.294 9.83107 23.5868 9.76307C22.64 8.93309 21.5567 8.51276 21.5567 6.99282C21.4781 6.99282 21.4212 7.02694 21.4212 6.92482C19.9626 7.59132 18.1944 7.42357 16.5896 7.85456C15.8234 8.13272 15.0571 8.41278 14.2885 8.69094V8.75894C14.348 8.96271 14.2885 9.175 14.1719 9.32996C14.0189 9.45932 13.8684 9.59106 13.7156 9.72043C12.9818 10.0874 12.2364 10.3682 11.7668 10.6945C11.2344 11.0643 11.0809 11.5091 12.1596 12.5118L12.7264 13.174C12.7648 13.2159 12.7522 13.2036 12.7944 13.242C12.7584 12.8598 12.5693 12.1339 12.8899 11.8474C13.9428 10.8734 15.581 12.7172 15.2306 13.904C14.8974 14.9759 13.431 14.2866 13.431 14.089H13.363C13.4002 14.5319 14.0821 15.1263 13.949 15.8232C14.2072 15.8232 15.8229 14.3916 15.9952 14.1222C16.4475 13.409 16.4072 12.4521 16.9889 11.7941C17.6895 10.9949 19.0483 10.7329 19.5712 9.83866C19.5267 9.61594 18.337 8.21517 18.5685 8.21517V8.14717C18.9078 8.12372 19.2473 8.10263 19.5871 8.07917C19.9716 7.98795 20.3576 7.89886 20.7422 7.80764V7.87564H20.6742V7.94365C20.5232 8.01378 19.3836 8.58906 19.3836 8.62294C19.7075 9.15368 20.7313 9.7427 20.5853 10.3021C20.392 11.0259 18.3117 11.5268 17.7193 12.0512C16.8595 12.8089 17.0019 14.0189 16.4584 14.934C16.1357 15.473 15.6198 15.7597 15.1443 16.1376C13.9061 17.1204 13.5488 17.8118 13.6166 18.3444C13.7189 19.1483 14.0347 19.7698 14.738 20.7822C13.6554 20.3555 12.5169 19.2092 12.5169 17.9293C11.3728 17.5895 9.27068 17.4687 8.13292 17.908C7.62726 18.2098 7.12132 18.5112 6.61511 18.8121C6.42627 18.9119 5.72992 19.3132 5.72992 19.5594C5.86781 19.5594 5.85336 19.7933 5.79792 19.8992C5.99955 20.1326 6.43646 20.7394 6.77409 20.7394C7.07405 20.5946 7.24062 19.971 7.32331 19.7056C7.36785 19.7056 7.38349 19.6954 7.42827 19.6954C7.52139 19.8667 7.7678 20.2176 7.7678 20.2387C8.40895 20.3979 9.21548 20.1603 9.93955 20.1731C11.5168 20.1965 12.9624 20.7569 14.1468 21.5295C14.8027 21.9563 14.9365 22.7204 15.3462 23.3274C15.754 23.9304 16.397 24.4481 16.6666 25.1191C17.1123 26.2353 16.5583 29.3072 15.5075 29.7675C14.8856 29.7571 14.2669 29.7529 13.6469 29.7377Z" fill="#262625"/>
<path fill-rule="evenodd" clip-rule="evenodd" d="M18.4899 2.9801C27.0326 2.9801 34 9.94743 34 18.4899C34 27.0324 27.0326 34.0002 18.4899 34.0002C9.94743 34.0002 2.9801 27.0324 2.9801 18.4899C2.9801 9.94767 9.94743 2.9801 18.4899 2.9801ZM18.4899 3.69897C26.6369 3.69897 33.2813 10.3434 33.2813 18.4901C33.2813 26.6369 26.6369 33.2818 18.4899 33.2818C10.3431 33.2818 3.69849 26.6369 3.69849 18.4901C3.69849 10.3434 10.3431 3.69897 18.4899 3.69897Z" fill="#262625"/>
</svg>
