<svg width="36" height="36" viewBox="0 0 36 36" fill="none" xmlns="http://www.w3.org/2000/svg">
<g clip-path="url(#clip0_67_3505)">
<path d="M24.9282 7.84302C24.2556 10.9372 23.9865 12.3497 23.3811 14.5695C22.7757 16.7892 22.4394 18.6726 21.6995 19.6816C21.1614 20.4215 20.287 20.8923 19.3453 20.9596C18.4708 21.0269 17.5291 21.0269 16.6547 20.9596C15.713 20.8923 14.8385 20.4215 14.3004 19.6816C13.5605 18.7399 13.1569 16.7219 12.6188 14.5695C12.0807 12.417 11.7444 10.9372 11.0717 7.84302L10.0627 7.91028C9.65916 7.91028 9.32283 7.97755 8.98651 8.04481C8.98651 8.04481 9.3901 14.3677 9.59189 17.0583C9.79369 19.8834 10.13 24.5919 10.3991 28.2242C10.3991 28.2242 11.0044 28.2914 11.9462 28.3587C12.8879 28.426 13.426 28.426 13.426 28.426C13.8296 26.8116 14.3677 24.6592 14.9058 23.7175C15.2421 23.1793 15.8475 22.843 16.5201 22.843C16.991 22.7758 17.4618 22.7758 18 22.7758C18.4708 22.7758 18.9417 22.7758 19.4798 22.843C20.1524 22.843 20.7578 23.1793 21.0941 23.7175C21.6995 24.6592 22.1704 26.8116 22.574 28.426C22.574 28.426 23.0448 28.426 24.0538 28.3587C25.0627 28.2914 25.6009 28.2242 25.6009 28.2242C25.9372 24.6592 26.2735 19.8834 26.408 17.0583C26.6098 14.3677 27.0134 8.04481 27.0134 8.04481C26.6771 7.97755 26.3408 7.97755 25.9372 7.91028L24.9282 7.84302Z" fill="#262625"/>
<path d="M32.8655 11.6098C32.4619 7.57395 29.7713 6.76678 27.417 6.36319C25.87 6.1614 24.3229 6.02687 22.7758 5.9596C21.565 5.89234 18.8072 5.82507 18 5.82507C17.1928 5.82507 14.3677 5.89234 13.2242 5.9596C11.6099 5.9596 10.0628 6.09413 8.5157 6.36319C6.16144 6.76678 3.47086 7.64122 3.06727 11.6098C2.93274 12.9551 2.93274 14.3004 2.93274 15.6457C2.93274 17.4618 3.06727 19.278 3.33633 21.0941C3.47086 22.6412 3.80718 24.121 4.21077 25.6681C4.81615 27.417 5.35426 27.9551 5.95965 28.426C7.03588 29.1659 8.17938 29.5695 9.4574 29.7713C15.1076 30.3766 20.7579 30.3766 26.4081 29.7713C27.6861 29.5695 28.8296 29.1659 29.9058 28.426C30.5785 27.8879 31.1166 27.417 31.6547 25.6681C32.0583 24.1883 32.3946 22.6412 32.5292 21.0941C32.7309 19.278 32.8655 17.4618 32.9327 15.6457C33 14.3004 32.9327 12.9551 32.8655 11.6098ZM31.3857 18.3363C31.3184 20.556 30.9821 22.7085 30.4439 24.8609C30.2422 25.8699 29.704 26.7444 28.9641 27.4843C27.9552 28.2914 26.7444 28.7623 25.5336 28.8296C20.4888 29.3677 15.444 29.3677 10.3991 28.8296C9.12108 28.7623 7.97758 28.2914 6.96861 27.4843C6.2287 26.7444 5.75785 25.8699 5.48879 24.8609C4.95068 22.7085 4.68162 20.556 4.54709 18.3363C4.41256 16.1166 4.41256 13.8296 4.61435 11.6098C5.01794 9.05377 6.2287 7.84301 8.91929 7.37216C10.3991 7.1031 11.9462 6.96857 13.426 6.90131C14.704 6.83404 16.7892 6.76678 18 6.76678C19.2108 6.76678 21.296 6.76678 22.574 6.90131C24.0538 6.96857 25.6009 7.1031 27.0807 7.37216C29.7713 7.84301 30.9821 9.12104 31.3184 11.6098C31.4529 13.8296 31.5202 16.1166 31.3857 18.3363Z" fill="#262625"/>
</g>
<defs>
<clipPath id="clip0_67_3505">
<rect width="30" height="30" fill="white" transform="translate(3 3)"/>
</clipPath>
</defs>
</svg>
