<svg width="36" height="36" viewBox="0 0 36 36" fill="none" xmlns="http://www.w3.org/2000/svg">
<path d="M4.07641 17.2422H3.07283V15.8541H1V19.4839H3.07283V18.077H4.07641V19.4839H6.14924V15.8541H4.07641V17.2422Z" fill="#262625"/>
<path d="M9.55861 18.2786C9.55861 18.5272 9.40854 18.8132 9.03806 18.8132C8.67227 18.8132 8.5222 18.5272 8.5222 18.2786V15.8541H6.44937V18.3114C6.44937 18.6772 6.76827 19.4839 7.95475 19.4839H10.1261C11.3125 19.4839 11.6314 18.6819 11.6314 18.3114V15.8541H9.55861V18.2786Z" fill="#262625"/>
<path d="M15.0924 17.3266L14.2717 15.8541H11.8988V19.4839H13.8028V17.9269L14.6563 19.4839H15.5239L16.3774 17.9269V19.4839H18.2814V15.8541H15.9084L15.0924 17.3266Z" fill="#262625"/>
<path d="M21.7423 17.3266L20.9263 15.8541H18.5487V19.4839H20.4574V17.9269L21.3109 19.4839H22.1785L23.032 17.9269V19.4839H24.936V15.8541H22.563L21.7423 17.3266Z" fill="#262625"/>
<path d="M25.1705 19.4839H29.2177V18.4803H27.309V18.077H29.2177V17.2422H27.309V16.8577H29.2177V15.8541H25.1705V19.4839Z" fill="#262625"/>
<path d="M34.6999 17.0593C34.6999 16.6091 34.4138 15.8541 33.6119 15.8541H29.485V19.4792H31.5578V18.424L32.4441 19.4792H35L33.912 18.1942C34.3481 18.213 34.6999 17.5095 34.6999 17.0593ZM32.1252 17.5283H31.5578V16.7076H32.1909C32.7068 16.7076 32.6599 17.5283 32.1252 17.5283Z" fill="#262625"/>
</svg>
