<svg width="36" height="36" viewBox="0 0 36 36" fill="none" xmlns="http://www.w3.org/2000/svg">
<path d="M17.9678 26.7698C27.343 26.7698 34.9356 22.8709 34.9356 18.0666C34.9356 13.2623 27.343 9.35938 17.9678 9.35938C8.59669 9.35938 1 13.2583 1 18.0626C1 22.8668 8.59669 26.7698 17.9678 26.7698ZM21.1546 22.4926C20.8769 23.1445 20.386 24.5487 19.2715 25.104C18.9295 25.2649 18.507 25.3494 18.1408 25.3615C18.0563 25.3736 18 25.3615 17.9799 25.3615C14.8454 25.3615 11.9323 24.935 9.48994 24.1866C9.46982 24.1745 9.41349 24.1544 9.41349 24.1544C9.16805 24.078 9.05136 23.9733 9.05136 23.8446C9.05136 23.7359 9.10367 23.6514 9.19219 23.567C9.22438 23.5348 9.27669 23.4905 9.34107 23.4261C9.89633 22.9554 11.6104 21.7241 14.7931 20.4888C15.9198 20.0623 17.32 19.5272 18.7886 19.2133C19.6578 19.0484 22.8485 18.5696 21.1546 22.4926ZM29.7451 13.7251C29.7974 13.6164 29.8859 13.5239 30.0348 13.5239C30.1193 13.5118 30.2159 13.5359 30.3768 13.6406C32.3685 14.8678 33.5595 16.4008 33.5595 18.0626C33.5595 21.0683 29.7049 23.6434 24.2005 24.7741C23.8464 24.8505 23.613 24.8505 23.5285 24.7539C23.4762 24.6896 23.4521 24.6051 23.5285 24.4884C23.5607 24.424 23.605 24.3717 23.6774 24.2952C26.6791 20.7544 28.9685 15.5277 29.6083 14.0107C29.6485 13.886 29.6968 13.7894 29.7451 13.7251ZM14.8334 13.6084C15.111 12.9565 15.6019 11.5523 16.7165 10.997C17.0585 10.828 17.4809 10.7516 17.8471 10.7395C17.9316 10.7395 17.996 10.7395 18.0161 10.7395C21.1385 10.7395 24.0556 11.1781 26.494 11.9144C26.5141 11.9144 26.5704 11.9345 26.5905 11.9466C26.8159 12.023 26.9325 12.1277 26.9325 12.2564C26.9325 12.3731 26.8682 12.4496 26.7917 12.5341C26.7595 12.5662 26.7072 12.6185 26.6428 12.6749C26.0755 13.1456 24.3856 14.3769 21.1908 15.5961C20.0641 16.0346 18.6639 16.5577 17.1953 16.8836C16.3262 17.0567 13.1394 17.5395 14.8334 13.6084ZM11.7593 11.3511C12.1134 11.2746 12.391 11.2746 12.4634 11.3712C12.5157 11.4235 12.5399 11.5201 12.4634 11.6368C12.4312 11.7011 12.387 11.7535 12.3226 11.838C9.31692 15.3788 7.03148 20.6055 6.39172 22.1104C6.33941 22.219 6.29515 22.3236 6.25089 22.388C6.18651 22.4967 6.10201 22.5812 5.96118 22.5892C5.88473 22.5892 5.78012 22.5691 5.6071 22.4725C3.61538 21.2453 2.38817 19.7123 2.38817 18.0505C2.40426 15.0569 6.25894 12.4777 11.7593 11.3511Z" fill="#262625"/>
<path d="M17.9678 9.35938C8.59669 9.35938 1 13.2462 1 18.0505C1 22.8548 8.59669 26.7416 17.9678 26.7416C27.343 26.7416 34.9356 22.8427 34.9356 18.0505C34.9356 13.2462 27.343 9.35938 17.9678 9.35938ZM29.7612 23.7279C26.6267 25.3333 22.4421 26.2226 17.9718 26.2226C13.5015 26.2226 9.32497 25.3293 6.19053 23.7279C3.17278 22.1748 1.51905 20.1669 1.51905 18.0585C1.51905 15.9501 3.18083 13.9383 6.19456 12.3852C9.32899 10.7677 13.5136 9.8905 17.9839 9.8905C22.4542 9.8905 26.6348 10.7757 29.7733 12.3852C32.795 13.9383 34.4488 15.9501 34.4488 18.0545C34.4488 20.1589 32.783 22.1748 29.7612 23.7279Z" fill="#262625"/>
</svg>
