<svg width="36" height="36" viewBox="0 0 36 36" fill="none" xmlns="http://www.w3.org/2000/svg">
<path d="M12.5684 13.3054H17.9982V14.9493H14.3242V16.4348H17.7789V18.0554H14.3242V19.676H18.184L18.1843 21.305H12.5687L12.5684 13.3054Z" fill="#262625"/>
<path d="M32.7848 15.2479C32.5032 14.888 31.9408 14.719 31.5131 14.719C31.0181 14.719 30.3314 14.9441 30.3314 15.5408C30.3314 16.9924 34 16.0584 34 18.8494C34 20.6274 32.5709 21.4715 30.9281 21.4715C29.9041 21.4715 29.0036 21.1676 28.2496 20.4697L29.4987 19.0968C29.8589 19.5696 30.444 19.8508 31.029 19.8508C31.6031 19.8508 32.2446 19.5809 32.2446 19.0181C32.2446 17.5552 28.5086 18.3428 28.5086 15.6869C28.5086 13.9876 29.9828 13.0984 31.547 13.0984C32.4471 13.0984 33.3137 13.3348 33.9887 13.9311L32.7848 15.2479Z" fill="#262625"/>
<path fill-rule="evenodd" clip-rule="evenodd" d="M23.3729 13.1181C21.6007 13.1181 20.9147 14.561 20.808 16.6915C21.0634 15.5434 22.058 14.8222 23.3594 14.8222C24.6397 14.8222 25.6218 15.5201 25.8969 16.6357C25.7998 14.4942 25.1606 13.1181 23.3729 13.1181ZM25.8927 17.9609C25.6118 19.0662 24.633 19.757 23.3594 19.757C22.0519 19.757 21.0537 19.0297 20.8041 17.8719C20.896 20.0656 21.5762 21.4557 23.3729 21.4557C25.1138 21.4557 25.7798 20.0527 25.8927 17.9609ZM24.8881 13.2406C26.1491 13.8453 26.9315 15.2486 26.9315 17.1295C26.9315 19.1223 26.2091 20.7168 24.8294 21.3573C26.5745 20.8084 27.6301 19.2629 27.6301 17.2898C27.6301 15.3386 26.5983 13.8053 24.8881 13.2406ZM19.7717 17.4807C19.7717 15.4214 20.5593 13.8182 21.9758 13.1951C20.1791 13.7192 19.0887 15.2837 19.0887 17.2898C19.0887 19.29 20.1733 20.8513 21.9613 21.3799C20.6216 20.8019 19.7717 19.3758 19.7717 17.4807Z" fill="#262625"/>
<path d="M5.13581 21.305V21.087H5.72633V13.5351H5.13581V13.3054H6.67097L10.3318 19.8253V13.5351H9.33976V13.3054H10.9813V13.5351H10.6034V21.305H10.237L5.99788 13.5925V21.087H6.95446V21.305H5.13581Z" fill="#262625"/>
<path d="M2.00003 21.305V21.087H2.60249V13.5341H2.00003V13.3061H4.00187V13.5341H3.3936V21.087H4.00187V21.305H2.00003Z" fill="#262625"/>
</svg>
