<svg width="36" height="36" viewBox="0 0 36 36" fill="none" xmlns="http://www.w3.org/2000/svg">
<path d="M22.1511 26.2222C22.72 26.1511 26.6756 25.6711 29.4667 24.2755C32.4889 22.7644 33.9467 20.32 33.9467 18.1511C33.9467 13.4667 27.3867 9.84888 17.9911 9.84888C8.59557 9.84888 2.05334 13.44 2.05334 18.1511C2.05334 20.3467 3.49334 22.8178 6.53335 24.2755C9.34223 25.6267 13.3245 26.1244 13.92 26.2222L17.9911 14.3111L22.1511 26.2222ZM17.9911 12.4533C17.9911 12.4533 11.7956 20.7111 11.2 21.4578C8.91557 21.2533 4.96001 19.7422 4.96001 17.1555C4.96001 13.8667 10.72 10.8 17.9911 10.8C25.6267 10.8 31.0222 13.8667 31.0222 17.1555C31.0222 19.76 27.0667 21.2444 24.7822 21.4311C24.16 20.64 17.9911 12.4533 17.9911 12.4533Z" fill="#262625"/>
</svg>
