<svg width="36" height="36" viewBox="0 0 36 36" fill="none" xmlns="http://www.w3.org/2000/svg">
<g clip-path="url(#clip0_821_24098)">
<path d="M34.1611 22.7279H32.9027C32.2016 22.7459 31.8541 22.3684 31.7043 22.2425C27.312 19.0786 19.1206 15.4833 11.7381 12.9965C10.7853 12.7029 9.37117 12.4991 8.48432 12.4991C7.60346 12.4991 7.17801 12.4272 6.26119 12.4632C5.38033 12.4991 4.46352 12.649 3.94819 12.7928C3.43285 12.9426 2.27635 13.2362 2.22242 13.9373C1.77899 14.2728 1.32957 14.7223 1.14981 14.908C0.964048 15.0938 0.904125 15.4533 1.26965 15.8548C1.63518 16.2623 2.07861 16.6638 2.37223 16.484C2.66585 16.3042 2.59394 16.0765 2.7018 15.8548C2.80966 15.6331 3.18118 15.3035 3.54671 15.705C3.91223 16.1125 3.68453 16.2862 3.4748 16.478C3.27705 16.6578 2.88756 16.9933 3.14522 17.3229C3.40289 17.6525 3.69651 17.7663 4.09799 17.4727C4.39161 17.257 5.18858 16.8016 5.64998 16.5439C5.76384 16.478 5.90166 16.3102 6.40501 16.5139C6.94431 16.7237 7.78322 17.0952 8.13677 17.2869L7.37575 17.6345C6.97427 17.8922 6.62073 18.6172 6.58477 18.8809C6.54882 19.2884 6.69263 19.8636 7.24392 20.343H8.43039L9.14946 19.3123L9.09553 19.2045C10.0123 19.0966 12.5111 19.8516 13.6856 19.3902C14.4945 19.7198 15.9267 19.9056 18.5693 19.6479C19.0486 19.6119 19.7018 19.5101 20.1033 20.0374C20.5227 20.5827 22.5721 22.7459 23.2372 22.9676C23.9024 23.1893 26.6528 23.1893 27.3719 23.3151C27.9891 23.429 28.2348 23.3151 28.7501 23.9024L29.8527 24.8791C29.9785 25.0289 30.368 25.3106 30.8054 25.3106H31.5664C32.0099 25.2746 32.2436 24.963 32.3574 24.5915H34.233C34.8202 24.5915 35.006 24.0642 35.006 23.5848C35 23.1174 34.6764 22.7279 34.1611 22.7279ZM34.1731 24.1541H32.3994C32.2975 23.3691 31.7222 23.2612 31.3867 23.2432C31.0631 23.2253 30.8174 23.0934 30.6676 23.0036C30.6676 23.0036 29.4752 21.9369 29.1456 21.5834C28.816 21.2358 28.5943 21.122 28.2827 21.122C28.2827 21.122 27.4198 21.122 27.1981 21.122C26.9764 21.122 26.7187 21.14 26.3532 20.6426C25.9877 20.1452 25.0469 19.3543 24.8132 19.1865C24.5795 19.0187 24.5196 19.2045 24.6634 19.3363C24.7892 19.4681 25.4004 19.8516 25.766 20.4628C26.1315 21.0681 26.4431 21.3856 26.7007 21.5115C26.9225 21.6613 27.5996 21.6433 28.0071 21.6433C28.4085 21.6433 28.5583 21.6793 28.8879 22.0088C29.2175 22.3384 29.9725 23.0036 30.1762 23.2253C30.38 23.447 30.7275 23.6507 31.2249 23.6507C31.7222 23.6507 31.9619 23.9623 31.944 24.2559C31.926 24.5316 31.7762 24.8432 31.5605 24.8432H30.7695C30.6436 24.8432 30.35 24.6574 30.2721 24.5855C30.0145 24.3997 29.3733 23.8485 29.0018 23.459C28.6302 23.0695 28.2647 22.9616 27.7734 22.8897C27.282 22.8178 25.2207 22.7219 24.7593 22.7039C24.2979 22.686 23.6028 22.686 23.1054 22.3744C22.62 22.0688 20.6785 19.9415 20.349 19.558C19.9655 19.1146 19.3842 19.1685 19.0367 19.1625C15.6031 19.54 14.3807 19.1925 14.0152 18.9708L14.3747 18.3536C15.4473 18.6052 16.9214 18.3656 17.1191 18.3056C17.3229 18.2517 17.2869 18.048 17.0832 18.0839C16.6218 18.1378 14.6204 17.8982 14.4226 17.8622C14.4047 17.3469 13.2482 15.8009 13.0983 15.5013C12.9485 15.2076 13.0804 15.0219 13.2242 14.896C13.374 14.7642 13.374 14.6024 13.2422 14.6024C12.7088 14.6564 12.583 15.0818 12.6909 15.5971C12.7987 16.1125 13.9373 17.6045 13.8654 17.9581C13.7934 18.3056 13.4459 18.797 13.2422 19.0007C12.2474 19.2404 10.0483 18.6532 8.77794 18.6891C8.29256 18.7011 8.37646 19.1206 8.55023 19.2704L8.14875 19.8576H7.5675C7.25591 19.7677 7.14205 19.2884 7.08812 19.0487C7.10011 18.8929 7.21396 18.4435 7.60346 18.1079C8.38245 17.4368 11.4984 17.7424 11.7741 17.7424C12.0497 17.7424 11.9778 17.6105 11.81 17.5566C11.5164 17.4847 10.6235 17.245 10.1022 17.227C9.98238 16.8795 9.76066 16.6278 9.68876 16.2862C9.62884 15.9926 9.70673 15.6331 9.8086 15.4114C9.94642 14.9859 9.6528 15.0518 9.55094 15.1717C9.41311 15.3754 9.06556 15.8248 9.04759 16.1544C9.02961 16.484 9.37117 17.0772 9.46105 17.221C9.29327 17.221 8.99965 17.239 8.87381 17.239C7.98097 16.484 6.38703 15.9746 6.07543 15.8668C6.12936 15.717 6.21325 15.5612 6.26718 15.3814C6.32112 15.1957 6.43497 15.2316 6.5608 15.2736C6.74656 15.3634 7.60945 15.681 7.88509 15.7889C8.16073 15.8967 8.4184 15.8428 8.54424 15.735C8.67008 15.6271 9.09552 15.2556 9.28128 14.9979C9.46704 14.7402 9.17342 14.7223 9.05957 14.8481C8.71202 15.1717 8.19669 15.3455 7.92104 15.2915C7.6454 15.2376 6.76454 14.7942 6.54283 14.6444C6.04547 14.4227 5.8657 14.7762 5.80578 14.9739C5.4822 15.9027 4.96088 16.3462 4.58336 16.6218C4.4755 16.7117 3.97815 17.0053 3.82834 17.1012C3.7025 17.1851 3.61861 17.0473 3.67254 16.9634C3.7804 16.8795 4.18788 16.466 4.21184 16.3162C4.30173 15.7829 4.15791 15.6091 3.9362 15.3694C3.71449 15.1297 3.43285 15.0458 3.10328 15.0458C2.77371 15.0458 2.46211 15.3515 2.34826 15.4593C2.2344 15.5672 2.37822 15.7889 2.19246 15.9207C2.0067 16.0525 1.79697 15.711 1.68911 15.5612C1.9288 15.2855 1.91082 15.1537 1.85689 14.896C1.93479 14.8361 2.06063 14.6923 2.21643 14.5545C2.34226 14.6264 2.59993 14.6623 2.76771 14.6264C3.66056 14.5545 3.81636 14.6564 4.0141 14.7462C4.21784 14.8361 4.27776 14.7103 4.20585 14.5785C4.10998 14.4047 4.03208 14.3388 3.84632 14.153L4.20585 14.0451C4.60733 14.0451 5.01481 14.195 5.21854 14.2129C5.42228 14.2309 5.54812 14.2309 5.62002 14.0811C5.74586 13.6916 5.98555 13.6197 6.15333 13.5658C6.32111 13.5118 6.44695 13.362 6.30314 13.3261H5.93761C5.62601 13.3441 5.60804 13.4579 5.51216 13.5658C5.42228 13.6736 5.30843 13.8055 5.06874 13.7695C4.82905 13.7335 4.3257 13.6497 4.03208 13.6676C3.80437 13.6796 3.4748 13.9193 2.82764 13.8953C3.0853 13.2482 5.47022 12.9905 5.93162 12.9725C8.98167 12.8407 9.62284 12.9905 11.019 13.2841C12.4152 13.5777 14.5125 14.2669 18.5393 15.8668C22.3624 17.3888 29.7808 21.128 31.4945 22.656C31.5904 22.7519 32.1537 23.1474 32.7829 23.1474H34.1072C34.4367 23.1474 34.5266 23.453 34.5266 23.5968C34.5326 23.7586 34.4487 24.1541 34.1731 24.1541Z" fill="#262625"/>
</g>
<defs>
<clipPath id="clip0_821_24098">
<rect width="34" height="34" fill="white" transform="translate(1 1)"/>
</clipPath>
</defs>
</svg>
