<svg width="36" height="36" viewBox="0 0 36 36" fill="none" xmlns="http://www.w3.org/2000/svg">
<path d="M13.666 13.84C12.6458 13.84 11.6576 14.1651 10.992 14.8153C10.3264 15.4643 9.99109 16.3628 9.99109 17.511C9.99109 19.9379 11.7856 21.1936 13.8695 21.1936C15.2301 21.1936 16.6624 20.4409 17.2192 19.0227H15.1892C15.0471 19.472 14.2727 19.7075 13.8925 19.7075C13.4253 19.7075 13.0324 19.5564 12.7175 19.2531C12.4026 18.9523 12.24 18.5286 12.226 17.9859H17.328C17.378 15.4054 16.034 13.8374 13.666 13.84ZM12.1428 16.8057C12.1389 16.304 12.2797 15.9097 12.5639 15.6192C12.848 15.3273 13.209 15.1814 13.6468 15.1814C14.0551 15.1814 14.4032 15.3196 14.6887 15.5948C14.9728 15.8713 15.1213 16.2745 15.1354 16.8057H12.1428Z" fill="#262625"/>
<path d="M21.8835 13.8413C20.8633 13.8413 19.8752 14.1664 19.2096 14.8167C18.544 15.4682 18.2086 16.3655 18.2086 17.5149C18.2086 19.9418 20.0006 21.1975 22.0857 21.1975C23.4464 21.1975 24.8787 20.4448 25.4355 19.0266H23.4054C23.2633 19.4759 22.4889 19.7114 22.1088 19.7114C21.6416 19.7114 21.2486 19.5603 20.9337 19.257C20.6189 18.9562 20.4563 18.5325 20.4422 17.9898H25.5443C25.5917 15.408 24.2502 13.8413 21.8835 13.8413ZM20.3565 16.8083C20.3513 16.3066 20.4934 15.9123 20.7776 15.6218C21.0617 15.3299 21.4227 15.184 21.8605 15.184C22.2701 15.184 22.6169 15.3223 22.9024 15.5975C23.1865 15.8727 23.335 16.2771 23.3491 16.8083H20.3565Z" fill="#262625"/>
<path d="M6.58499 17.5942C6.58499 18.7373 6.46339 19.1213 5.61219 19.1392C4.24643 19.1673 4.55363 18.2086 4.50627 17.2397H2.11523C2.12035 19.3542 2.97411 21.319 5.32931 21.2717C7.74339 21.223 8.93123 20.1158 8.93123 17.4675V11.2441H6.58499V17.5942Z" fill="#262625"/>
<path d="M30.7808 13.7247C29.8963 13.7247 29.0259 14.1753 28.4794 14.974V13.9564L26.5133 13.9935V23.5526L28.688 23.5897V20.1004C29.3331 20.7379 30.009 21.1859 30.8807 21.1859C32.7738 21.1859 33.8349 19.7651 33.8349 17.4175C33.8349 15.3529 32.6394 13.7247 30.7808 13.7247ZM31.1251 19.1084C30.7808 19.4515 30.6119 19.5833 30.0947 19.5833C29.0605 19.5833 28.6445 18.4249 28.6074 17.3395C28.5818 16.5407 28.9799 15.2851 30.0551 15.2851C30.5786 15.2851 30.7552 15.4604 31.1085 15.8111C31.4643 16.1631 31.6435 16.702 31.6435 17.4291C31.6435 18.206 31.4695 18.7679 31.1251 19.1084Z" fill="#262625"/>
</svg>
