<svg width="36" height="36" viewBox="0 0 36 36" fill="none" xmlns="http://www.w3.org/2000/svg">
<path d="M30.4864 12.9786C26.6617 11.0484 22.3494 10.2074 18.0793 10.2074C13.7734 10.2074 9.28444 10.8794 5.47388 12.9786C3.87644 13.8631 2.10236 15.4106 2.10236 17.3831C2.10236 19.3338 3.84828 20.953 5.46108 21.7658C9.29212 23.7024 13.6121 24.537 17.8886 24.537C22.1932 24.537 26.6835 23.865 30.4928 21.7735C32.0761 20.9044 33.8579 19.3632 33.8579 17.3972C33.8579 15.4247 32.126 13.7991 30.4864 12.9786ZM12.3526 21.1015L9.75036 17.9693H9.67228V21.1015H7.64988V14.1178H7.20444V13.6506H9.67228V16.2733H9.75036L11.8854 13.6506H14.1612L11.3337 17.1284L14.6144 21.1015H12.3526ZM18.8281 21.1015H16.807V14.146H16.3692V13.6301H18.8294V21.1015H18.8281ZM26.6476 21.1015L24.9862 16.2311L23.3184 21.1015H21.1129L23.5372 14.1165H23.1417V13.657H26.2598L28.798 21.1015H26.6476Z" fill="#262625"/>
</svg>
