<svg width="36" height="36" viewBox="0 0 36 36" fill="none" xmlns="http://www.w3.org/2000/svg">
<path d="M18 9.45605C9.19996 9.45605 2.06396 13.0081 2.06396 17.3921C2.06396 21.7761 9.19996 25.3281 18 25.3281C26.8 25.3281 33.936 21.7761 33.936 17.3921C33.936 13.0081 26.8 9.45605 18 9.45605ZM18 24.6561C9.58396 24.6561 2.79996 21.4241 2.79996 17.3921C2.79996 13.3601 9.58396 10.1281 18 10.1281C26.416 10.1281 33.2 13.3921 33.2 17.3921C33.2 21.3921 26.416 24.6561 18 24.6561Z" fill="#262625"/>
<path d="M18 10.416C9.74403 10.416 3.05603 13.552 3.05603 17.392C3.05603 21.232 9.74403 24.368 18 24.368C26.256 24.368 32.944 21.232 32.944 17.392C32.944 13.552 26.256 10.416 18 10.416ZM24.336 15.792L25.872 15.12H24.528L24.88 14.128H27.472L27.152 15.12L24.24 16.112L24.336 15.792ZM22.224 12.592C22.576 12.592 22.96 12.688 23.28 12.848C23.568 13.04 23.792 13.36 23.824 13.712C23.856 14.192 23.792 14.672 23.6 15.12C23.408 15.568 23.088 15.952 22.704 16.24C22.352 16.496 21.936 16.624 21.488 16.624H19.632L20.88 12.976C20.912 12.848 20.912 12.72 20.88 12.56L22.224 12.592ZM16.912 13.008C16.976 12.88 16.976 12.72 16.912 12.592H18.128L18.48 14.416L19.12 12.592H20.272L18.8 16.624H17.68L17.36 14.864L16.656 16.624H15.632L16.912 13.008ZM13.936 12.592H15.184L15.408 16.624H14.256L14.192 16.112H13.04L12.656 16.624H11.504L13.872 12.976C13.936 12.88 13.968 12.72 13.936 12.592ZM10.032 13.008C10.064 12.88 10.064 12.72 10.032 12.592H11.408L10.352 15.728H11.536L11.152 16.656H8.75203L10.032 13.008ZM9.87203 18.864L9.48803 19.856H6.86403L7.24803 18.864L10.16 17.872L10.032 18.192L8.49603 18.832L9.87203 18.864ZM14.16 19.056C14.064 19.312 13.904 19.504 13.68 19.664C13.488 19.824 13.232 19.92 12.976 19.952L13.776 21.456H12.592L11.824 20.016L11.312 21.456H10.128L11.44 17.808C11.504 17.68 11.504 17.52 11.44 17.392H13.072C13.328 17.392 13.584 17.456 13.84 17.584C14 17.648 14.128 17.776 14.224 17.936C14.352 18.32 14.352 18.736 14.16 19.056ZM17.712 20.592C17.456 20.912 17.136 21.168 16.752 21.36C16.4 21.52 16.016 21.552 15.632 21.52C15.056 21.392 14.608 20.944 14.48 20.368C14.384 19.952 14.384 19.536 14.512 19.152C14.768 18.352 15.376 17.712 16.144 17.424C16.624 17.264 17.136 17.36 17.552 17.616C17.872 17.84 18.096 18.16 18.16 18.544C18.352 19.248 18.192 20.016 17.712 20.592ZM18.672 21.488L18.608 17.84C18.608 17.712 18.576 17.552 18.512 17.424H19.76V19.6L21.232 17.424H22.576L19.568 21.52L18.672 21.488ZM23.984 21.488H21.424L22.672 17.936C22.736 17.776 22.736 17.584 22.672 17.424H25.392L25.104 18.32H23.76L23.536 19.024H24.56L24.24 19.92H23.248C23.152 20.144 23.088 20.368 23.024 20.624H24.368L23.984 21.488ZM28.56 19.056C28.464 19.312 28.304 19.536 28.08 19.664C27.888 19.824 27.632 19.92 27.376 19.952L28.176 21.456H26.992L26.224 20.016L25.712 21.456H24.528L25.84 17.808C25.904 17.68 25.904 17.52 25.84 17.392H27.472C27.728 17.392 27.984 17.456 28.208 17.584C28.368 17.648 28.496 17.776 28.592 17.936C28.72 18.32 28.72 18.704 28.56 19.056Z" fill="#262625"/>
<path d="M21.68 15.632C21.808 15.568 21.904 15.504 22 15.408C22.16 15.248 22.288 15.056 22.352 14.832C22.512 14.416 22.736 13.616 22.224 13.616H21.936L21.2 15.696H21.488C21.552 15.696 21.616 15.664 21.68 15.632Z" fill="#262625"/>
<path d="M27.0879 18.416H26.8319L26.6079 19.088H26.9279C27.3439 19.088 27.7599 18.416 27.0879 18.416Z" fill="#262625"/>
<path d="M12.688 18.416H12.432L12.208 19.088H12.528C13.008 19.088 13.36 18.416 12.688 18.416Z" fill="#262625"/>
<path d="M14.192 15.2161L14.128 14.3521L13.616 15.2161H14.192Z" fill="#262625"/>
<path d="M16.112 18.608C15.856 18.896 15.696 19.28 15.664 19.664C15.632 19.888 15.664 20.112 15.728 20.304C15.824 20.528 16.112 20.624 16.336 20.496C16.4 20.464 16.464 20.432 16.496 20.368C16.88 19.952 17.072 19.376 16.976 18.8C16.944 18.544 16.688 18.352 16.432 18.416C16.272 18.448 16.176 18.512 16.112 18.608Z" fill="#262625"/>
</svg>
