<svg width="36" height="36" viewBox="0 0 36 36" fill="none" xmlns="http://www.w3.org/2000/svg">
<path d="M18 30.0222C23.6278 30.0222 28.6222 28.0555 31.7167 25.0278L28.9278 25.0389C26.2944 27.2555 22.4389 28.65 18.0722 28.65C9.92223 28.65 3.56667 23.7944 3.56667 17.8055C3.56667 10.8944 9.92778 6.96109 18.0722 6.96109C18.5889 6.96109 19.0056 7.19998 18.6944 7.64998C17 9.68887 12.1778 16.25 11.3 17.6722C9.56667 20.4722 9.60556 23.9222 13.8556 24.1666H31.7222C32.6333 24.1666 32.8667 23.7389 33.1944 23.2944C34.3889 21.6778 35 19.7833 34.9944 17.8111C34.9889 12.6611 31.3667 8.80554 26.0389 6.90554L25.2167 8.13887C29.6444 9.7722 32.5722 13.0778 32.5722 17.8111C32.5722 18.6333 32.45 19.4333 32.2222 20.2055C32.0222 20.8722 31.6389 21.4389 30.9056 21.4389H16.65C14.8222 21.4389 15.5278 19.5555 16.2056 18.6389C17.1889 16.8778 22.5611 9.55554 23.8556 8.18887C24.1833 7.68887 25.1111 6.64998 23.8333 6.25554C22.0167 5.8222 20.05 5.59998 18 5.59998C8.61111 5.59442 1.00556 10.4166 1 17.8055C0.994447 25.2666 8.61111 30.0222 18 30.0222Z" fill="#262625"/>
</svg>
