<svg width="36" height="36" viewBox="0 0 36 36" fill="none" xmlns="http://www.w3.org/2000/svg">
<path d="M22.204 17.2814C22.1608 11.4239 21.6312 4.83151 20.745 2.76734L17.9136 2.07568L15.0821 2.76734C14.1959 4.83151 13.6664 11.4131 13.6231 17.2706L12.3911 17.3678V18.6106L13.6231 18.7079C13.6664 24.5654 14.1959 31.1577 15.0821 33.2111L17.9136 33.9028L20.745 33.2111C21.6312 31.1469 22.1608 24.5654 22.204 18.6971L23.4036 18.5998V17.357L22.204 17.2814ZM15.9575 31.5576C15.1577 28.1209 14.9956 22.4472 14.9308 18.7727L16.9409 18.924L17.2976 31.5576H15.9575ZM16.9409 17.076L14.9308 17.2273C14.9956 13.5529 15.1577 7.87913 15.9575 4.44245H17.2868L16.9409 17.076ZM19.8697 31.5576H18.508L18.8646 18.924L20.8963 18.7727C20.8315 22.4472 20.6802 28.1209 19.8697 31.5576ZM18.8646 17.076L18.508 4.44245H19.8697C20.6694 7.87913 20.8315 13.5529 20.8963 17.2273L18.8646 17.076Z" fill="#262625"/>
</svg>
