<svg width="36" height="36" viewBox="0 0 36 36" fill="none" xmlns="http://www.w3.org/2000/svg">
<g clip-path="url(#clip0_987_20070)">
<path fill-rule="evenodd" clip-rule="evenodd" d="M7.88564 18.6196H3.30271C2.89241 18.6196 2.71006 18.4213 2.71006 17.9965V17.048H2V17.9965C2 18.6103 2.49588 18.9484 2.9694 18.9484H7.88521L7.88564 18.6196ZM15.2809 17.048V18.6196H11.0919C10.6816 18.6196 10.4992 18.4213 10.4992 17.9965V17.048H9.78831V17.9965C9.78831 18.6103 10.2846 18.9484 10.7581 18.9484H15.9926V17.0484L15.2809 17.048ZM24.0373 18.6196H19.2075C18.7968 18.6196 18.6144 18.4213 18.6144 17.9965C18.6144 17.5681 18.7968 17.3772 19.207 17.3772H24.0377V17.048H18.8737C18.4002 17.048 17.9039 17.3846 17.9039 17.9965C17.9039 18.6103 18.4002 18.9484 18.8737 18.9484H24.0381L24.0373 18.6196ZM34.0302 17.048C34.5033 17.048 35 17.3846 35 17.9965C35 18.6103 34.5037 18.9484 34.0302 18.9484H28.726V17.0484L34.0302 17.048ZM34.2891 17.9965C34.2891 17.5681 34.1067 17.3772 33.6964 17.3772H29.4369V18.6191H33.696C34.1063 18.6191 34.2891 18.4213 34.2891 17.9965ZM26.035 19H26.7274V17H26.035V19Z" fill="#262625"/>
</g>
<defs>
<clipPath id="clip0_987_20070">
<rect width="35" height="2.198" fill="white" transform="translate(0.5 16.751)"/>
</clipPath>
</defs>
</svg>
