<svg width="36" height="36" viewBox="0 0 36 36" fill="none" xmlns="http://www.w3.org/2000/svg">
<g clip-path="url(#clip0_443_18839)">
<path fill-rule="evenodd" clip-rule="evenodd" d="M5.95473 20.7635L11.4776 26.2864H7.7121C7.7121 26.2864 6.82292 26.2007 6.38301 25.635C5.94415 25.0714 5.95473 24.0268 5.95473 24.0268V20.7635ZM17.7537 26.349V16.182C17.7537 16.182 17.7892 15.423 17.5932 14.835C17.3817 14.2008 16.9378 13.7339 16.9378 13.7339L6.01771 2.5V5.51219C6.01771 5.51219 5.97502 6.64672 6.37154 7.64579C6.81939 8.77292 7.71227 9.78027 7.71227 9.78027L12.1684 14.236C12.1684 14.236 12.1784 14.4507 12.0885 14.5401C11.9906 14.6385 11.7916 14.6131 11.7916 14.6131L6.01771 8.83889V12.1026C6.01771 12.1026 5.93621 13.1112 6.35567 13.9979C6.75166 14.8356 7.64948 15.5542 7.64948 15.5542L12.1054 20.0099C12.1054 20.0099 12.1326 20.2394 12.0278 20.3442C11.9135 20.4585 11.6662 20.4493 11.6662 20.4493L6.08032 14.8638V18.3154C6.08032 18.3154 5.9886 19.2679 6.25989 19.9911C6.55287 20.7721 7.20992 21.3284 7.20992 21.3284L12.2308 26.349H17.7537ZM18.2478 26.349V16.182C18.2478 16.182 18.2127 15.423 18.4083 14.835C18.6194 14.2008 19.0639 13.7339 19.0639 13.7339L29.9838 2.5V5.51219C29.9838 5.51219 30.0269 6.64672 29.63 7.64579C29.1825 8.77292 28.2891 9.78027 28.2891 9.78027L23.8331 14.236C23.8331 14.236 23.8231 14.4507 23.9127 14.5401C24.0109 14.6385 24.2101 14.6131 24.2101 14.6131L29.9836 8.83924V12.103C29.9836 12.103 30.0653 13.1116 29.6457 13.9983C29.2502 14.8359 28.3521 15.5545 28.3521 15.5545L23.8961 20.0103C23.8961 20.0103 23.869 20.2398 23.9743 20.3446C24.088 20.4589 24.3353 20.4497 24.3353 20.4497L29.9209 14.8642V18.3157C29.9209 18.3157 30.0122 19.2682 29.7416 19.9914C29.4481 20.7725 28.7914 21.3288 28.7914 21.3288L23.7702 26.3494H18.2478V26.349ZM30.0466 20.7635L24.5241 26.2864H28.2893C28.2893 26.2864 29.1784 26.2007 29.6183 25.635C30.0576 25.0714 30.0466 24.0268 30.0466 24.0268V20.7635Z" fill="#262625"/>
<path fill-rule="evenodd" clip-rule="evenodd" d="M7.16634 29.6173H5.875V26.7238H7.90735L8.4591 28.3927C8.52245 28.5883 8.57283 28.7878 8.60991 28.9901H8.63319C8.67235 28.783 8.72086 28.5816 8.77871 28.3886L9.26749 26.7238H11.3009V29.6173H10.0097L10.0207 27.9586C10.0272 27.7277 10.035 27.5682 10.0443 27.4797L10.0552 27.3506L10.0263 27.344L9.99862 27.4467L9.90266 27.7289L9.85733 27.9667L9.2853 29.6175H7.89042L7.32245 27.9983L7.26636 27.7578C7.26636 27.7474 7.25101 27.6968 7.22085 27.6053L7.20303 27.5419C7.19462 27.513 7.18591 27.4842 7.17693 27.4555L7.148 27.3442L7.12595 27.3507C7.15241 27.6522 7.16617 27.864 7.16617 27.9864L7.16634 29.6173ZM13.7015 27.5144L14.1071 28.6276H13.2907L13.7015 27.5144ZM12.9485 29.6163L13.0886 29.2342H14.3941L14.5465 29.6163H15.8357L14.4106 26.6748H13.0942L11.6761 29.6163H12.9485ZM17.4899 27.4297H18.1548C18.47 27.4297 18.6276 27.5111 18.6276 27.673C18.6276 27.7492 18.611 27.8085 18.5791 27.8501C18.5462 27.8924 18.4909 27.9228 18.412 27.94C18.3335 27.9577 18.2229 27.9665 18.0811 27.9665H17.4902V27.4297H17.4899ZM17.4899 29.6166V28.62H18.1261L18.2222 28.628L18.3404 28.6449C18.4072 28.6546 18.4669 28.6962 18.5196 28.7685C18.5723 28.8409 18.5988 28.9188 18.5988 29.0024L18.593 29.2952C18.593 29.3593 18.6175 29.4669 18.666 29.6166H19.978V29.5081C19.9025 29.4916 19.8653 29.4637 19.8653 29.4244L19.8598 29.3196L19.8364 28.9176C19.8281 28.7828 19.8042 28.6754 19.7644 28.5969C19.7235 28.5166 19.6584 28.451 19.5783 28.4096C19.4967 28.3639 19.4091 28.3298 19.3181 28.3083C19.2248 28.2859 19.0883 28.2671 18.9093 28.2526C19.086 28.2261 19.2186 28.1992 19.3082 28.172C19.394 28.1467 19.4757 28.1092 19.5508 28.0607C19.7337 27.9385 19.8258 27.7672 19.8258 27.5474C19.8258 27.3999 19.7933 27.2752 19.7289 27.1722C19.6653 27.0689 19.5656 26.9845 19.4303 26.9184C19.2955 26.8519 19.123 26.8034 18.9128 26.7716C18.7031 26.7399 18.4466 26.724 18.1435 26.724H16.2068V29.6168H17.4899V29.6166ZM20.4862 26.7238H21.7853V28.507C21.7853 28.6213 21.8063 28.7123 21.8493 28.7812C21.8916 28.8502 21.9595 28.9005 22.0529 28.9319C22.1458 28.9643 22.2696 28.98 22.4226 28.98C22.6311 28.98 22.784 28.9421 22.8815 28.8663C22.9787 28.7904 23.0276 28.6703 23.0276 28.507V26.7238H24.327V28.5795C24.327 28.8982 24.1972 29.151 23.9377 29.3381C23.7762 29.4559 23.5666 29.542 23.31 29.5951C23.053 29.6482 22.7254 29.6746 22.3278 29.6746C22.0326 29.6746 21.7705 29.6505 21.5406 29.6037C21.3115 29.5568 21.1182 29.4863 20.9615 29.3923C20.8049 29.2982 20.6862 29.1834 20.6059 29.0464C20.5257 28.9105 20.486 28.755 20.486 28.5796L20.4862 26.7238ZM25.9163 29.6166V27.488H24.7467V26.7238H28.3767V27.488H27.2158V29.6166H25.9163ZM28.8174 29.6173V26.7238H30.1251V29.6173H28.8174Z" fill="#262625"/>
<path fill-rule="evenodd" clip-rule="evenodd" d="M5.87659 32.5023H7.20726C7.23796 32.5797 7.27535 32.6381 7.31962 32.6762C7.40905 32.7655 7.55987 32.8106 7.77277 32.8106C8.16206 32.8106 8.35679 32.7325 8.35679 32.5767C8.35679 32.5268 8.32698 32.4864 8.26771 32.4554C8.20314 32.4217 8.13368 32.3983 8.06187 32.3861C7.95339 32.3608 7.67558 32.3069 7.22878 32.2231C6.92381 32.1659 6.6781 32.0973 6.49165 32.0188C6.30521 31.9396 6.16922 31.8442 6.08314 31.7322C5.99706 31.6205 5.95437 31.4882 5.95437 31.3353C5.95437 31.0535 6.10148 30.8231 6.39693 30.6442C6.50958 30.5779 6.62949 30.5247 6.7543 30.4858C6.89736 30.4411 7.04428 30.4097 7.19315 30.3922C7.35508 30.3722 7.53993 30.3622 7.74842 30.3622C8.3395 30.3622 8.79582 30.4631 9.11773 30.6643C9.18705 30.7106 9.25002 30.7619 9.30664 30.8187C9.37473 30.8866 9.42606 30.9545 9.46081 31.0215C9.4952 31.0887 9.5266 31.1827 9.55412 31.3041H8.26313C8.26313 31.2517 8.23914 31.2059 8.19098 31.1649C8.14318 31.1244 8.07633 31.0923 7.99131 31.0688C7.89699 31.0451 7.79999 31.0336 7.70274 31.0348C7.57609 31.0348 7.47343 31.0536 7.39529 31.0908C7.31733 31.1284 7.278 31.1762 7.278 31.2335C7.278 31.2983 7.3161 31.3493 7.39212 31.3872C7.4685 31.4255 7.60537 31.4602 7.80275 31.492C8.18693 31.5498 8.48114 31.6029 8.68593 31.6518C8.89019 31.7006 9.06411 31.7595 9.20734 31.8274C9.51743 31.9756 9.67247 32.1968 9.67247 32.4921C9.67247 32.6298 9.63402 32.7618 9.55782 32.8872C9.48144 33.013 9.37402 33.119 9.23574 33.2059C8.92653 33.4022 8.4464 33.5001 7.79623 33.5001C7.55881 33.5001 7.35067 33.4892 7.17163 33.4664C6.99242 33.444 6.83297 33.41 6.69344 33.3641C6.55907 33.3204 6.43117 33.2589 6.31315 33.1812C6.24092 33.1331 6.17378 33.0778 6.11277 33.0161C6.04486 32.942 5.9953 32.8722 5.96531 32.8057C5.93515 32.7396 5.90551 32.6383 5.87659 32.5023ZM10.2681 30.4439H11.6329V32.2815C11.6329 32.3989 11.6549 32.493 11.6992 32.5633C11.7436 32.6339 11.8144 32.6856 11.9112 32.7187C12.0079 32.7515 12.1361 32.7676 12.2956 32.7676C12.5123 32.7676 12.6709 32.729 12.7723 32.6512C12.8732 32.5734 12.924 32.4499 12.924 32.2815V30.4439H14.2889V32.3577C14.2889 32.6866 14.1529 32.9475 13.8815 33.1401C13.7127 33.2617 13.4936 33.3502 13.2248 33.4047C12.9556 33.4596 12.6129 33.4867 12.1966 33.4867C11.8876 33.4867 11.6131 33.4626 11.3729 33.4141C11.1326 33.3656 10.9303 33.2931 10.7661 33.1964C10.602 33.0992 10.478 32.9803 10.3943 32.8396C10.3101 32.6986 10.2685 32.5381 10.2685 32.358V30.4439H10.2681ZM14.7862 33.4266V32.7069L16.8714 31.22H14.8509V30.4439H18.43V31.157L16.3047 32.6563H18.5369V33.4266H14.7862ZM19.0361 30.4439H20.4006V32.2815C20.4006 32.3989 20.423 32.493 20.4675 32.5633C20.5119 32.6339 20.5825 32.6856 20.679 32.7187C20.7761 32.7515 20.9042 32.7676 21.0635 32.7676C21.2803 32.7676 21.439 32.729 21.5403 32.6512C21.6412 32.5734 21.6918 32.4499 21.6918 32.2815V30.4439H23.0563V32.3577C23.0563 32.6866 22.9212 32.9475 22.6494 33.1401C22.4802 33.2617 22.2615 33.3502 21.9924 33.4047C21.7234 33.4596 21.3805 33.4867 20.9644 33.4867C20.6553 33.4867 20.3803 33.4626 20.1403 33.4141C19.8999 33.3656 19.6975 33.2931 19.5337 33.1964C19.3696 33.0992 19.2456 32.9803 19.162 32.8396C19.0775 32.6986 19.0359 32.5381 19.0359 32.358L19.0361 30.4439ZM23.8402 33.4291V30.4439H25.1966V31.6431L26.4144 30.4439H27.9867L26.513 31.6431L28.1873 33.4291H26.5684L25.5318 32.0372L25.1966 32.2804V33.4291H23.8402ZM28.5463 33.4291V30.4439H29.9191V33.4291H28.5463Z" fill="#262625"/>
</g>
<defs>
<clipPath id="clip0_443_18839">
<rect width="34" height="34" fill="white" transform="translate(1 1)"/>
</clipPath>
</defs>
</svg>
