<svg width="36" height="36" viewBox="0 0 36 36" fill="none" xmlns="http://www.w3.org/2000/svg">
<path d="M20.9427 29.3182H15.0798V30.767H20.9427V29.3182Z" fill="#262625"/>
<path d="M20.1957 31.3555H15.7816V34.3661H20.1957V31.3555Z" fill="#262625"/>
<path d="M26.6698 22.6178H9.30762V23.3195H26.6698V22.6178Z" fill="#262625"/>
<path d="M27.5979 23.9987H8.37952V24.7004H27.5979V23.9987Z" fill="#262625"/>
<path d="M27.5979 21.3049H8.37952V22.0067H27.5979V21.3049Z" fill="#262625"/>
<path d="M21.0559 26.2849C20.0826 27.1677 20.0826 28.7523 20.0826 28.7523H17.9774H15.9174C15.9174 28.7523 15.9174 27.1677 14.9441 26.2849C14.265 25.6737 13.4274 25.5379 13.4274 25.5379C12.8842 25.4473 12.8842 25.3568 12.8842 25.3115H17.5699H18.8828H23.0253C23.0253 25.3115 23.0253 25.4021 22.482 25.5379C22.5273 25.5379 21.6897 25.6737 21.0559 26.2849Z" fill="#262625"/>
<path d="M9.39819 25.3795C9.62456 25.3795 11.2091 25.3795 11.4581 25.3795C11.4581 26.6245 10.6432 27.1904 9.39819 26.8962C9.39819 26.0586 9.39819 25.7417 9.39819 25.3795Z" fill="#262625"/>
<path d="M16.8002 5.41408C17.6378 3.78426 17.7736 1.29424 17.9773 1.27161C18.2037 1.31688 18.3169 3.80689 19.1544 5.41408C19.9693 6.95336 21.6218 8.28892 21.5539 8.42474C21.4181 8.60583 20.5126 8.13046 20.0372 7.88146C19.2902 7.54191 18.6564 7.27027 18.6564 7.27027C18.6564 7.27027 18.3621 11.1864 19.3355 14.8309C20.1504 17.7962 21.9613 20.5353 22.1651 20.739H19.7882C19.6977 20.6032 19.6524 20.4673 19.5619 20.3994C18.8828 19.245 18.4527 18.249 18.0226 16.5512C17.5925 18.2716 17.1171 19.245 16.438 20.3994C16.3475 20.5353 16.3022 20.6711 16.2117 20.739H13.8348C14.0159 20.5126 15.8495 17.7736 16.6644 14.8309C17.6378 11.209 17.3435 7.27027 17.3435 7.27027C17.3435 7.27027 16.7323 7.54191 15.9627 7.88146C15.4873 8.10782 14.5366 8.58319 14.4234 8.42474C14.3328 8.28892 16.0306 6.976 16.8002 5.41408Z" fill="#262625"/>
<path d="M9.30759 20.7615C9.30759 20.4673 9.12649 16.4832 8.1984 13.3368C7.17976 9.89603 5.0972 7.88139 5.23302 7.63238C5.36884 7.45129 7.04394 7.81348 8.33422 8.65103C9.71504 9.55649 11.028 11.1184 10.9374 11.2542C10.8921 11.3448 10.3941 10.9599 9.55659 10.643C8.67376 10.3488 8.26631 10.3714 8.26631 10.3714C8.26631 10.3714 9.71504 12.7935 10.462 15.3967C11.0732 17.5924 11.3675 20.422 11.3675 20.6936H9.23968V20.7389L9.30759 20.7615Z" fill="#262625"/>
<path d="M26.6924 20.7615C26.6924 20.4673 26.8735 16.4832 27.8016 13.3368C28.8202 9.89603 30.9028 7.88139 30.7669 7.63238C30.6311 7.45129 28.956 7.81348 27.6657 8.65103C26.2849 9.55649 24.972 11.1184 25.0625 11.2542C25.1078 11.3448 25.6058 10.9599 26.4434 10.643C27.3262 10.3488 27.7336 10.3714 27.7336 10.3714C27.7336 10.3714 26.2849 12.7935 25.5379 15.3967C24.9267 17.5924 24.6324 20.422 24.6324 20.6936H26.7603V20.7389L26.6924 20.7615Z" fill="#262625"/>
<path d="M26.5792 25.3795C26.3528 25.3795 24.7683 25.3795 24.5193 25.3795C24.5193 26.6245 25.3342 27.1904 26.5792 26.8962C26.5792 26.0586 26.5792 25.7417 26.5792 25.3795Z" fill="#262625"/>
</svg>
