<svg width="36" height="36" viewBox="0 0 36 36" fill="none" xmlns="http://www.w3.org/2000/svg">
<path d="M18.448 9C9.90689 9 3 12.9456 3 18.3288C3 23.559 9.90689 27.9023 18.448 27.9023C26.9891 27.9023 33.896 23.5285 33.896 18.3288C33.9268 12.9762 26.9891 9 18.448 9ZM18.448 14.6279C18.5405 14.6279 18.6022 14.6585 18.6638 14.689C20.9148 16.1878 22.364 17.4724 23.1965 18.2982C23.2273 18.3288 23.2582 18.39 23.2582 18.4206C23.2582 18.4511 23.2582 18.4817 23.1965 18.5429C22.364 19.2464 20.9148 20.3475 18.6638 21.5709C18.6022 21.6015 18.5097 21.6321 18.4172 21.6321C18.3247 21.6321 18.263 21.6015 18.1705 21.5709C15.9196 20.3475 14.4704 19.2464 13.6378 18.5429C13.5762 18.5123 13.5762 18.4511 13.5762 18.4206C13.5762 18.39 13.5762 18.3288 13.6378 18.2982C14.4704 17.4724 15.9504 16.1878 18.1705 14.689C18.2938 14.6585 18.3863 14.6279 18.448 14.6279ZM5.1584 18.3594C5.1584 17.2889 5.49758 16.2489 6.17594 15.2702C6.82346 14.322 7.77932 13.4962 8.98186 12.7927C11.4486 11.3246 14.8096 10.5293 18.4172 10.5293L18.2322 10.6822C16.3821 12.1198 12.3736 15.4843 6.51512 21.938C5.62092 20.8369 5.1584 19.6134 5.1584 18.3594ZM28.6542 23.559C26.1258 25.3942 22.3948 26.4342 18.448 26.4342C14.5012 26.4342 10.8011 25.3942 8.24184 23.559C8.24184 23.559 8.24184 23.559 8.24184 23.5285V23.4979C8.92019 22.7332 10.3077 21.2651 11.757 20.1028C11.7878 20.0722 11.8186 20.0722 11.8803 20.0722C11.9111 20.0722 11.942 20.0722 11.9728 20.1028C12.7745 20.5616 13.3912 20.9592 14.0079 21.3568C15.0254 21.9992 16.0429 22.6415 17.9547 23.6814C18.1088 23.7732 18.263 23.8037 18.4172 23.8037C18.5713 23.8037 18.7255 23.7732 18.8797 23.6814C20.7914 22.6415 21.8398 21.9992 22.8265 21.3568C23.474 20.9592 24.0599 20.5616 24.8615 20.1028C24.8924 20.0722 24.9232 20.0722 24.9541 20.0722C24.9849 20.0722 25.0466 20.0722 25.0774 20.1028C26.5266 21.2651 27.8833 22.7332 28.5925 23.4979C28.6542 23.5285 28.6542 23.5285 28.6542 23.559ZM30.3809 21.938C24.5224 15.5149 20.5139 12.1198 18.6638 10.6822L18.4788 10.5293C22.0865 10.5293 25.4474 11.3246 27.9141 12.7927C29.1167 13.4962 30.0726 14.3526 30.7201 15.2702C31.3984 16.2184 31.7376 17.2583 31.7376 18.3594C31.7376 19.6134 31.2751 20.8369 30.3809 21.938Z" fill="#262625"/>
</svg>
