<svg width="36" height="36" viewBox="0 0 36 36" fill="none" xmlns="http://www.w3.org/2000/svg">
<path d="M30.5067 10.3986C30.4054 10.277 30.2635 10.1351 30.1621 10.0135C27.1216 6.74999 22.1554 6.04053 17.9797 6.04053C13.7635 6.04053 8.65536 6.74999 5.65536 10.2162C5.61482 10.277 5.55401 10.3378 5.51347 10.3986C4.05401 12.1621 3.14185 14.6554 3.14185 18.0203C3.14185 28.3986 11.5743 30.0608 17.9797 30.0608C24.4054 30.0608 32.8581 28.3986 32.8581 18.0203C32.8581 14.6554 31.9662 12.1419 30.5067 10.3986ZM8.31076 12.0405C10.3175 8.95945 14.1081 8.20945 17.9797 8.20945C21.8513 8.20945 25.581 8.91891 27.6081 11.9392C27.6486 12 27.6891 12.0811 27.7297 12.1621C24.2635 14.2094 20.331 14.2905 17.9797 19.3581C15.4054 14.4324 11.5135 14.3919 8.10806 12.4257C8.16887 12.304 8.24995 12.1824 8.31076 12.0405ZM17.9797 27.8919C12.2229 27.9324 6.85131 26.2703 6.85131 18.0203C6.85131 17.4121 6.85131 16.7838 6.95266 16.2567C6.97293 16.1351 7.01347 16.0135 7.03374 15.8919C8.95941 16.5811 10.8648 17.2297 12.8108 17.8784C15.081 18.8108 16.6013 20.1486 17.9797 23.1486C19.3581 20.1486 20.8378 18.6284 23.1283 17.6959C25.0946 17.0067 27.0202 16.2973 28.9864 15.6081C29.0067 15.6486 29.0067 15.7094 29.027 15.75C29.1283 16.4189 29.1689 17.2094 29.1689 18.0203C29.1891 26.2703 23.7364 27.9527 17.9797 27.8919Z" fill="#262625"/>
</svg>
