<svg width="36" height="36" viewBox="0 0 36 36" fill="none" xmlns="http://www.w3.org/2000/svg">
<g clip-path="url(#clip0_439_17656)">
<path d="M24.51 5.575C22.55 4.56 20.345 4 18 4C15.655 4 13.45 4.56 11.49 5.575C7.045 7.92 4 12.61 4 18C4 23.39 7.045 28.08 11.525 30.425C13.45 31.405 15.655 32 18 32C20.345 32 22.515 31.405 24.475 30.39C28.955 28.08 32 23.39 32 18C32 12.61 28.955 7.92 24.51 5.575ZM5.4 18C5.4 13.415 7.85 9.425 11.525 7.185C13.31 6.1 15.375 5.47 17.65 5.4L16.075 16.845L11.525 20.38L6.905 23.985C5.96 22.2 5.4 20.17 5.4 18ZM24.51 28.78C22.585 29.935 20.38 30.6 18 30.6C15.62 30.6 13.38 29.935 11.49 28.78C9.775 27.765 8.375 26.365 7.325 24.685L11.49 22.97L18 20.31L24.51 22.935L28.71 24.65C27.66 26.365 26.19 27.765 24.51 28.78ZM24.51 20.38L19.995 16.88L18.385 5.4C20.59 5.47 22.69 6.1 24.475 7.185C28.15 9.39 30.6 13.415 30.6 18C30.6 20.17 30.075 22.2 29.095 23.985L24.51 20.38Z" fill="#262625"/>
</g>
<defs>
<clipPath id="clip0_439_17656">
<rect width="28" height="28" fill="white" transform="translate(4 4)"/>
</clipPath>
</defs>
</svg>
