<svg width="36" height="36" viewBox="0 0 36 36" fill="none" xmlns="http://www.w3.org/2000/svg">
<path d="M3.5495 22.0396L10.1436 11.7475C10.4851 11.2129 10.8416 10.7822 11.4059 10.4109C11.9554 10.0396 12.7871 9.80198 13.1436 9.80198L30.5792 9.81683C27.8911 5.71782 23.2723 3 18 3C9.71287 3 3 9.71287 3 18C3 19.396 3.19307 20.7624 3.5495 22.0396Z" fill="#262625"/>
<path d="M6.9802 28.1733L15.6535 14.4505C16.3069 13.5149 16.9307 12.6089 18.5198 12.6089H32.005C31.7525 11.9703 31.4703 11.3465 31.1287 10.7376L15.7723 10.7525C14.6881 10.7525 13.9901 11.5545 13.4554 12.5347L5.22772 25.8564C5.73267 26.6881 6.32673 27.4604 6.9802 28.1733Z" fill="#262625"/>
<path d="M12.0594 31.7822L21.2673 16.9604C21.7277 16.203 22.6337 15.4307 23.5693 15.4307H32.7772C32.6733 14.8069 32.5248 14.1832 32.3317 13.5891L21.7871 13.5743C20.5693 13.5743 19.9307 13.6188 18.8614 15.3861L9.66832 30.4752C10.4257 30.9802 11.2277 31.4109 12.0594 31.7822Z" fill="#262625"/>
<path d="M32.9109 16.3663H26.7624C25.6485 16.3515 25.0545 16.9901 24.6535 17.6584L15.3564 32.7624C16.2178 32.9109 17.0941 33 18 33C26.2871 33 33 26.2871 33 18C33 17.4505 32.9703 16.901 32.9109 16.3663Z" fill="#262625"/>
</svg>
