<svg width="36" height="36" viewBox="0 0 36 36" fill="none" xmlns="http://www.w3.org/2000/svg">
<g clip-path="url(#clip0_825_2009)">
<path d="M33.8041 12.0185C33.7795 11.6492 33.6318 11.3046 33.3857 11.0092C32.7457 10.2708 31.318 8.67077 29.3241 6.67692C27.3303 4.68308 25.7304 3.25538 24.9919 2.61538C24.7212 2.36923 24.3519 2.22154 23.9827 2.19692C23.0473 2.12308 20.955 2 18.0504 2C15.1458 2 13.0535 2.12308 12.1181 2.19692C11.7488 2.22154 11.4042 2.36923 11.1088 2.61538C10.3704 3.25538 8.77038 4.68308 6.77654 6.67692C4.70884 8.74461 3.33038 10.2954 2.71499 11.0092C2.46884 11.28 2.32115 11.6492 2.29653 12.0185C2.22269 12.9538 2.09961 15.0462 2.09961 17.9508C2.09961 20.7569 2.22269 22.9231 2.29653 23.8831C2.32115 24.2523 2.46884 24.5969 2.71499 24.8923C3.33038 25.6062 4.70884 27.1815 6.77654 29.2246C8.77038 31.2185 10.3704 32.6462 11.1088 33.2862C11.3796 33.5323 11.7488 33.6062 12.1181 33.6308C13.0535 33.7046 15.1458 33.8277 18.0504 33.8277C20.955 33.8277 23.0473 33.7046 23.9827 33.6308C24.3519 33.6062 24.6965 33.5323 24.9919 33.2862C25.7304 32.6462 27.3303 31.2185 29.3241 29.2246C31.3918 27.1569 32.7703 25.6062 33.3857 24.8923C33.6318 24.5969 33.7795 24.2523 33.8041 23.8831C33.878 22.9231 34.0011 20.7569 34.0011 17.9508C34.0011 15.0462 33.878 12.9785 33.8041 12.0185ZM32.5487 23.4646C32.5241 23.7846 32.4011 24.08 32.2041 24.3262C31.638 24.9662 30.3826 26.4185 28.438 28.3385C26.5673 30.2092 25.0658 31.5385 24.4012 32.1046C24.155 32.3015 23.8596 32.4246 23.5396 32.4492C22.6781 32.5231 20.7581 32.6462 18.0258 32.6462C15.2935 32.6462 13.3735 32.5231 12.5119 32.4492C12.1919 32.4246 11.8965 32.3015 11.6504 32.1046C10.9858 31.5385 9.48423 30.2092 7.61346 28.3385C5.69346 26.4185 4.41346 24.9662 3.8473 24.3262C3.65038 24.08 3.5273 23.7846 3.50269 23.4646C3.42884 22.6031 3.30577 20.5846 3.30577 17.9508C3.30577 15.2185 3.42884 13.2985 3.50269 12.4369C3.5273 12.1169 3.65038 11.8215 3.8473 11.6C4.38884 10.96 5.66884 9.50769 7.61346 7.56308C9.48423 5.69231 10.9858 4.36308 11.6504 3.79692C11.8965 3.6 12.1919 3.47692 12.5119 3.45231C13.3735 3.37846 15.2935 3.25538 18.0258 3.25538C20.7581 3.25538 22.6781 3.37846 23.5396 3.45231C23.8596 3.47692 24.155 3.6 24.4012 3.79692C25.0658 4.36308 26.5673 5.69231 28.438 7.56308C30.3087 9.43385 31.638 10.9354 32.2041 11.6C32.4011 11.8462 32.5241 12.1415 32.5487 12.4615C32.6226 13.3231 32.7457 15.2431 32.7457 17.9754C32.7457 20.5846 32.6226 22.6031 32.5487 23.4646Z" fill="#262625"/>
<path d="M30.7762 14.9481C30.7515 13.8896 30.678 12.9542 30.6287 12.7327C30.5795 12.6589 30.4562 12.5112 30.4069 12.4373C29.4962 11.4035 28.5608 10.3942 27.33 9.16347C24.8932 6.75117 23.5886 5.59424 23.2686 5.3727C23.0224 5.34809 22.5794 5.29886 21.3732 5.24963C20.4132 5.2004 19.2071 5.17578 19.1086 5.17578C19.1086 5.39732 19.084 21.3727 19.1086 30.4803C19.1086 30.6526 19.1086 30.7018 19.1086 30.7018C19.1086 30.7018 21.9147 30.7265 23.2686 30.5295C24.204 29.7418 25.9517 28.0926 27.2564 26.8126C28.6349 25.4342 29.8162 24.1542 30.1115 23.8096C30.2346 23.6619 30.53 23.3666 30.6531 23.145C30.6777 22.9727 30.6779 22.825 30.7026 22.505C30.801 20.905 30.8256 18.025 30.8256 17.9266C30.7026 17.9266 26.4932 17.9266 26.3948 17.9266C26.3948 18.0004 26.3948 20.1419 26.3948 20.1419C26.444 20.1419 28.4626 20.1419 28.5364 20.1419C28.5364 20.1912 28.4869 21.9635 28.4377 22.2589C28.29 22.4804 28.0195 22.7266 27.7487 23.0219C27.4287 23.3666 26.9856 23.8342 26.0747 24.7696C24.9424 25.9512 23.1455 27.6003 22.3578 28.3141C22.3578 28.2157 22.3332 7.7604 22.3578 7.56347C22.5547 7.73578 23.0717 8.20347 23.1948 8.32655C24.1548 9.23732 25.164 10.1727 26.0009 11.0096C27.2069 12.265 28.4131 13.5696 28.4623 13.6681C28.4869 13.7666 28.5364 14.8496 28.5364 14.9481C28.5856 14.9481 30.6777 14.9481 30.7762 14.9481Z" fill="#262625"/>
<path d="M13.7408 30.6029C13.7408 26.6152 13.7408 21.8399 13.7408 14.5291C13.7654 14.0615 13.7408 11.5261 13.7408 11.5261C13.7408 11.5261 13.7161 11.6491 13.6669 11.6738C13.1746 12.9784 12.5838 14.3322 12.0423 15.7845C11.3285 17.6307 10.6638 19.5261 10.1469 20.9538L10.0977 20.9045L8.59615 18.2461L7.53769 16.3999C7.53769 16.3999 7.53769 18.6153 7.53769 18.8368C7.5623 20.8553 7.61153 22.4799 7.70999 24.2276C7.70999 24.4491 7.80845 25.7045 7.80845 25.7045C7.80845 25.7045 7.06999 24.9661 6.70076 24.5476C6.01153 23.8091 5.76538 23.5384 5.46999 23.1445C5.34692 21.8153 5.27307 20.3384 5.29769 17.5076C5.3223 14.7753 5.44538 12.9784 5.44538 12.7568C5.44538 12.7322 5.42076 12.7322 5.51922 12.6091C5.71615 12.363 6.70076 11.2553 6.94692 11.0338C7.06999 10.9353 7.09461 10.9107 7.09461 10.9107C7.09461 10.9107 7.21769 11.1076 7.29153 11.2061C7.70999 11.8215 8.47307 13.1753 9.18692 14.3815C9.60538 15.1199 9.65461 15.1691 9.65461 15.1691C9.65461 15.1691 10.2208 13.4707 11.5992 10.0491C12.6577 7.43992 13.6915 5.32299 13.7161 5.24915C13.79 5.24915 14.5777 5.19992 15.4146 5.1753C16.2515 5.12607 16.9408 5.15069 17.0146 5.15069C17.0146 5.29838 17.0146 5.39684 17.0146 5.39684C17.0146 5.39684 17.0146 21.0522 17.0146 30.3814C17.0146 30.4798 17.0146 30.5537 17.0146 30.6767C16.9654 30.6767 16.8177 30.6767 16.6946 30.6767C15.4392 30.7014 14.0608 30.6275 13.7408 30.6029Z" fill="#262625"/>
</g>
<defs>
<clipPath id="clip0_825_2009">
<rect width="32" height="32" fill="white" transform="translate(2 2)"/>
</clipPath>
</defs>
</svg>
