<svg width="36" height="36" viewBox="0 0 36 36" fill="none" xmlns="http://www.w3.org/2000/svg">
<path d="M32.9949 15.2L34 14.1846H23.9385C22.6872 12.1949 20.5026 10.8718 18.0103 10.8718C15.5179 10.8718 13.3333 12.1949 12.0821 14.1846H2L3.00513 15.2H11.5487C11.3846 15.5795 11.2615 15.9795 11.1692 16.3898H4.17436L5.17949 17.4052H11.0154C10.9949 17.6 10.9846 17.7949 10.9846 18C10.9846 18.2052 10.9949 18.4 11.0154 18.5949H6.34872L7.35385 19.6103H11.1692C11.2615 20.0308 11.3949 20.4411 11.5692 20.8308C11.5692 20.8205 11.559 20.8103 11.559 20.8H8.52308L9.52821 21.8154H12.0821C13.3333 23.8052 15.5179 25.1282 18.0103 25.1282C20.5026 25.1282 22.6872 23.8052 23.9385 21.8154H26.4718L27.4769 20.8H24.4718C24.4718 20.8103 24.4615 20.8205 24.4615 20.8308C24.6256 20.4411 24.759 20.0308 24.8615 19.6103H28.6564L29.6615 18.5949H25.0256C25.0462 18.4 25.0564 18.2052 25.0564 18C25.0564 17.7949 25.0462 17.6 25.0256 17.4052H30.8205L31.8256 16.3898H24.8513C24.759 15.9795 24.6256 15.5795 24.4718 15.2C24.4718 15.2 32.9949 15.2 32.9949 15.2ZM11.9282 21.559C11.9282 21.5693 11.9385 21.5693 11.9385 21.5795C11.9385 21.5795 11.9282 21.5693 11.9282 21.559ZM11.7846 21.2923C11.7949 21.3026 11.7949 21.3129 11.8051 21.3231C11.7949 21.3129 11.7846 21.3026 11.7846 21.2923ZM18.0103 24.1129C14.6872 24.1129 11.9897 21.3744 11.9897 18C11.9897 14.6257 14.6872 11.8872 18.0103 11.8872C21.3333 11.8872 24.0308 14.6257 24.0308 18C24.0308 21.3744 21.3333 24.1129 18.0103 24.1129ZM24.2256 21.3334C24.2359 21.3231 24.2359 21.3129 24.2462 21.3026C24.2359 21.3026 24.2256 21.3129 24.2256 21.3334ZM24.0821 21.5795C24.0821 21.5693 24.0923 21.5693 24.0923 21.559C24.0923 21.5693 24.0821 21.5795 24.0821 21.5795Z" fill="#262625"/>
<path d="M13.7846 19.6103H13.1589V16.359H14.0923L14.9025 18.9539L15.7128 16.359H16.6461V19.6H16V17.2L15.2512 19.6H14.5538L13.7846 17.1795V19.6103Z" fill="#262625"/>
<path d="M18.0308 19.6103H17.3641V16.359H18.0308V19.6103Z" fill="#262625"/>
<path d="M19.3949 19.6103H18.759V16.359H19.5385L20.8103 18.7077V16.359H21.4462V19.6H20.6667L19.3949 17.2616V19.6103Z" fill="#262625"/>
<path d="M22.8309 19.6103H22.1642V16.359H22.8309V19.6103Z" fill="#262625"/>
</svg>
