<svg width="36" height="36" viewBox="0 0 36 36" fill="none" xmlns="http://www.w3.org/2000/svg">
<path d="M28.3488 12.538C26.3933 8.79353 22.4711 6.23242 17.9488 6.23242C13.4266 6.23242 9.50438 8.79353 7.54883 12.538H28.3488Z" fill="#262625"/>
<path d="M7.53906 23.3652C9.49462 27.1208 13.4224 29.6875 17.9502 29.6875C22.478 29.6875 26.4057 27.1208 28.3613 23.3652H7.53906Z" fill="#262625"/>
<path d="M24.8502 16.679C24.8169 16.5901 24.7891 16.5234 24.7836 16.5234C24.778 16.5234 24.7502 16.5957 24.7169 16.679L24.1724 18.1345C24.1391 18.2234 24.1891 18.2901 24.2836 18.2901H25.2836C25.378 18.2901 25.428 18.2179 25.3947 18.1345L24.8502 16.679Z" fill="#262625"/>
<path d="M33.8882 13.5508H2.17713C1.62157 13.5508 1.16602 14.0063 1.16602 14.5619V16.4674V19.5674V21.473C1.16602 22.0286 1.62157 22.4841 2.17713 22.4841H33.8882C34.4438 22.4841 34.8993 22.0286 34.8993 21.473V19.5008V16.5286V14.5619C34.8993 14.0063 34.4438 13.5508 33.8882 13.5508ZM8.5049 20.3397C8.5049 20.4341 8.42713 20.5063 8.33824 20.5063H6.47157C6.37713 20.5063 6.27157 20.4397 6.23268 20.3508L4.6049 16.8452C4.56602 16.7619 4.53268 16.6952 4.53268 16.7008C4.53268 16.7063 4.52713 16.7841 4.52713 16.8786L4.5049 20.3397C4.5049 20.4341 4.42713 20.5063 4.33268 20.5063H3.43824C3.34379 20.5063 3.27157 20.4286 3.27157 20.3397V15.6008C3.27157 15.5063 3.34935 15.4341 3.43824 15.4341H5.43824C5.53268 15.4341 5.63824 15.5063 5.67157 15.5897L7.13268 19.0841C7.16602 19.1674 7.19935 19.1619 7.19935 19.073V15.6063C7.19935 15.5119 7.27713 15.4397 7.36602 15.4397H8.33268C8.42713 15.4397 8.49935 15.5174 8.49935 15.6063V20.3397H8.5049ZM10.9438 20.3397C10.9438 20.4341 10.866 20.5063 10.7771 20.5063H9.81046C9.71602 20.5063 9.64379 20.4286 9.64379 20.3397V15.6008C9.64379 15.5063 9.72157 15.4341 9.81046 15.4341H10.7771C10.8716 15.4341 10.9438 15.5119 10.9438 15.6008V20.3397ZM16.6382 18.8674C16.6382 19.5452 16.1382 20.3119 15.4938 20.4397H13.8271H12.0771V19.323L14.8382 19.2841C15.1827 19.2786 15.2049 19.0786 15.1993 18.9397C15.1993 18.9397 15.266 18.5008 14.7938 18.5008H13.2605C12.3382 18.5008 11.8438 17.923 11.8438 16.9341C11.8438 15.5452 12.6382 15.3841 13.916 15.3841C15.1938 15.3841 16.166 15.3674 16.166 15.3674L16.1493 16.5174C15.2271 16.5174 14.4271 16.523 13.916 16.523C13.2105 16.523 13.216 16.5452 13.216 16.9619C13.216 17.3341 13.2716 17.3341 13.8493 17.3341L15.4993 17.3508C16.6771 17.3563 16.6382 18.8674 16.6382 18.8674ZM21.8882 18.8674C21.8882 19.5452 21.3882 20.3119 20.7438 20.4397H19.0771H17.3327V19.323L20.0938 19.2841C20.4382 19.2786 20.4605 19.0786 20.4549 18.9397C20.4549 18.9397 20.5216 18.5008 20.0493 18.5008H18.516C17.5938 18.5008 17.0993 17.923 17.0993 16.9341C17.0993 15.5452 17.8938 15.3841 19.1716 15.3841C20.4493 15.3841 21.4216 15.3674 21.4216 15.3674L21.4049 16.5174C20.4827 16.5174 19.6827 16.523 19.1716 16.523C18.466 16.523 18.4716 16.5452 18.4716 16.9619C18.4716 17.3341 18.5271 17.3341 19.1049 17.3341L20.7549 17.3508C21.9271 17.3563 21.8882 18.8674 21.8882 18.8674ZM27.4605 20.3897H26.4716C26.3771 20.3897 26.2716 20.323 26.2271 20.2397L25.9493 19.6674C25.9105 19.5841 25.7993 19.5174 25.7049 19.5174H23.8716C23.7771 19.5174 23.666 19.5841 23.6271 19.6674L23.3327 20.2397C23.2882 20.323 23.1827 20.3897 23.0882 20.3897H22.0716C21.9771 20.3897 21.9271 20.3174 21.9605 20.2341L23.716 15.473C23.7493 15.3841 23.8493 15.3174 23.9438 15.3174H25.5882C25.6827 15.3174 25.7827 15.3897 25.816 15.473L27.5771 20.2341C27.6049 20.3174 27.5549 20.3897 27.4605 20.3897ZM33.3716 20.3397C33.3716 20.4341 33.2938 20.5063 33.2049 20.5063H31.3382C31.2438 20.5063 31.1382 20.4397 31.0993 20.3508L29.4716 16.8452C29.4327 16.7619 29.3993 16.6952 29.3993 16.7008C29.3993 16.7063 29.3938 16.7841 29.3938 16.8786L29.3716 20.3397C29.3716 20.4341 29.2938 20.5063 29.1993 20.5063H28.2993C28.2049 20.5063 28.1327 20.4286 28.1327 20.3397V15.6008C28.1327 15.5063 28.2105 15.4341 28.2993 15.4341H30.2994C30.3938 15.4341 30.4993 15.5063 30.5327 15.5897L31.9938 19.0841C32.0271 19.1674 32.0605 19.1619 32.0605 19.073V15.6063C32.0605 15.5119 32.1382 15.4397 32.2271 15.4397H33.1993C33.2938 15.4397 33.366 15.5174 33.366 15.6063V20.3397H33.3716Z" fill="#262625"/>
</svg>
