<svg width="36" height="36" viewBox="0 0 36 36" fill="none" xmlns="http://www.w3.org/2000/svg">
<path d="M32.4089 16.0775L32.3963 16.0507H31.4963L32.9159 19.8957V19.9225H33.8285L32.4089 16.0775Z" fill="#262625"/>
<path d="M29.9879 16.0641L28.8853 19.9225H29.7218L30.5838 17.0689H31.6105L31.2429 16.0507L29.9879 16.0641Z" fill="#262625"/>
<path d="M4.01711 17.8995L4.00443 17.8861V17.1492L4.43538 16.6669H7.0591L8.32658 17.9933V16.6937L7.69283 16.0641L3.77628 16.0507L3.19324 16.6937V17.5378L4.01711 18.4488V17.8995Z" fill="#262625"/>
<path d="M7.51539 18.8375H7.50272V18.8642L7.04642 19.2929H4.4227L3.19324 17.8728V19.2796L3.82698 19.9226H7.69283L8.33926 19.2662V18.3418L7.51539 17.5111V18.8375Z" fill="#262625"/>
<path d="M17.0976 17.8995L17.085 17.8861V17.1492L17.5159 16.6669H20.127L21.3945 17.9933V16.6937L20.7734 16.0641L16.8568 16.0507L16.2611 16.6937V17.5378L17.0976 18.4488V17.8995Z" fill="#262625"/>
<path d="M20.5959 18.8375H20.5833V18.8642L20.127 19.2929H17.5032L16.2611 17.8728V19.2796L16.8949 19.9226H20.7734L21.4071 19.2662V18.3418L20.5959 17.5111V18.8375Z" fill="#262625"/>
<path d="M12.9023 16.0507L12.408 18.7301L12.6108 19.9091L12.953 19.9225L13.4473 17.0689H14.0684V19.9493H14.8923V16.7071L14.3219 16.0507H12.9023Z" fill="#262625"/>
<path d="M10.2024 16.0641L9.64465 16.734V19.9359H9.69536C9.77141 19.9359 10.177 19.9359 10.4432 19.9359H10.4812V17.0823H11.1023L11.5586 19.9493H12.3951L11.7107 16.0641H10.2024Z" fill="#262625"/>
<path d="M26.3123 16.0507L27.1614 16.7473V18.8507L26.5532 19.2928H23.7139V16.6937H26.6925L25.9194 16.0507H22.8521V19.9225H27.3897L27.998 19.2794V16.6937L27.2248 16.0507H26.3123Z" fill="#262625"/>
</svg>
