<svg width="36" height="36" viewBox="0 0 36 36" fill="none" xmlns="http://www.w3.org/2000/svg">
<path d="M17.9811 28.9587C11.9818 28.9587 7.0059 23.9848 7.0059 17.9879C7.0059 17.6761 7.02022 17.3671 7.04663 17.0614L16.2299 17.6341L12.2579 20.3772C12.2041 20.415 12.1687 20.4773 12.1687 20.5477C12.1687 20.6625 12.262 20.7558 12.3768 20.7558H28.5942C27.3472 25.441 23.0262 28.9587 17.9811 28.9587ZM17.9811 7.01669C23.9804 7.01669 28.9563 11.991 28.9563 17.9879C28.9563 18.2973 28.9426 18.6043 28.9164 18.9079L19.7421 18.325L23.723 15.5983C23.7772 15.5604 23.8122 15.4981 23.8122 15.4277C23.8122 15.3129 23.7193 15.2197 23.6049 15.2197H7.36794C8.61539 10.5344 12.936 7.01669 17.9811 7.01669ZM33.7216 19.2133L30.7189 19.0223C30.7463 18.6812 30.7608 18.336 30.7608 17.9879C30.7608 10.9325 25.0393 5.21326 17.9811 5.21326C11.8742 5.21326 6.76844 9.49549 5.50351 15.2197H3.14548C2.99114 15.2197 2.85306 15.2929 2.76552 15.4069L2.06379 16.3754C2.03219 16.4161 2.01331 16.467 2.01331 16.5224C2.01331 16.6551 2.12043 16.7621 2.2532 16.7621L5.2441 16.9486C5.21639 17.2914 5.20174 17.6378 5.20174 17.9879C5.20174 25.0429 10.9233 30.7622 17.9811 30.7622C24.0879 30.7622 29.1937 26.4799 30.4591 20.7558H32.8289C32.9836 20.7558 33.1213 20.6825 33.2089 20.5685L33.911 19.6C33.9426 19.5593 33.9615 19.5084 33.9615 19.453C33.9615 19.3203 33.854 19.2133 33.7216 19.2133Z" fill="#262625"/>
</svg>
