<svg width="36" height="36" viewBox="0 0 36 36" fill="none" xmlns="http://www.w3.org/2000/svg">
<g clip-path="url(#clip0_954_37020)">
<mask id="mask0_954_37020" style="mask-type:luminance" maskUnits="userSpaceOnUse" x="2" y="0" width="32" height="35">
<path d="M34 35H2V0H34V35Z" fill="white"/>
</mask>
<g mask="url(#mask0_954_37020)">
<path fill-rule="evenodd" clip-rule="evenodd" d="M17.2169 33.9274C12.9975 31.9647 9.3327 28.7482 6.89719 24.8716C4.46757 21.0063 3.1907 16.5295 2.87831 10.7818C2.77881 8.94803 2.77881 6.6607 2.87777 3.7903L2.92271 2.48027L4.21562 2.26363C8.76514 1.50457 13.3671 1.11943 17.8931 1.11943C22.4191 1.11943 27.0205 1.50457 31.5695 2.26363L32.8624 2.48027L32.9078 3.7903C33.0073 6.66123 33.0073 8.94857 32.9073 10.7818C32.5944 16.5295 31.3181 21.0063 28.8884 24.8716C26.4535 28.7482 22.7876 31.9647 18.5687 33.9274L17.8931 34.2414L17.2169 33.9274Z" fill="#262625"/>
</g>
<path fill-rule="evenodd" clip-rule="evenodd" d="M17.893 2.06386C13.3303 2.06386 8.5942 2.45208 3.78725 3.27878C3.71549 5.19897 3.63369 8.167 3.7711 10.6856C4.07715 16.3011 5.31772 20.6596 7.67534 24.4024C10.0259 28.1342 13.666 31.3431 17.893 33.2488C22.1201 31.3431 25.7598 28.1342 28.1104 24.4024C30.4683 20.6596 31.7085 16.3011 32.0148 10.6856C32.1516 8.167 32.0702 5.19897 31.9984 3.27878C27.1915 2.45208 22.4557 2.06386 17.893 2.06386ZM17.893 2.60483C22.3907 2.60483 26.9576 2.98597 31.4727 3.73818C31.5718 6.58684 31.5717 8.85338 31.4733 10.6564C31.1724 16.1762 29.9582 20.4529 27.6514 24.1147C25.345 27.7763 21.8861 30.8009 17.893 32.654C13.8996 30.8009 10.4411 27.7763 8.13462 24.1147C5.82785 20.4529 4.61336 16.1762 4.31279 10.6564C4.21431 8.85338 4.21426 6.58684 4.31337 3.73818C8.82844 2.98597 13.395 2.60483 17.893 2.60483Z" fill="white"/>
<path fill-rule="evenodd" clip-rule="evenodd" d="M8.45633 5.18145C8.41204 5.18036 8.36486 5.18244 8.31498 5.18758C7.64689 5.25724 6.97977 5.33393 6.31329 5.41804V7.38637C6.42882 7.3716 6.5447 7.35747 6.66023 7.34334V6.73435C7.21118 6.66693 7.76307 6.60461 8.31498 6.54715C8.71403 6.50573 8.93706 6.33918 8.93706 5.92695V5.70415C8.93706 5.3516 8.76635 5.18905 8.45633 5.18145ZM8.41801 5.49443C8.5078 5.48512 8.59791 5.55322 8.59791 5.64344V6.04213C8.59791 6.12785 8.5078 6.20979 8.41801 6.21943C7.83167 6.27946 7.24561 6.34561 6.66023 6.41688V5.69224C7.24561 5.62065 7.83167 5.55479 8.41801 5.49443Z" fill="white"/>
<path fill-rule="evenodd" clip-rule="evenodd" d="M17.2528 4.6933C17.8775 4.68881 18.5021 4.69105 19.1264 4.6994V5.0166C18.459 5.00793 17.7912 5.006 17.1235 5.01146C17.033 5.01242 16.9426 5.09044 16.9426 5.18065V6.16691C16.9426 6.25712 17.033 6.34637 17.1235 6.34541C17.7223 6.34027 18.3209 6.34124 18.9198 6.34798V5.81601C18.5723 5.81216 18.2247 5.81023 17.8775 5.81055V5.49303C18.3383 5.49303 18.7991 5.49656 19.26 5.50331V6.66967C18.6125 6.66004 17.965 6.65747 17.3175 6.66133C16.8435 6.66454 16.6024 6.58299 16.6024 6.12389V5.26605C16.6024 4.83745 16.8177 4.69651 17.2528 4.6933Z" fill="white"/>
<path fill-rule="evenodd" clip-rule="evenodd" d="M24.0179 4.89911C23.6445 4.90017 23.4765 5.01799 23.4765 5.40425V6.2832C23.4765 6.75097 23.7175 6.84226 24.1906 6.87404C24.625 6.90358 25.0588 6.93625 25.493 6.97189C25.9612 7.01041 26.2062 6.93076 26.2062 6.48867V5.60972C26.2062 5.15929 25.9226 5.03887 25.493 5.00356C25.0588 4.9676 24.625 4.93522 24.1906 4.90536C24.1287 4.90119 24.0712 4.89896 24.0179 4.89911ZM23.9972 5.20998C24.5607 5.2469 25.1236 5.2893 25.6864 5.33682C25.7765 5.34452 25.8667 5.42954 25.8667 5.53227V6.50612C25.8667 6.59602 25.7765 6.67851 25.6864 6.67081C25.1236 6.62329 24.5607 6.58085 23.9972 6.54361C23.8939 6.53655 23.8163 6.44191 23.8163 6.35169V5.3782C23.8163 5.27514 23.8939 5.20291 23.9972 5.20998Z" fill="white"/>
<path fill-rule="evenodd" clip-rule="evenodd" d="M15.75 4.7159V6.13975C15.75 6.59018 15.5129 6.68906 15.035 6.70383C14.6189 6.71667 14.2028 6.73208 13.7866 6.7507C13.3432 6.77061 13.0722 6.68649 13.0722 6.24056V4.81671L13.4121 4.79937V6.28326C13.4121 6.37347 13.4896 6.44699 13.5926 6.44218C14.1381 6.41681 14.6832 6.39627 15.2287 6.38053C15.3323 6.37764 15.4012 6.29867 15.4012 6.20845V4.72457C15.5174 4.72136 15.6335 4.71847 15.75 4.7159Z" fill="white"/>
<path fill-rule="evenodd" clip-rule="evenodd" d="M20.1106 4.71764C20.9486 4.73754 21.7863 4.769 22.624 4.81202V5.12922C21.8999 5.0923 21.1755 5.06373 20.4508 5.04382V5.52828C21.0954 5.54626 21.7396 5.57066 22.3836 5.6018V5.91932C21.7396 5.88817 21.0954 5.86346 20.4508 5.8458V6.37745C21.1755 6.39736 21.8999 6.42593 22.624 6.46317V6.78037C21.7863 6.73767 20.9486 6.70621 20.1106 6.68598V4.71764Z" fill="white"/>
<path fill-rule="evenodd" clip-rule="evenodd" d="M12.2197 4.86503V5.18222C11.4959 5.22685 10.7725 5.27982 10.0497 5.34114V5.82592C10.6927 5.77102 11.336 5.72319 11.9796 5.68209V5.99961C11.336 6.04071 10.6927 6.08854 10.0497 6.14312V6.6751C10.7725 6.61345 11.4959 6.56048 12.2197 6.51618V6.83337C11.3827 6.88474 10.5463 6.94767 9.71019 7.02183V5.05316C10.5463 4.979 11.3827 4.9164 12.2197 4.86503Z" fill="white"/>
<path fill-rule="evenodd" clip-rule="evenodd" d="M26.8359 5.12373C27.7157 5.20913 28.5949 5.30737 29.4725 5.41781V5.73533C29.0931 5.68749 28.713 5.6419 28.3327 5.59888V7.25003C28.2171 7.23687 28.1016 7.22402 27.9854 7.21118V5.56003C27.6028 5.51798 27.2192 5.47849 26.8359 5.44125V5.12373Z" fill="white"/>
<path fill-rule="evenodd" clip-rule="evenodd" d="M15.1946 8.89049C16.8101 8.74891 18.9962 8.71038 21.0844 8.86802C21.2032 8.877 21.3187 8.90494 21.4285 8.95117C22.1126 9.23818 23.3265 9.86615 24.6762 10.6363C24.7358 10.6704 24.7918 10.7102 24.8432 10.7555C25.2008 11.0698 26.1067 11.9944 26.1067 11.9944L25.8241 11.9385C25.7846 11.9308 25.7475 11.9154 25.7141 11.8929C25.1425 11.5099 24.3081 11.0113 23.6088 10.6598C23.5257 10.6184 23.4359 10.5917 23.3436 10.5821C23.0034 10.5458 22.5436 10.514 22.2427 10.5018C22.0943 10.4957 21.9933 10.471 21.8481 10.3975C21.5707 10.2572 20.8988 9.95316 20.5641 9.8257C20.4209 9.77112 20.3478 9.75828 20.2075 9.76053C19.6324 9.76888 18.3223 9.81061 17.6533 9.85203C17.6301 9.85331 17.6079 9.85233 17.5854 9.84881L17.2664 9.79905C18.1707 9.64366 20.4061 9.44493 21.3313 9.39645L20.9548 9.27092C20.882 9.24684 20.8064 9.234 20.7295 9.23208C20.5286 9.2273 20.082 9.2184 19.5022 9.21762L19.3042 9.21768C18.426 9.21938 17.2961 9.24087 16.254 9.31908C16.1629 9.32582 16.0741 9.34765 15.9904 9.38457C15.5695 9.56902 14.5431 10.1242 13.5136 10.6945L13.285 10.8213C13.0189 10.9692 12.7556 11.1164 12.5055 11.2566C12.5055 11.2566 12.6339 11.0919 12.6587 11.0598C12.6806 11.0319 12.6873 11.0267 12.7169 11.0075C12.7583 10.9804 12.8995 10.8876 13.0419 10.7934L13.1474 10.7236C13.2329 10.6668 13.3092 10.6158 13.3522 10.5863C13.3734 10.5718 13.387 10.5615 13.4137 10.5416C13.7236 10.3085 14.2127 9.89761 14.5043 9.64302C14.5703 9.58555 14.6263 9.51877 14.6723 9.44429C14.7666 9.29211 14.8696 9.12709 14.933 9.0356C14.987 8.9563 15.0794 8.90076 15.1946 8.89049Z" fill="white"/>
<path fill-rule="evenodd" clip-rule="evenodd" d="M15.9772 10.4478C16.0142 10.4475 16.0374 10.4872 16.0191 10.519L15.2384 11.86C15.1949 11.939 15.1222 11.9978 15.0359 12.0238L13.572 12.4806C13.4021 12.532 13.2585 12.5596 13.0815 12.5731C12.7568 12.5975 11.7924 12.6277 11.7924 12.6277L11.8136 12.5821C11.8236 12.5606 11.8413 12.5436 11.8632 12.5342L12.3195 12.341C12.3536 12.3265 12.3835 12.3044 12.4064 12.2758L13.1112 11.4103C13.1488 11.364 13.198 11.3197 13.2505 11.2921C13.7162 11.0478 14.5442 10.6808 15.1241 10.4876C15.1788 10.4693 15.2525 10.4577 15.3101 10.4571L15.9772 10.4478Z" fill="white"/>
<path fill-rule="evenodd" clip-rule="evenodd" d="M12.3338 12.8572C12.3644 12.8546 12.3933 12.8716 12.4052 12.8996C12.4454 12.993 12.4345 13.0973 12.3956 13.1866C12.3804 13.2229 12.3338 13.2582 12.2955 13.2665L11.9753 13.3375C11.956 13.3416 11.9383 13.3262 11.9396 13.3067L11.9695 12.9317C11.9717 12.9063 11.9917 12.8861 12.0171 12.8842L12.3338 12.8572Z" fill="white"/>
<path fill-rule="evenodd" clip-rule="evenodd" d="M19.4347 11.2737C19.4826 11.2654 19.5319 11.2721 19.576 11.293L19.9103 11.4525C19.9432 11.4683 19.9673 11.4981 19.976 11.5341C20.0214 11.7248 20.077 11.9775 20.1144 12.1922C20.1295 12.2815 20.1128 12.3727 20.0674 12.4513C19.929 12.6912 19.6448 13.1226 19.4859 13.3544C19.4505 13.4064 19.4463 13.4694 19.4572 13.5313C19.5293 13.9288 19.8299 15.3167 19.8299 15.3167L19.6407 15.1449C19.603 15.1102 19.5782 15.0736 19.5621 15.0258C19.4276 14.6332 19.176 13.8129 19.0601 13.4138C19.0414 13.348 19.0556 13.2777 19.099 13.2254C19.2963 12.9865 19.5837 12.6045 19.7517 12.3624C19.7987 12.2943 19.8141 12.2192 19.7864 12.163C19.7478 12.084 19.6828 11.964 19.6204 11.8551C19.6036 11.825 19.5757 11.8025 19.5425 11.7916L19.3156 11.719C19.276 11.7065 19.2336 11.7071 19.1943 11.7213C18.7 11.9001 18.0351 12.1579 17.6283 12.3261C17.5688 12.3508 17.5444 12.3528 17.4723 12.3419C17.3545 12.3245 17.0114 12.2632 16.8431 12.2317C16.8129 12.226 16.7977 12.1919 16.8132 12.1653L17.0127 11.8205C17.0397 11.7739 17.0845 11.7409 17.1373 11.729C17.779 11.5832 18.6276 11.4156 19.4347 11.2737Z" fill="white"/>
<path fill-rule="evenodd" clip-rule="evenodd" d="M12.4577 11.6351L12.3264 11.7962C12.319 11.8033 12.3119 11.81 12.3045 11.8174C12.189 11.9025 11.7027 12.2739 11.5711 12.378C11.5337 12.4075 11.5189 12.4332 11.5103 12.4797C11.4806 12.6441 11.4314 12.9565 11.4169 13.1295C11.4127 13.1803 11.3909 13.2053 11.339 13.2262C11.1135 13.3177 10.846 13.414 10.6298 13.5003C10.5834 13.5186 10.5706 13.5257 10.5432 13.5466C10.5216 13.5633 10.2343 13.8191 10.2343 13.8191C10.2343 13.8191 10.8589 13.6657 11.088 13.614C11.1427 13.6018 11.1662 13.605 11.2168 13.6288C11.2641 13.6506 11.3429 13.6817 11.3844 13.6968C11.4481 13.7203 11.4819 13.7193 11.5524 13.7039C11.8105 13.6464 12.2446 13.5437 12.4757 13.4837C12.5957 13.4525 12.6614 13.4201 12.7631 13.3491C12.8738 13.2724 13.1541 13.0628 13.1541 13.0628C13.1541 13.0628 13.1489 13.0997 13.1451 13.1202C13.1422 13.1379 13.1357 13.1478 13.1242 13.1616C13.0672 13.23 12.9674 13.3414 12.9179 13.3925C12.8043 13.5097 12.7364 13.5514 12.5938 13.6108C11.9373 13.8837 10.8155 14.3075 9.97391 14.598C9.91888 14.6173 9.89507 14.633 9.8542 14.6747C9.80978 14.7197 9.75057 14.7852 9.75057 14.7852C9.75057 14.7852 10.4367 14.8349 10.6462 14.859C10.7141 14.8667 10.7627 14.8889 10.8145 14.9335C10.9867 15.0812 11.5566 15.6665 11.7272 15.8697C11.7272 15.8697 10.1068 16.1384 9.35603 16.3243C9.26334 16.3471 9.217 16.4058 9.19608 16.48C9.13397 16.6977 8.98755 17.3975 8.98755 17.3975C8.98755 17.3975 8.93541 17.3809 8.86268 17.3391C8.8128 17.3105 8.78738 17.2868 8.73267 17.229C8.55503 17.0418 8.26314 16.6835 8.12283 16.4758C8.08164 16.4145 8.06426 16.3365 8.11575 16.2739C8.26797 16.087 8.57369 15.7461 8.74233 15.5708C8.76035 15.5518 8.7832 15.5188 8.80733 15.4713C8.86407 15.3588 8.93887 15.0741 8.96492 14.9713L8.97325 14.938L8.97434 14.9335C8.97434 14.9335 8.97273 14.9345 8.96983 14.9363L8.93903 14.9557C8.89729 14.9818 8.82985 15.0241 8.80089 15.0423C8.75744 15.0699 8.74554 15.0818 8.72751 15.1197C8.70016 15.1769 8.65221 15.2671 8.61584 15.3297C8.60394 15.3502 8.57208 15.382 8.55502 15.3952C8.33973 15.5592 8.10191 15.7355 7.93263 15.8543C7.92105 15.8623 7.90624 15.8588 7.89627 15.8491C7.8747 15.8276 7.78427 15.7252 7.76818 15.7011C7.75467 15.6809 7.74854 15.662 7.74854 15.6376C7.74823 15.5949 7.75241 15.5197 7.7566 15.4639C7.76175 15.3977 7.78073 15.3663 7.86151 15.2828C7.95194 15.1894 8.05041 15.0911 8.15404 14.9903C8.40795 14.7772 9.04901 14.2583 10.1937 13.4435C10.2153 13.4281 10.2349 13.4101 10.2507 13.3886C10.371 13.2268 10.7125 12.785 10.7968 12.6801C10.8087 12.6653 10.8219 12.6515 10.837 12.6396C10.9719 12.5333 11.0385 12.4874 11.1752 12.4014C11.4942 12.2011 12.1117 11.8357 12.4577 11.6351Z" fill="white"/>
<path fill-rule="evenodd" clip-rule="evenodd" d="M9.86967 17.1406L9.72839 18.1131L9.24792 17.5506C9.33546 17.3615 9.5913 17.183 9.86967 17.1406Z" fill="white"/>
<path fill-rule="evenodd" clip-rule="evenodd" d="M13.0341 17.6566C12.7947 18.0495 12.5086 18.4669 12.2923 18.7276C12.264 18.7616 12.2263 18.7879 12.1835 18.804C11.947 18.8923 11.5528 19.0252 11.2625 19.1135L13.0341 17.6566Z" fill="white"/>
<path fill-rule="evenodd" clip-rule="evenodd" d="M23.2486 11.343C23.3754 11.2964 23.5144 11.2996 23.6389 11.352C24.605 11.7565 26.2295 12.7081 27.1325 13.3784C27.2198 13.4433 27.2545 13.4879 27.2774 13.5926C27.4894 14.5544 27.5699 16.0412 27.4363 17.2929C27.4267 17.3828 27.4087 17.4368 27.3617 17.5328C26.7895 18.6998 26.1455 19.7981 25.4678 20.6453L25.4691 20.6315C25.478 20.5412 25.5266 20.0325 25.5292 19.7573C25.5295 19.7262 25.544 19.6976 25.5688 19.6787C25.6947 19.5811 25.8675 19.4424 25.9653 19.3579C26.0129 19.3168 26.0393 19.286 26.0641 19.2462C26.3402 18.8012 26.8339 17.8695 27.0328 17.309C27.0814 17.1722 27.1007 17.0274 27.0888 16.8826C27.025 16.1015 26.9021 15.0193 26.719 14.313C26.6878 14.1926 26.608 14.0908 26.4969 14.034C26.3389 13.9531 26.029 13.8121 25.3233 13.5299C25.2255 13.4908 25.1341 13.4365 25.0536 13.3691C24.5908 12.9813 23.8674 12.3999 23.4172 12.0653C23.2856 11.9674 23.1176 11.9318 22.9573 11.968C22.6294 12.0422 22.212 12.1456 21.9771 12.2092C21.8972 12.2307 21.8657 12.2326 21.7833 12.223C21.7404 12.218 21.685 12.2126 21.6267 12.2073L21.5385 12.1995C21.4359 12.1908 21.3396 12.1834 21.3019 12.1806L21.2851 12.1793C22.0507 11.8207 22.7874 11.5112 23.2486 11.343Z" fill="white"/>
<path fill-rule="evenodd" clip-rule="evenodd" d="M11.8496 16.2774C11.9256 16.253 12.0064 16.2501 12.0836 16.2687C12.4318 16.3522 13.1688 16.5323 13.7258 16.6745C13.804 16.6944 13.9015 16.7673 13.9431 16.8363L14.0644 17.0376C14.1069 17.1083 14.1098 17.1949 14.0721 17.2681C13.9708 17.4639 13.8264 17.7291 13.6737 18.0025L13.5582 18.2081C13.3456 18.5844 13.1338 18.9475 13.0137 19.1386C12.9345 19.2647 12.8904 19.3206 12.7494 19.3704C12.2014 19.5627 11.5208 19.7925 11.1162 19.9232C11.0335 19.9498 11.0055 19.9999 11.0216 20.0914C11.0506 20.2581 11.1439 20.8237 11.1796 20.9888C11.1928 21.0498 11.2417 21.0982 11.3325 21.0809C11.5716 21.0356 12.2082 20.8802 12.2082 20.8802C12.2082 20.8802 12.0205 21.0533 11.9082 21.1554C11.8876 21.1746 11.8638 21.1888 11.8371 21.1974C11.6636 21.2552 11.2401 21.3737 11.1082 21.4026C11.0052 21.4247 10.9396 21.3843 10.9132 21.2681C10.9132 21.2681 10.7326 20.5014 10.6673 20.2407C10.657 20.2009 10.6467 20.1666 10.6342 20.1274C10.5852 19.9765 10.4678 19.6798 10.4015 19.5245C10.3938 19.5065 10.3899 19.4872 10.3902 19.4673C10.3921 19.2898 10.425 18.8936 10.425 18.8936C10.425 18.8936 10.8147 19.258 11.0033 19.3896C11.0458 19.4195 11.0712 19.4256 11.1233 19.4124C11.3824 19.346 11.9781 19.1495 12.305 19.0275C12.3797 18.9995 12.445 18.9527 12.4959 18.8914C12.8341 18.4839 13.2582 17.8502 13.5031 17.3722C13.5369 17.3063 13.5434 17.2309 13.5221 17.1603L13.4693 16.9869C13.4539 16.9362 13.4002 16.879 13.3506 16.8601C12.7742 16.6414 12.3198 16.479 11.7859 16.2976L11.8496 16.2774Z" fill="white"/>
<path fill-rule="evenodd" clip-rule="evenodd" d="M22.1774 14.3164L22.3766 14.4028C22.4355 14.4281 22.4892 14.4654 22.5336 14.5116C23.7549 15.783 24.7316 17.1012 24.9273 17.4486C24.965 17.5153 24.9907 17.5821 25 17.6585C25.2195 19.5126 25.0309 21.4768 24.5826 23.1854C24.5421 23.3395 24.4967 23.4184 24.348 23.5299C23.8694 23.8889 23.155 24.4615 22.4445 25.0452L22.2206 25.2297C21.3647 25.9364 20.5516 26.6284 20.2066 26.9468C20.12 27.027 20.0444 27.1176 19.9826 27.218C19.8208 27.4803 19.5738 27.9317 19.4525 28.1558L19.4186 28.2185C19.3943 28.2637 19.3802 28.29 19.3802 28.29C19.2193 27.9398 18.8685 27.0851 18.7481 26.7397C18.7089 26.627 18.7018 26.5679 18.7433 26.417C18.9396 25.7008 19.8674 23.6185 20.0479 23.2419L20.0482 23.396C20.0482 23.4184 20.0447 23.4406 20.0376 23.4618C19.9562 23.708 19.4574 25.3492 19.356 26.061C19.3335 26.2193 19.3354 26.262 19.356 26.4174C19.4004 26.7496 19.5996 27.359 19.5996 27.359C19.5996 27.359 19.7177 27.1131 19.8278 26.9468C19.8819 26.8652 19.9144 26.826 20.0025 26.7387C20.4486 26.2987 21.2095 25.6185 22.0021 24.9346L22.2827 24.6934C22.8915 24.1722 23.4993 23.665 23.9795 23.2775C24.1044 23.1767 24.1511 23.1093 24.1787 22.9179C24.3165 21.9753 24.3564 20.2834 24.2734 19.0522C24.2576 18.8198 24.182 18.595 24.0507 18.4021C23.7494 17.9581 23.3893 17.5378 22.8432 16.9981C22.7653 16.9208 22.7122 16.8219 22.6923 16.714C22.533 15.8664 22.1774 14.3164 22.1774 14.3164Z" fill="white"/>
<path fill-rule="evenodd" clip-rule="evenodd" d="M15.7474 14.9334C15.7474 14.9334 15.8584 15.292 15.9654 15.6814L16.0028 15.8195C16.0704 16.0733 16.1307 16.3237 16.1526 16.4822C16.1735 16.6347 16.1699 16.6758 16.1156 16.8218C15.9837 17.1717 15.741 17.7346 15.4821 18.31L15.3704 18.5567C15.0528 19.2548 14.7312 19.9292 14.575 20.2211C14.4981 20.3649 14.4257 20.4587 14.2809 20.6054C13.9504 20.9409 13.3177 21.575 12.926 21.9297C12.7838 22.0588 12.7455 22.1689 12.7165 22.3358C12.6699 22.6039 12.6235 23.0614 12.6107 23.2977C12.5994 23.5054 12.6332 23.6027 12.7494 23.8085C13.4397 25.0365 15.7442 27.8617 16.4007 28.455C16.4483 28.498 16.4831 28.5269 16.5835 28.5934C16.68 28.6576 16.9948 28.8611 16.9948 28.8611C17.0073 28.8698 17.0179 28.8814 17.026 28.8945L17.1399 29.0945C17.1399 29.0945 17.1292 29.0893 17.11 29.0798L17.0609 29.0554C17.0213 29.0357 16.969 29.0098 16.9089 28.9798L16.7626 28.9068C16.5383 28.7945 16.2709 28.6595 16.1304 28.5841C16.0724 28.5529 16.018 28.5163 15.9675 28.4743C15.1987 27.8373 12.8427 25.0875 12.1498 23.9395C11.977 23.6528 11.9593 23.56 11.9825 23.2887C12.0259 22.7837 12.0932 22.1487 12.1521 21.8703C12.1878 21.7024 12.2248 21.6039 12.3539 21.4555C12.7875 20.9577 13.3165 20.3004 13.8319 19.626L14.0131 19.3875C14.7942 18.3528 15.5138 17.3173 15.7825 16.7897C15.8439 16.6697 15.8491 16.6279 15.8504 16.5146C15.8539 16.1858 15.7487 15.5457 15.721 15.3839C15.7168 15.3585 15.7155 15.3328 15.7178 15.3071L15.7474 14.9334Z" fill="white"/>
<path fill-rule="evenodd" clip-rule="evenodd" d="M17.8537 19.0027C17.8537 19.0027 17.9425 19.5283 17.9695 19.6808C17.9847 19.7671 17.9879 19.7903 17.966 19.875C17.895 20.1475 17.5671 21.5841 17.3046 23.0546L17.2638 23.2869C17.1565 23.9063 17.0639 24.5211 17.0099 25.0471C16.9793 25.346 16.9893 25.4176 17.0685 25.6828C17.2928 26.4321 18.1224 28.3898 18.2817 28.7468C18.2994 28.7863 18.31 28.8277 18.3152 28.8704L18.375 29.3321C18.1092 28.9318 16.6649 26.2841 16.0975 24.8179C16.0306 24.6451 16.0177 24.5601 16.0917 24.2425C16.4863 22.558 17.5538 19.6955 17.8537 19.0027Z" fill="white"/>
</g>
<defs>
<clipPath id="clip0_954_37020">
<rect width="30.1786" height="33.1361" fill="white" transform="translate(2.80362 1.11238)"/>
</clipPath>
</defs>
</svg>
