<svg width="36" height="36" viewBox="0 0 36 36" fill="none" xmlns="http://www.w3.org/2000/svg">
<g clip-path="url(#clip0_439_17674)">
<path fill-rule="evenodd" clip-rule="evenodd" d="M15.881 4.35537C15.3315 4.54426 14.6595 4.8772 14.3876 5.09535C14.1159 5.3135 13.4104 5.71051 12.82 5.97756C11.5877 6.53505 11.5154 6.7649 12.2371 7.8282C12.9651 8.90084 13.5339 9.12066 14.1066 8.55063C14.5115 8.14777 15.4256 8.19513 15.6599 8.63101C15.8888 9.05644 15.4778 9.25328 14.4958 9.18878C13.243 9.10645 12.9434 9.56462 13.6263 10.519C14.2154 11.3421 14.626 11.4943 15.3091 11.1428C16.0185 10.7778 16.1858 10.9043 15.8411 11.5451C15.4323 12.3053 15.3075 12.2801 12.4289 10.855C8.56388 8.94152 6.6288 8.96422 5.555 10.9356C5.16594 11.6499 5.71026 12.3727 6.53794 12.2409C7.1916 12.137 7.2756 12.1715 7.44458 12.6137C7.5661 12.9319 7.77064 13.1011 8.03342 13.1011C8.25476 13.1011 8.73986 13.2882 9.11128 13.5168L9.78664 13.9325L8.5734 14.1772C6.15098 14.6661 5.53736 14.9646 5.0734 15.8802C4.24572 17.5131 4.75252 18.5344 6.15518 18.0606C6.74206 17.8624 7.0565 17.8369 7.22394 17.974C7.3708 18.094 8.55352 18.1538 10.3291 18.1307C13.3705 18.091 13.9329 18.2038 14.9141 19.0509C15.3742 19.4481 15.3745 19.4493 15.0282 20.0361C12.6559 24.0561 12.2147 25.049 12.1469 26.5181C12.1104 27.3113 12.0684 27.9603 12.0535 27.9605C11.4717 27.9659 8.77122 28.5892 8.46546 28.7885C8.04728 29.0611 7.89342 29.613 7.77652 31.2607L7.7334 31.8679L11.9334 31.901L16.1334 31.9338L16.0687 30.6254L16.004 29.3167L18.1791 26.8859L20.3541 24.4549L21.7904 25.5206C24.0875 27.2248 24.3623 27.3927 25.1068 27.5466C25.9732 27.7258 26.1434 28.0917 25.4333 28.2487C23.5395 28.6673 23.2664 28.9656 23.0612 30.8392L22.9391 31.9536L26.4772 31.9462L30.0151 31.9389L30.8676 31.0281C31.3364 30.5271 31.72 30.0069 31.72 29.8719C31.72 29.4547 29.3802 25.0667 28.2818 23.4241C27.0184 21.5348 27.0191 21.7566 28.2717 20.5259C30.069 18.7596 30.0453 18.2318 27.9711 13.8109C26.4319 10.5303 26.1904 9.65141 26.5757 8.73368C26.8928 7.97851 27.6134 7.8041 27.6134 8.48265C27.6134 10.1431 30.2773 13.3285 30.8692 12.3756C30.9807 12.1962 30.2152 9.07441 29.7396 7.76858C29.0586 5.89843 26.653 5.56787 25.307 7.15941L24.7916 7.769L24.0479 7.04643C23.6389 6.649 23.2574 6.13817 23.2002 5.91125C23.1216 5.59991 22.739 5.36156 21.6417 4.94044C18.9641 3.91308 17.5781 3.77224 15.881 4.35537ZM18.9408 4.83833C21.2003 5.4092 22.1951 5.8657 22.3262 6.39171C22.3928 6.65973 22.9871 7.43648 23.6466 8.11782C24.8079 9.31764 24.8511 9.3969 25.0101 10.6253C25.416 13.7581 25.4176 13.7549 23.1334 14.32C20.8297 14.8901 20.8585 15.0801 23.8102 18.7821C26.6053 22.2879 28.6747 25.3485 29.9186 27.8164L30.824 29.6126L30.1986 30.3782L29.5734 31.144L28.1919 31.038C27.4321 30.9797 26.4175 30.932 25.9375 30.932C25.0735 30.932 25.0655 30.9264 25.147 30.3738C25.2356 29.7732 25.4566 29.6785 28.2666 29.0365C29.8031 28.6854 29.7893 28.502 28.0123 25.6791C23.771 18.9414 20.7159 16.321 11.91 11.868C9.87568 10.8394 9.29216 10.6267 8.2829 10.546C6.58442 10.4103 6.74948 10.0721 8.47204 10.1588C9.8194 10.2265 9.9972 10.2955 14.0253 12.3182C19.1371 14.8852 18.979 14.8667 19.9103 13.0083C21.1495 10.5353 21.0915 10.0461 19.2886 7.76315C17.94 6.05543 16.4068 5.87656 13.4954 7.08683C12.8739 7.34524 12.4934 7.30512 12.4934 6.98096C12.4934 6.89599 12.8504 6.6855 13.2866 6.51332C13.723 6.34114 14.29 6.00862 14.5466 5.77459C15.0786 5.28926 16.6237 4.69095 17.6342 4.57881C17.7409 4.56697 18.3289 4.68371 18.9408 4.83833ZM15.3591 5.4847C14.8511 5.68864 14.6389 6.02339 14.8712 6.25463C15.1145 6.4966 16.6 5.89857 16.6 5.55867C16.6 5.27087 15.9833 5.23409 15.3591 5.4847ZM27.5381 16.8088C27.8858 17.6191 27.5405 18.1833 26.315 18.8066C25.33 19.3076 25.2659 19.277 23.8536 17.6307C22.418 15.9571 22.4506 15.7373 24.2192 15.172C25.2468 14.8434 25.6363 14.6237 25.7914 14.2851C26.0061 13.8163 26.6586 14.7594 27.5381 16.8088ZM12.9504 16.8053C13.2736 17.1607 13.2414 17.1671 10.8386 17.2232C8.19946 17.285 7.64184 16.8668 10.0249 16.6128C12.1088 16.3909 12.603 16.4234 12.9504 16.8053ZM17.0511 19.6605C17.3622 19.8869 17.28 20.0536 15.931 21.9357C13.6918 25.0596 13.1847 26.1282 13.334 27.4081C13.4835 28.69 13.3834 28.7898 11.6499 29.0849C10.0013 29.3656 9.7522 29.4996 9.6003 30.1875C9.45596 30.842 8.94664 30.9477 8.94664 30.3232C8.94664 29.4721 9.41508 29.1226 10.8586 28.8966C13.0719 28.5502 13.05 28.5695 13.0016 26.9913C12.9562 25.5147 13.8331 23.394 15.6536 20.5771C16.4561 19.3355 16.5341 19.2844 17.0511 19.6605Z" fill="#262625"/>
</g>
<defs>
<clipPath id="clip0_439_17674">
<rect width="28" height="28" fill="white" transform="translate(4 4)"/>
</clipPath>
</defs>
</svg>
