<svg width="36" height="36" viewBox="0 0 36 36" fill="none" xmlns="http://www.w3.org/2000/svg">
<path d="M18.335 5.77444L9.80739 2C9.80739 2 18.3435 33.7712 18.3009 33.9453L26.8711 2.03665L18.335 5.77444ZM10.8552 3.17264L18.3605 6.45237L25.8658 3.20929L18.3265 30.8671C18.3605 30.7205 10.8552 3.17264 10.8552 3.17264Z" fill="#262625"/>
<path d="M18.3605 7.20359L11.656 4.30864C11.656 4.30864 18.3605 28.6409 18.3265 28.7692L25.0651 4.33612L18.3605 7.20359ZM18.3009 13.6165L17.7301 11.4361L14.6121 10.8773L17.7898 10.3917L18.2498 8.38539L18.8121 10.4284L22.1004 10.8956L18.7524 11.3903L18.3009 13.6165Z" fill="#262625"/>
</svg>
