<svg width="36" height="36" viewBox="0 0 36 36" fill="none" xmlns="http://www.w3.org/2000/svg">
<g clip-path="url(#clip0_801_3096)">
<path d="M19.3683 25.1581C19.5423 25.0251 19.9313 24.892 20.1462 24.7999C20.136 24.4724 20.0029 24.1653 20.0848 23.8889C20.2281 23.3976 20.5659 23.1827 20.8934 23.1418C20.9139 23.152 20.9344 23.1929 20.9139 23.2032C20.7297 23.3772 20.658 23.6228 20.6273 23.8889C20.6171 23.9913 20.5966 24.3086 20.6887 24.5338C20.8832 24.4314 21.354 24.2677 21.5075 24.2369C21.528 23.9094 21.5792 23.5921 21.6713 23.3567C21.8555 22.8961 22.265 22.5276 22.6744 22.7426C22.6949 22.7528 22.7153 22.7938 22.6949 22.804C22.439 22.8961 22.2752 23.1622 22.1319 23.4693C22.091 23.5614 21.9477 24.0527 22.1114 24.1551C22.1114 24.1551 22.1217 24.1551 22.1217 24.1653C22.4185 24.1039 22.4697 24.1346 22.787 24.1039C22.8381 23.7866 22.9814 23.5102 23.1043 23.3055C23.2885 22.9473 23.7696 22.6607 24.1995 22.9166C24.2199 22.9268 24.2404 22.978 24.2097 22.978C23.9129 23.0394 23.7184 23.2339 23.616 23.4079C23.5649 23.4898 23.2885 23.8685 23.4318 24.022C23.442 24.022 23.4625 24.022 23.483 24.022C23.7389 24.0118 23.9231 24.0629 24.1892 24.1141C24.2711 23.9196 24.3428 23.8992 24.4246 23.7968C24.7215 23.4386 25.223 23.3158 25.397 23.6535C25.4175 23.674 25.4175 23.7149 25.397 23.7149C25.2435 23.7354 24.9876 23.8173 24.8648 23.9708C24.8341 24.0015 24.7522 24.0937 24.6703 24.2677C25.0183 24.5338 25.2128 24.7487 25.3049 25.107C25.3254 25.1684 25.3561 25.5368 25.2332 25.3526C24.6703 24.6464 23.9129 24.4928 22.7767 24.6054C21.5587 24.718 20.9958 24.9022 19.7778 25.5573C20.4533 26.1612 19.44 26.7549 19.2762 25.8644C18.6826 26.7651 18.0582 25.629 18.8566 25.4652C18.0377 24.6668 19.1534 24.2984 19.3683 25.1581Z" fill="#262625"/>
<path d="M21.4459 21.2688C21.8861 21.1255 22.3671 20.972 22.6128 20.9208C22.6537 20.2043 23.3292 19.3138 24.1276 19.6209C24.1583 19.6311 24.1788 19.6721 24.1481 19.6823C23.9434 19.7437 23.2883 20.3681 23.5135 20.7673C23.6773 20.7775 24.1276 20.7673 24.2607 20.7775C24.4347 19.9894 25.1204 19.4367 25.8983 19.7949C25.929 19.8051 25.9495 19.8563 25.9188 19.8563C25.6117 19.9075 24.9157 20.3988 24.9976 20.8185C25.1409 20.8287 25.5299 20.9617 25.7755 21.0948C25.8676 20.9003 25.97 20.8287 26.0621 20.7263C26.3999 20.3681 27.0959 20.3374 27.3006 20.6854C27.3211 20.7059 27.3211 20.7468 27.3006 20.7468C27.0038 20.7366 26.7376 20.7775 26.4818 21.0027C26.4408 21.0334 26.3589 21.1562 26.2668 21.3302C26.5125 21.4633 26.7888 21.7192 26.84 21.9648C26.8809 22.0876 26.9014 22.19 26.8809 22.3128C26.8707 22.3435 26.8093 22.3128 26.7888 22.2924C26.144 21.5861 24.7213 21.146 23.3395 21.32C22.4183 21.4326 21.5176 21.6885 20.7704 22.016C21.0263 21.7908 21.2515 21.5452 21.4459 21.2688ZM19.4193 22.8655C19.3579 22.9269 19.2965 22.9781 19.2453 23.0395C19.5729 23.4899 19.0508 23.8481 18.8973 23.3978C18.5084 23.8174 18.2013 23.3261 18.4572 23.1214C18.7847 23.0702 19.1123 22.9884 19.4193 22.8655Z" fill="#262625"/>
<path d="M19.1943 28.9034C19.2864 28.801 19.5116 28.6066 19.6242 28.5144C19.2762 27.972 19.4707 27.276 19.8084 27.2248C19.8289 27.235 19.8391 27.2657 19.8289 27.2862C19.7368 27.4193 19.6958 28.1357 19.962 28.2893C20.095 28.1971 20.3509 28.0129 20.4635 27.9822C20.269 27.3271 20.6068 26.4469 21.2619 26.5902C21.2823 26.6004 21.2926 26.6414 21.2823 26.6516C20.7501 26.928 20.7399 27.7468 20.8831 27.8389C21.0981 27.7775 21.3335 27.6854 21.5689 27.6649C21.6713 26.7949 22.4389 26.4059 22.8279 26.6311C22.8483 26.6414 22.8586 26.6925 22.8483 26.6925C22.6334 26.5697 21.8248 27.3988 22.0909 27.6444C22.2752 27.6342 22.4901 27.7161 22.7051 27.7673C22.7972 27.2862 23.4727 26.887 23.7593 27.1941C23.7798 27.2145 23.7798 27.2555 23.7695 27.2555C23.5136 27.3067 23.1759 27.5421 23.1247 27.9924C23.6672 28.2483 23.6058 28.7806 23.5136 28.6373C23.0019 27.9617 21.9169 28.0743 21.0879 28.2483C20.6068 28.3507 19.9313 28.8113 19.6447 29.1388C20.5147 29.5482 19.7265 30.3159 19.3581 29.4459C18.7542 30.5104 18.1605 29.538 18.8668 29.2514C18.007 28.5861 18.8975 28.1357 19.1943 28.9034Z" fill="#262625"/>
<path d="M10.4316 28.0959C9.57185 27.103 8.84514 26.0283 8.26172 24.9434H17.6783V28.0959H10.4316Z" fill="#262625"/>
<path d="M22.2129 12.6914H29.132V15.4038H22.2129V12.6914Z" fill="#262625"/>
<path d="M29.133 8.57551L27.086 7.8488L24.7011 7.36774L22.0194 6.78432L19.5322 6.58984H17.6387V9.44552H29.1228L29.133 8.57551Z" fill="#262625"/>
<path d="M7.8222 5.3732C8.09855 5.28108 8.37491 5.1992 8.6615 5.11732C8.76385 5.08661 8.86621 5.0559 8.9788 5.03543C9.09139 5.01496 9.20398 5.00473 9.31657 5.03543L9.35751 5.0559C9.39845 5.07638 9.41892 5.10708 9.43939 5.14802C9.4701 5.21967 9.48033 5.29132 9.49057 5.3732C9.51104 5.53697 9.51104 5.70074 9.49057 5.8645C9.48033 5.99756 9.45986 6.13062 9.40868 6.24321C9.38821 6.29439 9.35751 6.33533 9.31657 6.37627C9.28586 6.40698 9.25515 6.43769 9.22445 6.45816C9.1528 6.50933 9.09139 6.55028 9.0095 6.58098C8.82527 6.66286 8.64103 6.72428 8.44656 6.78569C8.11902 6.89828 7.79149 7.01087 7.46396 7.12346V7.72735C7.30019 7.78876 7.13642 7.86041 6.97266 7.92182V5.64956C7.25925 5.55744 7.5356 5.46532 7.8222 5.3732ZM7.46396 6.71404C7.79149 6.60145 8.11902 6.48886 8.45679 6.37627C8.55915 6.34557 8.6615 6.31486 8.75362 6.27392L8.82527 6.23298L8.85597 6.21251L8.88668 6.1818L8.91739 6.15109L8.93786 6.12039L8.96856 6.05898C8.9788 6.01803 8.98903 5.98733 8.98903 5.94639C8.99927 5.84403 8.99927 5.75191 8.96856 5.64956L8.94809 5.59838L8.92762 5.55744L8.89691 5.52673L8.85597 5.50626L8.81503 5.49603H8.77409H8.73315C8.63079 5.50626 8.53867 5.53697 8.43632 5.56768C8.10879 5.67003 7.78125 5.78262 7.45372 5.88497L7.46396 6.71404ZM11.6298 4.33943C11.8549 4.29848 12.0699 4.25754 12.2951 4.23707C12.3667 4.22684 12.4384 4.22684 12.51 4.22684C12.5407 4.22684 12.5817 4.23707 12.6124 4.24731C12.6431 4.25754 12.6635 4.26778 12.6943 4.28825C12.7147 4.30872 12.7352 4.31896 12.7557 4.33943C12.7761 4.3599 12.7864 4.3906 12.7966 4.41107C12.8171 4.45202 12.8273 4.48272 12.8273 4.52366C12.8478 4.65672 12.858 4.80002 12.8683 4.94332C12.8785 5.10708 12.8785 5.26061 12.8683 5.41414C12.8683 5.47556 12.8683 5.5472 12.858 5.60862C12.8478 5.73144 12.8478 5.85427 12.8171 5.97709C12.8068 6.0078 12.7966 6.0385 12.7864 6.05898C12.7659 6.09992 12.7454 6.14086 12.7147 6.1818L12.6533 6.27392L12.5612 6.33533C12.5203 6.3558 12.4895 6.36604 12.4486 6.38651C12.2848 6.43769 12.1211 6.46839 11.9573 6.50933C11.6195 6.58098 11.2818 6.64239 10.944 6.71404C10.7802 6.74475 10.6165 6.77545 10.4527 6.79593C10.4118 6.80616 10.3606 6.80616 10.3196 6.80616L10.2173 6.79593C10.1866 6.78569 10.1661 6.77545 10.1456 6.76522L10.0945 6.72428L10.0535 6.66286L9.9921 6.3251V5.41414C10.0023 5.31179 10.0126 5.1992 10.033 5.09685L10.0638 5.00473C10.0842 4.95355 10.1047 4.91261 10.1354 4.87167L10.207 4.78978L10.2685 4.73861C10.3299 4.69767 10.4015 4.65672 10.4834 4.62602L10.8519 4.51343C11.0873 4.44178 11.3534 4.3906 11.6298 4.33943ZM11.3739 4.80002L10.8416 4.92284C10.8007 4.93308 10.7598 4.95355 10.7188 4.96379L10.6779 4.99449L10.6369 5.0252L10.6062 5.0559L10.5755 5.08661L10.5448 5.11732L10.5243 5.15826C10.5039 5.18897 10.4936 5.22991 10.4834 5.26061C10.4527 5.39367 10.4527 5.52673 10.4527 5.65979C10.4527 5.80309 10.4527 5.94639 10.4732 6.07945L10.4936 6.13062L10.5243 6.1818L10.5653 6.22274L10.6062 6.25345L10.6574 6.27392L10.7086 6.28415H10.77C10.8109 6.28415 10.8416 6.28415 10.8723 6.27392C11.0771 6.24321 11.2818 6.20227 11.4865 6.16133C11.6502 6.13062 11.8242 6.08968 11.988 6.04874C12.0187 6.0385 12.0597 6.02827 12.0904 6.01803L12.1415 5.98733L12.1927 5.95662L12.2337 5.91568L12.2746 5.87474L12.3053 5.82356L12.3258 5.77238L12.3462 5.72121C12.377 5.56768 12.3667 5.42438 12.3667 5.27085C12.3667 5.18897 12.3667 5.10708 12.3565 5.03543L12.3462 4.97402C12.336 4.93308 12.3258 4.89214 12.3053 4.8512L12.2848 4.81026L12.2644 4.77955L12.2337 4.74884L12.2132 4.73861L12.1722 4.71814L12.1313 4.7079L12.0494 4.69767C11.9573 4.69767 11.8754 4.7079 11.7935 4.71814C11.6502 4.74884 11.5069 4.77955 11.3739 4.80002ZM14.7516 3.96072C15.0075 3.94024 15.2633 3.91977 15.5192 3.91977C15.5704 3.91977 15.6318 3.91977 15.683 3.91977C15.7444 3.91977 15.7956 3.93001 15.8468 3.96072C15.8672 3.97095 15.8877 3.98119 15.8979 3.99142C15.9389 4.02213 15.9696 4.05283 15.9901 4.10401C16.0105 4.13472 16.0208 4.17566 16.031 4.20637C16.0515 4.28825 16.0515 4.38037 16.0515 4.46225C16.0515 4.57484 16.0515 4.67719 16.0412 4.78978C16.0412 4.83073 16.031 4.87167 16.0208 4.91261L16.0003 4.95355C15.9798 4.98426 15.9696 5.00473 15.9491 5.03543L15.8979 5.07638C15.8775 5.08661 15.857 5.10708 15.8263 5.11732C15.7956 5.12755 15.7546 5.13779 15.7239 5.14802L15.4476 5.20944L15.7239 5.36297C15.7649 5.39367 15.7956 5.41414 15.8263 5.44485L15.857 5.48579C15.8979 5.5472 15.9286 5.60862 15.9594 5.68027C16.0003 5.80309 16.0208 5.92591 16.0208 6.04874C15.857 6.05898 15.6932 6.05898 15.5295 6.06921C15.5192 5.97709 15.509 5.89521 15.4783 5.80309L15.4373 5.70074L15.4169 5.64956L15.3862 5.60862L15.3555 5.56768L15.3145 5.53697L15.2633 5.50626C15.2326 5.49603 15.2019 5.48579 15.1712 5.48579C15.1098 5.47556 15.0382 5.48579 14.9768 5.48579C14.6595 5.50626 14.3524 5.53697 14.0351 5.56768L13.9123 5.57791V6.1818C13.7485 6.20227 13.5847 6.22274 13.421 6.23298V4.08354C13.8713 4.03236 14.3114 3.99142 14.7516 3.96072ZM13.9225 5.20944C14.25 5.17873 14.5776 5.14802 14.9051 5.12755C15.0177 5.11732 15.1303 5.10708 15.2429 5.09685C15.2736 5.09685 15.3043 5.08661 15.335 5.07638L15.3759 5.06614L15.4169 5.04567L15.4476 5.0252L15.4783 4.99449L15.4988 4.96379L15.5192 4.93308C15.5295 4.90237 15.5397 4.8819 15.5397 4.8512C15.5499 4.75908 15.5499 4.66696 15.5499 4.57484C15.5499 4.54413 15.5397 4.51343 15.5295 4.47249L15.509 4.44178L15.4885 4.41107L15.4578 4.38037L15.4271 4.3599L15.3964 4.33943L15.3555 4.32919C15.3248 4.31896 15.294 4.31896 15.2633 4.31896C15.0996 4.31896 14.9358 4.33943 14.7823 4.34966C14.4957 4.37013 14.2193 4.40084 13.9327 4.42131L13.9225 5.20944ZM17.4025 5.71097C17.5868 5.71097 17.771 5.71097 17.9655 5.71097C18.0883 5.71097 18.2214 5.71097 18.3544 5.70074C18.3851 5.70074 18.4056 5.6905 18.4363 5.6905C18.467 5.68026 18.4875 5.67003 18.508 5.65979L18.5387 5.63932L18.5591 5.60862L18.5796 5.57791L18.5899 5.5472L18.6001 5.47556V5.3732L18.5796 5.26061L18.5694 5.22991L18.5591 5.1992L18.5387 5.16849L18.508 5.14802L18.4773 5.12755L18.4056 5.10708L18.2828 5.08661H18.1293H17.0955C16.9931 5.08661 16.8908 5.08661 16.7987 5.06614C16.7679 5.0559 16.7475 5.0559 16.727 5.04567L16.6963 5.0252L16.6656 5.00473L16.6451 4.98426L16.6247 4.95355L16.6042 4.92284C16.5837 4.8819 16.5632 4.84096 16.553 4.80002C16.5325 4.68743 16.5325 4.56461 16.5325 4.45202C16.5325 4.30872 16.5428 4.16542 16.6042 4.03236C16.6144 4.01189 16.6349 3.99142 16.6451 3.97095C16.7168 3.90954 16.8089 3.87883 16.901 3.85836C16.9931 3.83789 17.0955 3.83789 17.1876 3.83789C17.4128 3.83789 17.638 3.83789 17.8631 3.83789C18.2316 3.83789 18.6103 3.84813 18.9788 3.85836V4.18589C18.4875 4.17566 17.9962 4.16542 17.5049 4.16542C17.3923 4.16542 17.2797 4.16542 17.1671 4.17566C17.1467 4.17566 17.116 4.18589 17.0955 4.18589L17.0545 4.20637L17.0238 4.23707L17.0034 4.27801L16.9931 4.31896L16.9829 4.3906C16.9829 4.45202 16.9829 4.50319 16.9829 4.56461L16.9931 4.60555L17.0034 4.64649L17.0341 4.68743L17.0852 4.71814L17.1364 4.72837C17.6482 4.73861 18.1702 4.74884 18.682 4.76931L18.7434 4.77955C18.8253 4.80002 18.9071 4.83073 18.9686 4.89214C18.9993 4.92284 19.0197 4.95355 19.03 4.98426C19.0812 5.09685 19.0914 5.22991 19.0914 5.35273C19.0914 5.49603 19.0914 5.63932 19.0504 5.77238C19.0402 5.79285 19.0402 5.81333 19.03 5.8338L18.9993 5.87474C18.9788 5.90544 18.9583 5.92591 18.9276 5.94639C18.8764 5.97709 18.8253 6.0078 18.7741 6.01803C18.6922 6.0385 18.6001 6.0385 18.5182 6.04874C18.2623 6.05898 18.0167 6.05898 17.7608 6.05898C17.3616 6.05898 16.9624 6.06921 16.5735 6.06921C16.5735 5.95662 16.5735 5.8338 16.5735 5.72121C16.8396 5.71097 17.1057 5.71097 17.3718 5.71097H17.4025ZM20.7905 6.16133C20.5858 6.14086 20.3708 6.13062 20.1661 6.09992C20.074 6.08968 19.9819 6.06921 19.9 6.0385C19.859 6.01803 19.8181 6.0078 19.7772 5.97709C19.7465 5.95662 19.726 5.93615 19.6953 5.91568C19.6748 5.89521 19.6543 5.8645 19.6339 5.84403C19.6134 5.81333 19.6032 5.78262 19.5929 5.75191C19.5622 5.63932 19.552 5.5165 19.552 5.39367C19.5417 5.09685 19.5417 4.81025 19.552 4.51343V4.44178C19.5622 4.30872 19.5725 4.17566 19.6543 4.06307C19.685 4.03236 19.7055 4.00166 19.7465 3.98119C19.8488 3.93001 19.9716 3.90954 20.0842 3.8993C20.207 3.88907 20.3196 3.88907 20.4425 3.8993C20.6779 3.90954 20.9235 3.91977 21.1589 3.94024C21.5069 3.97095 21.8447 4.00166 22.1927 4.0426V4.43154C21.7321 4.3906 21.2818 4.34966 20.8212 4.31896C20.6779 4.30872 20.5243 4.29848 20.3708 4.30872L20.2992 4.31896L20.248 4.32919L20.207 4.34966L20.1661 4.38037L20.1252 4.42131L20.0945 4.46225L20.074 4.51343C20.0638 4.54413 20.0535 4.57484 20.0535 4.60555C20.033 4.74884 20.0228 4.90237 20.033 5.0559C20.033 5.17873 20.033 5.30155 20.0535 5.42438C20.0638 5.45509 20.0638 5.48579 20.074 5.5165L20.0945 5.56768L20.1252 5.60862L20.1661 5.64956L20.207 5.68027L20.248 5.70074L20.2992 5.72121C20.3401 5.73144 20.381 5.74168 20.422 5.74168C20.5551 5.76215 20.6983 5.77238 20.8314 5.78262C21.292 5.82356 21.7628 5.8645 22.2234 5.91568C22.2234 6.0385 22.2234 6.15109 22.2234 6.27392V6.31486C21.9368 6.28415 21.64 6.25345 21.3534 6.23298C21.1794 6.19204 20.9849 6.1818 20.7905 6.16133ZM23.9225 5.18897C24.3012 5.26061 24.6799 5.33226 25.0586 5.40391V4.5339C25.2326 4.57484 25.4066 4.61578 25.5909 4.64649V6.88804C25.4169 6.8471 25.2429 6.80616 25.0586 6.76522V5.88497C24.7516 5.82356 24.4547 5.76215 24.1477 5.70074C23.8713 5.64956 23.5847 5.59838 23.3084 5.5472V6.41722C23.1344 6.38651 22.9604 6.36604 22.7761 6.33533V4.15519C22.9501 4.17566 23.1344 4.19613 23.3084 4.22684V5.08661C23.5131 5.11732 23.7178 5.14802 23.9225 5.18897ZM27.945 5.33226C28.1293 5.39367 28.3135 5.45509 28.508 5.5165V5.88497C27.9655 5.70074 27.4128 5.52673 26.8601 5.35273L26.6758 5.30155V5.8645C27.075 5.98733 27.4844 6.11015 27.8836 6.24321C28.0576 6.30463 28.2418 6.3558 28.4158 6.41722V6.74475C27.9041 6.57075 27.3821 6.40698 26.8601 6.25345L26.6758 6.20227V6.79593C27.0648 6.90851 27.4537 7.03134 27.8324 7.15416C28.0576 7.22581 28.2828 7.3077 28.5182 7.37934V7.75805C27.7813 7.5124 27.0341 7.28722 26.2766 7.07228L26.1948 7.05181V4.80002C26.7782 4.96379 27.3616 5.14802 27.945 5.33226Z" fill="#262625"/>
<path d="M6.94146 21.7998C6.61392 20.7046 6.43992 19.681 6.42969 18.8008H13.2874C13.3079 19.9574 13.789 21.0219 14.5464 21.7998H6.94146Z" fill="#262625"/>
<path d="M6.12305 5.27065L6.25611 5.21948C10.0842 3.80699 13.902 3.07004 17.73 2.99839C21.5581 2.93698 25.3759 3.54087 29.2039 4.83053L29.3472 4.88171V5.025C29.3165 9.6207 29.2858 14.2164 29.2551 18.8121C29.2448 21.1867 27.9961 24.5235 25.642 27.4406C23.7484 29.7947 21.1282 31.8827 17.8528 32.9882H17.7402C14.4342 32.1386 11.8242 30.1325 9.92039 27.7886C7.48436 24.7691 6.23564 21.1663 6.2254 18.72C6.20493 16.4989 6.19469 14.2778 6.17422 12.067L6.12305 5.27065ZM10.5857 27.9728H17.5458V25.1785H8.62049C8.58978 25.1274 8.55908 25.0762 8.5386 25.025C9.01967 25.8848 9.58262 26.7343 10.2274 27.5429C10.3503 27.6862 10.4629 27.8295 10.5857 27.9728ZM17.556 28.3208H10.903C12.6225 30.2041 14.8436 31.7701 17.556 32.5276V28.3208ZM10.7597 28.1673C10.7495 28.157 10.7495 28.157 10.7495 28.1468C10.7495 28.157 10.7597 28.1673 10.7597 28.1673ZM8.42602 24.8203H17.556V23.1724C17.6277 23.1724 17.6993 23.1724 17.7709 23.1724C17.8221 23.1724 17.8631 23.1724 17.9142 23.1724V32.5378C17.904 32.5378 17.8938 32.548 17.8938 32.548C21.0053 31.4631 23.5028 29.4569 25.3247 27.1949C27.5867 24.3904 28.7945 21.197 28.8457 18.9042C28.8457 18.9145 28.8457 18.9145 28.8457 18.9247H22.2643C22.2643 18.853 22.2745 18.7814 22.2745 18.7098V18.5665H28.8559C28.8661 17.5839 28.8661 16.6013 28.8764 15.6289H22.2745V15.2809H28.8764C28.8866 14.4825 28.8866 13.6944 28.8968 12.9063H22.2745V12.5583H22.2234V12.548H28.8968C28.9071 11.5859 28.9071 10.634 28.9173 9.67188H17.8119V12.5583H17.4537V6.75479C13.8098 6.8162 10.1558 7.54291 6.49152 8.96564L6.48129 8.59716C10.2479 7.14373 14.0146 6.42725 17.7709 6.39655C21.4966 6.36584 25.2121 7.01067 28.9173 8.2901C28.9173 8.41292 28.9173 8.53575 28.9173 8.65857C28.9276 7.49174 28.9378 6.3249 28.9378 5.1683C25.2019 3.92981 21.4659 3.34639 17.7402 3.40781C13.9531 3.46922 10.1763 4.19593 6.3994 5.59819L6.58364 12.067C6.60411 14.2369 6.61435 16.4068 6.63482 18.5869C6.63482 18.5869 6.63482 18.5869 6.63482 18.5767H13.2981V18.72C13.2981 18.7916 13.2981 18.8633 13.3083 18.9349H6.62458C6.64505 19.7538 6.81906 20.7057 7.11588 21.7087C7.11588 21.6985 7.10565 21.6883 7.10565 21.678H14.4137C14.4751 21.7497 14.5366 21.8213 14.6082 21.8827L14.8334 22.0363H7.21824C7.51506 22.937 7.91424 23.8786 8.42602 24.8203ZM7.19777 21.9646C7.18753 21.9441 7.18753 21.9237 7.17729 21.9134C7.18753 21.9339 7.19777 21.9441 7.19777 21.9646ZM7.15682 21.8316C7.14659 21.8111 7.14659 21.7906 7.13635 21.7701C7.14659 21.7906 7.15682 21.8111 7.15682 21.8316ZM28.8354 18.72V18.7302C28.8354 18.7302 28.8354 18.7302 28.8354 18.72ZM28.8354 18.7814V18.7916C28.8354 18.7916 28.8354 18.7916 28.8354 18.7814ZM28.8354 18.7814C28.8354 18.7712 28.8354 18.7712 28.8354 18.7712V18.7814ZM28.8354 18.7507C28.8354 18.7405 28.8354 18.7405 28.8354 18.7405V18.7507ZM28.8354 18.5972C28.8354 18.5869 28.8354 18.5869 28.8354 18.5869V18.5972ZM17.8119 9.32388H28.9071C28.9071 9.38529 28.9071 9.43647 28.9071 9.49788C28.9071 9.22152 28.9071 8.94517 28.9071 8.66881C25.2121 7.37915 21.5171 6.73432 17.8119 6.75479V9.32388ZM17.7914 32.5787C17.7812 32.5787 17.7812 32.5787 17.7709 32.589C17.7812 32.589 17.7812 32.589 17.7914 32.5787ZM17.6481 32.5583C17.6174 32.548 17.5969 32.548 17.5662 32.5378C17.5969 32.5378 17.6277 32.548 17.6481 32.5583Z" fill="#262625"/>
<path d="M8.07711 10.9306C8.27159 10.8077 8.47629 10.6849 8.681 10.5826C8.6503 10.2653 8.61959 9.77397 8.70147 9.50785C8.855 9.01655 9.30536 8.61737 9.8376 8.70949C9.86831 8.71973 9.88878 8.75043 9.86831 8.76067C9.57148 8.9142 9.33607 9.14961 9.20301 9.47715C9.16207 9.56926 9.01877 10.2243 9.23372 10.2755C9.25419 10.2857 9.27466 10.2857 9.30536 10.2857C9.69431 10.122 10.0935 9.97868 10.5029 9.85586C10.5029 9.53856 10.5131 9.09844 10.6257 8.86302C10.8304 8.40243 11.3422 8.06466 11.8949 8.22843C11.9256 8.23866 11.9461 8.2796 11.9256 8.28984C11.5981 8.40243 11.332 8.5969 11.158 8.90396C11.1068 8.99608 10.8919 9.62044 11.117 9.70232H11.1273C11.506 9.62044 11.8949 9.54879 12.3146 9.49762C12.3658 9.18032 12.4476 8.7709 12.5909 8.55596C12.898 8.1056 13.5121 7.79854 14.0853 8.01348C14.116 8.02372 14.1365 8.06466 14.1058 8.07489C13.7271 8.16701 13.3995 8.34101 13.1641 8.63784C13.1027 8.71972 12.7854 9.29291 12.9696 9.42597C12.9901 9.42597 13.0106 9.42597 13.0311 9.41573C13.3586 9.38503 13.7373 9.37479 14.0955 9.39526C14.1877 9.20079 14.2798 9.02679 14.3821 8.9142C14.7404 8.54572 15.5285 8.41266 15.7639 8.72996C15.7844 8.75043 15.7946 8.79137 15.7639 8.79137C15.4261 8.80161 15.0781 8.85279 14.8223 9.0882C14.7813 9.12914 14.638 9.27244 14.5561 9.4362C15.0986 9.52832 15.5592 9.71256 15.7025 10.0606C15.7537 10.1732 15.7844 10.2755 15.7639 10.3983C15.7639 10.429 15.6923 10.4086 15.6718 10.3779C14.986 9.74327 13.8908 9.67162 12.4272 9.9275C10.943 10.1834 9.70454 10.6235 8.37394 11.2581C8.90618 11.862 8.06688 12.3226 7.79052 11.688C7.14569 12.4557 6.55204 11.34 7.43228 11.2069C6.93075 10.429 7.94405 10.3983 8.07711 10.9306Z" fill="#262625"/>
<path d="M8.26321 17.0508C8.43721 16.9177 8.66239 16.8051 8.84663 16.6925C8.66239 16.3957 8.5498 15.9658 8.62145 15.6894C8.74427 15.1981 9.05134 14.9627 9.43005 14.9832C9.46075 14.9832 9.48122 15.0241 9.46075 15.0344C9.19463 15.2084 9.15369 15.4336 9.07181 15.7713C9.03086 15.9556 9.13322 16.2626 9.26628 16.3752C9.60405 16.191 9.59381 16.2217 9.95205 16.0886C9.8497 15.7713 9.87017 15.3414 10.0032 15.0753C10.2079 14.6454 10.5457 14.4817 10.8835 14.5533C10.9142 14.5636 10.9347 14.5943 10.9039 14.6045C10.6378 14.7171 10.0953 15.147 10.4536 15.9556C10.7811 15.843 10.8016 15.8225 11.2212 15.7304C11.252 15.4131 11.2622 15.0344 11.385 14.8092C11.6409 14.3486 12.2448 14.1337 12.5211 14.2463C12.5518 14.2565 12.5723 14.2974 12.5416 14.3077C12.3881 14.41 12.1834 14.4919 11.9787 14.799C11.8661 14.9627 11.6716 15.3414 11.7228 15.5973C12.0196 15.5564 12.4086 15.5359 12.7463 15.5462C12.818 15.3517 12.9613 15.1163 13.0534 15.0037C13.1148 14.932 13.1967 14.8706 13.2786 14.8399V15.9863C12.7156 15.9556 12.0913 16.017 11.4976 16.1603C10.1568 16.4776 9.80876 16.7232 8.61121 17.3681C9.32769 17.8184 8.63168 18.5042 8.19156 17.8286C7.41367 18.7191 6.91213 17.5728 7.72073 17.3988C7.10661 16.6516 8.10968 16.2524 8.26321 17.0508Z" fill="#262625"/>
<path d="M7.91351 14.0018C8.11822 13.879 8.39458 13.7868 8.59929 13.6845C8.57882 13.3672 8.53788 13.0806 8.62999 12.8145C8.79376 12.3334 9.04965 12.0878 9.45906 12.1287C9.48977 12.1389 9.51024 12.1696 9.48977 12.1901C9.19294 12.3436 9.26459 12.5484 9.13153 12.8656C9.09059 12.9578 8.98823 13.3467 9.20318 13.4081C9.22365 13.4184 9.24412 13.4184 9.27482 13.4184C9.66377 13.2648 9.52047 13.2751 9.91966 13.1727C9.92989 12.8656 9.95036 12.446 10.0527 12.2208C10.2677 11.7807 10.6668 11.5658 11.0353 11.6579C11.066 11.6681 11.1274 11.7398 11.0967 11.75C10.7999 11.8421 10.2881 12.446 10.5031 12.9168C10.759 12.8759 10.933 12.794 11.3936 12.7326C11.455 12.4153 11.5573 12.098 11.7109 11.883C12.0282 11.4429 12.5195 11.3508 12.806 11.4839C12.8367 11.4941 12.8777 11.576 12.847 11.5862C12.4683 11.6681 12.458 11.6272 12.2124 11.924C12.0793 12.0775 11.8132 12.4972 12.0077 12.6916C12.3352 12.6712 12.5604 12.6302 12.9186 12.6609C13.0108 12.4767 13.0824 12.2208 13.1848 12.1185C13.543 11.75 14.1674 11.7193 14.3721 11.9649C14.3925 11.9854 14.4028 12.0263 14.3721 12.0263C14.0343 12.0366 13.9115 12.1287 13.6453 12.3641C13.6146 12.3846 13.5532 12.4665 13.4816 12.5688H13.2871V13.2034C12.7344 13.1522 12.1305 13.1727 11.5676 13.2546C10.0834 13.4798 9.54095 13.8175 8.3127 14.4112C8.8347 15.0253 7.98516 15.4552 7.72928 14.8104C7.07421 15.5678 6.49079 14.4317 7.39151 14.3191C6.88997 13.5105 7.77022 13.2955 7.91351 14.0018Z" fill="#262625"/>
<path d="M22.0491 12.7735V18.7203C22.0491 21.0642 20.1351 22.968 17.7707 22.968C15.4165 22.968 13.4923 21.0642 13.4923 18.7203V12.7735H22.0491ZM22.2538 12.5586H13.2773V18.7101C13.2773 21.1563 15.2937 23.1727 17.7605 23.1727C20.2374 23.1727 22.2436 21.1563 22.2436 18.7101L22.2538 12.5586Z" fill="#262625"/>
<path d="M17.5773 16.9195C17.6182 16.9605 17.7104 16.9093 17.7411 16.8683C17.8127 16.7558 17.8025 16.6125 17.8127 16.4692C17.8229 16.3156 17.8229 16.1826 17.7718 16.0393C17.6899 15.7936 17.5773 15.5992 17.3009 15.5582C17.2702 15.548 17.2088 15.6094 17.2293 15.6299C17.4135 15.8243 17.4852 15.8141 17.5364 16.1109C17.5875 16.3975 17.5568 16.8991 17.5773 16.9195ZM15.6428 20.4917C15.6837 20.5019 15.7759 20.3791 15.8066 20.3074C15.8373 20.246 15.827 20.1232 15.827 20.113C15.8168 20.0925 15.7144 20.1334 15.6633 20.1334C15.6121 20.1334 15.5712 20.1232 15.4995 20.113C15.4279 20.1027 15.4381 19.939 15.4279 19.8469C15.4074 19.6114 15.3971 19.376 15.4074 19.1406C15.4074 19.0792 15.4279 18.9973 15.479 18.9564C15.5507 18.9154 15.653 18.9257 15.7349 18.9359C15.8987 18.9666 16.0522 19.0485 16.2262 19.0792C16.3183 19.0997 16.4207 19.0894 16.5128 19.0587C16.5947 19.0383 16.6561 18.9768 16.7278 18.9461C16.7687 18.9359 16.8199 18.9257 16.8506 18.9461C16.9836 19.0178 17.0758 19.1508 17.2088 19.202C17.3828 19.2532 17.5671 19.2327 17.7513 19.243C17.8946 19.243 18.0379 19.2225 18.1812 19.243C18.2426 19.2532 18.3449 19.2634 18.3654 19.3351C18.3859 19.4272 18.2324 19.5091 18.2528 19.6012C18.2938 19.7445 18.4575 19.8161 18.5292 19.939C18.5599 19.9902 18.5497 20.0516 18.5292 20.1027C18.5087 20.1437 18.4371 20.1539 18.4064 20.1949C18.3654 20.2563 18.3552 20.3279 18.3142 20.3893C18.2733 20.4507 18.2119 20.5019 18.1505 20.5531C18.0174 20.6555 17.8844 20.7578 17.7308 20.8397C17.6796 20.8704 17.5875 20.809 17.5671 20.8602C17.5261 20.9523 17.4852 21.0649 17.4442 21.1263C17.4033 21.1877 17.3521 21.1979 17.3214 21.2286C17.2907 21.2696 17.2498 21.3412 17.2702 21.3515C17.2907 21.3617 17.4852 21.3617 17.5568 21.3515C17.6285 21.3412 17.6694 21.331 17.6899 21.3208C17.7104 21.3003 17.6796 21.2389 17.6592 21.116C17.6489 20.9932 17.9867 20.942 18.1505 20.8499C18.3245 20.7373 18.4985 20.6145 18.6725 20.5122C18.7441 20.4712 18.8465 20.461 18.9079 20.3996C18.9386 20.3689 18.9284 20.3177 18.9284 20.2767C18.9284 20.1744 18.9079 20.072 18.9079 19.9697C18.9079 19.9185 18.9079 19.8571 18.9488 19.8264C18.9795 19.7957 19.041 19.7854 19.0717 19.8059C19.1331 19.8366 19.1433 19.9287 19.1945 19.9697C19.2764 20.0311 19.3787 20.0516 19.4708 20.0925C19.5527 20.1334 19.696 20.1334 19.7063 20.2153C19.7267 20.3689 19.6244 20.5122 19.563 20.6452C19.5323 20.7169 19.4606 20.7578 19.4197 20.8295C19.3992 20.8704 19.3992 20.9216 19.3685 20.9523C19.2866 21.0342 19.174 21.0853 19.0921 21.1672C19.0307 21.2286 18.9795 21.29 18.9488 21.3617C18.9284 21.4026 18.9181 21.4436 18.8977 21.4845C18.867 21.5255 18.8158 21.5357 18.7851 21.5971C18.7544 21.6585 18.6827 21.8223 18.7441 21.8121C18.8055 21.8018 19.1638 21.7404 19.174 21.6995C19.1843 21.6688 19.1535 21.5766 19.1331 21.464C19.1126 21.3515 19.3685 21.2696 19.4913 21.1979C19.563 21.157 19.6653 21.1775 19.7267 21.1263C19.7677 21.0956 19.7472 21.0239 19.7574 20.983C19.7881 20.9113 19.8086 20.8295 19.87 20.768C19.9417 20.6862 20.0645 20.6555 20.1259 20.5736C20.1873 20.4712 20.259 20.3484 20.2385 20.2358C20.218 20.1437 20.1054 20.113 20.044 20.0413C19.9929 19.9902 19.9417 19.9287 19.9212 19.8571C19.8905 19.7547 19.87 19.6524 19.9007 19.55C19.9417 19.4272 20.0645 19.3453 20.1361 19.243C20.1976 19.1508 20.2897 19.0792 20.3204 18.9768C20.3511 18.854 20.2897 18.721 20.2794 18.5981C20.2794 18.5777 20.259 18.547 20.2794 18.5265C20.3613 18.4548 20.4534 18.3627 20.566 18.3422C20.6684 18.332 20.7503 18.4344 20.8526 18.4548C20.955 18.4651 21.0778 18.4753 21.1802 18.4344C21.2109 18.4241 21.2211 18.3525 21.2006 18.3218C21.129 18.2604 20.9755 18.2808 20.9447 18.199C20.9243 18.1273 21.0676 18.1068 21.1085 18.0352C21.1597 17.9431 21.2006 17.8407 21.2006 17.7281C21.2006 17.6872 21.1187 17.6872 21.088 17.7077C21.0369 17.7384 21.0369 17.81 20.9959 17.8509C20.9652 17.8817 20.914 17.8919 20.8731 17.8919C20.8322 17.8919 20.7707 17.8714 20.7503 17.8407C20.7196 17.81 20.6991 17.7384 20.7298 17.7179C20.8117 17.6667 20.9243 17.6872 21.0164 17.6667C21.0573 17.6565 21.1085 17.6462 21.129 17.6155C21.1597 17.5541 21.1597 17.4825 21.129 17.4211C21.1187 17.3904 21.0676 17.3904 21.0369 17.4006C20.9959 17.4108 20.9755 17.4722 20.9243 17.4722C20.8629 17.4722 20.8014 17.4415 20.7605 17.4006C20.7298 17.3596 20.7196 17.2982 20.74 17.2573C20.7707 17.1856 20.8731 17.1652 20.9038 17.0935C20.9447 17.0014 20.9754 16.8888 20.955 16.7865C20.9447 16.7455 20.8629 16.7251 20.8322 16.7558C20.781 16.7865 20.7912 16.8581 20.7605 16.8991C20.7196 16.9605 20.6991 17.0526 20.6377 17.0833C20.5967 17.1038 20.5251 17.0628 20.5149 17.0116C20.4944 16.9298 20.5456 16.8479 20.566 16.7762C20.5967 16.6943 20.6377 16.6125 20.6889 16.5408C20.74 16.4692 20.8424 16.4385 20.8833 16.3566C20.914 16.2952 20.9447 16.2133 20.9038 16.1621C20.8731 16.1212 20.8014 16.1519 20.7605 16.1826C20.7298 16.203 20.74 16.2747 20.7093 16.2952C20.6172 16.3361 20.5046 16.3054 20.4227 16.3463C20.3511 16.3873 20.3204 16.4589 20.2794 16.5306C20.2078 16.6534 20.1976 16.8683 20.1669 16.8888C20.1361 16.9195 20.0645 16.9093 20.044 16.8683C20.0133 16.8172 20.0645 16.7353 20.0236 16.6841C19.9929 16.6534 19.911 16.6534 19.8803 16.6841C19.8393 16.7251 19.8291 16.7865 19.8291 16.8479C19.8291 16.94 19.8393 17.0321 19.8803 17.114C19.9519 17.2471 20.0645 17.3494 20.1566 17.4722C20.2487 17.5951 20.3613 17.7077 20.4125 17.8509C20.4432 17.9431 20.4534 18.0557 20.4125 18.1375C20.3818 18.2194 20.2999 18.3013 20.218 18.3013C20.1054 18.2911 20.0236 18.1682 19.9314 18.1068C19.8393 18.0454 19.7472 17.9635 19.6448 17.9431C19.4094 17.9021 19.1638 17.9431 18.9181 17.9431C18.7032 17.9431 18.478 17.9738 18.2631 17.9431C18.1607 17.9328 18.0481 17.8919 17.9765 17.8202C17.9048 17.7486 17.8536 17.6462 17.8536 17.5541C17.8434 17.4211 17.8946 17.2982 17.9458 17.1754C17.9867 17.0935 18.0481 17.0116 18.13 16.9605C18.1914 16.9195 18.2938 16.8991 18.3552 16.9195C18.4268 16.9502 18.6213 17.2164 18.6622 17.2061C18.7032 17.1959 18.6725 16.9605 18.652 16.8888C18.6111 16.7762 18.4882 16.7148 18.4575 16.6022C18.4473 16.5715 18.4985 16.5306 18.5292 16.5306C18.5906 16.5306 18.6622 16.5715 18.7134 16.6227C18.7441 16.6432 18.8772 16.8376 18.9079 16.8274C18.9386 16.8172 18.8874 16.5511 18.8567 16.4692C18.8055 16.3566 18.6418 16.2747 18.6315 16.244C18.6213 16.2235 18.6315 16.203 18.6622 16.1928C18.7237 16.1928 18.7851 16.2235 18.8465 16.244C18.8977 16.2645 18.9795 16.3259 19.0102 16.3156C19.041 16.3054 19.0103 16.2133 18.9795 16.1723C18.867 16.0393 18.7134 15.9574 18.6008 15.8346C18.5394 15.7732 18.478 15.6913 18.478 15.5992C18.478 15.548 18.5394 15.4968 18.5906 15.4763C18.6827 15.4354 18.8055 15.4149 18.8874 15.3637C18.9181 15.3433 18.8977 15.3228 18.867 15.3126C18.7339 15.2614 18.5906 15.2409 18.4473 15.2409C18.3654 15.2409 18.2938 15.2921 18.2119 15.3126C18.1607 15.333 18.1095 15.3637 18.0481 15.3637C17.9458 15.3637 17.8332 15.374 17.7615 15.3126C17.7206 15.2716 17.7718 15.1897 17.8025 15.1283C17.8332 15.0772 17.8844 15.0464 17.9253 15.0055C17.956 14.9748 18.0481 14.9441 18.0174 14.9339C17.9867 14.9236 17.8229 14.9236 17.7308 14.9543C17.6489 14.9748 17.5773 15.0055 17.5159 15.0669C17.4647 15.1181 17.4749 15.2307 17.4033 15.2614C17.2805 15.333 17.2191 15.3126 17.086 15.374C17.0553 15.3944 16.9836 15.4763 16.9529 15.4866C16.7892 15.507 16.4616 15.4252 16.4514 15.4559C16.4309 15.4866 16.7073 15.6401 16.7585 15.7834C16.7789 15.8448 16.6254 15.7527 16.564 15.7629C16.4616 15.7732 16.3593 15.7936 16.2774 15.8346C16.1955 15.8755 16.1239 15.9472 16.0625 16.0188C16.001 16.0802 15.9703 16.1621 15.8987 16.2133C15.868 16.2338 15.7963 16.203 15.7759 16.2338C15.7452 16.2747 15.7349 16.3668 15.7861 16.3668L16.0727 16.3873C16.1239 16.3873 16.0215 16.4999 16.0522 16.5511C16.0727 16.5818 16.1443 16.5715 16.175 16.5511C16.216 16.5306 16.2365 16.4692 16.2876 16.4385C16.3388 16.4078 16.39 16.3668 16.4514 16.3668C16.523 16.3668 16.6152 16.3975 16.6459 16.4589C16.6766 16.5203 16.6049 16.592 16.5947 16.6534C16.5845 16.7251 16.6254 16.8172 16.5742 16.8683C16.4207 17.0116 16.3695 16.8888 16.1443 17.1754C15.9601 17.4006 16.042 17.2778 15.9806 17.5746C15.9703 17.636 15.9601 17.6974 15.9089 17.7384C15.8577 17.7691 15.7759 17.7895 15.7247 17.7588C15.6223 17.7077 15.5609 17.6053 15.4893 17.5029C15.4483 17.4518 15.4688 17.3596 15.4176 17.3187C15.346 17.2778 15.2436 17.2778 15.1617 17.2982C15.1003 17.3187 15.0696 17.3904 15.0389 17.4415C14.957 17.5541 14.8956 17.6872 14.824 17.7998C14.7626 17.8919 14.6807 17.9738 14.6295 18.0659C14.5988 18.1171 14.6193 18.1785 14.5886 18.2297C14.5271 18.373 14.476 18.506 14.4043 18.6391C14.3736 18.6903 14.3122 18.721 14.2917 18.7824C14.2815 18.8438 14.302 18.9768 14.3327 18.9768C14.3634 18.9768 14.4657 18.9052 14.5271 18.8643C14.5988 18.8335 14.7318 18.7926 14.7421 18.7721C14.7523 18.7517 14.6704 18.68 14.6295 18.6288C14.5578 18.5367 14.7114 18.4037 14.7728 18.3013C14.7933 18.2604 14.8444 18.2501 14.8649 18.2092C14.9058 18.1273 14.9161 18.025 14.957 17.9431C15.0082 17.8305 15.0696 17.7179 15.1515 17.636C15.1924 17.5951 15.2641 17.5644 15.3153 17.6053C15.3971 17.6565 15.4074 17.7691 15.4586 17.8612C15.4995 17.9226 15.5507 17.984 15.5712 18.0557C15.5916 18.1171 15.5302 18.199 15.5712 18.2501C15.6223 18.3115 15.7247 18.332 15.8066 18.3422L15.9908 18.3627L16.0113 18.6186C16.0215 18.7107 15.8168 18.6391 15.7247 18.6595C15.6428 18.68 15.5609 18.7107 15.4688 18.7312C15.3869 18.7517 15.2334 18.68 15.2129 18.7721C15.1413 19.1304 15.2334 19.4886 15.2539 19.8469C15.2539 19.939 15.2027 20.0925 15.2948 20.1334L15.4688 20.2051C15.4995 20.2767 15.52 20.3689 15.5609 20.42C15.5507 20.4712 15.6019 20.4814 15.6428 20.4917Z" fill="#262625"/>
<path d="M21.2824 13.6628C21.2824 13.5912 21.2312 13.5605 21.1391 13.5605H20.7911C20.699 13.5605 20.6478 13.5912 20.6478 13.6628C20.6478 13.7345 20.699 13.7652 20.7911 13.7652H20.8628V14.41C20.8628 14.5226 20.8935 14.5738 20.9651 14.5738C21.0368 14.5738 21.0675 14.5226 21.0675 14.41V13.7652H21.1391C21.2415 13.7652 21.2824 13.7345 21.2824 13.6628ZM20.2896 13.888C20.2896 13.9699 20.2486 14.0108 20.1668 14.0108H20.0746V13.7652H20.1668C20.2486 13.7652 20.2896 13.8061 20.2896 13.888ZM20.5148 14.4714C20.5148 14.4305 20.4943 14.3895 20.4534 14.3384L20.2896 14.1337C20.4226 14.1029 20.5045 14.0006 20.5045 13.8573C20.5045 13.6731 20.3817 13.54 20.1668 13.54H20.0132C19.9006 13.54 19.8699 13.5912 19.8699 13.7038V14.3998C19.8699 14.5124 19.9006 14.5635 19.9723 14.5635C20.0439 14.5635 20.0746 14.5124 20.0746 14.3998V14.1541L20.3101 14.4919C20.351 14.5431 20.3817 14.5738 20.4226 14.5738C20.4738 14.5738 20.5148 14.5328 20.5148 14.4714ZM19.4298 14.1541H19.2149L19.3275 13.7857L19.4298 14.1541ZM19.7164 14.4612C19.7164 14.4407 19.7164 14.4202 19.7062 14.3895L19.481 13.6731C19.4503 13.5912 19.3991 13.54 19.3275 13.54C19.2558 13.54 19.2046 13.5912 19.1739 13.6833L18.9385 14.3895C18.9283 14.41 18.9283 14.4305 18.9283 14.451C18.9283 14.5124 18.9692 14.5635 19.0204 14.5635C19.0613 14.5635 19.1023 14.5328 19.1227 14.4612L19.1535 14.3588H19.481L19.5015 14.451C19.5219 14.5226 19.5526 14.5635 19.6038 14.5635C19.6755 14.5738 19.7164 14.5328 19.7164 14.4612ZM18.785 14.1029C18.785 13.9904 18.744 13.9494 18.6622 13.9494H18.5291C18.4472 13.9494 18.4063 13.9801 18.4063 14.0518C18.4063 14.1234 18.4472 14.1541 18.5291 14.1541H18.5905C18.5905 14.277 18.5291 14.3588 18.4267 14.3588C18.3142 14.3588 18.2323 14.236 18.2323 14.0415C18.2323 13.8471 18.3142 13.7345 18.4267 13.7345C18.5393 13.7345 18.5905 13.8266 18.6417 13.8266C18.6826 13.8266 18.7236 13.7754 18.7236 13.7242C18.7236 13.6219 18.611 13.5195 18.437 13.5195C18.1913 13.5195 18.0378 13.7242 18.0378 14.0518C18.0378 14.3691 18.1913 14.584 18.4165 14.584C18.6417 14.584 18.785 14.3793 18.785 14.1029ZM17.9866 13.6628C17.9866 13.5912 17.9354 13.5605 17.8433 13.5605H17.4953C17.4032 13.5605 17.352 13.5912 17.352 13.6628C17.352 13.7345 17.4032 13.7652 17.4953 13.7652H17.567V14.41C17.567 14.5226 17.5977 14.5738 17.6693 14.5738C17.741 14.5738 17.7717 14.5226 17.7717 14.41V13.7652H17.8433C17.9354 13.7652 17.9866 13.7345 17.9866 13.6628ZM17.3111 13.6628C17.3111 13.5912 17.2599 13.5605 17.1678 13.5605H16.8198C16.7277 13.5605 16.6765 13.5912 16.6765 13.6628C16.6765 13.7345 16.7277 13.7652 16.8198 13.7652H16.8914V14.41C16.8914 14.5226 16.9221 14.5738 16.9938 14.5738C17.0654 14.5738 17.0961 14.5226 17.0961 14.41V13.7652H17.1678C17.2599 13.7652 17.3111 13.7345 17.3111 13.6628ZM16.5537 14.1234V13.7038C16.5537 13.5912 16.523 13.54 16.4513 13.54C16.3797 13.54 16.349 13.5912 16.349 13.7038V14.1029C16.349 14.277 16.2875 14.3691 16.1749 14.3691C16.0624 14.3691 16.0009 14.277 16.0009 14.1029V13.7038C16.0009 13.5912 15.9702 13.54 15.8986 13.54C15.8269 13.54 15.7962 13.5912 15.7962 13.7038V14.1234C15.7962 14.4202 15.9395 14.584 16.1749 14.584C16.4001 14.584 16.5537 14.4202 16.5537 14.1234ZM15.7144 13.6628C15.7144 13.5912 15.6632 13.5605 15.5711 13.5605H15.2231C15.1309 13.5605 15.0798 13.5912 15.0798 13.6628C15.0798 13.7345 15.1309 13.7652 15.2231 13.7652H15.2947V14.41C15.2947 14.5226 15.3254 14.5738 15.3971 14.5738C15.4687 14.5738 15.4994 14.5226 15.4994 14.41V13.7652H15.5711C15.6632 13.7652 15.7144 13.7345 15.7144 13.6628ZM15.0081 14.2462C15.0081 14.0927 14.9262 14.0006 14.7625 13.9392C14.6601 13.8982 14.5987 13.888 14.5987 13.8164C14.5987 13.7652 14.6396 13.7345 14.7011 13.7345C14.7522 13.7345 14.8136 13.7652 14.8546 13.7652C14.916 13.7652 14.9467 13.7242 14.9467 13.6731C14.9467 13.5912 14.8546 13.5298 14.7011 13.5298C14.5066 13.5298 14.3838 13.6628 14.3838 13.8471C14.3838 14.0006 14.4656 14.0722 14.6294 14.1337C14.7215 14.1644 14.7829 14.1951 14.7829 14.277C14.7829 14.3384 14.742 14.3793 14.6806 14.3793C14.5885 14.3793 14.5168 14.3281 14.4656 14.3281C14.4042 14.3281 14.3633 14.3691 14.3633 14.4305C14.3633 14.5124 14.4861 14.5942 14.6499 14.5942C14.8751 14.584 15.0081 14.4407 15.0081 14.2462Z" fill="#262625"/>
</g>
<defs>
<clipPath id="clip0_801_3096">
<rect width="30" height="30" fill="white" transform="translate(3 3)"/>
</clipPath>
</defs>
</svg>
