<svg width="36" height="36" viewBox="0 0 36 36" fill="none" xmlns="http://www.w3.org/2000/svg">
<g clip-path="url(#clip0_439_17685)">
<path d="M23.9435 14.552C25.0227 12.6629 25.3145 10.4389 27.1856 9.31674C28.4322 8.56787 30.1765 8.6923 30.9254 10.0656C31.0521 10.4389 31.3009 10.69 31.3009 10.9389C31.6743 12.0611 32.4209 13.3077 31.9254 14.5543C31.7987 14.8032 31.1765 14.8032 31.0521 15.052C30.6788 16.9231 29.9299 18.543 29.3077 20.2873C29.0589 20.9118 28.4344 21.4095 27.9367 21.7828C27.5634 22.0317 26.939 22.0317 27.0634 21.5339C27.0634 20.5362 27.0634 19.5385 27.4367 18.543C27.81 17.7941 27.6856 16.9231 27.4367 16.1742C27.3123 15.6765 27.1878 14.9276 26.6878 14.5543C26.5611 14.5543 26.3145 14.4299 26.1901 14.6787C26.0657 15.4276 26.5634 16.0498 26.3145 16.7986C25.9412 17.6719 24.9435 17.7964 24.4435 18.543C23.5702 19.6652 23.9457 21.1606 23.3213 22.5317C22.8236 23.6538 21.9503 24.6516 21.3258 25.7738C20.8281 26.5226 21.3258 27.5181 20.7014 28.1425C20.2037 28.767 19.4548 29.2647 18.7059 28.8914C18.2082 28.6425 17.9571 28.0181 18.3326 27.5204C18.7059 26.8959 19.8281 27.1471 19.9525 26.1493C19.9525 25.0271 19.7037 23.905 19.9525 22.9072C20.2014 22.4095 20.5747 22.0339 20.8258 21.5362C21.1991 21.2873 21.8236 21.1629 21.6991 20.6629C21.6991 20.414 21.2014 20.7873 20.9503 20.6629C20.8258 20.5385 20.8258 20.414 20.8258 20.2896C21.448 19.1674 23.4435 18.5452 22.5702 17.0475H22.1969C22.0724 17.0475 22.0724 16.9231 22.0724 16.7986C23.0679 16.4231 23.4435 15.4253 23.9435 14.552ZM29.4276 21.7828C30.3756 19.8869 31.0476 17.9185 31.7964 15.9231C31.7964 15.7986 32.4209 15.4253 32.6697 15.7986C32.7942 16.0475 32.7942 16.1719 32.9186 16.4231C33.043 17.1719 33.043 18.043 32.7919 18.7918C32.543 19.7896 32.543 20.7873 32.1675 21.6584C31.9186 22.0317 31.6697 22.4072 31.4186 22.905C30.7942 23.9027 30.172 25.1493 29.0498 25.5226C28.4254 25.7715 27.5543 26.2715 26.9299 25.5226C26.8055 25.2738 26.8055 25.0249 26.9299 24.7738C27.8055 23.6538 28.8055 23.0294 29.4276 21.7828ZM17.043 9.44117C16.6946 8.80316 16.5476 7.93891 15.6697 7.69683C15.1109 7.54072 15.2964 6.94796 15.0476 6.82352C14.8281 6.74886 14.5046 6.76017 14.2874 6.65836C14.0362 6.54072 13.8914 6.31221 13.6539 6.20588C13.4005 6.09049 13.1041 6.15158 12.8779 6.10633C12.6991 6.06108 12.5747 5.85293 12.396 5.79864C11.5792 5.55203 10.7783 5.28959 10.0611 5.69909C9.43669 5.94796 8.69009 5.57239 7.81679 6.07239C7.31905 6.57013 6.69461 6.94569 6.32131 7.44343C6.07244 7.81673 5.69688 7.94117 5.82357 8.44117C10.3123 6.69683 12.681 11.9321 15.6697 14.4253C16.2942 14.9231 17.1652 14.6742 17.2919 13.9276C17.543 12.4344 17.7919 10.8122 17.043 9.44117ZM19.0498 9.44117C19.3982 8.80316 19.5453 7.93891 20.4209 7.69683C20.9819 7.54072 20.7942 6.94796 21.043 6.82352C21.2647 6.74886 21.586 6.76017 21.8032 6.65836C22.0566 6.54072 22.1991 6.31221 22.439 6.20588C22.6924 6.09049 22.9865 6.15158 23.215 6.10633C23.3937 6.06108 23.5181 5.85293 23.6969 5.79864C24.5114 5.55203 25.3145 5.28959 26.0295 5.69909C26.6516 5.94796 27.4005 5.57239 28.2738 6.07239C28.7715 6.57013 29.396 6.94569 29.7693 7.44343C30.0181 7.81673 30.3937 7.94117 30.267 8.44117C25.7806 6.69909 23.4118 11.9344 20.4209 14.4276C19.7964 14.9253 18.9254 14.6765 18.8009 13.9299C18.5498 12.4344 18.3009 10.8122 19.0498 9.44117ZM12.0566 14.552C10.9752 12.6629 10.6833 10.4389 8.81452 9.31674C7.56792 8.56787 5.82357 8.6923 5.0747 10.0656C4.95027 10.4389 4.7014 10.69 4.7014 10.9389C4.3281 12.0611 3.57923 13.3077 4.07697 14.5543C4.2014 14.8032 4.82583 14.8032 4.95027 15.052C5.32357 16.9231 6.07244 18.543 6.69461 20.2873C6.94348 20.9118 7.56792 21.4095 8.06565 21.7828C8.43896 22.0317 9.06339 22.0317 8.93896 21.5339C8.93896 20.5362 8.93896 19.5385 8.56565 18.543C8.19235 17.7941 8.31679 16.9231 8.56565 16.1742C8.69009 15.6765 8.81452 14.9276 9.31452 14.5543C9.43896 14.5543 9.68783 14.4299 9.81226 14.6787C9.93669 15.4276 9.43896 16.0498 9.68783 16.7986C10.0611 17.6719 11.0611 17.7964 11.5589 18.543C12.4322 19.6652 12.0566 21.1606 12.681 22.5317C13.1788 23.6538 14.0521 24.6516 14.6765 25.7738C15.1743 26.5226 14.6765 27.5181 15.3009 28.1425C15.7987 28.767 16.5476 29.2647 17.2964 28.8914C17.7942 28.6425 18.0453 28.0181 17.6697 27.5204C17.2964 26.8959 16.1743 27.1471 16.0498 26.1493C16.0498 25.0271 16.2987 23.905 16.0498 22.9072C15.8009 22.4095 15.4254 22.0339 15.1765 21.5362C14.8032 21.2873 14.1788 21.1629 14.3032 20.6629C14.3032 20.414 14.8009 20.7873 15.0521 20.6629C15.1788 20.5385 15.1788 20.414 15.1788 20.2896C14.5521 19.1674 12.5566 18.543 13.4299 17.0475H13.8032C13.9299 17.0475 13.9299 16.9231 13.9299 16.7986C12.9322 16.4231 12.5566 15.4253 12.0566 14.552ZM6.57244 21.7828C5.62448 19.8869 4.95253 17.9185 4.20366 15.9231C4.20366 15.7986 3.57923 15.4253 3.33036 15.7986C3.20366 16.0475 3.20366 16.1719 3.08149 16.4231C2.95706 17.1719 2.95706 18.043 3.20593 18.7918C3.45479 19.7896 3.45479 20.7873 3.83036 21.6584C4.07923 22.0317 4.3281 22.4072 4.57923 22.905C5.20366 23.9027 5.82583 25.1493 6.94574 25.5226C7.57018 25.7715 8.44122 26.2715 9.06565 25.5226C9.19009 25.2738 9.19009 25.0249 9.06565 24.7738C8.19235 23.6538 7.19461 23.0294 6.57244 21.7828ZM19.3914 29.7149C19.4028 29.1222 17.8485 29.1855 17.8485 29.1855C17.8485 29.1855 16.3055 29.1222 16.3055 29.7149C16.3055 30.3077 17.4435 30.5249 17.8643 30.5249C17.8666 30.5249 19.3756 30.5566 19.3914 29.7149Z" fill="#262625"/>
</g>
<defs>
<clipPath id="clip0_439_17685">
<rect width="30" height="30" fill="white" transform="translate(3 3)"/>
</clipPath>
</defs>
</svg>
