<svg width="36" height="36" viewBox="0 0 36 36" fill="none" xmlns="http://www.w3.org/2000/svg">
<g clip-path="url(#clip0_826_2099)">
<path d="M31.6917 17.3128C30.9054 17.3128 29.0777 17.3158 27.981 17.3158C27.5922 17.3158 27.4791 17.244 27.2354 16.9747C26.9917 16.7054 25.7789 15.3649 25.7789 15.3649C24.2384 13.6533 20.4812 9.87118 19.1089 8.67729C18.5925 8.22846 18.0094 8.24342 18.0007 8.24342C17.992 8.24342 17.4088 8.22846 16.8924 8.67729C15.5201 9.87118 11.763 13.6533 10.2224 15.3649C10.2224 15.3649 9.00968 16.7054 8.76598 16.9747C8.52227 17.244 8.40912 17.3158 8.02035 17.3158C6.92078 17.3158 5.09589 17.3128 4.30965 17.3128C4.11817 17.3128 3.99922 17.0734 4.12977 16.9208C5.70515 15.2452 14.229 6.17879 15.8247 4.87119C16.3818 4.41039 17.0984 4.07227 18.0007 4.07227C18.9001 4.07227 19.6196 4.41039 20.1766 4.87119C21.7723 6.17879 30.2962 15.2452 31.8716 16.9208C31.9992 17.0734 31.8861 17.3128 31.6917 17.3128ZM4.30675 18.6863C5.09299 18.6863 6.92078 18.6833 8.01745 18.6833C8.40622 18.6833 8.51937 18.7521 8.76308 19.0214C9.00678 19.2907 10.2195 20.6312 10.2195 20.6312C11.7601 22.3427 15.5172 26.1249 16.8895 27.3188C17.4059 27.7676 17.9891 27.7527 17.9978 27.7527C18.0065 27.7527 18.5896 27.7676 19.106 27.3188C20.4783 26.1279 24.2355 22.3457 25.776 20.6312C25.776 20.6312 26.9888 19.2907 27.2325 19.0214C27.4762 18.7521 27.5893 18.6833 27.9781 18.6833C29.0777 18.6833 30.9025 18.6863 31.6888 18.6863C31.8803 18.6863 31.9992 18.9256 31.8687 19.0782C30.2933 20.7539 21.7723 29.8173 20.1737 31.1279C19.6196 31.5887 18.9001 31.9268 17.9978 31.9268C17.0984 31.9268 16.3818 31.5887 15.8247 31.1279C14.2261 29.8173 5.70515 20.7539 4.12977 19.0782C3.99922 18.9256 4.11527 18.6863 4.30675 18.6863ZM17.3276 21.7862V25.5414C17.3276 25.718 17.1622 25.7958 17.0229 25.6701C15.4563 24.174 11.9661 20.6073 10.794 19.2249C10.2369 18.6114 10.2862 17.9921 10.2862 17.9921C10.2862 17.9921 10.234 17.3667 10.794 16.7563C11.9661 15.3739 15.4563 11.8071 17.0229 10.311C17.1564 10.1824 17.3276 10.2781 17.3276 10.4277V14.1919C17.3276 14.5331 17.2579 14.7066 16.9707 14.9819C16.2686 15.6462 15.0298 16.8819 14.5685 17.4385C14.3596 17.6839 14.3741 17.9891 14.3741 17.9891C14.3741 17.9891 14.3596 18.2973 14.5685 18.5426C15.0298 19.0962 16.2686 20.335 16.9707 20.9962C17.2579 21.2715 17.3276 21.4451 17.3276 21.7862ZM19.0306 20.9992C19.7327 20.338 20.9716 19.0992 21.4328 18.5456C21.6417 18.3003 21.6272 17.9921 21.6272 17.9921C21.6272 17.9921 21.6417 17.6869 21.4328 17.4415C20.9716 16.8849 19.7327 15.6492 19.0306 14.9849C18.7434 14.7096 18.6738 14.536 18.6738 14.1949V10.4427C18.6738 10.2662 18.8391 10.1854 18.9784 10.311C20.5451 11.8071 24.0353 15.3739 25.2045 16.7563C25.7644 17.3697 25.7122 17.9921 25.7122 17.9921C25.7122 17.9921 25.7644 18.6144 25.2045 19.2278C24.0353 20.6103 20.5451 24.177 18.9784 25.6731C18.8391 25.7988 18.6738 25.721 18.6738 25.5414V21.7892C18.6767 21.4481 18.7434 21.2745 19.0306 20.9992Z" fill="#262625"/>
</g>
<defs>
<clipPath id="clip0_826_2099">
<rect width="28" height="28" fill="white" transform="translate(4 4)"/>
</clipPath>
</defs>
</svg>
