<svg width="36" height="36" viewBox="0 0 36 36" fill="none" xmlns="http://www.w3.org/2000/svg">
<path d="M8.60502 12.2149C9.39078 11.1672 10.3132 10.9736 11.0306 10.9508C12.1922 10.928 12.8983 11.8163 12.8983 11.8163C12.8983 11.8163 13.2968 10.575 13.6043 10.1309C13.741 9.94869 13.889 9.81203 14.0826 9.73232C14.0598 9.73232 14.0257 9.73232 13.9801 9.75509L10.7687 2.23908C12.3744 2.18214 14.299 3.1615 13.0007 4.9494C12.978 5.02912 13.0577 5.05189 13.1032 5.00634C13.3424 4.76719 13.6612 4.60776 14.0257 4.60776C14.7089 4.60776 15.2669 5.16577 15.2669 5.84905C15.2669 6.53232 14.7089 7.09033 14.0257 7.09033C13.9459 7.09033 13.8662 7.09033 13.7637 7.06755C13.8435 7.56862 16.736 8.73018 17.8634 6.50954C17.6584 6.66897 17.3851 6.74869 17.1232 6.74869C16.4399 6.74869 15.8819 6.19068 15.8819 5.50741C15.8819 4.82413 16.4399 4.26613 17.1232 4.26613C17.3623 4.26613 17.6015 4.34584 17.7837 4.44833C17.5445 4.20919 17.3851 3.89033 17.3851 3.54869C17.3851 2.86542 17.9431 2.30741 18.6264 2.30741C19.3096 2.30741 19.8676 2.86542 19.8676 3.54869C19.8676 3.89033 19.731 4.17502 19.526 4.39139C19.7082 4.31168 19.8904 4.25474 20.1068 4.25474C20.7901 4.25474 21.3481 4.81275 21.3481 5.49602C21.3481 6.17929 20.7901 6.7373 20.1068 6.7373C19.7879 6.7373 19.526 6.63481 19.2869 6.4526C19.526 7.29531 21.5189 8.901 23.5232 7.05616C23.4435 7.07894 23.3637 7.07894 23.2612 7.07894C22.578 7.07894 22.02 6.52093 22.02 5.83766C22.02 5.15438 22.578 4.59638 23.2612 4.59638C23.6257 4.59638 23.9445 4.75581 24.1837 4.99495C24.2406 5.05189 24.3203 5.01773 24.2862 4.93801C22.9993 3.15011 24.9125 2.17075 26.5182 2.22769L23.3068 9.77787C23.2499 9.77787 23.2271 9.72093 23.1701 9.72093C23.4321 9.82342 23.5346 9.98285 23.6712 10.2789C23.6712 10.2789 25.6413 9.31097 27.0079 9.51595C27.0079 9.51595 26.9054 10.4839 26.5865 11.3038C26.2676 12.1238 25.8805 12.6704 25.8805 12.6704C25.8805 12.6704 28.1467 15.0163 27.8506 17.6697C27.6911 19.1159 27.4862 19.4576 27.4862 19.4576C26.8029 18.5921 25.8235 18.4099 25.8235 18.4099C25.8235 18.4099 27.5317 20.0953 27.2128 22.0199C27.0762 22.8626 26.8484 23.9103 26.7118 24.2861C26.5068 24.8896 26.4271 26.4156 26.4271 26.4156C26.4271 26.4156 25.6641 24.8668 24.9808 24.3316C24.9808 24.3316 25.8235 26.6775 24.4797 28.5907C23.899 29.4106 22.6918 30.6747 22.6918 30.6747C22.6918 30.6747 22.2705 28.9665 21.4506 28.3629C21.4506 28.3629 21.4733 30.4469 20.9495 31.2782C19.9246 32.9636 16.8954 33.9885 16.8954 33.9885C16.8954 33.9885 16.736 28.8298 16.4741 28.1238C16.4741 28.1238 15.916 29.3081 15.768 30.4925C15.6655 31.2555 15.6314 32.1779 15.6314 32.1779C15.6314 32.1779 13.2627 28.9095 12.978 28.4882C12.0328 27.0419 13.7637 24.753 13.7637 24.753C12.978 24.8555 11.9986 26.2789 11.9986 26.2789C11.9986 26.2789 11.8961 24.2747 11.8961 23.4092C11.9189 22.464 12.8413 21.4049 12.8413 21.4049C12.0214 21.906 11.3723 21.9288 10.5751 21.2683C9.73242 20.6078 9.55021 18.501 9.55021 18.501C9.55021 18.501 11.0193 19.3209 12.1011 18.9224C13.183 18.5579 14.5495 17.1117 14.5495 17.1117L11.7822 16.3259C11.7822 16.3259 11.6228 14.9821 10.2563 14.9821C8.96943 14.9821 7.72815 16.1893 7.72815 16.1893C7.72815 16.1893 7.61427 13.5245 8.60502 12.2149ZM4.50537 15.7337C5.34808 17.3964 6.42993 18.1252 7.61427 18.2619C8.79861 18.3985 10.7687 17.4192 11.3495 17.4192C11.9303 17.4192 12.7388 17.738 13.0349 17.8633C12.3744 16.6789 11.3495 16.5195 10.5637 16.417C9.77797 16.3145 8.4342 16.9978 7.22708 17.0434C6.00857 17.1345 5.06338 16.269 4.50537 15.7337ZM15.062 14.185C15.7452 14.185 16.3032 13.627 16.3032 12.9437H15.62C15.62 13.3423 15.415 13.6042 15.0392 13.6042C14.6748 13.6042 14.5153 13.3423 14.5153 12.9437H13.8321C13.8207 13.627 14.3787 14.185 15.062 14.185ZM12.7958 15.4263L16.7929 16.6334C16.7929 16.6334 14.1395 19.5487 12.6591 19.9017C11.9986 20.0611 11.6342 20.0384 10.9509 19.7651C10.9281 19.7423 11.4748 21.1544 12.7616 20.733C14.1509 20.2889 15.7338 19.8903 13.8093 22.1224C13.5474 22.4412 13.1488 23.0676 13.1488 23.4434C13.1488 23.5458 13.1488 23.6825 13.1488 23.8419C13.3538 23.7394 13.5474 23.6825 13.7751 23.6597C15.1644 23.4775 15.8591 24.0241 14.8 25.4476C14.3559 26.0284 13.6954 27.338 14.037 27.896C14.1395 28.0327 14.5381 28.5793 15.005 29.2626C15.2442 28.3629 15.5858 27.6797 15.5858 27.6569C16.7132 25.2882 17.1687 26.575 17.6356 27.7138C17.8748 28.2946 18 30.2875 18.0797 32.3145C18.8655 31.8932 19.7424 31.3466 20.1296 30.7088C20.3346 30.3672 20.4712 29.2056 20.4712 28.3629C20.4484 26.2106 21.1317 26.4156 22.2591 27.4633C22.6007 27.7821 22.9424 28.1466 23.1815 28.5907C23.3637 28.3515 23.5459 28.1466 23.6826 27.9643C24.6506 26.5409 24.047 24.696 24.047 24.696C22.783 21.1999 24.9922 22.8512 25.7552 23.432C25.8121 23.4547 25.8349 23.5117 25.8918 23.5345C25.9943 23.1131 26.1538 22.4298 26.2335 21.8263C26.4157 20.7444 25.4136 19.6398 25.1516 19.1957C24.3886 17.8519 24.2292 16.7245 26.837 17.533C27.0193 15.6654 25.516 13.8434 25.2314 13.5017C24.4114 14.4241 23.5232 15.2896 23.5232 15.2896C23.7281 15.5288 23.9445 18.3188 23.6029 19.4462C22.8171 21.9515 21.8378 22.3159 21.8378 22.3159C21.8378 22.3159 21.7353 20.5508 21.052 19.4006C21.052 19.4006 20.9495 21.348 20.3118 22.4754C19.2869 24.2861 18.3644 24.5821 18.3644 24.5821C18.7289 23.2156 18.3872 21.0063 18.3872 21.0063C17.7039 22.612 16.3374 23.0334 16.3374 23.0334L15.9958 20.6419L16.8954 19.9814L17.0776 21.3024C17.0776 21.3024 17.4193 21.2227 17.6584 20.5394C17.9773 19.674 18.4442 17.5444 19.1616 19.8334C19.3438 20.4369 19.4235 21.8832 19.4235 21.8832C19.4235 21.8832 20.084 20.7558 20.084 19.1729C20.084 18.2049 20.3687 15.859 21.5303 17.9885C21.8719 18.6149 22.316 19.617 22.316 19.617C22.316 19.617 23.0221 17.0434 22.1566 14.9366C22.1566 14.9366 24.3659 13.012 25.4249 11.0989C25.4249 11.0989 22.8741 12.1466 21.5531 13.4448L20.8698 12.4199C20.8698 12.4199 21.5303 11.7935 22.6349 11.0989C22.6349 11.0989 22.4299 10.7572 21.7694 10.7572C21.8264 10.7572 14.8797 10.7572 14.8797 10.7572C14.4015 10.78 14.1965 11.4177 14.0143 11.9643H18.2506V12.9323H17.1687C17.1687 14.0939 16.2235 15.0391 15.062 15.0391C13.9004 15.0391 12.9552 14.1167 12.9552 12.9551C12.6136 12.9779 12.2719 12.8184 12.0328 12.5337C12.0328 12.5337 11.6114 12.0555 11.0648 12.0896C10.5865 12.1124 10.0399 12.2263 9.51605 12.9095C9.31107 13.1942 9.15163 13.6725 9.07192 14.1736C9.49327 14.0142 9.9374 13.9117 10.4157 13.9117C11.6684 13.8661 12.4314 14.6633 12.7958 15.4263ZM14.6634 8.54798L15.0278 9.59566H22.4983L22.8399 8.54798H14.6634Z" fill="#262625"/>
</svg>
