<svg width="36" height="36" viewBox="0 0 36 36" fill="none" xmlns="http://www.w3.org/2000/svg">
<path d="M14.1491 13.5435C14.2963 9.66652 15.5839 5.9183 17.8483 2.76685H33.998V3.54347C26.9246 5.63626 19.8062 9.25369 14.1491 13.5435ZM30.8976 33.9237C22.224 32.5748 15.406 25.5995 14.2922 16.8482C15.0402 16.139 15.8209 15.4687 16.6343 14.8351C21.8275 10.7967 26.5608 8.1051 34 5.34401V33.9237H30.8976Z" fill="#262625"/>
<path d="M25.4142 33.9237C19.0092 31.1238 14.2432 25.2725 12.9454 18.2114C10.0351 21.3853 8.62901 24.5286 8.71076 26.8953C8.86404 31.3629 13.1743 33.9237 19.3137 33.9237H25.4142ZM12.5939 14.7677C12.5898 14.6226 12.5898 14.4734 12.5898 14.3262C12.5898 10.0691 13.8365 6.09815 15.9824 2.7689H2.0032V30.4473H2.77369C2.77369 29.7361 2.76552 29.1536 2.92493 28.2768C3.80374 23.7295 7.46816 18.9778 12.5939 14.7677Z" fill="#262625"/>
</svg>
