<svg width="36" height="36" viewBox="0 0 36 36" fill="none" xmlns="http://www.w3.org/2000/svg">
<path d="M23.5516 16.9326H20.0576C19.9281 16.9326 19.8264 17.0287 19.8264 17.1429V18.3252C19.8264 18.4408 19.9281 18.5369 20.0576 18.5369H23.5516C23.6811 18.5369 23.7827 18.4408 23.7813 18.3266L23.7827 17.1429C23.7813 17.0287 23.6811 16.9326 23.5516 16.9326Z" fill="#262625"/>
<path d="M18.0007 7.01331C9.23444 7.01331 2.12952 11.9026 2.12952 17.9339C2.12952 23.9637 9.23444 28.8517 18.0021 28.8517C26.767 28.8517 33.8719 23.9637 33.8719 17.9339C33.8719 11.9026 26.7642 7.01331 18.0007 7.01331ZM18.2458 8.63009C24.0974 8.71086 28.9798 11.6938 30.3278 15.6974H19.5562C17.5412 14.16 18.0202 10.0171 18.2458 8.63009ZM24.5764 17.1318V18.3363C24.5764 18.697 24.2701 18.9881 23.8927 18.9881H19.7178C19.339 18.9881 19.0312 18.697 19.0312 18.3363V17.1318C19.0312 16.7739 19.3376 16.48 19.7178 16.48H23.8927C24.2701 16.4814 24.5764 16.7739 24.5764 17.1318ZM18.4115 16.4814V18.9908H17.6108L17.6122 16.4814H18.4115ZM17.8573 8.63009C16.9159 9.60907 14.8298 12.1115 14.1182 15.6974H5.67223C7.02721 11.6715 11.9569 8.67743 17.8573 8.63009ZM12.2424 18.3266C12.2424 18.4408 12.3427 18.5369 12.4722 18.5369H16.9939V18.9881H12.131C11.7522 18.9881 11.4445 18.697 11.4445 18.3363V17.1318C11.4445 16.7739 11.7508 16.48 12.131 16.48H16.9925V16.9312H12.4708C12.3413 16.9312 12.241 17.0301 12.241 17.1429L12.2424 18.3266ZM5.2656 18.5355L9.80261 18.5369C9.9363 18.5369 10.0296 18.4561 10.0282 18.3405L10.0268 17.9645H5.27117V17.1318C5.27117 16.7669 5.58032 16.48 5.95771 16.48H10.8234V16.9312H6.2599C6.11507 16.9312 6.06633 17.0176 6.06633 17.1318L6.06076 17.5133H10.8234V18.3405C10.8234 18.7082 10.5198 18.9881 10.1396 18.9881H5.75021C5.48284 18.9881 5.2656 18.7945 5.2656 18.5355ZM5.56639 19.8264H16.0386C18.6691 21.5156 17.945 25.8159 17.6233 27.2335C11.6631 27.1054 6.73477 23.9707 5.56639 19.8264ZM18.0007 27.2391C17.9742 27.2391 17.9492 27.2377 17.9213 27.2377C18.924 26.093 21.4125 22.9736 21.7439 19.8278H30.3988L30.435 19.8166C29.2485 24.0529 24.1322 27.2391 18.0007 27.2391ZM30.7511 18.5369C30.7511 18.7959 30.5339 18.9881 30.2665 18.9881H29.9741V17.1443C29.9741 17.0287 29.8738 16.9326 29.7485 16.9326H25.9941V18.9895H25.1975V16.4814H30.0883C30.4643 16.4814 30.7539 16.7739 30.7539 17.1332L30.7511 18.5369Z" fill="#262625"/>
</svg>
