<svg width="36" height="36" viewBox="0 0 36 36" fill="none" xmlns="http://www.w3.org/2000/svg">
<path d="M13.0844 4.8778C18.6793 4.68202 24.2798 4.87641 29.8649 5.23256C30.4529 5.28324 31.0486 5.27908 31.6275 5.40196C31.9407 5.47694 32.2791 5.59565 32.4623 5.87821C32.6294 6.18576 32.6329 6.54469 32.6763 6.88348C32.8091 8.54759 32.8483 10.2186 32.9734 11.8828C32.7315 11.9119 32.4896 11.8751 32.2477 11.8675C27.94 11.646 23.6288 11.462 19.3142 11.4565C17.0796 11.4627 14.8422 11.4412 12.6097 11.5488C12.0685 11.628 11.456 11.8078 11.1435 12.2868C12.8327 12.5846 14.5184 12.9061 16.207 13.2095C21.8033 14.2494 27.4037 15.2665 33 16.3051C32.9951 17.359 32.9972 18.4128 32.9993 19.4667C29.8523 18.9495 26.7108 18.3913 23.5659 17.8574C16.7999 16.6994 10.036 15.5255 3.26786 14.3786C3.28114 13.2088 3.33148 12.0397 3.35595 10.8692C3.3986 9.94234 3.37204 9.00302 3.58319 8.09286C3.72512 7.45068 3.98802 6.80503 4.47815 6.34613C5.32416 5.51443 6.54773 5.28047 7.68671 5.16314C9.48151 4.99791 11.284 4.94376 13.0844 4.8778ZM3 16C12.6903 17.7727 22.3771 19.5752 32.066 21.3582C32.2778 21.4095 32.5043 21.4137 32.7077 21.4906L32.7321 21.546C32.679 23.1219 32.6483 24.6991 32.591 26.275C32.5539 27.2472 32.4505 28.2646 31.9458 29.1211C31.4048 30.0067 30.3969 30.4967 29.3995 30.6817C27.9296 30.9554 26.4283 30.9734 24.9395 31.0545C18.5336 31.3428 12.1144 31.1834 5.71893 30.7468C5.208 30.7115 4.68798 30.7025 4.19172 30.5618C3.9345 30.4814 3.6689 30.3518 3.52352 30.1162C3.36765 29.8071 3.35786 29.4544 3.31942 29.1176C3.18243 27.2791 3.10974 25.4372 3.01258 23.5966C6.31165 23.8045 9.61631 23.9209 12.9217 23.9937C16.1131 24.0449 19.3045 24.0443 22.4959 24.0754C23.1844 24.1039 23.9288 23.9736 24.4509 23.494C24.5271 23.4074 24.6508 23.327 24.6382 23.1974C23.1998 22.9833 21.7697 22.7172 20.3341 22.483C14.5579 21.5038 8.77896 20.5336 3.00349 19.5488C2.99651 18.3659 3.00489 17.183 3 16Z" fill="#262625"/>
</svg>
