<svg width="36" height="36" viewBox="0 0 36 36" fill="none" xmlns="http://www.w3.org/2000/svg">
<g clip-path="url(#clip0_441_17794)">
<path fill-rule="evenodd" clip-rule="evenodd" d="M16.2584 2.0844C12.8991 2.51831 9.94672 3.82342 7.59816 5.91261C7.40065 6.08808 7.17742 6.28406 7.10209 6.3479C7.0266 6.4119 6.72237 6.72639 6.42595 7.04685C-0.826258 14.8899 1.42752 27.42 10.9474 32.1828C21.6477 37.5363 34.2053 29.622 33.9905 17.6603C33.9672 16.3683 33.9415 16.0797 33.7509 14.9809C32.4707 7.60249 25.9236 2.1187 18.2679 2.0129C17.1825 1.99789 16.8307 2.01045 16.2584 2.0844ZM19.8004 2.7812C29.3974 3.95617 35.4648 13.3069 32.6148 22.5301C31.182 27.1666 27.342 31.0028 22.6699 32.4645C15.216 34.7968 7.25826 31.1704 4.09501 24.0001C1.99694 19.2442 2.64628 13.0099 5.64724 9.09577C5.66745 9.06943 5.80632 8.88647 5.9559 8.68911C9.1631 4.45715 14.5864 2.14289 19.8004 2.7812ZM17.311 3.55119C8.0137 4.08157 1.62641 13.1657 4.30002 22.0556C7.0632 31.2425 17.8714 35.2068 25.9234 29.9864C26.3009 29.7417 26.5001 29.6 26.9271 29.2715C27.8352 28.5732 28.855 27.5417 29.5137 26.6555C29.631 26.4976 29.74 26.3577 29.7559 26.3445C29.8541 26.2632 30.6783 24.9203 30.8966 24.4856C35.6668 14.9919 29.0206 3.82832 18.4354 3.55456C17.9881 3.54293 17.482 3.54155 17.311 3.55119ZM19.3445 4.86319C30.3419 5.90052 35.1793 19.4373 27.3371 27.2297C20.1607 34.3606 8.19346 31.1136 5.38235 21.2728C4.97034 19.8303 4.83958 17.2469 5.10905 15.8724C5.13294 15.7505 5.1876 15.4677 5.23062 15.2441C6.46576 8.81129 12.6874 4.23529 19.3445 4.86319ZM17.0718 6.29447C16.5843 6.33963 15.8572 6.46228 15.3048 6.59227C14.2381 6.84321 14.2317 6.92589 15.2103 7.80903C16.2143 8.71514 17.1147 9.7324 17.766 10.6962C18.1827 11.3126 18.1848 11.3206 17.9335 11.3206C17.5243 11.3206 17.1599 11.1162 16.5113 10.5228C15.2829 9.39893 13.2498 7.96413 12.6134 7.77213C12.2565 7.6645 10.9791 8.52605 9.89971 9.60256C9.10385 10.3961 9.0325 10.5508 9.38113 10.7275C10.5307 11.3104 13.5312 13.4712 13.5312 13.7163C13.5312 14.0048 12.8417 13.8907 11.9283 13.451C10.0825 12.5623 8.32161 11.9995 7.97236 12.1864C7.74086 12.3103 7.02523 14.0259 6.76662 15.0766C6.42029 16.4839 6.44463 16.5489 7.38488 16.7317C11.1486 17.4631 13.3983 19.3964 14.0329 22.445C14.1741 23.1225 14.1248 23.3802 13.8279 23.5183C13.5823 23.6325 13.5088 23.6072 11.9387 22.8689L11.088 22.469H9.26752H7.4472L7.30725 22.6088C7.04023 22.876 7.06657 22.9386 7.86917 23.9392C8.19973 24.3512 8.69657 25.0339 8.97355 25.4565C9.61064 26.4291 9.47529 26.3445 10.3961 26.3445C11.2725 26.3445 11.1261 26.3908 12.1435 25.7918L12.7895 25.4115L18.3659 25.3989C24.8555 25.3844 24.1532 25.3167 24.1532 25.9562C24.1532 26.5861 24.3225 26.6177 25.5646 26.2191C26.5743 25.8952 28.0553 24.9375 28.154 24.5447C28.2911 23.9986 25.9075 22.6238 24.5837 22.4855C24.2271 22.4483 24.1688 22.5171 24.1454 23.0029C24.1224 23.4803 24.0506 23.5694 23.689 23.5694C23.4801 23.5694 23.4091 23.5475 23.3155 23.454C23.084 23.2225 23.0851 23.2105 23.4533 21.7673C24.8269 16.385 24.1648 11.958 21.4738 8.52773C21.0446 7.98082 19.5573 6.48815 19.3206 6.36689C19.1283 6.26844 17.8111 6.22603 17.0718 6.29447ZM20.8039 19.4131C21.721 19.8371 21.9565 20.9805 21.2792 21.7215C20.3622 22.725 18.7464 22.0994 18.7464 20.741C18.7464 19.6582 19.8263 18.9613 20.8039 19.4131Z" fill="#262625"/>
</g>
<defs>
<clipPath id="clip0_441_17794">
<rect width="32" height="32" fill="white" transform="translate(2 2)"/>
</clipPath>
</defs>
</svg>
