<svg width="36" height="36" viewBox="0 0 36 36" fill="none" xmlns="http://www.w3.org/2000/svg">
<path d="M24.65 5.67004C27.93 7.79004 32.65 14.42 33.91 18.07C32.64 21.74 27.92 28.34 24.65 30.47V5.67004Z" fill="#262625"/>
<path d="M17.64 10.38C19.35 10.38 21.54 11.06 23.25 12.29V4.82001C21.54 3.76001 19.46 3.13 17.03 3.13C8.76997 3.13 2.08997 9.82 2.08997 18.07C2.08997 26.34 8.76997 33 17.03 33C19.47 33 21.55 32.4 23.25 31.33V23.85C21.54 25.08 19.35 25.78 17.64 25.78C12.99 25.78 9.57997 22.38 9.57997 18.08C9.56997 13.75 12.99 10.38 17.64 10.38Z" fill="#262625"/>
</svg>
