<svg width="36" height="36" viewBox="0 0 36 36" fill="none" xmlns="http://www.w3.org/2000/svg">
<path d="M29.7389 10.1167C26.6389 8.31115 22.4778 7.09448 17.9611 7.09448C13.4444 7.09448 9.32222 8.31115 6.22222 10.1167C3.03889 12 1 14.6334 1 17.2612C1 19.8556 3 22.4445 6.22222 24.3278C9.28333 26.1334 13.4444 27.3112 17.9611 27.3112C22.4778 27.3112 26.6778 26.1334 29.7389 24.3278C32.9611 22.4445 35 19.85 35 17.2612C35 14.5945 32.9611 12 29.7389 10.1167ZM26.1667 12.5889L26.8333 10.9389L27.5778 12.5889L30.8389 13.2556L27.5778 13.9278L26.9111 15.7334L26.1667 13.9278L23.1833 13.2556L26.1667 12.5889ZM25.0278 18.1667L21.7667 18.9111L21.1 20.6389L20.3556 18.8334L17.3722 18.1667L20.3556 17.5L21.0222 15.85L21.7667 17.5L25.0278 18.1667ZM3.16111 15.2612L10.15 13.7667L11.7167 9.76115L13.3667 13.5723L21.0222 15.2612L13.4444 16.8278L11.7944 20.9945L10.15 16.75L3.16111 15.2612ZM15.9611 23.3889L15.2889 25.1556L14.5444 23.3112L11.5611 22.7223L14.5444 22.05L15.2111 20.3223L15.9611 21.9723L19.1778 22.7223L15.9611 23.3889ZM24.5944 22.8L23.85 24.5667L23.1056 22.8L20.2 22.1334L23.1056 21.4611L23.85 19.8167L24.5167 21.3834L27.8556 22.1334L24.5944 22.8ZM29.6611 18.9111L28.9944 20.6389L28.2444 18.8334L25.3444 18.1667L28.2444 17.5L28.9944 15.85L29.6611 17.5L32.9167 18.1667L29.6611 18.9111Z" fill="#262625"/>
</svg>
