<svg width="36" height="36" viewBox="0 0 36 36" fill="none" xmlns="http://www.w3.org/2000/svg">
<g clip-path="url(#clip0_444_18972)">
<path d="M33.671 24.0244C33.671 24.0244 30.7371 24.8757 25.0477 28.3714C19.9404 31.5105 17.9385 33.6201 17.9385 33.6201L2.19922 22.7426C2.19922 22.7426 8.8206 17.8741 14.3552 21.602L21.7774 26.6925L22.6824 26.097L2.19922 11.754C2.19922 11.754 5.14318 10.9028 10.8326 7.40705C15.9433 4.26459 17.9385 2.15503 17.9385 2.15503L33.6844 13.0325C33.6844 13.0325 27.0631 17.9044 21.5284 14.1731L14.1063 9.07922L13.2012 9.67474L33.671 24.0244Z" fill="#262625"/>
</g>
<defs>
<clipPath id="clip0_444_18972">
<rect width="32" height="32" fill="white" transform="translate(2 2)"/>
</clipPath>
</defs>
</svg>
