<svg width="36" height="36" viewBox="0 0 36 36" fill="none" xmlns="http://www.w3.org/2000/svg">
<path d="M15.032 17.424C15.2893 15.6613 15.256 14.74 12.6747 14.8827C9.71067 15.048 6.70667 15.236 2.20933 16.252C2.07124 16.8245 2.00098 17.4112 2 18C2 20.0267 2.824 21.9867 4.38267 23.672C5.796 25.1973 7.79067 26.4653 10.1507 27.3413C11.027 27.6631 11.9242 27.925 12.836 28.1253C13.0093 27.4227 14.1147 22.916 14.9907 17.6947L15.0307 17.4253M33.7907 16.252C29.2947 15.236 26.292 15.0493 23.3293 14.884C20.7467 14.7413 20.7133 15.6627 20.972 17.4253L21.0333 17.8227C21.9 22.9533 22.9773 27.3693 23.164 28.116C29.46 26.6773 34 22.688 34 18C34 17.4093 33.928 16.8267 33.7907 16.252ZM33.136 14.4867C32.7316 13.7007 32.2201 12.9747 31.616 12.3293C30.2027 10.804 28.2093 9.53601 25.8493 8.66001C23.4707 7.77734 20.756 7.31201 18 7.31201C15.2427 7.31201 12.5293 7.77868 10.1507 8.65868C7.79067 9.53601 5.796 10.8053 4.38267 12.3293C3.77907 12.9752 3.26798 13.7017 2.864 14.488C5.936 13.7453 11.1907 12.764 16.0693 12.6613C16.54 12.6507 16.864 12.8013 17.0773 13.0707C17.3387 13.4013 17.3173 14.5747 17.3107 15.1L17.172 28.6733C17.7247 28.6919 18.2779 28.6919 18.8307 28.6733L18.692 15.1C18.6853 14.5747 18.6653 13.4013 18.9253 13.0707C19.1387 12.8013 19.4627 12.6507 19.9333 12.66C24.8107 12.764 30.0627 13.744 33.136 14.4867Z" fill="#262625"/>
</svg>
