<svg width="36" height="36" viewBox="0 0 36 36" fill="none" xmlns="http://www.w3.org/2000/svg">
<g clip-path="url(#clip0_826_2036)">
<path d="M18.0015 33.8015L22.4415 8.83148C26.6715 8.83148 28.0115 9.30148 28.2015 11.1915C28.2015 11.1915 31.0415 10.1315 32.4715 7.98148C26.8815 5.39148 21.2715 5.27148 21.2715 5.27148L17.9915 9.26148H18.0015L14.7215 5.27148C14.7215 5.27148 9.11148 5.39148 3.52148 7.98148C4.95148 10.1315 7.79148 11.1915 7.79148 11.1915C7.99148 9.30148 9.32148 8.83148 13.5215 8.83148L18.0015 33.8015Z" fill="#262625"/>
<path d="M18.0028 4.12117C22.5228 4.08117 27.6828 4.82117 32.9828 7.13117C33.6928 5.86117 33.8728 5.29117 33.8728 5.29117C28.8228 3.28117 23.4428 2.23117 18.0028 2.20117C12.5628 2.23117 7.18281 3.28117 2.13281 5.29117C2.39281 5.92117 2.68281 6.53117 3.02281 7.13117C8.31281 4.82117 13.4828 4.09117 18.0028 4.12117Z" fill="#262625"/>
</g>
<defs>
<clipPath id="clip0_826_2036">
<rect width="32" height="32" fill="white" transform="translate(2 2)"/>
</clipPath>
</defs>
</svg>
