<svg width="36" height="36" viewBox="0 0 36 36" fill="none" xmlns="http://www.w3.org/2000/svg">
<path d="M17.9555 7.17969C8.68619 7.17969 1.12305 12.0191 1.12305 17.9567C1.12305 23.8943 8.68619 28.7337 17.9555 28.7337C27.2249 28.7337 34.788 23.8943 34.788 17.9567C34.788 12.0191 27.2249 7.17969 17.9555 7.17969ZM22.615 9.1775C24.1041 9.4629 25.5001 9.8848 26.7533 10.4184C27.8329 10.9768 28.4657 11.6344 28.4657 12.3479C28.4657 13.7874 25.8847 15.0344 22.1993 15.5804C21.9449 12.8009 21.2625 10.4246 20.3442 8.90451C21.1384 8.96655 21.8953 9.05961 22.615 9.1775ZM17.9555 8.81144C19.3515 8.81144 20.5241 11.7709 20.853 15.7479C19.9285 15.8348 18.9606 15.8844 17.9555 15.8844C16.9504 15.8844 15.9763 15.8348 15.0581 15.7479C15.3869 11.7647 16.5657 8.81144 17.9555 8.81144ZM9.15772 10.4184C10.411 9.8848 11.807 9.4691 13.296 9.1775C14.0095 9.05961 14.7727 8.96655 15.5668 8.90451C14.6486 10.4246 13.9661 12.8071 13.7117 15.5804C10.0263 15.0282 7.44531 13.7874 7.44531 12.3479C7.44531 11.6344 8.07816 10.9706 9.15772 10.4184ZM2.6183 17.9567C2.6183 15.7914 3.87159 13.7998 5.96246 12.2238C5.95626 12.2983 5.95005 12.3728 5.95005 12.4472C5.95005 14.5629 9.13911 16.3808 13.6187 17.1067C13.6063 17.4107 13.6063 17.7147 13.6063 18.0249C13.6063 21.7724 14.3632 25.0855 15.5172 27.0523C8.22086 26.3512 2.6183 22.5355 2.6183 17.9567ZM18.3278 27.1702C18.2037 27.1702 18.0796 27.1702 17.9555 27.1702C17.8314 27.1702 17.7074 27.1702 17.5833 27.1702C16.1066 26.6056 14.9588 22.7155 14.9588 18.0249C14.9588 17.7768 14.965 17.5348 14.9712 17.2928C15.9267 17.3921 16.9256 17.4479 17.9555 17.4479C18.9855 17.4479 19.9844 17.3921 20.9398 17.2928C20.946 17.5348 20.9522 17.783 20.9522 18.0249C20.946 22.7155 19.7982 26.6056 18.3278 27.1702ZM20.3939 27.0585C21.5479 25.0917 22.3048 21.7786 22.3048 18.0311C22.3048 17.7209 22.2986 17.4169 22.2924 17.1129C26.772 16.387 29.961 14.5691 29.961 12.4534C29.961 12.379 29.9548 12.3045 29.9486 12.2301C32.0395 13.806 33.2928 15.7976 33.2928 17.9629C33.2928 22.5355 27.6902 26.3512 20.3939 27.0585Z" fill="#262625"/>
</svg>
