<svg width="36" height="36" viewBox="0 0 36 36" fill="none" xmlns="http://www.w3.org/2000/svg">
<g clip-path="url(#clip0_675_6722)">
<g clip-path="url(#clip1_675_6722)">
<mask id="mask0_675_6722" style="mask-type:luminance" maskUnits="userSpaceOnUse" x="1" y="1" width="19" height="19">
<path fill-rule="evenodd" clip-rule="evenodd" d="M1.75 1.75H19.75V19.75H1.75V1.75Z" fill="white"/>
</mask>
<g mask="url(#mask0_675_6722)">
<path fill-rule="evenodd" clip-rule="evenodd" d="M3.24854 15.2165L8.56528 16.4886V13.503H3.29648C3.28067 14.0742 3.26434 14.6453 3.24854 15.2165Z" fill="#262625"/>
<path fill-rule="evenodd" clip-rule="evenodd" d="M16.3286 14.2665C16.7602 14.4816 17.1918 14.6968 17.7864 14.9255C16.7463 18.1254 11.0251 20.2482 7.04494 18.2922L8.47604 17.1357C7.13531 15.9494 7.48946 14.0214 7.86289 12.9699L7.1251 12.933C7.10785 12.9287 7.09135 12.9257 7.07603 12.9229C6.98155 12.9057 6.93151 12.8965 7.02404 12.6378L7.76184 11.0608C7.90096 10.7341 8.09221 10.6006 8.34243 10.4961L8.86406 10.2911C9.02988 10.2178 9.04211 10.0909 8.87043 10.0905L8.54454 10.0838C8.38934 10.0814 8.28416 10.0353 8.39124 9.84544C8.47964 9.702 8.55762 9.56066 8.63561 9.41931C8.79147 9.1368 8.94733 8.85429 9.1864 8.55513C9.29216 8.3903 9.36043 8.30667 9.55357 8.19805L10.0456 8.04363C10.1806 7.99502 10.3592 7.84021 10.1132 7.84156L9.89187 7.80409C9.87803 7.80176 9.86355 7.79996 9.84909 7.79817C9.75318 7.7863 9.65801 7.77451 9.75619 7.6071C10.3039 6.70239 10.8017 6.12871 12.0926 5.92354L13.8162 4.30505L13.6025 5.80392C14.0732 5.80517 14.4904 5.84462 14.9458 5.93753C15.4166 6.05233 15.9255 6.23589 15.793 6.93121L16.5105 7.12463C17.2057 7.30603 17.3969 7.68603 17.3437 8.39446C17.325 8.61777 17.2766 8.77693 17.2225 8.95522C17.2093 8.99876 17.1957 9.04344 17.1821 9.09047C17.0461 9.43999 17.0055 9.31231 16.9707 9.20295C16.9661 9.18855 16.9616 9.17447 16.9571 9.16184C16.7595 8.55672 16.3889 8.58155 15.1732 8.66298C15.1119 8.66709 15.0484 8.67134 14.9827 8.67567C14.7748 8.67774 14.5746 8.76384 14.9013 8.86521L15.447 8.94923C15.8169 9.01536 15.9805 9.12733 16.0602 9.33857C16.1226 9.45351 16.0857 9.53028 15.9419 9.53832C15.7988 9.54748 15.6548 9.55581 15.5108 9.56413C15.2219 9.58085 14.9329 9.59756 14.6507 9.62105C14.6323 9.62479 14.6141 9.62834 14.596 9.63185C14.3151 9.68638 14.0759 9.73283 14.1063 10.3794C14.1173 11.0627 14.1283 11.4862 14.2309 12.2612C14.3715 13.1855 15.0237 13.6516 15.6607 13.942C15.8969 14.0513 16.1128 14.1589 16.3286 14.2665ZM14.4897 6.8639C14.3868 6.84413 14.3336 6.83391 14.253 6.89469L14.0558 7.02793C13.9628 7.10325 14.0197 7.14128 14.1139 7.17932L14.7427 7.36077C14.8489 7.40796 14.9737 7.39921 15.0799 7.29726L15.2713 7.05229C15.3153 7.0066 15.3032 6.9609 15.1787 6.95249L14.511 6.86797C14.5037 6.86658 14.4966 6.86522 14.4897 6.8639Z" fill="#262625"/>
<path fill-rule="evenodd" clip-rule="evenodd" d="M4.6208 13.4939C3.82984 13.5019 3.12316 13.1476 2.89832 12.8657L3.13923 14.1461L4.6208 13.4939Z" fill="#262625"/>
<path fill-rule="evenodd" clip-rule="evenodd" d="M1.75592 10.7471C1.75592 5.77815 5.78281 1.75 10.7502 1.75C15.7175 1.75 19.7444 5.77815 19.7444 10.7471C19.7444 15.7161 15.7175 19.7443 10.7502 19.7443C5.78281 19.7443 1.75592 15.7161 1.75592 10.7471ZM2.61292 10.7471C2.61292 15.2428 6.25609 18.8873 10.7502 18.8873C15.2443 18.8873 18.8874 15.2428 18.8874 10.7471C18.8874 6.25144 15.2443 2.60697 10.7502 2.60697C6.25609 2.60697 2.61292 6.25144 2.61292 10.7471Z" fill="#262625"/>
<path fill-rule="evenodd" clip-rule="evenodd" d="M5.5108 10.6323L8.17681 5.94766L9.06326 5.94141C9.1882 5.94141 9.21323 6.03518 9.15697 6.12894L6.72079 10.4048C6.60148 10.6075 6.57243 10.6298 6.29603 10.6298L5.5108 10.6323Z" fill="#262625"/>
<path fill-rule="evenodd" clip-rule="evenodd" d="M5.28918 9.07623L4.78173 6.86872C4.74895 6.73218 4.75394 6.70942 4.61511 6.70942L5.42554 6.57288L6.751 6.70183C6.68284 6.69678 6.60711 6.75241 6.56922 6.82321L5.28918 9.07623Z" fill="#262625"/>
<path d="M8.56531 5.94714H3.29449V6.70504H8.56531V5.94714Z" fill="#262625"/>
<path d="M6.2629 9.88013H1.93945V10.6323H6.2629V9.88013Z" fill="#262625"/>
<path fill-rule="evenodd" clip-rule="evenodd" d="M5.85529 9.98923L7.76093 6.6189H8.1633L6.25766 9.98923H5.85529Z" fill="#262625"/>
<path fill-rule="evenodd" clip-rule="evenodd" d="M3.65804 6.62649L4.42558 9.94554L2.10022 9.98349L2.51815 8.09993L3.0349 6.6189L3.65804 6.62649Z" fill="#262625"/>
<path fill-rule="evenodd" clip-rule="evenodd" d="M4.41411 5.96193C4.29394 5.9727 4.22877 5.85755 4.32489 5.76331L4.10406 5.97L4.41411 5.96193Z" fill="#262625"/>
<path fill-rule="evenodd" clip-rule="evenodd" d="M2.60744 10.8333C2.59556 10.7363 2.60595 10.6668 2.72612 10.6337L2.42181 10.6266C2.50036 10.681 2.47177 10.7789 2.60744 10.8333Z" fill="#262625"/>
</g>
</g>
<path d="M23.987 33.5342C19.8625 33.5342 16.4416 30.1147 16.4416 25.9918C16.4416 25.7774 16.4514 25.565 16.4696 25.3548L22.783 25.7486L20.0523 27.6344C20.0153 27.6604 19.991 27.7033 19.991 27.7517C19.991 27.8306 20.0551 27.8947 20.1341 27.8947H31.2835C30.4262 31.1158 27.4555 33.5342 23.987 33.5342ZM23.987 18.4491C28.1115 18.4491 31.5325 21.8689 31.5325 25.9918C31.5325 26.2045 31.5231 26.4155 31.505 26.6243L25.1977 26.2235L27.9346 24.3489C27.9718 24.3229 27.9959 24.2801 27.9959 24.2316C27.9959 24.1527 27.9321 24.0886 27.8534 24.0886H16.6905C17.5481 20.8675 20.5185 18.4491 23.987 18.4491ZM34.8086 26.8342L32.7443 26.703C32.7631 26.4684 32.7731 26.2311 32.7731 25.9918C32.7731 21.1412 28.8395 17.2092 23.987 17.2092C19.7886 17.2092 16.2783 20.1533 15.4087 24.0886H13.7875C13.6814 24.0886 13.5865 24.139 13.5263 24.2174L13.0439 24.8832C13.0221 24.9112 13.0092 24.9462 13.0092 24.9842C13.0092 25.0755 13.0828 25.1491 13.1741 25.1491L15.2303 25.2773C15.2113 25.5129 15.2012 25.7511 15.2012 25.9918C15.2012 30.8421 19.1348 34.7741 23.987 34.7741C28.1855 34.7741 31.6957 31.8301 32.5656 27.8947H34.1949C34.3013 27.8947 34.3959 27.8443 34.4561 27.766L34.9388 27.1001C34.9605 27.0721 34.9735 27.0371 34.9735 26.9991C34.9735 26.9078 34.8996 26.8342 34.8086 26.8342Z" fill="#262625"/>
</g>
<defs>
<clipPath id="clip0_675_6722">
<rect width="36" height="36" fill="white"/>
</clipPath>
<clipPath id="clip1_675_6722">
<rect width="18" height="18" fill="white" transform="translate(1.75 1.75)"/>
</clipPath>
</defs>
</svg>
