<svg width="36" height="36" viewBox="0 0 36 36" fill="none" xmlns="http://www.w3.org/2000/svg">
<g clip-path="url(#clip0_440_17751)">
<mask id="mask0_440_17751" style="mask-type:luminance" maskUnits="userSpaceOnUse" x="3" y="3" width="31" height="31">
<path fill-rule="evenodd" clip-rule="evenodd" d="M3 3H34V34H3V3Z" fill="white"/>
</mask>
<g mask="url(#mask0_440_17751)">
<path fill-rule="evenodd" clip-rule="evenodd" d="M5.58087 26.1924L14.7375 28.3834V23.2415H5.66345C5.63622 24.2251 5.60809 25.2088 5.58087 26.1924Z" fill="#262625"/>
<path fill-rule="evenodd" clip-rule="evenodd" d="M28.1076 24.5562C28.851 24.9267 29.5943 25.2973 30.6182 25.6912C28.827 31.2021 18.9738 34.8581 12.1191 31.4894L14.5837 29.4976C12.2747 27.4545 12.8846 24.1341 13.5278 22.3232L12.2571 22.2596C12.2274 22.2522 12.199 22.247 12.1726 22.2422C12.0099 22.2125 11.9237 22.1968 12.0831 21.7513L13.3537 19.0353C13.5933 18.4727 13.9227 18.2428 14.3536 18.0627L15.252 17.7097C15.5376 17.5835 15.5586 17.3649 15.263 17.3643L14.7017 17.3527C14.4344 17.3485 14.2533 17.2691 14.4377 16.9422C14.5899 16.6951 14.7243 16.4517 14.8586 16.2083C15.127 15.7217 15.3954 15.2352 15.8071 14.72C15.9893 14.4361 16.1069 14.2921 16.4395 14.105L17.2869 13.8391C17.5193 13.7553 17.8269 13.4887 17.4033 13.491L17.0221 13.4265C16.9983 13.4225 16.9733 13.4194 16.9484 13.4163C16.7833 13.3959 16.6194 13.3756 16.7885 13.0872C17.7318 11.5291 18.5891 10.5411 20.8122 10.1878L23.7807 7.40039L23.4127 9.98177C24.2232 9.98392 24.9418 10.0519 25.7261 10.2119C26.5369 10.4096 27.4134 10.7257 27.1852 11.9232L28.4208 12.2563C29.6181 12.5687 29.9474 13.2232 29.8558 14.4433C29.8236 14.8278 29.7403 15.1019 29.6471 15.409C29.6243 15.484 29.6009 15.5609 29.5776 15.6419C29.3433 16.2439 29.2733 16.024 29.2134 15.8357C29.2055 15.8109 29.1978 15.7866 29.1899 15.7649C28.8496 14.7227 28.2114 14.7655 26.1178 14.9057C26.0122 14.9128 25.9028 14.9201 25.7896 14.9276C25.4317 14.9311 25.0869 15.0794 25.6495 15.254L26.5893 15.3987C27.2263 15.5126 27.5081 15.7054 27.6453 16.0692C27.7528 16.2672 27.6892 16.3994 27.4416 16.4132C27.1951 16.429 26.9472 16.4434 26.6992 16.4577C26.2016 16.4865 25.7039 16.5153 25.2179 16.5557C25.1863 16.5622 25.1548 16.5683 25.1237 16.5743C24.6399 16.6682 24.228 16.7482 24.2803 17.8617C24.2993 19.0385 24.3181 19.768 24.495 21.1026C24.7371 22.6945 25.8603 23.4972 26.9573 23.9973C27.3642 24.1855 27.7359 24.3708 28.1076 24.5562ZM24.9406 11.8073C24.7633 11.7733 24.6717 11.7557 24.5329 11.8603L24.1933 12.0898C24.0331 12.2195 24.131 12.285 24.2933 12.3505L25.3763 12.663C25.5591 12.7443 25.7742 12.7292 25.957 12.5536L26.2867 12.1317C26.3624 12.0531 26.3416 11.9744 26.1271 11.9599L24.9773 11.8143C24.9646 11.8119 24.9524 11.8096 24.9406 11.8073Z" fill="#262625"/>
<path fill-rule="evenodd" clip-rule="evenodd" d="M7.94417 23.2256C6.58195 23.2394 5.36489 22.6292 4.97766 22.1438L5.39258 24.3489L7.94417 23.2256Z" fill="#262625"/>
<path fill-rule="evenodd" clip-rule="evenodd" d="M3.00989 18.4951C3.00989 9.93737 9.94509 3 18.5 3C27.0549 3 33.9901 9.93737 33.9901 18.4951C33.9901 27.0527 27.0549 33.9901 18.5 33.9901C9.94509 33.9901 3.00989 27.0527 3.00989 18.4951ZM4.48582 18.4951C4.48582 26.2376 10.7602 32.5142 18.5 32.5142C26.2398 32.5142 32.5142 26.2376 32.5142 18.4951C32.5142 10.7525 26.2398 4.4759 18.5 4.4759C10.7602 4.4759 4.48582 10.7525 4.48582 18.4951Z" fill="#262625"/>
<path fill-rule="evenodd" clip-rule="evenodd" d="M9.47687 18.2973L14.0683 10.2293L15.595 10.2185C15.8102 10.2185 15.8533 10.38 15.7564 10.5415L11.5607 17.9054C11.3553 18.2546 11.3052 18.293 10.8292 18.293L9.47687 18.2973Z" fill="#262625"/>
<path fill-rule="evenodd" clip-rule="evenodd" d="M9.09522 15.6176L8.22129 11.8158C8.16482 11.5806 8.17343 11.5414 7.93433 11.5414L9.33007 11.3063L11.6128 11.5284C11.4954 11.5197 11.365 11.6155 11.2997 11.7374L9.09522 15.6176Z" fill="#262625"/>
<path d="M14.7375 10.2284H5.65997V11.5337H14.7375V10.2284Z" fill="#262625"/>
<path d="M10.7722 17.002H3.32629V18.2973H10.7722V17.002Z" fill="#262625"/>
<path fill-rule="evenodd" clip-rule="evenodd" d="M10.0702 17.1897L13.3521 11.3853H14.0451L10.7632 17.1897H10.0702Z" fill="#262625"/>
<path fill-rule="evenodd" clip-rule="evenodd" d="M6.28612 11.3983L7.60799 17.1145L3.60321 17.1798L4.32298 13.9359L5.21294 11.3853L6.28612 11.3983Z" fill="#262625"/>
<path fill-rule="evenodd" clip-rule="evenodd" d="M7.58817 10.2541C7.38121 10.2726 7.26897 10.0743 7.43451 9.91199L7.0542 10.268L7.58817 10.2541Z" fill="#262625"/>
<path fill-rule="evenodd" clip-rule="evenodd" d="M4.47661 18.6435C4.45614 18.4764 4.47404 18.3567 4.681 18.2997L4.15692 18.2875C4.29219 18.3812 4.24295 18.5497 4.47661 18.6435Z" fill="#262625"/>
</g>
</g>
<defs>
<clipPath id="clip0_440_17751">
<rect width="31" height="31" fill="white" transform="translate(3 3)"/>
</clipPath>
</defs>
</svg>
