<svg width="36" height="36" viewBox="0 0 36 36" fill="none" xmlns="http://www.w3.org/2000/svg">
<g clip-path="url(#clip0_821_1913)">
<path d="M17.9859 1.24023C8.75364 1.24023 1.22461 8.76927 1.22461 18.0015C1.22461 27.2338 8.75364 34.7628 17.9859 34.7628C27.2182 34.7628 34.7472 27.2338 34.7472 18.0015C34.7407 8.76927 27.2117 1.24023 17.9859 1.24023ZM17.9859 32.8273C9.81816 32.8273 3.16009 26.1693 3.16009 18.0015C3.16009 9.83378 9.81816 3.17572 17.9859 3.17572C26.1536 3.17572 32.8117 9.83378 32.8117 18.0015C32.8117 26.1693 26.1472 32.8273 17.9859 32.8273Z" fill="#262625"/>
<path d="M13.1868 29.3297C8.78037 27.4523 5.68359 23.0781 5.68359 18.0007C5.68359 16.7104 5.88359 15.4652 6.25779 14.291L13.1868 29.3297Z" fill="#262625"/>
<path d="M21.3987 29.8213C20.3148 30.1374 19.1664 30.3051 17.9793 30.3051C16.7922 30.3051 15.6503 30.1374 14.5664 29.8213L17.9793 21.8535L21.3987 29.8213Z" fill="#262625"/>
<path d="M29.7142 14.2988C30.0884 15.4666 30.2884 16.7117 30.2884 18.0021C30.2884 23.0795 27.1852 27.4537 22.7852 29.3246L29.7142 14.2988Z" fill="#262625"/>
<path d="M24.1856 7.38281C25.6888 8.26668 26.9856 9.45378 27.9985 10.8667L21.8694 23.8925L19.8049 18.9183H16.1662L14.1017 23.8925L7.97266 10.8667C8.98556 9.45378 10.2823 8.26023 11.7856 7.38281L16.0823 17.4151H19.8888L24.1856 7.38281Z" fill="#262625"/>
<path d="M17.986 5.69922C19.186 5.69922 20.3537 5.87341 21.4505 6.19599L17.986 14.5379L14.5215 6.19599C15.6183 5.87341 16.7795 5.69922 17.986 5.69922Z" fill="#262625"/>
</g>
<defs>
<clipPath id="clip0_821_1913">
<rect width="34" height="34" fill="white" transform="translate(1 1)"/>
</clipPath>
</defs>
</svg>
