<svg width="36" height="36" viewBox="0 0 36 36" fill="none" xmlns="http://www.w3.org/2000/svg">
<g clip-path="url(#clip0_831_2124)">
<path d="M29.228 9.6L29.9 8.928C30.376 9.544 30.768 10.216 31.188 10.916H31.72V4.308H25.084V4.84C25.784 5.204 26.4 5.624 27.016 6.128L26.344 6.8C24.02 5.008 21.136 4 18 4C10.244 4 4 10.244 4 18C4 25.756 10.244 32 18 32C25.756 32 32 25.756 32 18C32 14.836 30.936 11.924 29.228 9.6ZM28.22 20.52C27.072 25.084 22.928 28.528 18 28.528C13.072 28.528 8.9 25.14 7.78 20.52H28.22ZM7.752 15.452C8.9 10.86 13.044 7.444 17.972 7.444C22.9 7.444 27.072 10.832 28.192 15.452H7.752ZM25.476 17.944C25.476 17.468 25.728 17.02 26.148 17.02C26.54 17.02 26.764 17.468 26.764 18C26.764 18.476 26.54 18.98 26.092 18.98C25.644 18.924 25.476 18.448 25.476 17.944ZM13.856 17.944C13.856 17.468 14.108 17.02 14.528 17.02C14.92 17.02 15.144 17.468 15.144 18C15.144 18.476 14.92 18.98 14.472 18.98C14.024 18.924 13.856 18.448 13.856 17.944ZM14.528 16.6C15.76 16.6 16.376 17.216 16.376 17.972C16.376 18.728 15.76 19.344 14.528 19.344C13.296 19.344 12.68 18.7 12.68 17.944C12.68 17.188 13.296 16.6 14.528 16.6ZM10.748 18.672L11.616 17.048H11.084V16.656H12.876V17.048H12.26L11.084 19.26H9.684L8.452 17.048H7.836V16.656H10.468V17.048H9.852L10.748 18.672ZM26.148 16.6C27.38 16.6 27.996 17.216 27.996 17.972C27.996 18.728 27.38 19.344 26.148 19.344C24.916 19.344 24.3 18.728 24.3 17.972C24.3 17.216 24.916 16.6 26.148 16.6ZM20.1 17.076H19.484V16.684H22.116V17.076H21.5L22.368 18.7L23.236 17.076H22.76V16.684H24.552V17.076H23.936L22.76 19.288H21.36C21.332 19.288 20.1 17.076 20.1 17.076ZM17.104 17.076H16.488V16.684H18.896V17.076H18.28V18.868H18.84C19.372 18.868 19.68 18.504 19.68 18.084H20.072V19.316H16.488V18.924H17.104V17.076Z" fill="#262625"/>
</g>
<defs>
<clipPath id="clip0_831_2124">
<rect width="28" height="28" fill="white" transform="translate(4 4)"/>
</clipPath>
</defs>
</svg>
