<svg width="36" height="36" viewBox="0 0 36 36" fill="none" xmlns="http://www.w3.org/2000/svg">
<g clip-path="url(#clip0_445_18998)">
<path d="M28.9999 6.34993V2.07177C28.9999 2.0573 28.9958 2.04302 28.9878 2.03112C28.98 2.01922 28.9688 2.0099 28.9559 2.00474C28.9428 1.99959 28.9286 1.99859 28.9151 2.00197C28.9016 2.00534 28.8893 2.01307 28.88 2.02378L21.287 10.8599C20.7429 11.493 20.4316 12.3073 20.4084 13.1578L19.9418 30.1899C19.9414 30.206 19.946 30.2217 19.9551 30.2346C19.9642 30.2475 19.9771 30.2568 19.9917 30.2611C20.0065 30.2655 20.0221 30.2647 20.0363 30.2586C20.0505 30.2526 20.0623 30.2419 20.0699 30.228L21.0173 28.5116C21.1287 28.3099 21.2014 28.0876 21.2316 27.8567L22.5855 17.4816C22.7824 15.9726 23.4331 14.5679 24.4435 13.4704L27.5587 10.0867C28.4832 9.08257 28.9996 7.74332 28.9996 6.34993H28.9999Z" fill="#262625"/>
<path d="M7 6.35005V2.0719C7 2.05742 7.00417 2.04314 7.01214 2.03124C7.01992 2.01934 7.03112 2.01002 7.04421 2.00486C7.05712 1.99971 7.07135 1.99872 7.08482 2.00209C7.09829 2.00546 7.11063 2.01319 7.11993 2.0239L14.713 10.86C15.257 11.4931 15.5684 12.3074 15.5915 13.158L16.0581 30.1901C16.0585 30.2061 16.054 30.2218 16.0449 30.2347C16.0358 30.2476 16.0228 30.2569 16.0082 30.2613C15.9934 30.2656 15.9779 30.2648 15.9636 30.2587C15.9494 30.2527 15.9376 30.242 15.9301 30.2281L14.9826 28.5117C14.8712 28.31 14.7985 28.0877 14.7684 27.8568L13.4143 17.4817C13.2173 15.9727 12.5667 14.568 11.5562 13.4705L8.441 10.0868C7.51632 9.08289 7 7.74364 7 6.35005Z" fill="#262625"/>
<path d="M18.9758 11.6174L18.09 10.8156C18.065 10.793 18.0331 10.7805 18.0001 10.7805C17.9671 10.7805 17.935 10.793 17.9102 10.8156L17.0246 11.6174C16.9475 11.6872 16.8864 11.7739 16.8453 11.8713C16.8043 11.9688 16.7845 12.0746 16.7874 12.1811L17.3811 33.8649C17.3828 33.9244 17.3986 33.9827 17.427 34.0343L17.9405 34.9638C17.9466 34.9749 17.9553 34.9839 17.9658 34.9902C17.9762 34.9965 17.9881 34.9999 18.0001 34.9999C18.0121 34.9999 18.024 34.9965 18.0344 34.9902C18.0449 34.9839 18.0536 34.9749 18.0597 34.9638L18.5735 34.0339C18.602 33.9823 18.6178 33.924 18.6195 33.8645L19.2132 12.1811C19.2161 12.0746 19.1963 11.9688 19.1553 11.8713C19.1143 11.7737 19.0531 11.687 18.976 11.6172L18.9758 11.6174Z" fill="#262625"/>
</g>
<defs>
<clipPath id="clip0_445_18998">
<rect width="22" height="33" fill="white" transform="translate(7 2)"/>
</clipPath>
</defs>
</svg>
