<svg width="36" height="36" viewBox="0 0 36 36" fill="none" xmlns="http://www.w3.org/2000/svg">
<g clip-path="url(#clip0_820_1896)">
<path d="M18.924 8.63124C20.7094 8.67216 22.175 8.6989 23.7268 8.88668C25.5115 9.10264 26.3734 12.332 26.949 13.8776C27.0132 14.05 27.2067 14.2577 27.3301 14.3917C27.6338 14.7213 28.0654 15.3656 28.4245 15.7258C28.5345 15.8362 28.6702 15.901 28.8051 15.9693C29.1912 16.1647 29.4541 16.8837 29.5921 17.3092C29.6877 17.604 29.7754 17.8991 29.8305 18.2044C29.875 18.4504 29.9078 18.7822 29.9318 19.1146C29.9842 19.8415 29.8351 21.0027 29.6413 21.7055L29.5317 22.1028C29.4643 22.3475 29.3114 22.5599 29.1008 22.702L28.0981 23.3781L27.226 23.9661C26.9242 24.1696 26.5851 24.3117 26.2282 24.3841L25.3369 24.5651C24.5835 24.7181 23.8167 24.7961 23.0479 24.798L19.0626 24.8075C18.0954 24.8099 17.1282 24.8099 16.161 24.8075L12.1756 24.798C11.4068 24.7962 10.64 24.7181 9.88663 24.5651L8.99527 24.3841C8.63837 24.3117 8.29931 24.1696 7.99753 23.9661L7.1255 23.3781L6.12269 22.702C5.91208 22.5599 5.75926 22.3475 5.69179 22.1028L5.5823 21.7055C5.3885 21.0027 5.2393 19.8415 5.29175 19.1146C5.31565 18.7822 5.34854 18.4504 5.39295 18.2044C5.44809 17.8991 5.53582 17.604 5.63141 17.3092C5.76935 16.8837 6.03238 16.1647 6.41836 15.9693C6.55328 15.901 6.68897 15.8362 6.79906 15.7258C7.15809 15.3656 7.58972 14.7213 7.89341 14.3917C8.01681 14.2577 8.21035 14.05 8.27457 13.8776C8.85004 12.332 9.71201 9.10264 11.4967 8.88668C13.0486 8.69889 14.5141 8.67213 16.2997 8.63124C17.0244 8.61463 18.1992 8.61463 18.924 8.63124ZM16.5387 7.11922C14.7434 7.15178 13.5281 7.17315 11.1689 7.41799C8.5746 7.68831 7.60473 11.3596 7.0184 12.9604C6.95512 13.1332 6.76629 13.3471 6.64465 13.483C6.31303 13.8518 5.93582 14.4808 5.78615 14.5806C5.62591 14.686 5.2598 14.9349 4.92328 15.3264C4.63472 15.6661 4.32769 16.3319 4.20197 16.7606C4.05425 17.264 3.92648 17.8573 3.84751 18.352C3.80818 18.6043 3.7764 18.9414 3.75158 19.2773C3.69811 20.0038 3.84035 21.1629 4.03728 21.864L4.21225 22.5111C4.28186 22.7589 4.41502 22.9842 4.59863 23.1648L6.47359 25.0081L8.09599 25.6603C8.43517 25.7956 8.78948 25.8916 9.15165 25.9462L10.5047 26.1624C11.2652 26.2771 12.0336 26.3355 12.8032 26.3369L16.5583 26.3443C17.2605 26.3457 17.9628 26.3457 18.6651 26.3443L22.4202 26.3369C23.1898 26.3355 23.9582 26.2771 24.7186 26.1624L26.0718 25.9462C26.4339 25.8916 26.7882 25.7956 27.1274 25.6603L28.7498 25.0081L30.6248 23.1648C30.8084 22.9842 30.9416 22.7589 31.0111 22.5111L31.186 21.864C31.3831 21.1629 31.5253 20.0038 31.4718 19.2773C31.447 18.9414 31.4152 18.6043 31.3759 18.352C31.2969 17.8573 31.1691 17.264 31.0214 16.7606C30.8956 16.3318 30.5887 15.6661 30.3001 15.3264C29.9636 14.9349 29.5975 14.6859 29.4373 14.5806C29.2875 14.4808 28.9104 13.8518 28.5787 13.483C28.4571 13.3471 28.2682 13.1332 28.205 12.9604C27.6187 11.3596 26.6487 7.68831 24.0544 7.41799C21.6952 7.17314 20.4798 7.16168 18.6846 7.11922C18.092 7.10443 17.0913 7.10787 16.5387 7.11922ZM11.4634 19.0624C11.3041 19.0602 11.1739 19.1887 11.1739 19.3477V20.8613C11.1739 21.0393 11.3168 21.1847 11.4951 21.1884L15.875 21.2803C17.0326 21.3047 18.1905 21.3047 19.348 21.2803L23.7285 21.1884C23.9068 21.1847 24.0498 21.0393 24.0498 20.8613V19.3477C24.0498 19.1887 23.919 19.0602 23.7597 19.0624L19.001 19.1266C18.0748 19.1391 17.1484 19.1391 16.2222 19.1266L11.4634 19.0624ZM9.2713 25.8933L9.67623 26.9279C9.69275 26.9704 9.72704 27.0031 9.77014 27.018L9.87422 27.0545C9.91885 27.07 9.95208 27.108 9.96154 27.1542L9.99563 27.319C10.0088 27.3839 10.0656 27.4306 10.132 27.4312L10.9 27.439C10.926 27.4392 10.9492 27.4227 10.9568 27.3978L10.9897 27.2891C11.0069 27.2329 11.0567 27.1929 11.1153 27.1882L12.0927 27.1119C12.181 27.1049 12.2652 27.1513 12.3068 27.2295L12.4791 27.5524C12.553 27.6913 12.6977 27.7782 12.8553 27.7775L17.2742 27.7587C17.4992 27.7577 17.7241 27.7577 17.9488 27.7587L22.3684 27.7775C22.526 27.7781 22.6707 27.6913 22.7446 27.5524L22.917 27.2295C22.9585 27.1513 23.0427 27.1049 23.131 27.1119L24.1084 27.1882C24.1671 27.1929 24.2169 27.2329 24.2341 27.2891L24.267 27.3978C24.2746 27.4227 24.2977 27.4392 24.3237 27.439L25.0917 27.4312C25.1581 27.4306 25.2148 27.3839 25.2282 27.319L25.2622 27.1542C25.2717 27.108 25.3044 27.07 25.3489 27.0545L25.4536 27.018C25.4967 27.0031 25.5309 26.9704 25.5475 26.9279L25.9525 25.8933L24.8973 26.0508C24.3339 26.1351 23.7654 26.1786 23.1956 26.1816L17.9228 26.2092C17.7152 26.2103 17.5077 26.2103 17.3004 26.2092L12.0281 26.1816C11.4583 26.1785 10.8892 26.1351 10.3258 26.0508L9.2713 25.8933ZM6.85375 13.3301L6.37203 13.2523L6.65954 12.5061C6.70148 12.3972 6.68926 12.2749 6.62683 12.1764L6.54691 12.0504C6.49154 11.9631 6.39274 11.9132 6.28953 11.9202L5.17735 11.9962C4.93417 12.0129 4.69907 12.0902 4.49365 12.2211L4.36065 12.3059C4.21085 12.4013 4.03669 12.6162 4.03003 12.7923C4.02667 12.8846 4.03003 12.9838 4.04349 13.0776C4.05358 13.1524 4.11336 13.2538 4.16839 13.3056L4.37051 13.4958C4.4759 13.5949 4.60976 13.6586 4.75335 13.6778L5.21955 13.74C5.43215 13.7684 5.64545 13.7913 5.85921 13.8086L6.5869 13.8675L6.85375 13.3301ZM28.3599 13.3301L28.6267 13.8675L29.3544 13.8086C29.5682 13.7913 29.7814 13.7684 29.9941 13.74L30.4603 13.6778C30.6038 13.6586 30.7377 13.5949 30.8431 13.4958L31.0453 13.3056C31.1002 13.2538 31.16 13.1524 31.1701 13.0776C31.1835 12.9838 31.187 12.8846 31.1835 12.7923C31.1769 12.6162 31.0028 12.4013 30.8529 12.3059L30.72 12.2211C30.5145 12.0902 30.2794 12.0129 30.0363 11.9962L28.924 11.9202C28.8208 11.9132 28.7221 11.9631 28.6668 12.0504L28.5867 12.1764C28.5243 12.2749 28.5121 12.3972 28.5541 12.5061L28.8416 13.2523L28.3599 13.3301ZM16.4876 16.7414L13.2524 16.8162C13.0694 16.8205 12.8947 16.8928 12.762 17.0186L12.0322 17.7112C11.9807 17.7601 12.0154 17.8464 12.0867 17.8456L16.0952 17.7971C16.1728 17.7962 16.3027 17.7923 16.3719 17.826C16.3881 17.8339 16.4037 17.8432 16.4185 17.854C16.4239 17.8581 16.4329 17.8652 16.4383 17.8696L16.9617 18.2864C17.3421 18.5894 17.882 18.5893 18.2624 18.2863L18.7952 17.8617C18.8498 17.8182 18.918 17.7945 18.9878 17.7954L23.137 17.8455C23.2081 17.8465 23.243 17.7601 23.1914 17.7112L22.4617 17.0186C22.329 16.8928 22.1542 16.8205 21.9712 16.8162L18.7366 16.7414C17.9871 16.724 17.2371 16.724 16.4876 16.7414ZM4.2753 22.5509L4.49212 27.6876C4.50315 27.9466 4.58308 28.1979 4.72397 28.4155L5.06255 28.9389C5.13563 29.0518 5.2615 29.1195 5.39615 29.1183L7.13991 29.1024C7.35091 29.1006 7.55411 29.0225 7.71206 28.8828L7.90443 28.7125C8.01752 28.6125 8.09033 28.4747 8.10921 28.3249L8.36828 26.2725L8.24214 25.1733L7.31625 24.8787C6.69985 24.6826 6.13712 24.3471 5.67193 23.8983L4.2753 22.5509ZM30.9484 22.5509L29.5518 23.8983C29.0866 24.3471 28.5238 24.6826 27.9074 24.8787L26.9816 25.1733L26.8555 26.2725L27.1144 28.3249C27.1334 28.4747 27.2062 28.6125 27.3193 28.7125L27.5116 28.8828C27.6696 29.0225 27.8728 29.1006 28.0838 29.1024L29.8275 29.1183C29.9622 29.1195 30.088 29.0518 30.1611 28.9389L30.4998 28.4155C30.6406 28.1979 30.7206 27.9466 30.7316 27.6876L30.9484 22.5509Z" fill="#252524"/>
<path d="M23.5139 16.7163L23.5141 16.7164C23.4262 16.6488 23.4609 16.5091 23.5703 16.4905L27.7928 15.7714C27.9864 15.7384 28.1857 15.7763 28.3535 15.8782L28.6392 16.0516C28.7285 16.1058 28.7972 16.188 28.8346 16.2854L28.9811 16.6668C29.0336 16.8035 29.0456 16.9525 29.0152 17.0957L28.8827 17.7239C28.8563 17.8488 28.7595 17.9469 28.6348 17.975L27.9308 18.1336C27.8078 18.1613 27.6791 18.1495 27.5633 18.0998L27.0947 17.8989C26.9279 17.8274 26.7475 17.7931 26.566 17.7986L25.4199 17.8327C25.1368 17.8411 24.8596 17.7514 24.6353 17.5789L23.5139 16.7163ZM10.5994 17.5789C10.3751 17.7514 10.0979 17.8411 9.81482 17.8327L8.66873 17.7986C8.48724 17.7931 8.30682 17.8274 8.14002 17.8989L7.67144 18.0998C7.55559 18.1495 7.42695 18.1613 7.30396 18.1336L6.5999 17.975C6.47518 17.9469 6.37836 17.8488 6.35201 17.7239L6.21952 17.0957C6.18921 16.9525 6.20112 16.8035 6.25365 16.6668L6.40012 16.2854C6.4375 16.188 6.50625 16.1058 6.59552 16.0516L6.88124 15.8782C7.04912 15.7763 7.24822 15.7384 7.4419 15.7714L11.6644 16.4905C11.7738 16.5091 11.8086 16.6488 11.7207 16.7164L10.5994 17.5789ZM9.04721 18.1913L8.42646 18.6398C8.2892 18.739 8.20371 18.8944 8.1935 19.0633L8.14445 19.8728C8.14079 19.9328 8.17264 19.9893 8.2261 20.0173L8.35944 20.0871C8.82299 20.3298 8.82718 20.9907 8.36681 21.2394L8.16366 21.349C8.10939 21.3783 8.07388 21.4333 8.06946 21.4947L8.0526 21.7292C8.04587 21.823 7.94913 21.8828 7.86195 21.847L7.44072 21.6739C7.36307 21.642 7.31081 21.5683 7.30637 21.4846L7.29994 21.3624C7.29687 21.3162 7.28372 21.2713 7.25975 21.2316L7.0949 20.9584C6.96599 20.745 6.97329 20.476 7.11358 20.2698L7.15044 20.2155C7.21598 20.1192 7.25123 20.0055 7.25171 19.8891L7.25567 18.9465C7.25567 18.766 7.35411 18.5998 7.51156 18.5112L8.21256 18.1165C8.31275 18.06 8.42729 18.034 8.5421 18.0416L9.013 18.0727C9.07443 18.0767 9.09712 18.1553 9.04721 18.1913ZM26.1782 18.1913L26.7988 18.6398C26.9361 18.739 27.0216 18.8944 27.0318 19.0633L27.0808 19.8728C27.0845 19.9328 27.0527 19.9893 26.9992 20.0173L26.8659 20.0871C26.4023 20.3298 26.3981 20.9907 26.8586 21.2394L27.0616 21.349C27.116 21.3783 27.1515 21.4333 27.1558 21.4947L27.1727 21.7292C27.1795 21.823 27.2762 21.8828 27.3634 21.847L27.7846 21.6739C27.8623 21.642 27.9145 21.5683 27.919 21.4846L27.9254 21.3624C27.9285 21.3162 27.9416 21.2713 27.9656 21.2316L28.1304 20.9584C28.2593 20.745 28.252 20.476 28.1117 20.2698L28.0749 20.2155C28.0094 20.1192 27.9741 20.0055 27.9736 19.8891L27.9696 18.9465C27.9696 18.766 27.8712 18.5998 27.7138 18.5112L27.0128 18.1165C26.9126 18.06 26.798 18.034 26.6832 18.0416L26.2124 18.0727C26.1509 18.0767 26.1282 18.1553 26.1782 18.1913Z" fill="#252524"/>
</g>
<defs>
<clipPath id="clip0_820_1896">
<rect width="27.7468" height="22.5254" fill="white" transform="translate(3.73828 6.59375)"/>
</clipPath>
</defs>
</svg>
