<svg width="1024" height="1024" viewBox="0 0 1024 1024" fill="none" xmlns="http://www.w3.org/2000/svg">
<g clip-path="url(#clip0_315_16979)">
<path d="M545.266 271.562C590.507 272.599 627.642 273.277 666.962 278.034C712.185 283.507 734.026 365.334 748.608 404.497C750.235 408.866 755.138 414.129 758.267 417.524C765.961 425.876 776.898 442.202 785.996 451.327C788.785 454.124 792.224 455.767 795.642 457.498C805.422 462.449 812.086 480.667 815.582 491.449C818.005 498.919 820.227 506.398 821.625 514.133C822.751 520.365 823.581 528.774 824.189 537.197C825.517 555.616 821.738 585.037 816.827 602.847L814.052 612.913C812.343 619.112 808.471 624.496 803.134 628.095L777.725 645.227L755.628 660.125C747.981 665.281 739.39 668.881 730.347 670.717L707.762 675.304C688.671 679.182 669.242 681.159 649.76 681.205L548.779 681.446C524.27 681.506 499.763 681.506 475.254 681.446L374.273 681.205C354.791 681.159 335.362 679.182 316.273 675.304L293.687 670.717C284.643 668.881 276.052 665.281 268.405 660.125L246.309 645.227L220.9 628.095C215.563 624.496 211.691 619.112 209.981 612.913L207.206 602.847C202.296 585.037 198.516 555.616 199.845 537.197C200.45 528.774 201.283 520.365 202.409 514.133C203.806 506.398 206.029 498.919 208.451 491.449C211.946 480.667 218.611 462.449 228.391 457.498C231.81 455.767 235.248 454.124 238.038 451.327C247.135 442.202 258.072 425.876 265.767 417.524C268.894 414.129 273.798 408.866 275.425 404.497C290.007 365.334 311.847 283.507 357.071 278.034C396.392 273.276 433.527 272.598 478.77 271.562C497.132 271.141 526.901 271.141 545.265 271.562H545.266ZM484.828 233.249C439.337 234.074 408.543 234.616 348.764 240.82C283.028 247.669 258.452 340.694 243.595 381.257C241.992 385.634 237.207 391.054 234.125 394.498C225.722 403.845 216.164 419.783 212.372 422.311C208.311 424.981 199.035 431.288 190.508 441.209C183.196 449.815 175.417 466.685 172.231 477.549C168.488 490.304 165.25 505.338 163.249 517.872C162.253 524.268 161.448 532.808 160.819 541.319C159.464 559.726 163.068 589.094 168.058 606.862L172.491 623.257C174.255 629.537 177.629 635.246 182.282 639.822L229.79 686.531L270.9 703.057C279.494 706.484 288.472 708.915 297.649 710.299L331.933 715.778C351.203 718.684 370.673 720.162 390.174 720.198L485.323 720.388C503.117 720.421 520.912 720.421 538.707 720.388L633.855 720.198C653.357 720.162 672.826 718.684 692.096 715.778L726.381 710.299C735.557 708.915 744.535 706.484 753.13 703.057L794.239 686.531L841.748 639.822C846.4 635.246 849.775 629.537 851.538 623.257L855.971 606.862C860.962 589.094 864.566 559.726 863.21 541.319C862.583 532.809 861.777 524.268 860.78 517.872C858.78 505.338 855.542 490.304 851.799 477.549C848.613 466.685 840.833 449.816 833.522 441.209C824.995 431.288 815.72 424.979 811.657 422.311C807.865 419.783 798.307 403.845 789.905 394.498C786.823 391.054 782.037 385.634 780.434 381.257C765.578 340.694 741.002 247.669 675.266 240.82C615.485 234.616 584.688 234.325 539.2 233.249C524.184 232.875 498.828 232.962 484.828 233.249ZM356.226 535.872C352.189 535.818 348.891 539.073 348.891 543.103V581.453C348.891 585.964 352.511 589.649 357.029 589.744L468.011 592.073C497.341 592.689 526.682 592.689 556.013 592.073L667.009 589.744C671.527 589.65 675.148 585.964 675.148 581.453V543.103C675.148 539.073 671.833 535.818 667.797 535.872L547.218 537.5C523.75 537.817 500.276 537.817 476.806 537.5L356.226 535.872ZM300.681 708.957L310.941 735.174C311.36 736.25 312.228 737.08 313.321 737.459L315.958 738.382C317.089 738.774 317.931 739.737 318.171 740.908L319.034 745.083C319.368 746.728 320.808 747.911 322.489 747.928L341.95 748.124C342.609 748.131 343.198 747.711 343.389 747.081L344.223 744.327C344.658 742.904 345.92 741.887 347.406 741.771L372.171 739.834C374.408 739.659 376.543 740.835 377.597 742.815L381.961 750.998C383.834 754.518 387.502 756.72 391.494 756.702L503.464 756.224C509.163 756.201 514.862 756.201 520.559 756.224L632.545 756.702C636.537 756.717 640.205 754.518 642.078 750.998L646.442 742.815C647.495 740.835 649.63 739.659 651.869 739.834L676.633 741.771C678.119 741.887 679.382 742.904 679.816 744.327L680.65 747.081C680.844 747.711 681.43 748.131 682.09 748.124L701.55 747.928C703.232 747.913 704.667 746.728 705.005 745.083L705.868 740.908C706.109 739.737 706.936 738.774 708.066 738.382L710.718 737.459C711.811 737.079 712.678 736.25 713.098 735.174L723.358 708.957L696.623 712.951C682.346 715.083 667.941 716.188 653.505 716.264L519.897 716.965C514.639 716.992 509.382 716.992 504.125 716.965L370.534 716.264C356.098 716.187 341.678 715.084 327.401 712.951L300.681 708.957ZM239.423 390.624L227.217 388.652L234.502 369.746C235.565 366.986 235.255 363.888 233.674 361.391L231.648 358.198C230.246 355.987 227.742 354.721 225.127 354.9L196.946 356.826C190.784 357.248 184.827 359.207 179.622 362.524L176.252 364.673C172.456 367.091 168.043 372.536 167.874 376.999C167.789 379.337 167.874 381.851 168.215 384.228C168.471 386.121 169.986 388.691 171.38 390.004L176.502 394.823C179.172 397.335 182.564 398.948 186.202 399.433L198.015 401.011C203.402 401.73 208.807 402.31 214.223 402.748L232.662 404.24L239.423 390.624ZM784.359 390.624L791.12 404.24L809.559 402.748C814.975 402.31 820.38 401.73 825.767 401.011L837.58 399.433C841.218 398.948 844.61 397.335 847.28 394.823L852.402 390.004C853.796 388.691 855.311 386.121 855.567 384.228C855.908 381.851 855.994 379.337 855.908 376.999C855.74 372.536 851.326 367.091 847.531 364.673L844.16 362.524C838.955 359.207 832.998 357.248 826.837 356.826L798.655 354.9C796.04 354.721 793.537 355.987 792.133 358.198L790.108 361.391C788.527 363.888 788.217 366.986 789.28 369.746L796.565 388.652L784.359 390.624ZM483.533 477.061L401.557 478.959C396.918 479.066 392.492 480.897 389.129 484.088L370.64 501.637C369.332 502.875 370.212 505.062 372.019 505.04L473.588 503.813C475.557 503.789 478.847 503.69 480.601 504.544C481.012 504.744 481.407 504.981 481.779 505.253C481.918 505.358 482.144 505.537 482.283 505.648L495.547 516.212C505.185 523.888 518.863 523.887 528.502 516.207L542.003 505.448C543.386 504.346 545.114 503.747 546.884 503.769L652.018 505.04C653.821 505.063 654.705 502.874 653.397 501.635L634.908 484.087C631.545 480.897 627.118 479.066 622.481 478.958L540.521 477.061C521.526 476.622 502.525 476.622 483.533 477.061ZM174.089 624.266L179.583 754.424C179.863 760.985 181.888 767.354 185.458 772.87L194.037 786.13C195.889 788.99 199.078 790.706 202.49 790.675L246.674 790.275C252.021 790.228 257.17 788.249 261.172 784.708L266.046 780.394C268.912 777.858 270.757 774.367 271.235 770.574L277.799 718.567L274.603 690.714L251.143 683.25C235.524 678.281 221.265 669.78 209.478 658.407L174.089 624.266ZM849.949 624.266L814.56 658.407C802.773 669.78 788.514 678.281 772.895 683.25L749.435 690.714L746.239 718.567L752.803 770.574C753.281 774.367 755.127 777.858 757.991 780.394L762.866 784.708C766.869 788.249 772.018 790.228 777.364 790.275L821.548 790.675C824.96 790.706 828.149 788.99 830.001 786.13L838.58 772.87C842.15 767.354 844.176 760.985 844.455 754.424L849.949 624.266Z" fill="#262625"/>
<path d="M661.552 476.412V476.415C659.326 474.702 660.207 471.164 662.978 470.692L769.971 452.47C774.878 451.634 779.924 452.595 784.177 455.177L791.418 459.57C793.679 460.943 795.422 463.027 796.368 465.495L800.08 475.158C801.41 478.623 801.713 482.396 800.945 486.027L797.588 501.944C796.919 505.108 794.467 507.593 791.306 508.306L773.466 512.324C770.349 513.026 767.09 512.727 764.155 511.468L752.281 506.378C748.055 504.566 743.484 503.699 738.885 503.835L709.844 504.701C702.673 504.915 695.648 502.641 689.965 498.271L661.552 476.412ZM334.313 498.271C328.63 502.641 321.605 504.915 314.434 504.701L285.393 503.835C280.794 503.699 276.223 504.566 271.996 506.378L260.123 511.468C257.187 512.727 253.928 513.026 250.812 512.324L232.971 508.306C229.812 507.593 227.358 505.108 226.69 501.944L223.333 486.027C222.565 482.396 222.867 478.623 224.198 475.158L227.909 465.495C228.857 463.027 230.599 460.943 232.861 459.57L240.1 455.177C244.354 452.595 249.399 451.634 254.307 452.47L361.3 470.692C364.071 471.164 364.952 474.702 362.725 476.415L362.726 476.412L334.313 498.271ZM294.983 513.786L279.254 525.153C275.776 527.666 273.61 531.604 273.351 535.882L272.108 556.393C272.016 557.913 272.823 559.346 274.177 560.054L277.556 561.823C289.302 567.974 289.408 584.721 277.743 591.019L272.595 593.799C271.22 594.541 270.32 595.933 270.208 597.49L269.781 603.431C269.611 605.809 267.159 607.325 264.95 606.417L254.277 602.03C252.309 601.221 250.985 599.355 250.873 597.235L250.71 594.138C250.632 592.967 250.299 591.828 249.691 590.823L245.514 583.904C242.248 578.492 242.433 571.678 245.988 566.452L246.922 565.078C248.582 562.637 249.475 559.757 249.488 556.806L249.588 532.923C249.588 528.35 252.082 524.14 256.072 521.892L273.834 511.89C276.373 510.46 279.275 509.801 282.184 509.994L294.116 510.781C295.673 510.884 296.248 512.874 294.983 513.787V513.786ZM729.056 513.786L744.786 525.153C748.263 527.666 750.43 531.604 750.689 535.882L751.931 556.393C752.024 557.913 751.217 559.346 749.862 560.054L746.484 561.823C734.738 567.974 734.632 584.721 746.298 591.019L751.444 593.799C752.82 594.541 753.72 595.933 753.831 597.49L754.258 603.431C754.429 605.809 756.88 607.325 759.09 606.417L769.763 602.03C771.73 601.221 773.054 599.355 773.167 597.235L773.329 594.138C773.408 592.967 773.74 591.828 774.349 590.823L778.526 583.904C781.791 578.492 781.607 571.678 778.052 566.452L777.118 565.078C775.458 562.637 774.565 559.757 774.552 556.806L774.452 532.923C774.452 528.35 771.958 524.14 767.968 521.892L750.205 511.89C747.667 510.46 744.764 509.801 741.855 509.994L729.923 510.781C728.367 510.884 727.792 512.874 729.056 513.787V513.786Z" fill="#262625"/>
</g>
<defs>
<clipPath id="clip0_315_16979">
<rect width="1024" height="1024" fill="white"/>
</clipPath>
</defs>
</svg>
