<svg width="1024" height="1024" viewBox="0 0 1024 1024" fill="none" xmlns="http://www.w3.org/2000/svg">
<g clip-path="url(#clip0_485_12574)">
<g clip-path="url(#clip1_485_12574)">
<path d="M545.266 224.562C590.507 225.599 627.642 226.277 666.962 231.034C712.185 236.507 734.026 318.334 748.608 357.497C750.235 361.866 755.138 367.129 758.267 370.524C765.961 378.876 776.898 395.202 785.996 404.327C788.785 407.124 792.224 408.767 795.642 410.498C805.422 415.449 812.086 433.667 815.582 444.449C818.005 451.919 820.227 459.398 821.625 467.133C822.751 473.365 823.581 481.774 824.189 490.197C825.517 508.616 821.738 538.037 816.827 555.847L814.052 565.913C812.343 572.112 808.471 577.496 803.134 581.095L777.725 598.227L755.628 613.125C747.981 618.281 739.39 621.881 730.347 623.717L707.762 628.304C688.671 632.182 669.242 634.159 649.76 634.205L548.779 634.446C524.27 634.506 499.763 634.506 475.254 634.446L374.273 634.205C354.791 634.159 335.362 632.182 316.273 628.304L293.687 623.717C284.643 621.881 276.052 618.281 268.405 613.125L246.309 598.227L220.9 581.095C215.563 577.496 211.691 572.112 209.981 565.913L207.206 555.847C202.296 538.037 198.516 508.616 199.845 490.197C200.45 481.774 201.283 473.365 202.409 467.133C203.806 459.398 206.029 451.919 208.451 444.449C211.946 433.667 218.611 415.449 228.391 410.498C231.81 408.767 235.248 407.124 238.038 404.327C247.135 395.202 258.072 378.876 265.767 370.524C268.894 367.129 273.798 361.866 275.425 357.497C290.007 318.334 311.847 236.507 357.071 231.034C396.392 226.276 433.527 225.598 478.77 224.562C497.132 224.141 526.901 224.141 545.265 224.562H545.266ZM484.828 186.249C439.337 187.074 408.543 187.616 348.764 193.82C283.028 200.669 258.452 293.694 243.595 334.257C241.992 338.634 237.207 344.054 234.125 347.498C225.722 356.845 216.164 372.783 212.372 375.311C208.311 377.981 199.035 384.288 190.508 394.209C183.196 402.815 175.417 419.685 172.231 430.549C168.488 443.304 165.25 458.338 163.249 470.872C162.253 477.268 161.448 485.808 160.819 494.319C159.464 512.726 163.068 542.094 168.058 559.862L172.491 576.257C174.255 582.537 177.629 588.246 182.282 592.822L229.79 639.531L270.9 656.057C279.494 659.484 288.472 661.915 297.649 663.299L331.933 668.778C351.203 671.684 370.673 673.162 390.174 673.198L485.323 673.388C503.117 673.421 520.912 673.421 538.707 673.388L633.855 673.198C653.357 673.162 672.826 671.684 692.096 668.778L726.381 663.299C735.557 661.915 744.535 659.484 753.13 656.057L794.239 639.531L841.748 592.822C846.4 588.246 849.775 582.537 851.539 576.257L855.971 559.862C860.962 542.094 864.566 512.726 863.21 494.319C862.583 485.809 861.777 477.268 860.78 470.872C858.78 458.338 855.542 443.304 851.799 430.549C848.613 419.685 840.833 402.816 833.522 394.209C824.995 384.288 815.72 377.979 811.657 375.311C807.865 372.783 798.307 356.845 789.905 347.498C786.823 344.054 782.037 338.634 780.434 334.257C765.578 293.694 741.002 200.669 675.266 193.82C615.485 187.616 584.688 187.325 539.2 186.249C524.184 185.875 498.828 185.962 484.828 186.249ZM356.226 488.872C352.189 488.818 348.891 492.073 348.891 496.103V534.453C348.891 538.964 352.511 542.649 357.029 542.744L468.011 545.073C497.341 545.689 526.682 545.689 556.013 545.073L667.009 542.744C671.527 542.65 675.148 538.964 675.148 534.453V496.103C675.148 492.073 671.833 488.818 667.797 488.872L547.218 490.5C523.75 490.817 500.276 490.817 476.806 490.5L356.226 488.872ZM300.681 661.957L310.941 688.174C311.36 689.25 312.229 690.08 313.321 690.459L315.958 691.382C317.089 691.774 317.931 692.737 318.171 693.908L319.034 698.083C319.368 699.728 320.808 700.911 322.489 700.928L341.95 701.124C342.609 701.131 343.198 700.711 343.389 700.081L344.223 697.327C344.658 695.904 345.92 694.887 347.406 694.771L372.171 692.834C374.408 692.659 376.543 693.835 377.597 695.815L381.961 703.998C383.834 707.518 387.502 709.72 391.494 709.702L503.464 709.224C509.163 709.201 514.862 709.201 520.559 709.224L632.545 709.702C636.537 709.717 640.205 707.518 642.078 703.998L646.442 695.815C647.495 693.835 649.63 692.659 651.869 692.834L676.633 694.771C678.119 694.887 679.382 695.904 679.816 697.327L680.65 700.081C680.844 700.711 681.43 701.131 682.09 701.124L701.55 700.928C703.232 700.913 704.667 699.728 705.005 698.083L705.868 693.908C706.109 692.737 706.936 691.774 708.066 691.382L710.718 690.459C711.811 690.079 712.678 689.25 713.098 688.174L723.358 661.957L696.623 665.951C682.346 668.083 667.941 669.188 653.505 669.264L519.897 669.965C514.639 669.992 509.382 669.992 504.125 669.965L370.534 669.264C356.098 669.187 341.678 668.084 327.401 665.951L300.681 661.957ZM239.423 343.624L227.217 341.652L234.502 322.746C235.565 319.986 235.255 316.888 233.674 314.391L231.648 311.198C230.246 308.987 227.742 307.721 225.127 307.9L196.946 309.826C190.784 310.248 184.827 312.207 179.622 315.524L176.252 317.673C172.456 320.091 168.043 325.536 167.874 329.999C167.789 332.337 167.874 334.851 168.215 337.228C168.471 339.121 169.986 341.691 171.38 343.004L176.502 347.823C179.172 350.335 182.564 351.948 186.202 352.433L198.015 354.011C203.402 354.73 208.807 355.31 214.223 355.748L232.662 357.24L239.423 343.624ZM784.359 343.624L791.12 357.24L809.559 355.748C814.975 355.31 820.38 354.73 825.767 354.011L837.58 352.433C841.218 351.948 844.61 350.335 847.28 347.823L852.402 343.004C853.796 341.691 855.311 339.121 855.567 337.228C855.908 334.851 855.994 332.337 855.908 329.999C855.74 325.536 851.326 320.091 847.531 317.673L844.16 315.524C838.955 312.207 832.998 310.248 826.837 309.826L798.655 307.9C796.04 307.721 793.537 308.987 792.133 311.198L790.108 314.391C788.527 316.888 788.217 319.986 789.28 322.746L796.565 341.652L784.359 343.624ZM483.533 430.061L401.557 431.959C396.918 432.066 392.492 433.897 389.129 437.088L370.64 454.637C369.332 455.875 370.212 458.062 372.019 458.04L473.588 456.813C475.557 456.789 478.847 456.69 480.601 457.544C481.012 457.744 481.407 457.981 481.779 458.253C481.918 458.358 482.144 458.537 482.283 458.648L495.547 469.212C505.185 476.888 518.863 476.887 528.502 469.207L542.003 458.448C543.386 457.346 545.114 456.747 546.884 456.769L652.018 458.04C653.821 458.063 654.705 455.874 653.397 454.635L634.908 437.087C631.545 433.897 627.118 432.066 622.481 431.958L540.521 430.061C521.526 429.622 502.525 429.622 483.533 430.061ZM174.089 577.266L179.583 707.424C179.863 713.985 181.888 720.354 185.458 725.87L194.037 739.13C195.889 741.99 199.078 743.706 202.49 743.675L246.674 743.275C252.021 743.228 257.17 741.249 261.172 737.708L266.046 733.394C268.912 730.858 270.757 727.367 271.235 723.574L277.799 671.567L274.603 643.714L251.143 636.25C235.524 631.281 221.265 622.78 209.478 611.408L174.089 577.266ZM849.949 577.266L814.56 611.408C802.773 622.78 788.514 631.281 772.895 636.25L749.435 643.714L746.239 671.567L752.803 723.574C753.281 727.367 755.127 730.858 757.991 733.394L762.866 737.708C766.869 741.249 772.018 743.228 777.364 743.275L821.548 743.675C824.96 743.706 828.149 741.99 830.001 739.13L838.58 725.87C842.151 720.354 844.176 713.985 844.455 707.424L849.949 577.266Z" fill="#262625"/>
<path d="M661.552 429.412V429.415C659.326 427.702 660.207 424.164 662.978 423.692L769.971 405.47C774.878 404.634 779.924 405.595 784.177 408.177L791.418 412.57C793.679 413.943 795.422 416.027 796.368 418.495L800.08 428.158C801.41 431.623 801.713 435.396 800.945 439.027L797.588 454.944C796.919 458.108 794.467 460.593 791.306 461.306L773.466 465.324C770.349 466.026 767.09 465.727 764.155 464.468L752.281 459.378C748.055 457.566 743.484 456.699 738.885 456.835L709.844 457.701C702.673 457.915 695.648 455.641 689.965 451.271L661.552 429.412ZM334.313 451.271C328.63 455.641 321.605 457.915 314.434 457.701L285.393 456.835C280.794 456.699 276.223 457.566 271.996 459.378L260.123 464.468C257.187 465.727 253.928 466.026 250.812 465.324L232.971 461.306C229.812 460.593 227.358 458.108 226.69 454.944L223.333 439.027C222.565 435.396 222.867 431.623 224.198 428.158L227.909 418.495C228.857 416.027 230.599 413.943 232.861 412.57L240.1 408.177C244.354 405.595 249.399 404.634 254.307 405.47L361.3 423.692C364.071 424.164 364.952 427.702 362.725 429.415L362.726 429.412L334.313 451.271ZM294.983 466.786L279.254 478.153C275.776 480.666 273.61 484.604 273.351 488.882L272.108 509.393C272.016 510.913 272.823 512.346 274.177 513.054L277.556 514.823C289.302 520.974 289.408 537.721 277.743 544.019L272.595 546.799C271.22 547.541 270.32 548.933 270.208 550.49L269.781 556.431C269.611 558.809 267.159 560.325 264.95 559.417L254.277 555.03C252.309 554.221 250.985 552.355 250.873 550.235L250.71 547.138C250.632 545.967 250.299 544.828 249.691 543.823L245.514 536.904C242.248 531.492 242.433 524.678 245.988 519.452L246.922 518.078C248.582 515.637 249.475 512.757 249.488 509.806L249.588 485.923C249.588 481.35 252.082 477.14 256.072 474.892L273.834 464.89C276.373 463.46 279.275 462.801 282.184 462.994L294.116 463.781C295.673 463.884 296.248 465.874 294.983 466.787V466.786ZM729.056 466.786L744.786 478.153C748.263 480.666 750.43 484.604 750.689 488.882L751.931 509.393C752.024 510.913 751.217 512.346 749.862 513.054L746.484 514.823C734.738 520.974 734.632 537.721 746.298 544.019L751.444 546.799C752.82 547.541 753.72 548.933 753.831 550.49L754.258 556.431C754.429 558.809 756.88 560.325 759.09 559.417L769.763 555.03C771.73 554.221 773.054 552.355 773.167 550.235L773.329 547.138C773.408 545.967 773.74 544.828 774.349 543.823L778.526 536.904C781.791 531.492 781.607 524.678 778.052 519.452L777.118 518.078C775.458 515.637 774.565 512.757 774.552 509.806L774.452 485.923C774.452 481.35 771.958 477.14 767.968 474.892L750.205 464.89C747.667 463.46 744.764 462.801 741.855 462.994L729.923 463.781C728.367 463.884 727.792 465.874 729.056 466.787V466.786Z" fill="#262625"/>
</g>
</g>
<defs>
<clipPath id="clip0_485_12574">
<rect width="1024" height="1024" fill="white"/>
</clipPath>
<clipPath id="clip1_485_12574">
<rect width="1024" height="1024" fill="white" transform="translate(0 -47)"/>
</clipPath>
</defs>
</svg>
