<svg width="1024" height="1026" viewBox="0 0 1024 1026" fill="none" xmlns="http://www.w3.org/2000/svg">
<g clip-path="url(#clip0_994_35635)">
<path d="M545.181 285.663C588.718 287.814 650.442 292.501 663.776 295.884C681.186 300.302 723.564 360.581 741.641 394.14C743.393 393.99 744.591 393.839 747.085 393.584C744.177 384.821 743.207 373.685 744.619 368.54C746.031 363.395 770.776 370.216 777.674 371.719C784.571 373.222 786.925 379.337 790.917 385.752C794.908 392.168 796.863 399.183 783.104 401.239C776.126 402.282 764.904 404.915 753.551 405.841C754.961 407.975 756.452 410.569 759.534 414.875C765.004 422.516 770.442 422.269 779.815 430.222C789.189 438.174 790.22 443.52 799.122 452.331C808.026 461.141 817.929 465.043 828.287 480.666C837.616 494.737 837.16 630.259 833.661 665.183C833.44 673.197 832.881 688.022 831.501 708.648C830.265 727.092 821.377 743.17 807.675 743.217L760.506 743.377C754.576 743.397 743.455 735.615 742.788 725.827L739.757 715.665C707.578 717.384 672.818 719.143 666.642 718.988C649.681 718.563 655.687 715.287 638.646 715.289C626.275 715.29 567.476 715.248 533.923 714.818C522.083 714.666 502.898 714.667 491.062 714.82C457.51 715.253 398.706 715.3 386.333 715.3C369.292 715.3 375.298 718.575 358.338 719.001C352.161 719.157 317.393 717.401 285.21 715.685L282.186 725.827C281.518 735.615 270.397 743.4 264.468 743.377L217.299 743.217C203.596 743.17 194.708 727.092 193.473 708.648C192.093 688.039 191.534 673.222 191.312 665.203C187.811 630.266 187.344 494.764 196.671 480.693C207.028 465.069 216.931 461.167 225.833 452.356C234.735 443.544 235.766 438.198 245.138 430.245C254.512 422.292 259.949 422.538 265.419 414.897C268.511 410.576 270.001 407.978 271.416 405.841C260.065 404.913 248.846 402.282 241.87 401.239C228.111 399.183 230.065 392.168 234.057 385.752C238.048 379.337 240.403 373.222 247.3 371.719C254.197 370.216 278.943 363.395 280.354 368.54C281.766 373.685 280.794 384.821 277.888 393.584C280.377 393.838 281.575 393.989 283.321 394.139C301.401 360.575 343.761 300.316 361.166 295.898C374.501 292.513 436.22 287.821 479.756 285.666C497.813 284.779 527.126 284.778 545.181 285.663ZM479.745 323.884L472.878 324.109C438.148 325.305 398.204 327.556 386.092 330.63C368.633 335.062 331.488 385.751 313.491 419.266C301.121 428.867 303.656 428.678 295.77 439.696C290.3 447.338 284.862 447.092 275.489 455.045C266.116 462.998 267.348 466.249 258.447 475.06C249.544 483.871 238.929 491.518 232.393 501.684C225.857 511.85 221.452 630.389 225.989 641.604C230.527 652.818 244.652 680.133 259.618 680.283C262.345 680.314 328.284 686.943 340.107 686.645C357.068 686.218 372.813 675.67 392.808 674.353C407.069 673.413 459.839 674.102 491.075 674.187C502.902 674.216 522.086 674.216 533.926 674.185C565.166 674.096 617.911 673.405 632.168 674.342C652.163 675.658 667.909 686.205 684.87 686.63C696.693 686.926 762.631 680.292 765.358 680.261C780.324 680.11 794.447 652.794 798.983 641.579C803.519 630.364 799.104 511.825 792.567 501.66C786.031 491.494 775.414 483.849 766.511 475.038C757.609 466.227 758.841 462.977 749.467 455.024C740.093 447.072 734.656 447.319 729.186 439.678C721.299 428.66 723.833 428.849 711.463 419.249C693.463 385.735 656.313 335.049 638.854 330.619C625.934 327.341 581.347 325.002 545.2 323.881C527.129 323.321 497.816 323.322 479.745 323.884ZM788.452 606.701C797.434 612.836 797.012 631.095 796.43 638.531C795.848 645.968 784.903 657.756 775.584 661.691C766.265 665.625 712.369 674.373 693.401 673.615C667.634 672.586 626.709 658.71 599.019 658.811C557.672 658.962 515.729 659.21 512.505 659.233C507.886 659.205 423.805 658.7 375.853 658.7C371.29 658.7 350.577 672.858 331.609 673.616C312.64 674.373 258.745 665.625 249.426 661.691C240.107 657.756 229.161 645.968 228.579 638.532C227.999 631.095 227.575 612.836 236.557 606.701C245.54 600.566 291.609 609.221 301.239 611.7C310.868 614.179 354.103 636.318 363.21 637.531C372.757 638.803 417.311 639.568 455.284 639.998V639.997C486.885 640.356 538.106 640.356 569.686 639.998C607.668 639.568 652.249 638.803 661.8 637.531C670.907 636.318 714.141 614.179 723.77 611.7C733.4 609.221 779.469 600.566 788.452 606.701ZM263.572 619.896C257.385 624.185 258.987 633.131 260.804 637.077C261.619 638.845 264.117 642.586 267.797 643.467C272.185 644.516 277.829 644.177 281.161 642.014C287.197 638.093 283.646 626.56 280.796 623.711C277.946 620.861 269.76 615.608 263.572 619.896ZM744.176 623.711C741.326 626.56 737.777 638.093 743.813 642.014C747.144 644.177 752.789 644.516 757.176 643.467C760.856 642.586 763.354 638.845 764.169 637.077C765.987 633.131 767.589 624.185 761.401 619.896C755.213 615.608 747.027 620.861 744.176 623.711ZM497.343 529.764C497.343 529.765 497.344 529.765 497.344 529.765C505.497 539.723 505.834 572.656 498.635 579.643C491.436 586.63 417.272 583.643 398.349 577.836C379.427 572.03 373.146 561.627 369.702 556.718C368.97 555.674 367.951 554.351 366.786 552.848C366.849 552.848 366.92 552.847 366.991 552.847C361.972 543.656 361.497 534.704 362.95 528.158C364.475 528.242 366.299 528.505 368.419 528.948C371.707 529.635 374.637 525.975 379.893 525.174C385.774 524.277 485.951 519.402 497.343 529.764ZM645.08 525.174C650.336 525.975 653.267 529.635 656.554 528.948C658.675 528.505 660.499 528.242 662.024 528.158C663.477 534.704 663.001 543.656 657.983 552.847C658.054 552.847 658.125 552.848 658.187 552.848C657.022 554.351 656.003 555.674 655.271 556.718C651.827 561.627 645.546 572.03 626.624 577.836C607.702 583.643 533.538 586.63 526.339 579.643C519.14 572.656 519.477 539.723 527.63 529.765C527.63 529.765 527.63 529.765 527.63 529.764C539.023 519.402 639.2 524.277 645.08 525.174ZM497.344 529.765L497.343 529.764C489.191 519.808 497.344 529.765 497.344 529.765ZM527.63 529.764V529.765C527.63 529.765 535.782 519.808 527.63 529.764Z" fill="#262625"/>
<path d="M744.176 623.711C747.027 620.861 755.213 615.608 761.401 619.896C767.589 624.185 765.987 633.131 764.169 637.077C763.354 638.845 760.856 642.586 757.176 643.467C752.789 644.516 747.144 644.177 743.813 642.014C737.777 638.093 741.326 626.56 744.176 623.711ZM280.797 623.711C283.647 626.56 287.197 638.093 281.161 642.014C277.829 644.177 272.185 644.516 267.797 643.467C264.117 642.586 261.619 638.845 260.804 637.077C258.987 633.131 257.385 624.185 263.572 619.896C269.76 615.608 277.947 620.861 280.797 623.711ZM362.96 528.109C354.238 526.874 342.355 526.719 329.407 522.101C316.459 517.482 257.056 498.902 253.54 499.438C247.66 500.335 239.058 498.125 238.724 506.845C238.608 509.805 230.262 528.281 238.103 541.34C245.944 554.398 314.163 564.908 323.755 563.295C333.348 561.683 333.987 555.629 347.226 552.456C348.904 552.054 353.03 552.989 366.991 552.847C361.96 543.633 361.494 534.66 362.96 528.109ZM662.014 528.109C670.735 526.874 682.618 526.719 695.567 522.101C708.515 517.482 767.917 498.902 771.433 499.438C777.314 500.335 785.915 498.125 786.249 506.845C786.366 509.805 794.711 528.281 786.87 541.34C779.029 554.398 710.811 564.908 701.218 563.295C691.626 561.683 690.987 555.629 677.748 552.456C676.07 552.054 671.943 552.989 657.983 552.847C663.014 543.633 663.479 534.66 662.014 528.109Z" fill="#262625"/>
</g>
<defs>
<clipPath id="clip0_994_35635">
<rect width="1024" height="1024" fill="white" transform="translate(0 2)"/>
</clipPath>
</defs>
</svg>
