<svg width="1024" height="1037" viewBox="0 0 1024 1037" fill="none" xmlns="http://www.w3.org/2000/svg">
<g clip-path="url(#clip0_929_40425)">
<path d="M816.17 707.985C807.987 710.524 746.471 710.627 746.471 710.627L750.755 738.336C751.423 748.124 762.544 755.909 768.473 755.886L808.448 755.726C822.15 755.672 834.636 739.601 835.871 721.157C838.039 688.777 838.179 670.696 838.179 670.696C824.352 672.207 824.377 705.438 816.17 707.985ZM207.143 707.985C198.936 705.438 198.961 672.207 185.134 670.696C185.134 670.696 185.274 688.777 187.442 721.157C188.678 739.601 201.163 755.672 214.866 755.726L254.84 755.886C260.769 755.909 271.891 748.124 272.558 738.336L276.843 710.627C276.843 710.627 215.327 710.524 207.143 707.985ZM471.665 307.355C493.727 306.19 529.553 306.188 551.614 307.352C591.851 309.474 642.412 313.461 654.915 316.634C672.375 321.064 719.652 390.154 737.652 423.668C752.525 441.036 774.385 462.12 788.197 475.639C803.025 490.153 804.631 490.45 805.856 518.377C806.946 543.256 806.737 662.934 796.131 667.676C785.525 672.418 723.779 680.287 708.813 680.439C706.086 680.47 695.32 677.634 683.497 677.337C675.337 677.132 665.575 676.93 654.9 676.734C575.795 675.285 447.52 675.291 368.415 676.75C357.739 676.946 347.978 677.149 339.818 677.355C327.994 677.653 317.229 680.49 314.502 680.459C299.536 680.309 237.789 672.445 227.183 667.704C216.577 662.963 216.356 543.285 217.445 518.405C218.667 490.478 220.273 490.182 235.1 475.666C248.911 462.146 270.769 441.06 285.641 423.691C303.638 390.175 350.908 321.081 368.368 316.649C380.87 313.476 431.429 309.484 471.665 307.358V307.355ZM471.669 268.955C426.865 271.534 366.556 276.545 353.786 279.786C336.327 284.218 272.629 367.411 254.632 400.926C239.761 418.296 219.033 440.757 204.517 453.518C192.675 463.929 186.591 480.318 185.369 501.155C183.912 526.016 181.342 702.183 191.946 706.924C202.552 711.665 292.507 719.529 307.473 719.68C310.2 719.711 320.965 716.873 332.788 716.575C342.521 716.33 354.835 716.088 368.416 715.858C447.522 714.503 575.796 714.497 654.903 715.842C668.484 716.072 680.798 716.313 690.53 716.557C702.353 716.854 713.119 719.69 715.846 719.659C730.812 719.507 820.765 711.636 831.371 706.894C841.975 702.152 839.389 525.984 837.929 501.124C836.706 480.287 830.621 463.899 818.778 453.489C804.261 440.729 783.531 418.269 768.658 400.901C750.658 367.387 686.954 284.2 669.494 279.769C656.723 276.529 596.41 271.523 551.604 268.949C529.55 267.682 493.727 267.684 471.669 268.953V268.955ZM770.963 365.817H770.962C769.605 370.296 769.884 378.46 770.644 391.441C766.898 391.823 763.871 391.394 759.716 391.655C760.996 397.539 761.238 394.055 763.881 399.043C777.515 398.989 799.111 396.882 807.591 395.614C821.35 393.558 819.822 382.622 820.047 376.878C820.194 373.041 820.551 365.973 813.651 364.47C806.753 362.966 772.321 361.337 770.963 365.817ZM252.35 365.817C250.993 361.337 216.56 362.966 209.662 364.47C202.766 365.973 203.118 373.041 203.267 376.878C203.492 382.622 201.963 393.558 215.722 395.614C224.203 396.882 245.798 398.988 259.433 399.043C262.075 394.055 262.317 397.539 263.597 391.655C259.442 391.393 256.415 391.823 252.669 391.441C253.43 378.46 253.707 370.296 252.35 365.817ZM454.463 619.594C416.478 618.85 371.938 618.019 362.6 618.019C353.412 618.019 352.175 612.489 341.363 610.903C307.252 605.9 255.133 598.992 241.295 597.126C227.457 595.26 235.498 590.496 231.882 593.061C228.266 595.626 227.275 622.51 227.314 627.486C227.314 632.461 230.801 640.815 240.12 644.75C249.439 648.685 306.878 657.55 313.792 657.208C320.705 656.865 336.541 655.214 352.587 655.214C400.687 655.214 506.479 657.019 511.675 657.108C515.425 657.046 571.582 656.085 620.627 655.557C648.314 655.259 688.129 656.147 709.558 657.208C716.471 657.55 773.91 648.685 783.229 644.75C792.548 640.815 796.035 632.461 796.035 627.486C796.112 622.51 795.083 595.626 791.467 593.061C787.851 590.496 795.893 595.26 782.054 597.126C768.216 598.992 716.097 605.9 681.986 610.903C671.174 612.489 669.937 618.019 660.749 618.019C651.411 618.019 606.87 618.85 568.884 619.594C537.288 620.213 486.06 620.213 454.463 619.594ZM500.965 506.178C489.575 495.816 380.695 497.655 374.814 498.552C368.934 499.449 359.54 503.198 350.731 508.365C341.922 513.532 355.032 534.158 362.105 543.241C369.178 552.324 376.371 557.144 392.461 565.177C408.55 573.209 495.663 575.589 502.863 564.758C510.062 553.926 512.356 516.541 500.965 506.179V506.178ZM522.348 506.178C533.739 495.816 642.619 497.655 648.499 498.552C654.38 499.449 663.773 503.198 672.583 508.365C681.392 513.532 668.281 534.158 661.208 543.241C654.135 552.324 646.942 557.144 630.853 565.177C614.763 573.209 527.65 575.589 520.45 564.758C513.252 553.926 510.958 516.541 522.348 506.179V506.178Z" fill="#262625"/>
<path d="M321.381 614.294C320.356 611.739 294.341 610.209 284.36 609.074C274.38 607.938 253.018 604.552 251.27 606.483C249.641 608.282 244.087 619.984 251.271 620.642C258.453 621.3 297.265 622.205 304.048 621.467C310.831 620.728 322.407 616.85 321.381 614.294ZM701.932 614.294C702.958 611.739 728.972 610.209 738.953 609.074C748.934 607.938 770.296 604.552 772.043 606.483C773.672 608.282 779.226 619.984 772.043 620.642C764.86 621.3 726.048 622.205 719.265 621.467C712.482 620.728 700.907 616.85 701.932 614.294ZM357.521 505.681C344.278 502.007 251.557 482.178 245.676 483.075C239.796 483.972 227.313 492.92 226.978 501.64C226.862 504.6 223.369 523.561 231.452 532.981C239.536 542.401 305.571 548.787 315.163 547.174C324.756 545.562 319.572 544.36 332.811 541.187C334.489 540.784 348.319 542.69 362.28 542.547C354.096 529.21 342.714 514.658 357.521 505.681ZM665.793 505.681C679.035 502.007 771.756 482.178 777.637 483.075C783.518 483.972 796 492.92 796.335 501.64C796.451 504.6 799.945 523.561 791.861 532.981C783.778 542.401 717.742 548.787 708.15 547.174C698.557 545.562 703.741 544.36 690.502 541.187C688.824 540.784 674.995 542.69 661.034 542.547C669.218 529.21 680.6 514.658 665.793 505.681Z" fill="#262625"/>
</g>
<defs>
<clipPath id="clip0_929_40425">
<rect width="1024" height="1024" fill="white"/>
</clipPath>
</defs>
</svg>
