<svg width="1024" height="1031" viewBox="0 0 1024 1031" fill="none" xmlns="http://www.w3.org/2000/svg">
<g clip-path="url(#clip0_573_27641)">
<path d="M813.53 710.913C805.347 713.452 748.384 720.395 748.384 720.395L749.433 732.587C750.1 742.375 758.301 750.157 764.23 750.137L812.077 749.978C825.779 749.932 832.287 742.117 835.108 723.848C839.728 693.921 838.099 689.176 837.433 671.781C831.954 682.247 821.737 708.365 813.53 710.913ZM210.501 710.913C202.294 708.365 192.078 682.247 186.598 671.781C185.931 689.176 184.303 693.921 188.924 723.848C191.744 742.117 198.252 749.932 211.955 749.978L259.801 750.137C265.731 750.16 273.932 742.375 274.599 732.587L275.648 720.395C275.648 720.395 218.685 713.452 210.501 710.913ZM437.87 313.765C478.787 312.085 545.213 312.083 586.127 313.759C616.203 314.991 634.127 316.716 649.871 318.546C675.567 321.534 712.971 383.707 732.724 428.056C749.321 444.162 770.343 462.862 785.458 484.461C788.524 488.842 793.788 495.824 796.371 500.367C801.268 508.98 802.544 515.543 803.193 526.199C805.196 559.106 808.98 664.84 790.805 672.557C772.63 680.274 744.775 687.361 729.809 687.513C721.558 687.597 655.626 688.892 598.12 690.038C550.567 690.986 473.467 690.989 425.914 690.046C368.408 688.905 302.475 687.614 294.225 687.531C279.259 687.38 251.404 680.296 233.228 672.581C215.052 664.866 218.827 559.133 220.827 526.225C221.471 515.57 222.75 509.006 227.646 500.393C230.229 495.85 235.493 488.865 238.559 484.484C253.672 462.884 274.692 444.183 291.287 428.075C311.036 383.725 348.435 321.549 374.131 318.558C389.874 316.726 407.798 314.999 437.87 313.765ZM437.88 275.441C396.218 277.386 365.892 280.253 349.004 282.218C323.308 285.208 278.69 361.158 258.941 405.508C242.346 421.617 221.588 439.728 206.475 461.328C203.409 465.71 198.145 472.694 195.563 477.237C190.667 485.85 182.789 495.163 182.141 505.819C180.141 538.726 178.672 701.499 196.848 709.214C215.024 716.929 240.369 725.018 255.335 725.168C264.252 725.258 354.567 727.293 425.921 728.921C473.472 730.009 550.566 730.005 598.117 728.913C669.471 727.279 759.785 725.235 768.702 725.145C783.669 724.993 809.013 716.903 827.188 709.186C845.364 701.47 843.881 538.696 841.878 505.789C841.226 495.134 833.35 485.822 828.453 477.21C825.87 472.667 820.605 465.684 817.539 461.302C802.424 439.704 781.665 421.593 765.068 405.486C745.315 361.138 700.691 285.192 674.994 282.204C658.106 280.24 627.78 277.375 586.117 275.434C545.212 273.519 478.785 273.522 437.88 275.441ZM777.865 374.346C772.095 376.827 768.013 389.09 770.114 400.018C770.394 401.467 772.087 402.389 774.659 403.16C773.136 408.335 771.632 410.183 770.535 413.992C774.383 419.387 776.245 421.088 781.333 423.753C786.096 414.03 786.573 413.31 788.571 408.74C792.364 406.704 802.137 407.667 809.225 406C814.467 404.768 822.188 400.833 822.405 398.584C824.591 375.747 786.582 370.597 777.865 374.346ZM246.167 374.346C237.449 370.597 199.441 375.747 201.626 398.584C201.843 400.833 209.564 404.768 214.806 406C221.894 407.667 231.668 406.704 235.461 408.74C237.458 413.31 237.935 414.03 242.698 423.753C247.787 421.088 249.649 419.387 253.497 413.992C252.4 410.183 250.895 408.335 249.372 403.16C251.944 402.389 253.639 401.467 253.917 400.018C256.019 389.09 251.937 376.827 246.167 374.346ZM454.812 670.112C421.723 670.032 386.505 670.005 379.142 670.315C366.435 670.848 341.239 675.11 341.383 679.52C354.871 681.813 416.518 683.422 461.906 684.32C489.589 684.868 534.479 684.868 562.164 684.32C607.553 683.422 669.197 681.813 682.684 679.52C682.824 675.11 657.632 670.848 644.925 670.315C637.562 670.005 602.341 670.033 569.252 670.112C537.651 670.189 486.414 670.189 454.812 670.112ZM461.321 549.348C429.163 549.071 398.577 548.921 393 550.518C378.55 554.656 342.064 573.759 341.99 577.97C341.912 582.182 373.702 655.614 382.572 659.345C387.609 661.463 428.725 662.919 463.324 663.781C490.223 664.451 533.845 664.451 560.743 663.781C595.342 662.919 636.458 661.463 641.495 659.345C650.365 655.614 682.155 582.182 682.077 577.97C682 573.759 645.518 554.656 631.067 550.518C625.49 548.921 594.903 549.072 562.744 549.348C534.738 549.588 489.328 549.588 461.321 549.348ZM323.477 630.212C322.554 629.06 256.163 607.692 234.168 606.729C231.477 618.652 228.2 646.088 231.643 653.807C235.088 661.526 283.645 671.319 290.905 670.792C298.166 670.265 335.841 661.074 337.705 657.508C339.569 653.942 324.399 631.365 323.477 630.212ZM700.555 630.212C701.477 629.06 767.869 607.692 789.864 606.729C792.554 618.652 795.832 646.088 792.388 653.807C788.943 661.526 740.386 671.319 733.126 670.792C725.866 670.265 688.19 661.074 686.327 657.508C684.462 653.942 699.632 631.365 700.555 630.212Z" fill="#262625"/>
<path d="M363.729 531.844C362.807 530.691 258.501 507.196 246.024 502.584C239.527 509.113 236.09 534.394 239.375 546.079C242.661 557.764 301.328 564.899 309.647 562.905C317.966 560.912 365.276 544.236 367.169 541.845C369.063 539.455 364.652 532.996 363.729 531.844ZM660.302 531.844C661.225 530.691 765.531 507.196 778.008 502.584C784.505 509.113 787.942 534.394 784.656 546.079C781.371 557.764 722.703 564.899 714.384 562.905C706.065 560.912 658.756 544.236 656.862 541.845C654.968 539.455 659.38 532.996 660.302 531.844Z" fill="#262625"/>
</g>
<defs>
<clipPath id="clip0_573_27641">
<rect width="1024" height="1024" fill="white"/>
</clipPath>
</defs>
</svg>
