<svg width="1024" height="1024" viewBox="0 0 1024 1024" fill="none" xmlns="http://www.w3.org/2000/svg">
<g clip-path="url(#clip0_1043_16635)">
<g clip-path="url(#clip1_1043_16635)">
<path d="M586.492 261.793C625.188 264.052 655.378 267.263 667.534 269.221C684.022 271.876 730.736 334.284 757.67 378.8C760.322 378.787 762.894 378.753 764.683 378.572C764.179 371.474 762.895 359.045 765.485 357.24L765.825 357.074C770.332 355.394 804.851 354.819 809.475 357.482C814.247 360.23 814.325 360.021 814.534 361.466C814.643 362.254 814.402 378.908 814.402 381.569C814.402 384.231 807.412 389.63 801.58 390.785C794.296 392.229 784.56 394.327 768.295 397.371C768.623 397.967 768.918 398.527 769.207 399.081C784.894 414.793 818.981 427.781 829.446 471.56C838.682 510.118 835.248 671.658 824.853 689.897C824.852 694.788 824.563 703.607 823.067 716.192C820.884 734.549 813.561 742.659 799.858 742.706L756.024 742.866C750.094 742.887 742.815 735.104 742.147 725.316L741.729 715.321C740.063 715.271 738.266 715.191 736.412 715.097C727.13 714.627 736.744 702.312 726.571 702.313C719.054 702.314 702.345 704.153 694.464 702.982C684.593 701.515 683.446 696.957 673.015 696.804C651.254 696.485 624.172 696.68 598.511 697.058C550.953 697.75 473.875 697.754 426.321 697.065C400.657 696.689 373.573 696.497 351.81 696.817C341.378 696.971 340.232 701.529 330.362 702.997C322.48 704.169 305.772 702.331 298.254 702.331C288.081 702.331 297.695 714.646 288.414 715.117C286.558 715.211 284.759 715.291 283.091 715.341L282.673 725.316C282.006 735.104 274.727 742.889 268.797 742.866L224.963 742.706C211.26 742.659 203.937 734.549 201.754 716.192C200.259 703.622 199.969 694.81 199.968 689.916C189.573 671.648 186.128 510.141 195.359 471.587C205.82 427.807 239.906 414.816 255.591 399.102C255.884 398.541 256.184 397.973 256.516 397.369C240.257 394.327 230.524 392.228 223.241 390.785C217.409 389.63 210.419 384.231 210.419 381.569C210.419 378.908 210.178 362.254 210.287 361.466C210.492 360.021 210.573 360.23 215.346 357.482C220.119 354.734 256.747 355.434 259.336 357.24L259.778 357.699C261.769 360.578 260.61 371.918 260.138 378.572C261.924 378.753 264.491 378.786 267.14 378.8C294.072 334.282 340.768 271.889 357.253 269.234C369.41 267.275 399.598 264.061 438.293 261.798C479.172 259.402 545.614 259.4 586.492 261.793ZM372.96 306.002C353.748 309.097 309.325 379.652 287.121 422.194C262.509 451.095 234.616 450.886 229.729 494.678C225.161 535.613 226.001 648.539 237.346 655.61C248.691 662.677 253.38 662.716 277.446 662.716C301.512 662.716 351.229 662.677 391.372 662.677C418.228 662.677 447.281 662.907 474.879 663.059C495.607 663.173 529.215 663.171 549.943 663.056C577.541 662.901 606.594 662.669 633.45 662.667C673.592 662.667 723.31 662.7 747.376 662.698C771.442 662.696 776.131 662.66 787.475 655.589C798.819 648.517 799.65 535.59 795.078 494.656C790.187 450.864 762.294 451.075 737.68 422.177C715.472 379.637 671.043 309.086 651.831 305.992C632.618 302.899 584.179 298.414 512.395 297.759V297.757C440.611 298.418 392.172 302.907 372.96 306.002ZM648.478 631.894C645.657 635.715 641.88 642.543 634.909 643.096C630.431 643.45 581.091 644.104 546.371 644.526C527.625 644.754 497.234 644.754 478.491 644.526C443.772 644.104 394.426 643.45 389.948 643.096C382.977 642.543 379.2 635.715 376.379 631.894C373.555 628.072 376.272 605.889 374.129 597.892C383.815 597.892 462.397 599.291 497.321 599.75L498.944 599.769C507.335 599.859 519.713 599.853 527.534 599.75C562.456 599.291 641.042 597.892 650.728 597.892C648.587 605.889 651.302 628.072 648.478 631.894ZM527.537 493.613C565.554 493.713 657.158 493.951 666.952 493.951C664.809 501.947 654.544 522.4 651.722 526.222C648.902 530.043 593.208 552.554 586.237 553.107C582.735 553.385 564.076 553.544 546.373 553.633C527.626 553.728 497.233 553.728 478.49 553.633C460.785 553.544 442.122 553.385 438.62 553.107C431.649 552.555 375.955 530.043 373.134 526.222C370.313 522.4 360.048 501.947 357.905 493.951C367.699 493.951 459.302 493.713 497.32 493.613L498.943 493.609C507.335 493.59 519.714 493.592 527.537 493.613ZM497.316 499.791L490.898 499.812C456.96 499.923 396.938 500.125 387.96 500.125C387.96 500.125 372.9 500.093 372.171 500.489C371.495 500.849 388.215 507.373 390.733 508.353C393.842 516.67 398.275 526.644 400.354 529.536C393.69 528.021 384.509 525.044 384.02 525.324C383.501 525.622 398.897 532.369 404.734 534.506C408.032 535.714 412.651 537.106 416.188 538.133C425.801 542.303 436.867 546.322 440.736 546.628C444.167 546.901 461.638 547.055 478.496 547.146C497.24 547.247 527.633 547.247 546.379 547.146C563.235 547.056 580.694 546.9 584.124 546.628C588.004 546.321 599.117 542.273 608.748 538.09C612.272 537.066 616.824 535.699 620.081 534.506C625.918 532.369 641.314 525.622 640.794 525.324C640.309 525.045 631.169 528.002 624.508 529.521C626.592 526.615 631.021 516.651 634.128 508.341C636.738 507.325 653.319 500.848 652.644 500.489C651.915 500.094 636.978 500.125 636.885 500.125C627.308 500.125 559.658 499.895 527.532 499.791C519.188 499.768 505.659 499.768 497.316 499.791Z" fill="#262625"/>
<path d="M341.109 488.308C341.109 488.308 279.824 473.336 258.856 459.157C254.835 456.438 245.4 467.19 244.33 468.958C243.259 470.727 245.597 501.86 247.944 506.721C250.291 511.581 300.187 521.82 307.07 523.65C313.955 525.481 342.344 529.368 349.342 529.539C356.339 529.711 341.109 488.308 341.109 488.308ZM683.712 488.308C683.712 488.308 744.998 473.336 765.966 459.157C769.987 456.438 779.421 467.19 780.492 468.958C781.562 470.727 779.224 501.86 776.877 506.721C774.53 511.581 724.634 521.82 717.751 523.65C710.866 525.481 682.477 529.368 675.479 529.539C668.482 529.711 683.712 488.308 683.712 488.308ZM292.418 602.313C292.418 593.59 290.307 589.608 274.899 589.608C264.014 589.608 260.1 590.288 260.1 602.117C260.1 613.945 273.043 613.258 278.924 613.258C284.804 613.258 292.418 611.035 292.418 602.313ZM732.403 602.313C732.403 593.59 734.514 589.608 749.923 589.608C760.807 589.608 764.722 590.288 764.722 602.117C764.722 613.945 751.778 613.258 745.898 613.258C740.017 613.258 732.403 611.035 732.403 602.313Z" fill="#262625"/>
</g>
</g>
<defs>
<clipPath id="clip0_1043_16635">
<rect width="1024" height="1024" fill="white"/>
</clipPath>
<clipPath id="clip1_1043_16635">
<rect width="1024" height="1024" fill="white" transform="translate(0 -11)"/>
</clipPath>
</defs>
</svg>
