<svg width="1024" height="1024" viewBox="0 0 1024 1024" fill="none" xmlns="http://www.w3.org/2000/svg">
<g clip-path="url(#clip0_459_24142)">
<path d="M820.371 694.225C816.102 697.498 759.662 714.56 759.662 714.56L760.711 734.849C761.379 744.637 768.658 752.421 774.587 752.399L818.918 752.239C832.621 752.193 838.201 752.353 839.436 733.909C841.603 701.529 838.319 672.768 838.319 672.768C823.457 674.392 824.639 690.953 820.371 694.225ZM202.061 694.225C197.792 690.953 198.975 674.392 184.113 672.768C184.113 672.768 180.828 701.529 182.996 733.909C184.231 752.353 189.811 752.193 203.514 752.239L247.844 752.399C253.774 752.422 261.053 744.637 261.72 734.849L262.769 714.56C262.769 714.56 206.329 697.498 202.061 694.225ZM437.063 312.189C477.985 310.679 544.415 310.676 585.337 312.182C633.071 313.939 666.699 317.466 681.669 321.233C703.504 326.728 732.391 400.566 752.144 444.915C757.312 448.101 772.603 454.308 778.271 457.081C783.938 459.855 801.917 481.655 803.856 493.895C808.555 523.574 799.747 599.597 802.788 637.706C804.394 657.84 786.265 670.456 779.406 674.965C772.547 679.475 696.84 674.464 696.84 674.464C689.35 674.542 642.364 673.193 597.295 671.829C549.753 670.39 472.68 670.393 425.141 671.836C380.072 673.205 333.083 674.556 325.592 674.48C325.592 674.48 249.886 679.498 243.027 674.989C236.167 670.479 218.036 657.866 219.642 637.731C222.68 599.622 213.864 523.599 218.561 493.92C220.498 481.68 238.476 459.878 244.142 457.104C249.81 454.33 265.101 448.122 270.268 444.935C290.017 400.585 318.898 326.744 340.733 321.248C355.702 317.479 389.329 313.949 437.063 312.189ZM437.071 273.383C381.112 275.909 335.733 280.943 320.325 284.822C298.491 290.319 258.484 376.594 238.735 420.944C233.567 424.131 217.03 430.339 211.363 433.113C205.696 435.887 182.282 467.158 180.344 479.399C175.648 509.078 179.351 619.583 180.422 637.731C181.302 652.653 183.967 697.374 187.693 698.723C188.885 699.154 205.92 702.915 213.214 704.169C213.214 706.994 213.291 709.753 213.291 709.753C213.291 709.753 220.309 716.187 222.675 718.888C247.659 718.471 354.908 720.306 369.127 720.306V710.687C375.031 710.749 398.691 709.924 425.182 708.907C472.703 707.082 549.735 707.079 597.26 708.899C623.748 709.915 647.405 710.734 653.308 710.675L653.309 720.294C667.529 720.292 774.778 718.448 799.762 718.862C802.127 716.162 809.144 709.727 809.144 709.727C809.144 709.727 809.222 706.968 809.222 704.143C816.515 702.889 833.551 699.126 834.742 698.695C838.468 697.345 841.13 652.625 842.008 637.702C843.077 619.554 846.771 509.049 842.086 479.37C840.148 467.13 816.73 435.861 811.064 433.087C805.396 430.314 788.859 424.107 783.69 420.921C763.937 376.572 723.923 290.3 702.088 284.805C686.68 280.928 641.299 275.898 585.338 273.376C544.432 271.539 477.993 271.542 437.086 273.383H437.071ZM792.027 383.361C788.299 388.459 791.662 395.749 791.67 403.163C787.924 403.545 777.103 403.647 772.947 403.909C774.227 409.793 779.468 419.665 782.11 424.654C791.338 422.968 800.661 421.687 806.064 421.451C832.584 420.283 845.346 421.575 855.293 405.871C858.288 401.142 855.068 389.254 848.625 385.223C842.185 381.191 795.746 378.263 792.023 383.361H792.027ZM230.409 383.361C226.686 378.263 180.247 381.191 173.807 385.223C167.366 389.254 166.606 400.298 167.139 405.871C167.674 411.444 175.909 415.86 178.825 425.395C180 429.241 210.957 421.414 216.367 421.451C221.779 421.49 231.094 422.968 240.321 424.654C242.964 419.665 248.204 409.793 249.484 403.909C245.329 403.647 234.507 403.545 230.762 403.163C230.766 395.749 234.133 388.459 230.405 383.361H230.409ZM454.011 596.449C427.512 596.465 399.266 596.48 387.23 596.48C380.177 596.48 358.691 625.096 359.166 635.652C359.469 642.401 372.078 646.694 378.365 646.954C381.959 647.103 424.942 647.338 461.098 647.511C488.787 647.643 533.681 647.643 561.371 647.511C597.527 647.337 640.508 647.103 644.102 646.954C650.39 646.695 662.999 642.401 663.301 635.652C663.775 625.096 642.29 596.48 635.237 596.48C623.201 596.48 594.954 596.465 568.456 596.449C536.853 596.433 485.614 596.433 454.011 596.449ZM460.52 503.073C433.71 502.91 402.955 502.723 377.147 502.723C375.796 500.649 375.028 498.482 371.223 497.596C360.053 494.993 337.218 491.534 337.218 491.534L362.25 532.24C379.902 546.256 411.042 554.891 417.023 555.574C422.908 556.246 442.631 556.602 462.536 556.791C489.43 557.047 533.047 557.047 559.953 556.791C579.851 556.602 599.561 556.246 605.445 555.574C611.425 554.891 642.566 546.256 660.218 532.24L685.249 491.534C685.249 491.534 662.415 494.993 651.245 497.596C647.439 498.482 646.671 500.649 645.32 502.723C619.512 502.723 588.756 502.91 561.947 503.073C533.938 503.242 488.528 503.242 460.52 503.073Z" fill="#262625"/>
<path d="M684.62 491.533C671.498 512.921 668.077 516.897 659.615 532.239C681.453 536.433 784.89 520.461 790.282 514.317C794.525 509.483 789.522 475.889 782.31 469.977C775.098 464.064 769.262 472.671 750.391 477.613C720.305 485.491 704.574 488.171 684.62 491.533ZM337.812 491.533C317.857 488.171 302.126 485.491 272.04 477.613C253.17 472.671 247.334 464.064 240.122 469.977C232.91 475.889 227.907 509.483 232.149 514.317C237.542 520.461 340.979 536.433 362.817 532.239C354.354 516.897 350.934 512.921 337.812 491.533ZM341.82 596.44C337.959 590.035 273.383 591.349 257.066 590.697C256.988 607.407 258.438 613.761 263.608 619.53C282.918 624.089 315.79 628.478 321.968 627.125C328.145 625.771 345.682 602.845 341.82 596.44ZM680.611 596.44C684.472 590.035 749.048 591.349 765.366 590.697C765.443 607.407 763.993 613.761 758.823 619.53C739.514 624.089 706.642 628.478 700.464 627.125C694.286 625.771 676.75 602.845 680.611 596.44Z" fill="#262625"/>
</g>
<defs>
<clipPath id="clip0_459_24142">
<rect width="1024" height="1024" fill="white"/>
</clipPath>
</defs>
</svg>
