<svg width="1024" height="1024" viewBox="0 0 1024 1024" fill="none" xmlns="http://www.w3.org/2000/svg">
<g clip-path="url(#clip0_485_12554)">
<g clip-path="url(#clip1_485_12554)">
<path d="M820.371 685.225C816.102 688.498 759.662 705.56 759.662 705.56L760.711 725.849C761.379 735.637 768.658 743.421 774.587 743.399L818.918 743.239C832.621 743.193 838.201 743.353 839.436 724.909C841.603 692.529 838.319 663.768 838.319 663.768C823.457 665.392 824.639 681.953 820.371 685.225ZM202.061 685.225C197.792 681.953 198.975 665.392 184.113 663.768C184.113 663.768 180.828 692.529 182.996 724.909C184.231 743.353 189.811 743.193 203.514 743.239L247.844 743.399C253.774 743.422 261.053 735.637 261.72 725.849L262.769 705.56C262.769 705.56 206.329 688.498 202.061 685.225ZM437.063 303.189C477.985 301.679 544.415 301.676 585.337 303.182C633.071 304.939 666.699 308.466 681.669 312.233C703.504 317.728 732.391 391.566 752.144 435.915C757.312 439.101 772.603 445.308 778.271 448.081C783.938 450.855 801.917 472.655 803.856 484.895C808.555 514.574 799.747 590.597 802.788 628.706C804.394 648.84 786.265 661.456 779.406 665.965C772.547 670.475 696.84 665.464 696.84 665.464C689.35 665.542 642.364 664.193 597.295 662.829C549.753 661.39 472.68 661.393 425.141 662.836C380.072 664.205 333.083 665.556 325.592 665.48C325.592 665.48 249.886 670.498 243.027 665.989C236.167 661.479 218.036 648.866 219.642 628.731C222.68 590.622 213.864 514.599 218.561 484.92C220.498 472.68 238.476 450.878 244.142 448.104C249.81 445.33 265.101 439.122 270.268 435.935C290.017 391.585 318.898 317.744 340.733 312.248C355.702 308.479 389.329 304.949 437.063 303.189ZM437.071 264.383C381.112 266.909 335.733 271.943 320.325 275.822C298.491 281.319 258.484 367.594 238.735 411.944C233.567 415.131 217.03 421.339 211.363 424.113C205.696 426.887 182.282 458.158 180.344 470.399C175.648 500.078 179.351 610.583 180.422 628.731C181.302 643.653 183.967 688.374 187.693 689.723C188.885 690.154 205.92 693.915 213.214 695.169C213.214 697.994 213.291 700.753 213.291 700.753C213.291 700.753 220.309 707.187 222.675 709.888C247.659 709.471 354.908 711.306 369.127 711.306V701.687C375.031 701.749 398.691 700.924 425.182 699.907C472.703 698.082 549.735 698.079 597.26 699.899C623.748 700.915 647.405 701.734 653.308 701.675L653.309 711.294C667.529 711.292 774.778 709.448 799.762 709.862C802.127 707.162 809.144 700.727 809.144 700.727C809.144 700.727 809.222 697.968 809.222 695.143C816.515 693.889 833.551 690.126 834.742 689.695C838.468 688.345 841.13 643.625 842.008 628.702C843.077 610.554 846.771 500.049 842.086 470.37C840.148 458.13 816.73 426.861 811.064 424.087C805.396 421.314 788.859 415.107 783.69 411.921C763.937 367.572 723.923 281.3 702.088 275.805C686.68 271.928 641.299 266.898 585.338 264.376C544.432 262.539 477.993 262.542 437.086 264.383H437.071ZM792.027 374.361C788.299 379.459 791.662 386.749 791.67 394.163C787.924 394.545 777.103 394.647 772.947 394.909C774.227 400.793 779.468 410.665 782.11 415.654C791.338 413.968 800.661 412.687 806.064 412.451C832.584 411.283 845.346 412.575 855.293 396.871C858.288 392.142 855.068 380.254 848.625 376.223C842.185 372.191 795.746 369.263 792.023 374.361H792.027ZM230.409 374.361C226.686 369.263 180.247 372.191 173.807 376.223C167.366 380.254 166.606 391.298 167.139 396.871C167.674 402.444 175.909 406.86 178.825 416.395C180 420.241 210.957 412.414 216.367 412.451C221.779 412.49 231.094 413.968 240.321 415.654C242.964 410.665 248.204 400.793 249.484 394.909C245.329 394.647 234.507 394.545 230.762 394.163C230.766 386.749 234.133 379.459 230.405 374.361H230.409ZM454.011 587.449C427.512 587.465 399.266 587.48 387.23 587.48C380.177 587.48 358.691 616.096 359.166 626.652C359.469 633.401 372.078 637.694 378.365 637.954C381.959 638.103 424.942 638.338 461.098 638.511C488.787 638.643 533.681 638.643 561.371 638.511C597.527 638.337 640.508 638.103 644.102 637.954C650.39 637.695 662.999 633.401 663.301 626.652C663.775 616.096 642.29 587.48 635.237 587.48C623.201 587.48 594.954 587.465 568.456 587.449C536.853 587.433 485.614 587.433 454.011 587.449ZM460.52 494.073C433.71 493.91 402.955 493.723 377.147 493.723C375.796 491.649 375.028 489.482 371.223 488.596C360.053 485.993 337.218 482.534 337.218 482.534L362.25 523.24C379.902 537.256 411.042 545.891 417.023 546.574C422.908 547.246 442.631 547.602 462.536 547.791C489.43 548.047 533.047 548.047 559.953 547.791C579.851 547.602 599.561 547.246 605.445 546.574C611.425 545.891 642.566 537.256 660.218 523.24L685.249 482.534C685.249 482.534 662.415 485.993 651.245 488.596C647.439 489.482 646.671 491.649 645.32 493.723C619.512 493.723 588.756 493.91 561.947 494.073C533.938 494.242 488.528 494.242 460.52 494.073Z" fill="#262625"/>
<path d="M684.62 482.533C671.498 503.921 668.077 507.897 659.615 523.239C681.453 527.433 784.89 511.461 790.282 505.317C794.525 500.483 789.522 466.889 782.31 460.977C775.098 455.064 769.262 463.671 750.391 468.613C720.305 476.491 704.574 479.171 684.62 482.533ZM337.812 482.533C317.857 479.171 302.126 476.491 272.04 468.613C253.17 463.671 247.334 455.064 240.122 460.977C232.91 466.889 227.907 500.483 232.149 505.317C237.542 511.461 340.979 527.433 362.817 523.239C354.354 507.897 350.934 503.921 337.812 482.533ZM341.82 587.44C337.959 581.035 273.383 582.349 257.066 581.697C256.988 598.407 258.438 604.761 263.608 610.53C282.918 615.089 315.79 619.478 321.968 618.125C328.145 616.771 345.682 593.845 341.82 587.44ZM680.611 587.44C684.472 581.035 749.048 582.349 765.366 581.697C765.443 598.407 763.993 604.761 758.823 610.53C739.514 615.089 706.642 619.478 700.464 618.125C694.286 616.771 676.75 593.845 680.611 587.44Z" fill="#262625"/>
</g>
</g>
<defs>
<clipPath id="clip0_485_12554">
<rect width="1024" height="1024" fill="white"/>
</clipPath>
<clipPath id="clip1_485_12554">
<rect width="1024" height="1024" fill="white" transform="translate(0 -9)"/>
</clipPath>
</defs>
</svg>
