<svg width="1024" height="1024" viewBox="0 0 1024 1024" fill="none" xmlns="http://www.w3.org/2000/svg">
<g clip-path="url(#clip0_544_9336)">
<g clip-path="url(#clip1_544_9336)">
<path d="M815.736 700.889C807.553 703.429 753.591 706.197 753.591 706.197L754.64 722.915C755.307 732.703 763.265 742.749 769.195 742.728L814.283 742.568C827.986 742.522 835.618 734.882 836.853 716.438C839.021 684.058 838.769 692.872 839.409 684.361C832.496 685.116 823.944 698.342 815.736 700.889ZM208.164 700.889C199.957 698.342 191.405 685.116 184.491 684.361C185.127 692.872 184.879 684.057 187.048 716.438C188.283 734.882 195.915 742.522 209.617 742.568L254.706 742.728C260.635 742.751 268.593 732.703 269.261 722.915L270.31 706.197C270.31 706.197 216.348 703.429 208.164 700.889ZM437.787 298.645C478.736 298.038 545.134 298.035 586.081 298.639C632.197 299.318 643.815 300.662 662.147 306.336C687.782 314.268 714.082 360.738 733.834 405.086C740.618 413.008 744.415 420.4 750.864 427.015C753.263 429.475 759.248 432.499 764.632 438.953C771.616 447.326 778.744 460.963 781.34 464.087C788.163 472.296 793.294 471.944 802.506 482.717C814.299 496.509 808.03 609.47 804.151 629.598C801.997 640.775 805.663 661.016 800.074 663.389C781.899 671.105 724.073 671.286 709.107 671.438C701.316 671.517 647.698 671.298 598.071 671.07C550.508 670.851 473.394 670.855 425.832 671.077C376.206 671.309 322.586 671.534 314.796 671.455C299.83 671.305 242.004 671.129 223.828 663.414C218.239 661.042 221.903 640.8 219.748 629.624C215.867 609.496 209.588 496.535 221.38 482.743C230.591 471.968 235.722 472.321 242.544 464.111C245.141 460.986 252.266 447.349 259.251 438.975C264.633 432.521 270.618 429.497 273.017 427.036C279.465 420.421 283.262 413.028 290.045 405.106C309.794 360.755 336.089 314.284 361.724 306.349C380.054 300.674 391.672 299.329 437.787 298.645ZM437.785 260.369C383.215 261.021 360.937 262.26 342.163 268.072C316.529 276.007 276.359 341.86 256.61 386.211C249.827 394.133 248.744 398.563 242.296 405.178C239.897 407.639 231.638 412.498 226.256 418.952C219.271 427.326 215.562 436.889 212.965 440.014C206.144 448.224 200.439 447.958 185.219 461.52C163.725 480.672 179.028 646.581 182.906 666.709C185.06 677.885 181.463 698.458 187.052 700.83C205.227 708.545 258.456 712.086 273.422 712.236C282.049 712.323 360.827 712.039 425.834 711.784C473.396 711.597 550.51 711.593 598.073 711.776C663.08 712.026 741.857 712.303 750.484 712.215C765.45 712.063 818.678 708.518 836.854 700.801C842.442 698.429 838.843 677.857 840.997 666.68C844.873 646.552 860.161 480.641 838.666 461.491C823.444 447.931 817.739 448.197 810.917 439.988C808.32 436.863 804.61 427.3 797.625 418.927C792.242 412.473 783.983 407.615 781.584 405.155C775.135 398.54 774.051 394.11 767.267 386.188C747.515 341.84 707.34 275.99 681.705 268.057C662.93 262.247 640.651 261.01 586.08 260.362C545.131 259.877 478.735 259.88 437.785 260.369ZM787.178 359.499C778.46 363.247 780.221 378.236 780.225 385.65C776.48 386.032 766.874 385.824 762.719 386.086C763.999 391.97 767.036 395.146 769.678 400.135C789.966 400.135 803.109 400.58 811.59 399.313C818.948 398.213 826.373 395.48 831.353 389.781C835.685 384.825 838.169 376.949 837.153 374.476C831.286 360.201 795.896 355.75 787.178 359.499ZM236.723 359.499C228.005 355.75 192.615 360.201 186.748 374.476C185.732 376.949 188.215 384.825 192.547 389.781C197.528 395.48 204.952 398.213 212.311 399.313C220.791 400.58 233.935 400.135 254.222 400.135C256.865 395.146 259.901 391.97 261.181 386.086C257.026 385.824 247.421 386.032 243.675 385.65C243.68 378.236 245.44 363.247 236.723 359.499ZM461.257 505.642C414.819 504.909 360.215 503.547 354.018 503.083C345.169 502.421 224.841 492.917 240.186 477.336C228.355 474.882 227.681 507.495 227.405 512.624C226.978 520.589 350.882 557.133 352.813 559.333C357.549 564.739 394.251 637.562 409.146 642.297C416.287 644.567 440.258 646.176 463.279 647.236C490.156 648.473 533.781 648.473 560.659 647.235C583.68 646.176 607.649 644.567 614.791 642.297C629.685 637.562 666.387 564.739 671.123 559.333C673.054 557.133 796.958 520.589 796.531 512.624C796.252 507.495 795.581 474.882 783.75 477.336C799.095 492.917 678.768 502.421 669.918 503.083C663.721 503.547 609.112 504.909 562.673 505.642C534.672 506.084 489.262 506.084 461.257 505.642ZM311.499 598.428C308.895 596.11 235.38 580.403 229.243 584.16C223.105 587.917 230.87 617.551 231.589 623.082C232.483 623.26 237.294 636.114 242.762 639.254C249.994 643.407 355.193 669.41 367.291 671.304C376.955 670.588 371.771 670.744 380.64 669.605C366.22 665.799 257.318 642.376 243.55 634.77C240.283 632.966 233.767 622.726 237.696 623.647C253.492 627.351 314.25 636.531 319.394 636.728C330.833 637.166 335.447 631.618 336.827 630.246C341.466 625.638 314.104 600.746 311.499 598.428ZM712.401 598.428C715.006 596.11 788.52 580.403 794.658 584.16C800.795 587.917 793.03 617.551 792.312 623.082C791.417 623.26 786.606 636.114 781.139 639.254C773.906 643.407 668.708 669.41 656.61 671.304C646.946 670.588 652.129 670.744 643.26 669.605C657.68 665.799 766.582 642.376 780.35 634.77C783.617 632.966 790.133 622.726 786.205 623.647C770.408 627.351 709.65 636.531 704.507 636.728C693.067 637.166 688.454 631.618 687.073 630.246C682.435 625.638 709.797 600.746 712.401 598.428Z" fill="#262625"/>
<path d="M655.514 528.628C657.348 521.946 667.205 515.196 672.711 512.458C678.216 509.719 781.544 489.88 782.656 492.628C783.769 495.377 783.504 509.804 777.966 513.072C758.608 524.495 690.507 543.084 673.633 541.056C668.063 540.387 667.328 538.098 655.514 528.628ZM368.387 528.628C356.573 538.098 355.838 540.387 350.267 541.056C333.393 543.084 265.293 524.495 245.935 513.072C240.397 509.804 240.132 495.377 241.245 492.628C242.357 489.88 345.685 509.719 351.19 512.458C356.696 515.196 366.553 521.946 368.387 528.628ZM716.692 613.938C714.088 616.256 712.85 618.135 709.548 625.121C723.934 625.712 753.663 620.313 771.56 616.748C772.282 611.217 772.759 613.976 773.906 604.183C764.622 605.242 719.297 611.62 716.692 613.938ZM307.208 613.938C309.813 616.256 311.051 618.135 314.353 625.121C299.966 625.712 270.238 620.313 252.34 616.748C251.619 611.217 251.142 613.976 249.994 604.183C259.279 605.242 304.604 611.62 307.208 613.938Z" fill="#262625"/>
</g>
</g>
<defs>
<clipPath id="clip0_544_9336">
<rect width="1024" height="1024" fill="white"/>
</clipPath>
<clipPath id="clip1_544_9336">
<rect width="1024" height="1024" fill="white" transform="translate(0 -11)"/>
</clipPath>
</defs>
</svg>
