<svg width="1024" height="1024" viewBox="0 0 1024 1024" fill="none" xmlns="http://www.w3.org/2000/svg">
<g clip-path="url(#clip0_485_12551)">
<g clip-path="url(#clip1_485_12551)">
<path d="M805.687 692.34C797.504 694.88 752.368 697.823 752.368 697.823L753.417 725.532C754.084 735.32 761.364 743.108 767.293 743.082L804.234 742.922C817.936 742.86 825.569 735.236 826.804 716.792C828.971 684.412 829.516 607.134 829.516 607.134C815.69 608.645 813.894 689.793 805.687 692.34ZM218.714 692.34C210.506 689.793 208.711 608.645 194.885 607.134C194.885 607.134 195.428 684.412 197.597 716.792C198.832 735.236 206.464 742.86 220.167 742.922L257.107 743.082C263.037 743.105 270.316 735.32 270.984 725.532L272.033 697.823C272.033 697.823 226.897 694.88 218.714 692.34ZM586.33 258.107C634.577 258.782 648.682 260.107 667.133 265.817C692.768 273.75 728.077 366.542 747.83 410.891C776.906 444.845 791.911 461.857 796.802 505.649C801.373 546.583 786.594 657.636 768.419 665.352C750.244 673.069 724.322 665.581 709.356 665.733C701.566 665.812 647.947 665.508 598.32 665.198C550.757 664.901 473.644 664.905 426.082 665.205C376.456 665.52 322.836 665.828 315.046 665.75C300.08 665.6 274.158 673.09 255.983 665.375C237.806 657.659 223.018 546.608 227.586 505.674C232.473 461.881 247.477 444.868 276.549 410.911C296.298 366.561 331.599 273.766 357.233 265.831C375.684 260.119 389.789 258.793 438.035 258.114C478.984 257.537 545.382 257.534 586.33 258.107ZM438.031 219.227C382.04 219.645 357.243 220.869 334.431 229.953C303.387 242.314 264.147 347.821 244.398 392.171C216.929 409.294 193.438 438.77 188.552 482.563C183.984 523.497 196.909 689.751 215.085 697.466C233.261 705.181 300.08 705.364 315.046 705.515C322.836 705.593 376.457 705.284 426.085 704.97C473.646 704.669 550.759 704.665 598.322 704.963C647.949 705.272 701.569 705.577 709.359 705.498C724.325 705.346 791.144 705.157 809.319 697.44C827.495 689.724 840.405 523.469 835.834 482.535C830.944 438.743 807.451 409.269 779.979 392.148C760.226 347.799 720.978 242.296 689.933 229.938C667.119 220.856 642.322 219.634 586.326 219.221C545.378 218.924 478.983 218.926 438.031 219.227ZM791.832 348.769C786.97 350.912 786.678 368.894 786.683 376.308C782.937 376.69 775.828 376.482 771.673 376.744C772.953 382.628 774.326 386.775 776.968 391.764C797.386 388.035 827.46 388.048 835.94 386.781C849.699 384.724 846.661 373.545 844.58 368.185C836.078 346.282 796.695 346.627 791.832 348.769ZM232.569 348.769C227.705 346.627 188.322 346.282 179.82 368.185C177.739 373.545 174.701 384.724 188.46 386.781C196.941 388.048 227.015 388.035 247.433 391.764C250.075 386.775 251.447 382.628 252.727 376.744C248.572 376.482 241.464 376.69 237.718 376.308C237.722 368.894 237.431 350.912 232.569 348.769ZM455.039 644.282C408.458 642.442 348.046 639.957 333.145 638.883C308.067 637.074 275.34 626.247 260.067 630.477C244.795 634.707 245.575 651.982 245.575 651.982C245.575 651.982 248.532 664.369 251.602 664.468C254.243 664.555 256.782 652.349 259.737 652.462C281.997 653.312 328.826 655.14 334.529 655.151C337.267 653.111 345.736 647.468 350.922 647.793C378.052 649.493 425.596 650.379 462.095 650.829C489.776 651.171 534.665 651.171 562.354 650.829C598.851 650.379 646.387 649.493 673.514 647.793C678.7 647.468 687.169 653.111 689.907 655.151C695.611 655.143 742.439 653.312 764.699 652.462C767.654 652.349 770.194 664.555 772.835 664.468C775.904 664.369 778.861 651.982 778.861 651.982C778.861 651.982 779.641 634.707 764.369 630.477C749.096 626.247 716.37 637.074 691.291 638.883C676.39 639.957 615.975 642.442 569.394 644.283C537.817 645.53 486.617 645.53 455.039 644.282ZM461.504 518.797C418.195 518.766 369.425 518.925 363.455 520.635C349.005 524.773 316.804 576.411 317.186 581.381C317.566 586.351 335.663 624.056 350.558 628.79C359.756 631.714 419.303 633.872 463.513 635.096C490.409 635.84 534.027 635.84 560.924 635.096C605.134 633.872 664.681 631.714 673.879 628.79C688.773 624.056 706.87 586.351 707.25 581.381C707.63 576.411 675.431 524.773 660.981 520.635C655.011 518.925 606.241 518.77 562.932 518.797C534.923 518.813 489.513 518.813 461.504 518.797Z" fill="#262625"/>
<path d="M356.432 465.46C356.432 465.46 312.54 449.445 283.974 437.148C267.429 430.026 272.858 415.839 272.858 415.839C272.858 415.839 261.326 428.338 255.314 441.072C251.069 450.066 250.111 459.623 255.57 463.022C265.72 469.343 295.137 473.789 314.557 475.809C327.564 477.162 333.995 478.52 345.844 476.176C355.334 474.299 356.432 465.46 356.432 465.46ZM667.969 465.46C667.969 465.46 711.861 449.445 740.427 437.148C756.972 430.026 751.542 415.839 751.542 415.839C751.542 415.839 763.075 428.338 769.087 441.072C773.332 450.066 774.29 459.623 768.831 463.022C758.681 469.343 729.264 473.789 709.844 475.809C696.836 477.162 690.406 478.52 678.557 476.176C669.066 474.299 667.968 465.46 667.968 465.46H667.969ZM303.937 516.155C302.336 509.247 264.756 489.531 254.468 484.169C252.159 514.751 254.033 561.783 255.327 584.382C274.229 586.799 276.552 549.659 289.791 546.487C293.803 545.525 305.537 523.063 303.937 516.155ZM720.464 516.155C722.064 509.247 759.644 489.531 769.933 484.169C772.242 514.751 770.367 561.783 769.073 584.382C750.172 586.799 747.849 549.659 734.61 546.487C730.597 545.525 718.863 523.063 720.464 516.155Z" fill="#262625"/>
</g>
</g>
<defs>
<clipPath id="clip0_485_12551">
<rect width="1024" height="1024" fill="white"/>
</clipPath>
<clipPath id="clip1_485_12551">
<rect width="1024" height="1024" fill="white" transform="translate(0 -31)"/>
</clipPath>
</defs>
</svg>
