<svg width="36" height="36" viewBox="0 0 36 36" fill="none" xmlns="http://www.w3.org/2000/svg">
<g clip-path="url(#clip0_13_5801)">
<path d="M29.5195 26.753C29.1965 26.8532 27.4148 26.9694 27.4148 26.9694L27.4562 28.0632C27.4825 28.4496 27.7699 28.7569 28.0039 28.756L29.4621 28.7496C30.003 28.7472 30.3043 28.4462 30.353 27.7182C30.4386 26.44 30.4601 23.3896 30.4601 23.3896C29.9143 23.4492 29.8435 26.6525 29.5195 26.753ZM6.34948 26.753C6.02551 26.6525 5.95465 23.4492 5.40887 23.3896C5.40887 23.3896 5.4303 26.44 5.51593 27.7182C5.56468 28.4462 5.86596 28.7472 6.40684 28.7496L7.86503 28.756C8.09909 28.7569 8.38643 28.4496 8.41277 28.0632L8.45417 26.9694C8.45417 26.9694 6.67251 26.8532 6.34948 26.753ZM20.8607 9.6122C22.7652 9.63884 23.322 9.69114 24.0503 9.91653C25.0622 10.2297 26.456 13.8925 27.2357 15.6431C28.3835 16.9834 28.9757 17.655 29.1687 19.3836C29.3492 20.9994 28.7658 25.3831 28.0484 25.6877C27.3309 25.9922 26.3077 25.6967 25.7169 25.7027C25.4095 25.7058 23.2929 25.6938 21.3339 25.6816C19.4564 25.6698 16.4125 25.67 14.5351 25.6819C12.5761 25.6943 10.4596 25.7065 10.1521 25.7034C9.56131 25.6974 8.53809 25.9931 7.82063 25.6885C7.10314 25.384 6.51939 21.0004 6.6997 19.3846C6.8926 17.6559 7.48487 16.9843 8.63248 15.6439C9.41204 13.8933 10.8055 10.2303 11.8174 9.91706C12.5457 9.6916 13.1025 9.63927 15.0069 9.61245C16.6233 9.5897 19.2443 9.58958 20.8607 9.6122ZM15.0068 8.07745C12.7966 8.09394 11.8178 8.14226 10.9173 8.50082C9.69185 8.98876 8.14292 13.1535 7.36336 14.9042C6.27902 15.5801 5.35179 16.7436 5.15889 18.4723C4.97857 20.0881 5.48876 26.6508 6.20625 26.9554C6.92371 27.2598 9.56131 27.2671 10.1521 27.273C10.4596 27.2761 12.5762 27.2639 14.5352 27.2515C16.4126 27.2396 19.4565 27.2395 21.3341 27.2513C23.2929 27.2634 25.4096 27.2755 25.7171 27.2724C26.3078 27.2664 28.9454 27.259 29.6629 26.9543C30.3804 26.6497 30.89 20.087 30.7095 18.4712C30.5165 16.7426 29.5891 15.5791 28.5047 14.9033C27.725 13.1527 26.1757 8.98806 24.9503 8.50023C24.0497 8.14174 23.0708 8.09351 20.8605 8.07721C19.2441 8.06547 16.6233 8.06557 15.0068 8.07745ZM28.9725 13.191C28.7807 13.2756 28.7691 13.9854 28.7694 14.278C28.6214 14.2931 28.3409 14.2849 28.1768 14.2952C28.2273 14.5275 28.2816 14.6912 28.3859 14.8881C29.1918 14.7409 30.3789 14.7415 30.7137 14.6914C31.2569 14.6102 31.1369 14.1689 31.0548 13.9574C30.7191 13.0928 29.1645 13.1064 28.9725 13.191ZM6.89641 13.191C6.70442 13.1064 5.14983 13.0928 4.81422 13.9574C4.73208 14.1689 4.61216 14.6102 5.15528 14.6914C5.49003 14.7415 6.67717 14.7409 7.48313 14.8881C7.58744 14.6912 7.64161 14.5275 7.69214 14.2952C7.52811 14.2849 7.2475 14.2931 7.09965 14.278C7.09984 13.9854 7.08832 13.2756 6.89641 13.191ZM15.6781 24.856C13.8394 24.7834 11.4547 24.6852 10.8665 24.6428C9.87658 24.5714 8.58473 24.144 7.98187 24.311C7.37901 24.478 7.40981 25.1599 7.40981 25.1599C7.40981 25.1599 7.52653 25.6488 7.6477 25.6528C7.75195 25.6562 7.85218 25.1744 7.96882 25.1789C8.84752 25.2124 10.696 25.2846 10.9212 25.285C11.0292 25.2044 11.3635 24.9817 11.5682 24.9946C12.6392 25.0616 14.5159 25.0967 15.9567 25.1144C17.0493 25.1279 18.8213 25.1279 19.9142 25.1144C21.3549 25.0967 23.2314 25.0616 24.3021 24.9946C24.5069 24.9817 24.8412 25.2044 24.9492 25.285C25.1744 25.2847 27.0229 25.2124 27.9015 25.1789C28.0182 25.1744 28.1185 25.6562 28.2227 25.6528C28.3439 25.6488 28.4606 25.1599 28.4606 25.1599C28.4606 25.1599 28.4913 24.478 27.8886 24.311C27.2857 24.144 25.9938 24.5714 25.0039 24.6428C24.4157 24.6852 22.0309 24.7834 20.1921 24.856C18.9457 24.9052 16.9247 24.9052 15.6781 24.856ZM15.9333 19.9026C14.2238 19.9014 12.2986 19.9076 12.063 19.9751C11.4926 20.1385 10.2215 22.1768 10.2366 22.373C10.2516 22.5692 10.9659 24.0575 11.5539 24.2444C11.9169 24.3599 14.2675 24.4451 16.0126 24.4933C17.0743 24.5227 18.7961 24.5227 19.8578 24.4933C21.603 24.4451 23.9534 24.3599 24.3165 24.2444C24.9045 24.0575 25.6188 22.5692 25.6338 22.373C25.6488 22.1768 24.3779 20.1385 23.8074 19.9751C23.5718 19.9076 21.6467 19.9015 19.937 19.9026C18.8315 19.9032 17.0389 19.9032 15.9333 19.9026Z" fill="black" fill-opacity="0.85"/>
<path d="M11.7857 17.7971C11.7857 17.7971 10.0532 17.1649 8.92555 16.6795C8.27246 16.3984 8.48677 15.8384 8.48677 15.8384C8.48677 15.8384 8.03155 16.3317 7.79424 16.8344C7.62667 17.1895 7.58885 17.5667 7.80434 17.7009C8.205 17.9504 9.36621 18.1259 10.1328 18.2056C10.6462 18.259 10.9001 18.3126 11.3678 18.2201C11.7424 18.146 11.7857 17.7971 11.7857 17.7971ZM24.0833 17.7971C24.0833 17.7971 25.8158 17.1649 26.9435 16.6795C27.5965 16.3984 27.3822 15.8384 27.3822 15.8384C27.3822 15.8384 27.8375 16.3317 28.0747 16.8344C28.2423 17.1895 28.2801 17.5667 28.0646 17.7009C27.6639 17.9504 26.5028 18.1259 25.7363 18.2056C25.2228 18.259 24.969 18.3126 24.5012 18.2201C24.1266 18.146 24.0833 17.7971 24.0833 17.7971ZM9.71357 19.7982C9.6504 19.5255 8.16697 18.7473 7.76083 18.5356C7.66969 19.7428 7.74368 21.5994 7.79477 22.4914C8.54089 22.5868 8.63257 21.1208 9.15517 20.9955C9.31356 20.9576 9.77675 20.0709 9.71357 19.7982ZM26.1554 19.7982C26.2185 19.5255 27.702 18.7473 28.1082 18.5356C28.1993 19.7428 28.1253 21.5994 28.0742 22.4914C27.3281 22.5868 27.2364 21.1208 26.7138 20.9955C26.5554 20.9576 26.0922 20.0709 26.1554 19.7982Z" fill="black" fill-opacity="0.85"/>
</g>
<defs>
<clipPath id="clip0_13_5801">
<rect width="26.3843" height="21.8048" fill="white" transform="translate(4.74237 6.95105)"/>
</clipPath>
</defs>
</svg>
