<svg width="1024" height="1024" viewBox="0 0 1024 1024" fill="none" xmlns="http://www.w3.org/2000/svg">
<g clip-path="url(#clip0_315_16998)">
<path d="M805.687 723.34C797.504 725.88 752.368 728.823 752.368 728.823L753.417 756.532C754.084 766.32 761.364 774.108 767.293 774.082L804.234 773.922C817.936 773.86 825.569 766.236 826.804 747.792C828.971 715.412 829.516 638.134 829.516 638.134C815.69 639.645 813.894 720.793 805.687 723.34ZM218.714 723.34C210.506 720.793 208.711 639.645 194.885 638.134C194.885 638.134 195.428 715.412 197.597 747.792C198.832 766.236 206.464 773.86 220.167 773.922L257.107 774.082C263.037 774.105 270.316 766.32 270.984 756.532L272.033 728.823C272.033 728.823 226.897 725.88 218.714 723.34ZM586.33 289.107C634.577 289.782 648.682 291.107 667.133 296.817C692.768 304.75 728.077 397.542 747.83 441.891C776.906 475.845 791.911 492.857 796.802 536.649C801.373 577.583 786.594 688.636 768.419 696.352C750.244 704.069 724.322 696.581 709.356 696.733C701.566 696.812 647.947 696.508 598.32 696.198C550.757 695.901 473.644 695.905 426.082 696.205C376.456 696.52 322.836 696.828 315.046 696.75C300.08 696.6 274.158 704.09 255.983 696.375C237.806 688.659 223.018 577.608 227.586 536.674C232.473 492.881 247.477 475.868 276.549 441.911C296.298 397.561 331.599 304.766 357.233 296.831C375.684 291.119 389.789 289.793 438.035 289.114C478.984 288.537 545.382 288.534 586.33 289.107ZM438.031 250.227C382.04 250.645 357.243 251.869 334.431 260.953C303.387 273.314 264.147 378.821 244.398 423.171C216.929 440.294 193.438 469.77 188.552 513.563C183.984 554.497 196.909 720.751 215.085 728.466C233.261 736.181 300.08 736.364 315.046 736.515C322.836 736.593 376.457 736.284 426.085 735.97C473.646 735.669 550.759 735.665 598.322 735.963C647.949 736.272 701.569 736.577 709.359 736.498C724.325 736.346 791.144 736.157 809.319 728.44C827.495 720.724 840.405 554.469 835.834 513.535C830.944 469.743 807.451 440.269 779.979 423.148C760.226 378.799 720.978 273.296 689.933 260.938C667.119 251.856 642.322 250.634 586.326 250.221C545.378 249.924 478.983 249.926 438.031 250.227ZM791.832 379.769C786.97 381.912 786.678 399.894 786.683 407.308C782.937 407.69 775.828 407.482 771.673 407.744C772.953 413.628 774.326 417.775 776.968 422.764C797.386 419.035 827.46 419.048 835.94 417.781C849.699 415.724 846.661 404.545 844.58 399.185C836.078 377.282 796.695 377.627 791.832 379.769ZM232.569 379.769C227.705 377.627 188.322 377.282 179.82 399.185C177.739 404.545 174.701 415.724 188.46 417.781C196.941 419.048 227.015 419.035 247.433 422.764C250.075 417.775 251.447 413.628 252.727 407.744C248.572 407.482 241.463 407.69 237.718 407.308C237.722 399.894 237.431 381.912 232.569 379.769ZM455.039 675.282C408.458 673.442 348.046 670.957 333.145 669.883C308.067 668.074 275.34 657.247 260.067 661.477C244.795 665.707 245.575 682.982 245.575 682.982C245.575 682.982 248.532 695.369 251.602 695.468C254.243 695.555 256.782 683.349 259.737 683.462C281.997 684.312 328.826 686.14 334.529 686.151C337.267 684.111 345.736 678.468 350.922 678.793C378.052 680.493 425.596 681.379 462.095 681.829C489.776 682.171 534.665 682.171 562.354 681.829C598.851 681.379 646.387 680.493 673.514 678.793C678.7 678.468 687.169 684.111 689.907 686.151C695.611 686.143 742.439 684.312 764.699 683.462C767.654 683.349 770.194 695.555 772.835 695.468C775.904 695.369 778.861 682.982 778.861 682.982C778.861 682.982 779.641 665.707 764.369 661.477C749.096 657.247 716.37 668.074 691.291 669.883C676.39 670.957 615.975 673.442 569.394 675.283C537.817 676.53 486.617 676.53 455.039 675.282ZM461.504 549.797C418.195 549.766 369.425 549.925 363.455 551.635C349.005 555.773 316.804 607.411 317.186 612.381C317.566 617.351 335.663 655.056 350.558 659.79C359.756 662.714 419.303 664.872 463.513 666.096C490.409 666.84 534.027 666.84 560.924 666.096C605.134 664.872 664.681 662.714 673.879 659.79C688.773 655.056 706.87 617.351 707.25 612.381C707.63 607.411 675.431 555.773 660.981 551.635C655.011 549.925 606.241 549.77 562.932 549.797C534.923 549.813 489.513 549.813 461.504 549.797Z" fill="#262625"/>
<path d="M356.432 496.46C356.432 496.46 312.54 480.445 283.974 468.148C267.429 461.026 272.858 446.839 272.858 446.839C272.858 446.839 261.326 459.338 255.314 472.072C251.069 481.066 250.111 490.623 255.57 494.022C265.72 500.343 295.137 504.789 314.557 506.809C327.564 508.162 333.995 509.52 345.844 507.176C355.334 505.299 356.432 496.46 356.432 496.46ZM667.969 496.46C667.969 496.46 711.861 480.445 740.427 468.148C756.972 461.026 751.542 446.839 751.542 446.839C751.542 446.839 763.075 459.338 769.087 472.072C773.332 481.066 774.29 490.623 768.831 494.022C758.681 500.343 729.264 504.789 709.844 506.809C696.836 508.162 690.406 509.52 678.557 507.176C669.066 505.299 667.968 496.46 667.968 496.46H667.969ZM303.937 547.155C302.336 540.247 264.756 520.531 254.468 515.169C252.159 545.751 254.033 592.783 255.327 615.382C274.229 617.799 276.552 580.659 289.791 577.487C293.803 576.525 305.537 554.063 303.937 547.155ZM720.464 547.155C722.064 540.247 759.644 520.531 769.933 515.169C772.242 545.751 770.367 592.783 769.073 615.382C750.172 617.799 747.849 580.659 734.61 577.487C730.597 576.525 718.863 554.063 720.464 547.155Z" fill="#262625"/>
</g>
<defs>
<clipPath id="clip0_315_16998">
<rect width="1024" height="1024" fill="white"/>
</clipPath>
</defs>
</svg>
