<svg width="1024" height="1024" viewBox="0 0 1024 1024" fill="none" xmlns="http://www.w3.org/2000/svg">
<g clip-path="url(#clip0_485_12575)">
<g clip-path="url(#clip1_485_12575)">
<path d="M810.428 696.109C802.245 698.648 746.289 698.456 746.289 698.456L747.338 725.853C748.005 735.641 758.858 743.425 764.788 743.403L807.684 743.243C821.387 743.189 832.295 735.557 833.53 717.113C835.697 684.733 836.54 671.604 836.54 671.604C822.713 673.115 818.636 693.562 810.428 696.109ZM214.35 696.109C206.143 693.562 202.065 673.115 188.239 671.604C188.239 671.604 189.081 684.733 191.249 717.113C192.484 735.557 203.392 743.189 217.094 743.243L259.991 743.403C265.92 743.426 276.773 735.641 277.44 725.853L278.489 698.456C278.489 698.456 222.533 698.648 214.35 696.109ZM438.279 671.815C377.977 669.839 302.382 667.403 293.531 667.314C278.565 667.163 250.618 667.44 232.442 659.725C214.265 652.01 213.948 525.711 218.516 484.777C223.403 440.984 257.44 408.266 286.513 374.31C306.262 329.96 342.593 261.745 358.484 258.356C369.083 256.097 384.147 254.759 426.261 253.812C473.811 252.743 550.933 252.74 598.484 253.805C640.596 254.748 655.661 256.084 666.259 258.343C682.151 261.73 718.489 329.942 738.242 374.29C767.317 408.244 801.357 440.959 806.247 484.751C810.819 525.685 810.513 651.984 792.337 659.701C774.162 667.417 746.214 667.142 731.248 667.295C722.397 667.385 646.801 669.827 586.5 671.808C545.57 673.153 479.209 673.156 438.279 671.815ZM438.222 214.42C382.243 215.179 358.774 216.265 344.5 219.496C325.089 223.89 272.634 311.836 252.885 356.186C223.813 390.143 192.754 416.061 184.243 452.604C174.899 492.719 177.627 690.573 195.803 698.288C213.979 706.003 278.565 705.641 293.531 705.792C301.805 705.875 368.403 707.832 426.311 709.565C473.853 710.989 550.931 710.985 598.473 709.558C656.38 707.819 722.978 705.857 731.251 705.773C746.217 705.621 810.804 705.977 828.979 698.26C847.155 690.544 849.865 492.689 840.518 452.576C832.004 416.033 800.942 390.118 771.867 356.164C752.114 311.815 699.652 223.874 680.24 219.482C665.966 216.252 642.496 215.168 586.517 214.414C545.569 213.86 479.171 213.863 438.222 214.42ZM780.101 315.868C776.288 318.801 778.716 337.893 778.251 346.351C774.505 346.733 767.396 346.525 763.241 346.788C764.521 352.671 766.365 354.109 769.007 359.098C789.778 357.606 816.807 358.131 823.974 357.059C831.141 355.988 836.471 350.522 837.069 348.256C837.666 345.99 836.096 335.944 835.677 332.574C833.717 316.677 783.914 312.934 780.101 315.868ZM244.677 315.868C240.864 312.934 191.061 316.677 189.102 332.574C188.683 335.944 187.111 345.99 187.71 348.256C188.307 350.522 193.638 355.988 200.805 357.059C207.972 358.131 235 357.606 255.771 359.098C258.414 354.109 260.257 352.671 261.537 346.788C257.382 346.525 250.273 346.733 246.528 346.351C246.062 337.893 248.49 318.801 244.677 315.868ZM455.189 598.473C408.478 597.902 348.68 597.208 339.156 597.282C323.187 597.406 295.977 622.564 280.704 626.793C270.198 629.703 244.384 622.976 229.7 618.666C229.397 618.577 228.864 602.131 228.864 602.131C228.864 602.131 239.814 601.53 242.364 597.591C249.957 585.867 254.789 556.983 256.624 545.615C258.15 536.159 244.943 528.072 246.891 526.506C256.706 518.614 310.167 499.416 310.167 499.416C310.167 499.416 249.51 443.271 251.112 428.634C251.112 428.634 246.711 423.19 246.776 416.285C239.503 426.271 226.543 448.992 218.02 471.831C209.496 494.669 215.432 616.634 215.432 616.634C215.432 616.634 221.065 643.255 224.67 655.236C225.596 658.314 228.942 662.155 232.001 663.055C233.288 663.434 234.764 663.816 236.385 664.196C260.194 669.775 300.099 670.636 324.576 671.247C368.257 672.339 433.891 674.037 474.936 675.103C495.631 675.641 529.183 675.641 549.879 675.103C613.293 673.455 735.404 670.301 744.561 670.204C756.973 670.073 795.283 664.466 798.074 660.675C800.865 656.883 809.382 616.634 809.382 616.634C809.382 616.634 815.318 494.669 806.794 471.831C798.271 448.992 785.311 426.271 778.038 416.285C778.116 423.19 773.702 428.634 773.702 428.634C775.304 443.271 714.647 499.416 714.647 499.416C714.647 499.416 768.108 518.614 777.923 526.506C779.871 528.072 766.664 536.159 768.19 545.615C770.025 556.983 774.857 585.867 782.45 597.591C785 601.53 795.95 602.131 795.95 602.131C795.95 602.131 795.415 618.577 795.115 618.666C780.43 622.976 754.616 629.703 744.11 626.793C728.837 622.564 701.627 597.406 685.658 597.282C676.134 597.205 616.335 597.901 569.624 598.473C538.023 598.859 486.79 598.859 455.189 598.473ZM461.693 485.979C416.96 485.703 365.27 484.793 357.1 482.237C345.334 478.555 338.599 485.803 339.155 489.716C339.714 493.629 367.929 503.081 376.305 505.525C381.183 506.949 426.607 508.028 463.693 508.68C490.596 509.154 534.218 509.154 561.122 508.68C598.207 508.027 643.631 506.949 648.509 505.525C656.885 503.081 685.1 493.629 685.659 489.716C686.217 485.803 679.48 478.555 667.714 482.237C659.544 484.793 607.853 485.703 563.12 485.979C535.113 486.152 489.701 486.152 461.693 485.979Z" fill="#262625"/>
<path d="M682.084 452.491L655.273 476.515C655.273 476.515 691.426 497.695 714.607 499.417C722.642 498.702 774.21 488.92 779.493 474.155C784.775 459.39 773.666 428.635 773.666 428.635C773.666 428.635 773.929 436.401 756.283 440.021C728.587 445.702 682.084 452.491 682.084 452.491ZM342.693 452.491C342.693 452.491 296.189 445.702 268.494 440.021C250.849 436.401 251.111 428.635 251.111 428.635C251.111 428.635 240.001 459.39 245.284 474.155C250.566 488.92 302.134 498.702 310.169 499.417C333.35 497.695 369.503 476.515 369.503 476.515L342.693 452.491Z" fill="#262625"/>
</g>
</g>
<defs>
<clipPath id="clip0_485_12575">
<rect width="1024" height="1024" fill="white"/>
</clipPath>
<clipPath id="clip1_485_12575">
<rect width="1024" height="1024" fill="white" transform="translate(0 -33)"/>
</clipPath>
</defs>
</svg>
