<svg width="36" height="36" viewBox="0 0 36 36" fill="none" xmlns="http://www.w3.org/2000/svg">
<g clip-path="url(#clip0_241_7617)">
<path d="M29.4318 26.8891C29.1088 26.9893 26.8999 26.9817 26.8999 26.9817L26.9413 28.0632C26.9677 28.4496 27.3961 28.7568 27.6301 28.7559L29.3234 28.7496C29.8643 28.7475 30.295 28.4462 30.3437 27.7182C30.4292 26.4399 30.4625 25.9218 30.4625 25.9218C29.9167 25.9814 29.7557 26.7885 29.4318 26.8891ZM5.90235 26.8891C5.57838 26.7885 5.41742 25.9814 4.87164 25.9218C4.87164 25.9218 4.90489 26.4399 4.99046 27.7182C5.03921 28.4462 5.46979 28.7475 6.01067 28.7496L7.70396 28.7559C7.93802 28.7569 8.36642 28.4496 8.39275 28.0632L8.43416 26.9817C8.43416 26.9817 6.22538 26.9893 5.90235 26.8891ZM14.7416 25.93C12.3613 25.852 9.37729 25.7559 9.02793 25.7524C8.43716 25.7464 7.33397 25.7574 6.61651 25.4528C5.89902 25.1482 5.88649 20.1628 6.0668 18.547C6.25971 16.8183 7.60327 15.5268 8.75088 14.1864C9.53045 12.4358 10.9646 9.74305 11.5919 9.60931C12.0102 9.5201 12.6049 9.4673 14.2672 9.42994C16.1442 9.38773 19.1885 9.3876 21.0655 9.42964C22.7279 9.46686 23.3225 9.51961 23.7409 9.60878C24.3682 9.74248 25.8025 12.4351 26.5823 14.1857C27.73 15.5259 29.0737 16.8173 29.2667 18.546C29.4472 20.1618 29.435 25.1473 28.7177 25.4518C28.0002 25.7565 26.8969 25.7456 26.3062 25.7516C25.9568 25.7552 22.9728 25.8516 20.5925 25.9298C18.9768 25.9828 16.3573 25.983 14.7416 25.93ZM14.7394 7.87498C12.5297 7.90495 11.6033 7.94781 11.0398 8.07535C10.2736 8.2488 8.20305 11.7204 7.42349 13.471C6.27589 14.8114 5.04988 15.8345 4.7139 17.277C4.34509 18.8605 4.45275 26.6706 5.17024 26.975C5.8877 27.2796 8.43716 27.2653 9.02793 27.2713C9.35451 27.2745 11.9834 27.3518 14.2692 27.4202C16.1459 27.4764 19.1885 27.4762 21.065 27.42C23.3509 27.3513 25.9798 27.2738 26.3064 27.2706C26.8972 27.2646 29.4466 27.2786 30.164 26.9739C30.8815 26.6694 30.9884 18.8593 30.6196 17.2759C30.2834 15.8334 29.0573 14.8104 27.9096 13.4701C27.1298 11.7195 25.059 8.24816 24.2928 8.07478C23.7293 7.94728 22.8029 7.90451 20.5932 7.87472C18.9768 7.85285 16.3558 7.85297 14.7394 7.87498ZM28.2347 11.8795C28.0841 11.9953 28.18 12.7489 28.1616 13.0828C28.0138 13.0979 27.7331 13.0897 27.5692 13.1C27.6197 13.3323 27.6924 13.389 27.7967 13.586C28.6166 13.5271 29.6836 13.5478 29.9664 13.5055C30.2494 13.4632 30.4597 13.2474 30.4834 13.158C30.5069 13.0685 30.445 12.672 30.4284 12.539C30.351 11.9115 28.3852 11.7637 28.2347 11.8795ZM7.09949 11.8795C6.94897 11.7637 4.98306 11.9115 4.9057 12.539C4.88917 12.672 4.82712 13.0685 4.85076 13.158C4.87434 13.2474 5.08476 13.4632 5.36767 13.5055C5.65057 13.5478 6.71748 13.5271 7.5374 13.586C7.64172 13.389 7.71447 13.3323 7.76501 13.1C7.60098 13.0897 7.32037 13.0979 7.17252 13.0828C7.15415 12.7489 7.25 11.9953 7.09949 11.8795ZM15.4092 23.0349C13.5653 23.0125 11.2049 22.9851 10.8289 22.988C10.1985 22.9929 9.12446 23.9859 8.52159 24.153C8.10689 24.2678 7.08791 24.0022 6.50826 23.8321C6.49631 23.8286 6.47527 23.1794 6.47527 23.1794C6.47527 23.1794 6.9075 23.1556 7.00815 23.0002C7.30788 22.5374 7.49863 21.3972 7.57106 20.9485C7.63129 20.5753 7.10999 20.256 7.18685 20.1942C7.5743 19.8826 9.68461 19.1248 9.68461 19.1248C9.68461 19.1248 7.29024 16.9086 7.35348 16.3308C7.35348 16.3308 7.17978 16.1159 7.18232 15.8433C6.89522 16.2375 6.38367 17.1344 6.04721 18.0359C5.71074 18.9374 5.94505 23.7519 5.94505 23.7519C5.94505 23.7519 6.16741 24.8026 6.30972 25.2757C6.34628 25.3971 6.47833 25.5487 6.59911 25.5843C6.64992 25.5992 6.70817 25.6143 6.77214 25.6293C7.71199 25.8495 9.28717 25.8835 10.2534 25.9077C11.9776 25.9508 14.5685 26.0178 16.1886 26.0599C17.0056 26.0811 18.33 26.0811 19.147 26.0599C21.6502 25.9948 26.4703 25.8703 26.8318 25.8664C27.3217 25.8613 28.834 25.64 28.9441 25.4904C29.0543 25.3407 29.3905 23.7519 29.3905 23.7519C29.3905 23.7519 29.6248 18.9374 29.2883 18.0359C28.9518 17.1344 28.4404 16.2375 28.1532 15.8433C28.1563 16.1159 27.9821 16.3308 27.9821 16.3308C28.0453 16.9086 25.651 19.1248 25.651 19.1248C25.651 19.1248 27.7612 19.8826 28.1486 20.1942C28.2256 20.256 27.7043 20.5753 27.7645 20.9485C27.8369 21.3972 28.0277 22.5374 28.3273 23.0002C28.428 23.1556 28.8602 23.1794 28.8602 23.1794C28.8602 23.1794 28.8391 23.8286 28.8272 23.8321C28.2476 24.0022 27.2286 24.2678 26.8139 24.153C26.2111 23.9859 25.137 22.9929 24.5066 22.988C24.1307 22.9849 21.7702 23.0125 19.9264 23.0349C18.679 23.0503 16.6566 23.0503 15.4092 23.0349ZM15.6659 18.5944C13.9001 18.5835 11.8597 18.5476 11.5372 18.4467C11.0728 18.3014 10.8069 18.5875 10.8289 18.7419C10.8509 18.8964 11.9647 19.2696 12.2953 19.366C12.4879 19.4222 14.2809 19.4648 15.7449 19.4906C16.8068 19.5092 18.5287 19.5092 19.5907 19.4906C21.0546 19.4648 22.8476 19.4222 23.0402 19.366C23.3708 19.2696 24.4846 18.8964 24.5066 18.7419C24.5287 18.5875 24.2627 18.3014 23.7983 18.4467C23.4758 18.5476 21.4354 18.5835 19.6696 18.5944C18.564 18.6013 16.7714 18.6013 15.6659 18.5944Z" fill="black" fill-opacity="0.85"/>
<path d="M24.3655 17.2725L23.3072 18.2208C23.3072 18.2208 24.7344 19.0568 25.6494 19.1248C25.9665 19.0966 28.0021 18.7105 28.2107 18.1277C28.4191 17.5448 27.9806 16.3308 27.9806 16.3308C27.9806 16.3308 27.991 16.6374 27.2944 16.7803C26.2012 17.0045 24.3655 17.2725 24.3655 17.2725ZM10.9685 17.2725C10.9685 17.2725 9.13286 17.0045 8.03961 16.7803C7.34309 16.6374 7.35345 16.3308 7.35345 16.3308C7.35345 16.3308 6.91491 17.5448 7.12343 18.1277C7.33195 18.7105 9.36753 19.0966 9.6847 19.1248C10.5997 19.0568 12.0268 18.2208 12.0268 18.2208L10.9685 17.2725Z" fill="black" fill-opacity="0.85"/>
</g>
<defs>
<clipPath id="clip0_241_7617">
<rect width="26.3201" height="21.8048" fill="white" transform="translate(4.50696 6.95105)"/>
</clipPath>
</defs>
</svg>
