<svg width="1024" height="1024" viewBox="0 0 1024 1024" fill="none" xmlns="http://www.w3.org/2000/svg">
<g clip-path="url(#clip0_315_17015)">
<path d="M810.428 729.109C802.245 731.648 746.289 731.456 746.289 731.456L747.338 758.853C748.005 768.641 758.858 776.425 764.788 776.403L807.684 776.243C821.387 776.189 832.295 768.557 833.53 750.113C835.697 717.733 836.54 704.604 836.54 704.604C822.713 706.115 818.636 726.562 810.428 729.109ZM214.35 729.109C206.143 726.562 202.065 706.115 188.239 704.604C188.239 704.604 189.081 717.733 191.249 750.113C192.484 768.557 203.392 776.189 217.094 776.243L259.991 776.403C265.92 776.426 276.773 768.641 277.44 758.853L278.489 731.456C278.489 731.456 222.533 731.648 214.35 729.109ZM438.279 704.815C377.977 702.839 302.382 700.403 293.531 700.314C278.565 700.163 250.618 700.44 232.442 692.725C214.265 685.01 213.948 558.711 218.516 517.777C223.403 473.984 257.44 441.266 286.513 407.31C306.262 362.96 342.593 294.745 358.484 291.356C369.083 289.097 384.147 287.759 426.261 286.812C473.811 285.743 550.933 285.74 598.484 286.805C640.596 287.748 655.661 289.084 666.259 291.343C682.151 294.73 718.489 362.942 738.242 407.29C767.317 441.244 801.357 473.959 806.247 517.751C810.819 558.685 810.513 684.984 792.337 692.701C774.162 700.417 746.214 700.142 731.248 700.295C722.397 700.385 646.801 702.827 586.5 704.808C545.57 706.153 479.209 706.156 438.279 704.815ZM438.222 247.42C382.243 248.179 358.774 249.265 344.5 252.496C325.089 256.89 272.634 344.836 252.885 389.186C223.813 423.143 192.754 449.061 184.243 485.604C174.899 525.719 177.627 723.573 195.803 731.288C213.979 739.003 278.565 738.641 293.531 738.792C301.805 738.875 368.403 740.832 426.311 742.565C473.853 743.989 550.931 743.985 598.473 742.558C656.38 740.819 722.978 738.857 731.251 738.773C746.217 738.621 810.804 738.977 828.979 731.26C847.155 723.544 849.865 525.689 840.518 485.576C832.004 449.033 800.942 423.118 771.867 389.164C752.114 344.815 699.652 256.874 680.24 252.482C665.966 249.252 642.496 248.168 586.517 247.414C545.569 246.86 479.171 246.863 438.222 247.42ZM780.101 348.868C776.288 351.801 778.716 370.893 778.251 379.351C774.505 379.733 767.396 379.525 763.241 379.788C764.521 385.671 766.365 387.109 769.007 392.098C789.778 390.606 816.807 391.131 823.974 390.059C831.141 388.988 836.471 383.522 837.069 381.256C837.666 378.99 836.096 368.944 835.677 365.574C833.717 349.677 783.914 345.934 780.101 348.868ZM244.677 348.868C240.864 345.934 191.061 349.677 189.102 365.574C188.683 368.944 187.111 378.99 187.71 381.256C188.307 383.522 193.638 388.988 200.805 390.059C207.971 391.131 235 390.606 255.771 392.098C258.414 387.109 260.257 385.671 261.537 379.788C257.382 379.525 250.273 379.733 246.528 379.351C246.062 370.893 248.49 351.801 244.677 348.868ZM455.189 631.473C408.478 630.902 348.68 630.208 339.156 630.282C323.187 630.406 295.977 655.564 280.704 659.793C270.198 662.703 244.384 655.976 229.7 651.666C229.397 651.577 228.864 635.131 228.864 635.131C228.864 635.131 239.814 634.53 242.364 630.591C249.957 618.867 254.789 589.983 256.624 578.615C258.15 569.159 244.943 561.072 246.891 559.506C256.706 551.614 310.167 532.416 310.167 532.416C310.167 532.416 249.51 476.271 251.112 461.634C251.112 461.634 246.711 456.19 246.776 449.285C239.503 459.271 226.543 481.992 218.02 504.831C209.496 527.669 215.432 649.634 215.432 649.634C215.432 649.634 221.065 676.255 224.67 688.236C225.596 691.314 228.942 695.155 232.001 696.055C233.288 696.434 234.764 696.816 236.385 697.196C260.194 702.775 300.099 703.636 324.576 704.247C368.257 705.339 433.891 707.037 474.936 708.103C495.631 708.641 529.183 708.641 549.879 708.103C613.293 706.455 735.404 703.301 744.561 703.204C756.973 703.073 795.283 697.466 798.074 693.675C800.865 689.883 809.382 649.634 809.382 649.634C809.382 649.634 815.318 527.669 806.794 504.831C798.271 481.992 785.311 459.271 778.038 449.285C778.116 456.19 773.702 461.634 773.702 461.634C775.304 476.271 714.647 532.416 714.647 532.416C714.647 532.416 768.108 551.614 777.923 559.506C779.871 561.072 766.664 569.159 768.19 578.615C770.025 589.983 774.857 618.867 782.45 630.591C785 634.53 795.95 635.131 795.95 635.131C795.95 635.131 795.415 651.577 795.115 651.666C780.43 655.976 754.616 662.703 744.11 659.793C728.837 655.564 701.627 630.406 685.658 630.282C676.134 630.205 616.335 630.901 569.624 631.473C538.023 631.859 486.79 631.859 455.189 631.473ZM461.693 518.979C416.96 518.703 365.27 517.793 357.1 515.237C345.334 511.555 338.599 518.803 339.155 522.716C339.714 526.629 367.929 536.081 376.305 538.525C381.183 539.949 426.607 541.028 463.693 541.68C490.596 542.154 534.218 542.154 561.122 541.68C598.207 541.027 643.631 539.949 648.509 538.525C656.885 536.081 685.1 526.629 685.659 522.716C686.217 518.803 679.48 511.555 667.714 515.237C659.544 517.793 607.853 518.703 563.12 518.979C535.113 519.152 489.701 519.152 461.693 518.979Z" fill="#262625"/>
<path d="M682.084 485.491L655.273 509.515C655.273 509.515 691.426 530.695 714.607 532.417C722.642 531.702 774.21 521.92 779.493 507.155C784.775 492.39 773.666 461.635 773.666 461.635C773.666 461.635 773.929 469.401 756.283 473.021C728.587 478.702 682.084 485.491 682.084 485.491ZM342.693 485.491C342.693 485.491 296.189 478.702 268.494 473.021C250.849 469.401 251.111 461.635 251.111 461.635C251.111 461.635 240.001 492.39 245.284 507.155C250.566 521.92 302.134 531.702 310.169 532.417C333.35 530.695 369.503 509.515 369.503 509.515L342.693 485.491Z" fill="#262625"/>
</g>
<defs>
<clipPath id="clip0_315_17015">
<rect width="1024" height="1024" fill="white"/>
</clipPath>
</defs>
</svg>
