<svg width="1024" height="1024" viewBox="0 0 1024 1024" fill="none" xmlns="http://www.w3.org/2000/svg">
<g clip-path="url(#clip0_854_13489)">
<g clip-path="url(#clip1_854_13489)">
<path d="M804.36 714.589C795.791 714.589 743.804 716.624 743.804 716.624L744.853 725.716C745.52 735.504 752.8 743.287 758.729 743.266L802.907 743.106C816.609 743.059 823.975 735.4 825.477 716.975C826.097 709.406 825.865 703.516 825.865 703.516C812.038 705.027 812.954 714.589 804.362 714.589H804.36ZM218.924 714.589H218.923C210.33 714.589 211.246 705.027 197.419 703.516C197.419 703.516 197.187 709.406 197.807 716.975C199.309 735.4 206.675 743.059 220.377 743.106L264.555 743.266C270.484 743.289 277.764 735.504 278.431 725.716L279.48 716.624C279.48 716.624 227.493 714.589 218.924 714.589ZM437.495 301.6C478.42 300.1 544.83 300.097 585.75 301.593C607.695 302.395 626.386 303.493 639.194 304.977C645.204 305.673 646.668 304.25 651.34 306.023C675.878 315.332 711.477 368.812 731.23 413.16C732.395 414.52 735.967 412.901 737.136 414.19C742.55 420.162 743.229 423.519 748.377 428.586C752.274 432.421 760.082 434.149 763.932 437.892C781.317 454.792 791.91 478.997 799.117 505.989C805.996 531.751 807.001 591.797 803.347 633.147C802.089 647.384 808.485 654.994 806.752 663.973C805.299 671.518 803.073 676.529 799.846 677.899C781.671 685.615 724.693 681.695 709.727 681.847C701.914 681.926 647.753 681.808 597.764 681.675C550.201 681.549 473.086 681.552 425.524 681.682C375.534 681.819 321.374 681.943 313.56 681.865C298.594 681.714 241.616 685.639 223.44 677.924C220.214 676.554 217.987 671.544 216.534 663.999C214.8 655.02 221.195 647.41 219.936 633.172C216.279 591.823 217.278 531.776 224.155 506.014C231.36 479.021 241.95 454.816 259.334 437.914C263.183 434.171 270.991 432.443 274.888 428.607C280.036 423.539 280.714 420.182 286.128 414.21C287.296 412.922 290.869 414.539 292.033 413.18C311.782 368.83 347.377 315.347 371.914 306.035C376.586 304.262 378.049 305.685 384.06 304.988C396.866 303.504 415.554 302.404 437.495 301.6ZM437.488 262.895C409.235 263.714 384.206 264.875 370.248 266.492C364.238 267.189 362.774 265.766 358.102 267.539C333.566 276.851 284.102 337.637 264.353 381.988C263.188 383.347 259.616 381.729 258.448 383.018C253.033 388.99 252.356 392.347 247.208 397.415C243.311 401.25 235.503 402.978 231.653 406.722C214.27 423.624 190.462 478.642 183.257 505.634C176.38 531.397 181.971 625.543 185.626 666.892C186.885 681.13 180.327 689.149 182.061 698.128C183.514 705.673 185.904 711.746 189.13 713.115C207.306 720.83 298.594 720.58 313.56 720.731C321.374 720.809 375.536 720.684 425.526 720.549C473.088 720.418 550.203 720.415 597.766 720.541C647.755 720.674 701.917 720.793 709.73 720.713C724.696 720.561 815.985 720.804 834.16 713.087C837.386 711.717 839.775 705.644 841.228 698.099C842.961 689.12 836.402 681.101 837.66 666.863C841.311 625.514 846.894 531.367 840.015 505.605C832.807 478.613 808.994 423.597 791.609 406.697C787.76 402.954 779.952 401.227 776.054 397.391C770.906 392.324 770.228 388.967 764.814 382.996C763.645 381.707 760.073 383.325 758.908 381.966C739.155 337.617 689.686 276.835 665.148 267.526C660.476 265.753 659.012 267.176 653.002 266.48C639.042 264.863 614.007 263.705 585.748 262.888C544.821 261.701 478.423 261.705 437.488 262.895ZM767.735 352.454H767.737C765.161 353.416 760.325 366.887 760.86 374.307C761.248 379.678 764.262 379.108 764.264 381.491C760.518 381.874 762.227 382.988 762.04 386.513C763.32 392.397 773.246 396.809 775.888 401.797C780.823 396.347 778.678 397.677 784.111 391.539C793.449 389.846 801.278 388.464 805.585 387.82C811.126 386.992 813.885 385.196 815.146 383.139C815.867 381.957 814.797 380.748 814.874 379.71C815.068 376.865 819.384 371.596 817.486 368.078C814.981 363.437 805.788 353.887 799.611 353.344C785.91 352.14 770.311 351.492 767.735 352.454ZM255.549 352.454C252.973 351.492 237.375 352.14 223.673 353.344C217.496 353.887 208.303 363.437 205.798 368.078C203.9 371.596 208.217 376.865 208.41 379.71C208.487 380.748 207.416 381.957 208.138 383.139C209.399 385.196 212.158 386.992 217.699 387.82C222.006 388.464 229.835 389.846 239.173 391.539C244.606 397.677 242.461 396.347 247.396 401.797C250.038 396.809 259.964 392.397 261.244 386.513C261.058 382.988 262.766 381.874 259.02 381.491C259.022 379.108 262.037 379.678 262.424 374.307C262.959 366.887 258.123 353.416 255.547 352.454H255.549ZM454.439 561.284C431.916 561.131 409.07 561 399.093 561.017C376.323 561.056 359.951 579.719 354.844 581.016C349.737 582.314 305.453 574.483 282.159 570.405C289.115 563.493 310.561 563.048 302.435 561.457C297.458 560.483 281.115 560.624 269.888 564.636C258.66 568.648 230.99 623.987 232.631 637.882C234.271 651.777 261.828 653.023 275.526 654.377C289.223 655.73 315.724 659.321 321.347 661.024C326.97 662.727 342.748 681.536 347.934 681.861C375.311 683.577 424.254 683.504 461.556 683.119C489.23 682.832 534.102 682.833 561.792 683.119C599.09 683.505 648.015 683.577 675.386 681.861C680.572 681.536 696.35 662.727 701.973 661.024C707.596 659.321 734.097 655.73 747.794 654.377C761.492 653.023 789.049 651.777 790.689 637.882C792.329 623.987 764.659 568.648 753.432 564.636C742.204 560.624 725.862 560.483 720.885 561.457C712.759 563.048 734.205 563.493 741.161 570.405C717.867 574.483 673.583 582.314 668.476 581.016C663.368 579.719 646.997 561.056 624.227 561.017C614.25 561.002 591.403 561.131 568.88 561.284C537.279 561.498 486.041 561.498 454.439 561.284ZM482.282 509.142C425.605 504.968 328.922 492.545 315.789 489.707C324.047 503.577 330.414 504.944 335.376 507.433C340.339 509.923 449.168 531.67 464.063 536.404C470.887 538.574 485.653 548.744 490.972 550.303C494.179 551.243 501.104 552.202 506.1 552.816C509.168 553.193 514.159 553.193 517.235 552.815C522.229 552.2 529.144 551.242 532.348 550.303C537.667 548.744 552.433 538.574 559.257 536.404C574.152 531.67 682.981 509.923 687.944 507.433C692.906 504.944 699.273 503.577 707.53 489.707C694.397 492.546 597.707 504.969 541.031 509.143C524.836 510.335 498.481 510.335 482.282 509.142Z" fill="#262625"/>
<path d="M705.344 488.88C703.744 495.788 657.281 532.178 664.088 540.2C670.895 548.221 783.704 520.712 789.19 504.658C794.676 488.604 783.758 473.731 780.953 468.454C774.964 477.124 717.2 486.603 705.344 488.88ZM317.94 488.88C306.084 486.603 248.319 477.124 242.331 468.454C239.526 473.731 228.608 488.604 234.094 504.658C239.58 520.712 352.39 548.221 359.196 540.2C366.003 532.178 319.54 495.788 317.94 488.88Z" fill="#262625"/>
</g>
</g>
<defs>
<clipPath id="clip0_854_13489">
<rect width="1024" height="1024" fill="white"/>
</clipPath>
<clipPath id="clip1_854_13489">
<rect width="1024" height="1024" fill="white" transform="translate(0 -9)"/>
</clipPath>
</defs>
</svg>
