<svg width="1024" height="1024" viewBox="0 0 1024 1024" fill="none" xmlns="http://www.w3.org/2000/svg">
<g clip-path="url(#clip0_924_32592)">
<g clip-path="url(#clip1_924_32592)">
<path d="M833.179 581.519C829.343 582.709 806.009 586.128 787.817 600.71C767.19 617.242 751.691 645.094 751.691 645.094L753.644 716.414C754.311 726.202 770.401 743.245 776.332 743.228L829.692 743.068C843.395 743.029 848.934 721.653 852.94 703.607C859.627 673.486 851.585 529.247 851.585 529.247C837.758 530.758 841.385 578.972 833.179 581.519ZM190.66 581.519C182.454 578.972 186.081 530.758 172.254 529.247C172.254 529.247 164.212 673.486 170.899 703.607C174.905 721.653 180.444 743.029 194.148 743.068L247.508 743.228C253.438 743.243 269.528 726.202 270.195 716.414L272.148 645.094C272.148 645.094 256.649 617.242 236.023 600.71C217.83 586.128 194.496 582.709 190.66 581.519ZM437.769 162.523C478.683 160.806 545.11 160.803 586.025 162.516C618.964 163.896 649.698 166.352 662.044 170.786C684.129 178.72 709.744 248.84 730.541 295.068C741.378 307.724 759.162 319.611 772.292 334.508C776.124 338.855 772.882 344.27 776.334 348.857C792.792 370.727 804.483 384.971 809.939 395.062C812.55 399.89 814.046 408.4 814.633 419.542C814.85 423.741 819.459 430.04 819.436 434.931C819.025 514.436 819.707 544.287 804.058 560.146C788.408 576.005 762.22 572.78 748.734 593.904C731.675 620.626 703.5 649.472 694.32 649.565C686.919 649.643 641.769 650.761 598.011 651.875C550.463 653.085 473.374 653.088 425.827 651.882C382.07 650.772 336.918 649.655 329.518 649.581C320.338 649.489 292.16 620.645 275.098 593.925C261.611 572.802 235.423 576.03 219.772 560.172C204.119 544.314 204.801 514.463 204.382 434.958C204.382 430.067 208.967 423.767 209.185 419.568C209.774 408.426 211.266 399.917 213.877 395.088C219.331 384.996 231.021 370.752 247.478 348.88C250.928 344.293 247.687 338.878 251.517 334.531C264.647 319.632 282.429 307.744 293.266 295.087C314.059 248.857 339.668 178.735 361.752 170.799C374.097 166.364 404.83 163.905 437.769 162.523ZM437.788 124.58C396.241 126.721 354.311 130.237 341.069 134.995C318.985 142.93 282.154 225.378 261.361 271.608C250.524 284.265 228.722 302.798 215.592 317.696C211.761 322.043 215.002 327.458 211.552 332.046C195.095 353.918 183.419 370.515 177.964 380.607C175.353 385.435 171.389 399.781 170.802 410.923C170.585 415.123 165.977 421.422 166 426.313C166.419 505.818 169.673 568.787 185.326 584.645C200.978 600.503 227.165 597.275 240.652 618.398C257.714 645.118 310.083 688.016 319.263 688.109C326.941 688.186 377.964 689.385 425.826 690.535C473.375 691.677 550.466 691.673 598.016 690.527C645.877 689.373 696.9 688.17 704.578 688.092C713.758 687.999 766.123 645.096 783.183 618.374C796.668 597.25 822.856 600.475 838.505 584.616C854.157 568.757 857.406 505.788 857.818 426.283C857.818 421.392 853.232 415.093 853.014 410.893C852.425 399.752 848.461 385.406 845.85 380.577C840.394 370.487 828.717 353.89 812.258 332.02C808.807 327.432 812.048 322.017 808.217 317.67C795.085 302.773 773.281 284.242 762.444 271.586C741.647 225.358 704.808 142.913 682.723 134.98C669.481 130.223 627.55 126.711 586.002 124.574C545.107 122.473 478.684 122.476 437.788 124.58ZM769.916 243.978H769.912C766.417 244.258 766.162 260.231 767.014 269.369C767.262 272.039 769.322 272.701 769.323 274.377C765.577 274.76 765.763 274.722 761.607 274.985C762.887 280.869 770.767 286.224 776.29 288.703C784.439 288.04 802.059 285.359 810.539 284.091C815.997 283.276 820.264 271.887 820.869 267.469C821.474 263.05 820.009 249.911 819.753 248.432C819.265 245.594 816.853 244.295 814.758 244.124C812.663 243.955 774.29 241.713 769.916 243.978ZM253.923 243.978C249.549 241.713 211.177 243.955 209.081 244.124C206.986 244.295 204.572 245.594 204.086 248.432C203.83 249.911 202.366 263.05 202.97 267.469C203.575 271.887 207.842 283.276 213.3 284.091C221.78 285.359 239.4 288.041 247.55 288.703C253.073 286.224 260.952 280.869 262.232 274.985C258.077 274.722 258.262 274.76 254.517 274.377C254.517 272.701 256.576 272.039 256.825 269.369C257.677 260.231 257.423 244.258 253.927 243.978H253.923ZM454.719 523.281C406.058 522.777 342.74 522.376 334.308 523.585C320.379 525.58 309.604 541.284 303.514 548.137C297.424 554.991 306.449 606.806 306.449 606.806C306.449 606.806 267.175 589.318 278.823 601.214C290.472 613.109 295.654 648.349 335.125 650.827C358.921 652.322 418.358 652.935 461.815 653.186C489.496 653.346 534.385 653.346 562.075 653.186C605.53 652.935 664.956 652.321 688.75 650.827C728.221 648.349 733.403 613.109 745.051 601.214C756.699 589.318 717.426 606.806 717.426 606.806C717.426 606.806 726.451 554.991 720.361 548.137C714.271 541.284 703.496 525.58 689.567 523.585C681.134 522.376 617.803 522.777 569.138 523.281C537.546 523.609 486.321 523.609 454.719 523.281ZM461.226 370.627C407.053 369.788 336.331 368.014 326.684 366.717C313.331 364.922 270.014 368.881 267.757 375.825C267.175 377.616 259.546 388.326 266.379 398.629C271.261 405.991 301.884 409.372 307.341 410.722C312.798 412.073 311.523 415.741 311.523 418.877C311.523 422.012 311.251 469.267 311.259 476.429C311.259 483.592 267.792 520.368 260.906 528.321C269.522 529.433 272.506 529.534 283.087 529.548C293.667 529.564 315.092 500.939 332.752 500.866C344.032 500.82 414.079 501.104 463.218 501.314C490.126 501.429 533.75 501.429 560.657 501.314C609.796 501.105 679.843 500.822 691.123 500.866C708.782 500.936 730.208 529.564 740.788 529.548C751.369 529.533 754.353 529.433 762.969 528.321C756.083 520.368 712.616 483.592 712.616 476.429C712.623 469.267 712.352 422.012 712.352 418.877C712.352 415.741 711.077 412.073 716.534 410.722C721.991 409.372 752.614 405.991 757.496 398.629C764.329 388.326 756.7 377.616 756.118 375.825C753.861 368.881 710.544 364.922 697.191 366.717C687.542 368.014 616.8 369.789 562.623 370.627C534.632 371.06 489.231 371.06 461.226 370.627ZM287.956 426.96C286.357 423.638 241.517 420.804 230.435 419.89C229.593 431.043 229.062 447.213 230.031 453.84C230.998 460.466 239.042 486.435 243.056 494.764C249.013 495.526 258.706 496.441 262.134 495.39C265.563 494.34 285.595 471.286 287.368 468.783C289.502 456.267 289.559 430.283 287.958 426.96H287.956ZM735.883 426.96C737.483 423.638 782.322 420.804 793.404 419.89C794.246 431.043 794.778 447.213 793.808 453.84C792.841 460.466 784.797 486.435 780.784 494.764C774.826 495.526 765.133 496.441 761.705 495.39C758.277 494.34 738.245 471.286 736.471 468.783C734.338 456.267 734.28 430.283 735.881 426.96H735.883Z" fill="#262625"/>
<path d="M271.609 432.196C270.248 431.806 257.13 431.7 256.165 431.964C255.199 432.227 254.023 433.266 253.571 434.58C253.121 435.894 251.251 446.243 254.602 448.322C258.767 450.905 268.593 452.561 272.969 448.452C275.342 446.224 274.823 436.533 274.286 434.87C273.75 433.208 272.97 432.585 271.609 432.196ZM752.23 432.196C753.591 431.806 766.709 431.7 767.675 431.964C768.641 432.227 769.817 433.266 770.268 434.58C770.718 435.894 772.589 446.243 769.237 448.322C765.072 450.905 755.246 452.561 750.87 448.452C748.497 446.224 749.017 436.533 749.553 434.87C750.089 433.208 750.869 432.585 752.23 432.196ZM233.005 421.6C231.639 422.05 230.714 450.719 231.37 454.359C231.944 457.538 241.133 490.904 244.003 493.053C246.872 495.202 254.215 494.462 256.387 493.886C258.56 493.309 245.092 464.089 242.525 456.26C239.959 448.431 241.54 422.944 241.141 422.393C240.257 421.171 234.371 421.15 233.005 421.6ZM790.834 421.6C792.2 422.05 793.125 450.719 792.47 454.359C791.896 457.538 782.706 490.904 779.836 493.053C776.967 495.202 769.624 494.462 767.452 493.886C765.28 493.309 778.747 464.089 781.314 456.26C783.881 448.431 782.3 422.944 782.698 422.393C783.583 421.171 789.468 421.15 790.834 421.6ZM667.546 540.365C670.077 537.643 678.854 538.533 680.742 540.233C682.63 541.935 683.209 550.416 680.572 552.305C677.935 554.194 669.653 554.227 666.608 552.393C663.562 550.558 665.015 543.088 667.546 540.365ZM356.293 540.365H356.294C358.825 543.088 360.277 550.558 357.231 552.393C354.186 554.227 345.904 554.194 343.268 552.305C340.63 550.416 341.209 541.935 343.097 540.233C344.985 538.533 353.763 537.643 356.293 540.365ZM695.441 366.911C697.172 375.46 697.833 391.652 702.142 393.292C706.451 394.932 745.837 392.595 749.802 392.572C753.765 392.549 754.037 397.985 758.398 397.209C769.178 395.292 776.331 392.401 784.289 388.383C788.927 386.044 790.557 376.37 788.314 370.085C783.58 356.822 778.558 350.562 776.262 351.673C773.966 352.784 709.258 364.486 695.441 366.911ZM328.398 366.911C314.581 364.486 249.874 352.784 247.577 351.673C245.282 350.562 240.259 356.822 235.526 370.085C233.283 376.37 234.913 386.044 239.551 388.383C247.508 392.401 254.661 395.292 265.441 397.209C269.802 397.985 270.074 392.548 274.037 392.572C278.002 392.595 317.388 394.932 321.697 393.292C326.007 391.652 326.668 375.46 328.398 366.911Z" fill="#262625"/>
</g>
</g>
<defs>
<clipPath id="clip0_924_32592">
<rect width="1024" height="1024" fill="white"/>
</clipPath>
<clipPath id="clip1_924_32592">
<rect width="1024" height="1024" fill="white" transform="translate(0 -79)"/>
</clipPath>
</defs>
</svg>
