<svg width="1024" height="1024" viewBox="0 0 1024 1024" fill="none" xmlns="http://www.w3.org/2000/svg">
<g clip-path="url(#clip0_485_12569)">
<g clip-path="url(#clip1_485_12569)">
<path d="M205.196 669.691C226.923 675.122 263.394 685.21 263.394 685.21L259.514 730.993C259.514 737.2 254.082 742.632 247.874 742.632H186.573C173.381 742.632 162.518 731.768 162.518 718.577L158.638 589.766C158.638 589.766 175.709 647.963 183.469 655.724C188.901 661.931 198.212 667.363 205.196 669.691ZM840.136 655.724C847.896 647.188 864.967 589.766 864.967 589.766L861.087 718.577C861.087 731.768 850.224 742.632 837.033 742.632H775.731C769.522 742.632 764.091 737.2 764.091 730.993L760.212 685.21C760.212 685.21 796.681 675.122 818.409 669.691C826.168 667.363 834.705 661.931 840.136 655.724ZM718.599 661.514H305.783C305.783 661.514 311.214 630.476 327.51 615.733C333.717 610.301 340.701 601.765 353.117 601.765C353.117 601.765 472.616 600.212 512.191 600.212C551.765 600.212 671.265 601.765 671.265 601.765C683.68 601.765 690.664 610.301 696.871 615.733C713.167 630.476 718.599 661.514 718.599 661.514ZM306.558 702.42C275.874 702.42 200.114 681.752 175.92 650.222C152.785 620.528 143.684 500.044 161.39 439.59C174.44 393.596 209.783 365.45 229.603 352.613C241.947 321.366 269.389 259.004 300.638 235.231C325.608 215.411 415.836 214 437.556 214C475.579 214 550.847 214 588.871 214C610.59 214 700.818 215.552 725.788 235.231C739.761 246.169 768.613 282.652 796.823 352.613C816.644 365.592 851.987 394.231 865.036 439.59C882.743 500.185 873.007 621.162 849.731 650.222C824.761 681.117 749.917 702.42 719.092 702.42C615.394 702.42 409.763 702.42 306.558 702.42ZM718.599 661.514C743.43 661.514 803.18 642.115 817.146 625.043C828.011 611.077 841.202 507.096 824.906 451.227C810.939 403.893 762.829 380.613 762.829 380.613C762.829 380.613 728.686 289.825 699.975 267.322C689.887 259.562 617.722 254.906 588.235 254.906C568.837 254.906 456.32 254.906 436.921 254.906C407.435 254.906 335.27 259.562 325.182 267.322C295.695 290.601 262.328 380.613 262.328 380.613C262.328 380.613 214.218 403.893 200.251 451.227C183.955 507.096 197.147 611.077 208.01 625.043C221.202 642.115 281.727 661.514 306.558 661.514C347.685 661.514 676.696 661.514 718.599 661.514ZM218.388 362.419L203.644 372.507L195.884 360.091C195.884 360.091 162.518 359.315 157.086 343.795C155.534 338.364 160.966 331.38 164.846 329.052C174.933 319.74 195.109 316.636 206.748 317.412C211.404 317.412 216.836 318.189 217.612 324.396C218.388 329.827 215.284 338.364 216.06 343.02C216.836 345.348 218.388 362.419 218.388 362.419ZM820.737 372.507L805.993 362.419C805.993 362.419 808.321 345.348 809.097 343.02C809.874 338.364 806.769 329.827 807.546 324.396C808.321 318.189 813.753 317.412 818.409 317.412C830.049 316.636 850.224 319.74 860.311 329.052C863.415 332.155 869.623 339.139 868.071 343.795C863.415 359.315 829.273 360.091 829.273 360.091L820.737 372.507ZM673.593 513.305C673.593 513.305 551.765 514.856 511.414 514.856C471.064 514.856 349.237 513.305 349.237 513.305L350.789 508.649C350.789 508.649 471.064 509.424 511.414 509.424C551.765 509.424 672.04 508.649 672.04 508.649L673.593 513.305ZM677.472 527.272L679.024 531.927C679.024 531.927 554.093 533.48 512.191 533.48C470.288 533.48 345.357 531.927 345.357 531.927L346.909 527.272C346.909 527.272 471.064 528.824 512.191 528.824C553.317 528.824 677.472 527.272 677.472 527.272ZM680.576 545.119L682.128 549.775C682.128 549.775 554.093 551.327 512.191 551.327C470.288 551.327 342.253 549.775 342.253 549.775L343.805 545.119C343.805 545.119 470.288 546.671 512.966 546.671C555.645 546.671 680.576 545.119 680.576 545.119ZM512.191 563.743C471.841 563.743 349.237 559.087 347.685 559.087C344.581 559.087 342.253 557.534 340.701 555.206C339.149 552.878 338.373 550.55 339.149 547.447L347.685 507.872C349.237 500.889 355.445 495.457 363.205 495.457C363.98 495.457 474.944 493.129 512.191 493.129C549.437 493.129 659.625 495.457 661.177 495.457C668.937 495.457 675.144 500.889 676.696 507.872L685.231 547.447C686.008 549.775 685.231 552.878 683.68 555.206C682.128 557.534 679.8 558.311 676.696 559.087C675.144 559.087 552.541 563.743 512.191 563.743ZM512.191 497.785C475.72 497.785 364.756 500.113 363.205 500.113C357.773 500.113 352.34 503.993 351.565 509.424L343.029 548.999C343.029 550.55 343.029 552.103 343.805 553.655C344.581 555.206 346.133 555.983 347.685 555.983C349.237 555.983 471.064 560.639 511.414 560.639C551.765 560.639 674.368 555.983 675.144 555.983C676.696 555.983 678.249 555.206 679.024 553.655C679.8 552.103 680.576 550.55 679.8 548.999L671.265 509.424C669.712 503.993 665.056 500.113 659.625 500.113C659.625 499.337 548.661 497.785 512.191 497.785ZM297.247 559.862C296.471 559.862 295.695 559.862 294.919 559.862L225.082 553.655C222.754 553.655 220.426 552.103 218.874 550.55C217.322 548.223 216.546 545.895 216.546 543.567L219.65 507.096C221.202 498.561 228.962 491.577 237.497 492.353L325.182 496.233C326.734 496.233 327.51 497.009 328.286 497.785C329.062 498.561 329.062 500.112 329.062 501.665L318.974 543.567C316.646 552.878 307.334 559.862 297.247 559.862ZM236.721 495.457C230.513 495.457 224.306 500.113 223.53 507.096L220.426 543.567C220.426 545.119 220.426 546.671 221.202 547.447C221.978 548.999 223.53 548.999 225.082 549.775L294.919 555.983C304.23 556.759 312.767 550.55 315.095 542.015L325.182 500.113V497.785V499.337L236.721 495.457ZM727.134 559.862C717.046 559.862 707.734 552.878 705.406 542.791L695.319 500.889C695.319 499.337 695.319 498.561 696.096 497.009C696.871 495.457 697.647 495.457 699.199 495.457L786.884 491.577C796.196 490.801 803.18 497.785 804.731 506.321L807.836 542.791C807.836 545.119 807.836 547.447 805.508 549.775C803.955 552.103 801.627 552.878 799.299 552.878L729.462 559.087C728.686 559.862 727.91 559.862 727.134 559.862ZM787.66 495.457C786.884 495.457 786.884 495.457 787.66 495.457L699.199 499.337V500.113L709.287 542.015C711.615 551.327 720.15 556.759 729.462 555.983L799.299 549.775C800.852 549.775 802.403 548.999 803.18 547.447C803.955 545.895 804.731 545.119 803.955 543.567L800.852 507.096C799.299 500.113 793.868 495.457 787.66 495.457ZM331.389 531.927L232.841 524.944C232.841 524.944 228.962 523.392 228.962 522.616C228.962 521.84 233.617 521.064 233.617 521.064L329.837 525.719C329.837 525.719 335.27 528.047 335.27 529.6C335.27 531.152 331.389 531.927 331.389 531.927ZM330.614 548.223C329.837 551.327 322.078 550.55 322.078 550.55L230.513 543.567C230.513 543.567 226.634 542.015 226.634 541.239C226.634 540.463 231.289 539.687 231.289 539.687L322.078 545.119C322.854 543.567 331.389 545.119 330.614 548.223ZM325.958 509.424L325.182 514.08L236.721 509.424C236.721 509.424 232.841 507.872 232.841 507.096C232.841 506.321 237.497 505.544 237.497 505.544L325.958 509.424ZM689.112 529.6C689.112 528.047 694.543 525.719 694.543 525.719L790.764 521.064C790.764 521.064 795.42 521.84 795.42 522.616C795.42 523.392 791.54 524.944 791.54 524.944L692.991 531.927C692.991 531.927 689.112 531.152 689.112 529.6ZM701.527 549.775C701.527 549.775 693.768 550.55 692.991 547.447C692.215 544.343 700.752 543.567 700.752 543.567L791.54 538.135C791.54 538.135 796.196 538.911 796.196 539.687C796.196 540.463 792.315 542.015 792.315 542.015L701.527 549.775ZM698.424 513.305L697.647 508.649L786.884 503.993C786.884 503.993 791.54 504.768 791.54 505.544C791.54 506.321 787.66 507.872 787.66 507.872L698.424 513.305Z" fill="#262625"/>
<path d="M331.389 463.643C336.044 452.003 305.782 422.516 292.59 415.532C273.967 406.22 258.447 404.669 246.032 405.445C240.6 406.22 220.425 413.981 218.097 438.035C217.321 445.019 214.993 455.882 227.409 459.763C246.808 467.522 325.957 475.282 331.389 463.643ZM796.97 460.538C809.386 456.659 807.058 445.795 806.282 438.812C803.179 414.757 783.003 406.997 778.347 406.22C766.708 404.669 750.413 406.997 731.789 416.309C718.598 422.516 688.335 452.779 692.99 464.419C697.646 475.282 776.795 467.522 796.97 460.538ZM316.645 594.006L310.438 600.989C305.782 605.645 298.798 607.973 292.59 607.197L225.081 601.765C221.201 601.765 218.097 599.437 217.321 595.558L213.441 586.246C212.665 584.694 213.441 583.142 214.993 583.918L316.645 594.006C316.645 593.23 316.645 593.23 316.645 594.006ZM706.958 594.006L713.166 600.989C717.821 605.645 724.805 607.973 731.013 607.197L798.523 601.765C802.402 601.765 805.507 599.437 806.282 595.558L810.162 586.246C810.938 584.694 810.162 583.142 808.61 583.918L706.958 594.006C706.958 593.23 706.958 593.23 706.958 594.006Z" fill="#262625"/>
</g>
</g>
<defs>
<clipPath id="clip0_485_12569">
<rect width="1024" height="1024" fill="white"/>
</clipPath>
<clipPath id="clip1_485_12569">
<rect width="1024" height="1024" fill="white" transform="translate(0 -34)"/>
</clipPath>
</defs>
</svg>
