<svg width="1024" height="1024" viewBox="0 0 1024 1024" fill="none" xmlns="http://www.w3.org/2000/svg">
<g clip-path="url(#clip0_315_16976)">
<path d="M205.198 703.691C226.925 709.122 263.396 719.21 263.396 719.21L259.516 764.993C259.516 771.2 254.084 776.632 247.876 776.632H186.575C173.383 776.632 162.52 765.768 162.52 752.577L158.64 623.766C158.64 623.766 175.711 681.963 183.471 689.724C188.903 695.931 198.214 701.363 205.198 703.691ZM840.138 689.724C847.898 681.188 864.969 623.766 864.969 623.766L861.089 752.577C861.089 765.768 850.226 776.632 837.035 776.632H775.733C769.524 776.632 764.093 771.2 764.093 764.993L760.214 719.21C760.214 719.21 796.683 709.122 818.411 703.691C826.17 701.363 834.707 695.931 840.138 689.724ZM718.601 695.514H305.785C305.785 695.514 311.216 664.476 327.512 649.733C333.719 644.301 340.703 635.765 353.119 635.765C353.119 635.765 472.618 634.212 512.193 634.212C551.767 634.212 671.267 635.765 671.267 635.765C683.682 635.765 690.666 644.301 696.873 649.733C713.169 664.476 718.601 695.514 718.601 695.514ZM306.56 736.42C275.876 736.42 200.116 715.752 175.922 684.222C152.787 654.528 143.686 534.044 161.392 473.59C174.442 427.596 209.784 399.45 229.605 386.613C241.949 355.366 269.391 293.004 300.639 269.231C325.61 249.411 415.838 248 437.558 248C475.58 248 550.849 248 588.873 248C610.592 248 700.82 249.552 725.79 269.231C739.763 280.169 768.615 316.652 796.825 386.613C816.646 399.592 851.989 428.231 865.038 473.59C882.745 534.185 873.009 655.162 849.733 684.222C824.763 715.117 749.919 736.42 719.094 736.42C615.396 736.42 409.765 736.42 306.56 736.42ZM718.601 695.514C743.432 695.514 803.182 676.115 817.148 659.043C828.013 645.077 841.204 541.096 824.908 485.227C810.941 437.893 762.831 414.613 762.831 414.613C762.831 414.613 728.688 323.825 699.977 301.322C689.889 293.562 617.724 288.906 588.237 288.906C568.839 288.906 456.322 288.906 436.923 288.906C407.437 288.906 335.272 293.562 325.184 301.322C295.697 324.601 262.33 414.613 262.33 414.613C262.33 414.613 214.22 437.893 200.253 485.227C183.957 541.096 197.149 645.077 208.012 659.043C221.204 676.115 281.729 695.514 306.56 695.514C347.687 695.514 676.698 695.514 718.601 695.514ZM218.39 396.419L203.646 406.507L195.886 394.091C195.886 394.091 162.52 393.315 157.088 377.795C155.536 372.364 160.968 365.38 164.848 363.052C174.935 353.74 195.11 350.636 206.75 351.412C211.406 351.412 216.838 352.189 217.614 358.396C218.39 363.827 215.286 372.364 216.062 377.02C216.838 379.348 218.39 396.419 218.39 396.419ZM820.739 406.507L805.995 396.419C805.995 396.419 808.323 379.348 809.099 377.02C809.876 372.364 806.771 363.827 807.548 358.396C808.323 352.189 813.755 351.412 818.411 351.412C830.051 350.636 850.226 353.74 860.313 363.052C863.417 366.155 869.625 373.139 868.073 377.795C863.417 393.315 829.275 394.091 829.275 394.091L820.739 406.507ZM673.595 547.305C673.595 547.305 551.767 548.856 511.416 548.856C471.066 548.856 349.239 547.305 349.239 547.305L350.791 542.649C350.791 542.649 471.066 543.424 511.416 543.424C551.767 543.424 672.042 542.649 672.042 542.649L673.595 547.305ZM677.474 561.272L679.026 565.927C679.026 565.927 554.095 567.48 512.193 567.48C470.29 567.48 345.359 565.927 345.359 565.927L346.911 561.272C346.911 561.272 471.066 562.824 512.193 562.824C553.319 562.824 677.474 561.272 677.474 561.272ZM680.577 579.119L682.13 583.775C682.13 583.775 554.095 585.327 512.193 585.327C470.29 585.327 342.255 583.775 342.255 583.775L343.807 579.119C343.807 579.119 470.29 580.671 512.968 580.671C555.647 580.671 680.577 579.119 680.577 579.119ZM512.193 597.743C471.843 597.743 349.239 593.087 347.687 593.087C344.583 593.087 342.255 591.534 340.703 589.206C339.151 586.878 338.375 584.55 339.151 581.447L347.687 541.872C349.239 534.889 355.447 529.457 363.206 529.457C363.982 529.457 474.946 527.129 512.193 527.129C549.439 527.129 659.627 529.457 661.179 529.457C668.939 529.457 675.146 534.889 676.698 541.872L685.233 581.447C686.01 583.775 685.233 586.878 683.682 589.206C682.13 591.534 679.802 592.311 676.698 593.087C675.146 593.087 552.543 597.743 512.193 597.743ZM512.193 531.785C475.722 531.785 364.758 534.113 363.206 534.113C357.775 534.113 352.342 537.993 351.567 543.424L343.031 582.999C343.031 584.55 343.031 586.103 343.807 587.655C344.583 589.206 346.135 589.983 347.687 589.983C349.239 589.983 471.066 594.639 511.416 594.639C551.767 594.639 674.37 589.983 675.146 589.983C676.698 589.983 678.251 589.206 679.026 587.655C679.802 586.103 680.577 584.55 679.802 582.999L671.267 543.424C669.714 537.993 665.058 534.113 659.627 534.113C659.627 533.337 548.663 531.785 512.193 531.785ZM297.248 593.862C296.473 593.862 295.697 593.862 294.92 593.862L225.084 587.655C222.756 587.655 220.428 586.103 218.876 584.55C217.324 582.223 216.548 579.895 216.548 577.567L219.652 541.096C221.204 532.561 228.964 525.577 237.499 526.353L325.184 530.233C326.735 530.233 327.512 531.009 328.288 531.785C329.063 532.561 329.063 534.112 329.063 535.665L318.976 577.567C316.648 586.878 307.336 593.862 297.248 593.862ZM236.723 529.457C230.515 529.457 224.308 534.113 223.532 541.096L220.428 577.567C220.428 579.119 220.428 580.671 221.204 581.447C221.98 582.999 223.532 582.999 225.084 583.775L294.92 589.983C304.232 590.759 312.769 584.55 315.097 576.015L325.184 534.113V531.785V533.337L236.723 529.457ZM727.136 593.862C717.048 593.862 707.736 586.878 705.408 576.791L695.321 534.889C695.321 533.337 695.321 532.561 696.098 531.009C696.873 529.457 697.649 529.457 699.201 529.457L786.886 525.577C796.198 524.801 803.182 531.785 804.733 540.321L807.838 576.791C807.838 579.119 807.838 581.447 805.51 583.775C803.957 586.103 801.629 586.878 799.301 586.878L729.464 593.087C728.688 593.862 727.912 593.862 727.136 593.862ZM787.662 529.457C786.886 529.457 786.886 529.457 787.662 529.457L699.201 533.337V534.113L709.289 576.015C711.617 585.327 720.152 590.759 729.464 589.983L799.301 583.775C800.854 583.775 802.405 582.999 803.182 581.447C803.957 579.895 804.733 579.119 803.957 577.567L800.854 541.096C799.301 534.113 793.87 529.457 787.662 529.457ZM331.391 565.927L232.843 558.944C232.843 558.944 228.964 557.392 228.964 556.616C228.964 555.84 233.619 555.064 233.619 555.064L329.839 559.719C329.839 559.719 335.272 562.047 335.272 563.6C335.272 565.152 331.391 565.927 331.391 565.927ZM330.616 582.223C329.839 585.327 322.079 584.55 322.079 584.55L230.515 577.567C230.515 577.567 226.636 576.015 226.636 575.239C226.636 574.463 231.291 573.687 231.291 573.687L322.079 579.119C322.856 577.567 331.391 579.119 330.616 582.223ZM325.96 543.424L325.184 548.08L236.723 543.424C236.723 543.424 232.843 541.872 232.843 541.096C232.843 540.321 237.499 539.544 237.499 539.544L325.96 543.424ZM689.114 563.6C689.114 562.047 694.545 559.719 694.545 559.719L790.766 555.064C790.766 555.064 795.422 555.84 795.422 556.616C795.422 557.392 791.542 558.944 791.542 558.944L692.993 565.927C692.993 565.927 689.114 565.152 689.114 563.6ZM701.529 583.775C701.529 583.775 693.77 584.55 692.993 581.447C692.217 578.343 700.754 577.567 700.754 577.567L791.542 572.135C791.542 572.135 796.198 572.911 796.198 573.687C796.198 574.463 792.317 576.015 792.317 576.015L701.529 583.775ZM698.426 547.305L697.649 542.649L786.886 537.993C786.886 537.993 791.542 538.768 791.542 539.544C791.542 540.321 787.662 541.872 787.662 541.872L698.426 547.305Z" fill="#262625"/>
<path d="M331.39 497.643C336.046 486.003 305.784 456.516 292.592 449.532C273.969 440.22 258.449 438.669 246.034 439.445C240.602 440.22 220.427 447.981 218.099 472.035C217.323 479.019 214.995 489.882 227.411 493.763C246.81 501.522 325.959 509.282 331.39 497.643ZM796.972 494.538C809.388 490.659 807.06 479.795 806.284 472.812C803.181 448.757 783.005 440.997 778.349 440.22C766.709 438.669 750.415 440.997 731.791 450.309C718.6 456.516 688.337 486.779 692.992 498.419C697.648 509.282 776.797 501.522 796.972 494.538ZM316.647 628.006L310.44 634.989C305.784 639.645 298.8 641.973 292.592 641.197L225.083 635.765C221.203 635.765 218.099 633.437 217.323 629.558L213.443 620.246C212.667 618.694 213.443 617.142 214.995 617.918L316.647 628.006C316.647 627.23 316.647 627.23 316.647 628.006ZM706.96 628.006L713.168 634.989C717.823 639.645 724.807 641.973 731.015 641.197L798.525 635.765C802.404 635.765 805.509 633.437 806.284 629.558L810.164 620.246C810.94 618.694 810.164 617.142 808.612 617.918L706.96 628.006C706.96 627.23 706.96 627.23 706.96 628.006Z" fill="#262625"/>
</g>
<defs>
<clipPath id="clip0_315_16976">
<rect width="1024" height="1024" fill="white"/>
</clipPath>
</defs>
</svg>
