<svg width="36" height="36" viewBox="0 0 36 36" fill="none" xmlns="http://www.w3.org/2000/svg">
<g clip-path="url(#clip0_812_3228)">
<path d="M6.01173 25.9586C6.8692 26.1731 8.30853 26.5711 8.30853 26.5711L8.15541 28.378C8.15541 28.623 7.94104 28.8373 7.69605 28.8373H5.27675C4.75614 28.8373 4.32741 28.4086 4.32741 27.888L4.17429 22.8044C4.17429 22.8044 4.84801 25.1012 5.15426 25.4075C5.36862 25.6524 5.73611 25.8668 6.01173 25.9586ZM31.0699 25.4075C31.3761 25.0705 32.0499 22.8044 32.0499 22.8044L31.8968 27.888C31.8968 28.4086 31.468 28.8373 30.9474 28.8373H28.5282C28.2831 28.8373 28.0688 28.623 28.0688 28.378L27.9157 26.5711C27.9157 26.5711 29.355 26.1731 30.2125 25.9586C30.5187 25.8668 30.8556 25.6524 31.0699 25.4075ZM26.2734 25.636H9.98141C9.98141 25.636 10.1958 24.411 10.8389 23.8291C11.0839 23.6148 11.3595 23.278 11.8495 23.278C11.8495 23.278 16.5656 23.2166 18.1274 23.2166C19.6892 23.2166 24.4053 23.278 24.4053 23.278C24.8953 23.278 25.1709 23.6148 25.416 23.8291C26.059 24.411 26.2734 25.636 26.2734 25.636ZM10.012 27.2503C8.80107 27.2503 5.81116 26.4347 4.85633 25.1903C3.94328 24.0184 3.58411 19.2635 4.28289 16.8776C4.79792 15.0625 6.19273 13.9517 6.97497 13.4451C7.46211 12.2119 8.54511 9.75071 9.77839 8.81252C10.7638 8.03028 14.3247 7.97461 15.1819 7.97461C16.6825 7.97461 19.653 7.97461 21.1536 7.97461C22.0108 7.97461 25.5717 8.03586 26.5572 8.81252C27.1086 9.24418 28.2472 10.684 29.3606 13.4451C30.1428 13.9573 31.5376 15.0875 32.0526 16.8776C32.7514 19.269 32.3672 24.0434 31.4486 25.1903C30.463 26.4096 27.5094 27.2503 26.2928 27.2503C22.2004 27.2503 14.085 27.2503 10.012 27.2503ZM26.2734 25.636C27.2534 25.636 29.6114 24.8704 30.1627 24.1967C30.5913 23.6454 31.112 19.5418 30.4689 17.3369C29.9176 15.4688 28.019 14.5501 28.019 14.5501C28.019 14.5501 26.6715 10.9671 25.5384 10.079C25.1403 9.77273 22.2922 9.58899 21.1286 9.58899C20.363 9.58899 15.9225 9.58899 15.1569 9.58899C13.9932 9.58899 11.1451 9.77273 10.747 10.079C9.5833 10.9977 8.26647 14.5501 8.26647 14.5501C8.26647 14.5501 6.36778 15.4688 5.81655 17.3369C5.17345 19.5418 5.69405 23.6454 6.12279 24.1967C6.6434 24.8704 9.03207 25.636 10.012 25.636C11.6351 25.636 24.6196 25.636 26.2734 25.636ZM6.53234 13.832L5.95048 14.2301L5.64424 13.7401C5.64424 13.7401 4.32741 13.7095 4.11304 13.097C4.05179 12.8827 4.26616 12.6071 4.41928 12.5152C4.81739 12.1477 5.61362 12.0252 6.07298 12.0558C6.25672 12.0558 6.47109 12.0865 6.50171 12.3314C6.53234 12.5458 6.40984 12.8827 6.44047 13.0664C6.47109 13.1583 6.53234 13.832 6.53234 13.832ZM30.3043 14.2301L29.7224 13.832C29.7224 13.832 29.8143 13.1583 29.8449 13.0664C29.8755 12.8827 29.7531 12.5458 29.7837 12.3314C29.8143 12.0865 30.0286 12.0558 30.2125 12.0558C30.6718 12.0252 31.468 12.1477 31.8661 12.5152C31.9886 12.6377 32.2336 12.9133 32.1723 13.097C31.9886 13.7095 30.6411 13.7401 30.6411 13.7401L30.3043 14.2301ZM24.4972 19.7868C24.4972 19.7868 19.6892 19.848 18.0968 19.848C16.5043 19.848 11.6964 19.7868 11.6964 19.7868L11.7576 19.6031C11.7576 19.6031 16.5043 19.6337 18.0968 19.6337C19.6892 19.6337 24.4359 19.6031 24.4359 19.6031L24.4972 19.7868ZM24.6504 20.338L24.7116 20.5218C24.7116 20.5218 19.7811 20.583 18.1274 20.583C16.4737 20.583 11.5432 20.5218 11.5432 20.5218L11.6045 20.338C11.6045 20.338 16.5043 20.3993 18.1274 20.3993C19.7505 20.3993 24.6504 20.338 24.6504 20.338ZM24.7728 21.0424L24.8341 21.2261C24.8341 21.2261 19.7811 21.2874 18.1274 21.2874C16.4737 21.2874 11.4207 21.2261 11.4207 21.2261L11.482 21.0424C11.482 21.0424 16.4737 21.1036 18.158 21.1036C19.8423 21.1036 24.7728 21.0424 24.7728 21.0424ZM18.1274 21.7774C16.535 21.7774 11.6964 21.5936 11.6351 21.5936C11.5126 21.5936 11.4207 21.5323 11.3595 21.4405C11.2982 21.3486 11.2676 21.2567 11.2982 21.1343L11.6351 19.5724C11.6964 19.2968 11.9413 19.0824 12.2476 19.0824C12.2782 19.0824 16.6574 18.9906 18.1274 18.9906C19.5974 18.9906 23.946 19.0824 24.0072 19.0824C24.3134 19.0824 24.5584 19.2968 24.6196 19.5724L24.9566 21.1343C24.9872 21.2261 24.9566 21.3486 24.8953 21.4405C24.8341 21.5323 24.7422 21.5629 24.6196 21.5936C24.5584 21.5936 19.7198 21.7774 18.1274 21.7774ZM18.1274 19.1743C16.6881 19.1743 12.3088 19.2661 12.2476 19.2661C12.0332 19.2661 11.8189 19.4192 11.7882 19.6337L11.4514 21.1955C11.4514 21.2567 11.4514 21.318 11.482 21.3792C11.5126 21.4405 11.5739 21.4711 11.6351 21.4711C11.6964 21.4711 16.5043 21.6548 18.0968 21.6548C19.6892 21.6548 24.5278 21.4711 24.5584 21.4711C24.6196 21.4711 24.681 21.4405 24.7116 21.3792C24.7422 21.318 24.7728 21.2567 24.7422 21.1955L24.4053 19.6337C24.3441 19.4192 24.1603 19.2661 23.946 19.2661C23.946 19.2355 19.5667 19.1743 18.1274 19.1743ZM9.64455 21.6242C9.61392 21.6242 9.5833 21.6242 9.55268 21.6242L6.79652 21.3792C6.70465 21.3792 6.61277 21.318 6.55153 21.2567C6.49028 21.1649 6.45965 21.073 6.45965 20.9812L6.58215 19.5418C6.6434 19.2049 6.94964 18.9293 7.2865 18.9599L10.747 19.113C10.8083 19.113 10.8389 19.1437 10.8695 19.1743C10.9001 19.2049 10.9001 19.2661 10.9001 19.3274L10.502 20.9812C10.4101 21.3486 10.0427 21.6242 9.64455 21.6242ZM7.25588 19.0824C7.01089 19.0824 6.76589 19.2661 6.73527 19.5418L6.61277 20.9812C6.61277 21.0424 6.61277 21.1036 6.6434 21.1343C6.67402 21.1955 6.73527 21.1955 6.79652 21.2261L9.55268 21.4711C9.92017 21.5017 10.257 21.2567 10.3489 20.9198L10.747 19.2661V19.1743V19.2355L7.25588 19.0824ZM26.6102 21.6242C26.2122 21.6242 25.8446 21.3486 25.7528 20.9504L25.3546 19.2968C25.3546 19.2355 25.3546 19.2049 25.3852 19.1437C25.416 19.0824 25.4466 19.0824 25.5078 19.0824L28.9683 18.9293C29.3358 18.8987 29.6114 19.1743 29.6726 19.5112L29.7951 20.9504C29.7951 21.0424 29.7951 21.1343 29.7033 21.2261C29.642 21.318 29.5502 21.3486 29.4583 21.3486L26.7021 21.5936C26.6715 21.6242 26.6409 21.6242 26.6102 21.6242ZM28.9989 19.0824C28.9683 19.0824 28.9683 19.0824 28.9989 19.0824L25.5078 19.2355V19.2661L25.9059 20.9198C25.9977 21.2874 26.3347 21.5017 26.7021 21.4711L29.4583 21.2261C29.5195 21.2261 29.5808 21.1955 29.6114 21.1343C29.642 21.073 29.6726 21.0424 29.642 20.9812L29.5195 19.5418C29.4583 19.2661 29.244 19.0824 28.9989 19.0824ZM10.992 20.5218L7.10276 20.2462C7.10276 20.2462 6.94964 20.1848 6.94964 20.1542C6.94964 20.1236 7.13338 20.093 7.13338 20.093L10.9308 20.2768C10.9308 20.2768 11.1451 20.3687 11.1451 20.4299C11.1451 20.4911 10.992 20.5218 10.992 20.5218ZM10.9614 21.1649C10.9308 21.2874 10.6245 21.2567 10.6245 21.2567L7.01089 20.9812C7.01089 20.9812 6.85777 20.9198 6.85777 20.8892C6.85777 20.8586 7.04151 20.828 7.04151 20.828L10.6245 21.0424C10.6551 20.9812 10.992 21.0424 10.9614 21.1649ZM10.7776 19.6337L10.747 19.8174L7.25588 19.6337C7.25588 19.6337 7.10276 19.5724 7.10276 19.5418C7.10276 19.5112 7.2865 19.4806 7.2865 19.4806L10.7776 19.6337ZM25.1097 20.4299C25.1097 20.3687 25.324 20.2768 25.324 20.2768L29.1214 20.093C29.1214 20.093 29.3052 20.1236 29.3052 20.1542C29.3052 20.1848 29.152 20.2462 29.152 20.2462L25.2628 20.5218C25.2628 20.5218 25.1097 20.4911 25.1097 20.4299ZM25.5997 21.2261C25.5997 21.2261 25.2934 21.2567 25.2628 21.1343C25.2321 21.0118 25.5691 20.9812 25.5691 20.9812L29.152 20.7667C29.152 20.7667 29.3358 20.7973 29.3358 20.828C29.3358 20.8586 29.1826 20.9198 29.1826 20.9198L25.5997 21.2261ZM25.4772 19.7868L25.4466 19.6031L28.9683 19.4192C28.9683 19.4192 29.152 19.45 29.152 19.4806C29.152 19.5112 28.9989 19.5724 28.9989 19.5724L25.4772 19.7868Z" fill="#262625"/>
<path d="M10.993 17.8271C11.1768 17.3678 9.98244 16.204 9.46183 15.9284C8.72686 15.5609 8.11438 15.4997 7.62439 15.5303C7.41003 15.5609 6.6138 15.8672 6.52193 16.8165C6.49131 17.0921 6.39943 17.5209 6.88942 17.674C7.65502 17.9802 10.7787 18.2865 10.993 17.8271ZM29.3674 17.7046C29.8575 17.5515 29.7656 17.1228 29.735 16.8471C29.6124 15.8978 28.8162 15.5916 28.6325 15.5609C28.1732 15.4997 27.53 15.5916 26.7951 15.959C26.2744 16.204 25.08 17.3984 25.2639 17.8577C25.4476 18.2865 28.5712 17.9802 29.3674 17.7046ZM10.4112 22.972L10.1662 23.2475C9.98244 23.4314 9.70683 23.5232 9.46183 23.4926L6.79755 23.2782C6.64443 23.2782 6.52193 23.1863 6.49131 23.0332L6.33819 22.6658C6.30756 22.6044 6.33819 22.5432 6.39943 22.5738L10.4112 22.972C10.4112 22.9413 10.4112 22.9413 10.4112 22.972ZM25.815 22.972L26.0601 23.2475C26.2438 23.4314 26.5194 23.5232 26.7644 23.4926L29.4287 23.2782C29.5818 23.2782 29.7044 23.1863 29.735 23.0332L29.8881 22.6658C29.9187 22.6044 29.8881 22.5432 29.8268 22.5738L25.815 22.972C25.815 22.9413 25.815 22.9413 25.815 22.972Z" fill="#262625"/>
</g>
<defs>
<clipPath id="clip0_812_3228">
<rect width="28.5886" height="21.8224" fill="white" transform="translate(3.82422 7.01562)"/>
</clipPath>
</defs>
</svg>
