<svg width="1024" height="1024" viewBox="0 0 1024 1024" fill="none" xmlns="http://www.w3.org/2000/svg">
<g clip-path="url(#clip0_485_12570)">
<g clip-path="url(#clip1_485_12570)">
<path d="M735.939 719.957C735.939 719.957 737.285 743.158 752.026 743.158H803.301C808.732 743.158 813.224 737.895 815.181 733.073C821.303 717.993 820.745 678.766 820.745 678.766C820.745 678.766 812.93 702.522 803.608 708.15C782.319 719.894 759.597 718.766 735.939 719.957ZM220.817 708.15C211.495 702.522 203.681 678.766 203.681 678.766C203.681 678.766 203.122 717.993 209.245 733.073C211.202 737.895 215.694 743.158 221.125 743.158H272.4C287.141 743.158 288.487 719.957 288.487 719.957C264.829 718.766 242.106 719.895 220.817 708.15ZM443.253 690.39L293.825 686.013C293.825 686.013 246.496 685.558 233.307 668.49C222.443 654.525 217.729 548.156 234.021 492.298C247.985 444.974 300.029 452.129 300.029 452.129C300.029 452.129 327.571 389.188 357.052 362.811C367.989 357.157 396.42 353.689 428.281 351.59C474.563 348.541 549.864 348.541 596.148 351.59C628.008 353.689 656.438 357.157 667.374 362.811C696.854 389.188 724.396 452.129 724.396 452.129C724.396 452.129 776.441 444.974 790.405 492.298C806.697 548.156 801.983 654.525 791.119 668.49C777.93 685.558 730.6 686.013 730.6 686.013L581.173 690.39C535.209 691.737 489.216 691.737 443.253 690.39ZM443.244 312.248C400.165 314.151 355.23 318.835 334.706 331.187C305.225 357.564 278.697 417.183 278.697 417.183C278.697 417.183 228.229 415.736 209.613 458.672C190.996 501.609 184.962 673.126 207.657 699.799C230.353 726.471 293.828 724.848 293.828 724.848L428.25 728.609C484.214 730.175 540.212 730.175 596.176 728.609L730.598 724.848C730.598 724.848 794.073 726.471 816.768 699.799C839.464 673.126 833.429 501.609 814.813 458.672C796.197 415.736 745.728 417.183 745.728 417.183C745.728 417.183 719.201 357.564 689.72 331.187C669.195 318.835 624.255 314.15 581.174 312.248C543.116 310.584 481.306 310.583 443.244 312.248ZM496.981 615.93C469.367 615.829 413.111 616.199 404.87 620.749C393.88 626.814 373.277 654.556 378.58 657.63C383.883 660.704 512.21 660.388 512.21 660.388C512.21 660.388 640.537 660.703 645.84 657.63C651.142 654.556 630.539 626.814 619.55 620.749C611.076 616.071 551.83 615.815 525.164 615.942C518.01 615.973 506.408 615.973 499.251 615.94C498.521 615.936 497.761 615.933 496.981 615.932V615.93ZM356 648.449C360.164 643.248 375.488 626.51 377.724 612.883C379.426 602.514 369.877 594.443 364.02 590.939C340.984 577.159 270.939 573.551 259.368 573.636C247.796 573.721 248.616 592.779 249.944 608.758C251.272 624.738 249.797 639.259 263.427 645.101C277.059 650.944 348.667 657.609 356 648.449ZM668.426 648.449C664.262 643.248 648.937 626.51 646.702 612.883C644.999 602.514 654.549 594.443 660.406 590.939C683.442 577.159 753.487 573.551 765.058 573.636C776.63 573.721 775.81 592.779 774.482 608.758C773.154 624.738 774.629 639.259 760.998 645.101C747.366 650.944 675.759 657.609 668.426 648.449ZM229.664 658.026C229.167 658.049 228.644 658.177 228.015 658.404C223.608 659.994 237.125 676.89 249.014 681.289C274.124 690.581 399.594 692.335 467.832 692.589C492.341 692.679 532.08 692.679 556.59 692.589C624.834 692.335 750.311 690.581 775.421 681.289C787.309 676.89 800.815 659.994 796.407 658.404C791.371 656.586 793.572 661.41 755.632 668.983C721.694 675.757 616.328 679.376 555.929 680.941C531.786 681.566 492.633 681.566 468.489 680.94C408.093 679.375 302.74 675.757 268.803 668.983C235.605 662.357 233.136 657.836 229.664 658.025V658.026ZM787.645 430.474C787.645 430.474 789.819 427.868 799.612 427.056C809.404 426.244 812.416 417.645 813.191 414.542C813.967 411.438 808.501 405.197 805.398 402.093C797.64 395.887 788.394 391.541 779.085 392.317C774.43 392.317 769.4 395.253 767.849 400.683C766.323 406.114 766.191 407.674 766.323 412.189C766.454 416.703 763.97 423.05 763.97 423.05L787.645 430.474ZM260.456 423.05C260.456 423.05 257.968 416.703 258.103 412.189C258.235 407.674 258.103 406.114 256.577 400.683C255.026 395.253 249.996 392.317 245.341 392.317C236.031 391.541 226.786 395.887 219.028 402.093C215.925 405.197 210.458 411.438 211.234 414.542C212.01 417.645 215.022 426.244 224.814 427.056C234.606 427.868 236.781 430.474 236.781 430.474L260.456 423.05ZM374.928 530.304C372.606 530.69 377.125 533.468 382.141 535.94C387.02 538.345 395.618 540.203 401.051 540.41C423.661 541.271 478.5 541.903 501.635 542.141C507.475 542.203 516.945 542.203 522.787 542.141C545.926 541.903 600.774 541.271 623.384 540.41C628.816 540.204 637.4 538.345 642.279 535.94C648.966 532.644 654.773 528.806 644.658 530.819C631.969 533.343 550.48 534.535 522.011 534.877C516.598 534.939 507.819 534.939 502.404 534.877C473.93 534.534 392.451 533.343 379.761 530.819C377.233 530.316 375.702 530.175 374.928 530.304ZM692.268 385.256L707.909 406.981L752.667 409.507L756.004 428.842C756.004 428.842 760.877 427.97 761.147 426.488C761.418 425.007 757.938 383.045 756.635 381.172C755.331 379.3 749.118 379.762 749.118 379.762L749.762 389.137L692.268 385.256ZM274.663 389.137L275.307 379.762C275.307 379.762 269.082 379.3 267.779 381.172C266.476 383.045 262.995 425.007 263.267 426.488C263.538 427.97 268.421 428.842 268.421 428.842L271.759 409.507L316.517 407.086L332.157 385.361L274.663 389.137Z" fill="#262625"/>
<path d="M336.231 536.581C343.563 527.422 326.525 482.452 313.264 473.872C300.002 465.291 287.563 465.426 277.656 467.799C267.749 470.171 256.298 475.295 255.131 490.859C253.964 506.423 250.407 525.519 264.039 531.361C277.671 537.204 328.898 545.74 336.231 536.581ZM688.193 536.581C680.861 527.422 697.899 482.452 711.16 473.872C724.422 465.291 736.86 465.426 746.767 467.799C756.675 470.171 768.125 475.295 769.293 490.859C770.46 506.423 774.017 525.519 760.384 531.361C746.753 537.204 695.526 545.74 688.193 536.581Z" fill="#262625"/>
</g>
</g>
<defs>
<clipPath id="clip0_485_12570">
<rect width="1024" height="1024" fill="white"/>
</clipPath>
<clipPath id="clip1_485_12570">
<rect width="1024" height="1024" fill="white" transform="translate(0 15)"/>
</clipPath>
</defs>
</svg>
