<svg width="1024" height="1024" viewBox="0 0 1024 1024" fill="none" xmlns="http://www.w3.org/2000/svg">
<g clip-path="url(#clip0_315_16990)">
<path d="M735.939 704.957C735.939 704.957 737.285 728.158 752.026 728.158H803.301C808.732 728.158 813.224 722.895 815.181 718.073C821.303 702.993 820.745 663.766 820.745 663.766C820.745 663.766 812.93 687.522 803.608 693.15C782.319 704.894 759.597 703.766 735.939 704.957ZM220.817 693.15C211.495 687.522 203.681 663.766 203.681 663.766C203.681 663.766 203.122 702.993 209.245 718.073C211.202 722.895 215.694 728.158 221.125 728.158H272.4C287.141 728.158 288.487 704.957 288.487 704.957C264.829 703.766 242.106 704.895 220.817 693.15ZM443.253 675.39L293.825 671.013C293.825 671.013 246.496 670.558 233.307 653.49C222.443 639.525 217.729 533.156 234.021 477.298C247.985 429.974 300.029 437.129 300.029 437.129C300.029 437.129 327.571 374.188 357.052 347.811C367.989 342.157 396.42 338.689 428.281 336.59C474.563 333.541 549.864 333.541 596.148 336.59C628.008 338.689 656.438 342.157 667.374 347.811C696.854 374.188 724.396 437.129 724.396 437.129C724.396 437.129 776.441 429.974 790.405 477.298C806.697 533.156 801.983 639.525 791.119 653.49C777.93 670.558 730.6 671.013 730.6 671.013L581.173 675.39C535.209 676.737 489.216 676.737 443.253 675.39ZM443.244 297.248C400.165 299.151 355.23 303.835 334.706 316.187C305.225 342.564 278.697 402.183 278.697 402.183C278.697 402.183 228.229 400.736 209.613 443.672C190.996 486.609 184.962 658.126 207.657 684.799C230.353 711.471 293.828 709.848 293.828 709.848L428.25 713.609C484.214 715.175 540.212 715.175 596.176 713.609L730.598 709.848C730.598 709.848 794.073 711.471 816.768 684.799C839.464 658.126 833.429 486.609 814.813 443.672C796.197 400.736 745.728 402.183 745.728 402.183C745.728 402.183 719.201 342.564 689.72 316.187C669.195 303.835 624.255 299.15 581.174 297.248C543.116 295.584 481.306 295.583 443.244 297.248ZM496.981 600.93C469.367 600.829 413.111 601.199 404.87 605.749C393.88 611.814 373.277 639.556 378.58 642.63C383.883 645.704 512.21 645.388 512.21 645.388C512.21 645.388 640.537 645.703 645.84 642.63C651.142 639.556 630.539 611.814 619.55 605.749C611.076 601.071 551.83 600.815 525.164 600.942C518.01 600.973 506.408 600.973 499.251 600.94C498.521 600.936 497.761 600.933 496.981 600.932V600.93ZM356 633.449C360.164 628.248 375.488 611.51 377.724 597.883C379.426 587.514 369.877 579.443 364.02 575.939C340.984 562.159 270.939 558.551 259.368 558.636C247.796 558.721 248.616 577.779 249.944 593.758C251.272 609.738 249.797 624.259 263.427 630.101C277.059 635.944 348.667 642.609 356 633.449ZM668.426 633.449C664.262 628.248 648.937 611.51 646.702 597.883C644.999 587.514 654.549 579.443 660.406 575.939C683.442 562.159 753.487 558.551 765.058 558.636C776.63 558.721 775.81 577.779 774.482 593.758C773.154 609.738 774.629 624.259 760.998 630.101C747.366 635.944 675.759 642.609 668.426 633.449ZM229.664 643.026C229.167 643.049 228.644 643.177 228.015 643.404C223.608 644.994 237.125 661.89 249.014 666.289C274.124 675.581 399.594 677.335 467.832 677.589C492.341 677.679 532.08 677.679 556.59 677.589C624.834 677.335 750.311 675.581 775.421 666.289C787.309 661.89 800.815 644.994 796.407 643.404C791.371 641.586 793.572 646.41 755.632 653.983C721.694 660.757 616.328 664.376 555.929 665.941C531.786 666.566 492.633 666.566 468.489 665.94C408.093 664.375 302.74 660.757 268.803 653.983C235.605 647.357 233.136 642.836 229.664 643.025V643.026ZM787.645 415.474C787.645 415.474 789.819 412.868 799.612 412.056C809.404 411.244 812.416 402.645 813.191 399.542C813.967 396.438 808.501 390.197 805.398 387.093C797.64 380.887 788.394 376.541 779.085 377.317C774.43 377.317 769.4 380.253 767.849 385.683C766.323 391.114 766.191 392.674 766.323 397.189C766.454 401.703 763.97 408.05 763.97 408.05L787.645 415.474ZM260.456 408.05C260.456 408.05 257.968 401.703 258.103 397.189C258.235 392.674 258.103 391.114 256.577 385.683C255.026 380.253 249.996 377.317 245.341 377.317C236.031 376.541 226.786 380.887 219.028 387.093C215.925 390.197 210.458 396.438 211.234 399.542C212.01 402.645 215.022 411.244 224.814 412.056C234.606 412.868 236.781 415.474 236.781 415.474L260.456 408.05ZM374.928 515.304C372.606 515.69 377.125 518.468 382.141 520.94C387.02 523.345 395.618 525.203 401.051 525.41C423.661 526.271 478.5 526.903 501.635 527.141C507.475 527.203 516.945 527.203 522.787 527.141C545.926 526.903 600.774 526.271 623.384 525.41C628.816 525.204 637.4 523.345 642.279 520.94C648.966 517.644 654.773 513.806 644.658 515.819C631.969 518.343 550.48 519.535 522.011 519.877C516.598 519.939 507.819 519.939 502.404 519.877C473.93 519.534 392.451 518.343 379.761 515.819C377.233 515.316 375.702 515.175 374.928 515.304ZM692.268 370.256L707.909 391.981L752.667 394.507L756.004 413.842C756.004 413.842 760.877 412.97 761.147 411.488C761.418 410.007 757.938 368.045 756.635 366.172C755.331 364.3 749.118 364.762 749.118 364.762L749.762 374.137L692.268 370.256ZM274.663 374.137L275.307 364.762C275.307 364.762 269.082 364.3 267.779 366.172C266.476 368.045 262.995 410.007 263.267 411.488C263.538 412.97 268.421 413.842 268.421 413.842L271.759 394.507L316.517 392.086L332.157 370.361L274.663 374.137Z" fill="#262625"/>
<path d="M336.233 521.581C343.565 512.422 326.527 467.452 313.266 458.872C300.004 450.291 287.565 450.426 277.658 452.799C267.75 455.171 256.3 460.295 255.133 475.859C253.966 491.423 250.409 510.519 264.041 516.361C277.673 522.204 328.9 530.74 336.233 521.581ZM688.195 521.581C680.863 512.422 697.901 467.452 711.162 458.872C724.424 450.291 736.862 450.426 746.769 452.799C756.677 455.171 768.127 460.295 769.295 475.859C770.462 491.423 774.019 510.519 760.386 516.361C746.755 522.204 695.528 530.74 688.195 521.581Z" fill="#262625"/>
</g>
<defs>
<clipPath id="clip0_315_16990">
<rect width="1024" height="1024" fill="white"/>
</clipPath>
</defs>
</svg>
