<svg width="1024" height="1024" viewBox="0 0 1024 1024" fill="none" xmlns="http://www.w3.org/2000/svg">
<g clip-path="url(#clip0_1172_49536)">
<g clip-path="url(#clip1_1172_49536)">
<path d="M680.912 278.826C697.653 284.64 745.942 358.605 763.296 397.567C763.681 397.979 764.043 398.382 764.383 398.776C766.131 398.741 767.736 398.679 768.973 398.553C768.973 394.005 768.794 376.274 768.794 371.999C768.794 367.724 776.048 362.508 782.276 360.769L783.638 360.535C791.393 359.811 812.552 365.565 818.039 368.138C823.892 370.884 823.884 370.633 825.234 373.087C826.586 375.542 826.367 379.701 825.731 384.912C825.095 390.123 812.039 399.902 809.539 400.264C807.038 400.626 790.799 401.406 789.541 402.041C788.456 402.589 781.499 412.037 778 416.504C782.229 420.477 783.183 420.914 787.323 425.293C788.901 426.962 790.543 433.014 793.151 435.77C795.758 438.526 823.944 463.022 825.705 478.782C831.578 531.375 832.02 633.128 830.956 672.404C830.873 687.528 830.542 703.923 829.685 716.726C828.45 735.171 820.818 742.803 807.116 742.857L766.031 743.017C760.102 743.04 751.994 735.255 751.326 725.467L750.06 713.599C742.932 714.276 736.648 714.684 731.989 714.684C714.27 714.686 624.701 716.692 557.246 717.567C532.098 717.894 491.324 717.896 466.179 717.571C398.722 716.702 309.149 714.703 291.429 714.703C286.769 714.703 280.482 714.295 273.351 713.619L272.086 725.467C271.419 735.255 263.311 743.04 257.382 743.017L216.297 742.857C202.595 742.803 194.963 735.171 193.727 716.726C192.869 703.91 192.539 687.494 192.457 672.357C191.393 633.01 191.829 531.366 197.694 478.809C199.453 463.05 227.636 438.55 230.243 435.794C232.85 433.039 234.492 426.986 236.07 425.317C240.216 420.93 241.167 420.5 245.414 416.507C241.917 412.041 234.957 402.589 233.872 402.041C232.614 401.406 216.375 400.626 213.874 400.264C211.374 399.902 198.318 390.123 197.682 384.912C197.048 379.701 196.827 375.542 198.179 373.087C199.529 370.633 199.521 370.884 205.374 368.138C211.227 365.393 234.911 359.03 241.138 360.769H241.137C247.365 362.508 254.618 367.724 254.618 371.999C254.618 376.274 254.442 394.005 254.439 398.553C255.677 398.679 257.281 398.741 259.028 398.776C259.362 398.389 259.718 397.994 260.096 397.589C277.446 358.626 325.729 284.657 342.469 278.841C359.208 273.025 457.257 266.431 511.69 266L522.377 266.15C578.062 267.246 665.22 273.375 680.912 278.826ZM365.095 314.482C348.356 320.298 308.068 383.023 290.717 421.986C284.54 428.597 284.459 432.748 278.224 438.81C272.004 444.857 271.469 444.659 266.691 449.714C265.113 451.384 263.472 457.436 260.864 460.192C258.258 462.947 235.516 479.498 233.757 495.258C226.567 559.7 230.081 642.758 231.97 649.564C233.858 656.371 236.497 663.108 241.966 664.807C247.434 666.507 309.886 675.965 332.327 675.965C334.759 675.965 338.061 675.992 342.176 676.044C342.025 676.041 341.992 676.04 341.967 676.04C338.449 675.991 342.24 667.032 332.3 665.236C322.361 663.44 243.537 648.973 239.948 641.759C236.36 634.545 233.283 589.834 243.353 587.957C251.645 586.411 295.2 588.554 310.113 588.554C302.736 594.795 284.19 638.419 282.92 641.707C288.132 645.632 310.519 652.324 326.475 653.419C333.176 638.94 355.793 606.933 359.007 603.258C362.22 599.582 363.611 593.644 378.537 593.948C389.955 594.18 461.851 593.522 495.009 593.199L496.804 593.183C506.089 593.109 519.784 593.115 528.438 593.199C561.595 593.522 633.494 594.18 644.912 593.948C659.838 593.644 661.229 599.582 664.442 603.258C667.656 606.933 690.273 638.94 696.974 653.419C712.93 652.324 735.317 645.632 740.529 641.707C739.259 638.419 720.713 594.795 713.336 588.554C728.249 588.554 771.803 586.411 780.096 587.957C790.165 589.834 787.088 634.545 783.5 641.759C779.912 648.973 701.088 663.44 691.149 665.236C681.379 667.002 684.876 675.691 681.65 676.024C685.57 675.975 688.736 675.949 691.088 675.949C713.53 675.947 775.979 666.484 781.448 664.784C786.917 663.084 789.555 656.346 791.443 649.54C793.332 642.733 796.839 559.675 789.642 495.233C787.882 479.474 765.138 462.925 762.531 460.17C759.924 457.414 758.282 451.362 756.705 449.693C751.926 444.638 751.391 444.836 745.171 438.789C738.935 432.728 738.854 428.577 732.676 421.967C715.322 383.005 675.029 320.284 658.289 314.469C641.55 308.655 566.125 305.415 511.692 304.989L501.259 305.103C448.06 305.836 380.788 309.03 365.095 314.482ZM755.481 620.645C755.481 626.064 755.876 627.24 765.984 627.24C776.092 627.24 775.089 625.361 775.089 619.627C775.089 613.893 772.313 612.672 763.958 612.672L763.198 612.679C755.597 612.834 755.481 615.396 755.481 620.645ZM248.324 619.627C248.324 625.361 247.321 627.24 257.429 627.24C267.536 627.24 267.932 626.064 267.932 620.645C267.932 615.226 267.808 612.672 259.455 612.672L257.953 612.687C250.764 612.842 248.324 614.251 248.324 619.627ZM787.667 499.497C788.998 505.707 788.766 515.499 788.766 522.041C788.766 527.56 784.773 529.601 782.107 530.105C771.079 532.192 666.909 553.187 653.365 557.679C639.82 562.171 626.605 570.466 615.012 571.898C609.333 572.599 584.387 573.658 560.415 574.556C533.526 575.563 489.928 575.563 463.047 574.557C439.07 573.659 414.117 572.599 408.437 571.898C396.844 570.466 383.629 562.171 370.084 557.679C356.54 553.187 252.37 532.192 241.342 530.105C238.675 529.601 234.683 527.56 234.683 522.041C234.683 515.499 234.45 505.707 235.782 499.497C237.114 493.286 244.606 485.574 248.419 485.08C259.794 494.791 341.587 505.946 361.208 515.077C380.83 524.207 381.532 536.438 392.334 536.438C399.265 536.438 429.362 536.989 461.011 537.353L466.458 537.409C494.627 537.672 536.18 537.654 562.435 537.353C594.086 536.989 624.184 536.438 631.115 536.438C641.917 536.438 642.619 524.207 662.241 515.077C681.862 505.946 763.655 494.791 775.029 485.08C778.843 485.574 786.335 493.286 787.667 499.497ZM748.81 495.323C736.757 498.231 684.482 507.526 664.853 514.858C649.966 520.418 643.589 530.821 643.589 530.821H643.592C643.592 530.821 654.998 544.021 661.317 544.128C667.638 544.235 731.048 534.786 739.612 533.325C748.176 531.865 783.323 529.733 786.25 526.779C789.172 523.825 787.629 504.358 786.784 499.254C785.94 494.15 776.073 486.063 776.073 486.063C776.073 486.063 770.004 490.21 748.81 495.323ZM236.628 499.254C235.783 504.358 234.241 523.825 237.163 526.779C240.09 529.733 275.236 531.865 283.799 533.325C292.364 534.786 355.775 544.235 362.096 544.128C368.416 544.021 379.822 530.821 379.822 530.821H379.825L379.749 530.703C378.994 529.54 372.517 520.071 358.561 514.858C338.931 507.526 286.654 498.231 274.601 495.323C253.408 490.21 247.339 486.063 247.339 486.063C247.339 486.063 237.472 494.15 236.628 499.254Z" fill="#262625"/>
<path d="M643.589 530.821C643.589 530.821 649.966 520.418 664.853 514.858C684.482 507.526 736.757 498.231 748.81 495.323C770.004 490.21 776.073 486.063 776.073 486.063C776.073 486.063 785.94 494.15 786.784 499.254C787.629 504.358 789.172 523.825 786.25 526.779C783.323 529.733 748.176 531.865 739.612 533.325C731.048 534.786 667.637 544.235 661.316 544.128C654.997 544.021 643.592 530.821 643.592 530.821H643.589ZM379.825 530.821H379.822C379.822 530.821 368.416 544.021 362.096 544.128C355.775 544.235 292.364 534.786 283.799 533.325C275.236 531.865 240.09 529.733 237.163 526.779C234.241 523.825 235.783 504.358 236.628 499.254C237.472 494.15 247.339 486.063 247.339 486.063C247.339 486.063 253.408 490.21 274.601 495.323C286.654 498.231 338.931 507.526 358.561 514.858C373.448 520.418 379.825 530.821 379.825 530.821ZM763.958 612.672C772.313 612.672 775.089 613.893 775.089 619.627C775.089 625.361 776.092 627.24 765.984 627.24C755.876 627.24 755.481 626.064 755.481 620.645C755.481 615.226 755.605 612.672 763.958 612.672ZM259.455 612.672C267.808 612.672 267.932 615.226 267.932 620.645C267.932 626.064 267.536 627.24 257.429 627.24C247.321 627.24 248.324 625.361 248.324 619.627C248.324 613.893 251.1 612.672 259.455 612.672Z" fill="#262625"/>
</g>
</g>
<defs>
<clipPath id="clip0_1172_49536">
<rect width="1024" height="1024" fill="white"/>
</clipPath>
<clipPath id="clip1_1172_49536">
<rect width="1024" height="1024" fill="white" transform="translate(0 -7)"/>
</clipPath>
</defs>
</svg>
