<svg width="1024" height="1031" viewBox="0 0 1024 1031" fill="none" xmlns="http://www.w3.org/2000/svg">
<g clip-path="url(#clip0_1168_56606)">
<path d="M512.162 274.002C564.821 274.483 653.075 276.778 678.709 284.711C681.822 285.675 686.065 284.107 689.357 286.062C706.641 296.32 745.737 349.687 763.09 388.648C763.393 388.972 763.7 389.309 764.014 389.667C768.146 389.554 773.6 389.645 776.721 389.326C776.721 384.778 776.798 377.846 776.798 373.571C776.798 369.297 781.459 368.206 783.903 368.206H783.905C790.226 368.206 818.996 369.064 823.727 371.376C828.458 373.688 831.221 375.782 832.902 377.101C834.58 378.419 834.285 380.592 833.998 381.617C833.711 382.641 832.543 381.798 832.302 383.835C832.059 385.872 831.834 389.297 831.515 390.983C831.19 392.668 820.888 405.729 817.517 406.217C814.575 406.643 796.215 409.335 780.359 409.875C781.445 411.122 782.497 412.252 783.503 413.23C789.723 419.277 802.136 425.887 806.914 430.942C811.692 435.997 831.148 468.329 833.776 491.856C834.146 495.166 834.474 498.71 834.757 502.47C834.276 502.676 829.554 504.749 829.333 506.488C829.12 508.159 834.591 514.508 835.556 515.613C836.672 538.148 836.58 565.109 835.442 589.317C834.457 610.261 837.03 687.24 834.651 695.811C834.506 696.333 834.301 696.829 834.037 697.297C833.688 706.745 833.258 715.953 832.732 723.808C831.497 742.253 823.864 749.885 810.162 749.939L769.078 750.099C763.148 750.122 755.04 742.337 754.373 732.549L753.36 715.748C746.56 715.544 739.316 715.406 731.766 715.523C728.444 715.578 732.651 705.85 729.229 705.905C725.697 705.959 722.101 706.038 718.455 706.136C716.007 706.198 718.587 713.019 716.1 713.103C708.525 713.356 700.894 712.772 693 713.033C690.828 713.103 692.853 716.208 690.665 716.285C652.378 717.574 596.918 718.08 557.718 718.278C532.568 718.408 491.794 718.41 466.647 718.282C427.446 718.087 371.984 717.587 333.695 716.301C331.507 716.227 333.536 713.119 331.359 713.049C323.466 712.789 315.834 713.373 308.26 713.119C305.773 713.035 308.354 706.214 305.904 706.152C302.258 706.054 298.662 705.976 295.13 705.921C291.708 705.868 295.916 715.595 292.594 715.54C285.042 715.424 277.795 715.562 270.993 715.767L269.982 732.549C269.315 742.337 261.207 750.122 255.277 750.099L214.193 749.939C200.49 749.885 192.858 742.253 191.623 723.808C191.097 715.958 190.667 706.757 190.318 697.315C190.055 696.849 189.851 696.356 189.707 695.837C187.328 687.266 189.894 610.287 188.909 589.343C187.769 565.129 187.675 538.162 188.79 515.623C189.727 514.551 195.235 508.164 195.022 506.488C194.799 504.738 190.016 502.649 189.589 502.466C189.871 498.718 190.199 495.183 190.567 491.882C193.192 468.354 212.646 436.021 217.423 430.965C222.201 425.91 234.613 419.299 240.833 413.251C241.845 412.268 242.903 411.13 243.995 409.875C228.139 409.335 209.78 406.643 206.838 406.217C203.467 405.729 193.165 392.668 192.839 390.983C192.518 389.297 192.293 385.872 192.053 383.835C191.814 381.798 190.644 382.641 190.357 381.617C190.069 380.592 189.773 378.419 191.453 377.101C193.134 375.782 195.897 373.688 200.628 371.376C205.359 369.064 234.129 368.206 240.45 368.206H240.452C242.896 368.206 247.556 369.297 247.556 373.571C247.556 377.846 247.637 384.778 247.634 389.326C250.754 389.645 256.207 389.554 260.338 389.667C260.646 389.316 260.947 388.986 261.244 388.668C278.594 349.705 317.684 296.335 334.967 286.075C338.26 284.12 342.502 285.687 345.615 284.723C371.249 276.788 459.502 274.485 512.16 274L512.162 274.002ZM359.781 322.924C356.668 323.888 352.426 322.321 349.133 324.276C331.85 334.537 305.53 377.408 288.18 416.371C282.003 422.982 274.004 434.892 267.769 440.954C261.549 447.002 249.137 453.613 244.359 458.668C239.582 463.724 229.42 488.359 226.795 511.886C223.984 537.074 227.91 583.545 229.487 617.046C230.472 637.99 230.526 639.988 230.603 654.938C230.681 669.889 264.845 673.466 279.197 675.389C293.548 677.313 327.03 675.444 332.368 675.444C334.663 675.444 340.6 675.436 347.572 675.428C352.193 673.017 358.283 669.87 362.823 667.634C371.196 663.511 400.185 615.856 403.624 615.228C407.063 614.599 403.044 618.587 417.969 618.891C428.536 619.107 471.363 619.495 495.48 619.704L497.275 619.718C506.56 619.784 520.255 619.779 528.91 619.704C553.027 619.496 595.854 619.107 606.421 618.891C621.348 618.587 617.327 614.599 620.766 615.228C624.205 615.856 653.194 663.511 661.568 667.634C666.1 669.866 672.177 673.007 676.796 675.416C683.763 675.425 689.695 675.432 691.989 675.432C697.327 675.432 730.808 677.294 745.16 675.37C759.511 673.445 793.674 669.865 793.751 654.914C793.792 639.964 793.881 637.966 794.865 617.022C796.439 583.521 800.36 537.049 797.547 511.862C794.92 488.334 784.757 463.7 779.978 458.645C775.201 453.59 762.788 446.981 756.567 440.934C750.332 434.872 742.332 422.962 736.154 416.352C718.8 377.391 692.477 334.521 675.192 324.263C671.9 322.308 667.658 323.875 664.544 322.912C638.909 314.979 564.82 312.682 512.162 312.202C459.505 312.687 385.416 314.989 359.781 322.924ZM772.755 577.381C777.033 577.958 780.22 580.925 782.666 588.783C785.113 596.642 786.379 605.945 785.656 613.199C784.934 620.453 765.079 634.172 754.322 634.802C743.566 635.431 684.888 642.735 675.296 641.648C671.619 641.231 666.851 637.135 662.135 632.221C661.46 631.52 654.183 633.692 652.872 632.392C651.562 631.093 658.543 628.401 658.094 627.94C651.712 621.392 646.646 614.254 644.552 614.08C640.43 613.737 633.93 614.889 630.486 614.225C627.831 613.712 627.873 612.583 628.005 611.844L628.018 611.773C628.646 608.479 648.755 603.43 663.291 598.467C677.829 593.504 725.952 585.769 734.64 583.771C743.328 581.774 768.477 576.805 772.755 577.381ZM289.714 583.771C298.403 585.769 346.526 593.504 361.063 598.467C375.599 603.43 395.708 608.479 396.337 611.773L396.35 611.844C396.482 612.583 396.523 613.712 393.868 614.225C390.424 614.889 383.925 613.737 379.803 614.08C377.709 614.254 372.643 621.392 366.261 627.94C365.812 628.401 372.792 631.093 371.482 632.392C370.172 633.692 362.895 631.52 362.22 632.221C357.504 637.135 352.735 641.231 349.059 641.648C339.467 642.735 280.789 635.431 270.032 634.802C259.276 634.172 239.421 620.453 238.699 613.199C237.976 605.945 239.242 596.642 241.689 588.783C244.135 580.925 247.322 577.958 251.6 577.381C255.878 576.805 281.026 581.774 289.714 583.771ZM778.65 509.604C775.614 528.305 649.218 561.944 647.105 562.789C641.478 565.039 627.075 577.679 615.482 579.11C609.803 579.812 584.858 580.871 560.886 581.769C533.997 582.776 490.399 582.776 463.518 581.769C439.541 580.871 414.588 579.812 408.908 579.11C397.315 577.679 382.912 565.039 377.285 562.789C375.172 561.944 248.776 528.305 245.74 509.604C242.704 490.903 244.272 478.434 244.908 474.646C263.71 482.175 365.731 501.446 382.229 501.446C392.992 501.446 427.36 501.936 461.482 502.242L466.929 502.286C495.098 502.493 536.65 502.478 562.907 502.242C597.029 501.936 631.398 501.446 642.162 501.446C658.659 501.446 760.68 482.175 779.483 474.646C780.119 478.434 781.687 490.903 778.65 509.604ZM741.065 494.814C729.012 497.722 699.919 504.606 680.289 511.938C665.402 517.498 657.546 524.269 657.546 524.269C657.546 524.269 663.18 538.462 667.626 539.303C672.073 540.143 713.854 535.366 716.044 535.138C718.235 534.91 716.808 538.991 721.011 537.626C725.214 536.261 761.762 522.194 768.88 517.761C775.999 513.327 777.909 508.412 778.421 502.814C778.933 497.217 778.809 483.58 778.809 483.58C778.809 483.58 762.258 489.7 741.065 494.814ZM245.933 502.814C246.445 508.412 248.356 513.327 255.474 517.761C262.593 522.194 299.14 536.261 303.344 537.626C307.55 538.991 306.12 534.909 308.31 535.138C310.5 535.366 352.282 540.143 356.729 539.303C361.175 538.462 366.809 524.269 366.809 524.269C366.809 524.269 358.952 517.498 344.065 511.938C324.436 504.606 295.343 497.722 283.29 494.814C262.097 489.7 245.546 483.58 245.546 483.58C245.546 483.58 245.421 497.217 245.933 502.814Z" fill="#262625"/>
<path d="M657.546 524.269C657.546 524.269 665.402 517.498 680.289 511.938C699.919 504.606 729.012 497.722 741.065 494.814C762.258 489.7 778.809 483.58 778.809 483.58C778.809 483.58 778.933 497.217 778.421 502.814C777.909 508.412 775.999 513.327 768.88 517.761C761.762 522.194 725.214 536.261 721.011 537.626C716.808 538.991 718.235 534.91 716.044 535.138C713.854 535.366 672.073 540.143 667.626 539.303C663.18 538.462 657.546 524.269 657.546 524.269ZM366.809 524.269C366.809 524.269 361.175 538.462 356.729 539.303C352.282 540.143 310.5 535.366 308.31 535.138C306.12 534.909 307.55 538.991 303.344 537.626C299.14 536.261 262.593 522.194 255.474 517.761C248.355 513.327 246.445 508.412 245.933 502.814C245.421 497.217 245.545 483.58 245.545 483.58C245.545 483.58 262.096 489.7 283.29 494.814C295.343 497.722 324.436 504.606 344.065 511.938C358.952 517.498 366.809 524.269 366.809 524.269ZM829.333 506.488C829.566 504.655 834.8 502.451 834.8 502.451L835.704 515.782C835.704 515.782 829.1 508.32 829.333 506.488ZM195.021 506.488C195.254 508.32 188.65 515.782 188.65 515.782L189.554 502.451C189.554 502.451 194.789 504.655 195.021 506.488Z" fill="#262625"/>
</g>
<defs>
<clipPath id="clip0_1168_56606">
<rect width="1024" height="1024" fill="white"/>
</clipPath>
</defs>
</svg>
