<svg width="1024" height="1024" viewBox="0 0 1024 1024" fill="none" xmlns="http://www.w3.org/2000/svg">
<g clip-path="url(#clip0_1024_16448)">
<g clip-path="url(#clip1_1024_16448)">
<path d="M586.164 262.302C625.861 263.98 660.965 267.132 675.316 273.054C697.128 282.054 750.531 362.925 773.027 409.221C773.413 405.219 773.853 400.658 774.295 396.803C773.33 395.302 771.588 392.884 771.061 390.459C770.533 388.035 772.239 368.326 777.828 367.03L779.048 366.798C785.974 365.696 804.804 365.486 813.283 367.761C822.329 370.188 831.199 380.086 831.61 382.3C832.022 384.515 832.076 387.109 831.61 388.437C831.122 389.765 825.816 399.424 817.488 401.969C812.482 403.499 799.8 406.067 787.91 407.378C786.369 416.265 786.059 423.801 784.844 429.863C787.434 433.547 790.118 437.031 792.895 440.387C801.491 450.779 814.608 459.885 819.189 471.19C824.027 483.129 832.052 522.36 833.945 539.307C838.229 577.659 829.556 678.563 825.003 695.885C825.111 696.644 826.262 705.337 824.597 717.113C822.009 735.417 815.729 743.19 802.027 743.244L764.032 743.404C758.102 743.429 750.823 735.642 750.156 725.854L750.325 712.479C717.409 712.728 652.28 713.198 598.174 713.591C550.613 713.947 473.501 713.951 425.939 713.599C371.83 713.21 306.696 712.746 273.783 712.5L273.952 725.854C273.285 735.642 266.005 743.427 260.076 743.404L222.081 743.244C208.378 743.19 202.099 735.417 199.511 717.113C197.849 705.361 198.992 696.68 199.104 695.888C194.548 678.519 185.875 577.674 190.153 539.335C192.044 522.388 200.067 483.157 204.904 471.217C209.483 459.912 222.6 450.805 231.195 440.412C233.978 437.047 236.668 433.555 239.263 429.861C238.048 423.799 237.738 416.264 236.198 407.378C224.308 406.067 211.626 403.499 206.619 401.969C198.292 399.424 192.986 389.765 192.497 388.437C192.032 387.109 192.086 384.515 192.497 382.3C192.909 380.086 201.779 370.188 210.824 367.761C219.869 365.335 240.69 365.734 246.279 367.03L246.792 367.205C251.973 369.541 253.558 388.111 253.047 390.459C252.522 392.884 250.778 395.302 249.812 396.803C250.255 400.653 250.694 405.206 251.08 409.203C273.585 362.896 326.955 282.068 348.759 273.068C363.11 267.145 398.212 263.99 437.909 262.309L445.867 262.002C487.026 260.573 547.808 260.672 586.164 262.302ZM437.902 300.549C407.472 301.758 383.158 304.222 369.773 309.746C346.666 319.284 297.978 396.751 278.229 441.101C273.249 449.811 267.863 457.357 262.079 464.351C253.484 474.744 243.244 483.852 238.665 495.157C233.828 507.096 232.221 522.388 230.329 539.335C225.761 580.27 231.422 654.06 235.608 659.838C239.793 665.616 273.889 673.784 288.855 673.935C297.212 674.019 366.432 674.468 425.936 674.849C473.498 675.154 550.612 675.151 598.174 674.842C657.678 674.456 726.898 674 735.255 673.915C750.221 673.764 784.316 665.592 788.501 659.814C792.686 654.036 798.341 580.245 793.769 539.311C791.876 522.364 790.268 507.072 785.43 495.133C780.85 483.828 770.609 474.722 762.013 464.33C756.229 457.336 750.842 449.791 745.861 441.081C726.108 396.732 677.413 319.269 654.305 309.734C640.919 304.21 616.605 301.749 586.173 300.542C545.255 298.921 478.821 298.923 437.902 300.549ZM489.06 523.251C501.768 523.63 522.371 523.63 535.072 523.251C562.115 522.444 605.671 520.818 624.294 518.316C623.319 519.584 615.392 529.975 609.377 540.377C595.37 541.871 551.62 542.942 547.637 542.92C545.527 547.808 543.066 552.366 541.327 555.241C549.125 555.223 556.406 555.198 562.785 555.165C603.473 554.956 647.612 554.838 653.5 556.525C667.95 560.663 703.169 602.162 722.204 632.371C741.239 662.581 715.16 658.435 700.266 663.17C690.546 666.26 613.296 667.852 560.788 668.585C533.884 668.961 490.26 668.961 463.356 668.585C410.848 667.852 333.598 666.26 323.878 663.17C308.983 658.435 282.904 662.581 301.939 632.371C320.974 602.162 356.193 560.663 370.643 556.525C376.532 554.839 420.67 554.957 461.358 555.165C467.737 555.198 475.018 555.223 482.817 555.241C481.077 552.366 478.617 547.808 476.506 542.92C472.52 542.941 428.688 541.869 414.728 540.373C408.699 529.948 400.751 519.535 399.809 518.31C418.401 520.815 461.996 522.443 489.06 523.251ZM257.675 619.837C258.834 625.244 247.324 634.278 245.92 637.805C244.516 641.331 249.73 648.733 249.551 651.584C249.374 654.434 242.792 656.061 240.096 657.054C239.344 653.25 237.154 641.564 238.318 636.658C239.481 631.751 256.516 614.431 257.675 619.837ZM785.79 636.658C786.954 641.564 784.764 653.25 784.012 657.054C781.316 656.061 774.733 654.434 774.556 651.584C774.378 648.733 779.592 641.331 778.188 637.805C776.784 634.278 765.274 625.244 766.433 619.837C767.592 614.431 784.626 631.751 785.79 636.658Z" fill="#262625"/>
<path d="M624.393 518.186C624.393 518.186 615.746 529.339 609.318 540.473C620.911 538.728 654.502 535.369 667.509 534.016C677.871 532.938 714.313 526.562 721.079 527.434C727.847 528.305 727.296 530.012 727.513 531.712C727.73 533.412 727.715 550.125 728.484 555.807C733.598 555.048 751.243 550.102 760.479 538.101C767.651 528.781 765.485 511.125 765.819 505.388C766.579 492.263 761.956 480.23 755.445 475.384C749.568 496.27 701.924 501.748 686.54 505.763C671.155 509.777 624.393 518.186 624.393 518.186ZM399.711 518.186C399.711 518.186 352.949 509.777 337.564 505.763C322.18 501.748 274.536 496.27 268.659 475.384C262.148 480.23 257.523 492.263 258.285 505.388C258.619 511.125 256.453 528.781 263.625 538.101C272.861 550.102 290.506 555.048 295.62 555.807C296.388 550.125 296.373 533.412 296.591 531.712C296.808 530.012 296.257 528.305 303.025 527.434C309.791 526.562 346.232 532.938 356.595 534.016C369.602 535.369 403.193 538.728 414.786 540.473C408.358 529.339 399.711 518.186 399.711 518.186Z" fill="#262625"/>
</g>
</g>
<defs>
<clipPath id="clip0_1024_16448">
<rect width="1024" height="1024" fill="white"/>
</clipPath>
<clipPath id="clip1_1024_16448">
<rect width="1024" height="1024" fill="white" transform="translate(0 -10)"/>
</clipPath>
</defs>
</svg>
