<svg width="1024" height="1024" viewBox="0 0 1024 1024" fill="none" xmlns="http://www.w3.org/2000/svg">
<g clip-path="url(#clip0_578_28037)">
<g clip-path="url(#clip1_578_28037)">
<path d="M796.808 695.725C788.625 698.264 743.489 704.542 743.489 704.542L744.538 725.469C745.205 735.257 752.485 743.045 758.414 743.019L795.355 742.859C809.057 742.797 816.69 735.173 817.925 716.729C820.092 684.349 820.637 684.652 820.637 684.652C806.81 686.163 805.015 693.178 796.808 695.725ZM227.932 695.725C219.725 693.178 217.93 686.163 204.103 684.652C204.103 684.652 204.646 684.348 206.816 716.729C208.051 735.173 215.683 742.797 229.385 742.859L266.326 743.019C272.256 743.042 279.535 735.257 280.202 725.469L281.251 704.542C281.251 704.542 236.116 698.264 227.932 695.725ZM438.245 298.842C479.136 296.649 545.573 296.646 586.464 298.835C612.052 300.205 635.35 302.172 647.75 304.743C672.375 309.848 720.322 383.033 740.075 427.382C765.416 466.25 788.959 479.896 793.85 523.688C798.421 564.622 796.073 653.37 788.115 658.362C780.157 663.353 703.604 672.671 687.957 673.731C680.447 674.24 639.264 675.538 598.457 676.751C550.915 678.164 473.83 678.168 426.29 676.759C385.481 675.549 344.295 674.255 336.785 673.746C321.138 672.688 244.585 663.376 236.626 658.386C228.667 653.395 226.312 564.647 230.88 523.712C235.767 479.92 259.308 466.273 284.646 427.402C304.395 383.052 352.336 309.862 376.96 304.755C389.36 302.183 412.656 300.214 438.245 298.842ZM438.273 260.959C405.553 263.046 374.113 265.92 360.599 268.723C335.975 273.83 270.585 363.698 250.836 408.048C225.499 446.919 198.437 467.188 193.55 510.981C188.982 551.915 195.207 689.821 203.166 694.811C211.125 699.801 288.246 709.308 303.893 710.366C312.29 710.935 372.52 713.212 426.311 715.192C473.841 716.939 550.906 716.936 598.437 715.185C652.228 713.2 712.456 710.917 720.852 710.348C736.5 709.288 813.619 699.775 821.578 694.784C829.536 689.793 835.75 551.887 831.178 510.953C826.288 467.16 799.224 446.893 773.883 408.025C754.13 363.676 688.733 273.815 664.109 268.71C650.593 265.908 619.152 263.037 586.431 260.953C545.567 258.346 479.139 258.349 438.273 260.959ZM772.854 368.445C764.647 370.149 770.516 396.684 770.521 404.098C766.772 404.48 768.721 407.689 767.471 411.197C770.971 414.86 775.589 416.957 781.991 421.091C784.642 416.753 788.097 411.198 790.572 409.581C793.046 407.965 800.626 406.884 806.629 405.771C812.633 404.658 823.611 391.083 821.513 385.731C813.692 365.787 781.06 366.741 772.854 368.445ZM251.886 368.445C243.68 366.741 211.049 365.787 203.228 385.731C201.129 391.083 212.108 404.658 218.111 405.771C224.114 406.884 231.694 407.965 234.168 409.581C236.643 411.198 240.098 416.753 242.75 421.091C249.151 416.957 253.769 414.86 257.27 411.197C256.019 407.689 257.968 404.48 254.219 404.098C254.224 396.684 260.093 370.149 251.886 368.445ZM455.359 636.349C417.86 633.27 373.272 629.641 359.527 628.65C354.516 628.288 332.307 637.488 323.268 638.038C314.23 638.589 250.004 629.011 249.295 620.744C248.729 614.107 289.12 624.73 298.357 621.985C307.593 619.239 316.842 610.327 317.998 606.06C319.154 601.793 316.832 599.118 313.182 597.128C309.532 595.137 259.878 580.782 249.275 581.555C231.021 582.887 238.251 630.252 243.401 633.097C253.386 638.612 369.755 656.098 413.156 658.818C429.948 659.87 447.073 660.61 462.272 661.129C489.942 662.072 534.838 662.072 562.511 661.128C577.709 660.61 594.83 659.87 611.62 658.818C655.021 656.098 771.39 638.612 781.375 633.097C786.525 630.252 793.755 582.887 775.501 581.555C764.898 580.782 715.244 595.137 711.594 597.128C707.944 599.118 705.622 601.793 706.778 606.06C707.933 610.327 717.183 619.239 726.419 621.985C735.656 624.73 776.047 614.107 775.481 620.744C774.775 629.011 710.546 638.589 701.507 638.038C692.469 637.487 670.26 628.288 665.249 628.65C651.504 629.641 606.915 633.27 569.417 636.349C537.92 638.935 486.856 638.935 455.359 636.349ZM492.687 513.479C443.861 510.92 361.061 500.922 346.463 499.834C353.126 512.277 359.219 525.373 363.455 530.476C379.809 534.598 465.825 544.101 500.348 546.675C506.989 547.169 517.795 547.169 524.444 546.673C558.978 544.098 644.97 534.598 661.321 530.476C665.557 525.373 671.65 512.277 678.313 499.834C663.714 500.922 580.904 510.921 532.079 513.48C521.214 514.049 503.558 514.049 492.687 513.479ZM492.684 560.077C448.669 558.114 384.916 551.011 371.41 553.224C365.53 554.188 347.357 563.725 346.463 566.701C345.568 569.677 368.587 607.709 374.708 610.009C379.403 611.773 428.394 618.854 473.683 621.604C495.028 622.9 529.751 622.9 551.098 621.604C596.386 618.854 645.373 611.773 650.068 610.009C656.189 607.709 679.208 569.677 678.313 566.701C677.419 563.725 659.246 554.188 653.366 553.224C639.859 551.011 576.1 558.115 532.084 560.077C521.214 560.562 503.559 560.562 492.684 560.077Z" fill="#262625"/>
<path d="M677.751 499.916C677.751 499.916 661.93 523.471 660.058 531.445C671.453 535.695 688.324 540.38 701.331 539.027C720.751 537.007 759.712 532.845 773.629 519.572C780.597 512.926 774.164 495.863 772.225 487.503C770.29 479.142 761.955 460.289 757.999 460.021C754.044 459.754 735.805 488.061 729.841 490.38C723.876 492.699 677.751 499.916 677.751 499.916ZM346.989 499.916C346.989 499.916 300.864 492.699 294.9 490.38C288.935 488.061 270.696 459.754 266.741 460.021C262.786 460.289 254.45 479.142 252.515 487.503C250.578 495.863 244.143 512.926 251.111 519.572C265.028 532.845 303.989 537.007 323.409 539.027C336.416 540.38 353.288 535.695 364.683 531.445C362.81 523.471 346.989 499.916 346.989 499.916Z" fill="#262625"/>
</g>
</g>
<defs>
<clipPath id="clip0_578_28037">
<rect width="1024" height="1024" fill="white"/>
</clipPath>
<clipPath id="clip1_578_28037">
<rect width="1024" height="1024" fill="white" transform="translate(0 -11)"/>
</clipPath>
</defs>
</svg>
