<svg width="1024" height="1024" viewBox="0 0 1024 1024" fill="none" xmlns="http://www.w3.org/2000/svg">
<g clip-path="url(#clip0_315_17006)">
<path d="M816.114 724.724C807.931 727.264 755.766 729.727 755.766 729.727L756.815 762.747C757.482 772.535 764.449 780.319 770.379 780.297L814.661 780.137C828.363 780.091 837.662 772.118 838.897 753.673C841.065 721.293 842.942 675.381 842.942 675.381C829.116 676.892 824.321 722.177 816.114 724.724ZM208.022 724.724C199.814 722.177 195.02 676.892 181.193 675.381C181.193 675.381 183.071 721.293 185.238 753.673C186.473 772.118 195.772 780.091 209.475 780.137L253.757 780.297C259.687 780.32 266.653 772.535 267.32 762.747L268.369 729.727C268.369 729.727 216.205 727.264 208.022 724.724ZM437.901 282.498C478.852 282.09 545.248 282.088 586.197 282.491C631.912 282.941 643.08 283.887 661.388 289.553C687.023 297.486 725.562 376.905 745.315 421.253C774.391 455.207 802.269 462.967 807.16 506.759C811.731 547.693 814.665 680.868 786.445 691.758C758.225 702.647 724.188 698.127 709.222 698.279C701.432 698.358 647.815 698.341 598.189 698.302C550.625 698.264 473.511 698.271 425.948 698.31C376.322 698.349 322.703 698.372 314.913 698.295C299.947 698.144 265.912 702.667 237.691 691.78C209.469 680.893 212.392 547.717 216.96 506.783C221.846 462.99 249.724 455.228 278.796 421.271C298.545 376.921 337.077 297.499 362.712 289.564C381.019 283.897 392.187 282.95 437.901 282.496V282.498ZM437.905 244.699C382.425 245.948 358.95 248.221 340.326 253.462C314.957 260.601 267.918 355.428 248.169 399.778C219.097 433.735 184.673 444.855 178.68 490.859C173.36 531.703 169.741 718.018 197.963 728.905C226.184 739.792 299.947 737.586 314.913 737.737C322.704 737.815 376.323 737.631 425.95 737.436C473.513 737.25 550.627 737.246 598.189 737.429C647.817 737.619 701.436 737.799 709.226 737.72C724.192 737.568 797.956 739.767 826.175 728.878C854.396 717.988 850.762 531.674 845.437 490.831C839.441 444.827 805.016 433.709 775.94 399.755C756.188 355.407 709.141 260.584 683.771 253.448C665.146 248.208 641.671 245.937 586.191 244.693C545.25 243.766 478.846 243.769 437.905 244.699ZM776.453 363.497C776.453 365.838 774.235 369.7 774.312 383.619C770.567 384.001 769.613 383.938 765.457 384.201C766.737 390.085 769.419 396.015 772.061 401.003C792.77 400.91 802.137 399.362 811.766 398.937C825.664 398.323 832.292 385.176 831.819 379.447C831.214 372.1 825.06 364.046 817.594 363.178C800.54 361.194 776.453 361.861 776.453 363.497ZM247.683 363.497C247.683 361.861 223.595 361.194 206.541 363.178C199.076 364.046 192.92 372.1 192.316 379.447C191.843 385.176 198.471 398.323 212.369 398.937C221.999 399.362 231.366 400.91 252.074 401.003C254.717 396.015 257.398 390.085 258.678 384.201C254.523 383.938 253.569 384.001 249.823 383.619C249.901 369.7 247.683 365.838 247.683 363.497ZM454.864 616.621C422.279 616.481 381.584 616.473 348.993 616.993C339.563 617.145 305.311 665.556 303.247 668.492C288.642 667.439 250.275 665.92 237.37 656.943C230.023 651.831 232.633 637.401 232.593 622.364C224.842 620.923 220.525 618.617 215.451 617.313C210.994 636.193 217.268 666.447 225.815 686.594C245.333 705.131 308.749 704.213 330.982 699.424C335.62 677.127 350.237 651.031 358.69 639.64C375.584 639.64 423.595 639.586 461.948 639.511C489.638 639.457 534.533 639.457 562.223 639.511C600.576 639.589 648.587 639.64 665.481 639.64C673.935 651.031 688.551 677.127 693.189 699.424C715.423 704.213 778.838 705.131 798.356 686.594C806.903 666.447 813.177 636.193 808.72 617.313C803.646 618.617 799.329 620.923 791.578 622.364C791.501 637.401 794.148 651.831 786.802 656.943C773.896 665.92 735.529 667.439 720.924 668.492C718.86 665.556 684.608 617.145 675.178 616.993C642.586 616.472 601.89 616.481 569.303 616.621C537.702 616.756 486.468 616.756 454.864 616.621ZM461.372 498.125C423.702 498.11 384.627 498.307 378.839 499.965C364.389 504.103 333.547 531.948 333.927 536.918C334.098 539.129 343.181 535.608 351.411 543.555C364.825 556.505 391.216 576.385 396.974 577.088C402.465 577.758 434.484 578.162 463.389 578.393C490.283 578.608 533.898 578.608 560.804 578.393C589.703 578.162 621.706 577.758 627.198 577.088C632.955 576.385 659.346 556.505 672.76 543.555C680.991 535.608 690.073 539.129 690.244 536.918C690.624 531.948 659.782 504.103 645.332 499.965C639.545 498.307 600.469 498.11 562.798 498.125C534.79 498.133 489.38 498.133 461.372 498.125Z" fill="#262625"/>
<path d="M284.242 637.742C280.611 634.371 269.676 633.774 261.665 635.063C253.654 636.351 256.697 645.3 259.711 647.943C262.724 650.586 282.52 652.041 285.104 649.35C287.687 646.659 287.874 641.112 284.242 637.742ZM739.893 637.742C743.525 634.371 754.46 633.774 762.471 635.063C770.482 636.351 767.438 645.3 764.425 647.943C761.412 650.586 741.615 652.041 739.032 649.35C736.448 646.659 736.262 641.112 739.893 637.742ZM373.788 489.753C339.706 483.918 301.659 479.168 273.154 466.688C256.654 459.463 257.202 451.816 257.202 451.816C257.202 451.816 254.004 462.735 252.461 476.441C251.349 486.324 253.475 497.712 258.935 501.112C269.085 507.433 302.721 516.403 321.031 518.951C339.342 521.499 360.448 497.152 373.788 489.753ZM650.348 489.753C684.43 483.918 722.477 479.168 750.982 466.688C767.482 459.463 766.934 451.816 766.934 451.816C766.934 451.816 770.132 462.735 771.675 476.441C772.787 486.324 770.66 497.712 765.201 501.112C755.051 507.433 721.415 516.403 703.104 518.951C684.794 521.499 663.688 497.152 650.348 489.753Z" fill="#262625"/>
</g>
<defs>
<clipPath id="clip0_315_17006">
<rect width="1024" height="1024" fill="white"/>
</clipPath>
</defs>
</svg>
