<svg width="1024" height="1024" viewBox="0 0 1024 1024" fill="none" xmlns="http://www.w3.org/2000/svg">
<g clip-path="url(#clip0_485_12555)">
<g clip-path="url(#clip1_485_12555)">
<path d="M816.114 687.724C807.931 690.264 755.766 692.727 755.766 692.727L756.815 725.747C757.482 735.535 764.449 743.319 770.379 743.297L814.661 743.137C828.363 743.091 837.662 735.118 838.897 716.673C841.065 684.293 842.942 638.381 842.942 638.381C829.116 639.892 824.321 685.177 816.114 687.724ZM208.022 687.724C199.814 685.177 195.02 639.892 181.193 638.381C181.193 638.381 183.071 684.293 185.238 716.673C186.473 735.118 195.772 743.091 209.475 743.137L253.757 743.297C259.687 743.32 266.653 735.535 267.32 725.747L268.369 692.727C268.369 692.727 216.205 690.264 208.022 687.724ZM437.901 245.498C478.852 245.09 545.248 245.088 586.197 245.491C631.912 245.941 643.08 246.887 661.388 252.553C687.023 260.486 725.562 339.905 745.315 384.253C774.391 418.207 802.269 425.967 807.16 469.759C811.731 510.693 814.665 643.868 786.445 654.758C758.225 665.647 724.188 661.127 709.222 661.279C701.432 661.358 647.815 661.341 598.189 661.302C550.625 661.264 473.511 661.271 425.948 661.31C376.322 661.349 322.703 661.372 314.913 661.295C299.947 661.144 265.912 665.667 237.691 654.78C209.469 643.893 212.392 510.717 216.96 469.783C221.846 425.99 249.724 418.228 278.796 384.271C298.545 339.921 337.077 260.499 362.712 252.564C381.019 246.897 392.187 245.95 437.901 245.496V245.498ZM437.905 207.699C382.425 208.948 358.95 211.221 340.326 216.462C314.957 223.601 267.918 318.428 248.169 362.778C219.097 396.735 184.673 407.855 178.68 453.859C173.36 494.703 169.741 681.018 197.963 691.905C226.184 702.792 299.947 700.586 314.913 700.737C322.704 700.815 376.323 700.631 425.95 700.436C473.513 700.25 550.627 700.246 598.189 700.429C647.817 700.619 701.436 700.799 709.226 700.72C724.192 700.568 797.956 702.767 826.175 691.878C854.396 680.988 850.762 494.674 845.437 453.831C839.441 407.827 805.016 396.709 775.94 362.755C756.188 318.407 709.141 223.584 683.771 216.448C665.146 211.208 641.671 208.937 586.191 207.693C545.25 206.766 478.846 206.769 437.905 207.699ZM776.453 326.497C776.453 328.838 774.235 332.7 774.312 346.619C770.567 347.001 769.613 346.938 765.457 347.201C766.737 353.085 769.419 359.015 772.061 364.003C792.77 363.91 802.137 362.362 811.766 361.937C825.664 361.323 832.292 348.176 831.819 342.447C831.214 335.1 825.06 327.046 817.594 326.178C800.54 324.194 776.453 324.861 776.453 326.497ZM247.683 326.497C247.683 324.861 223.595 324.194 206.541 326.178C199.076 327.046 192.92 335.1 192.316 342.447C191.843 348.176 198.471 361.323 212.369 361.937C221.999 362.362 231.366 363.91 252.074 364.003C254.717 359.015 257.398 353.085 258.678 347.201C254.523 346.938 253.569 347.001 249.823 346.619C249.901 332.7 247.683 328.838 247.683 326.497ZM454.864 579.621C422.279 579.481 381.584 579.473 348.993 579.993C339.563 580.145 305.311 628.556 303.247 631.492C288.642 630.439 250.275 628.92 237.37 619.943C230.023 614.831 232.633 600.401 232.593 585.364C224.842 583.923 220.525 581.617 215.451 580.313C210.994 599.193 217.268 629.447 225.815 649.594C245.333 668.131 308.749 667.213 330.982 662.424C335.62 640.127 350.237 614.031 358.69 602.64C375.584 602.64 423.595 602.586 461.948 602.511C489.638 602.457 534.533 602.457 562.223 602.511C600.576 602.589 648.587 602.64 665.481 602.64C673.935 614.031 688.551 640.127 693.189 662.424C715.423 667.213 778.838 668.131 798.356 649.594C806.903 629.447 813.177 599.193 808.72 580.313C803.646 581.617 799.329 583.923 791.578 585.364C791.501 600.401 794.148 614.831 786.802 619.943C773.896 628.92 735.529 630.439 720.924 631.492C718.86 628.556 684.608 580.145 675.178 579.993C642.586 579.472 601.89 579.481 569.303 579.621C537.702 579.756 486.468 579.756 454.864 579.621ZM461.372 461.125C423.702 461.11 384.627 461.307 378.839 462.965C364.389 467.103 333.547 494.948 333.927 499.918C334.098 502.129 343.181 498.608 351.411 506.555C364.825 519.505 391.216 539.385 396.974 540.088C402.465 540.758 434.484 541.162 463.389 541.393C490.283 541.608 533.898 541.608 560.804 541.393C589.703 541.162 621.706 540.758 627.198 540.088C632.955 539.385 659.346 519.505 672.76 506.555C680.991 498.608 690.073 502.129 690.244 499.918C690.624 494.948 659.782 467.103 645.332 462.965C639.545 461.307 600.469 461.11 562.798 461.125C534.79 461.133 489.38 461.133 461.372 461.125Z" fill="#262625"/>
<path d="M284.242 600.742C280.611 597.371 269.676 596.774 261.665 598.063C253.654 599.351 256.697 608.3 259.711 610.943C262.724 613.586 282.52 615.041 285.104 612.35C287.687 609.659 287.874 604.112 284.242 600.742ZM739.893 600.742C743.525 597.371 754.46 596.774 762.471 598.063C770.482 599.351 767.438 608.3 764.425 610.943C761.412 613.586 741.615 615.041 739.032 612.35C736.448 609.659 736.262 604.112 739.893 600.742ZM373.788 452.753C339.706 446.918 301.659 442.168 273.154 429.688C256.654 422.463 257.202 414.816 257.202 414.816C257.202 414.816 254.004 425.735 252.461 439.441C251.349 449.324 253.475 460.712 258.935 464.112C269.085 470.433 302.721 479.403 321.031 481.951C339.342 484.499 360.448 460.152 373.788 452.753ZM650.348 452.753C684.43 446.918 722.477 442.168 750.982 429.688C767.482 422.463 766.934 414.816 766.934 414.816C766.934 414.816 770.132 425.735 771.675 439.441C772.787 449.324 770.66 460.712 765.201 464.112C755.051 470.433 721.415 479.403 703.104 481.951C684.794 484.499 663.688 460.152 650.348 452.753Z" fill="#262625"/>
</g>
</g>
<defs>
<clipPath id="clip0_485_12555">
<rect width="1024" height="1024" fill="white"/>
</clipPath>
<clipPath id="clip1_485_12555">
<rect width="1024" height="1024" fill="white" transform="translate(0 -37)"/>
</clipPath>
</defs>
</svg>
