<svg width="36" height="36" viewBox="0 0 36 36" fill="none" xmlns="http://www.w3.org/2000/svg">
<g clip-path="url(#clip0_164_6347)">
<path d="M29.8789 26.5622C29.5559 26.6625 27.4967 26.7597 27.4967 26.7597L27.5382 28.0632C27.5645 28.4496 27.8395 28.7568 28.0735 28.7559L29.8216 28.7496C30.3624 28.7478 30.7295 28.433 30.7782 27.705C30.8638 26.4268 30.9379 24.6145 30.9379 24.6145C30.3922 24.6741 30.2029 26.4618 29.8789 26.5622ZM5.87527 26.5622C5.55129 26.4618 5.36203 24.6741 4.81625 24.6145C4.81625 24.6145 4.89036 26.4268 4.97593 27.705C5.02468 28.433 5.39174 28.7478 5.93261 28.7496L7.68061 28.7559C7.91467 28.7569 8.18967 28.4496 8.21601 28.0632L8.25741 26.7597C8.25741 26.7597 6.19828 26.6625 5.87527 26.5622ZM14.9494 9.10594C16.5659 9.08986 19.1868 9.08978 20.8032 9.10569C22.6078 9.12345 23.0487 9.16079 23.7713 9.38444C24.7833 9.69758 26.3045 12.8325 27.0843 14.5831C28.2319 15.9234 29.3323 16.2297 29.5254 17.9584C29.7059 19.5741 29.8217 24.8311 28.7077 25.2609C27.5938 25.6908 26.2503 25.5123 25.6595 25.5183C25.3521 25.5214 23.2355 25.5208 21.2766 25.5193C19.3991 25.5177 16.3551 25.5181 14.4776 25.5196C12.5187 25.5211 10.4022 25.522 10.0947 25.5189C9.5039 25.513 8.16039 25.6916 7.04642 25.2618C5.93241 24.832 6.04777 19.5751 6.22808 17.9593C6.42098 16.2306 7.52139 15.9242 8.669 14.5838C9.44857 12.8332 10.9696 9.6981 11.9814 9.38488C12.7041 9.16118 13.1449 9.12388 14.9494 9.10594ZM14.9496 7.61389C12.7596 7.66321 11.833 7.75293 11.0978 7.95981C10.0964 8.2416 8.2396 11.9848 7.46005 13.7354C6.31244 15.0758 4.95359 15.5148 4.71705 17.3307C4.50704 18.943 4.36421 26.2975 5.47821 26.7273C6.59219 27.157 9.5039 27.0699 10.0947 27.0759C10.4022 27.079 12.5187 27.0717 14.4777 27.064C16.3552 27.0567 19.3991 27.0565 21.2766 27.0638C23.2356 27.0712 25.3522 27.0783 25.6596 27.0752C26.2504 27.0692 29.1622 27.1561 30.276 26.7262C31.39 26.2964 31.2466 18.9418 31.0365 17.3296C30.7997 15.5137 29.4408 15.0748 28.2931 13.7345C27.5134 11.9839 25.6563 8.24094 24.6549 7.95924C23.9196 7.75242 22.993 7.66278 20.803 7.61365C19.1869 7.57709 16.5657 7.57719 14.9496 7.61389ZM28.3133 12.3033C28.3133 12.3957 28.2258 12.5481 28.2288 13.0975C28.081 13.1127 28.0433 13.1102 27.8793 13.1205C27.9298 13.3528 28.0356 13.5869 28.14 13.7838C28.9575 13.7801 29.3272 13.719 29.7073 13.7022C30.2559 13.678 30.5176 13.159 30.4989 12.9329C30.475 12.6429 30.232 12.325 29.9374 12.2907C29.2642 12.2123 28.3133 12.2387 28.3133 12.3033ZM7.44082 12.3033C7.44082 12.2387 6.49001 12.2123 5.81684 12.2907C5.52214 12.325 5.27914 12.6429 5.25531 12.9329C5.23663 13.159 5.49829 13.678 6.04689 13.7022C6.42699 13.719 6.79675 13.7801 7.61419 13.7838C7.71849 13.5869 7.82433 13.3528 7.87486 13.1205C7.71083 13.1102 7.67317 13.1127 7.52531 13.0975C7.52839 12.5481 7.44082 12.3957 7.44082 12.3033ZM15.619 22.295C14.3328 22.2895 12.7264 22.2891 11.4399 22.3098C11.0677 22.3156 9.71564 24.2266 9.63417 24.3426C9.05764 24.301 7.54317 24.241 7.03373 23.8867C6.74373 23.6848 6.84675 23.1153 6.84519 22.5217C6.53923 22.4648 6.36883 22.3738 6.16852 22.3224C5.99258 23.0676 6.24027 24.2618 6.57763 25.0572C7.3481 25.7888 9.85133 25.7526 10.729 25.5636C10.912 24.6834 11.489 23.6533 11.8227 23.2036C12.4896 23.2036 14.3848 23.2015 15.8987 23.1986C16.9917 23.1964 18.7638 23.1964 19.8569 23.1986C21.3708 23.2016 23.266 23.2036 23.9329 23.2036C24.2665 23.6533 24.8435 24.6834 25.0266 25.5636C25.9043 25.7526 28.4075 25.7888 29.1779 25.0572C29.5153 24.2618 29.763 23.0676 29.5871 22.3224C29.3867 22.3738 29.2163 22.4648 28.9104 22.5217C28.9073 23.1153 29.0118 23.6848 28.7219 23.8867C28.2124 24.241 26.698 24.301 26.1214 24.3426C26.0399 24.2266 24.6879 22.3156 24.3156 22.3098C23.0291 22.2891 21.4227 22.2895 20.1364 22.295C18.889 22.3004 16.8665 22.3004 15.619 22.295ZM15.8759 17.6175C14.389 17.6169 12.8465 17.6247 12.6181 17.6902C12.0477 17.8535 10.8302 18.9526 10.8452 19.1488C10.852 19.2361 11.2105 19.0971 11.5354 19.4108C12.0649 19.922 13.1066 20.7068 13.3339 20.7345C13.5507 20.7609 14.8146 20.7769 15.9556 20.786C17.0172 20.7945 18.7389 20.7945 19.8009 20.786C20.9416 20.7769 22.2049 20.7609 22.4217 20.7345C22.6489 20.7068 23.6907 19.922 24.2202 19.4108C24.5451 19.0971 24.9036 19.2361 24.9103 19.1488C24.9253 18.9526 23.7079 17.8535 23.1376 17.6902C22.9091 17.6247 21.3666 17.617 19.8796 17.6175C18.774 17.6179 16.9815 17.6179 15.8759 17.6175Z" fill="#262625"/>
<path d="M8.88399 23.1287C8.74063 22.9957 8.30899 22.9721 7.99277 23.023C7.67654 23.0739 7.79668 23.4271 7.91562 23.5315C8.03456 23.6357 8.816 23.6932 8.91798 23.587C9.01996 23.4807 9.02734 23.2618 8.88399 23.1287ZM26.8702 23.1287C27.0136 22.9957 27.4452 22.9721 27.7614 23.023C28.0776 23.0739 27.9575 23.4271 27.8386 23.5315C27.7197 23.6357 26.9382 23.6932 26.8362 23.587C26.7342 23.4807 26.7269 23.2618 26.8702 23.1287ZM12.4187 17.2871C11.0733 17.0567 9.57146 16.8693 8.44627 16.3766C7.79496 16.0914 7.81658 15.7896 7.81658 15.7896C7.81658 15.7896 7.69036 16.2206 7.62944 16.7616C7.58556 17.1517 7.6695 17.6013 7.885 17.7354C8.28565 17.985 9.61339 18.339 10.3362 18.4396C11.059 18.5402 11.8921 17.5791 12.4187 17.2871ZM23.3355 17.2871C24.6809 17.0567 26.1827 16.8693 27.3079 16.3766C27.9592 16.0914 27.9376 15.7896 27.9376 15.7896C27.9376 15.7896 28.0638 16.2206 28.1248 16.7616C28.1686 17.1517 28.0847 17.6013 27.8692 17.7354C27.4685 17.985 26.1408 18.339 25.4181 18.4396C24.6952 18.5402 23.8621 17.5791 23.3355 17.2871Z" fill="#262625"/>
</g>
<defs>
<clipPath id="clip0_164_6347">
<rect width="26.6105" height="21.8048" fill="white" transform="translate(4.57178 6.95105)"/>
</clipPath>
</defs>
</svg>
