<svg width="36" height="36" viewBox="0 0 36 36" fill="none" xmlns="http://www.w3.org/2000/svg">
<g clip-path="url(#clip0_822_1934)">
<path d="M29.186 26.9749C28.1771 27.0186 27.4355 27.0415 27.4355 27.0415L27.4769 28.3945C27.5031 28.7809 27.8246 29.0899 28.0587 29.0872L29.7961 29.0683C30.3369 29.0623 30.3385 28.7904 30.3872 28.0623C30.4728 26.7841 30.309 25.4779 30.309 25.4779C29.9712 25.5148 29.795 26.9486 29.186 26.9749ZM5.0047 25.4779C5.0047 25.4779 4.84095 26.7841 4.92651 28.0623C4.97527 28.7904 4.97677 29.0623 5.51762 29.0683L7.25502 29.0872C7.48906 29.0898 7.81053 28.7809 7.83687 28.3945L7.87827 27.0415C7.87827 27.0415 7.13662 27.0186 6.12765 26.9749C5.51866 26.9486 5.34254 25.5148 5.0047 25.4779ZM24.3704 12.3105C24.9899 12.6329 26.7153 15.2335 27.9703 18.3591C28.4925 18.9851 29.0042 18.7513 28.9691 20.5815C28.9339 22.4118 28.9337 24.985 28.8458 25.4068C28.7581 25.8288 26.8213 26.1087 26.2305 26.1147C25.9362 26.1177 23.8041 26.1019 21.7385 26.0852C19.4843 26.0671 15.8295 26.0672 13.5753 26.0856C11.5097 26.1024 9.37754 26.1183 9.0832 26.1154C8.49244 26.1096 6.55566 25.8296 6.46783 25.4078C6.37996 24.986 6.37957 22.4126 6.34423 20.5825C6.30889 18.7522 6.82056 18.986 7.34282 18.3599C8.59746 15.2342 10.3227 12.6335 10.9421 12.3111C11.5615 11.9887 13.2324 12.0254 17.6563 11.9846C22.0801 12.025 23.7511 11.9882 24.3704 12.3105ZM17.6562 10.457C13.2324 10.4978 10.9747 10.5751 10.3553 10.8975C9.73596 11.2199 7.38228 14.378 6.12764 17.5037C5.60538 18.1298 4.86069 18.0003 4.89603 19.8304C4.93137 21.6607 4.93583 26.2088 5.02369 26.6306C5.11152 27.0524 8.38092 27.6518 8.97168 27.6577C9.2685 27.6608 11.4652 27.6474 13.5753 27.6333C15.8295 27.618 19.4844 27.6177 21.7386 27.633C23.8487 27.6469 26.0454 27.6601 26.3423 27.6571C26.933 27.6511 30.2023 27.0514 30.2901 26.6296C30.378 26.2078 30.3819 21.6596 30.4172 19.8295C30.4524 17.9992 29.7077 18.1288 29.1854 17.5027C27.9305 14.3772 25.5765 11.2193 24.9571 10.8969C24.3377 10.5745 22.08 10.4974 17.6562 10.457ZM28.8438 16.9083C29.5596 16.1221 30.2437 16.6293 30.6133 16.3399C30.983 16.0504 31.2589 15.6733 30.8604 15.3216C30.4619 14.9699 29.4229 14.7703 29.0711 14.8179C28.7192 14.8654 28.7367 15.0795 28.7397 15.3361C28.7429 15.5926 28.8084 15.8343 28.8084 15.8343L28.4925 16.1863L28.8438 16.9083ZM6.82117 16.1863L6.50528 15.8343C6.50528 15.8343 6.5711 15.5926 6.57397 15.3361C6.57704 15.0795 6.59449 14.8654 6.24265 14.8179C5.89081 14.7703 4.85183 14.9699 4.45332 15.3216C4.05478 15.6733 4.3307 16.0504 4.70037 16.3399C5.07003 16.6293 5.7541 16.1221 6.46992 16.9083L6.82117 16.1863ZM16.3547 23.2298C15.0105 23.2209 12.9257 23.2092 11.4661 23.21C11.1109 23.2102 10.2889 24.2601 10.2765 24.591C10.2643 24.9218 11.7976 24.9733 12.2963 24.9776C12.599 24.9804 14.5124 24.9966 15.9702 25.009C16.9021 25.017 18.413 25.017 19.3449 25.009C20.8028 24.9966 22.7162 24.9802 23.0189 24.9776C23.5176 24.9733 25.0508 24.9218 25.0386 24.591C25.0263 24.2601 24.2042 23.2102 23.849 23.21C22.3895 23.2092 20.3046 23.2209 18.9605 23.2298C18.2409 23.2345 17.0743 23.2345 16.3547 23.2298ZM16.1256 25.547C14.5025 25.5492 12.0883 25.5573 11.4562 25.5866C10.4802 25.6317 7.23836 25.7024 7.96359 26.0667C8.68884 26.431 11.5645 26.2968 12.0632 26.3011C12.3695 26.3038 14.413 26.3092 15.9442 26.313C16.8905 26.3155 18.4247 26.3155 19.371 26.313C20.9021 26.3092 22.9455 26.3037 23.2519 26.3011C23.7506 26.2968 26.6263 26.431 27.3516 26.0667C28.0767 25.7024 24.8349 25.6317 23.8589 25.5866C23.2267 25.5573 20.8123 25.5492 19.1893 25.547C18.3434 25.5458 16.9717 25.5458 16.1256 25.547Z" fill="#252524"/>
<path d="M11.5533 19.8813C11.3995 19.727 9.09681 18.8595 8.24875 18.7772C7.40067 18.6948 7.10693 19.5307 7.04463 19.8105C6.98232 20.0902 6.9381 20.4744 7.2387 20.8125C7.44557 21.0452 10.2125 21.1359 10.3678 21.14C10.5231 21.1441 11.9753 20.9542 11.9946 20.9136C12.0552 20.7859 11.7071 20.0356 11.5533 19.8813ZM23.7591 19.8813C23.9129 19.727 26.2156 18.8595 27.0637 18.7772C27.9118 18.6948 28.2055 19.5307 28.2679 19.8105C28.3301 20.0902 28.3743 20.4744 28.0737 20.8125C27.8668 21.0452 25.1 21.1359 24.9447 21.14C24.7893 21.1441 23.3372 20.9542 23.3179 20.9136C23.2573 20.7859 23.6054 20.0356 23.7591 19.8813ZM9.87926 22.9029C9.87926 22.9029 7.74099 22.7641 7.05031 22.7613C6.90499 22.7607 7.06653 24.4375 7.25193 24.6664C7.43736 24.8953 10.5764 25.1602 10.5764 25.1602L10.4362 24.874C10.4362 24.874 7.68835 24.5979 7.60086 24.4197C7.41553 24.0422 7.17629 23.2274 7.42287 23.1638C7.66946 23.1001 9.47499 23.2652 9.61182 23.2466C9.74864 23.2279 9.87926 22.9029 9.87926 22.9029ZM25.4332 22.9029C25.4332 22.9029 27.5715 22.7641 28.2621 22.7613C28.4074 22.7607 28.2459 24.4375 28.0605 24.6664C27.8751 24.8953 24.736 25.1602 24.736 25.1602L24.8763 24.874C24.8763 24.874 27.6241 24.5979 27.7115 24.4197C27.8969 24.0422 28.1361 23.2274 27.8896 23.1638C27.643 23.1001 25.8375 23.2652 25.7006 23.2466C25.5638 23.2279 25.4332 22.9029 25.4332 22.9029Z" fill="#252524"/>
</g>
<defs>
<clipPath id="clip0_822_1934">
<rect width="26.798" height="21.8758" fill="white" transform="translate(4.25977 7.21094)"/>
</clipPath>
</defs>
</svg>
