<svg width="1024" height="1024" viewBox="0 0 1024 1024" fill="none" xmlns="http://www.w3.org/2000/svg">
<g clip-path="url(#clip0_485_12577)">
<g clip-path="url(#clip1_485_12577)">
<path d="M804.516 689.453C778.955 690.56 760.167 691.139 760.167 691.139L761.216 725.416C761.883 735.203 770.026 743.031 775.956 742.966L819.97 742.484C833.671 742.334 833.709 735.444 834.944 717C837.112 684.62 832.964 651.529 832.964 651.529C824.405 652.464 819.943 688.785 804.516 689.453ZM191.921 651.529C191.921 651.529 187.773 684.62 189.94 717C191.176 735.444 191.214 742.334 204.915 742.484L248.929 742.966C254.858 743.028 263.002 735.203 263.669 725.416L264.718 691.139C264.718 691.139 245.93 690.559 220.369 689.453C204.942 688.785 200.48 652.464 191.921 651.529ZM682.52 317.955C698.211 326.122 741.924 392.004 773.715 471.184C786.947 487.045 799.909 481.121 799.017 527.487C798.126 573.852 798.122 639.044 795.897 649.73C793.673 660.416 744.608 667.51 729.642 667.661C722.186 667.739 668.173 667.335 615.844 666.914C558.736 666.454 466.149 666.458 409.043 666.922C356.714 667.348 302.7 667.754 295.243 667.679C280.277 667.529 231.212 660.439 228.987 649.753C226.761 639.068 226.751 573.876 225.856 527.511C224.961 481.145 237.923 487.067 251.153 471.206C282.938 392.022 326.645 326.137 342.336 317.969C358.026 309.801 400.356 310.732 512.427 309.699C624.499 310.722 666.828 309.789 682.52 317.955ZM512.426 271C400.355 272.032 343.161 273.991 327.47 282.159C311.78 290.326 252.153 370.331 220.369 449.515C207.138 465.376 188.273 462.096 189.168 508.461C190.064 554.826 190.176 670.046 192.402 680.732C194.627 691.417 277.452 706.601 292.418 706.751C299.937 706.829 355.587 706.489 409.043 706.132C466.15 705.742 558.739 705.738 615.846 706.124C669.303 706.477 724.952 706.81 732.471 706.733C747.437 706.582 830.26 691.391 832.485 680.705C834.71 670.019 834.812 554.799 835.704 508.434C836.595 462.069 817.73 465.351 804.498 449.491C772.707 370.31 713.073 290.31 697.382 282.144C681.69 273.977 624.496 272.024 512.426 271.001V271ZM795.845 434.433C813.979 414.514 831.309 427.365 840.674 420.031C850.038 412.698 857.028 403.145 846.932 394.235C836.836 385.325 810.516 380.269 801.602 381.474C792.689 382.679 793.131 388.103 793.209 394.603C793.286 401.102 794.949 407.223 794.949 407.223L786.947 416.143L795.845 434.433ZM237.938 416.143L229.936 407.223C229.936 407.223 231.603 401.102 231.676 394.603C231.754 388.103 232.196 382.679 223.283 381.474C214.369 380.269 188.048 385.325 177.953 394.235C167.857 403.145 174.847 412.698 184.211 420.031C193.576 427.365 210.906 414.514 229.04 434.433L237.938 416.143ZM479.454 594.576C445.402 594.352 392.587 594.053 355.611 594.076C346.611 594.081 325.787 620.679 325.474 629.06C325.163 637.44 364.008 638.746 376.642 638.855C384.309 638.925 432.782 639.335 469.713 639.649C493.322 639.85 531.599 639.85 555.207 639.649C592.139 639.335 640.611 638.922 648.279 638.855C660.913 638.745 699.757 637.44 699.447 629.06C699.137 620.679 678.309 594.081 669.31 594.076C632.334 594.052 579.518 594.351 545.466 594.576C527.238 594.696 497.683 594.696 479.454 594.576ZM473.65 653.28C432.533 653.334 371.373 653.541 355.36 654.281C330.633 655.425 248.507 657.215 266.88 666.445C285.253 675.674 358.102 672.273 370.736 672.383C378.497 672.453 430.266 672.588 469.055 672.684C493.027 672.746 531.894 672.746 555.865 672.684C594.655 672.588 646.424 672.451 654.184 672.383C666.818 672.273 739.668 675.674 758.041 666.445C776.413 657.215 694.287 655.425 669.561 654.281C653.546 653.541 592.38 653.334 551.264 653.28C529.834 653.249 495.084 653.249 473.65 653.28Z" fill="#262625"/>
<path d="M357.835 509.755C353.939 505.845 295.604 483.87 274.12 481.784C252.635 479.697 245.193 500.872 243.615 507.961C242.036 515.049 240.916 524.781 248.532 533.346C253.772 539.24 323.868 541.538 327.802 541.642C331.737 541.746 368.525 536.935 369.015 535.904C370.55 532.672 361.73 513.664 357.835 509.755ZM667.05 509.755C670.945 505.845 729.281 483.87 750.765 481.784C772.25 479.697 779.69 500.872 781.268 507.961C782.847 515.049 783.968 524.781 776.353 533.346C771.112 539.24 701.017 541.538 697.082 541.642C693.148 541.746 656.36 536.935 655.87 535.904C654.335 532.672 663.155 513.664 667.05 509.755ZM315.426 586.304C315.426 586.304 261.256 582.785 243.759 582.717C240.078 582.701 244.17 625.178 248.867 630.978C253.564 636.777 333.087 643.49 333.087 643.49L329.535 636.239C329.535 636.239 259.923 629.244 257.706 624.727C253.011 615.164 246.95 594.524 253.197 592.911C259.444 591.297 305.185 595.481 308.651 595.009C312.117 594.536 315.426 586.304 315.426 586.304ZM709.459 586.304C709.459 586.304 763.628 582.785 781.125 582.717C784.807 582.701 780.715 625.178 776.018 630.978C771.32 636.777 691.798 643.49 691.798 643.49L695.35 636.239C695.35 636.239 764.961 629.244 767.177 624.727C771.872 615.164 777.934 594.524 771.687 592.911C765.44 591.297 719.7 595.481 716.234 595.009C712.768 594.536 709.459 586.304 709.459 586.304Z" fill="#262625"/>
</g>
</g>
<defs>
<clipPath id="clip0_485_12577">
<rect width="1024" height="1024" fill="white"/>
</clipPath>
<clipPath id="clip1_485_12577">
<rect width="1024" height="1024" fill="white" transform="translate(0 -5)"/>
</clipPath>
</defs>
</svg>
