<svg width="1024" height="1024" viewBox="0 0 1024 1024" fill="none" xmlns="http://www.w3.org/2000/svg">
<g clip-path="url(#clip0_315_16992)">
<path d="M804.516 694.453C778.955 695.56 760.167 696.139 760.167 696.139L761.216 730.416C761.883 740.203 770.026 748.031 775.956 747.966L819.97 747.484C833.671 747.334 833.709 740.444 834.944 722C837.112 689.62 832.964 656.529 832.964 656.529C824.405 657.464 819.943 693.785 804.516 694.453ZM191.921 656.529C191.921 656.529 187.773 689.62 189.94 722C191.176 740.444 191.214 747.334 204.915 747.484L248.929 747.966C254.859 748.028 263.002 740.203 263.669 730.416L264.718 696.139C264.718 696.139 245.93 695.559 220.369 694.453C204.942 693.785 200.48 657.464 191.921 656.529ZM682.52 322.955C698.211 331.122 741.924 397.004 773.715 476.184C786.947 492.045 799.909 486.121 799.017 532.487C798.126 578.852 798.122 644.044 795.897 654.73C793.673 665.416 744.608 672.51 729.642 672.661C722.186 672.739 668.173 672.335 615.844 671.914C558.736 671.454 466.149 671.458 409.043 671.922C356.714 672.348 302.7 672.754 295.243 672.679C280.277 672.529 231.212 665.439 228.987 654.753C226.761 644.068 226.751 578.876 225.856 532.511C224.961 486.145 237.923 492.067 251.153 476.206C282.938 397.022 326.645 331.137 342.336 322.969C358.026 314.801 400.356 315.732 512.427 314.699C624.499 315.722 666.828 314.789 682.52 322.955ZM512.426 276C400.355 277.032 343.161 278.991 327.47 287.159C311.78 295.326 252.153 375.331 220.369 454.515C207.138 470.376 188.273 467.096 189.168 513.461C190.064 559.826 190.176 675.046 192.402 685.732C194.627 696.417 277.452 711.601 292.418 711.751C299.937 711.829 355.587 711.489 409.043 711.132C466.15 710.742 558.739 710.738 615.846 711.124C669.303 711.477 724.952 711.81 732.471 711.733C747.437 711.582 830.26 696.391 832.485 685.705C834.71 675.019 834.812 559.799 835.704 513.434C836.595 467.069 817.73 470.351 804.498 454.491C772.707 375.31 713.073 295.31 697.382 287.144C681.69 278.977 624.496 277.024 512.426 276.001V276ZM795.845 439.433C813.979 419.514 831.309 432.365 840.674 425.031C850.038 417.698 857.028 408.145 846.932 399.235C836.836 390.325 810.516 385.269 801.602 386.474C792.689 387.679 793.131 393.103 793.209 399.603C793.286 406.102 794.949 412.223 794.949 412.223L786.947 421.143L795.845 439.433ZM237.938 421.143L229.936 412.223C229.936 412.223 231.603 406.102 231.676 399.603C231.754 393.103 232.196 387.679 223.283 386.474C214.369 385.269 188.048 390.325 177.953 399.235C167.857 408.145 174.847 417.698 184.211 425.031C193.576 432.365 210.906 419.514 229.04 439.433L237.938 421.143ZM479.454 599.576C445.402 599.352 392.587 599.053 355.611 599.076C346.611 599.081 325.787 625.679 325.474 634.06C325.163 642.44 364.008 643.746 376.642 643.855C384.309 643.925 432.782 644.335 469.713 644.649C493.322 644.85 531.599 644.85 555.207 644.649C592.139 644.335 640.611 643.922 648.279 643.855C660.913 643.745 699.757 642.44 699.447 634.06C699.137 625.679 678.309 599.081 669.31 599.076C632.334 599.052 579.518 599.351 545.466 599.576C527.238 599.696 497.683 599.696 479.454 599.576ZM473.65 658.28C432.533 658.334 371.373 658.541 355.36 659.281C330.633 660.425 248.507 662.215 266.88 671.445C285.253 680.674 358.102 677.273 370.736 677.383C378.497 677.453 430.266 677.588 469.055 677.684C493.027 677.746 531.894 677.746 555.865 677.684C594.655 677.588 646.424 677.451 654.184 677.383C666.818 677.273 739.668 680.674 758.041 671.445C776.413 662.215 694.287 660.425 669.561 659.281C653.546 658.541 592.38 658.334 551.264 658.28C529.834 658.249 495.084 658.249 473.65 658.28Z" fill="#262625"/>
<path d="M357.835 514.755C353.939 510.845 295.604 488.87 274.12 486.784C252.635 484.697 245.193 505.872 243.615 512.961C242.036 520.049 240.916 529.781 248.532 538.346C253.772 544.24 323.868 546.538 327.802 546.642C331.737 546.746 368.525 541.935 369.015 540.904C370.55 537.672 361.73 518.664 357.835 514.755ZM667.05 514.755C670.945 510.845 729.281 488.87 750.765 486.784C772.25 484.697 779.69 505.872 781.268 512.961C782.847 520.049 783.968 529.781 776.353 538.346C771.112 544.24 701.017 546.538 697.082 546.642C693.148 546.746 656.36 541.935 655.87 540.904C654.335 537.672 663.155 518.664 667.05 514.755ZM315.426 591.304C315.426 591.304 261.256 587.785 243.759 587.717C240.078 587.701 244.17 630.178 248.867 635.978C253.564 641.777 333.087 648.49 333.087 648.49L329.535 641.239C329.535 641.239 259.923 634.244 257.706 629.727C253.011 620.164 246.95 599.524 253.197 597.911C259.444 596.297 305.185 600.481 308.651 600.009C312.117 599.536 315.426 591.304 315.426 591.304ZM709.459 591.304C709.459 591.304 763.627 587.785 781.125 587.717C784.806 587.701 780.715 630.178 776.018 635.978C771.32 641.777 691.798 648.49 691.798 648.49L695.35 641.239C695.35 641.239 764.961 634.244 767.177 629.727C771.872 620.164 777.934 599.524 771.687 597.911C765.44 596.297 719.7 600.481 716.234 600.009C712.768 599.536 709.459 591.304 709.459 591.304Z" fill="#262625"/>
</g>
<defs>
<clipPath id="clip0_315_16992">
<rect width="1024" height="1024" fill="white"/>
</clipPath>
</defs>
</svg>
