<svg width="1024" height="1024" viewBox="0 0 1024 1024" fill="none" xmlns="http://www.w3.org/2000/svg">
<g clip-path="url(#clip0_485_12553)">
<g clip-path="url(#clip1_485_12553)">
<path d="M815.729 683.235C807.546 685.775 754.769 698.552 754.769 698.552L755.818 726.261C756.485 736.049 765.039 743.833 770.968 743.811L814.276 743.651C827.979 743.597 835.611 735.965 836.846 717.521C839.013 685.141 836.056 609.455 836.056 609.455C822.23 610.966 823.936 680.688 815.729 683.235ZM187.175 609.455C187.175 609.455 184.218 685.141 186.386 717.521C187.621 735.965 195.253 743.597 208.956 743.651L252.263 743.811C258.193 743.834 266.746 736.049 267.413 726.261L268.462 698.552C268.462 698.552 215.686 685.775 207.502 683.235C199.295 680.688 201.002 610.966 187.175 609.455ZM585.73 229.292C638.845 231.294 659.061 235.044 677.768 240.833C703.403 248.766 740.765 331.341 759.861 390.624C790.886 423.36 805.683 449.298 804.389 493.863C803.196 535.035 803.406 637.514 785.23 645.231C779.252 647.769 780.626 648.495 771.111 650.79C763.672 652.585 766.158 672.494 756.807 674.165C747.714 675.79 705.662 677.811 686.142 675.37C680.651 674.684 680.4 668.606 678.557 661.306C671.643 661.376 635.08 661.48 597.737 661.572C550.174 661.688 473.059 661.691 425.496 661.579C388.154 661.491 351.59 661.391 344.676 661.321C342.834 668.621 342.584 674.698 337.093 675.385C317.573 677.828 275.52 675.81 266.428 674.186C257.076 672.516 259.56 652.607 252.121 650.813C242.607 648.518 243.98 647.792 238.002 645.255C219.825 637.539 220.026 535.06 218.829 493.889C217.532 449.323 232.326 423.384 263.349 390.646C282.439 331.361 319.794 248.783 345.428 240.847C364.135 235.057 384.351 231.305 437.464 229.298C478.386 227.753 544.809 227.75 585.73 229.292ZM437.468 191.255C373.544 193.877 337.466 198.997 318.27 204.939C292.636 212.874 248.472 311.602 229.381 370.886C198.359 403.624 177.957 449.323 179.254 493.889C180.451 535.06 183.244 679.471 201.423 687.187C207.401 689.724 215.796 687.3 225.311 689.594C232.75 691.388 233.102 711.367 242.454 713.037C251.547 714.66 327.564 716.8 347.084 714.358C352.574 713.67 357.905 707.593 359.747 700.293C366.088 700.355 394.667 700.48 425.498 700.602C473.061 700.787 550.175 700.783 597.738 700.594C628.569 700.47 657.149 700.345 663.49 700.28C665.332 707.58 670.664 713.657 676.154 714.344C695.674 716.785 771.691 714.638 780.783 713.013C790.135 711.343 790.486 691.364 797.925 689.569C807.44 687.274 815.835 689.698 821.813 687.16C839.991 679.443 842.771 535.031 843.964 493.86C845.257 449.295 824.852 403.597 793.826 370.862C774.731 311.579 730.558 212.855 704.923 204.922C685.727 198.982 649.648 193.866 585.724 191.249C544.807 189.581 478.385 189.584 437.468 191.255ZM796.061 360.312C792.316 360.695 789.599 360.048 785.444 360.31C786.724 366.194 787.218 366.168 789.86 371.157C799.945 370.628 792.771 370.54 800.871 369.994C804.451 369.753 803.144 372.507 809.446 372.168C818.378 371.687 835.064 368.095 837.632 367.711C851.391 365.654 856.352 343.652 853.421 337.695C850.49 331.738 810.611 325.557 802.528 327.723C794.446 329.889 795.129 346.801 796.061 360.312ZM220.703 327.723C212.621 325.557 172.742 331.738 169.811 337.695C166.879 343.652 171.841 365.654 185.599 367.711C188.167 368.095 204.854 371.688 213.785 372.168C220.088 372.507 218.781 369.753 222.36 369.994C230.461 370.54 223.287 370.628 233.371 371.157C236.014 366.168 236.507 366.194 237.787 360.31C233.632 360.048 230.916 360.695 227.17 360.312C228.102 346.801 228.786 329.889 220.703 327.723ZM454.415 604.02C419.302 604.486 379.046 605.053 368.194 605.344C347.9 605.888 303.422 637.378 303.422 637.378C352.068 640.205 416.403 641.374 461.51 641.862C489.192 642.161 534.082 642.161 561.77 641.862C606.876 641.374 671.205 640.205 719.845 637.378C719.845 637.378 675.367 605.888 655.073 605.344C644.222 605.053 603.964 604.485 568.851 604.02C537.251 603.601 486.016 603.601 454.415 604.02ZM460.92 475.861C421.843 475.704 380.445 475.676 374.61 477.348C360.159 481.486 328.897 494.699 329.28 499.669C329.66 504.639 328.101 536.425 342.46 542.596C348.045 544.997 375.132 559.471 404.462 563.443C423.859 566.069 444.765 567.187 462.928 567.58C489.823 568.162 533.446 568.162 560.343 567.58C578.504 567.188 599.409 566.069 618.805 563.443C648.135 559.471 675.222 544.997 680.807 542.596C695.166 536.425 693.607 504.639 693.987 499.669C694.367 494.699 663.108 481.486 648.658 477.348C642.822 475.676 601.423 475.704 562.347 475.861C534.338 475.974 488.928 475.974 460.92 475.861ZM257.63 522.031C256.439 520.752 243.872 520.899 233.324 520.441C233.138 534.833 232.936 564.496 233.037 578.597C235.68 578.764 236.236 578.62 239.569 578.229C247.874 571.596 258.391 556.686 259.762 546.676C260.119 538.484 258.822 523.31 257.63 522.031ZM765.601 522.031C766.793 520.752 779.36 520.899 789.907 520.441C790.094 534.833 790.295 564.496 790.194 578.597C787.551 578.764 786.996 578.62 783.662 578.229C775.357 571.596 764.841 556.686 763.469 546.676C763.113 538.484 764.41 523.31 765.601 522.031Z" fill="#262625"/>
<path d="M353.265 466.586C353.265 466.586 287.088 450.009 257.278 441.144C248.767 438.613 244.717 414.389 244.717 414.389C244.717 414.389 231.54 439.636 229.927 446.411C227.623 456.086 226.284 467.941 231.743 471.341C254.74 483.17 283.041 486.484 308.68 487.474C314.781 487.428 344.256 479.227 352.174 473.855C352.992 469.716 353.265 466.586 353.265 466.586ZM669.967 466.586C669.967 466.586 736.144 450.009 765.954 441.144C774.464 438.613 778.515 414.389 778.515 414.389C778.515 414.389 791.692 439.636 793.305 446.411C795.609 456.086 796.948 467.941 791.489 471.341C768.491 483.17 740.191 486.484 714.552 487.474C708.451 487.428 678.975 479.227 671.058 473.855C670.24 469.716 669.967 466.586 669.967 466.586Z" fill="#262625"/>
</g>
</g>
<defs>
<clipPath id="clip0_485_12553">
<rect width="1024" height="1024" fill="white"/>
</clipPath>
<clipPath id="clip1_485_12553">
<rect width="1024" height="1024" fill="white" transform="translate(0 -45)"/>
</clipPath>
</defs>
</svg>
