<svg width="1024" height="1024" viewBox="0 0 1024 1024" fill="none" xmlns="http://www.w3.org/2000/svg">
<g clip-path="url(#clip0_315_17002)">
<path d="M815.729 728.235C807.546 730.775 754.769 743.552 754.769 743.552L755.818 771.261C756.485 781.049 765.039 788.833 770.968 788.811L814.276 788.651C827.979 788.597 835.611 780.965 836.846 762.521C839.013 730.141 836.056 654.455 836.056 654.455C822.23 655.966 823.936 725.688 815.729 728.235ZM187.175 654.455C187.175 654.455 184.218 730.141 186.386 762.521C187.621 780.965 195.253 788.597 208.956 788.651L252.263 788.811C258.193 788.834 266.746 781.049 267.413 771.261L268.462 743.552C268.462 743.552 215.686 730.775 207.502 728.235C199.295 725.688 201.002 655.966 187.175 654.455ZM585.73 274.292C638.845 276.294 659.061 280.044 677.768 285.833C703.403 293.766 740.765 376.341 759.861 435.624C790.886 468.36 805.683 494.298 804.389 538.863C803.196 580.035 803.406 682.514 785.23 690.231C779.252 692.769 780.626 693.495 771.111 695.79C763.672 697.585 766.158 717.494 756.807 719.165C747.714 720.79 705.662 722.811 686.142 720.37C680.651 719.684 680.4 713.606 678.557 706.306C671.643 706.376 635.08 706.48 597.737 706.572C550.174 706.688 473.059 706.691 425.496 706.579C388.154 706.491 351.59 706.391 344.676 706.321C342.834 713.621 342.584 719.698 337.093 720.385C317.573 722.828 275.52 720.81 266.428 719.186C257.076 717.516 259.56 697.607 252.121 695.813C242.607 693.518 243.98 692.792 238.002 690.255C219.825 682.539 220.026 580.06 218.829 538.889C217.532 494.323 232.326 468.384 263.349 435.646C282.439 376.361 319.794 293.783 345.428 285.847C364.135 280.057 384.351 276.305 437.464 274.298C478.386 272.753 544.809 272.75 585.73 274.292ZM437.468 236.255C373.544 238.877 337.466 243.997 318.27 249.939C292.636 257.874 248.472 356.602 229.381 415.886C198.359 448.624 177.957 494.323 179.254 538.889C180.451 580.06 183.244 724.471 201.423 732.187C207.401 734.724 215.796 732.3 225.311 734.594C232.75 736.388 233.102 756.367 242.454 758.037C251.547 759.66 327.564 761.8 347.084 759.358C352.574 758.67 357.905 752.593 359.747 745.293C366.088 745.355 394.667 745.48 425.498 745.602C473.061 745.787 550.175 745.783 597.738 745.594C628.569 745.47 657.149 745.345 663.49 745.28C665.332 752.58 670.664 758.657 676.154 759.344C695.674 761.785 771.691 759.638 780.783 758.013C790.135 756.343 790.486 736.364 797.925 734.569C807.44 732.274 815.835 734.698 821.813 732.16C839.991 724.443 842.771 580.031 843.964 538.86C845.257 494.295 824.852 448.597 793.826 415.862C774.731 356.579 730.558 257.855 704.923 249.922C685.727 243.982 649.648 238.866 585.724 236.249C544.807 234.581 478.385 234.584 437.468 236.255ZM796.061 405.312C792.316 405.695 789.599 405.048 785.444 405.31C786.724 411.194 787.218 411.168 789.86 416.157C799.945 415.628 792.771 415.54 800.871 414.994C804.451 414.753 803.144 417.507 809.446 417.168C818.378 416.687 835.064 413.095 837.632 412.711C851.391 410.654 856.352 388.652 853.421 382.695C850.49 376.738 810.611 370.557 802.528 372.723C794.446 374.889 795.129 391.801 796.061 405.312ZM220.703 372.723C212.621 370.557 172.742 376.738 169.811 382.695C166.879 388.652 171.841 410.654 185.599 412.711C188.167 413.095 204.854 416.688 213.785 417.168C220.088 417.507 218.781 414.753 222.36 414.994C230.461 415.54 223.287 415.628 233.371 416.157C236.014 411.168 236.507 411.194 237.787 405.31C233.632 405.048 230.916 405.695 227.17 405.312C228.102 391.801 228.786 374.889 220.703 372.723ZM454.415 649.02C419.302 649.486 379.046 650.053 368.194 650.344C347.9 650.888 303.422 682.378 303.422 682.378C352.068 685.205 416.403 686.374 461.51 686.862C489.192 687.161 534.082 687.161 561.77 686.862C606.876 686.374 671.205 685.205 719.845 682.378C719.845 682.378 675.367 650.888 655.073 650.344C644.222 650.053 603.964 649.485 568.851 649.02C537.251 648.601 486.016 648.601 454.415 649.02ZM460.92 520.861C421.843 520.704 380.445 520.676 374.61 522.348C360.159 526.486 328.897 539.699 329.28 544.669C329.66 549.639 328.101 581.425 342.46 587.596C348.045 589.997 375.132 604.471 404.462 608.443C423.859 611.069 444.765 612.187 462.928 612.58C489.823 613.162 533.446 613.162 560.343 612.58C578.504 612.188 599.409 611.069 618.805 608.443C648.135 604.471 675.222 589.997 680.807 587.596C695.166 581.425 693.607 549.639 693.987 544.669C694.367 539.699 663.108 526.486 648.658 522.348C642.822 520.676 601.423 520.704 562.347 520.861C534.338 520.974 488.928 520.974 460.92 520.861ZM257.63 567.031C256.439 565.752 243.872 565.899 233.324 565.441C233.138 579.833 232.936 609.496 233.037 623.597C235.68 623.764 236.236 623.62 239.569 623.229C247.874 616.596 258.391 601.686 259.762 591.676C260.119 583.484 258.822 568.31 257.63 567.031ZM765.601 567.031C766.793 565.752 779.36 565.899 789.907 565.441C790.094 579.833 790.295 609.496 790.194 623.597C787.551 623.764 786.996 623.62 783.662 623.229C775.357 616.596 764.841 601.686 763.469 591.676C763.113 583.484 764.41 568.31 765.601 567.031Z" fill="#262625"/>
<path d="M353.265 511.586C353.265 511.586 287.088 495.009 257.278 486.144C248.767 483.613 244.717 459.389 244.717 459.389C244.717 459.389 231.54 484.636 229.927 491.411C227.623 501.086 226.284 512.941 231.743 516.341C254.74 528.17 283.041 531.484 308.68 532.474C314.781 532.428 344.256 524.227 352.174 518.855C352.992 514.716 353.265 511.586 353.265 511.586ZM669.967 511.586C669.967 511.586 736.144 495.009 765.954 486.144C774.464 483.613 778.515 459.389 778.515 459.389C778.515 459.389 791.692 484.636 793.305 491.411C795.609 501.086 796.948 512.941 791.489 516.341C768.491 528.17 740.191 531.484 714.552 532.474C708.451 532.428 678.975 524.227 671.058 518.855C670.24 514.716 669.967 511.586 669.967 511.586Z" fill="#262625"/>
</g>
<defs>
<clipPath id="clip0_315_17002">
<rect width="1024" height="1024" fill="white"/>
</clipPath>
</defs>
</svg>
