<svg width="36" height="36" viewBox="0 0 36 36" fill="none" xmlns="http://www.w3.org/2000/svg">
<g clip-path="url(#clip0_135_8389)">
<path d="M29.707 26.8322C29.384 26.9325 27.3007 27.4369 27.3007 27.4369L27.3421 28.5307C27.3685 28.9169 27.706 29.2243 27.9401 29.2234L29.6497 29.2171C30.1905 29.2149 30.4918 28.9137 30.5405 28.1855C30.6261 26.9074 30.5093 23.9199 30.5093 23.9199C29.9636 23.9795 30.031 26.7317 29.707 26.8322ZM4.89568 23.9199C4.89568 23.9199 4.77894 26.9074 4.8645 28.1855C4.91326 28.9137 5.2145 29.2149 5.75542 29.2171L7.46494 29.2234C7.699 29.2243 8.03663 28.9169 8.06296 28.5307L8.10437 27.4369C8.10437 27.4369 6.02107 26.9325 5.69806 26.8322C5.37409 26.7317 5.44146 23.9795 4.89568 23.9199ZM20.6281 8.91343C22.7247 8.99243 23.5227 9.14048 24.2612 9.36899C25.2731 9.68213 26.7479 12.9417 27.5017 15.2818C28.7264 16.574 29.3104 17.5979 29.2594 19.357C29.2123 20.9822 29.2205 25.0275 28.5031 25.3321C28.2671 25.4323 28.3214 25.4609 27.9458 25.5515C27.6521 25.6223 27.7503 26.4082 27.3811 26.4742C27.0223 26.5383 25.3622 26.6181 24.5917 26.5217C24.3749 26.4946 24.3651 26.2547 24.2924 25.9666C24.0194 25.9694 22.5761 25.9735 21.1021 25.9771C19.2245 25.9817 16.1805 25.9819 14.3031 25.9774C12.829 25.9739 11.3857 25.97 11.1128 25.9672C11.0401 26.2553 11.0302 26.4952 10.8135 26.5223C10.0429 26.6188 8.38297 26.5391 8.02405 26.4751C7.65489 26.4092 7.75297 25.6232 7.45932 25.5524C7.08375 25.4618 7.13795 25.4332 6.90197 25.333C6.18448 25.0285 6.19241 20.9833 6.14515 19.358C6.09395 17.5989 6.67795 16.575 7.90251 15.2827C8.65608 12.9425 10.1306 9.68279 11.1425 9.36957C11.8809 9.14098 12.6789 8.99287 14.7755 8.91368C16.3909 8.85266 19.0127 8.85255 20.6281 8.91343ZM14.7756 7.41196C12.2523 7.51548 10.8282 7.71757 10.0705 7.95212C9.0586 8.26535 7.31526 12.1625 6.5617 14.5027C5.33713 15.795 4.5318 17.5989 4.583 19.358C4.63026 20.9833 4.74048 26.6836 5.45806 26.9882C5.69405 27.0884 6.02544 26.9926 6.40101 27.0832C6.69466 27.154 6.70857 27.9427 7.07775 28.0085C7.43665 28.0727 10.4373 28.1572 11.2079 28.0607C11.4246 28.0336 11.635 27.7937 11.7077 27.5056C11.958 27.508 13.0861 27.5129 14.3032 27.5177C16.1806 27.5251 19.2247 27.5249 21.1021 27.5175C22.3191 27.5126 23.4472 27.5077 23.6975 27.505C23.7703 27.7933 23.9807 28.0331 24.1975 28.0601C24.968 28.1565 27.9687 28.0718 28.3276 28.0077C28.6967 27.9417 28.7105 27.1531 29.0042 27.0823C29.3798 26.9917 29.7112 27.0873 29.9471 26.9871C30.6647 26.6825 30.7744 20.9821 30.8216 19.3569C30.8726 17.5977 30.0671 15.7939 28.8424 14.5017C28.0887 12.1616 26.345 8.26461 25.333 7.95147C24.5753 7.71698 23.1512 7.51502 20.6278 7.41172C19.0127 7.3459 16.3907 7.346 14.7756 7.41196ZM28.9306 14.0853C28.7828 14.1004 28.6756 14.0748 28.5116 14.0852C28.5621 14.3175 28.5815 14.3164 28.6858 14.5134C29.084 14.4925 28.8008 14.489 29.1205 14.4675C29.2618 14.4579 29.2102 14.5667 29.459 14.5533C29.8115 14.5343 30.4702 14.3925 30.5716 14.3773C31.1147 14.2961 31.3106 13.4276 31.1948 13.1925C31.0791 12.9573 29.5049 12.7134 29.1859 12.7989C28.8669 12.8844 28.8939 13.5519 28.9306 14.0853ZM6.21913 12.7989C5.9001 12.7134 4.32593 12.9573 4.21024 13.1925C4.09451 13.4276 4.29035 14.2961 4.83347 14.3773C4.93483 14.3925 5.59349 14.5343 5.94606 14.5533C6.19486 14.5667 6.14326 14.4579 6.28456 14.4675C6.6043 14.489 6.32112 14.4925 6.7192 14.5134C6.8235 14.3164 6.84298 14.3175 6.89351 14.0852C6.72949 14.0748 6.62227 14.1004 6.47442 14.0853C6.5112 13.5519 6.53818 12.8844 6.21913 12.7989ZM15.4446 23.7053C14.0586 23.7237 12.4695 23.7461 12.0412 23.7575C11.2401 23.779 9.48437 25.0221 9.48437 25.0221C11.4046 25.1337 13.9441 25.1798 15.7247 25.1991C16.8173 25.2109 18.5894 25.2109 19.6823 25.1991C21.4628 25.1798 24.0021 25.1337 25.9221 25.0221C25.9221 25.0221 24.1664 23.779 23.3653 23.7575C22.937 23.7461 21.3478 23.7237 19.9618 23.7053C18.7144 23.6888 16.6921 23.6888 15.4446 23.7053ZM15.7014 18.6464C14.1589 18.6402 12.5248 18.6391 12.2944 18.7051C11.724 18.8684 10.49 19.39 10.5051 19.5862C10.5201 19.7824 10.4585 21.037 11.0253 21.2807C11.2458 21.3754 12.315 21.9467 13.4728 22.1036C14.2385 22.2073 15.0637 22.2514 15.7806 22.2669C16.8423 22.2898 18.5643 22.2898 19.6259 22.2669C20.3428 22.2514 21.1681 22.2073 21.9337 22.1036C23.0914 21.9467 24.1606 21.3754 24.3812 21.2807C24.9479 21.037 24.8864 19.7824 24.9014 19.5862C24.9164 19.39 23.6824 18.8684 23.1121 18.7051C22.8817 18.6391 21.2476 18.6402 19.705 18.6464C18.5995 18.6509 16.8069 18.6509 15.7014 18.6464ZM7.67679 20.4689C7.62975 20.4184 7.1337 20.4242 6.71734 20.4062C6.70998 20.9743 6.70203 22.1451 6.706 22.7018C6.81034 22.7084 6.83226 22.7026 6.96385 22.6873C7.29168 22.4254 7.7068 21.8368 7.76094 21.4418C7.77503 21.1184 7.72383 20.5193 7.67679 20.4689ZM27.7282 20.4689C27.7753 20.4184 28.2713 20.4242 28.6877 20.4062C28.6951 20.9743 28.703 22.1451 28.699 22.7018C28.5947 22.7084 28.5728 22.7026 28.4411 22.6873C28.1134 22.4254 27.6982 21.8368 27.6441 21.4418C27.6301 21.1184 27.6812 20.5193 27.7282 20.4689Z" fill="#262625"/>
<path d="M11.4518 18.2803C11.4518 18.2803 8.83956 17.6259 7.66286 17.276C7.32692 17.176 7.16703 16.2198 7.16703 16.2198C7.16703 16.2198 6.64688 17.2164 6.58321 17.4839C6.49226 17.8658 6.4394 18.3338 6.65491 18.4679C7.5627 18.9349 8.67982 19.0657 9.69188 19.1048C9.93271 19.103 11.0962 18.7792 11.4088 18.5672C11.441 18.4038 11.4518 18.2803 11.4518 18.2803ZM23.9532 18.2803C23.9532 18.2803 26.5654 17.6259 27.7421 17.276C28.0781 17.176 28.238 16.2198 28.238 16.2198C28.238 16.2198 28.7582 17.2164 28.8218 17.4839C28.9127 17.8658 28.9656 18.3338 28.7501 18.4679C27.8423 18.9349 26.7252 19.0657 25.7132 19.1048C25.4723 19.103 24.3088 18.7792 23.9962 18.5672C23.964 18.4038 23.9532 18.2803 23.9532 18.2803Z" fill="#262625"/>
</g>
<defs>
<clipPath id="clip0_135_8389">
<rect width="27.0486" height="21.917" fill="white" transform="translate(4.17822 7.36243)"/>
</clipPath>
</defs>
</svg>
