<svg width="1024" height="1024" viewBox="0 0 1024 1024" fill="none" xmlns="http://www.w3.org/2000/svg">
<g clip-path="url(#clip0_485_12560)">
<g clip-path="url(#clip1_485_12560)">
<path d="M830.989 695.579C822.806 698.118 756.758 697.614 756.758 697.614L757.807 725.323C758.397 734.857 765.589 742.89 771.683 742.873L829.536 742.713C843.292 742.674 855.674 733.326 857.455 716.582C860.58 687.19 860.167 606.925 860.167 606.925C846.341 608.436 839.196 693.032 830.989 695.579ZM193.126 695.579C184.919 693.032 177.774 608.436 163.948 606.925C163.948 606.925 163.537 687.19 166.66 716.582C168.441 733.326 180.823 742.674 194.579 742.713L252.432 742.873C258.526 742.889 265.718 734.857 266.308 725.323L267.357 697.614C267.357 697.614 201.309 698.118 193.126 695.579ZM437.9 221.547C478.833 220.277 545.244 220.274 586.177 221.541C641.082 223.24 663.708 226.445 682.504 232.262C708.139 240.194 723.645 314.836 743.398 359.184C776.098 384.898 803.3 413.193 807.529 427.982C808.601 431.733 808.235 440.336 810.851 445.22C813.956 451.023 820.277 456.305 823.353 485.456C830.316 551.448 824.65 647.074 809.624 655.863C792.58 665.832 716.28 674.843 701.314 674.995C693.724 675.073 644.661 676.424 598.144 677.737C550.6 679.079 473.518 679.083 425.974 677.744C379.456 676.435 330.393 675.088 322.802 675.012C307.836 674.861 231.535 665.856 214.491 655.889C199.464 647.101 193.791 551.476 200.747 485.483C203.82 456.332 210.141 451.05 213.246 445.246C215.861 440.362 215.495 431.759 216.567 428.008C220.794 413.218 247.993 384.921 280.691 359.204C300.44 314.854 315.94 240.212 341.574 232.276C360.369 226.458 382.995 223.251 437.9 221.547ZM437.91 183.157C373.725 185.819 337.301 191.017 318.093 196.963C292.459 204.898 266.156 294.359 246.407 338.709C213.709 364.426 182.276 404.447 178.049 419.236C176.976 422.988 177.343 431.59 174.728 436.474C171.622 442.278 162.923 456.64 159.85 485.792C152.893 551.784 166.737 688.74 181.763 697.527C198.808 707.494 307.836 714.082 322.802 714.232C330.392 714.31 379.448 715.359 425.961 716.376C473.512 717.416 550.608 717.412 598.16 716.368C644.673 715.347 693.729 714.293 701.318 714.216C716.284 714.064 825.312 707.467 842.356 697.498C857.382 688.71 871.213 551.753 864.25 485.761C861.175 456.61 852.474 442.249 849.368 436.445C846.753 431.561 847.118 422.959 846.046 419.207C841.817 404.418 810.381 364.4 777.68 338.686C757.927 294.338 731.616 204.879 705.981 196.946C686.773 191.002 650.349 185.807 586.164 183.15C545.248 181.461 478.825 181.464 437.91 183.157ZM783.195 315.136C782.644 318.798 781.503 329.864 783.939 335.209C784.645 336.751 784.879 337.053 786.455 337.507C782.709 337.889 778.452 338.751 774.297 339.013C775.577 344.897 788.713 349.519 791.355 354.508C797.364 347.465 801.409 343.422 808.157 341.684C815.799 339.715 826.033 340.503 830.484 339.543C838.211 337.877 840.442 319.078 840.123 317.264C839.805 315.45 831.912 302.059 828.83 301.755C825.748 301.451 792.504 299.058 789.465 300.581C786.425 302.105 783.784 310.435 783.195 315.136ZM234.65 300.581C231.611 299.058 198.366 301.451 195.285 301.755C192.203 302.059 184.311 315.45 183.991 317.264C183.673 319.078 185.904 337.877 193.631 339.543C198.082 340.503 208.316 339.715 215.958 341.684C222.706 343.422 226.751 347.465 232.759 354.508C235.402 349.519 248.538 344.897 249.818 339.013C245.663 338.751 241.406 337.889 237.66 337.507C239.236 337.053 239.473 336.751 240.175 335.209C242.612 329.864 241.469 318.798 240.92 315.136C240.331 310.435 237.69 302.105 234.65 300.581ZM461.363 540.822C402.599 540.106 322.239 538.848 316.987 540.22C309.835 542.09 281.175 565.593 278.52 570.705C275.864 575.817 278.241 631.87 278.442 634.578C278.822 639.549 282.694 649.315 297.585 654.05C307.707 657.267 403.204 659.973 463.367 661.377C490.267 662.004 533.884 662.004 560.784 661.377C620.947 659.973 716.443 657.267 726.565 654.05C741.456 649.315 745.328 639.549 745.708 634.578C745.91 631.87 748.286 575.817 745.631 570.705C742.975 565.593 714.316 542.09 707.164 540.22C701.912 538.848 621.551 540.106 562.786 540.822C534.78 541.164 489.37 541.164 461.363 540.822ZM687.458 562.037C701.794 561.08 726.245 560.334 728.505 561.111C730.764 561.889 738.337 567.971 739.586 572.921C740.835 577.871 740.941 612.138 739.439 632.29C739.191 635.605 732.034 643.516 725.981 648.339C713.312 650.808 688.219 649.465 688.219 649.465C688.219 649.465 687.458 576.721 687.458 562.037ZM335.896 649.465C335.896 649.465 310.803 650.808 298.134 648.339C292.081 643.516 284.924 635.605 284.676 632.29C283.174 612.138 283.279 577.871 284.528 572.921C285.778 567.971 293.351 561.889 295.61 561.111C297.87 560.334 322.321 561.08 336.657 562.037C336.657 576.721 335.896 649.465 335.896 649.465ZM308.31 578.401C299.057 578.401 292.454 578.308 292.454 578.308C292.454 578.308 292.276 617.313 292.276 628.964C292.276 634.144 300.374 635.303 307.926 635.729C307.926 606.956 308.306 593.582 308.306 578.401H308.31ZM715.805 578.401C725.058 578.401 731.661 578.308 731.661 578.308C731.661 578.308 731.839 617.313 731.839 628.964C731.839 634.144 723.741 635.303 716.189 635.729C716.189 606.956 715.809 593.582 715.809 578.401H715.805ZM760.816 441.568C760.816 460.552 759.462 505.857 761.998 509.002C765.947 513.899 785.109 523.247 785.109 523.247L717.204 546.42L732.288 557.72C732.288 557.72 797.414 540.294 810.027 531.539C811.325 508.941 812.437 473.818 810.128 443.235C808.576 444.044 812.553 433.826 807.541 422.341C801.486 408.468 790.225 397.233 780.483 388.787C786.022 408.32 767.37 434.864 767.37 439.593C767.365 441.807 765.343 441.387 760.816 441.568ZM256.745 439.593C256.745 434.864 238.093 408.32 243.632 388.787C233.89 397.233 222.629 408.468 216.574 422.341C211.561 433.826 215.539 444.044 213.987 443.235C211.678 473.818 212.789 508.941 214.087 531.539C226.701 540.294 291.827 557.72 291.827 557.72L306.911 546.42L239.006 523.247C239.006 523.247 258.168 513.899 262.117 509.002C264.653 505.857 263.323 460.552 263.298 441.568C258.772 441.387 256.75 441.807 256.745 439.593ZM461.361 450.218C391.848 449.874 280.306 447.73 231.429 436.84C232.887 440.062 233.487 441.4 234.171 442.744C249.359 446.467 305.36 454.382 310.08 455.761C314.8 457.139 326.549 466.94 328.137 468.063C332.103 470.867 404.371 472.142 463.358 472.726C490.263 472.992 533.888 472.992 560.794 472.726C619.78 472.143 692.048 470.867 696.014 468.063C697.601 466.94 709.351 457.139 714.07 455.761C718.79 454.382 774.791 446.467 789.98 442.744C790.662 441.4 791.264 440.062 792.721 436.84C743.844 447.731 632.298 449.874 562.786 450.218C534.779 450.357 489.37 450.357 461.361 450.218ZM676.891 179.448C672.907 180.342 651.372 186.625 650.782 191.326C650.232 194.988 704.685 198.257 704.685 198.257C701.551 187.388 701.406 185.833 693.426 179.52C690.345 179.218 680.876 178.556 676.891 179.45V179.448ZM347.223 179.45C343.239 178.556 333.77 179.218 330.689 179.52C322.709 185.833 322.564 187.388 319.43 198.257C319.43 198.257 373.882 194.988 373.332 191.326C372.743 186.625 351.208 180.342 347.223 179.448V179.45Z" fill="#262625"/>
<path d="M802.95 437.809C802.756 437.044 800.801 437.343 800.894 438.564C801.94 452.441 803.566 510.753 802.906 523.636C774.922 535.43 753.69 540.795 727.152 548.529L732.783 553.751C732.783 553.751 736.087 553.759 744.552 550.679C746.555 549.949 747.21 547.569 749.558 546.667C763.235 541.413 783.31 535.265 795.086 530.702C796.876 530.008 798.832 532.713 800.362 532.057C803.704 530.623 804.57 530.392 806.329 529.171C807.627 506.573 804.196 442.709 802.95 437.809ZM221.165 437.809C219.918 442.709 216.488 506.573 217.786 529.171C219.544 530.392 220.411 530.623 223.753 532.057C225.283 532.713 227.239 530.008 229.029 530.702C240.805 535.265 260.879 541.413 274.557 546.667C276.905 547.569 277.559 549.949 279.562 550.679C288.027 553.761 291.332 553.751 291.332 553.751L296.963 548.529C270.425 540.795 249.193 535.43 221.208 523.636C220.549 510.753 222.174 452.441 223.221 438.564C223.314 437.343 221.36 437.044 221.165 437.809ZM764.665 502.121C767.628 508.867 785.199 522.773 797.868 520.305C797.868 485.488 797.473 456.684 797.473 441.753C790.43 444.692 763.994 447.984 762.834 450.897C762.834 465.582 760.444 492.508 764.665 502.121ZM261.281 450.897C260.121 447.984 233.685 444.692 226.642 441.753C226.642 456.684 226.246 485.488 226.246 520.305C238.915 522.773 256.487 508.867 259.45 502.121C263.671 492.508 261.281 465.582 261.281 450.897Z" fill="#262625"/>
</g>
</g>
<defs>
<clipPath id="clip0_485_12560">
<rect width="1024" height="1024" fill="white"/>
</clipPath>
<clipPath id="clip1_485_12560">
<rect width="1024" height="1024" fill="white" transform="translate(0 -51)"/>
</clipPath>
</defs>
</svg>
