<svg width="1024" height="1024" viewBox="0 0 1024 1024" fill="none" xmlns="http://www.w3.org/2000/svg">
<g clip-path="url(#clip0_376_10174)">
<path d="M830.989 746.579C822.806 749.118 756.758 748.614 756.758 748.614L757.807 776.323C758.397 785.857 765.589 793.89 771.683 793.873L829.536 793.713C843.292 793.674 855.674 784.326 857.455 767.582C860.58 738.19 860.167 657.925 860.167 657.925C846.341 659.436 839.196 744.032 830.989 746.579ZM193.126 746.579C184.919 744.032 177.774 659.436 163.948 657.925C163.948 657.925 163.537 738.19 166.66 767.582C168.441 784.326 180.823 793.674 194.579 793.713L252.432 793.873C258.526 793.889 265.718 785.857 266.308 776.323L267.357 748.614C267.357 748.614 201.309 749.118 193.126 746.579ZM437.9 272.547C478.833 271.277 545.244 271.274 586.177 272.541C641.082 274.24 663.708 277.445 682.504 283.262C708.139 291.194 723.645 365.836 743.398 410.184C776.098 435.898 803.3 464.193 807.529 478.982C808.601 482.733 808.235 491.336 810.851 496.22C813.956 502.023 820.277 507.305 823.353 536.456C830.316 602.448 824.65 698.074 809.624 706.863C792.58 716.832 716.28 725.843 701.314 725.995C693.724 726.073 644.661 727.424 598.144 728.737C550.6 730.079 473.518 730.083 425.974 728.744C379.456 727.435 330.393 726.088 322.802 726.012C307.836 725.861 231.535 716.856 214.491 706.889C199.464 698.101 193.791 602.476 200.747 536.483C203.82 507.332 210.141 502.05 213.246 496.246C215.861 491.362 215.495 482.759 216.567 479.008C220.794 464.218 247.993 435.921 280.691 410.204C300.44 365.854 315.94 291.212 341.574 283.276C360.369 277.458 382.995 274.251 437.9 272.547ZM437.91 234.157C373.725 236.819 337.301 242.017 318.093 247.963C292.459 255.898 266.156 345.359 246.407 389.709C213.709 415.426 182.276 455.447 178.049 470.236C176.976 473.988 177.343 482.59 174.728 487.474C171.622 493.278 162.923 507.64 159.85 536.792C152.893 602.784 166.737 739.74 181.763 748.527C198.808 758.494 307.836 765.082 322.802 765.232C330.392 765.31 379.448 766.359 425.961 767.376C473.512 768.416 550.608 768.412 598.16 767.368C644.673 766.347 693.729 765.293 701.318 765.216C716.284 765.064 825.312 758.467 842.356 748.498C857.382 739.71 871.213 602.753 864.25 536.761C861.175 507.61 852.474 493.249 849.368 487.445C846.753 482.561 847.118 473.959 846.046 470.207C841.817 455.418 810.381 415.4 777.68 389.686C757.927 345.338 731.616 255.879 705.981 247.946C686.773 242.002 650.349 236.807 586.164 234.15C545.248 232.461 478.825 232.464 437.91 234.157ZM783.195 366.136C782.644 369.798 781.503 380.864 783.939 386.209C784.645 387.751 784.879 388.053 786.455 388.507C782.709 388.889 778.452 389.751 774.297 390.013C775.577 395.897 788.713 400.519 791.355 405.508C797.364 398.465 801.409 394.422 808.157 392.684C815.799 390.715 826.033 391.503 830.484 390.543C838.211 388.877 840.442 370.078 840.123 368.264C839.805 366.45 831.912 353.059 828.83 352.755C825.748 352.451 792.504 350.058 789.465 351.581C786.425 353.105 783.784 361.435 783.195 366.136ZM234.65 351.581C231.611 350.058 198.366 352.451 195.285 352.755C192.203 353.059 184.311 366.45 183.991 368.264C183.673 370.078 185.904 388.877 193.631 390.543C198.082 391.503 208.316 390.715 215.958 392.684C222.706 394.422 226.751 398.465 232.759 405.508C235.402 400.519 248.538 395.897 249.818 390.013C245.663 389.751 241.406 388.889 237.66 388.507C239.236 388.053 239.473 387.751 240.175 386.209C242.612 380.864 241.469 369.798 240.92 366.136C240.331 361.435 237.69 353.105 234.65 351.581ZM461.363 591.822C402.599 591.106 322.239 589.848 316.987 591.22C309.835 593.09 281.175 616.593 278.52 621.705C275.864 626.817 278.241 682.87 278.442 685.578C278.822 690.549 282.694 700.315 297.585 705.05C307.707 708.267 403.204 710.973 463.367 712.377C490.267 713.004 533.884 713.004 560.784 712.377C620.947 710.973 716.443 708.267 726.565 705.05C741.456 700.315 745.328 690.549 745.708 685.578C745.91 682.87 748.286 626.817 745.631 621.705C742.975 616.593 714.316 593.09 707.164 591.22C701.912 589.848 621.551 591.106 562.786 591.822C534.78 592.164 489.37 592.164 461.363 591.822ZM687.458 613.037C701.794 612.08 726.245 611.334 728.505 612.111C730.764 612.889 738.337 618.971 739.586 623.921C740.835 628.871 740.941 663.138 739.439 683.29C739.191 686.605 732.034 694.516 725.981 699.339C713.312 701.808 688.219 700.465 688.219 700.465C688.219 700.465 687.458 627.721 687.458 613.037ZM335.896 700.465C335.896 700.465 310.803 701.808 298.134 699.339C292.081 694.516 284.924 686.605 284.676 683.29C283.174 663.138 283.279 628.871 284.528 623.921C285.778 618.971 293.351 612.889 295.61 612.111C297.87 611.334 322.321 612.08 336.657 613.037C336.657 627.721 335.896 700.465 335.896 700.465ZM308.31 629.401C299.057 629.401 292.454 629.308 292.454 629.308C292.454 629.308 292.276 668.313 292.276 679.964C292.276 685.144 300.374 686.303 307.926 686.729C307.926 657.956 308.306 644.582 308.306 629.401H308.31ZM715.805 629.401C725.058 629.401 731.661 629.308 731.661 629.308C731.661 629.308 731.839 668.313 731.839 679.964C731.839 685.144 723.741 686.303 716.189 686.729C716.189 657.956 715.809 644.582 715.809 629.401H715.805ZM760.816 492.568C760.816 511.552 759.462 556.857 761.998 560.002C765.947 564.899 785.109 574.247 785.109 574.247L717.204 597.42L732.288 608.72C732.288 608.72 797.414 591.294 810.027 582.539C811.325 559.941 812.437 524.818 810.128 494.235C808.576 495.044 812.553 484.826 807.541 473.341C801.486 459.468 790.225 448.233 780.483 439.787C786.022 459.32 767.37 485.864 767.37 490.593C767.365 492.807 765.343 492.387 760.816 492.568ZM256.745 490.593C256.745 485.864 238.093 459.32 243.632 439.787C233.89 448.233 222.629 459.468 216.574 473.341C211.561 484.826 215.539 495.044 213.987 494.235C211.678 524.818 212.789 559.941 214.087 582.539C226.701 591.294 291.827 608.72 291.827 608.72L306.911 597.42L239.006 574.247C239.006 574.247 258.168 564.899 262.117 560.002C264.653 556.857 263.323 511.552 263.298 492.568C258.772 492.387 256.75 492.807 256.745 490.593ZM461.361 501.218C391.848 500.874 280.306 498.73 231.429 487.84C232.887 491.062 233.487 492.4 234.171 493.744C249.359 497.467 305.36 505.382 310.08 506.761C314.8 508.139 326.549 517.94 328.137 519.063C332.103 521.867 404.371 523.142 463.358 523.726C490.263 523.992 533.888 523.992 560.794 523.726C619.78 523.143 692.048 521.867 696.014 519.063C697.601 517.94 709.351 508.139 714.07 506.761C718.79 505.382 774.791 497.467 789.98 493.744C790.662 492.4 791.264 491.062 792.721 487.84C743.844 498.731 632.298 500.874 562.786 501.218C534.779 501.357 489.37 501.357 461.361 501.218ZM676.891 230.448C672.907 231.342 651.372 237.625 650.782 242.326C650.232 245.988 704.685 249.257 704.685 249.257C701.551 238.388 701.406 236.833 693.426 230.52C690.345 230.218 680.876 229.556 676.891 230.45V230.448ZM347.223 230.45C343.239 229.556 333.77 230.218 330.689 230.52C322.709 236.833 322.564 238.388 319.43 249.257C319.43 249.257 373.882 245.988 373.332 242.326C372.743 237.625 351.208 231.342 347.223 230.448V230.45Z" fill="#262625"/>
<path d="M802.95 488.809C802.756 488.044 800.801 488.343 800.894 489.564C801.94 503.441 803.566 561.753 802.906 574.636C774.922 586.43 753.69 591.795 727.152 599.529L732.783 604.751C732.783 604.751 736.087 604.759 744.552 601.679C746.555 600.949 747.21 598.569 749.558 597.667C763.235 592.413 783.31 586.265 795.086 581.702C796.876 581.008 798.832 583.713 800.362 583.057C803.704 581.623 804.57 581.392 806.329 580.171C807.627 557.573 804.196 493.709 802.95 488.809ZM221.165 488.809C219.918 493.709 216.488 557.573 217.786 580.171C219.544 581.392 220.411 581.623 223.753 583.057C225.283 583.713 227.239 581.008 229.029 581.702C240.805 586.265 260.879 592.413 274.557 597.667C276.905 598.569 277.559 600.949 279.562 601.679C288.027 604.761 291.332 604.751 291.332 604.751L296.963 599.529C270.425 591.795 249.193 586.43 221.208 574.636C220.549 561.753 222.174 503.441 223.221 489.564C223.314 488.343 221.36 488.044 221.165 488.809ZM764.665 553.121C767.628 559.867 785.199 573.773 797.868 571.305C797.868 536.488 797.473 507.684 797.473 492.753C790.43 495.692 763.994 498.984 762.834 501.897C762.834 516.582 760.444 543.508 764.665 553.121ZM261.281 501.897C260.121 498.984 233.685 495.692 226.642 492.753C226.642 507.684 226.246 536.488 226.246 571.305C238.915 573.773 256.487 559.867 259.45 553.121C263.671 543.508 261.281 516.582 261.281 501.897Z" fill="#262625"/>
</g>
<defs>
<clipPath id="clip0_376_10174">
<rect width="1024" height="1024" fill="white"/>
</clipPath>
</defs>
</svg>
