<svg width="1024" height="1102" viewBox="0 0 1024 1102" fill="none" xmlns="http://www.w3.org/2000/svg">
<g clip-path="url(#clip0_991_20473)">
<path d="M585.929 203.73C652.699 205.317 693.719 208.247 715.516 213.116C741.543 218.93 779.055 300.704 800.655 349.249C801.53 349.212 802.417 349.153 803.34 349.059C803.34 344.92 803.433 339.901 803.433 335.576C803.433 331.251 808.953 329.757 810.622 329.695L810.893 329.692C814.85 329.687 853.94 330.513 858.412 330.513C863.025 330.513 863.777 338.379 863.777 344.198C863.777 350.018 863.677 362.733 863.677 368.96C863.677 375.188 858.197 376.52 857.22 376.794C848.682 379.191 838.679 378.644 827.002 378.131C827.659 378.447 828.368 378.781 829.116 379.13C845.611 386.827 869.361 467.497 871.122 476.604C872.654 484.525 879.704 628.189 879.679 670.475C882.797 683.955 884.813 755.016 882.84 784.482C881.605 802.926 876.518 820.802 862.816 820.825L781.767 820.985C775.838 820.996 768.049 806.361 767.382 796.573L765.563 768.961C734.336 772.169 705.412 774.357 697.624 774.204C686.726 773.989 627.163 774.416 577.608 774.786C541.271 775.057 482.357 775.059 446.021 774.791C396.466 774.426 336.901 774.004 326.002 774.22C318.214 774.374 289.287 772.188 258.059 768.982L256.241 796.573C255.574 806.361 247.785 821 241.856 820.985L160.807 820.825C147.105 820.802 142.018 802.926 140.782 784.482C138.811 755.033 140.823 684.036 143.939 670.495C143.911 628.197 150.947 484.556 152.479 476.635C154.239 467.528 177.982 386.856 194.476 379.158C195.247 378.798 195.974 378.454 196.65 378.129C184.96 378.643 174.948 379.193 166.403 376.794C165.426 376.52 159.946 375.188 159.946 368.96C159.946 362.733 159.846 350.018 159.846 344.198C159.846 338.379 160.595 330.513 165.211 330.513C169.827 330.513 211.331 329.633 213.001 329.695L213.168 329.705C215.01 329.852 220.19 331.387 220.19 335.576C220.19 339.901 220.286 344.92 220.283 349.059C221.198 349.152 222.078 349.211 222.946 349.248C244.544 300.697 282.04 218.949 308.062 213.134C329.858 208.263 370.877 205.329 437.646 203.736C478.587 202.757 544.989 202.754 585.929 203.73ZM437.643 241.821C381.474 242.674 356.738 244.139 335.458 248.895C306.519 255.361 267.524 345.005 247.775 389.355C239.436 395.995 242.5 396.485 226.006 404.183C209.512 411.882 191.684 481.372 189.924 490.479C188.163 499.586 179.541 639.255 182.323 646.975C184.719 653.62 191.946 662.887 195.575 673.735C225.776 678.594 287.979 686.016 292.989 679.26C298.965 671.203 293.523 632.786 297.857 628.158C302.19 623.53 310.976 615.728 318.105 616.367C322.62 616.772 399.122 618.259 454.617 619.296L460.762 619.4C492.54 619.884 539.416 619.85 569.035 619.296C624.529 618.26 701.039 616.772 705.554 616.367C712.683 615.728 721.469 623.53 725.802 628.158C730.134 632.786 724.694 671.203 730.669 679.26C735.677 686.012 797.811 678.603 828.031 673.743C831.654 662.88 838.894 653.599 841.292 646.947C844.074 639.227 835.44 499.558 833.678 490.451C831.917 481.345 814.083 411.856 797.588 404.159C781.094 396.462 784.157 395.972 775.818 389.332C756.065 344.984 717.062 255.344 688.123 248.88C666.842 244.126 642.105 242.663 585.936 241.814C544.989 241.196 478.591 241.199 437.643 241.821ZM828.447 616.233C828.369 622.695 828.307 632.211 828.26 639.115C828.26 642.97 825.101 646.275 821.282 646.795C809.031 648.464 785.663 652.655 772.657 654.216C768.649 654.697 765.386 651.532 765.272 647.484C764.962 636.582 764.152 623.018 765.272 617.59C765.512 616.439 766.813 615.009 767.942 614.69C776.299 612.326 808.298 611.111 822.983 610.824C826.006 610.762 828.456 610.755 828.455 610.755L828.447 616.233ZM200.64 610.824C215.325 611.111 247.324 612.326 255.681 614.69C256.81 615.009 258.111 616.439 258.351 617.59C259.471 623.018 258.661 636.582 258.351 647.484C258.237 651.532 254.974 654.697 250.966 654.216C237.96 652.655 214.592 648.464 202.341 646.795C198.522 646.275 195.362 642.97 195.362 639.115C195.316 632.211 195.254 622.695 195.176 616.233L195.168 610.755C195.167 610.755 197.617 610.762 200.64 610.824ZM691.998 430.702C695.532 430.64 697.207 434.076 700.279 433.949C703.085 433.833 776.589 431.428 805.848 431.011C809.743 430.956 813.885 433.963 814.567 437.794C818.578 460.439 822.11 523.313 820.253 545.865C819.962 549.389 817.051 554.055 813.776 555.328C791.647 563.933 715.433 573.529 683.914 576.583C676.754 577.277 665.087 577.566 657.886 577.543C616.266 577.4 516.681 576.782 511.829 576.751C506.977 576.781 407.392 577.4 365.773 577.543C358.572 577.568 346.905 577.277 339.744 576.583C308.226 573.529 232.012 563.933 209.882 555.328C206.608 554.055 203.693 549.389 203.406 545.865C201.549 523.313 205.08 460.439 209.091 437.794C209.77 433.963 213.916 430.957 217.81 431.011C247.069 431.428 320.573 433.832 323.379 433.949C326.452 434.076 328.127 430.64 331.66 430.702C335.195 430.761 495.487 428.764 511.829 428.717C528.172 428.764 688.464 430.764 691.998 430.702ZM219.5 530.049C219.5 535.263 222.953 542.573 229.893 542.573C236.832 542.573 268.005 543.282 278.661 543.282C278.661 528.915 278.878 530.049 278.878 520.824C278.878 511.599 272.055 511.902 267.933 511.902C263.81 511.902 236.604 511.042 219.5 509.625V506.127L219.121 508.837C217.479 521.738 219.5 525.16 219.5 530.049ZM804.123 509.625C787.019 511.042 759.812 511.902 755.69 511.902C751.568 511.902 744.745 511.599 744.745 520.824C744.745 530.049 744.962 528.915 744.962 543.282C755.618 543.282 786.79 542.573 793.73 542.573C800.67 542.573 804.123 535.263 804.123 530.049C804.123 524.834 806.422 521.288 804.123 506.127V509.625ZM476.837 528.684C475.69 528.685 474.767 529.614 474.76 530.76L474.683 539.306C474.683 540.792 475.864 542.005 477.349 542.003L511.776 541.957L546.202 542.003C547.688 542.005 548.884 540.792 548.884 539.306L548.807 530.76C548.8 529.614 547.877 528.685 546.731 528.684L511.808 528.653L476.837 528.684ZM631.614 532.47V538.328C631.614 540.334 633.239 541.961 635.246 541.963L696.089 542.001C698.276 542.003 700.033 540.223 700.033 538.036V531.885L699.998 531.889C699.988 530.118 698.548 528.687 696.777 528.686L635.43 528.655C633.323 528.654 631.614 530.362 631.614 532.47ZM554.424 532.47V538.328C554.424 540.334 556.049 541.961 558.055 541.963L618.899 542.001C621.086 542.003 622.843 540.223 622.843 538.036V531.885L622.807 531.889C622.797 530.118 621.358 528.687 619.587 528.686L558.24 528.655C556.133 528.654 554.424 530.362 554.424 532.47ZM404.001 528.686C402.229 528.687 400.78 530.118 400.78 531.889V531.885L400.744 538.036C400.744 540.223 402.502 542.003 404.689 542.001L465.532 541.963C467.538 541.961 469.164 540.334 469.164 538.328V532.47C469.164 530.362 467.455 528.654 465.348 528.655L404.001 528.686ZM326.81 528.686C325.039 528.687 323.59 530.118 323.59 531.889V531.885L323.554 538.036C323.554 540.223 325.311 542.003 327.498 542.001L388.342 541.963C390.348 541.961 391.973 540.334 391.973 538.328V532.47C391.973 530.362 390.264 528.654 388.157 528.655L326.81 528.686ZM209.344 451.927C207.292 452.63 204.181 531.642 206.445 535.615L206.661 535.97C208.937 539.442 212.45 537.18 214.663 535.426C216.946 533.615 216.946 455.619 216.946 452.703C216.946 449.787 211.397 451.224 209.344 451.927ZM806.677 452.703C806.677 455.619 806.677 533.615 808.96 535.426C811.244 537.237 814.914 539.589 817.178 535.615C819.442 531.642 816.331 452.63 814.279 451.927C812.226 451.224 806.677 449.787 806.677 452.703ZM631.391 515.751V521.609C631.391 523.615 633.017 525.242 635.023 525.243L695.867 525.282C698.054 525.284 699.811 523.504 699.811 521.317V515.166L699.775 515.17C699.765 513.399 698.326 511.968 696.555 511.967L635.208 511.936C633.101 511.935 631.391 513.643 631.391 515.751ZM327.033 511.967C325.261 511.968 323.812 513.399 323.812 515.17V515.166L323.777 521.317C323.777 523.504 325.534 525.284 327.721 525.282L388.564 525.243C390.571 525.242 392.196 523.615 392.196 521.609V515.751C392.196 513.643 390.487 511.935 388.38 511.936L327.033 511.967ZM404.223 511.967C402.452 511.968 401.003 513.399 401.003 515.17V515.166L400.967 521.317C400.967 523.504 402.724 525.284 404.911 525.282L465.755 525.243C467.761 525.242 469.386 523.615 469.386 521.609V515.751C469.386 513.643 467.677 511.935 465.57 511.936L404.223 511.967ZM554.201 515.751V521.609C554.201 523.615 555.826 525.242 557.832 525.243L618.676 525.282C620.863 525.284 622.62 523.504 622.62 521.317V515.166L622.584 515.17C622.574 513.399 621.135 511.968 619.364 511.967L558.017 511.936C555.91 511.935 554.201 513.643 554.201 515.751ZM477.337 511.956C475.866 511.957 474.67 513.152 474.67 514.623L474.592 522.032C474.592 523.821 476.03 525.277 477.82 525.275L511.777 525.244L545.734 525.275C547.523 525.277 548.961 523.821 548.961 522.032L548.883 514.623C548.883 513.152 547.687 511.957 546.217 511.956L511.808 511.925L477.337 511.956ZM218.476 491.788H218.478C215.614 494.78 217.456 501.008 218.478 504.308C219.5 507.607 286.562 511.996 290.47 508.087C294.38 504.178 294.857 496.476 289.974 494.132C285.094 491.789 221.34 488.796 218.476 491.788ZM733.649 494.132C728.766 496.476 729.243 504.178 733.153 508.087C737.061 511.996 804.123 507.607 805.144 504.308C806.167 501.008 808.009 494.78 805.144 491.788H805.147C802.283 488.796 738.529 491.789 733.649 494.132ZM477.337 494.924C475.814 494.926 474.563 496.145 474.563 497.667L474.486 504.804C474.486 506.703 476.011 508.246 477.91 508.243L511.776 508.197L545.641 508.243C547.541 508.246 549.067 506.703 549.067 504.804L548.989 497.667C548.989 496.145 547.753 494.926 546.231 494.924L511.808 494.893L477.337 494.924ZM554.386 498.709V504.567C554.386 506.574 556.011 508.201 558.017 508.202L618.861 508.241C621.048 508.242 622.805 506.463 622.805 504.276V498.124L622.769 498.129C622.759 496.357 621.32 494.926 619.549 494.925L558.202 494.894C556.095 494.893 554.386 496.602 554.386 498.709ZM404.039 494.925C402.267 494.926 400.818 496.357 400.818 498.129V498.124L400.782 504.276C400.782 506.463 402.54 508.242 404.727 508.241L465.57 508.202C467.576 508.201 469.202 506.574 469.202 504.567V498.709C469.202 496.602 467.493 494.893 465.386 494.894L404.039 494.925ZM326.848 494.925C325.077 494.926 323.628 496.357 323.628 498.129V498.124L323.592 504.276C323.592 506.463 325.349 508.242 327.536 508.241L388.38 508.202C390.386 508.201 392.011 506.574 392.011 504.567V498.709C392.011 496.602 390.302 494.893 388.195 494.894L326.848 494.925ZM631.576 498.709V504.567C631.576 506.574 633.201 508.201 635.208 508.202L696.051 508.241C698.238 508.242 699.995 506.463 699.995 504.276V498.124L699.96 498.129C699.95 496.357 698.51 494.926 696.739 494.925L635.392 494.894C633.285 494.893 631.576 496.602 631.576 498.709ZM553.832 482.037V487.895C553.832 489.901 555.457 491.528 557.463 491.53L618.307 491.568C620.494 491.57 622.251 489.791 622.251 487.604V481.452L622.215 481.456C622.205 479.685 620.766 478.254 618.995 478.253L557.648 478.222C555.541 478.221 553.832 479.929 553.832 482.037ZM631.022 482.037V487.895C631.022 489.901 632.647 491.528 634.654 491.53L695.497 491.568C697.684 491.57 699.441 489.791 699.441 487.604V481.452L699.406 481.456C699.396 479.685 697.957 478.254 696.185 478.253L634.838 478.222C632.731 478.221 631.022 479.929 631.022 482.037ZM404.592 478.253C402.821 478.254 401.372 479.685 401.372 481.456V481.452L401.336 487.604C401.336 489.791 403.094 491.57 405.281 491.568L466.124 491.53C468.13 491.528 469.756 489.901 469.756 487.895V482.037C469.756 479.929 468.047 478.221 465.94 478.222L404.592 478.253ZM327.402 478.253C325.631 478.254 324.182 479.685 324.182 481.456V481.452L324.146 487.604C324.146 489.791 325.903 491.57 328.09 491.568L388.934 491.53C390.94 491.528 392.565 489.901 392.565 487.895V482.037C392.565 479.929 390.856 478.221 388.749 478.222L327.402 478.253ZM476.943 478.257C475.681 478.258 474.662 479.268 474.654 480.53L474.577 488.136C474.577 490.031 476.106 491.563 478.001 491.561L511.776 491.53L545.566 491.561C547.461 491.563 548.975 490.031 548.975 488.136L548.897 480.53C548.89 479.268 547.87 478.258 546.61 478.257L511.808 478.21L476.943 478.257ZM755.694 451.433C749.11 453.742 745.23 455.546 744.04 463.898C742.848 472.251 743.073 476.004 743.073 490.371C753.729 490.371 791.732 488.718 804.123 488.718C803.511 475.338 805.367 474.485 801.569 449.437L798.518 449.415C783.168 449.203 766.548 447.625 755.694 451.433ZM222.054 449.437L221.406 453.859C218.478 474.64 220.075 476.174 219.5 488.718C231.891 488.718 269.894 490.371 280.55 490.371C280.55 476.004 280.775 472.251 279.583 463.898C278.393 455.546 274.513 453.742 267.929 451.433C256.352 447.371 238.213 449.437 222.054 449.437ZM631.207 465.049V470.908C631.207 472.914 632.832 474.541 634.838 474.542L695.682 474.581C697.869 474.582 699.626 472.803 699.626 470.616V464.465L699.59 464.469C699.58 462.697 698.141 461.266 696.37 461.266L635.023 461.235C632.916 461.234 631.207 462.942 631.207 465.049ZM404.408 461.266C402.637 461.266 401.187 462.697 401.187 464.469V464.465L401.152 470.616C401.152 472.803 402.909 474.582 405.096 474.581L465.94 474.542C467.946 474.541 469.571 472.914 469.571 470.908V465.049C469.571 462.942 467.862 461.234 465.755 461.235L404.408 461.266ZM554.016 465.049V470.908C554.016 472.914 555.642 474.541 557.648 474.542L618.491 474.581C620.678 474.582 622.435 472.803 622.435 470.616V464.465L622.4 464.469C622.39 462.697 620.951 461.266 619.179 461.266L557.832 461.235C555.725 461.234 554.016 462.942 554.016 465.049ZM327.217 461.266C325.446 461.266 323.997 462.697 323.997 464.469V464.465L323.961 470.616C323.961 472.803 325.718 474.582 327.905 474.581L388.749 474.542C390.755 474.541 392.38 472.914 392.38 470.908V465.049C392.38 462.942 390.671 461.234 388.564 461.235L327.217 461.266ZM476.821 461.255C475.615 461.257 474.631 462.231 474.624 463.437L474.546 471.544C474.546 473.217 475.889 474.577 477.562 474.575L511.776 474.543L545.99 474.575C547.663 474.577 549.005 473.217 549.005 471.544L548.928 463.437C548.921 462.231 547.952 461.257 546.745 461.255L511.808 461.224L476.821 461.255Z" fill="#262625"/>
<path d="M801.569 449.437C805.367 474.485 803.511 475.338 804.123 488.718C791.732 488.718 753.729 490.371 743.073 490.371C743.073 476.004 742.848 472.251 744.04 463.898C745.23 455.546 749.11 453.742 755.694 451.433C767.271 447.371 785.41 449.437 801.569 449.437ZM222.054 449.437C238.213 449.437 256.352 447.371 267.929 451.433C274.513 453.742 278.393 455.546 279.583 463.898C280.775 472.251 280.55 476.004 280.55 490.371C269.894 490.371 231.891 488.718 219.5 488.718C220.113 475.338 218.256 474.485 222.054 449.437ZM804.123 506.127C806.422 521.288 804.123 524.834 804.123 530.049C804.123 535.263 800.67 542.573 793.73 542.573C786.79 542.573 755.618 543.282 744.962 543.282C744.962 528.915 744.745 530.049 744.745 520.824C744.745 511.599 751.568 511.902 755.69 511.902C759.812 511.902 787.019 511.042 804.123 509.625V506.127ZM219.5 506.127V509.625C236.604 511.042 263.81 511.902 267.933 511.902C272.055 511.902 278.878 511.599 278.878 520.824C278.878 530.049 278.661 528.915 278.661 543.282C268.005 543.282 236.833 542.573 229.893 542.573C222.953 542.573 219.5 535.263 219.5 530.049C219.5 524.834 217.201 521.288 219.5 506.127ZM805.144 491.788C808.009 494.78 806.167 501.008 805.144 504.308C804.123 507.607 737.061 511.996 733.153 508.087C729.243 504.178 728.766 496.476 733.649 494.132C738.529 491.789 802.283 488.796 805.147 491.788H805.144ZM218.479 491.788H218.476C221.34 488.796 285.094 491.789 289.974 494.132C294.857 496.476 294.38 504.178 290.47 508.087C286.562 511.996 219.5 507.607 218.479 504.308C217.456 501.008 215.614 494.78 218.479 491.788ZM817.178 535.615C814.914 539.589 811.244 537.237 808.96 535.426C806.677 533.615 806.677 455.619 806.677 452.703C806.677 449.787 812.226 451.224 814.279 451.927C816.331 452.63 819.442 531.642 817.178 535.615ZM206.445 535.615C204.181 531.642 207.292 452.63 209.344 451.927C211.397 451.224 216.946 449.787 216.946 452.703C216.946 455.619 216.946 533.615 214.663 535.426C212.379 537.237 208.709 539.589 206.445 535.615Z" fill="#262625"/>
</g>
<defs>
<clipPath id="clip0_991_20473">
<rect width="1024" height="1024" fill="white"/>
</clipPath>
</defs>
</svg>
