<svg width="1024" height="1024" viewBox="0 0 1024 1024" fill="none" xmlns="http://www.w3.org/2000/svg">
<g clip-path="url(#clip0_935_26070)">
<g clip-path="url(#clip1_935_26070)">
<path d="M850.734 642.755C842.551 645.295 769.74 671.551 769.74 671.551L774.22 718.473C774.887 728.26 792.916 742.91 798.845 742.884L835.786 742.724C849.488 742.662 865.126 723.831 866.361 705.386C868.529 673.006 872.047 603.276 872.047 603.276C858.221 604.787 858.942 640.208 850.734 642.755ZM173.117 642.755C164.909 640.208 165.63 604.787 151.804 603.276C151.804 603.276 155.322 673.006 157.489 705.386C158.725 723.831 174.362 742.662 188.065 742.724L225.006 742.884C230.935 742.907 248.964 728.26 249.631 718.473L254.111 671.551C254.111 671.551 181.3 645.295 173.117 642.755ZM437.782 173.848C478.688 171.953 545.122 171.95 586.028 173.842C645.864 176.609 675.519 181.924 694.544 187.811C720.179 195.744 762.255 279.196 782.008 323.544C790.347 330.184 803.594 337.589 808.81 343.698C810.89 346.134 826.391 380.203 832.433 429.509C841.545 503.861 840.476 603.616 829.547 608.256C811.372 615.972 773.859 639.862 758.893 640.014C750.118 640.103 666.069 641.451 598.035 642.55C550.478 643.319 473.372 643.322 425.816 642.558C357.781 641.464 273.732 640.124 264.957 640.036C249.991 639.885 212.476 615.999 194.3 608.284C183.371 603.645 182.293 503.89 191.398 429.536C197.436 380.231 212.934 346.16 215.014 343.724C220.23 337.615 233.476 330.208 241.815 323.568C261.564 279.218 303.633 195.762 329.267 187.827C348.291 181.938 377.946 176.621 437.782 173.848ZM437.795 135.726C370.163 139.537 328.091 147.146 308.743 153.135C283.109 161.071 230.74 253.185 210.991 297.535C202.652 304.176 189.406 311.582 184.19 317.692C182.11 320.128 158.722 379.219 152.684 428.525C143.579 502.878 148.739 635.8 159.668 640.439C177.844 648.154 265.411 678.581 280.377 678.731C288.885 678.817 363.306 680.445 425.829 681.834C473.379 682.894 550.474 682.89 598.026 681.826C660.548 680.432 734.968 678.798 743.476 678.711C758.442 678.559 846.007 648.125 864.182 640.408C875.111 635.769 880.259 502.846 871.148 428.493C865.106 379.188 841.711 320.099 839.631 317.663C834.416 311.554 821.169 304.149 812.83 297.509C793.077 253.161 740.699 161.05 715.065 153.118C695.716 147.13 653.643 139.524 586.011 135.72C545.127 133.424 478.679 133.427 437.795 135.726ZM821.588 249.358H821.587C817.243 249.358 814.446 250.933 814.446 254.242C814.446 257.551 814.151 263.149 814.151 267.288C810.406 267.671 800.323 267.463 796.168 267.725C797.448 273.609 810.144 300.404 812.787 305.393C831.036 305.393 861.43 303.955 864.896 303.955C865.91 303.955 871.352 302.349 871.352 296.122C871.352 289.895 871.857 264.584 871.352 260.767C871.158 259.324 870.539 253.181 862.606 251.055C854.673 248.93 824.771 249.358 821.588 249.358ZM202.263 249.358C199.08 249.358 169.178 248.93 161.245 251.055C153.312 253.181 152.69 259.324 152.499 260.767C151.994 264.584 152.499 289.895 152.499 296.122C152.499 302.349 157.941 303.955 158.955 303.955C162.421 303.955 192.815 305.393 211.064 305.393C213.707 300.404 226.403 273.609 227.683 267.725C223.528 267.463 213.445 267.671 209.7 267.288C209.702 263.149 209.405 257.551 209.405 254.242C209.405 250.933 206.608 249.358 202.264 249.358H202.263ZM454.722 539.041C366.13 538.491 203.816 537.154 183.63 534.646C183.63 556.854 178.758 603.333 198.305 617.345C210.257 625.911 246.366 641.201 260.537 643.268C274.71 645.336 314.574 645.069 331.058 645.069C341.543 645.069 411.947 644.615 461.807 644.285C489.496 644.102 534.391 644.102 562.08 644.285C611.94 644.615 682.343 645.069 692.828 645.069C709.313 645.069 749.177 645.336 763.349 643.268C777.521 641.201 813.629 625.911 825.582 617.345C845.129 603.333 840.257 556.854 840.257 534.646C820.071 537.154 657.75 538.491 569.16 539.041C537.561 539.237 486.324 539.237 454.722 539.041ZM461.232 333.147C415.89 333.7 353.458 334.612 326.093 335.47C283.606 336.803 286.31 347.643 286.31 368.386C286.31 389.128 291.227 486.535 286.736 486.535C276.094 486.535 229.684 443.637 189.343 439.242C185.922 461.532 185.826 512.743 185.922 513.984C186.302 518.954 307.381 531.43 325.313 531.43C336.926 531.43 411.868 532.499 463.23 533.252C490.134 533.646 533.754 533.646 560.657 533.252C612.019 532.499 686.96 531.43 698.574 531.43C716.505 531.43 837.585 518.954 837.965 513.984C838.058 512.743 837.965 461.532 834.544 439.242C794.202 443.637 747.793 486.535 737.15 486.535C732.659 486.535 737.577 389.128 737.577 368.386C737.577 347.643 740.281 336.803 697.794 335.47C670.428 334.612 607.995 333.7 562.653 333.147C534.647 332.806 489.239 332.806 461.232 333.147ZM461.23 359.112C489.238 359.221 534.649 359.221 562.657 359.112C605.712 358.945 662.757 358.698 683.161 358.698C715.262 358.698 718.157 362.436 718.157 383.928C718.157 405.421 716.701 459.5 716.701 468.511C716.701 477.523 715.466 480.716 696.148 481.519C683.72 482.036 610.974 483.037 560.659 483.686C533.754 484.032 490.134 484.032 463.23 483.686C412.915 483.037 340.166 482.036 327.739 481.519C308.42 480.716 307.186 477.523 307.186 468.511C307.186 459.5 305.73 405.421 305.73 383.928C305.73 362.436 308.625 358.698 340.726 358.698C361.13 358.698 418.175 358.945 461.23 359.112ZM461.23 447.427C411.456 447.481 345.576 447.527 345.576 447.527V465.368L463.224 465.352C495.704 465.348 528.183 465.348 560.663 465.352L678.311 465.368V447.527C678.311 447.527 612.431 447.48 562.657 447.427C534.649 447.395 489.238 447.395 461.23 447.427ZM461.23 411.557C411.261 411.744 344.971 412.004 344.971 412.004V428.982L463.224 428.967C495.704 428.962 528.183 428.962 560.663 428.967L678.916 428.982V412.004C678.916 412.004 612.626 411.744 562.657 411.557C534.649 411.452 489.238 411.452 461.23 411.557ZM461.23 374.653C410.854 374.459 343.962 374.107 343.962 374.107V393.573L463.224 393.558C495.704 393.553 528.183 393.553 560.663 393.558L679.924 393.573V374.107C679.924 374.107 613.032 374.459 562.657 374.653C534.649 374.762 489.238 374.762 461.23 374.653ZM547.267 357.379V357.38L545.487 485.783L549.027 486.32L551.13 357.645L547.267 357.379ZM476.584 357.379L472.721 357.645L474.824 486.32L478.364 485.783L476.584 357.38V357.379ZM607.072 357.363L605.292 484.111L608.832 484.648L610.935 357.629L607.072 357.363ZM416.779 357.363L412.916 357.629L415.019 484.648L418.559 484.111L416.779 357.363ZM661.818 357.762L660.037 483.53L679.802 484.067L681.905 358.028L661.818 357.762ZM362.033 357.762L341.946 358.028L344.049 484.067L363.814 483.53L362.033 357.762Z" fill="#262625"/>
<path d="M286.865 374.107C286.865 374.107 227.826 374.588 202.48 374.588C191.902 410.811 188.727 431.766 189.438 445.931C190.498 446.591 192.6 446.732 195.334 447.623C196.755 448.086 194.876 453.507 196.741 453.556C203.665 453.74 226.985 456.527 234.289 457.106C237.47 457.358 246.983 484.899 253.903 485.885C257.341 486.376 282.135 488.226 288.187 487.542C291.272 456.665 286.865 374.108 286.865 374.108V374.107ZM736.986 374.107C736.986 374.107 796.025 374.588 821.371 374.588C831.949 410.811 835.124 431.766 834.413 445.931C833.354 446.591 831.251 446.732 828.517 447.623C827.097 448.086 828.975 453.507 827.11 453.556C820.187 453.74 796.866 456.527 789.562 457.106C786.381 457.358 776.869 484.899 769.948 485.885C766.51 486.376 741.716 488.226 735.664 487.542C732.579 456.665 736.986 374.108 736.986 374.108V374.107ZM326.968 521.165C309.175 521.165 196.218 516.596 185.929 511.234C185.929 517.609 185.922 521.426 185.922 527.907C200.526 531.258 314.244 534.353 326.362 533.548C326.362 527.922 326.967 524.027 326.967 521.165H326.968ZM696.883 521.165C714.676 521.165 827.634 516.596 837.922 511.234C837.922 517.609 837.929 521.426 837.929 527.907C823.326 531.258 709.607 534.353 697.489 533.548C697.489 527.922 696.883 524.027 696.883 521.165Z" fill="#262625"/>
</g>
</g>
<defs>
<clipPath id="clip0_935_26070">
<rect width="1024" height="1024" fill="white"/>
</clipPath>
<clipPath id="clip1_935_26070">
<rect width="1024" height="1024" fill="white" transform="translate(0 -74)"/>
</clipPath>
</defs>
</svg>
