<svg width="1024" height="1103" viewBox="0 0 1024 1103" fill="none" xmlns="http://www.w3.org/2000/svg">
<g clip-path="url(#clip0_967_15107)">
<path d="M585.617 202.925C658.987 205.147 711.409 209.467 733.49 214.399C759.055 220.11 795.193 311.053 816.864 362.682C822.519 362.497 838.81 362.65 842.281 362.295C842.281 358.156 842.576 340.684 842.576 336.359C842.576 332.034 848.096 330.54 849.765 330.478L849.999 330.473C853.191 330.432 880.036 330.679 884.098 331.496C888.291 332.34 897.701 342.992 898.904 344.981C900.108 346.97 900.008 377.175 900.008 383.402C900.008 389.629 894.455 390.776 893.551 391.235C884.082 396.045 857.132 399.587 838.522 400.268C839.307 401.508 840.125 402.664 841.014 403.705C843.094 406.141 869.356 471.616 871.379 482.077C872.614 488.461 868.701 598.239 865.729 641.036C868.913 657.348 871.002 756.12 869.006 785.945C867.771 804.39 862.684 822.257 848.981 822.289L783.229 822.448C777.3 822.463 769.511 807.825 768.843 798.037L766.833 767.513C736.473 770.684 706.037 772.794 697.317 772.622C679.863 772.278 537.582 773.585 511.507 773.655C485.431 773.584 343.15 772.292 325.696 772.638C316.976 772.811 286.537 770.704 256.175 767.534L254.166 798.037C253.499 807.825 245.71 822.464 239.78 822.448L174.028 822.289C160.326 822.257 155.239 804.39 154.004 785.945C152.009 756.143 154.094 657.502 157.273 641.074C154.297 598.283 150.374 488.493 151.609 482.108C153.631 471.647 179.887 406.17 181.967 403.734C182.863 402.685 183.687 401.519 184.477 400.267C165.868 399.586 138.926 396.045 129.458 391.235C128.554 390.776 123.002 389.629 123.002 383.402C123.002 377.175 122.903 346.97 124.106 344.981C125.308 342.992 134.718 332.34 138.911 331.496C143.105 330.653 171.574 330.416 173.244 330.478L173.412 330.488C175.253 330.634 180.433 332.169 180.433 336.359C180.433 340.684 180.731 358.156 180.728 362.295C184.196 362.649 200.454 362.497 206.125 362.681C227.793 311.044 263.914 220.131 289.475 214.419C311.555 209.485 363.976 205.16 437.345 202.932L445.306 202.714C486.48 201.696 547.243 201.766 585.617 202.925ZM238.129 626.322C245.599 626.322 261.626 626.482 271.81 626.482C271.81 620.419 271.811 615.067 271.811 608.044H271.814C254.02 608.044 249.036 607.591 238.501 607.591C238.501 613.966 238.129 619.841 238.129 626.322ZM751.196 608.044H751.198C751.198 615.067 751.199 620.419 751.199 626.482C761.383 626.482 777.411 626.322 784.881 626.322C784.881 619.841 784.509 613.966 784.509 607.591C773.974 607.591 768.989 608.044 751.196 608.044ZM437.339 240.918L425.419 241.169C367.364 242.491 332.332 244.79 311.96 249.342C283.022 255.809 251.231 357.619 231.482 401.969C223.144 408.61 220.353 418.681 215.137 424.79C213.058 427.226 191.64 478.93 189.617 489.391C188.792 493.659 190.044 538.031 191.802 578.34C210.397 579.623 287.396 582.246 298.186 584.367C309.839 586.657 323.545 596.479 326.71 596.763C333.569 597.378 402.602 597.537 454.3 597.568C485.903 597.584 537.135 597.584 568.729 597.568C620.43 597.537 689.476 597.378 696.336 596.763C699.5 596.479 713.206 586.657 724.859 584.367C735.64 582.248 812.513 579.627 831.192 578.344C832.948 538.026 834.197 493.632 833.371 489.363C831.348 478.902 809.926 427.2 807.845 424.764C802.629 418.655 799.838 408.584 791.499 401.945C771.746 357.596 739.946 255.789 711.008 249.325C689.277 244.47 650.866 242.183 585.627 240.911C544.683 240.113 478.283 240.116 437.339 240.918ZM562.236 434.365C607.502 434.507 666.275 434.679 669.872 434.617C672.714 434.568 681.2 439.017 687.85 445.669C687.366 445.668 686.972 445.667 686.69 445.666C686.687 445.662 686.687 445.662 686.687 445.662H684.89C684.89 445.662 685.496 445.663 686.69 445.666C686.758 445.745 696.965 457.722 695.423 468.574C695.434 468.574 695.444 468.574 695.459 468.574C695.462 468.574 695.465 468.574 695.468 468.574C705.938 468.574 739.548 468.658 746.065 470.001C746.09 470.006 746.116 470.012 746.138 470.037C747.265 470.847 748.16 473.265 748.844 476.729C751.239 492.496 748.699 530.927 747.634 535.311C747.621 535.361 747.606 535.411 747.564 535.454C746.911 536.535 744.481 537.342 740.999 537.927C728.791 539.545 703.224 537.82 694.702 537.82C694.803 545.458 688.551 552.77 688.334 558.595C688.453 558.596 688.573 558.598 688.708 558.599C683.805 567.922 676.771 576.484 670.618 576.484C654.215 576.484 600.744 576.192 560.241 575.956C533.334 575.799 489.711 575.799 462.804 575.956C422.302 576.192 368.83 576.484 352.427 576.484C346.274 576.484 339.24 567.922 334.337 558.599C334.459 558.597 334.568 558.596 334.676 558.595C334.458 552.77 328.211 545.458 328.308 537.82C319.823 537.82 294.445 539.53 282.172 537.948C278.469 537.336 275.927 536.477 275.377 535.313C275.376 535.312 275.376 535.312 275.376 535.311C274.332 531.013 271.869 493.984 274.029 477.669C274.739 473.658 275.701 470.861 276.945 470.001C283.47 468.657 317.138 468.574 327.576 468.574C327.579 468.574 327.583 468.574 327.586 468.574C326.045 457.722 336.252 445.745 336.319 445.666C337.513 445.663 338.119 445.662 338.119 445.662H336.323C336.323 445.662 336.323 445.662 336.319 445.666C336.047 445.667 335.664 445.668 335.195 445.669C341.845 439.017 350.331 434.568 353.173 434.617C356.77 434.679 415.543 434.506 460.809 434.365L466.256 434.35C494.425 434.278 535.978 434.283 562.236 434.365ZM562.236 536.362C534.228 536.37 488.817 536.37 460.809 536.362L451.866 536.359C406.451 536.342 351.892 536.308 348.982 536.308V543.949C349.494 545.166 355.545 558.536 364.166 559.653C375.676 561.145 424.48 561.569 462.848 561.664C489.73 561.734 533.335 561.734 560.242 561.664C598.603 561.569 647.374 561.145 658.88 559.653C667.5 558.536 673.551 545.166 674.063 543.949L674.064 536.308C670.959 536.308 609.09 536.347 562.236 536.362ZM294.303 477.541C292.441 477.542 290.933 479.051 290.939 480.913C290.986 495.65 291.296 529.44 291.296 529.44L511.523 529.604L731.75 529.44C731.75 529.44 732.03 495.65 732.107 480.913C732.114 479.051 730.605 477.542 728.743 477.541C697.413 477.527 527.163 477.367 511.523 477.321C495.884 477.366 325.634 477.526 294.303 477.541ZM724.114 488.107C725.706 488.107 726.997 489.398 726.989 490.99C726.943 500.551 726.695 512.854 726.695 515.521C726.695 518.467 724.64 518.803 723.625 518.803C719.806 518.803 518.495 518.642 511.523 518.636C504.55 518.641 303.239 518.803 299.42 518.803C298.405 518.803 296.351 518.467 296.351 515.521C296.351 512.854 296.134 500.551 296.056 490.99C296.048 489.398 297.339 488.107 298.931 488.107C328.635 488.107 495.808 488.115 511.523 488.068L513.431 488.072C537.551 488.113 695.338 488.108 724.114 488.107ZM511.52 493.255C495.813 493.3 338.385 493.294 309.301 493.294C307.709 493.294 306.428 494.585 306.428 496.177C306.482 503.957 306.723 507.696 306.723 510.335C306.723 513.28 308.777 513.616 309.792 513.616C313.609 513.616 504.73 513.455 511.521 513.449C518.313 513.456 709.433 513.616 713.251 513.616C714.265 513.616 716.32 513.28 716.32 510.335C716.32 507.696 716.537 503.957 716.614 496.177C716.625 494.585 715.333 493.294 713.741 493.294C684.657 493.294 527.229 493.301 511.523 493.255H511.52ZM460.811 446.604L452.838 446.692C412.508 447.141 366.343 447.684 363.522 447.684C358.786 447.684 348.796 459.242 348.796 463.117C348.796 466.993 348.982 467.873 348.982 471.568C352.135 471.568 416.034 471.496 462.803 471.442C489.71 471.411 533.335 471.411 560.242 471.442C607.011 471.498 670.91 471.568 674.063 471.568C674.063 467.873 674.249 466.993 674.249 463.117C674.249 459.242 664.259 447.684 659.524 447.684C656.514 447.684 604.189 447.066 562.234 446.604C534.227 446.295 488.818 446.295 460.811 446.604Z" fill="#262625"/>
<path d="M684.89 445.662H686.687C686.687 445.662 696.97 457.685 695.423 468.574C705.853 468.574 739.54 468.657 746.065 470.001C752.589 471.345 748.963 529.84 747.634 535.311C746.304 540.782 705.87 537.82 694.702 537.82C694.803 545.458 688.551 552.77 688.334 558.595C725.126 558.946 790.158 559.946 798.674 549.733C807.19 539.519 802.675 505.551 804.731 491.766C806.787 477.98 814.715 470.939 810.916 445.892C785.57 445.892 684.89 445.662 684.89 445.662ZM338.119 445.662C338.119 445.662 237.44 445.892 212.093 445.892C208.295 470.939 216.223 477.98 218.279 491.766C220.334 505.551 215.819 539.519 224.336 549.733C232.852 559.946 297.884 558.946 334.676 558.595C334.458 552.77 328.211 545.458 328.308 537.82C317.14 537.82 276.706 540.782 275.376 535.311C274.047 529.84 270.42 471.345 276.945 470.001C283.47 468.657 317.156 468.574 327.586 468.574C326.039 457.685 336.323 445.662 336.323 445.662H338.119ZM751.196 608.044C768.989 608.044 773.974 607.591 784.509 607.591C784.509 613.966 784.881 619.841 784.881 626.322C777.411 626.322 761.383 626.482 751.199 626.482C751.199 620.419 751.198 615.067 751.198 608.044H751.196ZM271.814 608.044H271.811C271.811 615.067 271.81 620.419 271.81 626.482C261.626 626.482 245.599 626.322 238.129 626.322C238.129 619.841 238.501 613.966 238.501 607.591C249.036 607.591 254.02 608.044 271.814 608.044Z" fill="#262625"/>
</g>
<defs>
<clipPath id="clip0_967_15107">
<rect width="1024" height="1024" fill="white"/>
</clipPath>
</defs>
</svg>
