<svg width="1024" height="1024" viewBox="0 0 1024 1024" fill="none" xmlns="http://www.w3.org/2000/svg">
<g clip-path="url(#clip0_975_15316)">
<g clip-path="url(#clip1_975_15316)">
<path d="M586.217 170.16C656.694 172.827 703.989 178.024 725.949 182.93C751.607 188.661 790.669 259.324 812.926 306.128C818.658 306.209 825.569 306.377 827.974 306.133C828.245 301.721 829.365 290.4 829.636 286.076C829.908 281.751 835.703 279.984 837.373 279.922V279.918L837.642 279.914C841.563 279.888 880.084 280.392 884.146 281.21C888.339 282.053 892.252 284.405 892.252 287.312C892.252 290.219 893.219 319.642 893.219 325.869C893.219 332.096 888.971 332.199 882.935 332.199C877.393 332.199 849.398 333.355 830.755 333.542C833.527 337.517 835.516 341.703 836.727 345.886C839.105 354.099 856.302 398.222 863.331 408.329C868.973 416.441 868.547 508.565 866.756 551.538C866.801 551.495 866.854 551.463 866.907 551.43C870.542 552.688 872.27 667.421 872.185 699.873C872.111 728.768 860.154 743.535 850.999 743.473L790.182 743.079C784.252 743.041 773.183 730.496 773.183 716.346L770.22 655.757C766.435 668.58 757.28 689.639 738.356 687.582C682.113 678.169 588.751 677.111 541.45 677.248C525.255 677.295 499.002 677.295 482.808 677.248C435.508 677.112 342.143 678.169 285.898 687.582C266.924 689.644 257.77 668.465 254.004 655.653L251.036 716.346C251.036 730.496 239.967 743.041 234.037 743.079L173.22 743.473C164.065 743.535 152.112 728.768 152.035 699.873C151.949 667.421 153.677 552.688 157.312 551.43C157.362 551.46 157.411 551.49 157.452 551.53C155.659 508.539 155.227 416.469 160.867 408.359C167.895 398.252 185.088 354.127 187.465 345.914C188.678 341.721 190.674 337.525 193.457 333.541C174.813 333.355 146.825 332.199 141.284 332.199C135.248 332.199 131 332.097 131 325.869C131 319.642 131.967 290.219 131.967 287.312C131.967 284.405 135.88 282.053 140.073 281.21C144.266 280.366 185.177 279.856 186.847 279.918V279.922C188.516 279.982 194.311 281.751 194.583 286.076C194.856 290.4 195.974 301.721 196.245 306.133C198.648 306.377 205.546 306.209 211.274 306.128C233.53 259.322 272.577 188.68 298.228 182.948C320.189 178.04 367.482 172.839 437.959 170.166C478.881 168.613 545.296 168.611 586.217 170.16ZM548.12 654.485C528.232 654.491 495.987 654.492 476.099 654.488C462.178 654.485 445.67 654.479 428.354 654.468C428.414 657.038 428.481 660.449 428.481 663.006C444.972 663.991 480.276 664.226 499.184 664.282L500.575 664.286C507.764 664.304 518.365 664.303 525.062 664.282C543.97 664.227 579.281 663.991 595.774 663.006C595.774 660.446 595.841 657.032 595.901 654.461C578.573 654.474 562.051 654.481 548.12 654.485ZM677.658 654.35C684.703 657.83 696.785 663.376 696.785 663.376L698.689 654.29C692.436 654.313 685.343 654.333 677.658 654.35ZM327.469 663.376C327.469 663.376 339.519 657.845 346.568 654.364C338.896 654.348 331.814 654.329 325.569 654.306L327.469 663.376ZM227.466 531.688L226.963 532.049C222.129 536.334 228.537 557.387 230.42 560.026C232.363 562.75 308.482 565.819 313.614 562.033C318.747 558.247 310.424 533.959 308.442 532.326C306.46 530.693 233.222 528.418 227.466 531.688ZM715.777 532.326C713.795 533.959 705.472 558.247 710.605 562.033C715.737 565.819 791.856 562.75 793.799 560.026C795.743 557.302 802.508 534.957 796.753 531.687C790.997 528.417 717.759 530.693 715.777 532.326ZM437.952 208.624L437.955 208.624C376.93 210.501 345.132 213.952 323.601 218.763C294.663 225.23 255.423 301.671 235.674 346.021C227.336 352.661 221.96 360.883 219.584 369.096C217.207 377.309 205.224 409.073 198.196 419.18C193.784 425.525 193.666 476.914 194.88 517.423C215.082 518.518 334.796 519.706 348.562 519.876C363.085 520.055 358.047 535.714 364.352 545.96C367.924 551.766 414.888 552.435 454.926 551.925L461.071 551.854C492.849 551.524 539.703 551.547 569.326 551.925C609.365 552.435 656.331 551.766 659.903 545.96C666.208 535.714 661.169 520.055 675.693 519.876C689.447 519.706 808.982 518.52 829.329 517.425C830.54 476.912 830.418 425.499 826.005 419.152C818.976 409.046 806.99 377.283 804.612 369.07C802.235 360.858 796.859 352.636 788.52 345.996C768.767 301.648 729.521 225.211 700.582 218.746C679.051 213.937 647.253 210.489 586.227 208.617C545.295 207.362 478.885 207.365 437.952 208.624ZM562.799 360.286C616.362 362.073 693.026 365.085 700.179 366.634C702.53 367.143 713.775 375.998 713.131 382.174C713.072 382.741 713.01 383.312 712.914 383.92C712.631 383.924 712.427 383.924 712.227 383.924C705.765 401.925 693.869 441.633 692.54 447.104C693.52 447.133 695.134 447.167 697.322 447.204C691.109 464.229 684.111 477.913 678.191 482.551C670.065 488.915 606.907 489.442 560.837 488.946C533.932 488.657 490.324 488.657 463.421 488.946C417.351 489.442 354.19 488.917 346.064 482.551C340.144 477.913 333.145 464.229 326.932 447.203C329.104 447.167 330.704 447.133 331.679 447.104C330.35 441.633 318.454 401.925 311.992 383.924C311.803 383.924 311.609 383.924 311.341 383.92C311.245 383.312 311.182 382.741 311.123 382.174C310.479 375.998 321.725 367.143 324.076 366.634C331.228 365.085 407.873 362.074 461.435 360.287L466.878 360.123C495.032 359.356 536.567 359.411 562.799 360.286ZM477.296 372.412C433.512 372.813 363.79 373.928 345.321 377.011C331.882 379.254 330.179 383.67 331.393 391.213C334.379 409.779 348.44 451.215 351.21 455.249C351.978 456.37 355.437 466.831 366.856 467.986C387.939 470.12 438.604 470.408 474.18 470.317C495.139 470.262 529.119 470.262 550.081 470.317C585.658 470.408 636.317 470.12 657.399 467.986C668.818 466.831 672.277 456.37 673.045 455.249C675.815 451.215 689.876 409.779 692.862 391.213C694.075 383.67 692.369 379.254 678.934 377.011C660.464 373.928 590.74 372.813 546.956 372.412C527.721 372.236 496.532 372.236 477.296 372.412ZM535.356 439.239C564.858 439.308 610.334 439.409 613.398 439.409C617.596 439.409 618.998 441.66 618.998 443.253C618.998 444.845 618.076 451.91 617.292 455.686C616.508 459.461 610.564 462.86 609.549 462.86C607.161 462.86 570.841 463.073 543.198 463.237C526.038 463.338 498.217 463.338 481.058 463.237C453.414 463.072 417.094 462.86 414.705 462.86C413.691 462.86 407.746 459.461 406.963 455.686C406.178 451.91 405.257 444.845 405.257 443.253C405.257 441.66 406.659 439.409 410.857 439.409C413.921 439.409 459.397 439.309 488.898 439.239C501.728 439.208 522.527 439.208 535.356 439.239ZM684.7 385.059C692.974 390.325 670.309 454.198 664.58 458.141C658.85 462.084 656.214 462.786 630.571 462.786C623.883 462.786 625.913 455.938 625.993 455.107C626.427 450.556 632.109 398.952 632.703 389.447C633.293 379.942 635.773 380.445 643.502 380.445C650.748 380.445 673.344 379.873 682.958 384.14L684.7 385.059ZM380.717 380.445C388.447 380.445 390.926 379.942 391.516 389.447C392.11 398.952 397.792 450.556 398.226 455.107C398.306 455.938 400.336 462.786 393.648 462.786C368.005 462.786 365.369 462.084 359.639 458.141C353.91 454.198 331.245 390.325 339.519 385.059L341.261 384.14C350.875 379.873 373.471 380.445 380.717 380.445ZM535.355 408.14C565.709 408.49 613.351 409.122 616.434 409.122C620.632 409.122 622.034 411.373 622.034 412.966C622.034 414.558 621.201 423.23 620.775 427.095C620.348 430.96 616.457 432.216 615.443 432.216C613 432.216 572.768 432.662 543.196 432.994C526.038 433.187 498.217 433.187 481.059 432.994C451.487 432.662 411.255 432.216 408.812 432.216C407.798 432.216 403.907 430.96 403.48 427.095C403.053 423.23 402.221 414.558 402.221 412.966C402.221 411.373 403.623 409.122 407.821 409.122C410.904 409.122 458.545 408.49 488.9 408.14L491.394 408.114C504.296 407.992 523.329 408.001 535.355 408.14ZM535.355 378.481C566.58 378.763 616.484 379.273 619.586 379.273C623.784 379.273 625.186 381.525 625.186 383.117C625.186 384.71 625.093 392.454 624.666 396.319C624.239 400.184 620.349 401.44 619.334 401.44C616.86 401.44 574.011 401.898 543.196 402.231C526.038 402.417 498.217 402.417 481.059 402.231C450.244 401.898 407.395 401.44 404.921 401.44C403.906 401.44 400.015 400.184 399.589 396.319C399.162 392.454 399.069 384.71 399.069 383.117C399.069 381.525 400.471 379.273 404.669 379.273C407.77 379.273 457.674 378.763 488.899 378.481L491.394 378.461C504.296 378.366 523.329 378.373 535.355 378.481Z" fill="#262625"/>
<path d="M808.698 390.305C801.598 381.718 732.295 383.924 712.227 383.924C705.765 401.925 693.869 441.633 692.54 447.104C704.159 447.454 804.731 448.386 820.171 447.281C820.411 437.154 815.797 398.892 808.698 390.305ZM215.522 390.305C208.422 398.892 203.81 437.154 204.049 447.281C219.488 448.386 320.061 447.454 331.679 447.104C330.35 441.633 318.454 401.925 311.992 383.924C291.924 383.924 222.621 381.718 215.522 390.305ZM796.753 531.687C802.508 534.957 795.743 557.302 793.799 560.026C791.856 562.75 715.737 565.819 710.605 562.033C705.472 558.247 713.795 533.959 715.777 532.326C717.759 530.693 790.997 528.417 796.753 531.687ZM227.467 531.687C233.222 528.417 306.46 530.693 308.442 532.326C310.424 533.959 318.747 558.247 313.614 562.033C308.482 565.819 232.363 562.75 230.42 560.026C228.477 557.302 221.712 534.957 227.467 531.687Z" fill="#262625"/>
</g>
</g>
<defs>
<clipPath id="clip0_975_15316">
<rect width="1024" height="1024" fill="white"/>
</clipPath>
<clipPath id="clip1_975_15316">
<rect width="1024" height="1024" fill="white" transform="translate(0 -56)"/>
</clipPath>
</defs>
</svg>
