<svg width="1024" height="1024" viewBox="0 0 1024 1024" fill="none" xmlns="http://www.w3.org/2000/svg">
<g clip-path="url(#clip0_484_12548)">
<g clip-path="url(#clip1_484_12548)">
<path d="M806.466 696.18C797.898 696.18 764.022 698.215 764.022 698.215L765.071 725.924C765.738 735.712 773.76 743.512 779.69 743.474L805.013 743.314C818.715 743.228 824.862 735.468 827.583 717.184C836.791 655.306 828.203 602.578 828.203 602.578C814.377 604.089 815.06 696.18 806.466 696.18ZM217.736 696.18H217.734C209.141 696.18 209.825 604.089 195.998 602.578C195.998 602.578 187.41 655.306 196.619 717.184C199.34 735.468 205.487 743.228 219.189 743.314L244.512 743.474C250.442 743.513 258.464 735.712 259.131 725.924L260.18 698.215C260.18 698.215 226.304 696.18 217.736 696.18ZM437.973 253.5C478.901 252.067 545.267 252.064 586.195 253.493C635.748 255.223 656.428 256.454 673.99 259.744C698.513 264.338 737.716 347.735 753.574 403.771C760.228 420.856 780.511 438.499 791.594 460.602C802.678 482.705 791.199 639.54 780.364 646.669C777.144 648.787 769.717 650.594 766.851 650.66C761.133 650.793 770.959 660.841 755.058 661.746C736.479 662.804 684.162 664.539 668.546 661.12C661.963 659.679 660.395 656.595 657.936 656.62C651.86 656.682 626.365 656.917 598.219 657.177C550.658 657.615 473.546 657.618 425.985 657.184C397.839 656.927 372.343 656.693 366.267 656.632C363.808 656.608 362.24 659.692 355.658 661.133C340.042 664.554 287.725 662.823 269.146 661.767C253.245 660.864 263.07 650.814 257.352 650.682C254.485 650.612 247.059 648.81 243.839 646.692C233.003 639.564 221.51 482.73 232.592 460.626C243.674 438.523 263.956 420.877 270.607 403.792C286.46 347.755 325.656 264.354 350.178 259.758C367.74 256.466 388.421 255.234 437.973 253.5ZM437.98 215.268C380.996 217.62 350.216 219.877 332.285 223.238C307.764 227.834 250.834 331.653 234.981 387.689C231.673 397.752 204.871 422.393 193.372 445.737C181.873 469.082 191.943 680.462 202.779 687.59C205.998 689.708 208.03 697.982 210.896 698.049C216.614 698.181 212.348 701.762 228.248 702.665C246.827 703.721 348.986 705.666 364.602 702.245C371.184 700.804 372.752 695.954 375.21 695.979C380.84 696.034 401.914 696.197 425.985 696.376C473.547 696.731 550.66 696.727 598.222 696.368C622.293 696.187 643.366 696.024 648.996 695.966C651.455 695.943 653.023 700.791 659.605 702.232C675.222 705.651 777.38 703.698 795.959 702.64C811.86 701.735 807.593 698.155 813.31 698.022C816.177 697.952 818.208 689.681 821.427 687.563C832.262 680.434 842.314 469.053 830.813 445.71C819.312 422.366 792.508 397.728 789.199 387.665C773.341 331.63 716.402 227.816 691.88 223.222C673.949 219.863 643.168 217.609 586.184 215.262C545.266 213.577 478.898 213.58 437.98 215.268ZM791.873 344.681C783.16 348.43 791.95 365.385 791.95 372.799C788.205 373.182 785.157 372.974 781.002 373.236C782.282 379.12 783.284 382.339 785.926 387.328C806.344 383.598 825.749 381.187 834.23 379.92C838.031 379.351 843.301 373.944 843.2 371.536C843.099 369.128 833.162 352.302 830.005 350.752C825.641 348.609 800.595 340.932 791.878 344.681H791.873ZM232.324 344.681C223.606 340.932 198.56 348.609 194.197 350.752C191.04 352.302 181.105 369.128 181.001 371.536C180.901 373.944 186.171 379.351 189.972 379.92C198.452 381.187 217.858 383.598 238.276 387.328C240.918 382.339 241.919 379.12 243.2 373.236C239.044 372.974 235.997 373.182 232.251 372.799C232.256 365.385 241.042 348.43 232.329 344.681H232.324ZM454.899 591.108C427.243 591.432 399.18 591.872 395.37 592.357C387.59 593.347 366.504 611.42 351.801 632.285C335.617 629.906 282.582 624.409 271.309 615.958C257.623 605.698 263.456 548.762 262.554 533.28C262.477 532.441 327.708 544.407 334.529 543.949C340.619 543.54 345.092 540.318 344.889 539.266C343.32 531.094 256.44 507.55 248.244 521.186C240.047 534.821 248.011 594.564 247.46 609.626C246.909 624.687 237.02 652.582 239.576 654.069C272.432 673.175 325.894 666.59 360.369 662.239C363.107 660.199 361.652 657.58 366.848 657.652C394.28 658.032 431.889 658.803 461.995 659.463C489.678 660.07 534.56 660.07 562.244 659.463C592.348 658.803 629.958 658.032 657.39 657.652C662.586 657.582 661.13 660.199 663.868 662.239C698.344 666.59 751.805 673.175 784.662 654.069C787.218 652.582 777.329 624.687 776.778 609.626C776.227 594.564 784.19 534.821 775.994 521.186C767.797 507.55 680.917 531.094 679.348 539.266C679.146 540.318 683.618 543.54 689.708 543.949C696.529 544.407 761.761 532.441 761.683 533.28C760.781 548.762 766.615 605.698 752.929 615.958C741.655 624.409 688.62 629.906 672.436 632.285C657.733 611.42 636.648 593.347 628.867 592.357C625.057 591.872 596.981 591.431 569.32 591.108C537.729 590.739 486.5 590.739 454.899 591.108ZM392.067 445.649C387.354 445.846 375.019 452.195 375.071 455.916C375.149 461.541 390.826 484.966 396.735 487.503C416.594 496.03 490.56 494.466 498.676 490.827C503.727 488.563 506.588 459.596 503.022 456.895C502.046 456.156 499.033 450.502 486.941 447.811C474.849 445.121 396.78 445.451 392.067 445.649ZM632.135 445.649C636.848 445.846 649.183 452.195 649.13 455.916C649.053 461.541 633.376 484.966 627.467 487.503C607.607 496.03 533.642 494.466 525.525 490.827C520.475 488.563 517.614 459.596 521.18 456.895C522.155 456.156 525.169 450.502 537.26 447.811C549.353 445.121 627.422 445.451 632.135 445.649ZM541.215 452.804C529.124 455.494 528.491 457.698 528.149 458.872C526.995 462.824 527.451 478.004 532.495 480.279C543.534 485.259 602.838 481.567 617.927 478.733C624.248 477.546 636.897 462.156 639.437 456.069C640.869 452.636 628.847 451.693 624.134 451.495C619.421 451.298 553.308 450.113 541.215 452.804ZM482.986 452.804C495.078 455.494 495.711 457.698 496.053 458.872C497.207 462.824 496.751 478.004 491.707 480.279C480.667 485.259 421.364 481.567 406.274 478.733C399.954 477.546 387.304 462.156 384.765 456.069C383.332 452.636 395.355 451.693 400.068 451.495C404.781 451.298 470.894 450.113 482.986 452.804Z" fill="#262625"/>
<path d="M360.305 454.409C360.305 454.409 319.89 448.407 290.277 438.902C271.811 432.974 269.437 420.348 269.437 420.348C269.437 420.348 266.819 433.495 268.101 446.554C269.073 456.452 273.164 468.367 278.623 471.767C288.773 478.088 300.477 481.713 312.53 483.602C322.127 485.106 331.546 486.271 343.394 483.927C352.885 482.05 360.305 454.409 360.305 454.409ZM663.897 454.409C663.897 454.409 704.312 448.407 733.925 438.902C752.391 432.974 754.765 420.348 754.765 420.348C754.765 420.348 757.383 433.495 756.101 446.554C755.129 456.452 751.038 468.367 745.579 471.767C735.429 478.088 723.725 481.713 711.672 483.602C702.075 485.106 692.656 486.271 680.807 483.927C671.317 482.05 663.897 454.409 663.897 454.409ZM689.69 543.949C690.952 546.53 697.479 548.219 701.531 548.544C706.614 548.952 742.836 545.9 761.738 543.483C761.816 540.864 761.971 537.416 761.738 533.098C746.72 529.987 696.343 538.626 689.672 543.949H689.69ZM334.529 543.949C327.859 538.626 277.482 529.987 262.464 533.098C262.231 537.416 262.386 540.864 262.464 543.483C281.365 545.9 317.588 548.952 322.671 548.544C326.723 548.219 333.25 546.53 334.511 543.949H334.529ZM816.987 367.394C817.514 367.119 837.421 366.402 840.977 366.418L842.422 369.302C829.388 370.262 817.492 370.941 817.028 370.83C816.563 370.718 816.462 367.669 816.951 367.394H816.987ZM207.251 367.394C207.74 367.67 207.639 370.718 207.174 370.83C206.708 370.941 194.814 370.262 181.78 369.302L183.225 366.418C186.781 366.403 206.688 367.119 207.215 367.394H207.251Z" fill="#262625"/>
</g>
</g>
<defs>
<clipPath id="clip0_484_12548">
<rect width="1024" height="1024" fill="white"/>
</clipPath>
<clipPath id="clip1_484_12548">
<rect width="1024" height="1024" fill="white" transform="translate(0 -33)"/>
</clipPath>
</defs>
</svg>
