<svg width="1024" height="1024" viewBox="0 0 1024 1024" fill="none" xmlns="http://www.w3.org/2000/svg">
<g clip-path="url(#clip0_329_25183)">
<path d="M806.466 729.18C797.898 729.18 764.022 731.215 764.022 731.215L765.071 758.924C765.738 768.712 773.76 776.512 779.69 776.474L805.013 776.314C818.715 776.228 824.862 768.468 827.583 750.184C836.791 688.306 828.203 635.578 828.203 635.578C814.377 637.089 815.06 729.18 806.466 729.18ZM217.736 729.18H217.734C209.141 729.18 209.825 637.089 195.998 635.578C195.998 635.578 187.41 688.306 196.619 750.184C199.34 768.468 205.487 776.228 219.189 776.314L244.512 776.474C250.442 776.513 258.463 768.712 259.131 758.924L260.18 731.215C260.18 731.215 226.304 729.18 217.736 729.18ZM437.973 286.5C478.901 285.067 545.267 285.064 586.195 286.493C635.748 288.223 656.428 289.454 673.99 292.744C698.513 297.338 737.716 380.735 753.574 436.771C760.228 453.856 780.511 471.499 791.594 493.602C802.678 515.705 791.199 672.54 780.364 679.669C777.144 681.787 769.717 683.594 766.851 683.66C761.133 683.793 770.959 693.841 755.058 694.746C736.479 695.804 684.162 697.539 668.546 694.12C661.963 692.679 660.395 689.595 657.936 689.62C651.86 689.682 626.365 689.917 598.219 690.177C550.658 690.615 473.546 690.618 425.985 690.184C397.839 689.927 372.343 689.693 366.267 689.632C363.808 689.608 362.24 692.692 355.658 694.133C340.042 697.554 287.725 695.823 269.146 694.767C253.245 693.864 263.07 683.814 257.352 683.682C254.485 683.612 247.059 681.81 243.839 679.692C233.003 672.564 221.51 515.73 232.592 493.626C243.674 471.523 263.956 453.877 270.607 436.792C286.46 380.755 325.656 297.354 350.178 292.758C367.74 289.466 388.421 288.234 437.973 286.5ZM437.98 248.268C380.996 250.62 350.216 252.877 332.285 256.238C307.764 260.834 250.834 364.653 234.981 420.689C231.673 430.752 204.871 455.393 193.372 478.737C181.873 502.082 191.943 713.462 202.779 720.59C205.998 722.708 208.03 730.982 210.896 731.049C216.614 731.181 212.348 734.762 228.248 735.665C246.827 736.721 348.986 738.666 364.602 735.245C371.184 733.804 372.752 728.954 375.21 728.979C380.84 729.034 401.914 729.197 425.985 729.376C473.547 729.731 550.66 729.727 598.222 729.368C622.293 729.187 643.366 729.024 648.996 728.966C651.455 728.943 653.023 733.791 659.605 735.232C675.222 738.651 777.38 736.698 795.959 735.64C811.86 734.735 807.593 731.155 813.31 731.022C816.177 730.952 818.208 722.681 821.427 720.563C832.262 713.434 842.314 502.053 830.813 478.71C819.312 455.366 792.508 430.728 789.199 420.665C773.341 364.63 716.402 260.816 691.88 256.222C673.949 252.863 643.168 250.609 586.184 248.262C545.266 246.577 478.898 246.58 437.98 248.268ZM791.873 377.681C783.16 381.43 791.95 398.385 791.95 405.799C788.205 406.182 785.157 405.974 781.002 406.236C782.282 412.12 783.284 415.339 785.926 420.328C806.344 416.598 825.749 414.187 834.23 412.92C838.031 412.351 843.301 406.944 843.2 404.536C843.099 402.128 833.162 385.302 830.005 383.752C825.641 381.609 800.595 373.932 791.878 377.681H791.873ZM232.324 377.681C223.606 373.932 198.56 381.609 194.197 383.752C191.04 385.302 181.105 402.128 181.001 404.536C180.901 406.944 186.171 412.351 189.972 412.92C198.452 414.187 217.858 416.598 238.276 420.328C240.918 415.339 241.919 412.12 243.2 406.236C239.044 405.974 235.997 406.182 232.251 405.799C232.256 398.385 241.042 381.43 232.329 377.681H232.324ZM454.899 624.108C427.243 624.432 399.18 624.872 395.37 625.357C387.59 626.347 366.504 644.42 351.801 665.285C335.617 662.906 282.582 657.409 271.309 648.958C257.623 638.698 263.456 581.762 262.554 566.28C262.477 565.441 327.708 577.407 334.529 576.949C340.619 576.54 345.092 573.318 344.889 572.266C343.32 564.094 256.44 540.55 248.244 554.186C240.047 567.821 248.011 627.564 247.46 642.626C246.909 657.687 237.02 685.582 239.576 687.069C272.432 706.175 325.894 699.59 360.369 695.239C363.107 693.199 361.652 690.58 366.848 690.652C394.28 691.032 431.889 691.803 461.995 692.463C489.678 693.07 534.56 693.07 562.244 692.463C592.348 691.803 629.958 691.032 657.39 690.652C662.586 690.582 661.13 693.199 663.868 695.239C698.344 699.59 751.805 706.175 784.662 687.069C787.218 685.582 777.329 657.687 776.778 642.626C776.227 627.564 784.19 567.821 775.994 554.186C767.797 540.55 680.917 564.094 679.348 572.266C679.146 573.318 683.618 576.54 689.708 576.949C696.529 577.407 761.761 565.441 761.683 566.28C760.781 581.762 766.615 638.698 752.929 648.958C741.655 657.409 688.62 662.906 672.436 665.285C657.733 644.42 636.648 626.347 628.867 625.357C625.057 624.872 596.981 624.431 569.32 624.108C537.729 623.739 486.5 623.739 454.899 624.108ZM392.067 478.649C387.354 478.846 375.019 485.195 375.071 488.916C375.149 494.541 390.826 517.966 396.735 520.503C416.594 529.03 490.56 527.466 498.676 523.827C503.727 521.563 506.588 492.596 503.022 489.895C502.046 489.156 499.033 483.502 486.941 480.811C474.849 478.121 396.78 478.451 392.067 478.649ZM632.135 478.649C636.848 478.846 649.183 485.195 649.13 488.916C649.053 494.541 633.376 517.966 627.467 520.503C607.607 529.03 533.642 527.466 525.525 523.827C520.475 521.563 517.614 492.596 521.18 489.895C522.155 489.156 525.169 483.502 537.26 480.811C549.353 478.121 627.422 478.451 632.135 478.649ZM541.215 485.804C529.124 488.494 528.491 490.698 528.149 491.872C526.995 495.824 527.451 511.004 532.495 513.279C543.534 518.259 602.838 514.567 617.927 511.733C624.248 510.546 636.897 495.156 639.437 489.069C640.869 485.636 628.847 484.693 624.134 484.495C619.421 484.298 553.308 483.113 541.215 485.804ZM482.986 485.804C495.078 488.494 495.711 490.698 496.053 491.872C497.207 495.824 496.751 511.004 491.707 513.279C480.667 518.259 421.364 514.567 406.274 511.733C399.954 510.546 387.304 495.156 384.765 489.069C383.332 485.636 395.355 484.693 400.068 484.495C404.781 484.298 470.894 483.113 482.986 485.804Z" fill="#262625"/>
<path d="M360.305 487.409C360.305 487.409 319.89 481.407 290.277 471.902C271.811 465.974 269.437 453.348 269.437 453.348C269.437 453.348 266.819 466.495 268.101 479.554C269.073 489.452 273.164 501.367 278.623 504.767C288.773 511.088 300.477 514.713 312.53 516.602C322.127 518.106 331.546 519.271 343.394 516.927C352.885 515.05 360.305 487.409 360.305 487.409ZM663.897 487.409C663.897 487.409 704.312 481.407 733.925 471.902C752.391 465.974 754.765 453.348 754.765 453.348C754.765 453.348 757.383 466.495 756.101 479.554C755.129 489.452 751.038 501.367 745.579 504.767C735.429 511.088 723.725 514.713 711.672 516.602C702.075 518.106 692.656 519.271 680.807 516.927C671.317 515.05 663.897 487.409 663.897 487.409ZM689.69 576.949C690.952 579.53 697.479 581.219 701.531 581.544C706.614 581.952 742.836 578.9 761.738 576.483C761.816 573.864 761.971 570.416 761.738 566.098C746.72 562.987 696.343 571.626 689.672 576.949H689.69ZM334.529 576.949C327.859 571.626 277.482 562.987 262.464 566.098C262.231 570.416 262.386 573.864 262.464 576.483C281.365 578.9 317.588 581.952 322.671 581.544C326.723 581.219 333.25 579.53 334.511 576.949H334.529ZM816.987 400.394C817.514 400.119 837.421 399.402 840.977 399.418L842.422 402.302C829.388 403.262 817.492 403.941 817.028 403.83C816.563 403.718 816.462 400.669 816.951 400.394H816.987ZM207.251 400.394C207.74 400.67 207.639 403.718 207.174 403.83C206.708 403.941 194.814 403.262 181.78 402.302L183.225 399.418C186.781 399.403 206.688 400.119 207.215 400.394H207.251Z" fill="#262625"/>
</g>
<defs>
<clipPath id="clip0_329_25183">
<rect width="1024" height="1024" fill="white"/>
</clipPath>
</defs>
</svg>
