<svg width="36" height="36" viewBox="0 0 36 36" fill="none" xmlns="http://www.w3.org/2000/svg">
<g clip-path="url(#clip0_822_1969)">
<path d="M29.8578 26.3615C28.8488 26.4052 28.1072 26.4281 28.1072 26.4281L28.1486 28.3936C28.1749 28.78 28.4964 29.0891 28.7304 29.0864L30.3786 29.0674C30.9194 29.0612 31.0119 28.7733 31.0607 28.0451C31.1462 26.767 31.0149 23.7411 31.0149 23.7411C30.6771 23.778 30.4668 26.3352 29.8578 26.3615ZM5.54866 26.3615C4.93968 26.3352 4.72932 23.778 4.39147 23.7411C4.39147 23.7411 4.26022 26.767 4.34578 28.0451C4.39453 28.7733 4.48705 29.0612 5.0279 29.0674L6.67603 29.0864C6.91008 29.0891 7.23154 28.78 7.25788 28.3936L7.29928 26.4281C7.29928 26.4281 6.55764 26.4052 5.54866 26.3615ZM13.982 9.7845C16.0359 9.71489 19.3691 9.71474 21.4231 9.78419C23.52 9.85506 24.7023 9.96827 24.8899 10.1139C25.169 10.3306 27.264 13.3306 27.7117 15.1984C27.9153 15.3018 29.6049 16.5156 29.6124 17.2188C29.6197 17.9219 29.639 22.4535 29.5873 23.8469C29.5356 25.2404 28.541 25.0055 26.2769 25.0053C25.1244 25.0053 22.9237 25.008 21.0407 25.0107C19.1975 25.0134 16.2091 25.0134 14.3659 25.0109C12.4828 25.0085 10.2821 25.0059 9.12963 25.006C6.86551 25.0064 5.87097 25.2413 5.81912 23.8479C5.76736 22.4544 5.78605 17.9229 5.79339 17.2198C5.80075 16.5166 7.4903 15.3026 7.69386 15.1992C8.14153 13.3314 10.2361 10.3313 10.5152 10.1145C10.7028 9.96886 11.8851 9.85555 13.982 9.7845ZM13.445 8.22742C11.2736 8.34598 9.83612 8.52097 9.65732 8.65982C9.37818 8.87662 6.86414 12.4586 6.41648 14.3264C6.21292 14.4299 4.35502 15.705 4.34761 16.4082C4.34026 17.1113 4.31166 23.8856 4.36353 25.279C4.41538 26.6724 6.86557 26.6208 9.12969 26.6205C10.2401 26.6202 12.3309 26.6226 14.1734 26.625C16.1229 26.6276 19.2836 26.6276 21.2331 26.6248C23.0756 26.6223 25.1664 26.6196 26.2769 26.6198C28.541 26.6199 30.9912 26.6714 31.0429 25.2779C31.0946 23.8845 31.0656 17.1102 31.0579 16.407C31.0506 15.7038 29.1925 14.4289 28.9889 14.3255C28.5411 12.4577 26.0268 8.87591 25.7475 8.65913C25.5687 8.5203 24.1313 8.34543 21.9597 8.22706C19.6109 8.09866 15.7939 8.09888 13.445 8.22742ZM28.6245 13.6179L28.6904 14.0325C29.0833 14.0265 29.6256 13.9664 29.9965 14.1037C30.5863 14.3219 31.8009 14.1486 31.9291 13.7534C32.0155 13.4872 31.793 12.9033 31.3483 12.6651C30.9037 12.4268 29.7395 12.4172 29.6243 12.5473C29.5458 12.6358 29.5458 13.5654 29.5458 13.5654L28.6245 13.6179ZM6.78188 13.6179L5.86069 13.5654C5.86069 13.5654 5.86069 12.6358 5.7822 12.5473C5.66692 12.4172 4.50272 12.4268 4.05809 12.6651C3.61346 12.9033 3.39098 13.4872 3.47734 13.7534C3.60553 14.1486 4.82017 14.3219 5.40996 14.1037C5.78082 13.9664 6.32313 14.0265 6.71598 14.0325L6.78188 13.6179ZM15.5327 22.4236H10.8503L8.76747 23.6669L5.69469 23.6873C5.69469 23.6873 5.80608 24.5259 6.10212 24.8424C6.39916 25.159 8.82 25.1268 9.12957 25.1298C9.56906 25.1343 14.1188 25.1255 16.4203 25.1207C17.1293 25.1192 18.2786 25.1192 18.9875 25.1207C21.2891 25.1255 25.8387 25.1343 26.2783 25.1298C26.5879 25.1268 29.0087 25.159 29.3058 24.8424C29.6018 24.5259 29.7132 23.6873 29.7132 23.6873L26.6403 23.6669L24.5576 22.4236H19.8752H15.5327ZM16.1025 18.9305C13.3734 18.8437 8.0114 18.6577 6.93889 18.5045V18.7365C10.4816 19.3503 12.3563 19.525 17.5325 19.9156C17.6271 19.9228 17.7807 19.9228 17.8754 19.9156C23.0515 19.525 24.9263 19.3503 28.469 18.7365V18.5045C27.3965 18.6577 22.0343 18.8437 19.3052 18.9305C18.4209 18.9586 16.9869 18.9586 16.1025 18.9305Z" fill="#252524"/>
<path d="M9.23625 17.5234H8.99126V18.1359H7.18445V17.5234H6.93945V18.3809H9.23625V17.5234ZM26.1713 17.5234H26.4163V18.1359H28.2231V17.5234H28.4681V18.3809H26.1713V17.5234ZM11.7776 17.6467H11.5326V18.2592H9.72578V17.6467H9.48079V18.5042H11.7776V17.6467ZM23.63 17.6467H23.875V18.2592H25.6817V17.6467H25.9268V18.5042H23.63V17.6467Z" fill="#252524"/>
</g>
<defs>
<clipPath id="clip0_822_1969">
<rect width="28.4885" height="21.8758" fill="white" transform="translate(3.45703 7.21094)"/>
</clipPath>
</defs>
</svg>
