<svg width="36" height="36" viewBox="0 0 36 36" fill="none" xmlns="http://www.w3.org/2000/svg">
<g clip-path="url(#clip0_153_5824)">
<path d="M29.7786 27.2372C29.4404 27.2372 27.315 27.4286 27.315 27.4286L27.3224 28.0696C27.3487 28.2679 27.7386 28.756 27.9726 28.756H29.6958C30.2366 28.756 30.6234 28.4526 30.6721 27.7244C30.7577 26.4463 30.6595 26.4722 30.6595 26.4722C30.1137 26.5319 30.1179 27.2372 29.7788 27.2372H29.7786ZM5.6574 27.2372H5.65724C5.31802 27.2372 5.32225 26.5319 4.77647 26.4722C4.77647 26.4722 4.67835 26.4463 4.76391 27.7244C4.81266 28.4526 5.19935 28.756 5.7403 28.756H7.46339C7.69745 28.756 8.08732 28.2679 8.11366 28.0696L8.121 27.4286C8.121 27.4286 5.99561 27.2372 5.6574 27.2372ZM14.7911 11.1253C16.4062 11.0579 19.0285 11.0578 20.6436 11.125C22.4439 11.1999 22.8793 11.3372 23.6018 11.5608C24.6137 11.874 26.0347 14.382 26.8145 16.1326C27.9621 17.4729 29.0732 17.8577 29.2663 19.5863C29.4468 21.2022 29.5013 25.5448 29.3299 25.8902C29.1587 26.2358 26.0913 26.4437 25.5005 26.4497C25.193 26.4528 23.0765 26.4703 21.1175 26.4865C19.2401 26.502 16.1961 26.5021 14.3187 26.4868C12.3597 26.4708 10.2431 26.4534 9.93559 26.4504C9.34482 26.4444 6.27747 26.2368 6.10612 25.8913C5.93481 25.5458 5.98889 21.2032 6.1692 19.5874C6.3621 17.8587 7.47321 17.4738 8.62081 16.1334C9.40037 14.3827 10.8211 11.8746 11.833 11.5613C12.5555 11.3377 12.9909 11.2004 14.7911 11.1253ZM14.7913 9.60364C12.5769 9.70331 11.6131 9.892 10.8692 10.1223C9.85729 10.4355 8.14324 13.5935 7.36368 15.3442C6.23253 16.1191 4.87167 17.3304 4.67877 19.0591C4.49846 20.6749 4.51773 26.879 4.68907 27.2245C4.86042 27.57 9.34486 27.9805 9.93562 27.9864C10.2432 27.9895 12.3598 28.0069 14.3187 28.0229C16.1962 28.0382 19.2401 28.0381 21.1175 28.0226C23.0765 28.0064 25.1931 27.9889 25.5006 27.9858C26.0913 27.9798 30.5757 27.5689 30.7471 27.2234C30.9185 26.8778 30.9372 20.6737 30.7568 19.0579C30.5637 17.3293 29.2028 16.1181 28.0716 15.3433C27.2918 13.5927 25.5775 10.4348 24.5657 10.1217C23.8217 9.89147 22.8578 9.70286 20.6435 9.60337C19.0286 9.53104 16.4061 9.53114 14.7913 9.60364ZM28.4471 13.8172C28.2403 13.8427 28.2776 14.5841 28.263 14.8994C28.1151 14.9145 27.8102 14.9063 27.6462 14.9166C27.6968 15.1489 27.8329 15.215 27.9372 15.4119C28.7233 15.3372 29.7093 15.2999 30.0447 15.2547C30.1799 15.2364 30.3746 14.8552 30.2287 14.54C29.8392 13.6983 28.6538 13.7917 28.4471 13.8172ZM6.98893 13.8172C6.7822 13.7917 5.5968 13.6983 5.20729 14.54C5.06143 14.8552 5.25611 15.2364 5.39128 15.2547C5.72671 15.2999 6.71274 15.3372 7.49883 15.4119C7.60313 15.215 7.73926 15.1489 7.78978 14.9166C7.62576 14.9063 7.32093 14.9145 7.17307 14.8994C7.15837 14.5841 7.19574 13.8427 6.98893 13.8172ZM15.4608 24.0751C13.9614 24.033 12.1652 23.9806 11.5818 23.9556C10.5203 23.9102 8.52995 23.7605 8.52995 23.7605C8.52995 23.7605 8.14543 22.6651 7.99918 22.571C7.85291 22.477 7.33423 22.505 7.20739 22.5716C7.08058 22.6382 6.45912 22.8031 6.40746 24.2675C6.39858 24.5176 6.8878 25.2113 7.09699 25.3854C7.37739 25.6189 9.87756 25.8713 9.87756 25.8713L9.82691 25.6322L8.17945 25.4497L8.68329 24.7328C8.68329 24.7328 10.9598 24.907 11.8933 24.9547C12.8269 25.0024 16.2657 25.0682 16.2657 25.0682L16.2706 25.4315L17.2854 25.4567C17.5742 25.4639 17.8632 25.4639 18.152 25.4567L19.1669 25.4315L19.1718 25.0682C19.1718 25.0682 22.6106 25.0024 23.5441 24.9547C24.4776 24.907 26.7541 24.7328 26.7541 24.7328L27.258 25.4497L25.6105 25.6322L25.5599 25.8713C25.5599 25.8713 28.0601 25.6189 28.3404 25.3854C28.5497 25.2113 29.0389 24.5176 29.03 24.2675C28.9783 22.8031 28.3568 22.6382 28.23 22.5716C28.1031 22.505 27.5845 22.477 27.4382 22.571C27.2919 22.6651 26.9075 23.7605 26.9075 23.7605C26.9075 23.7605 24.9171 23.9102 23.8556 23.9556C23.2722 23.9806 21.476 24.033 19.9766 24.0751C18.7296 24.1102 16.7078 24.1102 15.4608 24.0751ZM15.7169 21.9199C12.5496 21.8794 7.75213 21.7493 6.02123 21.0868C6.01786 21.3425 6.02123 21.3787 6.0148 21.6418C7.59582 22.2442 12.0103 22.4573 15.7957 22.4821C16.8577 22.489 18.5797 22.489 19.6418 22.4821C23.4272 22.4573 27.8417 22.2442 29.4227 21.6418C29.4162 21.3787 29.4195 21.3425 29.4162 21.0868C27.6852 21.7494 22.8876 21.8794 19.7202 21.9199C18.6149 21.9341 16.8224 21.9341 15.7169 21.9199Z" fill="#252524"/>
<path d="M11.745 20.4919C11.7328 20.3409 10.542 19.4874 10.1342 19.3165C9.47847 19.0416 7.08083 18.437 7.00644 18.5664C6.93205 18.6957 6.87647 20.2075 7.21759 20.5446C7.55871 20.8818 10.1384 21.0379 10.4749 20.9977C10.8113 20.9575 11.7572 20.6431 11.745 20.4919ZM23.691 20.4919C23.7032 20.3409 24.894 19.4874 25.3017 19.3165C25.9575 19.0416 28.3551 18.437 28.4295 18.5664C28.5039 18.6957 28.5595 20.2075 28.2183 20.5446C27.8773 20.8818 25.2975 21.0379 24.961 20.9977C24.6247 20.9575 23.6788 20.6431 23.691 20.4919Z" fill="#252524"/>
</g>
<defs>
<clipPath id="clip0_153_5824">
<rect width="26.3323" height="21.8048" fill="white" transform="translate(4.55182 6.95105)"/>
</clipPath>
</defs>
</svg>
