<svg width="1024" height="1024" viewBox="0 0 1024 1024" fill="none" xmlns="http://www.w3.org/2000/svg">
<g clip-path="url(#clip0_315_17012)">
<path d="M806.833 707.349C800.404 709.224 751.88 709.385 751.88 709.385L752.562 737.094C753.23 746.881 762.507 754.669 768.436 754.644L805.377 754.484C819.079 754.422 826.712 746.798 827.947 728.353C830.114 695.973 828.645 679.604 828.645 679.604C813.825 681.224 814.207 705.199 806.833 707.349ZM216.369 707.349C208.995 705.199 209.377 681.224 194.557 679.604C194.557 679.604 193.088 695.973 195.255 728.353C196.49 746.798 204.123 754.422 217.825 754.484L254.766 754.644C260.696 754.667 269.973 746.881 270.64 737.094L271.323 709.385C271.323 709.385 222.798 709.224 216.369 707.349ZM511.586 308.876C623.657 309.899 655.778 315.901 673.111 320.721C690.444 325.542 727.135 398.717 746.887 443.065C764.547 472.869 791.314 488.793 796.205 532.586C800.776 573.52 794.248 668.413 790.6 672.669C786.952 676.926 723.723 678.947 708.757 679.098C700.967 679.177 647.349 679.097 597.722 679.001C550.16 678.91 473.045 678.913 425.482 679.009C375.855 679.109 322.237 679.194 314.447 679.116C299.481 678.965 236.251 676.95 232.604 672.694C228.955 668.438 222.419 573.545 226.987 532.611C231.873 488.818 258.639 472.892 276.296 443.086C296.045 398.736 332.729 325.558 350.062 320.736C367.394 315.914 399.515 309.909 511.586 308.876ZM511.584 270.004C399.514 271.037 350.875 275.858 329.578 283.564C308.281 291.27 260.29 382.525 240.541 426.875C222.884 456.681 195.017 473.328 190.13 517.12C185.562 558.055 192.583 706.186 196.232 710.442C199.88 714.699 299.481 717.943 314.447 718.094C322.237 718.172 375.856 718.131 425.484 718.073C473.046 718.015 550.161 718.015 597.724 718.065C647.351 718.115 700.971 718.153 708.761 718.072C723.727 717.92 823.327 714.667 826.975 710.411C830.623 706.154 837.631 558.022 833.06 517.088C828.17 473.295 800.3 456.651 782.64 426.847C762.887 382.499 714.889 291.248 693.592 283.544C672.294 275.84 623.654 271.023 511.584 270V270.004ZM790.325 387.668V387.669C783.512 389.763 786.798 406.028 786.803 414.014C783.058 414.397 776.708 414.514 772.552 414.776C773.832 420.66 775.53 425.132 778.172 430.121C798.59 427.693 829.082 422.633 837.145 419.716C842.229 417.876 848.757 408.286 846.869 402.855C843.138 392.121 797.139 385.574 790.325 387.668ZM232.877 387.668C226.063 385.574 180.064 392.121 176.333 402.855C174.445 408.286 180.973 417.876 186.058 419.716C194.121 422.633 224.612 427.693 245.03 430.121C247.672 425.132 249.37 420.66 250.65 414.776C246.495 414.514 240.145 414.397 236.399 414.014C236.405 406.028 239.69 389.763 232.877 387.669V387.668ZM454.396 652.879C427.809 652.91 399.395 652.925 387.113 652.832C361.087 652.649 338.781 663.035 336.189 667.027C333.598 671.019 335.124 675.217 333.607 681.04C342.773 681.04 410.603 680.756 461.482 680.646C489.172 680.584 534.066 680.584 561.757 680.646C612.636 680.756 680.465 681.04 689.631 681.04C688.114 675.217 689.631 671.019 687.049 667.027C684.457 663.035 662.151 652.649 636.125 652.832C623.843 652.92 595.428 652.911 568.841 652.879C537.239 652.84 485.999 652.84 454.396 652.879ZM460.906 529.695C426.226 530.014 391.878 530.705 386.2 532.331C371.75 536.469 351.827 549.638 351.013 556.889C350.199 564.139 396.342 615.326 411.236 620.06C418.237 622.286 440.875 623.219 462.902 623.582C489.804 624.026 533.435 624.026 560.337 623.582C582.364 623.218 605.001 622.286 612.002 620.06C626.896 615.326 673.039 564.139 672.225 556.889C671.411 549.638 651.488 536.469 637.038 532.331C631.36 530.705 597.011 530.014 562.331 529.695C534.325 529.439 488.913 529.439 460.906 529.695ZM294.527 577.334C290.815 569.901 250.941 557.546 238.981 553.247C236.673 584.543 235.053 615.671 236.347 638.27C247.68 638.27 257.567 638.048 267.012 638.048C281.547 623.611 298.239 584.767 294.527 577.334ZM728.675 577.334C732.388 569.901 772.261 557.546 784.221 553.247C786.53 584.543 788.15 615.671 786.856 638.27C775.522 638.27 765.636 638.048 756.19 638.048C741.655 623.611 724.963 584.767 728.675 577.334Z" fill="#262625"/>
<path d="M362.201 524.598C362.201 524.598 328.6 514.53 300.034 502.233C283.489 495.111 259.013 483.979 259.013 483.979C259.013 483.979 250.053 488.761 244.041 501.496C239.796 510.49 242.529 521.018 242.529 529.233C247.511 530.391 326.842 546.583 332.802 542.87C338.763 539.157 362.201 524.598 362.201 524.598ZM661.001 524.598C661.001 524.598 694.603 514.53 723.169 502.233C739.714 495.111 764.189 483.979 764.189 483.979C764.189 483.979 773.149 488.761 779.161 501.496C783.406 510.49 780.674 521.018 780.674 529.233C775.692 530.391 696.361 546.583 690.4 542.87C684.44 539.157 661.001 524.598 661.001 524.598Z" fill="#262625"/>
</g>
<defs>
<clipPath id="clip0_315_17012">
<rect width="1024" height="1024" fill="white"/>
</clipPath>
</defs>
</svg>
