<svg width="1024" height="1024" viewBox="0 0 1024 1024" fill="none" xmlns="http://www.w3.org/2000/svg">
<g clip-path="url(#clip0_315_16994)">
<path d="M819.77 708.845C794.209 709.952 775.421 710.531 775.421 710.531L776.469 760.324C777.137 770.111 785.28 777.942 791.21 777.874L832.962 777.392C846.664 777.234 849.008 769.941 850.243 751.496C852.41 719.117 849.085 642.459 849.085 642.459C840.526 643.395 835.197 708.177 819.77 708.845ZM203.938 708.845C188.511 708.177 183.182 643.395 174.623 642.459C174.623 642.459 171.298 719.117 173.465 751.496C174.701 769.941 177.044 777.234 190.746 777.392L232.498 777.874C238.428 777.944 246.572 770.111 247.239 760.324L248.288 710.531C248.288 710.531 229.499 709.951 203.938 708.845ZM417.582 288.892C469.618 287.129 554.056 287.125 606.091 288.884C659.211 290.68 689.167 293.548 693.917 297.236C700.989 302.728 754.059 378.727 765.404 426.044C770.56 428.663 813.364 459.414 813.553 477.227C813.74 495.041 814.228 609.84 812.917 645.141C811.607 680.441 786.412 674.491 729.054 674.487C699.857 674.486 644.108 674.557 596.402 674.622C549.708 674.692 474.003 674.692 427.31 674.63C379.604 674.568 323.853 674.502 294.657 674.506C237.299 674.513 212.104 680.466 210.79 645.166C209.479 609.866 209.952 495.067 210.138 477.253C210.325 459.439 253.127 428.685 258.284 426.065C269.624 378.747 322.687 302.744 329.759 297.251C334.509 293.562 364.464 290.692 417.583 288.892L417.582 288.892ZM403.98 249.446C348.971 252.45 312.554 256.883 308.024 260.4C300.953 265.893 237.264 356.637 225.923 403.955C220.767 406.575 173.7 438.878 173.512 456.692C173.326 474.506 172.601 646.121 173.915 681.421C175.229 716.721 237.3 715.412 294.658 715.403C322.789 715.4 375.756 715.458 422.431 715.521C471.819 715.583 551.892 715.583 601.28 715.513C647.955 715.451 700.922 715.383 729.053 715.385C786.411 715.389 848.482 716.692 849.792 681.392C851.104 646.092 850.367 474.476 850.174 456.663C849.988 438.849 802.915 406.55 797.758 403.93C786.413 356.613 722.716 265.874 715.645 260.383C711.115 256.866 674.696 252.436 619.686 249.437C560.182 246.184 463.483 246.188 403.978 249.445L403.98 249.446ZM788.528 386.006L790.198 396.509C800.15 396.356 813.888 394.835 823.283 398.311C838.225 403.84 868.996 399.45 872.243 389.438C874.431 382.694 868.795 367.903 857.531 361.867C846.267 355.831 816.774 355.588 813.853 358.883C811.865 361.126 811.865 384.674 811.865 384.674L788.528 386.006ZM235.18 386.006L211.843 384.674C211.843 384.674 211.843 361.126 209.855 358.883C206.934 355.588 177.441 355.831 166.177 361.867C154.913 367.903 149.277 382.694 151.465 389.438C154.713 399.45 185.483 403.84 200.425 398.311C209.82 394.835 223.558 396.356 233.511 396.509L235.18 386.006ZM456.867 609.084H338.246L285.482 640.58L207.638 641.096C207.638 641.096 210.46 662.342 217.959 670.361C225.485 678.379 286.812 677.564 294.655 677.643C305.789 677.755 421.049 677.531 479.355 677.409C497.314 677.371 526.431 677.371 544.389 677.409C602.696 677.531 717.955 677.755 729.089 677.643C736.931 677.565 798.259 678.379 805.784 670.361C813.284 662.342 816.106 641.096 816.106 641.096L738.262 640.58L685.498 609.084H566.877H456.867ZM471.303 520.591C402.164 518.393 266.328 513.68 239.158 509.8V515.676C328.906 531.225 376.4 535.653 507.527 545.548C509.927 545.728 513.817 545.728 516.216 545.548C647.344 535.653 694.838 531.225 784.586 515.676V509.8C757.415 513.68 621.575 518.393 552.438 520.591C530.035 521.303 493.707 521.303 471.303 520.591Z" fill="#262625"/>
<path d="M297.343 484.954H291.137V500.47H245.364V484.954H239.158V506.676H297.343V484.954ZM726.365 484.954H732.571V500.47H778.344V484.954H784.551V506.676H726.365V484.954ZM361.724 488.077H355.517V503.593H309.744V488.077H303.538V509.799H361.724V488.077ZM661.985 488.077H668.191V503.593H713.964V488.077H720.17V509.799H661.985V488.077Z" fill="#262625"/>
</g>
<defs>
<clipPath id="clip0_315_16994">
<rect width="1024" height="1024" fill="white"/>
</clipPath>
</defs>
</svg>
