<svg width="1024" height="1024" viewBox="0 0 1024 1024" fill="none" xmlns="http://www.w3.org/2000/svg">
<g clip-path="url(#clip0_485_12557)">
<g clip-path="url(#clip1_485_12557)">
<path d="M817.079 704.096C808.511 704.096 754.668 708.945 754.668 708.945L754.854 725.181C755.521 730.206 765.398 742.57 771.327 742.57L814.979 742.571C828.683 742.572 838.479 734.885 839.714 716.44C841.882 684.061 839.396 684.716 839.396 684.716C825.569 686.227 825.676 704.096 817.083 704.096H817.079ZM206.008 704.096H206.004C197.41 704.096 197.517 686.227 183.691 684.716C183.691 684.716 181.205 684.06 183.373 716.44C184.608 734.885 194.404 742.572 208.108 742.571L251.76 742.57C257.689 742.57 267.566 730.206 268.233 725.181L268.419 708.945C268.419 708.945 214.576 704.096 206.008 704.096ZM437.396 295.928C478.311 294.221 544.743 294.219 585.657 295.921C631.266 297.819 642.296 301.296 660.6 306.961C686.234 314.894 722.233 378.431 741.986 422.78C771.061 456.734 799.209 466.482 804.1 510.274C808.672 551.208 810.051 661.221 805.712 669.974C801.372 678.728 723.666 683.993 708.7 684.145C700.91 684.224 647.29 684.67 597.663 685.079C550.101 685.471 472.988 685.475 425.427 685.086C375.8 684.681 322.18 684.241 314.389 684.162C299.423 684.012 221.716 678.753 217.376 670C213.036 661.247 214.406 551.234 218.974 510.3C223.861 466.507 252.008 456.757 281.081 422.8C300.83 378.45 336.822 314.909 362.456 306.974C380.759 301.308 391.789 297.83 437.396 295.928ZM437.4 257.379C381.302 259.904 356.887 264.684 338.04 270.519C312.405 278.454 268.983 358.457 249.234 402.807C220.578 422.437 186.103 453.124 181.216 496.917C176.648 537.851 177.136 695.022 181.477 703.775C185.818 712.528 299.424 722.927 314.39 723.077C322.18 723.156 375.801 723.596 425.429 724.001C472.99 724.389 550.103 724.386 597.664 723.994C647.292 723.585 700.912 723.139 708.703 723.06C723.669 722.908 837.274 712.5 841.614 703.746C845.954 694.993 846.428 537.822 841.86 496.888C836.969 453.096 802.491 422.411 773.833 402.784C754.081 358.436 710.651 278.437 685.016 270.504C666.168 264.671 641.752 259.893 585.654 257.373C544.745 255.54 478.312 255.543 437.402 257.379H437.4ZM783.347 364.122C778.108 364.768 779.054 383.551 778.682 391.538C774.936 391.92 767.214 391.712 763.058 391.975C764.339 397.859 767.787 399.532 770.429 404.521C790.344 402.629 815.323 401.684 823.821 400.538C827.245 400.077 832.177 390.418 828.482 382.434C818.614 361.111 788.584 363.477 783.347 364.122ZM239.74 364.122C234.503 363.477 204.473 361.111 194.605 382.434C190.91 390.418 195.842 400.077 199.266 400.538C207.764 401.684 232.743 402.629 252.658 404.521C255.3 399.532 258.748 397.859 260.029 391.975C255.873 391.712 248.151 391.92 244.405 391.538C244.033 383.551 244.979 364.768 239.74 364.122ZM454.36 623.991C416.375 622.924 370.873 621.596 356.092 620.963C329.201 619.812 278.779 616.019 278.779 616.019C278.779 616.019 269.038 588.269 265.333 585.887C261.628 583.504 248.488 584.214 245.274 585.902C242.062 587.59 226.318 591.765 225.01 628.864C224.785 635.198 237.178 652.773 242.478 657.185C249.581 663.1 312.919 669.492 312.919 669.492L311.636 663.437L269.9 658.812L282.664 640.651C282.664 640.651 340.336 645.063 363.985 646.272C387.635 647.481 474.752 649.149 474.752 649.149L474.876 658.352L500.584 658.99C507.901 659.171 515.222 659.171 522.539 658.99L548.247 658.352L548.371 649.149C548.371 649.149 635.488 647.481 659.138 646.272C682.787 645.063 740.459 640.651 740.459 640.651L753.222 658.812L711.487 663.437L710.204 669.492C710.204 669.492 773.542 663.1 780.645 657.185C785.944 652.773 798.338 635.198 798.113 628.864C796.804 591.765 781.061 587.59 777.848 585.902C774.635 584.214 761.495 583.504 757.79 585.887C754.084 588.269 744.343 616.019 744.343 616.019C744.343 616.019 693.921 619.812 667.03 620.963C652.249 621.595 606.747 622.924 568.762 623.991C537.171 624.879 485.951 624.879 454.36 623.991ZM460.85 569.392C380.61 568.363 259.075 565.07 215.225 548.285C215.14 554.764 215.225 555.682 215.062 562.344C255.115 577.607 366.948 583.006 462.845 583.632C489.749 583.809 533.374 583.809 560.28 583.632C656.177 583.006 768.009 577.607 808.06 562.344C807.897 555.682 807.983 554.764 807.897 548.285C764.046 565.071 642.505 568.363 562.266 569.392C534.263 569.752 488.857 569.752 460.85 569.392Z" fill="#262625"/>
<path d="M360.229 533.217C359.919 529.389 329.751 507.769 319.421 503.438C302.809 496.473 242.069 481.157 240.185 484.434C238.3 487.711 236.892 526.011 245.534 534.552C254.176 543.092 319.529 547.047 328.052 546.029C336.575 545.01 360.536 537.045 360.229 533.217ZM662.858 533.217C663.168 529.389 693.335 507.769 703.666 503.438C720.278 496.473 781.018 481.157 782.902 484.434C784.787 487.711 786.195 526.011 777.553 534.552C768.912 543.092 703.558 547.047 695.035 546.029C686.511 545.01 662.551 537.045 662.858 533.217Z" fill="#262625"/>
</g>
</g>
<defs>
<clipPath id="clip0_485_12557">
<rect width="1024" height="1024" fill="white"/>
</clipPath>
<clipPath id="clip1_485_12557">
<rect width="1024" height="1024" fill="white" transform="translate(0 -13)"/>
</clipPath>
</defs>
</svg>
