<svg width="1024" height="1024" viewBox="0 0 1024 1024" fill="none" xmlns="http://www.w3.org/2000/svg">
<g clip-path="url(#clip0_485_12558)">
<g clip-path="url(#clip1_485_12558)">
<path d="M806.833 696.349C800.404 698.224 751.88 698.385 751.88 698.385L752.562 726.094C753.23 735.881 762.507 743.669 768.436 743.644L805.377 743.484C819.079 743.422 826.712 735.798 827.947 717.353C830.114 684.973 828.645 668.604 828.645 668.604C813.825 670.224 814.207 694.199 806.833 696.349ZM216.369 696.349C208.995 694.199 209.377 670.224 194.557 668.604C194.557 668.604 193.088 684.973 195.255 717.353C196.49 735.798 204.123 743.422 217.825 743.484L254.766 743.644C260.696 743.667 269.973 735.881 270.64 726.094L271.323 698.385C271.323 698.385 222.798 698.224 216.369 696.349ZM511.586 297.876C623.657 298.899 655.778 304.901 673.111 309.721C690.444 314.542 727.135 387.717 746.887 432.065C764.547 461.869 791.314 477.793 796.205 521.586C800.776 562.52 794.248 657.413 790.6 661.669C786.952 665.926 723.723 667.947 708.757 668.098C700.967 668.177 647.349 668.097 597.722 668.001C550.16 667.91 473.045 667.913 425.482 668.009C375.855 668.109 322.237 668.194 314.447 668.116C299.481 667.965 236.251 665.95 232.604 661.694C228.955 657.438 222.419 562.545 226.987 521.611C231.873 477.818 258.639 461.892 276.296 432.086C296.045 387.736 332.729 314.558 350.062 309.736C367.394 304.914 399.515 298.909 511.586 297.876ZM511.584 259.004C399.514 260.037 350.875 264.858 329.578 272.564C308.281 280.27 260.29 371.525 240.541 415.875C222.884 445.681 195.017 462.328 190.13 506.12C185.562 547.055 192.583 695.186 196.232 699.442C199.88 703.699 299.481 706.943 314.447 707.094C322.237 707.172 375.856 707.131 425.484 707.073C473.046 707.015 550.161 707.015 597.724 707.065C647.351 707.115 700.971 707.153 708.761 707.072C723.727 706.92 823.327 703.667 826.975 699.411C830.623 695.154 837.631 547.022 833.06 506.088C828.17 462.295 800.3 445.651 782.64 415.847C762.887 371.499 714.889 280.248 693.592 272.544C672.294 264.84 623.654 260.023 511.584 259V259.004ZM790.325 376.668V376.669C783.512 378.763 786.798 395.028 786.803 403.014C783.058 403.397 776.708 403.514 772.552 403.776C773.832 409.66 775.53 414.132 778.172 419.121C798.59 416.693 829.082 411.633 837.145 408.716C842.229 406.876 848.757 397.286 846.869 391.855C843.138 381.121 797.139 374.574 790.325 376.668ZM232.877 376.668C226.063 374.574 180.064 381.121 176.333 391.855C174.445 397.286 180.973 406.876 186.058 408.716C194.121 411.633 224.612 416.693 245.03 419.121C247.672 414.132 249.37 409.66 250.65 403.776C246.495 403.514 240.145 403.397 236.399 403.014C236.405 395.028 239.69 378.763 232.877 376.669V376.668ZM454.396 641.879C427.809 641.91 399.395 641.925 387.113 641.832C361.087 641.649 338.781 652.035 336.189 656.027C333.598 660.019 335.124 664.217 333.607 670.04C342.773 670.04 410.603 669.756 461.482 669.646C489.172 669.584 534.066 669.584 561.757 669.646C612.636 669.756 680.465 670.04 689.631 670.04C688.114 664.217 689.631 660.019 687.049 656.027C684.457 652.035 662.151 641.649 636.125 641.832C623.843 641.92 595.428 641.911 568.841 641.879C537.239 641.84 485.999 641.84 454.396 641.879ZM460.906 518.695C426.226 519.014 391.878 519.705 386.2 521.331C371.75 525.469 351.827 538.638 351.013 545.889C350.199 553.139 396.342 604.326 411.236 609.06C418.237 611.286 440.875 612.219 462.902 612.582C489.804 613.026 533.435 613.026 560.337 612.582C582.364 612.218 605.001 611.286 612.002 609.06C626.896 604.326 673.039 553.139 672.225 545.889C671.411 538.638 651.488 525.469 637.038 521.331C631.36 519.705 597.011 519.014 562.331 518.695C534.325 518.439 488.913 518.439 460.906 518.695ZM294.527 566.334C290.815 558.901 250.941 546.546 238.981 542.247C236.673 573.543 235.053 604.671 236.347 627.27C247.68 627.27 257.567 627.048 267.012 627.048C281.547 612.611 298.239 573.767 294.527 566.334ZM728.675 566.334C732.388 558.901 772.261 546.546 784.221 542.247C786.53 573.543 788.15 604.671 786.856 627.27C775.522 627.27 765.636 627.048 756.19 627.048C741.655 612.611 724.963 573.767 728.675 566.334Z" fill="#262625"/>
<path d="M362.201 513.598C362.201 513.598 328.6 503.53 300.034 491.233C283.489 484.111 259.013 472.979 259.013 472.979C259.013 472.979 250.053 477.761 244.041 490.496C239.796 499.49 242.529 510.018 242.529 518.233C247.511 519.391 326.842 535.583 332.802 531.87C338.763 528.157 362.201 513.598 362.201 513.598ZM661.001 513.598C661.001 513.598 694.603 503.53 723.169 491.233C739.714 484.111 764.189 472.979 764.189 472.979C764.189 472.979 773.149 477.761 779.161 490.496C783.406 499.49 780.674 510.018 780.674 518.233C775.692 519.391 696.361 535.583 690.4 531.87C684.44 528.157 661.001 513.598 661.001 513.598Z" fill="#262625"/>
</g>
</g>
<defs>
<clipPath id="clip0_485_12558">
<rect width="1024" height="1024" fill="white"/>
</clipPath>
<clipPath id="clip1_485_12558">
<rect width="1024" height="1024" fill="white" transform="translate(0 -11)"/>
</clipPath>
</defs>
</svg>
