<svg width="1024" height="1024" viewBox="0 0 1024 1024" fill="none" xmlns="http://www.w3.org/2000/svg">
<g clip-path="url(#clip0_485_12556)">
<g clip-path="url(#clip1_485_12556)">
<path d="M819.77 673.845C794.209 674.952 775.421 675.531 775.421 675.531L776.469 725.324C777.137 735.111 785.28 742.942 791.21 742.874L832.962 742.392C846.664 742.234 849.008 734.941 850.243 716.496C852.41 684.117 849.085 607.459 849.085 607.459C840.526 608.395 835.197 673.177 819.77 673.845ZM203.938 673.845C188.511 673.177 183.182 608.395 174.623 607.459C174.623 607.459 171.298 684.117 173.465 716.496C174.701 734.941 177.044 742.234 190.746 742.392L232.498 742.874C238.428 742.944 246.572 735.111 247.239 725.324L248.288 675.531C248.288 675.531 229.499 674.951 203.938 673.845ZM417.582 253.892C469.618 252.129 554.056 252.125 606.091 253.884C659.211 255.68 689.167 258.548 693.917 262.236C700.989 267.728 754.059 343.727 765.404 391.044C770.56 393.663 813.364 424.414 813.553 442.227C813.74 460.041 814.228 574.84 812.917 610.141C811.607 645.441 786.412 639.491 729.054 639.487C699.857 639.486 644.108 639.557 596.402 639.622C549.708 639.692 474.003 639.692 427.31 639.63C379.604 639.568 323.853 639.502 294.657 639.506C237.299 639.513 212.104 645.466 210.79 610.166C209.479 574.866 209.952 460.067 210.138 442.253C210.325 424.439 253.127 393.685 258.284 391.065C269.624 343.747 322.687 267.744 329.759 262.251C334.509 258.562 364.464 255.692 417.583 253.892L417.582 253.892ZM403.98 214.446C348.971 217.45 312.554 221.883 308.024 225.4C300.953 230.893 237.264 321.637 225.923 368.955C220.767 371.575 173.7 403.878 173.512 421.692C173.326 439.506 172.601 611.121 173.915 646.421C175.229 681.721 237.3 680.412 294.658 680.403C322.789 680.4 375.756 680.458 422.431 680.521C471.819 680.583 551.892 680.583 601.28 680.513C647.955 680.451 700.922 680.383 729.053 680.385C786.411 680.389 848.482 681.692 849.792 646.392C851.104 611.092 850.367 439.476 850.174 421.663C849.988 403.849 802.915 371.55 797.758 368.93C786.413 321.613 722.716 230.874 715.645 225.383C711.115 221.866 674.696 217.436 619.686 214.437C560.182 211.184 463.483 211.188 403.978 214.445L403.98 214.446ZM788.528 351.006L790.198 361.509C800.15 361.356 813.888 359.835 823.283 363.311C838.225 368.84 868.996 364.45 872.243 354.438C874.431 347.694 868.795 332.903 857.531 326.867C846.267 320.831 816.774 320.588 813.853 323.883C811.865 326.126 811.865 349.674 811.865 349.674L788.528 351.006ZM235.18 351.006L211.843 349.674C211.843 349.674 211.843 326.126 209.855 323.883C206.934 320.588 177.441 320.831 166.177 326.867C154.913 332.903 149.277 347.694 151.465 354.438C154.713 364.45 185.483 368.84 200.425 363.311C209.82 359.835 223.558 361.356 233.511 361.509L235.18 351.006ZM456.867 574.084H338.246L285.482 605.58L207.638 606.096C207.638 606.096 210.46 627.342 217.959 635.361C225.485 643.379 286.812 642.564 294.655 642.643C305.789 642.755 421.049 642.531 479.355 642.409C497.314 642.371 526.431 642.371 544.389 642.409C602.696 642.531 717.955 642.755 729.089 642.643C736.931 642.565 798.259 643.379 805.784 635.361C813.284 627.342 816.106 606.096 816.106 606.096L738.262 605.58L685.498 574.084H566.877H456.867ZM471.303 485.591C402.164 483.393 266.328 478.68 239.158 474.8V480.676C328.906 496.225 376.4 500.653 507.527 510.548C509.927 510.728 513.817 510.728 516.216 510.548C647.344 500.653 694.838 496.225 784.586 480.676V474.8C757.415 478.68 621.575 483.393 552.438 485.591C530.035 486.303 493.707 486.303 471.303 485.591Z" fill="#262625"/>
<path d="M297.343 449.954H291.137V465.47H245.364V449.954H239.157V471.676H297.343V449.954ZM726.365 449.954H732.571V465.47H778.344V449.954H784.551V471.676H726.365V449.954ZM361.724 453.077H355.517V468.593H309.744V453.077H303.538V474.799H361.724V453.077ZM661.985 453.077H668.191V468.593H713.964V453.077H720.17V474.799H661.985V453.077Z" fill="#262625"/>
</g>
</g>
<defs>
<clipPath id="clip0_485_12556">
<rect width="1024" height="1024" fill="white"/>
</clipPath>
<clipPath id="clip1_485_12556">
<rect width="1024" height="1024" fill="white" transform="translate(0 -35)"/>
</clipPath>
</defs>
</svg>
