<svg width="1024" height="1024" viewBox="0 0 1024 1024" fill="none" xmlns="http://www.w3.org/2000/svg">
<g clip-path="url(#clip0_315_17003)">
<path d="M817.079 717.096C808.511 717.096 754.668 721.945 754.668 721.945L754.854 738.181C755.521 743.206 765.398 755.57 771.327 755.57L814.979 755.571C828.683 755.572 838.479 747.885 839.714 729.44C841.882 697.061 839.396 697.716 839.396 697.716C825.569 699.227 825.676 717.096 817.083 717.096H817.079ZM206.008 717.096H206.004C197.411 717.096 197.518 699.227 183.691 697.716C183.691 697.716 181.205 697.06 183.373 729.44C184.608 747.885 194.404 755.572 208.108 755.571L251.76 755.57C257.689 755.57 267.566 743.206 268.233 738.181L268.419 721.945C268.419 721.945 214.576 717.096 206.008 717.096ZM437.396 308.928C478.311 307.221 544.743 307.219 585.657 308.921C631.266 310.819 642.296 314.296 660.6 319.961C686.234 327.894 722.233 391.431 741.986 435.78C771.061 469.734 799.209 479.482 804.1 523.274C808.672 564.208 810.051 674.221 805.712 682.974C801.372 691.728 723.666 696.993 708.7 697.145C700.91 697.224 647.29 697.67 597.663 698.079C550.101 698.471 472.988 698.475 425.427 698.086C375.8 697.681 322.18 697.241 314.389 697.162C299.423 697.012 221.716 691.753 217.376 683C213.036 674.247 214.406 564.234 218.974 523.3C223.861 479.507 252.009 469.757 281.081 435.8C300.83 391.45 336.822 327.909 362.456 319.974C380.759 314.308 391.789 310.83 437.396 308.928ZM437.4 270.379C381.302 272.904 356.887 277.684 338.04 283.519C312.405 291.454 268.983 371.457 249.234 415.807C220.578 435.437 186.103 466.124 181.216 509.917C176.648 550.851 177.136 708.022 181.477 716.775C185.818 725.528 299.424 735.927 314.39 736.077C322.18 736.156 375.801 736.596 425.429 737.001C472.99 737.389 550.103 737.386 597.664 736.994C647.292 736.585 700.912 736.139 708.703 736.06C723.669 735.908 837.274 725.5 841.614 716.746C845.954 707.993 846.428 550.822 841.86 509.888C836.969 466.096 802.491 435.411 773.833 415.784C754.081 371.436 710.651 291.437 685.016 283.504C666.168 277.671 641.752 272.893 585.654 270.373C544.745 268.54 478.312 268.543 437.402 270.379H437.4ZM783.347 377.122C778.108 377.768 779.054 396.551 778.682 404.538C774.936 404.92 767.214 404.712 763.058 404.975C764.339 410.859 767.787 412.532 770.429 417.521C790.344 415.629 815.323 414.684 823.821 413.538C827.245 413.077 832.177 403.418 828.482 395.434C818.614 374.111 788.584 376.477 783.347 377.122ZM239.74 377.122C234.503 376.477 204.473 374.111 194.605 395.434C190.91 403.418 195.842 413.077 199.266 413.538C207.764 414.684 232.743 415.629 252.658 417.521C255.3 412.532 258.748 410.859 260.029 404.975C255.873 404.712 248.151 404.92 244.405 404.538C244.033 396.551 244.979 377.768 239.74 377.122ZM454.36 636.991C416.375 635.924 370.873 634.596 356.092 633.963C329.201 632.812 278.779 629.019 278.779 629.019C278.779 629.019 269.038 601.269 265.333 598.887C261.628 596.504 248.488 597.214 245.274 598.902C242.062 600.59 226.318 604.765 225.01 641.864C224.785 648.198 237.178 665.773 242.478 670.185C249.581 676.1 312.919 682.492 312.919 682.492L311.636 676.437L269.9 671.812L282.664 653.651C282.664 653.651 340.336 658.063 363.985 659.272C387.635 660.481 474.752 662.149 474.752 662.149L474.876 671.352L500.584 671.99C507.901 672.171 515.222 672.171 522.539 671.99L548.247 671.352L548.371 662.149C548.371 662.149 635.488 660.481 659.138 659.272C682.787 658.063 740.459 653.651 740.459 653.651L753.222 671.812L711.487 676.437L710.204 682.492C710.204 682.492 773.542 676.1 780.645 670.185C785.944 665.773 798.338 648.198 798.113 641.864C796.804 604.765 781.061 600.59 777.848 598.902C774.635 597.214 761.495 596.504 757.79 598.887C754.084 601.269 744.343 629.019 744.343 629.019C744.343 629.019 693.921 632.812 667.03 633.963C652.249 634.595 606.747 635.924 568.762 636.991C537.171 637.879 485.951 637.879 454.36 636.991ZM460.85 582.392C380.61 581.363 259.075 578.07 215.225 561.285C215.14 567.764 215.225 568.682 215.062 575.344C255.115 590.607 366.948 596.006 462.845 596.632C489.749 596.809 533.374 596.809 560.28 596.632C656.177 596.006 768.009 590.607 808.06 575.344C807.897 568.682 807.983 567.764 807.897 561.285C764.046 578.071 642.505 581.363 562.266 582.392C534.263 582.752 488.857 582.752 460.85 582.392Z" fill="#262625"/>
<path d="M360.229 546.217C359.919 542.389 329.751 520.769 319.421 516.438C302.809 509.473 242.069 494.157 240.184 497.434C238.3 500.711 236.892 539.011 245.533 547.552C254.175 556.092 319.529 560.047 328.052 559.029C336.575 558.01 360.536 550.045 360.229 546.217ZM662.858 546.217C663.168 542.389 693.335 520.769 703.666 516.438C720.278 509.473 781.018 494.157 782.902 497.434C784.787 500.711 786.195 539.011 777.553 547.552C768.912 556.092 703.558 560.047 695.035 559.029C686.511 558.01 662.551 550.045 662.858 546.217Z" fill="#262625"/>
</g>
<defs>
<clipPath id="clip0_315_17003">
<rect width="1024" height="1024" fill="white"/>
</clipPath>
</defs>
</svg>
