<svg width="1024" height="1033" viewBox="0 0 1024 1033" fill="none" xmlns="http://www.w3.org/2000/svg">
<g clip-path="url(#clip0_570_13972)">
<path d="M812.028 707.664C803.845 710.204 747.37 709.7 747.37 709.7L748.419 734.102C749.086 743.89 756.366 751.67 762.295 751.651L811.757 751.492C825.459 751.446 831.91 747.586 833.145 729.141C835.313 696.762 835.857 626.732 835.857 626.732C822.031 628.243 820.236 705.117 812.028 707.664ZM212.868 707.664C204.661 705.117 202.866 628.243 189.039 626.732C189.039 626.732 189.582 696.762 191.751 729.141C192.986 747.586 199.437 751.446 213.14 751.492L262.601 751.651C268.531 751.667 275.81 743.89 276.477 734.102L277.526 709.7C277.526 709.7 221.051 710.204 212.868 707.664ZM512.434 310.615C624.504 311.638 639.943 314.436 660.621 320.51C681.299 326.585 710.952 385.943 730.705 430.292C751.105 451.442 792.365 463.881 799.527 491.77C809.77 531.665 796.237 667.921 792.776 671.958C789.316 675.996 720.96 676.858 705.994 677.01C698.294 677.088 646.777 676.836 598.568 676.573C551.006 676.314 473.893 676.318 426.33 676.581C378.122 676.848 326.604 677.103 318.904 677.026C303.938 676.875 235.583 676.019 232.122 671.982C228.661 667.944 215.115 531.69 225.355 491.795C232.514 463.905 273.773 451.463 294.172 430.311C313.921 385.959 343.569 326.6 364.246 320.523C384.924 314.447 400.362 311.648 512.434 310.615ZM512.431 272C400.361 273.033 361.758 278.351 341.08 284.428C320.402 290.505 281.909 362.471 262.16 406.822C241.761 427.974 198.959 441.627 191.354 469.381C180.498 509.02 192.94 704.697 196.397 708.734C199.858 712.772 268.571 714.053 283.537 714.203C291.99 714.288 364.796 714.521 426.331 714.705C473.893 714.843 551.008 714.84 598.571 714.698C660.106 714.509 732.911 714.27 741.364 714.185C756.33 714.033 825.043 712.746 828.503 708.708C831.961 704.67 844.385 508.992 833.526 469.355C825.918 441.601 783.115 427.95 762.715 406.8C742.962 362.452 704.462 290.488 683.784 284.413C663.106 278.339 624.502 273.023 512.431 272ZM784.409 403.516C780.11 408.877 771.949 416.322 769.479 418.902C773.499 422.679 782.036 425.561 787.418 429.496C791.131 426.003 796.903 417.143 805.726 414.466C815.374 411.539 821.137 410.694 823.83 409.02C826.523 407.346 833.947 401.209 835.016 399.35C836.084 397.492 836.527 388.511 834.356 383.736C832.185 378.962 784.797 369.521 782.66 373.358C780.524 377.194 783.575 395.986 784.409 403.516ZM242.236 373.358C240.1 369.521 192.711 378.962 190.54 383.736C188.37 388.511 188.813 397.492 189.881 399.35C190.949 401.209 198.374 407.346 201.066 409.02C203.759 410.694 209.523 411.539 219.171 414.466C227.994 417.143 233.765 426.003 237.478 429.496C242.86 425.561 251.397 422.679 255.417 418.902C252.948 416.322 244.786 408.877 240.488 403.516C241.322 395.986 244.373 377.194 242.236 373.358ZM512.466 516.652C492.007 516.652 397.104 517.062 382.098 517.062C392.86 528.382 403.962 542.256 404.342 547.227C404.528 549.661 367.413 571.808 353.05 588.865C338.686 605.922 328.458 653.268 330.257 657.24C332.055 661.213 345.263 676.343 350.589 677.117C353.94 677.604 417.286 677.69 463.769 677.687C490.664 677.686 534.279 677.686 561.185 677.687C607.667 677.689 670.992 677.604 674.344 677.117C679.669 676.343 692.877 661.213 694.675 657.24C696.474 653.268 686.246 605.922 671.882 588.865C657.519 571.808 620.404 549.661 620.59 547.227C620.971 542.256 632.072 528.382 642.834 517.062C627.828 517.062 532.925 516.652 512.466 516.652ZM389.226 544.329C391.878 542.365 361.163 519.898 355.439 515.979C351.33 513.166 267.889 501.167 240.147 493.829C245.582 506.029 257.678 532.691 267.114 535.807C276.549 538.924 326.894 540.703 336.767 540.216C346.641 539.729 346.924 534.766 350.799 535.002C354.674 535.238 386.573 546.293 389.226 544.329ZM635.671 544.329C633.019 542.365 663.733 519.898 669.458 515.979C673.567 513.166 757.007 501.167 784.749 493.829C779.315 506.029 767.218 532.691 757.783 535.807C748.347 538.924 698.002 540.703 688.129 540.216C678.256 539.729 677.972 534.766 674.097 535.002C670.223 535.238 638.323 546.293 635.671 544.329ZM737.176 662.086C734.883 664.091 674.398 677.69 674.398 677.69C674.398 677.69 770.801 682.335 790.787 676.216C792.081 653.617 773.698 595.591 762.061 572.779C751.772 578.141 732.848 605.681 731.248 612.589C729.647 619.497 739.468 660.08 737.176 662.086ZM293.649 612.589C292.048 605.681 273.125 578.141 262.836 572.779C251.199 595.591 232.815 653.617 234.109 676.216C254.095 682.335 350.498 677.69 350.498 677.69C350.498 677.69 290.014 664.091 287.721 662.086C285.428 660.08 295.249 619.497 293.649 612.589Z" fill="#262625"/>
<path d="M389.225 544.329C391.877 542.365 361.162 519.897 355.438 515.978C351.329 513.165 267.889 501.166 240.146 493.828C245.581 506.028 257.677 532.691 267.113 535.807C276.548 538.924 326.893 540.703 336.766 540.216C346.64 539.729 346.923 534.765 350.798 535.001C354.673 535.237 386.572 546.293 389.225 544.329ZM635.67 544.329C633.018 542.365 663.732 519.897 669.457 515.978C673.566 513.165 757.006 501.166 784.748 493.828C779.314 506.028 767.217 532.691 757.782 535.807C748.346 538.924 698.001 540.703 688.128 540.216C678.255 539.729 677.971 534.765 674.096 535.001C670.222 535.237 638.322 546.293 635.67 544.329Z" fill="#262625"/>
</g>
<defs>
<clipPath id="clip0_570_13972">
<rect width="1024" height="1024" fill="white"/>
</clipPath>
</defs>
</svg>
