<svg width="1024" height="1024" viewBox="0 0 1024 1024" fill="none" xmlns="http://www.w3.org/2000/svg">
<g clip-path="url(#clip0_664_16205)">
<g clip-path="url(#clip1_664_16205)">
<path d="M817.734 679.347C809.551 681.887 753.535 681.382 753.535 681.382L754.584 732.928C755.251 742.716 762.53 750.498 768.46 750.478L816.281 750.318C829.984 750.272 837.616 742.632 838.851 724.188C841.019 691.808 840.604 577.417 840.604 577.417C826.777 578.928 825.942 676.8 817.734 679.347ZM182.791 577.417C182.791 577.417 182.379 691.808 184.543 724.188C185.778 742.632 193.411 750.272 207.113 750.318L254.935 750.478C260.864 750.501 268.143 742.716 268.811 732.928L269.859 681.382C269.859 681.382 213.843 681.886 205.66 679.347C197.452 676.8 196.617 578.928 182.791 577.417ZM585.826 245.473C635.823 246.145 652.058 247.453 670.604 253.193C696.239 261.125 722.745 327.526 742.498 371.874C750.616 381.354 758.44 390.816 766.554 402.226C779.78 420.825 803.841 434.395 807.366 465.96C811.937 506.894 796.877 645.875 784.378 650.332C771.881 654.789 691.494 647.357 686.264 645.238C658.727 644.954 626.846 644.804 597.817 644.726C550.254 644.598 473.139 644.601 425.576 644.733C396.548 644.814 364.666 644.967 337.129 645.253C331.9 647.373 251.514 654.812 239.015 650.356C226.516 645.9 211.444 506.92 216.012 465.986C219.534 434.42 243.594 420.849 256.819 402.248C264.931 390.837 272.755 381.375 280.872 371.894C300.621 327.544 327.122 261.142 352.756 253.207C371.301 247.466 387.536 246.156 437.531 245.479C478.48 244.925 544.878 244.922 585.826 245.473ZM437.534 207.682C379.705 208.971 352.875 211.419 333.946 217.278C308.312 225.214 268.01 306.712 248.261 351.063C240.144 360.544 232.321 370.006 224.208 381.417C210.984 400.017 183.643 418.935 180.121 450.501C175.553 491.435 185.619 676.44 198.118 680.896C210.616 685.352 203.867 685.943 218.833 686.094C221.538 686.125 215.604 707.211 230.201 708.254C242.094 709.105 319.055 709.557 336.399 709.728C349.958 709.862 342.661 684.439 357.742 684.282C380.134 684.05 403.799 683.906 425.578 683.818C473.141 683.617 550.256 683.614 597.819 683.81C619.598 683.897 643.263 684.038 665.655 684.268C680.736 684.423 673.441 709.847 687 709.712C704.344 709.54 781.305 709.081 793.198 708.229C807.794 707.185 801.859 686.099 804.564 686.068C819.53 685.916 812.781 685.325 825.278 680.868C837.778 676.411 847.827 491.405 843.255 450.471C839.73 418.906 812.388 399.99 799.162 381.391C791.049 369.981 783.225 360.519 775.106 351.039C755.353 306.691 715.045 225.195 689.409 217.263C670.481 211.405 643.65 208.959 585.82 207.675C544.879 206.773 478.476 206.776 437.534 207.682ZM782.965 338.685C779.219 339.067 769.04 338.859 764.885 339.122C766.165 345.006 768.817 348.641 771.459 353.629C792.773 352.587 818.144 352.161 826.593 350.693C844.318 347.613 827.353 318.938 820.9 314.567C814.446 310.195 792.097 304.711 786.195 307.948C780.292 311.184 782.96 331.271 782.965 338.685ZM237.2 307.948C231.297 304.711 208.949 310.195 202.494 314.567C196.04 318.938 179.076 347.613 196.802 350.693C205.25 352.161 230.621 352.587 251.935 353.629C254.578 348.641 257.229 345.006 258.509 339.122C254.354 338.859 244.175 339.067 240.429 338.685C240.434 331.271 243.102 311.184 237.2 307.948ZM454.503 551.543C431.705 550.998 408.29 550.29 397.276 549.496C372.197 547.687 344.967 535.528 335.596 535.543C331.188 535.55 300.819 561.287 299.668 570.602C298.517 579.917 321.748 614.751 329.28 616.257C332.188 616.838 341.776 617.043 355.335 617.493C359.47 617.63 359.543 623.612 358.446 624.455C350.63 630.466 325.246 645.912 332.939 648.065C344.257 651.233 412.711 650.738 461.588 649.944C489.275 649.494 534.155 649.494 561.842 649.944C610.72 650.738 679.173 651.233 690.491 648.065C698.184 645.912 672.8 630.466 664.984 624.455C663.887 623.612 663.96 617.63 668.095 617.493C681.654 617.042 691.242 616.838 694.15 616.257C701.682 614.751 724.913 579.917 723.762 570.602C722.611 561.287 692.242 535.55 687.833 535.543C678.462 535.528 651.233 547.687 626.154 549.496C615.138 550.29 591.719 550.998 568.918 551.543C537.328 552.298 486.098 552.298 454.503 551.543ZM508.014 449.852C507.377 449.845 506.66 449.848 505.714 449.891C503.938 449.969 498.181 439.057 489.705 438.362C440.883 434.36 403.186 436.735 387.256 438.92C371.326 441.105 365.819 449.603 365.288 452.543C364.753 455.484 374.884 520.106 389.779 524.841C400.023 528.097 454.791 530.797 487.73 528.078C494.674 527.505 505.185 518.11 509.706 513.764C510.831 512.683 512.601 512.684 513.727 513.767C518.25 518.114 528.758 527.505 535.7 528.078C568.639 530.797 623.406 528.093 633.651 524.841C648.546 520.106 658.677 455.484 658.142 452.543C657.614 449.603 652.104 441.105 636.174 438.92C620.244 436.735 582.547 434.36 533.725 438.362C525.249 439.057 519.492 449.969 517.716 449.891C516.765 449.852 516.043 449.845 515.407 449.852C513.367 449.883 510.059 449.883 508.014 449.852ZM260.267 515.734C257.941 512.272 238.924 506.737 235.465 511.135C232.876 514.426 233.319 575.516 234.349 590.573C234.776 596.784 245.428 607.834 248.839 608.27C254.961 609.055 285.587 611.464 293.501 609.977C301.415 608.489 263.467 562.011 262.445 559.669C260.267 554.682 262.592 519.196 260.267 515.734ZM763.127 515.734C765.453 512.272 784.47 506.737 787.93 511.135C790.518 514.426 790.075 575.516 789.045 590.573C788.619 596.784 777.966 607.834 774.556 608.27C768.434 609.055 737.807 611.464 729.893 609.977C721.979 608.489 759.927 562.011 760.949 559.669C763.127 554.682 760.802 519.196 763.127 515.734Z" fill="#262625"/>
<path d="M345.061 444.703C345.061 444.703 290.546 432.214 270.429 427.725C250.313 423.236 239.219 425.033 232.764 437.549C218.116 465.951 230.805 472.183 240.007 474.249C249.209 476.314 320.916 479.894 328.959 479.894C337.002 479.894 349.246 470.311 350.93 465.666C352.615 461.021 345.061 444.703 345.061 444.703ZM678.333 444.703C678.333 444.703 732.848 432.214 752.965 427.725C773.082 423.236 784.176 425.033 790.63 437.549C805.278 465.951 792.589 472.183 783.387 474.249C774.186 476.314 702.478 479.894 694.435 479.894C686.392 479.894 674.148 470.311 672.464 465.666C670.78 461.021 678.333 444.703 678.333 444.703ZM256.653 517.377C256.28 516.513 241.702 510.705 238.243 515.104C235.655 518.394 235.789 583.835 237.194 586.312C237.434 586.738 239.135 587.621 239.398 586.126C241.57 573.806 239.475 529.569 241.786 524.146C242.659 522.103 255.523 524.277 256.507 523.567C257.491 522.855 257.027 518.24 256.654 517.377H256.653ZM766.742 517.377C767.114 516.513 781.692 510.705 785.152 515.104C787.74 518.394 787.605 583.835 786.2 586.312C785.96 586.738 784.259 587.621 783.996 586.126C781.824 573.806 783.919 529.569 781.608 524.146C780.735 522.103 767.871 524.277 766.888 523.567C765.903 522.855 766.368 518.24 766.74 517.377H766.742Z" fill="#262625"/>
</g>
</g>
<defs>
<clipPath id="clip0_664_16205">
<rect width="1024" height="1024" fill="white"/>
</clipPath>
<clipPath id="clip1_664_16205">
<rect width="1024" height="1024" fill="white" transform="translate(0 -33)"/>
</clipPath>
</defs>
</svg>
