<svg width="1024" height="1024" viewBox="0 0 1024 1024" fill="none" xmlns="http://www.w3.org/2000/svg">
<g clip-path="url(#clip0_315_16981)">
<path d="M248.707 708.03C274.314 708.806 286.73 708.806 286.73 708.806L285.178 745.277C284.402 755.364 276.642 763.124 270.434 763.124L228.532 762.348C214.564 762.348 207.581 754.589 206.805 736.741C204.477 711.134 204.477 657.593 204.477 657.593L206.805 618.018C206.805 618.018 210.119 636.572 215.551 651.174C222.535 666.693 224.863 683.271 229.377 686.234C237.913 691.031 241.723 705.702 248.707 708.03ZM776.142 708.03C783.126 705.702 790.109 694.062 797.868 689.406C802.524 686.303 804.852 669.231 811.061 653.712C816.492 639.744 817.268 618.018 817.268 618.018L819.596 657.593C819.596 657.593 819.596 711.134 817.268 736.741C817.268 755.364 809.508 762.348 795.541 762.348L753.639 763.124C747.431 763.124 739.671 755.364 738.896 745.277L737.343 708.806C738.119 709.583 750.534 709.583 776.142 708.03ZM435.991 300.866C382.45 303.194 362.274 307.85 356.842 311.73C349.858 317.162 311.06 364.496 299.421 411.83C298.645 415.71 300.973 423.47 300.973 423.47C292.437 424.245 282.349 428.901 284.677 441.317C284.677 441.317 244.327 441.317 236.567 528.225C233.463 584.872 242.775 633.757 253.638 653.156C264.502 672.556 271.486 682.643 287.005 682.643C301.749 682.643 509.709 681.091 512.813 681.091C515.141 681.091 723.1 682.643 738.62 682.643C753.364 682.643 760.346 672.556 771.986 653.156C783.626 633.757 792.161 584.872 789.058 528.225C780.523 440.541 740.948 441.317 740.948 441.317C743.276 429.677 733.964 424.245 724.652 423.47C724.652 423.47 726.98 415.71 726.205 411.83C714.565 364.496 675.766 317.162 668.783 311.73C663.35 307.85 643.175 303.194 589.634 300.866C546.956 298.538 477.894 298.538 435.991 300.866ZM435.991 262.64C477.894 260.453 546.956 260.453 588.858 262.64C647.76 265.603 675.975 270.258 681.406 274.138C688.39 279.57 741.86 337.272 753.5 384.607C754.276 388.486 751.948 396.245 751.948 396.245C760.483 397.022 770.572 401.678 768.244 414.094C768.244 414.094 816.844 426.085 825.38 512.994C828.484 569.639 824.108 618.738 812.61 657.178C801.112 695.617 784.96 720.376 767.815 720.376C750.81 720.376 516.057 719.6 513.447 719.6C510.836 719.6 276.225 720.376 259.08 720.376C241.934 720.376 225.924 695.617 214.284 657.178C202.645 618.738 198.41 569.639 201.514 512.994C210.05 425.308 258.651 414.094 258.651 414.094C256.323 402.454 265.635 397.022 274.946 396.245C274.946 396.245 272.619 388.486 273.395 384.607C285.034 337.272 338.363 279.57 345.487 274.138C348.875 270.258 377.09 265.603 435.991 262.64ZM276.357 384.607L274.805 397.798L252.302 395.47C233.679 395.47 210.4 397.798 205.744 371.414C204.192 366.759 209.624 361.327 212.728 358.223C222.815 348.911 237.559 350.464 249.198 351.239C253.854 351.239 261.614 355.12 262.39 361.327C263.166 366.759 261.614 385.382 261.614 385.382L276.357 384.607ZM748.491 384.607H763.235C763.235 384.607 761.684 365.983 762.459 360.551C763.235 354.344 770.995 350.464 775.65 350.464C787.29 349.688 802.034 348.136 812.121 357.448C815.225 360.551 820.657 365.983 819.105 370.639C815.225 397.022 791.171 395.47 772.547 394.694L750.044 397.022L748.491 384.607ZM457.719 615.134C487.981 615.134 536.868 615.134 567.131 615.134C598.946 615.134 638.519 615.134 668.006 616.687C694.39 618.238 717.668 632.206 722.324 642.293C743.276 644.621 778.195 638.413 778.195 638.413C778.195 638.413 771.986 657.037 762.674 670.228C754.915 681.091 744.827 686.524 737.843 686.524C729.308 686.524 638.519 685.747 572.562 685.747C539.196 685.747 484.878 685.747 451.511 685.747C386.329 686.524 295.541 686.524 286.229 686.524C279.245 686.524 269.158 681.091 261.398 670.228C252.087 657.037 245.879 638.413 245.879 638.413C245.879 638.413 280.798 644.621 301.749 642.293C302.525 640.741 304.077 638.413 306.404 636.085C327.355 615.134 380.898 615.134 411.16 615.134C427.456 615.134 442.975 615.134 457.719 615.134Z" fill="#262625"/>
<path d="M354.514 466.923C328.908 463.044 303.301 462.267 281.573 440.541C280.798 431.229 290.885 423.469 297.869 422.694C304.853 421.917 306.404 422.694 311.836 425.02C317.268 427.348 341.323 452.956 354.514 466.923ZM670.334 466.923C683.526 452.18 708.357 426.573 713.789 425.02C719.221 423.469 720.773 422.694 727.756 422.694C734.74 422.694 744.052 431.229 744.052 440.541C721.549 463.044 695.942 463.044 670.334 466.923ZM341.323 528.225C341.323 542.193 328.908 553.056 314.164 553.056C299.421 553.056 287.005 542.193 287.005 528.225C287.005 514.257 299.421 503.394 314.164 503.394C328.908 503.394 341.323 514.257 341.323 528.225ZM682.75 528.225C682.75 542.193 695.165 553.056 709.909 553.056C724.652 553.056 737.068 542.193 737.068 528.225C737.068 514.257 724.652 503.394 709.909 503.394C695.165 503.394 682.75 514.257 682.75 528.225Z" fill="#262625"/>
</g>
<defs>
<clipPath id="clip0_315_16981">
<rect width="1024" height="1024" fill="white"/>
</clipPath>
</defs>
</svg>
