<svg width="1024" height="1024" viewBox="0 0 1024 1024" fill="none" xmlns="http://www.w3.org/2000/svg">
<g clip-path="url(#clip0_485_12563)">
<g clip-path="url(#clip1_485_12563)">
<path d="M248.708 688.03C274.315 688.806 286.731 688.806 286.731 688.806L285.179 725.277C284.403 735.364 276.643 743.124 270.435 743.124L228.533 742.348C214.565 742.348 207.582 734.589 206.806 716.741C204.478 691.134 204.478 637.593 204.478 637.593L206.806 598.018C206.806 598.018 210.12 616.572 215.552 631.174C222.536 646.693 224.864 663.271 229.378 666.234C237.914 671.031 241.724 685.702 248.708 688.03ZM776.143 688.03C783.127 685.702 790.11 674.062 797.869 669.406C802.525 666.303 804.853 649.231 811.062 633.712C816.493 619.744 817.269 598.018 817.269 598.018L819.597 637.593C819.597 637.593 819.597 691.134 817.269 716.741C817.269 735.364 809.509 742.348 795.542 742.348L753.64 743.124C747.432 743.124 739.672 735.364 738.897 725.277L737.344 688.806C738.12 689.583 750.535 689.583 776.143 688.03ZM435.992 280.866C382.451 283.194 362.275 287.85 356.843 291.73C349.859 297.162 311.061 344.496 299.422 391.83C298.646 395.71 300.974 403.47 300.974 403.47C292.438 404.245 282.35 408.901 284.678 421.317C284.678 421.317 244.328 421.317 236.568 508.225C233.464 564.872 242.776 613.757 253.639 633.156C264.503 652.556 271.487 662.643 287.006 662.643C301.75 662.643 509.71 661.091 512.814 661.091C515.142 661.091 723.101 662.643 738.621 662.643C753.365 662.643 760.347 652.556 771.987 633.156C783.627 613.757 792.162 564.872 789.059 508.225C780.524 420.541 740.949 421.317 740.949 421.317C743.277 409.677 733.965 404.245 724.653 403.47C724.653 403.47 726.981 395.71 726.206 391.83C714.566 344.496 675.767 297.162 668.784 291.73C663.351 287.85 643.176 283.194 589.635 280.866C546.957 278.538 477.895 278.538 435.992 280.866ZM435.992 242.64C477.895 240.453 546.957 240.453 588.859 242.64C647.761 245.603 675.976 250.258 681.407 254.138C688.391 259.57 741.861 317.272 753.501 364.607C754.277 368.486 751.949 376.245 751.949 376.245C760.484 377.022 770.573 381.678 768.245 394.094C768.245 394.094 816.845 406.085 825.381 492.994C828.485 549.639 824.109 598.738 812.611 637.178C801.113 675.617 784.961 700.376 767.816 700.376C750.811 700.376 516.058 699.6 513.448 699.6C510.837 699.6 276.226 700.376 259.081 700.376C241.935 700.376 225.925 675.617 214.285 637.178C202.646 598.738 198.411 549.639 201.515 492.994C210.051 405.308 258.652 394.094 258.652 394.094C256.324 382.454 265.636 377.022 274.947 376.245C274.947 376.245 272.62 368.486 273.396 364.607C285.035 317.272 338.364 259.57 345.488 254.138C348.876 250.258 377.091 245.603 435.992 242.64ZM276.358 364.607L274.806 377.798L252.303 375.47C233.68 375.47 210.401 377.798 205.745 351.414C204.193 346.759 209.625 341.327 212.729 338.223C222.816 328.911 237.56 330.464 249.199 331.239C253.855 331.239 261.615 335.12 262.391 341.327C263.167 346.759 261.615 365.382 261.615 365.382L276.358 364.607ZM748.492 364.607H763.236C763.236 364.607 761.685 345.983 762.46 340.551C763.236 334.344 770.995 330.464 775.651 330.464C787.291 329.688 802.035 328.136 812.122 337.448C815.226 340.551 820.658 345.983 819.106 350.639C815.226 377.022 791.172 375.47 772.548 374.694L750.045 377.022L748.492 364.607ZM457.72 595.134C487.982 595.134 536.869 595.134 567.132 595.134C598.947 595.134 638.52 595.134 668.007 596.687C694.391 598.238 717.669 612.206 722.325 622.293C743.277 624.621 778.196 618.413 778.196 618.413C778.196 618.413 771.987 637.037 762.675 650.228C754.916 661.091 744.828 666.524 737.844 666.524C729.309 666.524 638.52 665.747 572.563 665.747C539.197 665.747 484.879 665.747 451.511 665.747C386.33 666.524 295.542 666.524 286.23 666.524C279.246 666.524 269.159 661.091 261.399 650.228C252.088 637.037 245.88 618.413 245.88 618.413C245.88 618.413 280.799 624.621 301.75 622.293C302.526 620.741 304.078 618.413 306.405 616.085C327.356 595.134 380.899 595.134 411.161 595.134C427.457 595.134 442.976 595.134 457.72 595.134Z" fill="#262625"/>
<path d="M354.516 446.923C328.91 443.044 303.303 442.267 281.575 420.541C280.799 411.229 290.887 403.469 297.871 402.694C304.854 401.917 306.406 402.694 311.838 405.02C317.27 407.348 341.325 432.956 354.516 446.923ZM670.336 446.923C683.528 432.18 708.359 406.573 713.791 405.02C719.222 403.469 720.775 402.694 727.758 402.694C734.742 402.694 744.054 411.229 744.054 420.541C721.55 443.044 695.944 443.044 670.336 446.923ZM341.325 508.225C341.325 522.193 328.91 533.056 314.166 533.056C299.423 533.056 287.007 522.193 287.007 508.225C287.007 494.257 299.423 483.394 314.166 483.394C328.91 483.394 341.325 494.257 341.325 508.225ZM682.751 508.225C682.751 522.193 695.167 533.056 709.911 533.056C724.654 533.056 737.07 522.193 737.07 508.225C737.07 494.257 724.654 483.394 709.911 483.394C695.167 483.394 682.751 494.257 682.751 508.225Z" fill="#262625"/>
</g>
</g>
<defs>
<clipPath id="clip0_485_12563">
<rect width="1024" height="1024" fill="white"/>
</clipPath>
<clipPath id="clip1_485_12563">
<rect width="1024" height="1024" fill="white" transform="translate(0 -20)"/>
</clipPath>
</defs>
</svg>
