<svg width="36" height="36" viewBox="0 0 36 36" fill="none" xmlns="http://www.w3.org/2000/svg">
<g clip-path="url(#clip0_818_1839)">
<path d="M7.86226 26.9157C8.87285 26.9463 9.36283 26.9463 9.36283 26.9463L9.30159 28.3857C9.27096 28.7837 8.96472 29.09 8.71973 29.09L7.06604 29.0594C6.5148 29.0594 6.23919 28.7531 6.20856 28.0488C6.11669 27.0382 6.11669 24.9251 6.11669 24.9251L6.20856 23.3633C6.20856 23.3633 6.33938 24.0956 6.55375 24.6718C6.82936 25.2843 6.92123 25.9385 7.09941 26.0555C7.43627 26.2448 7.58664 26.8239 7.86226 26.9157ZM28.6776 26.9157C28.9533 26.8239 29.2289 26.3645 29.5352 26.1807C29.7189 26.0583 29.8108 25.3845 30.0557 24.772C30.2702 24.2208 30.3008 23.3633 30.3008 23.3633L30.3927 24.9251C30.3927 24.9251 30.3927 27.0382 30.3008 28.0488C30.3008 28.7837 29.9945 29.0594 29.4433 29.0594L27.7897 29.09C27.5446 29.09 27.2384 28.7837 27.2078 28.3857L27.1465 26.9463C27.1772 26.977 27.6671 26.977 28.6776 26.9157ZM15.2535 10.8468C13.1405 10.9386 12.3442 11.1224 12.1299 11.2755C11.8542 11.4899 10.323 13.3579 9.86369 15.226C9.83307 15.3791 9.92494 15.6854 9.92494 15.6854C9.58807 15.716 9.18996 15.8997 9.28183 16.3897C9.28183 16.3897 7.68939 16.3897 7.38315 19.8196C7.26065 22.0552 7.62814 23.9844 8.05687 24.75C8.48561 25.5156 8.76123 25.9138 9.37371 25.9138C9.95556 25.9138 18.1628 25.8526 18.2853 25.8526C18.3772 25.8526 26.5844 25.9138 27.1969 25.9138C27.7787 25.9138 28.0544 25.5156 28.5137 24.75C28.9731 23.9844 29.3099 22.0552 29.1874 19.8196C28.8506 16.3591 27.2888 16.3897 27.2888 16.3897C27.3806 15.9304 27.0131 15.716 26.6457 15.6854C26.6457 15.6854 26.7375 15.3791 26.7069 15.226C26.2475 13.3579 24.7163 11.4899 24.4407 11.2755C24.2264 11.1224 23.4302 10.9386 21.3171 10.8468C19.6328 10.7549 16.9072 10.7549 15.2535 10.8468ZM15.2535 9.33816C16.9072 9.25186 19.6328 9.25186 21.2865 9.33816C23.611 9.45508 24.7246 9.63883 24.9389 9.79195C25.2146 10.0063 27.3248 12.2835 27.7841 14.1516C27.8147 14.3047 27.7229 14.611 27.7229 14.611C28.0598 14.6416 28.4578 14.8253 28.366 15.3153C28.366 15.3153 30.2841 15.7886 30.6209 19.2185C30.7434 21.454 30.5708 23.3918 30.1169 24.9088C29.6632 26.4258 29.0258 27.4029 28.3491 27.4029C27.6779 27.4029 18.4133 27.3723 18.3104 27.3723C18.2073 27.3723 8.94827 27.4029 8.27161 27.4029C7.59496 27.4029 6.9631 26.4258 6.50374 24.9088C6.04438 23.3918 5.87728 21.454 5.99977 19.2185C6.33664 15.758 8.25471 15.3153 8.25471 15.3153C8.16283 14.856 8.53032 14.6416 8.89781 14.611C8.89781 14.611 8.80594 14.3047 8.83656 14.1516C9.29592 12.2835 11.4006 10.0063 11.6818 9.79195C11.8154 9.63883 12.9289 9.45508 15.2535 9.33816ZM8.95348 14.1516L8.89223 14.6722L8.00413 14.5803C7.26916 14.5803 6.35044 14.6722 6.16669 13.631C6.10545 13.4473 6.31981 13.2329 6.44231 13.1104C6.84042 12.7429 7.42228 12.8042 7.88164 12.8348C8.06538 12.8348 8.37162 12.9879 8.40225 13.2329C8.43287 13.4473 8.37162 14.1822 8.37162 14.1822L8.95348 14.1516ZM27.5865 14.1516H28.1684C28.1684 14.1516 28.1071 13.4166 28.1378 13.2023C28.1684 12.9573 28.4746 12.8042 28.6583 12.8042C29.1177 12.7735 29.6996 12.7123 30.0976 13.0798C30.2201 13.2023 30.4346 13.4166 30.3733 13.6004C30.2201 14.6416 29.2708 14.5803 28.5358 14.5497L27.6477 14.6416L27.5865 14.1516ZM16.111 23.2496C17.3053 23.2496 19.2346 23.2496 20.429 23.2496C21.6845 23.2496 23.2463 23.2496 24.4101 23.3108C25.4513 23.372 26.37 23.9232 26.5538 24.3214C27.3806 24.4132 28.7587 24.1683 28.7587 24.1683C28.7587 24.1683 28.5137 24.9032 28.1462 25.4238C27.8399 25.8526 27.4419 26.0669 27.1662 26.0669C26.8294 26.0669 23.2463 26.0363 20.6433 26.0363C19.3265 26.0363 17.1828 26.0363 15.866 26.0363C13.2936 26.0669 9.71057 26.0669 9.34308 26.0669C9.06747 26.0669 8.66935 25.8526 8.36311 25.4238C7.99563 24.9032 7.75063 24.1683 7.75063 24.1683C7.75063 24.1683 9.12871 24.4132 9.95556 24.3214C9.98619 24.2601 10.0474 24.1683 10.1393 24.0764C10.9662 23.2496 13.0792 23.2496 14.2735 23.2496C14.9166 23.2496 15.5291 23.2496 16.111 23.2496Z" fill="#262625"/>
<path d="M12.0366 17.3996C11.026 17.2465 10.0154 17.2159 9.15792 16.3584C9.12729 15.9909 9.5254 15.6847 9.80102 15.6541C10.0766 15.6234 10.1379 15.6541 10.3523 15.7459C10.5666 15.8378 11.516 16.8484 12.0366 17.3996ZM24.5006 17.3996C25.0211 16.8178 26.0011 15.8072 26.2155 15.7459C26.4298 15.6847 26.4911 15.6541 26.7667 15.6541C27.0423 15.6541 27.4099 15.9909 27.4099 16.3584C26.5218 17.2465 25.5111 17.2465 24.5006 17.3996ZM11.516 19.8189C11.516 20.3702 11.026 20.799 10.4441 20.799C9.86227 20.799 9.37228 20.3702 9.37228 19.8189C9.37228 19.2678 9.86227 18.839 10.4441 18.839C11.026 18.839 11.516 19.2678 11.516 19.8189ZM24.9905 19.8189C24.9905 20.3702 25.4805 20.799 26.0624 20.799C26.6443 20.799 27.1342 20.3702 27.1342 19.8189C27.1342 19.2678 26.6443 18.839 26.0624 18.839C25.4805 18.839 24.9905 19.2678 24.9905 19.8189Z" fill="#262625"/>
</g>
<defs>
<clipPath id="clip0_818_1839">
<rect width="24.7836" height="21.8765" fill="white" transform="translate(5.87305 7.21289)"/>
</clipPath>
</defs>
</svg>
