<svg width="1024" height="1024" viewBox="0 0 1024 1024" fill="none" xmlns="http://www.w3.org/2000/svg">
<g clip-path="url(#clip0_611_11283)">
<g clip-path="url(#clip1_611_11283)">
<path d="M814.727 689.22C806.543 691.759 761.152 697.704 761.152 697.704L762.201 725.68C762.869 735.468 770.148 743.256 776.077 743.23L813.274 743.07C826.976 743.008 835.321 735.332 837.177 716.94C840.467 684.335 840.758 638.09 840.758 638.09C826.932 639.601 822.934 686.672 814.727 689.22ZM183.922 638.09C183.922 638.09 184.21 684.335 187.503 716.94C189.359 735.332 197.704 743.008 211.406 743.07L248.602 743.23C254.532 743.253 261.811 735.468 262.479 725.68L263.527 697.704C263.527 697.704 218.136 691.759 209.953 689.22C201.746 686.672 197.748 639.601 183.922 638.09ZM586.451 266.291C622.944 267.727 659.169 270.281 673.751 274.794C708.509 285.55 732.6 362.098 761.508 405.962C765.17 411.518 774.892 412.781 778.43 417.954C787.538 431.272 791.16 440.719 795.779 456.692C797.098 461.256 801.795 468.082 803.787 476.076C808.394 494.568 809.727 637.752 794.92 653.202C792.203 656.038 718.596 667.644 690.707 667.647C684.769 667.647 678.405 656.682 677.064 656.695C663.091 656.837 529.947 658.576 512.341 658.806C494.734 658.577 361.59 656.85 347.617 656.71C346.276 656.694 339.912 667.662 333.975 667.662C306.085 667.662 232.478 656.063 229.76 653.227C214.953 637.778 216.272 494.593 220.878 476.102C222.869 468.107 227.566 461.28 228.885 456.717C233.502 440.744 237.123 431.296 246.23 417.977C249.768 412.804 259.489 411.54 263.151 405.984C292.055 362.118 316.139 285.567 350.897 274.808C365.479 270.294 401.703 267.737 438.194 266.297C479.114 264.683 545.532 264.681 586.451 266.291ZM438.22 228.347C391.169 230.788 340.029 234.781 324.284 239.655C289.526 250.414 264.526 335.082 235.623 378.948C231.961 384.505 222.239 385.768 218.702 390.942C209.594 404.261 197.263 413.708 192.646 429.682C191.327 434.245 183.56 441.555 181.57 449.55C176.964 468.042 177.451 676.98 192.259 692.429C194.977 695.265 319.803 706.865 347.693 706.865C353.63 706.865 359.994 695.898 361.335 695.912C375.259 696.051 495.652 697.767 512.342 698.006C529.032 697.766 649.425 696.04 663.349 695.898C664.69 695.883 671.055 706.851 676.992 706.85C704.882 706.848 829.708 695.237 832.425 692.401C847.232 676.951 847.7 468.012 843.093 449.521C841.101 441.527 833.335 434.217 832.015 429.654C827.396 413.681 815.064 404.234 805.956 390.916C802.418 385.743 792.696 384.48 789.034 378.924C760.126 335.061 735.119 250.395 700.361 239.639C684.615 234.766 633.473 230.778 586.422 228.341C545.527 226.224 479.115 226.227 438.22 228.347ZM783.625 350.827C779.879 351.209 774.5 351.285 770.344 351.547C771.624 357.431 772.997 361.578 775.639 366.566C779.943 366.572 785.766 368.409 789.589 368.409C791.203 368.409 793.876 370.956 794.978 371.099C798.01 371.492 823.977 369.908 829.129 369.018C833.38 368.285 841.996 362.15 842.461 359.015C842.888 356.167 842.157 354.01 840.435 350.574C838.23 346.168 834.283 341.758 829.473 339.316C812.475 330.685 790.826 331.556 785.992 333.228C781.158 334.901 782.846 342.67 783.625 350.827ZM238.688 333.228C233.854 331.556 212.205 330.685 195.207 339.316C190.397 341.758 186.45 346.168 184.245 350.574C182.525 354.01 181.794 356.167 182.219 359.015C182.684 362.15 191.3 368.285 195.551 369.018C200.703 369.908 226.67 371.492 229.702 371.099C230.804 370.956 233.477 368.409 235.091 368.409C238.914 368.409 244.737 366.572 249.041 366.566C251.683 361.578 253.056 357.431 254.336 351.547C250.18 351.285 244.801 351.209 241.055 350.827C241.833 342.67 243.522 334.901 238.688 333.228ZM455.136 570.901C421.086 571.163 378.98 571.676 349.819 572.682C309.242 574.082 273.744 625.053 263.386 626.589C252.007 628.277 233.806 630.059 216.043 622.839C220.376 639.009 222.276 664.935 225.231 665.048C241.242 665.66 317.583 671.815 336.812 672.165C348.678 672.38 350.818 662.124 353.969 661.748C362.05 660.787 506.267 659.735 512.358 659.691C516.221 659.722 575.628 660.152 620.641 660.711C648.317 661.054 676.821 672.366 687.904 672.165C707.133 671.815 783.473 665.66 799.484 665.048C802.439 664.936 804.339 639.009 808.672 622.839C790.91 630.059 772.708 628.277 761.329 626.589C750.972 625.053 715.474 574.082 674.897 572.682C645.734 571.676 603.625 571.162 569.574 570.901C537.975 570.658 486.738 570.658 455.136 570.901ZM226.347 554.44C226.347 564.59 230.004 613.722 233.027 614.676C235.363 615.413 239.493 612.568 239.493 609.843C239.493 597.632 238.374 571.133 237.311 565.567C236.247 560.001 231.41 557.639 226.347 554.44ZM798.333 554.44C798.333 564.59 794.676 613.722 791.653 614.676C789.317 615.413 785.187 612.568 785.187 609.843C785.187 597.632 786.306 571.133 787.369 565.567C788.433 560.001 793.27 557.639 798.333 554.44ZM696.928 243.155C706.073 241.67 698.598 230.187 693.124 227.643C678.822 220.994 663.945 228.236 663.333 234.559C662.72 240.883 687.783 244.64 696.928 243.155ZM361.347 234.559C360.734 228.236 345.858 220.994 331.556 227.643C326.082 230.187 318.607 241.67 327.752 243.155C336.897 244.64 361.963 240.883 361.347 234.559ZM598.767 470.031C595.545 470.031 591.538 471.954 587.811 475.243C584.085 478.532 580.841 483.405 580.841 489.441C580.841 494.277 581.284 515 581.284 518.761C581.284 521.035 581.811 523.2 582.845 524.958C583.876 526.717 585.61 528.216 587.814 528.216C588.881 528.216 600.039 528.472 611.574 528.458C617.341 528.452 623.255 528.381 628.212 528.171C633.167 527.957 636.994 527.686 639.334 526.973C641.54 526.302 644.297 524.779 647.531 522.776C650.763 520.773 654.383 518.284 657.85 515.761C661.315 513.238 664.624 510.676 667.26 508.487C669.894 506.299 671.74 504.715 672.744 503.275C674.192 501.199 676.774 496.646 678.609 491.926C679.526 489.566 680.26 487.187 680.487 484.986C680.712 482.785 680.487 480.479 678.7 478.985C677.236 477.747 675.138 476.864 672.441 475.925C669.745 474.986 666.51 474.089 663.107 473.288C656.302 471.686 648.899 470.484 643.924 470.318C634.344 469.999 603.246 470.03 598.77 470.03L598.767 470.031ZM598.767 473.91C603.258 473.91 634.495 473.886 643.785 474.198C648.245 474.347 655.601 475.505 662.211 477.061C665.515 477.84 668.654 478.717 671.166 479.592C673.676 480.466 675.616 481.449 676.196 481.94C676.475 482.176 676.786 482.978 676.623 484.592C676.46 486.206 675.845 488.347 675.001 490.517C673.314 494.857 670.694 499.424 669.561 501.048C669.274 501.457 667.339 503.384 664.789 505.503C662.238 507.621 658.966 510.145 655.56 512.624C652.155 515.103 648.615 517.543 645.5 519.473C642.384 521.403 639.606 522.832 638.196 523.261C636.918 523.651 632.907 524.082 628.044 524.292C623.181 524.501 617.294 524.573 611.558 524.58C600.085 524.595 589.392 524.338 587.814 524.338C587.371 524.338 586.792 524.026 586.192 523.004C585.595 521.982 585.162 520.393 585.162 518.761C585.162 514.712 584.72 494.04 584.72 489.441C584.72 484.799 587.225 480.93 590.372 478.153C593.518 475.376 597.504 473.91 598.766 473.91H598.767Z" fill="#262625"/>
<path d="M344.388 457.912C337.712 454.93 318.483 449.563 301.588 445C281.771 439.649 256.162 435.868 240.201 433.557C236.797 445.316 237.769 445.397 237.487 450.922C237.107 458.397 308.97 464.936 322.092 465.421C331.759 465.779 360.994 465.331 344.388 457.912ZM680.292 457.912C686.968 454.93 706.197 449.563 723.092 445C742.909 439.649 768.518 435.868 784.479 433.557C787.883 445.316 786.911 445.397 787.193 450.922C787.573 458.397 715.71 464.936 702.588 465.421C692.921 465.779 663.686 465.331 680.292 457.912ZM292.273 510.551C287.002 505.02 227.605 488.518 225.442 488.187C223.277 487.858 224.549 536.65 224.549 536.65C242.582 547.302 317.396 551.917 319.784 550.423C322.598 548.662 297.516 516.083 292.245 510.551H292.273ZM732.407 510.551C737.678 505.02 797.075 488.518 799.238 488.187C801.403 487.858 800.131 536.65 800.131 536.65C782.098 547.302 707.283 551.917 704.896 550.423C702.082 548.662 727.164 516.083 732.435 510.551H732.407Z" fill="#262625"/>
</g>
</g>
<defs>
<clipPath id="clip0_611_11283">
<rect width="1024" height="1024" fill="white"/>
</clipPath>
<clipPath id="clip1_611_11283">
<rect width="1024" height="1024" fill="white" transform="translate(0 -28)"/>
</clipPath>
</defs>
</svg>
