<svg width="1024" height="1051" viewBox="0 0 1024 1051" fill="none" xmlns="http://www.w3.org/2000/svg">
<g clip-path="url(#clip0_641_24940)">
<path d="M821.189 720.703C813.006 723.243 760.148 740.437 760.148 740.437L761.196 752.63C761.864 762.418 769.143 770.201 775.073 770.18L819.736 770.02C833.438 769.974 840.449 762.282 842.306 743.89C845.596 711.285 843.22 649.524 843.22 649.524C829.394 651.035 829.396 718.156 821.189 720.703ZM180.604 649.524C180.604 649.524 178.228 711.285 181.518 743.89C183.375 762.282 190.386 769.974 204.088 770.02L248.751 770.18C254.681 770.203 261.96 762.418 262.628 752.63L263.676 740.437C263.676 740.437 210.818 723.243 202.635 720.703C194.428 718.156 194.43 651.035 180.604 649.524ZM586.025 293.446C620.153 294.779 653.387 297.184 667.655 301.6C693.29 309.533 721.312 367.922 743.763 418.206C748.977 424.295 753.173 431.295 757.704 437.13C761.785 442.385 771.244 443.008 774.782 448.181C783.89 461.499 790.732 475.777 795.352 491.75C798.056 501.1 804.235 513.024 805.425 523.683C808.06 547.283 807.188 664.144 794.492 677.392C791.775 680.227 790.291 681.738 781.28 685.551C777.481 687.158 781.101 696.739 776.508 698.46C751.869 707.702 707.675 709.848 688.259 711.441C679.781 712.137 670.096 698.657 668.756 698.671C660.622 698.753 614.437 698.151 573.963 697.583C539.694 697.103 484.133 697.105 449.864 697.589C409.39 698.16 363.204 698.766 355.071 698.685C353.73 698.669 344.047 712.151 335.568 711.456C316.152 709.865 271.958 707.722 247.318 698.483C242.724 696.762 246.344 687.181 242.546 685.575C233.533 681.762 232.05 680.252 229.333 677.416C216.636 664.17 215.753 547.309 218.386 523.708C219.575 513.05 225.754 501.125 228.457 491.775C233.075 475.802 239.915 461.523 249.022 448.204C252.56 443.031 262.019 442.407 266.1 437.151C270.63 431.316 274.825 424.316 280.038 418.227C302.486 367.941 330.502 309.548 356.136 301.613C370.404 297.196 403.636 294.788 437.764 293.452C478.684 291.85 545.106 291.847 586.025 293.446ZM437.819 256.593C394.161 259.401 348.025 263.783 332.623 268.551C306.989 276.486 275.842 339.039 253.395 389.325C248.181 395.414 244.238 402.019 239.707 407.854C235.627 413.11 226.312 413.518 222.774 418.692C213.667 432.01 202.531 445.911 197.912 461.884C195.209 471.234 180.556 499.591 179.366 510.25C176.733 533.85 176.836 703.776 189.531 717.022C192.249 719.858 193.732 721.368 202.744 725.18C206.543 726.787 202.923 736.368 207.517 738.089C232.157 747.328 330.016 748.375 349.432 749.966C357.911 750.662 367.595 737.181 368.935 737.195C376.625 737.273 414.695 736.734 449.867 736.193C484.135 735.665 539.695 735.663 573.964 736.187C609.136 736.726 647.206 737.26 654.895 737.182C656.235 737.167 665.92 750.648 674.398 749.952C693.815 748.359 791.674 747.304 816.313 738.063C820.907 736.341 817.286 726.76 821.084 725.153C830.096 721.341 831.58 719.83 834.297 716.994C846.99 703.746 847.079 533.821 844.444 510.221C843.253 499.562 828.597 471.206 825.893 461.856C821.273 445.884 810.136 431.984 801.028 418.666C797.489 413.493 788.175 413.086 784.094 407.83C779.562 401.995 775.618 395.391 770.405 389.303C747.953 339.019 716.8 276.468 691.165 268.535C675.763 263.768 629.626 259.391 585.967 256.586C545.104 253.979 478.683 253.982 437.819 256.593ZM776.694 350.26C770.051 352.5 772.106 361.141 773.431 368.555C769.686 368.937 762.765 369.013 758.61 369.275C759.89 375.159 761.263 379.306 763.905 384.294C768.209 384.3 775.531 384.522 779.355 384.522C780.968 384.522 783.642 387.069 784.743 387.212C787.776 387.605 813.842 384.112 819.013 383.339C824.548 382.512 827.445 378.802 828.609 377.27C829.774 375.738 831.114 376.431 831.867 374.71C832.619 372.989 831.634 369.089 830.95 367.626C830.267 366.163 828.726 366.923 828.323 365.894C826.158 360.318 826.433 357.963 820.854 355.66C796.581 345.639 776.694 351.93 776.694 350.26ZM247.13 350.26C247.13 351.93 227.243 345.639 202.97 355.66C197.391 357.963 197.666 360.318 195.501 365.894C195.098 366.923 193.557 366.163 192.874 367.626C192.192 369.089 191.202 372.989 191.957 374.71C192.71 376.431 194.05 375.738 195.215 377.27C196.379 378.802 199.276 382.512 204.811 383.339C209.982 384.112 236.048 387.605 239.081 387.212C240.182 387.069 242.856 384.522 244.469 384.522C248.293 384.522 255.615 384.3 259.919 384.294C262.561 379.306 263.934 375.159 265.214 369.275C261.058 369.013 254.138 368.937 250.393 368.555C251.718 361.141 253.773 352.5 247.13 350.26ZM454.708 630.593C427.894 630.698 396.244 631.121 370.412 632.325C349.015 633.323 284.046 661.08 279.589 661.409C268.117 662.256 242.859 656.075 225.097 648.855C207.335 641.634 221.728 689.191 225.236 699.461C237.308 702.372 266.873 712 269.828 712.113C285.839 712.724 317.373 713.709 336.603 714.058C348.469 714.274 350.609 704.018 353.76 703.642C358.829 703.039 417.37 702.059 461.813 701.391C489.491 700.976 534.376 700.976 562.063 701.392C606.504 702.059 665.032 703.039 670.1 703.642C673.251 704.018 675.391 714.274 687.257 714.058C706.486 713.709 738.02 712.724 754.032 712.113C756.987 712 786.551 702.372 798.623 699.461C802.132 689.191 816.524 641.634 798.763 648.855C781.001 656.075 755.742 662.256 744.27 661.409C739.814 661.08 674.845 633.323 653.447 632.325C627.612 631.121 595.954 630.698 569.137 630.593C537.542 630.47 486.311 630.47 454.708 630.593ZM426.222 514.07C425.234 514.463 424.748 515.578 425.131 516.57L446.102 569.967C446.495 570.963 447.621 571.451 448.617 571.058C449.612 570.664 450.101 569.539 449.708 568.543L428.737 515.161C428.343 514.165 427.217 513.677 426.222 514.07ZM597.596 514.07C596.6 513.677 595.475 514.165 595.081 515.161L574.11 568.543C573.72 569.54 574.212 570.665 575.21 571.056C575.212 571.056 575.214 571.057 575.216 571.058C576.208 571.441 577.322 570.954 577.716 569.967L598.688 516.57C599.07 515.578 598.584 514.463 597.596 514.07ZM427.525 513.585C410.245 512.99 390.06 513.156 373.976 514.509C365.611 515.213 358.161 516.452 352.777 517.949C350.085 518.697 347.922 519.494 346.307 520.434C345.5 520.904 344.811 521.407 344.261 522.116C343.711 522.824 343.33 523.939 343.61 524.979C344.731 529.144 348.837 536.238 354.186 544.041C359.534 551.845 366.046 560.044 371.975 565.315C376.22 569.09 381.386 569.265 383.233 569.573C384.877 569.848 388.209 570.003 393.264 570.179C398.318 570.355 404.918 570.507 412.432 570.649C427.461 570.932 446.122 571.155 463.223 571.315C490.128 571.567 533.743 571.567 560.669 571.315C577.766 571.154 596.425 570.932 611.445 570.649C618.955 570.507 625.546 570.354 630.597 570.179C635.649 570.003 638.971 569.847 640.614 569.573C642.46 569.264 647.626 569.089 651.872 565.315C657.8 560.044 664.312 551.845 669.661 544.041C675.009 536.238 679.131 529.144 680.252 524.979C680.532 523.939 680.151 522.824 679.601 522.116C679.05 521.407 678.363 520.904 677.556 520.434C675.94 519.494 673.777 518.697 671.085 517.949C665.702 516.452 658.252 515.213 649.887 514.509C633.802 513.155 613.618 512.99 596.338 513.585C587.698 513.882 579.79 514.376 573.473 515.009C567.156 515.642 562.571 516.319 559.911 517.388C551.422 520.801 542.742 527.92 532.5 532.737C527.421 535.127 519.662 536.435 511.924 536.435C504.184 536.435 496.426 535.127 491.346 532.737C481.106 527.92 472.424 520.801 463.935 517.388C461.276 516.319 456.706 515.642 450.389 515.009C444.072 514.376 436.165 513.882 427.525 513.585ZM427.385 517.464C435.96 517.759 443.814 518.237 450.008 518.858C456.202 519.478 460.9 520.338 462.494 520.979C470.051 524.018 478.903 531.177 489.692 536.253C495.623 539.043 503.761 540.314 511.921 540.314C520.081 540.314 528.219 539.042 534.15 536.253C544.94 531.177 553.806 524.018 561.364 520.979C562.958 520.338 567.655 519.478 573.849 518.858C580.043 518.237 587.881 517.759 596.456 517.464C613.607 516.873 633.711 517.039 649.551 518.373C657.727 519.061 665.017 520.295 670.037 521.691C672.548 522.39 674.502 523.144 675.598 523.782C676.017 524.024 676.172 524.18 676.312 524.313C675.465 527.169 671.591 534.377 666.463 541.86C661.233 549.491 654.778 557.532 649.295 562.406C646.153 565.199 642.494 565.319 639.976 565.74C639.096 565.887 635.475 566.126 630.461 566.301C625.446 566.475 618.867 566.629 611.368 566.77C596.371 567.053 577.714 567.277 560.623 567.437C533.736 567.689 490.133 567.688 463.268 567.437C446.173 567.276 427.513 567.053 412.507 566.77C405.004 566.629 398.417 566.475 393.4 566.301C388.382 566.126 384.765 565.887 383.884 565.74C381.366 565.319 377.692 565.199 374.55 562.406C369.068 557.532 362.628 549.491 357.397 541.86C352.269 534.377 348.395 527.169 347.549 524.313C347.688 524.18 347.843 524.025 348.262 523.782C349.358 523.145 351.297 522.389 353.808 521.691C358.828 520.295 366.134 519.061 374.309 518.373C390.149 517.04 410.238 516.873 427.388 517.464H427.385ZM243.537 594.026C241.585 593.337 239.358 593.527 236.821 593.74C235.642 593.84 234.526 594.946 234.461 596.224C234.027 604.888 234.826 635.474 239.994 637.718C245.915 640.29 251.268 624.027 252.078 617.473C252.69 612.497 249.69 601.428 246.827 596.386C245.92 594.788 244.358 594.316 243.537 594.027V594.026ZM780.286 594.026C782.239 593.337 784.466 593.527 787.003 593.74C788.182 593.84 789.298 594.946 789.363 596.224C789.797 604.888 788.998 635.474 783.83 637.718C777.909 640.29 772.556 624.027 771.746 617.473C771.133 612.497 774.134 601.428 776.997 596.386C777.904 594.788 779.466 594.316 780.286 594.027V594.026ZM688.172 272.155C697.316 270.67 689.841 259.187 684.368 256.643C670.065 249.994 655.189 257.236 654.576 263.56C653.963 269.883 679.026 273.64 688.172 272.155ZM369.248 263.56C368.635 257.236 353.759 249.994 339.456 256.643C333.983 259.187 326.508 270.67 335.652 272.155C344.798 273.64 369.863 269.883 369.248 263.56ZM434.503 542.865C434.503 541.715 431.281 541.578 429.488 541.578C427.694 541.578 424.752 541.704 424.752 542.84C424.752 543.975 427.82 544.276 429.572 544.276C431.324 544.276 434.503 544.015 434.503 542.865ZM589.321 542.865C589.321 541.715 592.542 541.578 594.336 541.578C596.13 541.578 599.072 541.704 599.072 542.84C599.072 543.975 596.004 544.276 594.252 544.276C592.5 544.276 589.321 544.015 589.321 542.865ZM418.278 542.865C418.278 541.715 415.056 541.578 413.263 541.578C411.469 541.578 408.527 541.704 408.527 542.84C408.527 543.975 411.595 544.276 413.346 544.276C415.099 544.276 418.278 544.015 418.278 542.865ZM605.546 542.865C605.546 541.715 608.768 541.578 610.561 541.578C612.355 541.578 615.297 541.704 615.297 542.84C615.297 543.975 612.229 544.276 610.478 544.276C608.725 544.276 605.546 544.015 605.546 542.865ZM402.632 542.763C402.632 541.614 399.411 541.476 397.617 541.476C395.823 541.476 392.881 541.603 392.881 542.738C392.881 543.874 395.949 544.175 397.701 544.175C399.453 544.175 402.632 543.914 402.632 542.763ZM621.192 542.763C621.192 541.614 624.413 541.476 626.207 541.476C628.001 541.476 630.943 541.603 630.943 542.738C630.943 543.874 627.875 544.175 626.123 544.175C624.371 544.175 621.192 543.914 621.192 542.763ZM386.407 542.662C386.407 541.512 383.185 541.375 381.392 541.375C379.598 541.375 376.656 541.501 376.656 542.637C376.656 543.773 379.724 544.074 381.475 544.074C383.228 544.074 386.407 543.812 386.407 542.662ZM637.417 542.662C637.417 541.512 640.639 541.375 642.432 541.375C644.226 541.375 647.168 541.501 647.168 542.637C647.168 543.773 644.1 544.074 642.349 544.074C640.596 544.074 637.417 543.812 637.417 542.662ZM402.632 542.763C402.632 541.614 399.411 541.476 397.617 541.476C395.823 541.476 392.881 541.603 392.881 542.738C392.881 543.874 395.949 544.175 397.701 544.175C399.453 544.175 402.632 543.914 402.632 542.763ZM621.192 542.763C621.192 541.614 624.413 541.476 626.207 541.476C628.001 541.476 630.943 541.603 630.943 542.738C630.943 543.874 627.875 544.175 626.123 544.175C624.371 544.175 621.192 543.914 621.192 542.763ZM370.566 541.831C370.566 541.006 368.573 540.869 366.779 540.869C364.986 540.869 363.128 541.176 363.128 541.805C363.128 542.435 365.111 542.844 366.863 542.844C368.616 542.844 370.602 542.655 370.566 541.831ZM653.258 541.831C653.258 541.006 655.251 540.869 657.045 540.869C658.838 540.869 660.696 541.176 660.696 541.805C660.696 542.435 658.713 542.844 656.961 542.844C655.208 542.844 653.222 542.655 653.258 541.831ZM499.05 542.865C499.05 541.715 495.828 541.578 494.034 541.578C492.241 541.578 489.299 541.704 489.299 542.84C489.299 543.975 492.366 544.276 494.118 544.276C495.871 544.276 499.05 544.015 499.05 542.865ZM524.774 542.865C524.774 541.715 527.996 541.578 529.79 541.578C531.583 541.578 534.525 541.704 534.525 542.84C534.525 543.975 531.458 544.276 529.706 544.276C527.953 544.276 524.774 544.015 524.774 542.865ZM483.232 542.865C483.232 541.715 480.01 541.578 478.216 541.578C476.423 541.578 473.481 541.704 473.481 542.84C473.481 543.975 476.548 544.276 478.3 544.276C480.053 544.276 483.232 544.015 483.232 542.865ZM540.592 542.865C540.592 541.715 543.814 541.578 545.608 541.578C547.401 541.578 550.343 541.704 550.343 542.84C550.343 543.975 547.276 544.276 545.524 544.276C543.771 544.276 540.592 544.015 540.592 542.865ZM450.411 542.662C450.411 541.512 447.189 541.375 445.396 541.375C443.602 541.375 440.66 541.501 440.66 542.637C440.66 543.773 443.728 544.074 445.48 544.074C447.232 544.074 450.411 543.812 450.411 542.662ZM573.413 542.662C573.413 541.512 576.635 541.375 578.428 541.375C580.222 541.375 583.164 541.501 583.164 542.637C583.164 543.773 580.096 544.074 578.344 544.074C576.592 544.074 573.413 543.812 573.413 542.662ZM466.637 542.763C466.637 541.614 463.415 541.476 461.621 541.476C459.827 541.476 456.885 541.603 456.885 542.738C456.885 543.874 459.953 544.175 461.705 544.175C463.457 544.175 466.637 543.914 466.637 542.763ZM557.187 542.763C557.187 541.614 560.409 541.476 562.203 541.476C563.997 541.476 566.938 541.603 566.938 542.738C566.938 543.874 563.871 544.175 562.119 544.175C560.367 544.175 557.187 543.914 557.187 542.763ZM427.163 528.831C427.163 527.681 423.942 527.544 422.148 527.544C420.354 527.544 417.412 527.67 417.412 528.806C417.412 529.942 420.48 530.243 422.232 530.243C423.984 530.243 427.163 529.981 427.163 528.831ZM596.66 528.831C596.66 527.681 599.882 527.544 601.676 527.544C603.47 527.544 606.412 527.67 606.412 528.806C606.412 529.942 603.344 530.243 601.592 530.243C599.84 530.243 596.66 529.981 596.66 528.831ZM410.327 528.755C410.327 527.605 407.105 527.468 405.311 527.468C403.518 527.468 400.576 527.594 400.576 528.73C400.576 529.865 403.643 530.166 405.395 530.166C407.148 530.166 410.327 529.905 410.327 528.755ZM613.497 528.755C613.497 527.605 616.719 527.468 618.513 527.468C620.306 527.468 623.248 527.594 623.248 528.73C623.248 529.865 620.181 530.166 618.429 530.166C616.676 530.166 613.497 529.905 613.497 528.755ZM393.611 528.424C393.611 527.274 390.389 527.137 388.596 527.137C386.802 527.137 383.86 527.263 383.86 528.399C383.86 529.534 386.928 529.836 388.68 529.836C390.432 529.836 393.611 529.574 393.611 528.424ZM630.213 528.424C630.213 527.274 633.435 527.137 635.228 527.137C637.022 527.137 639.964 527.263 639.964 528.399C639.964 529.534 636.896 529.836 635.144 529.836C633.392 529.836 630.213 529.574 630.213 528.424ZM377.386 528.323C377.386 527.173 374.164 527.035 372.37 527.035C370.577 527.035 367.635 527.162 367.635 528.297C367.635 529.433 370.703 529.734 372.454 529.734C374.207 529.734 377.386 529.473 377.386 528.323ZM646.438 528.323C646.438 527.173 649.66 527.035 651.453 527.035C653.247 527.035 656.189 527.162 656.189 528.297C656.189 529.433 653.121 529.734 651.37 529.734C649.617 529.734 646.438 529.473 646.438 528.323ZM393.611 528.424C393.611 527.274 390.389 527.137 388.596 527.137C386.802 527.137 383.86 527.263 383.86 528.399C383.86 529.534 386.928 529.836 388.68 529.836C390.432 529.836 393.611 529.574 393.611 528.424ZM630.213 528.424C630.213 527.274 633.435 527.137 635.228 527.137C637.022 527.137 639.964 527.263 639.964 528.399C639.964 529.534 636.896 529.836 635.144 529.836C633.392 529.836 630.213 529.574 630.213 528.424ZM361.545 527.491C361.545 526.667 359.552 526.529 357.758 526.529C355.964 526.529 354.107 526.836 354.107 527.466C354.107 528.095 356.09 528.505 357.842 528.505C359.594 528.505 361.581 528.316 361.545 527.491ZM662.279 527.491C662.279 526.667 664.272 526.529 666.066 526.529C667.859 526.529 669.717 526.836 669.717 527.466C669.717 528.095 667.734 528.505 665.982 528.505C664.229 528.505 662.243 528.316 662.279 527.491ZM445.67 528.781C445.67 527.631 442.448 527.494 440.654 527.494C438.86 527.494 435.918 527.62 435.918 528.756C435.918 529.892 438.986 530.193 440.738 530.193C442.49 530.193 445.67 529.931 445.67 528.781ZM578.154 528.781C578.154 527.631 581.376 527.494 583.17 527.494C584.964 527.494 587.905 527.62 587.905 528.756C587.905 529.892 584.838 530.193 583.086 530.193C581.334 530.193 578.154 529.931 578.154 528.781ZM461.895 528.883C461.895 527.733 458.673 527.595 456.879 527.595C455.086 527.595 452.144 527.722 452.144 528.857C452.144 529.993 455.211 530.294 456.963 530.294C458.716 530.294 461.895 530.033 461.895 528.883ZM561.929 528.883C561.929 527.733 565.151 527.595 566.945 527.595C568.738 527.595 571.68 527.722 571.68 528.857C571.68 529.993 568.613 530.294 566.861 530.294C565.108 530.294 561.929 530.033 561.929 528.883ZM440.037 556.059C440.037 554.909 436.815 554.771 435.022 554.771C433.228 554.771 430.286 554.898 430.286 556.033C430.286 557.169 433.354 557.47 435.105 557.47C436.858 557.47 440.037 557.209 440.037 556.059ZM583.787 556.059C583.787 554.909 587.009 554.771 588.802 554.771C590.596 554.771 593.538 554.898 593.538 556.033C593.538 557.169 590.47 557.47 588.719 557.47C586.966 557.47 583.787 557.209 583.787 556.059ZM424.814 556.059C424.814 554.909 421.592 554.771 419.799 554.771C418.005 554.771 415.063 554.898 415.063 556.033C415.063 557.169 418.131 557.47 419.883 557.47C421.635 557.47 424.814 557.209 424.814 556.059ZM599.01 556.059C599.01 554.909 602.232 554.771 604.025 554.771C605.819 554.771 608.761 554.898 608.761 556.033C608.761 557.169 605.693 557.47 603.941 557.47C602.189 557.47 599.01 557.209 599.01 556.059ZM394.748 555.856C394.748 554.706 391.526 554.568 389.732 554.568C387.939 554.568 384.997 554.695 384.997 555.831C384.997 556.966 388.064 557.267 389.816 557.267C391.569 557.267 394.748 557.006 394.748 555.856ZM629.076 555.856C629.076 554.706 632.298 554.568 634.092 554.568C635.885 554.568 638.827 554.695 638.827 555.831C638.827 556.966 635.76 557.267 634.008 557.267C632.255 557.267 629.076 557.006 629.076 555.856ZM409.671 555.957C409.671 554.807 406.449 554.67 404.655 554.67C402.861 554.67 399.919 554.796 399.919 555.932C399.919 557.068 402.987 557.369 404.739 557.369C406.491 557.369 409.671 557.107 409.671 555.957ZM614.153 555.957C614.153 554.807 617.375 554.67 619.169 554.67C620.963 554.67 623.905 554.796 623.905 555.932C623.905 557.068 620.837 557.369 619.085 557.369C617.333 557.369 614.153 557.107 614.153 555.957ZM379.108 555.225C379.108 554.4 377.115 554.263 375.321 554.263C373.527 554.263 371.67 554.57 371.67 555.2C371.67 555.829 373.653 556.239 375.405 556.239C377.157 556.239 379.143 556.049 379.108 555.225ZM644.716 555.225C644.716 554.4 646.709 554.263 648.503 554.263C650.297 554.263 652.154 554.57 652.154 555.2C652.154 555.829 650.171 556.239 648.419 556.239C646.667 556.239 644.681 556.049 644.716 555.225ZM502.178 555.758C502.178 554.608 498.956 554.471 497.162 554.471C495.369 554.471 492.427 554.597 492.427 555.733C492.427 556.868 495.494 557.169 497.246 557.169C498.999 557.169 502.178 556.908 502.178 555.758ZM521.646 555.758C521.646 554.608 524.868 554.471 526.662 554.471C528.455 554.471 531.397 554.597 531.397 555.733C531.397 556.868 528.33 557.169 526.578 557.169C524.825 557.169 521.646 556.908 521.646 555.758ZM485.518 555.758C485.518 554.608 482.296 554.471 480.503 554.471C478.709 554.471 475.767 554.597 475.767 555.733C475.767 556.868 478.835 557.169 480.586 557.169C482.339 557.169 485.518 556.908 485.518 555.758ZM538.306 555.758C538.306 554.608 541.528 554.471 543.321 554.471C545.115 554.471 548.057 554.597 548.057 555.733C548.057 556.868 544.989 557.169 543.238 557.169C541.485 557.169 538.306 556.908 538.306 555.758ZM454.975 556.149C454.975 554.999 451.753 554.862 449.959 554.862C448.165 554.862 445.224 554.988 445.224 556.124C445.224 557.259 448.291 557.56 450.043 557.56C451.795 557.56 454.975 557.299 454.975 556.149ZM568.849 556.149C568.849 554.999 572.071 554.862 573.865 554.862C575.659 554.862 578.6 554.988 578.6 556.124C578.6 557.259 575.533 557.56 573.781 557.56C572.029 557.56 568.849 557.299 568.849 556.149ZM470.26 556.102C470.26 554.952 467.038 554.815 465.244 554.815C463.45 554.815 460.508 554.941 460.508 556.077C460.508 557.212 463.576 557.513 465.328 557.513C467.08 557.513 470.26 557.252 470.26 556.102ZM553.564 556.102C553.564 554.952 556.786 554.815 558.58 554.815C560.374 554.815 563.315 554.941 563.315 556.077C563.315 557.212 560.248 557.513 558.496 557.513C556.744 557.513 553.564 557.252 553.564 556.102ZM448.109 581.231C448.109 580.196 445.209 580.073 443.595 580.073C441.98 580.073 439.333 580.187 439.333 581.209C439.333 582.231 442.093 582.502 443.67 582.502C445.247 582.502 448.109 582.266 448.109 581.231ZM575.715 581.231C575.715 580.196 578.615 580.073 580.229 580.073C581.844 580.073 584.491 580.187 584.491 581.209C584.491 582.231 581.731 582.502 580.154 582.502C578.577 582.502 575.715 582.266 575.715 581.231ZM435.39 581.231C435.39 580.196 432.491 580.073 430.876 580.073C429.262 580.073 426.614 580.187 426.614 581.209C426.614 582.231 429.375 582.502 430.952 582.502C432.529 582.502 435.39 582.266 435.39 581.231ZM588.433 581.231C588.433 580.196 591.333 580.073 592.948 580.073C594.562 580.073 597.21 580.187 597.21 581.209C597.21 582.231 594.449 582.502 592.872 582.502C591.295 582.502 588.433 582.266 588.433 581.231ZM409.117 581.028C409.117 579.994 406.217 579.87 404.603 579.87C402.989 579.87 400.341 579.984 400.341 581.006C400.341 582.028 403.102 582.299 404.678 582.299C406.256 582.299 409.117 582.063 409.117 581.028ZM614.707 581.028C614.707 579.994 617.607 579.87 619.221 579.87C620.835 579.87 623.483 579.984 623.483 581.006C623.483 582.028 620.722 582.299 619.146 582.299C617.568 582.299 614.707 582.063 614.707 581.028ZM422.417 581.13C422.417 580.095 419.517 579.971 417.903 579.971C416.288 579.971 413.641 580.085 413.641 581.107C413.641 582.129 416.401 582.4 417.978 582.4C419.555 582.4 422.417 582.165 422.417 581.13ZM601.407 581.13C601.407 580.095 604.307 579.971 605.921 579.971C607.536 579.971 610.183 580.085 610.183 581.107C610.183 582.129 607.422 582.4 605.846 582.4C604.269 582.4 601.407 582.165 601.407 581.13ZM395.238 580.525C395.238 579.783 393.444 579.659 391.829 579.659C390.215 579.659 388.544 579.936 388.544 580.502C388.544 581.068 390.328 581.437 391.905 581.437C393.482 581.437 395.27 581.267 395.238 580.525ZM628.586 580.525C628.586 579.783 630.38 579.659 631.994 579.659C633.609 579.659 635.28 579.936 635.28 580.502C635.28 581.068 633.496 581.437 631.919 581.437C630.342 581.437 628.554 581.267 628.586 580.525ZM503.38 580.931C503.38 579.896 500.481 579.772 498.866 579.772C497.252 579.772 494.604 579.886 494.604 580.908C494.604 581.93 497.365 582.201 498.942 582.201C500.519 582.201 503.38 581.966 503.38 580.931ZM520.444 580.931C520.444 579.896 523.343 579.772 524.958 579.772C526.572 579.772 529.22 579.886 529.22 580.908C529.22 581.93 526.459 582.201 524.882 582.201C523.305 582.201 520.444 581.966 520.444 580.931ZM489.042 581.193C489.042 580.158 486.142 580.034 484.528 580.034C482.913 580.034 480.266 580.148 480.266 581.17C480.266 582.192 483.026 582.463 484.603 582.463C486.18 582.463 489.042 582.228 489.042 581.193ZM534.782 581.193C534.782 580.158 537.682 580.034 539.296 580.034C540.911 580.034 543.558 580.148 543.558 581.17C543.558 582.192 540.798 582.463 539.221 582.463C537.644 582.463 534.782 582.228 534.782 581.193ZM461.552 581.322C461.552 580.287 458.653 580.163 457.038 580.163C455.424 580.163 452.776 580.277 452.776 581.299C452.776 582.321 455.537 582.592 457.114 582.592C458.691 582.592 461.552 582.357 461.552 581.322ZM562.272 581.322C562.272 580.287 565.171 580.163 566.786 580.163C568.4 580.163 571.048 580.277 571.048 581.299C571.048 582.321 568.287 582.592 566.71 582.592C565.133 582.592 562.272 582.357 562.272 581.322ZM475.309 581.275C475.309 580.24 472.409 580.116 470.795 580.116C469.18 580.116 466.533 580.23 466.533 581.252C466.533 582.274 469.294 582.545 470.87 582.545C472.447 582.545 475.309 582.31 475.309 581.275ZM548.515 581.275C548.515 580.24 551.415 580.116 553.029 580.116C554.643 580.116 557.291 580.23 557.291 581.252C557.291 582.274 554.53 582.545 552.954 582.545C551.376 582.545 548.515 582.31 548.515 581.275ZM454.803 593.341C454.803 592.306 451.903 592.183 450.289 592.183C448.674 592.183 446.027 592.296 446.027 593.318C446.027 594.34 448.787 594.611 450.364 594.611C451.941 594.611 454.803 594.376 454.803 593.341ZM569.021 593.341C569.021 592.306 571.921 592.183 573.535 592.183C575.15 592.183 577.797 592.296 577.797 593.318C577.797 594.34 575.037 594.611 573.46 594.611C571.883 594.611 569.021 594.376 569.021 593.341ZM442.084 593.341C442.084 592.306 439.185 592.183 437.57 592.183C435.956 592.183 433.308 592.296 433.308 593.318C433.308 594.34 436.069 594.611 437.646 594.611C439.223 594.611 442.084 594.376 442.084 593.341ZM581.74 593.341C581.74 592.306 584.639 592.183 586.254 592.183C587.868 592.183 590.516 592.296 590.516 593.318C590.516 594.34 587.755 594.611 586.178 594.611C584.601 594.611 581.74 594.376 581.74 593.341ZM415.811 593.138C415.811 592.103 412.911 591.98 411.297 591.98C409.682 591.98 407.035 592.093 407.035 593.116C407.035 594.138 409.796 594.409 411.372 594.409C412.949 594.409 415.811 594.173 415.811 593.138ZM608.013 593.138C608.013 592.103 610.913 591.98 612.527 591.98C614.142 591.98 616.789 592.093 616.789 593.116C616.789 594.138 614.028 594.409 612.452 594.409C610.875 594.409 608.013 594.173 608.013 593.138ZM429.111 593.24C429.111 592.205 426.211 592.081 424.597 592.081C422.982 592.081 420.335 592.195 420.335 593.217C420.335 594.239 423.095 594.51 424.672 594.51C426.249 594.51 429.111 594.275 429.111 593.24ZM594.713 593.24C594.713 592.205 597.613 592.081 599.227 592.081C600.842 592.081 603.489 592.195 603.489 593.217C603.489 594.239 600.729 594.51 599.152 594.51C597.575 594.51 594.713 594.275 594.713 593.24ZM401.931 592.635C401.931 591.893 400.138 591.769 398.523 591.769C396.909 591.769 395.238 592.045 395.238 592.612C395.238 593.178 397.022 593.547 398.599 593.547C400.176 593.547 401.964 593.377 401.931 592.635ZM621.893 592.635C621.893 591.893 623.686 591.769 625.301 591.769C626.915 591.769 628.586 592.045 628.586 592.612C628.586 593.178 626.802 593.547 625.225 593.547C623.648 593.547 621.86 593.377 621.893 592.635ZM510.074 593.04C510.074 592.005 507.175 591.882 505.56 591.882C503.946 591.882 501.298 591.996 501.298 593.018C501.298 594.04 504.059 594.311 505.636 594.311C507.213 594.311 510.074 594.075 510.074 593.04ZM513.75 593.04C513.75 592.005 516.649 591.882 518.264 591.882C519.878 591.882 522.526 591.996 522.526 593.018C522.526 594.04 519.765 594.311 518.188 594.311C516.611 594.311 513.75 594.075 513.75 593.04ZM495.735 593.302C495.735 592.267 492.836 592.144 491.221 592.144C489.607 592.144 486.959 592.258 486.959 593.28C486.959 594.302 489.72 594.573 491.297 594.573C492.874 594.573 495.735 594.337 495.735 593.302ZM528.089 593.302C528.089 592.267 530.988 592.144 532.603 592.144C534.217 592.144 536.865 592.258 536.865 593.28C536.865 594.302 534.104 594.573 532.527 594.573C530.95 594.573 528.089 594.337 528.089 593.302ZM468.246 593.431C468.246 592.397 465.347 592.273 463.732 592.273C462.118 592.273 459.47 592.387 459.47 593.409C459.47 594.431 462.231 594.702 463.808 594.702C465.385 594.702 468.246 594.466 468.246 593.431ZM555.578 593.431C555.578 592.397 558.477 592.273 560.092 592.273C561.706 592.273 564.354 592.387 564.354 593.409C564.354 594.431 561.593 594.702 560.016 594.702C558.439 594.702 555.578 594.466 555.578 593.431ZM482.003 593.384C482.003 592.349 479.103 592.226 477.489 592.226C475.874 592.226 473.227 592.34 473.227 593.362C473.227 594.384 475.987 594.655 477.564 594.655C479.141 594.655 482.003 594.419 482.003 593.384ZM541.821 593.384C541.821 592.349 544.721 592.226 546.335 592.226C547.95 592.226 550.597 592.34 550.597 593.362C550.597 594.384 547.836 594.655 546.26 594.655C544.683 594.655 541.821 594.419 541.821 593.384ZM372.024 538.176C372.692 537.506 371.256 535.727 370.539 534.699C369.825 533.672 368.331 532.004 367.59 532.745C366.845 533.485 368.296 535.119 368.835 536.058C369.378 536.996 371.354 538.846 372.024 538.176ZM651.799 538.176C651.132 537.506 652.568 535.727 653.285 534.699C653.999 533.672 655.493 532.004 656.234 532.745C656.979 533.485 655.528 535.119 654.989 536.058C654.446 536.996 652.47 538.846 651.799 538.176ZM388.458 538.458C389.126 537.788 387.69 536.009 386.973 534.982C386.259 533.954 384.765 532.286 384.024 533.027C383.279 533.768 384.73 535.401 385.269 536.34C385.812 537.279 387.788 539.128 388.458 538.458ZM635.366 538.458C634.698 537.788 636.134 536.009 636.851 534.982C637.565 533.954 639.059 532.286 639.8 533.027C640.545 533.768 639.094 535.401 638.555 536.34C638.012 537.279 636.036 539.128 635.366 538.458ZM404.751 538.317C405.418 537.647 403.983 535.868 403.266 534.841C402.552 533.813 401.058 532.145 400.317 532.886C399.572 533.627 401.023 535.26 401.562 536.199C402.105 537.138 404.081 538.987 404.751 538.317ZM619.073 538.317C618.406 537.647 619.841 535.868 620.558 534.841C621.272 533.813 622.766 532.145 623.507 532.886C624.252 533.627 622.801 535.26 622.262 536.199C621.719 537.138 619.743 538.987 619.073 538.317ZM420.973 538.247C421.641 537.576 420.205 535.797 419.488 534.77C418.774 533.743 417.28 532.074 416.539 532.815C415.794 533.556 417.245 535.19 417.784 536.128C418.327 537.067 420.303 538.917 420.973 538.247ZM602.851 538.247C602.183 537.576 603.619 535.797 604.336 534.77C605.05 533.743 606.544 532.074 607.285 532.815C608.03 533.556 606.579 535.19 606.04 536.128C605.497 537.067 603.521 538.917 602.851 538.247ZM364.63 524.537C365.057 524.108 364.139 522.969 363.679 522.312C363.222 521.654 362.266 520.586 361.792 521.061C361.315 521.535 362.244 522.58 362.589 523.181C362.936 523.782 364.201 524.966 364.63 524.537ZM659.194 524.537C658.767 524.108 659.685 522.969 660.145 522.312C660.601 521.654 661.558 520.586 662.032 521.061C662.509 521.535 661.58 522.58 661.235 523.181C660.887 523.782 659.623 524.966 659.194 524.537ZM380.139 524.625C380.673 524.088 379.525 522.665 378.951 521.843C378.38 521.022 377.185 519.687 376.592 520.279C375.996 520.872 377.157 522.179 377.588 522.93C378.022 523.681 379.603 525.161 380.139 524.625ZM643.685 524.625C643.151 524.088 644.299 522.665 644.873 521.843C645.444 521.022 646.639 519.687 647.232 520.279C647.828 520.872 646.667 522.179 646.236 522.93C645.802 523.681 644.221 525.161 643.685 524.625ZM397.888 525.217C398.556 524.546 397.12 522.767 396.403 521.74C395.689 520.713 394.195 519.044 393.454 519.785C392.709 520.526 394.16 522.16 394.699 523.098C395.242 524.037 397.218 525.887 397.888 525.217ZM625.936 525.217C625.268 524.546 626.704 522.767 627.421 521.74C628.135 520.713 629.629 519.044 630.37 519.785C631.115 520.526 629.664 522.16 629.125 523.098C628.582 524.037 626.606 525.887 625.936 525.217ZM414.854 525.641C415.521 524.971 414.086 523.192 413.368 522.165C412.654 521.138 411.16 519.469 410.419 520.21C409.674 520.951 411.125 522.585 411.664 523.523C412.207 524.462 414.183 526.312 414.854 525.641ZM608.97 525.641C608.303 524.971 609.738 523.192 610.456 522.165C611.17 521.138 612.664 519.469 613.405 520.21C614.15 520.951 612.699 522.585 612.16 523.523C611.616 524.462 609.641 526.312 608.97 525.641ZM381.914 551.714C382.581 551.044 381.146 549.265 380.428 548.238C379.714 547.21 378.22 545.542 377.479 546.283C376.734 547.024 378.185 548.657 378.724 549.596C379.267 550.535 381.243 552.384 381.914 551.714ZM641.91 551.714C641.243 551.044 642.678 549.265 643.396 548.238C644.11 547.21 645.604 545.542 646.345 546.283C647.09 547.024 645.639 548.657 645.1 549.596C644.557 550.535 642.581 552.384 641.91 551.714ZM397.092 552.053C397.759 551.383 396.324 549.604 395.606 548.577C394.892 547.55 393.398 545.881 392.657 546.622C391.912 547.363 393.363 548.996 393.902 549.935C394.445 550.874 396.421 552.724 397.092 552.053ZM626.732 552.053C626.065 551.383 627.5 549.604 628.218 548.577C628.932 547.55 630.426 545.881 631.167 546.622C631.912 547.363 630.461 548.996 629.922 549.935C629.379 550.874 627.403 552.724 626.732 552.053ZM412.128 551.627C412.796 550.956 411.36 549.178 410.643 548.15C409.929 547.123 408.435 545.455 407.694 546.195C406.949 546.936 408.4 548.57 408.939 549.509C409.482 550.447 411.458 552.297 412.128 551.627ZM611.696 551.627C611.028 550.956 612.464 549.178 613.181 548.15C613.895 547.123 615.389 545.455 616.13 546.195C616.875 546.936 615.424 548.57 614.885 549.509C614.342 550.447 612.366 552.297 611.696 551.627ZM427.323 551.422C427.99 550.751 426.554 548.972 425.837 547.945C425.123 546.918 423.629 545.249 422.888 545.99C422.143 546.731 423.594 548.365 424.133 549.303C424.676 550.242 426.652 552.092 427.323 551.422ZM596.501 551.422C595.834 550.751 597.269 548.972 597.987 547.945C598.701 546.918 600.195 545.249 600.936 545.99C601.681 546.731 600.23 548.365 599.691 549.303C599.148 550.242 597.172 552.092 596.501 551.422ZM390.32 564.425C390.988 563.754 389.552 561.976 388.835 560.948C388.121 559.921 386.627 558.253 385.886 558.993C385.141 559.734 386.592 561.368 387.131 562.306C387.674 563.245 389.65 565.095 390.32 564.425ZM633.504 564.425C632.836 563.754 634.272 561.976 634.989 560.948C635.703 559.921 637.197 558.253 637.938 558.993C638.683 559.734 637.232 561.368 636.693 562.306C636.15 563.245 634.174 565.095 633.504 564.425ZM405.079 564.607C405.747 563.936 404.311 562.158 403.594 561.13C402.88 560.103 401.386 558.435 400.645 559.175C399.9 559.916 401.351 561.55 401.89 562.489C402.433 563.427 404.409 565.277 405.079 564.607ZM618.745 564.607C618.077 563.936 619.513 562.158 620.23 561.13C620.944 560.103 622.438 558.435 623.179 559.175C623.924 559.916 622.473 561.55 621.934 562.489C621.391 563.427 619.415 565.277 618.745 564.607ZM418.806 564.128C419.474 563.458 418.038 561.679 417.321 560.651C416.607 559.624 415.113 557.956 414.372 558.696C413.627 559.437 415.078 561.071 415.617 562.01C416.16 562.948 418.136 564.798 418.806 564.128ZM605.017 564.128C604.35 563.458 605.786 561.679 606.503 560.651C607.217 559.624 608.711 557.956 609.452 558.696C610.197 559.437 608.746 561.071 608.207 562.01C607.664 562.948 605.688 564.798 605.017 564.128ZM433.267 564.656C433.934 563.986 432.499 562.207 431.781 561.18C431.067 560.152 429.573 558.484 428.832 559.225C428.087 559.966 429.538 561.599 430.077 562.538C430.62 563.477 432.596 565.326 433.267 564.656ZM590.557 564.656C589.89 563.986 591.325 562.207 592.043 561.18C592.757 560.152 594.251 558.484 594.992 559.225C595.736 559.966 594.286 561.599 593.747 562.538C593.203 563.477 591.227 565.326 590.557 564.656ZM398.144 576.878C398.812 576.208 397.376 574.429 396.659 573.402C395.945 572.374 394.451 570.706 393.71 571.447C392.965 572.188 394.416 573.821 394.955 574.76C395.498 575.699 397.474 577.548 398.144 576.878ZM625.68 576.878C625.012 576.208 626.448 574.429 627.165 573.402C627.879 572.374 629.373 570.706 630.114 571.447C630.859 572.188 629.408 573.821 628.869 574.76C628.326 575.699 626.35 577.548 625.68 576.878ZM412.252 577.321C412.919 576.651 411.484 574.872 410.766 573.845C410.052 572.817 408.558 571.149 407.817 571.89C407.072 572.631 408.523 574.264 409.062 575.203C409.605 576.142 411.581 577.991 412.252 577.321ZM611.572 577.321C610.905 576.651 612.34 574.872 613.058 573.845C613.772 572.817 615.266 571.149 616.007 571.89C616.752 572.631 615.301 574.264 614.762 575.203C614.219 576.142 612.243 577.991 611.572 577.321ZM425.457 577.038C426.124 576.367 424.689 574.589 423.971 573.561C423.257 572.534 421.763 570.866 421.022 571.606C420.277 572.347 421.728 573.981 422.267 574.92C422.81 575.858 424.786 577.708 425.457 577.038ZM598.367 577.038C597.7 576.367 599.135 574.589 599.853 573.561C600.567 572.534 602.061 570.866 602.802 571.606C603.547 572.347 602.096 573.981 601.557 574.92C601.014 575.858 599.038 577.708 598.367 577.038ZM439.07 577.436C439.737 576.765 438.302 574.986 437.584 573.959C436.87 572.932 435.376 571.263 434.635 572.004C433.891 572.745 435.341 574.379 435.88 575.317C436.424 576.256 438.4 578.106 439.07 577.436ZM584.754 577.436C584.087 576.765 585.522 574.986 586.24 573.959C586.954 572.932 588.448 571.263 589.189 572.004C589.933 572.745 588.483 574.379 587.943 575.317C587.4 576.256 585.424 578.106 584.754 577.436ZM442.02 589.545C442.749 589.178 442.214 587.945 441.625 586.917C441.035 585.89 440.204 584.403 439.433 584.993C438.665 585.582 439.262 586.458 439.798 587.397C440.341 588.336 441.286 589.912 442.017 589.545H442.02ZM581.804 589.545C581.074 589.178 581.61 587.945 582.199 586.917C582.789 585.89 583.62 584.403 584.391 584.993C585.159 585.582 584.562 586.458 584.026 587.397C583.483 588.336 582.538 589.912 581.807 589.545H581.804ZM429.44 589.545C430.169 589.178 429.634 587.945 429.044 586.917C428.454 585.89 427.624 584.403 426.852 584.993C426.084 585.582 426.682 586.458 427.217 587.397C427.76 588.336 428.705 589.912 429.437 589.545H429.44ZM594.384 589.545C593.655 589.178 594.19 587.945 594.78 586.917C595.37 585.89 596.2 584.403 596.972 584.993C597.74 585.582 597.142 586.458 596.607 587.397C596.064 588.336 595.119 589.912 594.387 589.545H594.384ZM416.787 589.328C417.516 588.961 416.981 587.728 416.391 586.7C415.802 585.673 414.971 584.187 414.2 584.776C413.432 585.365 414.029 586.241 414.564 587.18C415.107 588.119 416.052 589.696 416.784 589.328H416.787ZM607.037 589.328C606.308 588.961 606.843 587.728 607.433 586.7C608.022 585.673 608.853 584.187 609.624 584.776C610.392 585.365 609.795 586.241 609.26 587.18C608.717 588.119 607.772 589.696 607.04 589.328H607.037ZM403.845 589.184C404.574 588.817 404.039 587.583 403.449 586.556C402.86 585.529 402.029 584.042 401.258 584.631C400.49 585.221 401.087 586.097 401.622 587.035C402.165 587.974 403.11 589.551 403.842 589.184H403.845ZM619.979 589.184C619.25 588.817 619.785 587.583 620.375 586.556C620.964 585.529 621.795 584.042 622.566 584.631C623.334 585.221 622.737 586.097 622.202 587.035C621.659 587.974 620.714 589.551 619.982 589.184H619.979ZM446.286 601.041C447.015 600.674 446.48 599.44 445.89 598.413C445.3 597.386 444.469 595.899 443.698 596.488C442.93 597.078 443.528 597.954 444.063 598.893C444.606 599.831 445.551 601.408 446.283 601.041H446.286ZM577.538 601.041C576.809 600.674 577.344 599.44 577.934 598.413C578.524 597.386 579.355 595.899 580.126 596.488C580.894 597.078 580.296 597.954 579.761 598.893C579.218 599.831 578.273 601.408 577.541 601.041H577.538ZM434.284 601.041C435.013 600.674 434.478 599.44 433.888 598.413C433.299 597.386 432.468 595.899 431.697 596.488C430.928 597.078 431.526 597.954 432.061 598.893C432.604 599.831 433.549 601.408 434.281 601.041H434.284ZM589.54 601.041C588.811 600.674 589.346 599.44 589.936 598.413C590.525 597.386 591.356 595.899 592.127 596.488C592.895 597.078 592.298 597.954 591.763 598.893C591.22 599.831 590.275 601.408 589.543 601.041H589.54ZM422.571 600.896C423.3 600.529 422.765 599.296 422.175 598.268C421.585 597.241 420.755 595.755 419.983 596.344C419.215 596.933 419.813 597.809 420.348 598.748C420.891 599.687 421.836 601.264 422.568 600.896H422.571ZM601.253 600.896C600.524 600.529 601.059 599.296 601.649 598.268C602.239 597.241 603.069 595.755 603.841 596.344C604.609 596.933 604.011 597.809 603.476 598.748C602.933 599.687 601.988 601.264 601.256 600.896H601.253ZM409.629 600.752C410.358 600.385 409.823 599.151 409.233 598.124C408.643 597.097 407.813 595.61 407.041 596.199C406.273 596.789 406.871 597.665 407.406 598.603C407.949 599.542 408.894 601.119 409.626 600.752H409.629ZM614.195 600.752C613.466 600.385 614.001 599.151 614.591 598.124C615.181 597.097 616.011 595.61 616.783 596.199C617.551 596.789 616.953 597.665 616.418 598.603C615.875 599.542 614.93 601.119 614.198 600.752H614.195ZM448.643 525.972C449.564 525.665 448.348 523.668 447.774 522.459C447.2 521.25 446.656 520.235 445.878 520.649C445.101 521.064 445.715 522.734 446.251 523.672C446.794 524.611 447.72 526.279 448.641 525.972H448.643ZM575.181 525.972C574.26 525.665 575.476 523.668 576.05 522.459C576.624 521.25 577.168 520.235 577.946 520.649C578.723 521.064 578.109 522.734 577.573 523.672C577.03 524.611 576.104 526.279 575.183 525.972H575.181ZM466.376 526.922C467.298 526.615 466.081 524.618 465.508 523.409C464.934 522.2 464.389 521.185 463.612 521.599C462.834 522.014 463.449 523.684 463.984 524.622C464.527 525.561 465.453 527.229 466.374 526.922H466.376ZM557.448 526.922C556.526 526.615 557.743 524.618 558.316 523.409C558.89 522.2 559.435 521.185 560.212 521.599C560.99 522.014 560.375 523.684 559.84 524.622C559.297 525.561 558.37 527.229 557.45 526.922H557.448ZM453.235 538.401C454.156 538.094 452.94 536.097 452.366 534.888C451.792 533.68 451.248 532.665 450.47 533.079C449.693 533.493 450.307 535.163 450.843 536.101C451.386 537.04 452.312 538.708 453.233 538.401H453.235ZM570.589 538.401C569.668 538.094 570.884 536.097 571.458 534.888C572.032 533.68 572.576 532.665 573.354 533.079C574.131 533.493 573.517 535.163 572.981 536.101C572.438 537.04 571.512 538.708 570.591 538.401H570.589ZM470.672 538.129C471.594 537.822 470.378 535.825 469.804 534.616C469.23 533.407 468.686 532.392 467.908 532.807C467.131 533.221 467.745 534.891 468.281 535.829C468.824 536.768 469.75 538.436 470.671 538.129H470.672ZM553.152 538.129C552.23 537.822 553.446 535.825 554.02 534.616C554.594 533.407 555.138 532.392 555.916 532.807C556.693 533.221 556.079 534.891 555.543 535.829C555 536.768 554.074 538.436 553.153 538.129H553.152ZM457.365 551.761C458.191 551.317 457.241 549.12 456.667 547.911C456.093 546.702 455.169 545.224 454.391 545.638C453.614 546.052 454.252 547.986 454.725 549.04C455.198 550.093 456.543 552.205 457.37 551.761H457.365ZM566.459 551.761C565.633 551.317 566.583 549.12 567.157 547.911C567.731 546.702 568.655 545.224 569.433 545.638C570.21 546.052 569.572 547.986 569.099 549.04C568.626 550.093 567.281 552.205 566.454 551.761H566.459ZM472.669 551.753C473.367 551.691 473.173 549.239 472.769 547.988C472.366 546.737 471.482 545.427 470.536 545.63C469.59 545.834 470.21 548.091 470.699 549.201C471.187 550.311 471.963 551.818 472.664 551.753H472.669ZM551.155 551.753C550.457 551.691 550.651 549.239 551.055 547.988C551.458 546.737 552.342 545.427 553.288 545.63C554.234 545.834 553.614 548.091 553.125 549.201C552.636 550.311 551.861 551.818 551.16 551.753H551.155ZM460.433 564.877C461.259 564.433 460.309 562.236 459.735 561.027C459.161 559.818 458.237 558.34 457.46 558.754C456.682 559.168 457.32 561.102 457.793 562.156C458.266 563.209 459.611 565.321 460.438 564.877H460.433ZM563.391 564.877C562.564 564.433 563.515 562.236 564.089 561.027C564.663 559.818 565.587 558.34 566.364 558.754C567.142 559.168 566.504 561.102 566.031 562.156C565.558 563.209 564.213 565.321 563.386 564.877H563.391ZM475.281 565.04C475.98 564.978 475.786 562.526 475.382 561.275C474.979 560.024 474.095 558.714 473.149 558.917C472.203 559.12 472.823 561.378 473.312 562.488C473.8 563.598 474.575 565.104 475.277 565.04H475.281ZM548.543 565.04C547.844 564.978 548.038 562.526 548.442 561.275C548.845 560.024 549.729 558.714 550.675 558.917C551.621 559.12 551.001 561.378 550.512 562.488C550.024 563.598 549.249 565.104 548.547 565.04H548.543ZM464.712 577.711C465.538 577.268 464.588 575.07 464.014 573.862C463.439 572.653 462.516 571.174 461.738 571.588C460.961 572.003 461.599 573.937 462.072 574.99C462.545 576.044 463.889 578.155 464.716 577.711H464.712ZM559.112 577.711C558.286 577.268 559.236 575.07 559.81 573.862C560.384 572.653 561.308 571.174 562.086 571.588C562.863 572.003 562.225 573.937 561.752 574.99C561.279 576.044 559.934 578.155 559.107 577.711H559.112ZM478.524 577.737C479.223 577.675 479.029 575.222 478.625 573.971C478.222 572.72 477.338 571.411 476.392 571.614C475.446 571.817 476.066 574.074 476.555 575.185C477.043 576.295 477.818 577.801 478.52 577.737H478.524ZM545.3 577.737C544.601 577.675 544.795 575.222 545.199 573.971C545.602 572.72 546.486 571.411 547.432 571.614C548.378 571.817 547.758 574.074 547.269 575.185C546.781 576.295 546.006 577.801 545.304 577.737H545.3ZM451.256 577.711C452.082 577.268 451.132 575.07 450.558 573.862C449.984 572.653 449.06 571.174 448.283 571.588C447.505 572.003 448.143 573.937 448.616 574.99C449.089 576.044 450.434 578.155 451.261 577.711H451.256ZM572.568 577.711C571.742 577.268 572.692 575.07 573.266 573.862C573.84 572.653 574.764 571.174 575.541 571.588C576.319 572.003 575.681 573.937 575.208 574.99C574.735 576.044 573.39 578.155 572.563 577.711H572.568ZM478.524 577.737C479.223 577.675 479.029 575.222 478.625 573.971C478.222 572.72 477.338 571.411 476.392 571.614C475.446 571.817 476.066 574.074 476.555 575.185C477.043 576.295 477.818 577.801 478.52 577.737H478.524ZM545.3 577.737C544.601 577.675 544.795 575.222 545.199 573.971C545.602 572.72 546.486 571.411 547.432 571.614C548.378 571.817 547.758 574.074 547.269 575.185C546.781 576.295 546.006 577.801 545.304 577.737H545.3ZM469.949 590.249C470.775 589.805 469.824 587.607 469.25 586.399C468.676 585.19 467.752 583.711 466.975 584.125C466.197 584.54 466.835 586.474 467.308 587.527C467.782 588.581 469.126 590.692 469.953 590.249H469.949ZM553.875 590.249C553.049 589.805 554 587.607 554.574 586.399C555.148 585.19 556.072 583.711 556.849 584.125C557.626 584.54 556.989 586.474 556.516 587.527C556.042 588.581 554.698 590.692 553.871 590.249H553.875ZM454.39 590.249C455.217 589.805 454.266 587.607 453.692 586.399C453.118 585.19 452.194 583.711 451.417 584.125C450.639 584.54 451.277 586.474 451.75 587.527C452.224 588.581 453.568 590.692 454.395 590.249H454.39ZM569.433 590.249C568.607 589.805 569.558 587.607 570.132 586.399C570.706 585.19 571.63 583.711 572.407 584.125C573.185 584.54 572.547 586.474 572.074 587.527C571.6 588.581 570.256 590.692 569.429 590.249H569.433ZM483.576 590.336C484.274 590.274 484.08 587.821 483.676 586.57C483.273 585.319 482.389 584.009 481.443 584.213C480.497 584.416 481.117 586.673 481.606 587.783C482.095 588.894 482.87 590.4 483.571 590.336H483.576ZM540.248 590.336C539.55 590.274 539.744 587.821 540.148 586.57C540.551 585.319 541.435 584.009 542.381 584.213C543.327 584.416 542.707 586.673 542.218 587.783C541.729 588.894 540.954 590.4 540.253 590.336H540.248ZM475.799 602.313C476.625 601.869 475.675 599.671 475.101 598.463C474.527 597.254 473.603 595.775 472.825 596.189C472.048 596.604 472.686 598.538 473.159 599.591C473.632 600.645 474.977 602.756 475.804 602.313H475.799ZM548.025 602.313C547.199 601.869 548.149 599.671 548.723 598.463C549.297 597.254 550.221 595.775 550.999 596.189C551.776 596.604 551.138 598.538 550.665 599.591C550.192 600.645 548.847 602.756 548.02 602.313H548.025ZM459.049 601.836C459.875 601.392 458.925 599.195 458.351 597.986C457.777 596.777 456.853 595.299 456.076 595.713C455.298 596.127 455.936 598.061 456.409 599.115C456.882 600.168 458.227 602.28 459.054 601.836H459.049ZM564.775 601.836C563.949 601.392 564.899 599.195 565.473 597.986C566.047 596.777 566.971 595.299 567.748 595.713C568.526 596.127 567.888 598.061 567.415 599.115C566.942 600.168 565.597 602.28 564.77 601.836H564.775ZM488.87 601.923C489.568 601.861 489.374 599.409 488.971 598.158C488.567 596.907 487.683 595.597 486.737 595.8C485.791 596.003 486.411 598.261 486.9 599.371C487.389 600.481 488.164 601.987 488.865 601.923H488.87ZM534.954 601.923C534.256 601.861 534.45 599.409 534.853 598.158C535.257 596.907 536.14 595.597 537.087 595.8C538.033 596.003 537.413 598.261 536.924 599.371C536.435 600.481 535.66 601.987 534.959 601.923H534.954ZM488.253 552.23C489.548 552.23 489.317 549.296 489.101 548.045C488.884 546.794 488.14 545.157 487.194 545.314C486.247 545.47 486.233 547.625 486.472 548.511C486.713 549.397 486.961 552.23 488.255 552.23H488.253ZM535.571 552.23C534.276 552.23 534.507 549.296 534.723 548.045C534.94 546.794 535.684 545.157 536.63 545.314C537.576 545.47 537.591 547.625 537.352 548.511C537.111 549.397 536.863 552.23 535.569 552.23H535.571ZM489.804 565.5C491.099 565.5 490.868 562.565 490.652 561.314C490.435 560.063 489.691 558.426 488.745 558.583C487.798 558.739 487.784 560.894 488.023 561.78C488.264 562.666 488.512 565.5 489.806 565.5H489.804ZM534.02 565.5C532.725 565.5 532.956 562.565 533.172 561.314C533.389 560.063 534.133 558.426 535.079 558.583C536.026 558.739 536.04 560.894 535.801 561.78C535.56 562.666 535.312 565.5 534.018 565.5H534.02ZM490.924 578.596C492.219 578.596 491.988 575.662 491.772 574.411C491.555 573.159 490.812 571.523 489.865 571.68C488.919 571.836 488.904 573.991 489.144 574.877C489.384 575.763 489.632 578.596 490.926 578.596H490.924ZM532.9 578.596C531.605 578.596 531.836 575.662 532.052 574.411C532.269 573.159 533.012 571.523 533.959 571.68C534.905 571.836 534.92 573.991 534.68 574.877C534.44 575.763 534.192 578.596 532.898 578.596H532.9ZM486.586 539.816C487.363 539.816 487.225 538.055 487.095 537.305C486.965 536.554 486.519 535.572 485.951 535.666C485.383 535.76 485.374 537.053 485.518 537.584C485.662 538.116 485.811 539.816 486.588 539.816H486.586ZM537.238 539.816C536.461 539.816 536.599 538.055 536.729 537.305C536.859 536.554 537.305 535.572 537.873 535.666C538.441 535.76 538.45 537.053 538.306 537.584C538.162 538.116 538.013 539.816 537.236 539.816H537.238ZM504.538 565.315C505.656 565.315 506.011 562.717 506.011 561.37C506.011 560.022 505.817 558.157 504.489 558.157C503.158 558.157 503.094 559.84 503.094 561.403C503.094 562.966 503.42 565.315 504.538 565.315ZM519.286 565.315C518.168 565.315 517.813 562.717 517.813 561.37C517.813 560.022 518.007 558.157 519.335 558.157C520.666 558.157 520.73 559.84 520.73 561.403C520.73 562.966 520.404 565.315 519.286 565.315ZM504.467 578.309C505.584 578.309 505.94 576.412 505.94 575.064C505.94 573.717 505.746 571.899 504.418 571.899C503.086 571.899 503.023 573.534 503.023 575.097C503.023 576.661 503.349 578.309 504.467 578.309ZM519.357 578.309C518.239 578.309 517.884 576.412 517.884 575.064C517.884 573.717 518.078 571.899 519.406 571.899C520.738 571.899 520.801 573.534 520.801 575.097C520.801 576.661 520.475 578.309 519.357 578.309ZM503.809 552.106C504.927 552.106 505.282 549.508 505.282 548.16C505.282 546.813 505.088 544.948 503.76 544.948C502.429 544.948 502.365 546.63 502.365 548.194C502.365 549.757 502.691 552.106 503.809 552.106ZM520.015 552.106C518.897 552.106 518.542 549.508 518.542 548.16C518.542 546.813 518.736 544.948 520.064 544.948C521.395 544.948 521.459 546.63 521.459 548.194C521.459 549.757 521.133 552.106 520.015 552.106ZM511.909 541.238C510.111 541.241 507.227 541.386 507.227 542.511C507.227 543.618 510.139 543.92 511.909 543.935C513.678 543.92 516.591 543.618 516.591 542.511C516.591 541.386 513.706 541.241 511.909 541.238ZM511.909 554.693C510.111 554.696 507.227 554.842 507.227 555.966C507.227 557.073 510.139 557.375 511.909 557.391C513.678 557.375 516.591 557.073 516.591 555.966C516.591 554.841 513.706 554.696 511.909 554.693ZM511.197 579.65C509.44 579.696 507.227 579.923 507.227 580.907C507.227 582.014 510.139 582.332 511.909 582.347C513.678 582.331 516.591 582.014 516.591 580.907C516.591 579.782 513.706 579.652 511.909 579.65C511.684 579.65 511.451 579.644 511.195 579.65H511.197ZM495.515 590.336C496.214 590.274 496.02 587.821 495.616 586.57C495.213 585.319 494.329 584.009 493.383 584.213C492.437 584.416 493.057 586.673 493.546 587.783C494.034 588.894 494.809 590.4 495.511 590.336H495.515ZM528.309 590.336C527.61 590.274 527.804 587.821 528.208 586.57C528.611 585.319 529.495 584.009 530.441 584.213C531.387 584.416 530.767 586.673 530.278 587.783C529.79 588.894 529.015 590.4 528.313 590.336H528.309ZM500.809 601.923C501.508 601.861 501.314 599.409 500.91 598.158C500.507 596.907 499.623 595.597 498.677 595.8C497.731 596.003 498.351 598.261 498.84 599.371C499.328 600.481 500.103 601.987 500.805 601.923H500.809ZM523.015 601.923C522.316 601.861 522.51 599.409 522.914 598.158C523.317 596.907 524.201 595.597 525.147 595.8C526.093 596.003 525.473 598.261 524.984 599.371C524.496 600.481 523.721 601.987 523.019 601.923H523.015Z" fill="#262625"/>
<path d="M355.971 500.855C348.974 498.731 339.004 495.134 322.109 490.571C302.292 485.22 271.005 476.931 240.147 469.888C236.743 481.647 235.927 486.663 236.883 492.112C238.778 502.917 320.377 511.384 333.499 511.869C343.167 512.226 371.175 505.469 355.971 500.855ZM667.852 500.855C674.85 498.731 684.82 495.134 701.715 490.571C721.532 485.22 752.819 476.931 783.677 469.888C787.08 481.647 787.896 486.663 786.941 492.112C785.045 502.917 703.447 511.384 690.325 511.869C680.657 512.226 652.649 505.469 667.852 500.855ZM287.591 550.743C282.32 545.211 239.135 534.857 235.079 537.237C231.022 539.618 229.595 560.915 231.672 568.324C231.99 569.45 234.297 574.066 237.231 575.268C253.603 581.973 303.02 585.627 305.407 584.133C308.222 582.372 292.862 556.275 287.591 550.743ZM736.233 550.743C741.504 545.211 784.688 534.857 788.745 537.237C792.802 539.618 794.229 560.915 792.152 568.324C791.834 569.45 789.526 574.066 786.592 575.268C770.221 581.973 720.804 585.627 718.417 584.133C715.602 582.372 730.962 556.275 736.233 550.743Z" fill="#262625"/>
</g>
<defs>
<clipPath id="clip0_641_24940">
<rect width="1024" height="1024" fill="white"/>
</clipPath>
</defs>
</svg>
