<svg width="1024" height="1024" viewBox="0 0 1024 1024" fill="none" xmlns="http://www.w3.org/2000/svg">
<g clip-path="url(#clip0_611_11283)">
<g clip-path="url(#clip1_611_11283)">
<path d="M819.912 680.008C811.729 682.547 764.184 697.559 764.184 697.559L765.233 725.268C765.9 735.056 773.179 742.842 779.109 742.818L818.459 742.658C832.162 742.604 839.794 734.972 841.029 716.528C843.197 684.148 843.741 647.276 843.741 647.276C829.915 648.787 828.12 677.461 819.912 680.008ZM204.85 680.008C196.643 677.461 194.848 648.787 181.021 647.276C181.021 647.276 181.564 684.148 183.733 716.528C184.968 734.972 192.6 742.604 206.303 742.658L245.654 742.818C251.583 742.841 258.863 735.056 259.53 725.268L260.579 697.559C260.579 697.559 213.033 682.547 204.85 680.008ZM438.222 259.069C479.162 258.087 545.566 258.084 586.506 259.063C637.719 260.287 655.783 262.158 676.385 264.724C704.768 268.259 735.404 357.478 762.853 400.726C767.641 406.318 777.413 407.364 780.784 412.718C788.876 425.573 793.536 441.017 799.873 455.79C805.243 468.311 810.212 487.842 811.106 507.001C813.027 548.144 805.896 636.185 799.672 647.518C793.448 658.851 724.503 664.853 709.537 665.005C701.746 665.084 648.117 666.085 598.487 667.027C550.932 667.93 473.831 667.934 426.277 667.035C376.647 666.097 323.017 665.101 315.227 665.022C300.261 664.872 231.315 658.876 225.09 647.543C218.865 636.211 211.726 548.17 213.643 507.027C214.536 487.868 219.503 468.337 224.872 455.815C231.208 441.041 235.866 425.597 243.958 412.741C247.328 407.387 257.1 406.34 261.888 400.748C289.333 357.498 319.962 268.276 348.344 264.738C368.945 262.17 387.01 260.298 438.222 259.069ZM438.226 220.023C378.867 221.9 349.321 225.045 327.331 227.576C297.627 230.99 261.12 329.366 233.674 372.617C228.887 378.209 215.331 379.743 211.961 385.097C203.869 397.953 192.781 413.459 186.445 428.233C181.076 440.755 171.134 472.274 170.241 491.433C168.324 532.577 178.305 663.715 184.53 675.047C190.755 686.38 259.363 703.443 274.329 703.594C282.946 703.68 361.444 704.929 426.275 705.974C473.831 706.747 550.936 706.743 598.493 705.966C663.323 704.916 741.82 703.66 750.438 703.573C765.404 703.421 834.01 686.352 840.235 675.019C846.458 663.686 856.429 532.547 854.508 491.403C853.613 472.244 843.668 440.726 838.298 428.205C831.961 413.431 820.871 397.926 812.778 385.071C809.408 379.717 795.852 378.184 791.064 372.593C763.614 329.344 727.099 230.971 697.394 227.56C675.404 225.031 645.857 221.888 586.497 220.017C545.567 218.727 479.157 218.73 438.226 220.023ZM788.893 324.825C782.191 327.251 784.428 336.83 784.432 344.244C780.687 344.626 777.076 344.418 772.921 344.68C774.201 350.564 775.573 354.711 778.216 359.7C782.718 359.77 785.983 358.218 790.833 359.348C791.166 360.4 793.415 363.859 798.119 364.118C809.523 364.745 826.965 362.086 833.827 360.084C840.69 358.082 846.774 352.032 844.945 346.581C836.443 321.238 793.354 323.211 788.893 324.825ZM235.869 324.825C231.409 323.211 188.319 321.238 179.817 346.581C177.989 352.032 184.073 358.082 190.935 360.084C197.797 362.086 215.239 364.744 226.644 364.118C231.347 363.859 233.593 360.4 233.93 359.348C238.78 358.218 242.045 359.766 246.547 359.7C249.189 354.711 250.562 350.564 251.842 344.68C247.687 344.418 244.076 344.626 240.33 344.244C240.335 336.83 242.572 327.251 235.869 324.825ZM512.399 571.888C488.416 571.958 421.544 574.474 353.293 574.474C306.199 574.474 266.259 628.942 260.818 630.396C247.936 633.837 219.189 626.561 219.57 631.532C219.771 634.152 217.347 649.923 232.726 657.004C246.525 663.358 277.858 661.078 284.903 663.317C299.544 667.971 505.363 668.328 512.399 668.339C519.435 668.331 725.255 667.971 739.896 663.317C746.94 661.078 778.274 663.358 792.072 657.004C807.452 649.923 805.027 634.152 805.229 631.532C805.609 626.561 776.862 633.837 763.981 630.396C758.539 628.942 718.599 574.474 671.505 574.474C603.255 574.474 536.382 571.958 512.399 571.888ZM616.84 467.898C607.694 467.937 599.63 468.098 597.156 468.323C594.035 468.607 590.691 470.784 587.595 473.505C584.5 476.226 581.682 479.424 581.656 483.157L581.415 517.75V517.523C581.415 517.523 581.151 519.468 581.78 521.568C582.09 522.619 582.658 523.783 583.704 524.705C584.749 525.627 586.247 526.205 587.992 526.205C590.507 526.205 603.225 526.63 616.024 526.72C622.423 526.767 628.885 526.728 634.222 526.508C639.56 526.288 643.542 526.02 646.011 525.084C650.045 523.555 655.841 519.661 661.391 515.083C666.94 510.506 672.079 505.434 674.316 500.961C676.339 496.915 678.129 491.928 679.043 487.415C679.501 485.159 679.749 483.026 679.649 481.112C679.548 479.197 679.144 477.398 677.83 476.066C676.42 474.635 674.472 474.02 671.83 473.232C669.188 472.444 665.923 471.719 662.42 471.065C655.415 469.759 647.452 468.764 641.722 468.368C635.961 467.971 625.972 467.862 616.827 467.898H616.84ZM616.84 471.777C625.943 471.739 635.952 471.855 641.448 472.232C646.975 472.613 654.874 473.609 661.707 474.884C665.122 475.52 668.278 476.235 670.707 476.959C673.136 477.684 674.922 478.642 675.071 478.793C675.32 479.043 675.692 479.906 675.77 481.323C675.847 482.74 675.653 484.616 675.242 486.657C674.414 490.74 672.706 495.501 670.847 499.218C669.202 502.509 664.261 507.679 658.922 512.083C653.584 516.487 647.69 520.304 644.633 521.462C643.557 521.87 639.283 522.413 634.057 522.629C628.831 522.845 622.421 522.886 616.056 522.841C603.325 522.751 590.913 522.326 587.994 522.326C587.022 522.326 586.603 522.092 586.266 521.795C585.933 521.498 585.661 521.021 585.49 520.447C585.149 519.297 585.265 517.992 585.265 517.992C585.269 517.921 585.269 517.851 585.265 517.78L585.506 483.187C585.506 481.842 587.429 478.785 590.127 476.414C592.826 474.042 596.343 472.29 597.491 472.186C599.288 472.023 607.723 471.814 616.826 471.777H616.84ZM659.378 224.097C651.275 228.708 706.4 241.406 698.963 227.834C684.77 201.932 667.48 219.486 659.378 224.097ZM365.385 224.097C357.283 219.486 339.992 201.932 325.8 227.834C318.363 241.406 373.488 228.708 365.385 224.097ZM234.267 563.905C232.29 558.778 234.367 560.465 224.076 555.103C224.076 572.166 229.066 604.362 229.066 617.826C233.807 615.546 234.725 615.968 237.434 614.005C240.775 611.584 236.244 569.032 234.267 563.905ZM790.496 563.905C792.473 558.778 790.395 560.465 800.686 555.103C800.686 572.166 795.696 604.362 795.696 617.826C790.955 615.546 790.038 615.968 787.328 614.005C783.988 611.584 788.519 569.032 790.496 563.905Z" fill="#262625"/>
<path d="M291.343 511.493C281.107 502.426 232.732 490.446 222.443 485.084C222.443 501.994 221.504 521.997 221.504 535.461C227.092 544.715 301.38 552.914 314.619 549.741C318.632 548.779 301.579 520.56 291.343 511.493ZM733.417 511.493C743.654 502.426 792.029 490.446 802.318 485.084C802.318 501.994 803.257 521.997 803.257 535.461C797.669 544.715 723.381 552.914 710.142 549.741C706.129 548.779 723.181 520.56 733.417 511.493ZM236.009 432.816C235.427 434.005 232.672 446.012 236.63 449.504C245.562 457.39 288.276 460.957 304.607 461.725C317.67 462.339 345.613 466.404 347.342 458.331C349.087 450.182 239.964 424.785 236.013 432.816H236.009ZM788.752 432.816C789.334 434.005 792.089 446.012 788.131 449.504C779.199 457.39 736.485 460.957 720.153 461.725C707.09 462.339 679.147 466.404 677.419 458.331C675.674 450.182 784.797 424.785 788.748 432.816H788.752Z" fill="#262625"/>
</g>
</g>
<defs>
<clipPath id="clip0_611_11283">
<rect width="1024" height="1024" fill="white"/>
</clipPath>
<clipPath id="clip1_611_11283">
<rect width="1024" height="1024" fill="white" transform="translate(0 -34)"/>
</clipPath>
</defs>
</svg>
