<svg width="1024" height="1024" viewBox="0 0 1024 1024" fill="none" xmlns="http://www.w3.org/2000/svg">
<g clip-path="url(#clip0_315_16996)">
<path d="M802.511 716.248C776.951 717.354 758.162 717.933 758.162 717.933L759.211 752.211C759.878 761.998 767.158 769.854 773.087 769.76L803.604 769.279C817.304 769.062 826.35 761.828 827.585 743.383C829.752 711.003 828.687 696.411 828.687 696.411C820.128 697.346 817.939 715.58 802.511 716.248ZM194.339 696.411C194.339 696.411 193.274 711.003 195.441 743.383C196.676 761.828 205.721 769.062 219.422 769.279L249.939 769.76C255.868 769.854 263.147 761.998 263.815 752.211L264.864 717.933C264.864 717.933 246.075 717.355 220.514 716.248C205.087 715.58 202.897 697.346 194.339 696.411ZM585.63 294.726C642.089 296.709 664.875 300.231 670.087 304.277C677.159 309.768 726.218 365.192 737.562 412.509C751.127 431.102 749.982 434.217 758.773 451.488C761.372 456.594 789.701 479.776 794.349 515.864C799.215 553.646 794.745 675.808 792.518 680.018C790.293 684.228 743.679 685.286 728.713 685.438C720.474 685.522 654.913 685.976 597.632 686.368C550.07 686.694 472.957 686.697 425.394 686.376C368.114 685.989 302.552 685.54 294.314 685.457C279.348 685.306 232.733 684.253 230.508 680.043C228.283 675.833 223.8 553.671 228.663 515.889C233.307 479.8 261.634 456.615 264.233 451.509C273.023 434.237 271.878 431.123 285.44 412.528C296.781 365.21 345.835 309.783 352.907 304.29C358.118 300.244 380.903 296.72 437.362 294.733C478.288 293.292 544.704 293.289 585.63 294.726ZM437.369 256.281C371.953 259.032 335.37 264.224 330.053 268.353C322.982 273.845 262.244 352.483 250.903 399.801C237.34 418.396 240.664 417.91 231.875 435.182C229.276 440.288 195.475 471.121 190.83 507.209C185.968 544.991 192.084 710.209 194.31 714.419C196.535 718.629 279.348 723.862 294.314 724.012C302.552 724.095 368.115 724.544 425.396 724.931C472.958 725.252 550.072 725.249 597.634 724.924C654.915 724.532 720.478 724.077 728.716 723.993C743.682 723.842 826.494 718.602 828.719 714.392C830.945 710.181 837.047 544.963 832.181 507.181C827.533 471.093 793.729 440.263 791.13 435.157C782.339 417.886 785.663 418.372 772.099 399.778C760.754 352.462 700.009 273.829 692.937 268.337C687.62 264.209 651.036 259.019 585.619 256.275C544.706 254.572 478.283 254.575 437.369 256.281ZM781.962 423.845C808.436 421.291 828.018 417.666 830.428 411.602C833.045 405.012 833.699 389.383 829.994 387.031C822.778 382.452 799.716 377.017 789.392 379.545C779.067 382.073 783.606 409.234 781.962 423.845ZM233.634 379.545C223.31 377.017 200.248 382.452 193.032 387.031C189.327 389.383 189.981 405.012 192.598 411.602C195.008 417.666 214.59 421.291 241.064 423.845C239.42 409.234 243.959 382.073 233.634 379.545ZM454.335 654.547C406.943 652.588 342.725 648.535 313.033 640.439C290.776 621.288 258.436 619.164 254.56 620.138C250.683 621.112 250.125 650.403 250.125 650.403C250.125 650.403 301.121 659.828 326.122 660.899C341.943 661.578 412.066 664.284 461.43 666.181C489.1 667.244 533.962 667.244 561.632 666.181C610.996 664.284 681.119 661.577 696.94 660.899C721.941 659.828 772.937 650.403 772.937 650.403C772.937 650.403 772.378 621.112 768.502 620.138C764.626 619.164 732.285 621.288 710.029 640.439C680.336 648.535 616.114 652.588 568.723 654.548C537.15 655.853 485.91 655.853 454.335 654.547ZM511.549 650.129C511.549 650.129 556.798 651.767 590.697 647.032C624.595 642.297 645.714 580.622 657.11 573.06C668.505 565.498 773.805 529.88 774.255 523.798C774.705 517.717 683.393 510.033 683.393 510.033C683.393 510.033 642.562 524.367 595.366 527.585C548.169 530.803 511.531 531.176 511.531 531.176C511.531 531.176 474.892 530.803 427.695 527.585C380.499 524.367 339.668 510.033 339.668 510.033C339.668 510.033 248.36 517.717 248.806 523.798C249.256 529.88 354.556 565.498 365.952 573.06C377.348 580.622 398.466 642.297 432.365 647.032C466.263 651.767 511.513 650.129 511.513 650.129" fill="#262625"/>
<path d="M645.879 549.516C645.879 549.516 763.376 535.994 774.218 523.799C780.254 517.012 779.996 483.525 773.597 477.797C769.45 474.084 686.277 508.401 673.423 514.803C660.568 521.205 645.88 549.516 645.88 549.516H645.879ZM377.146 549.516C377.146 549.516 362.458 521.205 349.603 514.803C336.749 508.401 253.576 474.084 249.428 477.797C243.029 483.525 242.772 517.012 248.808 523.799C259.65 535.994 377.147 549.516 377.147 549.516H377.146Z" fill="#262625"/>
</g>
<defs>
<clipPath id="clip0_315_16996">
<rect width="1024" height="1024" fill="white"/>
</clipPath>
</defs>
</svg>
