<svg width="36" height="36" viewBox="0 0 36 36" fill="none" xmlns="http://www.w3.org/2000/svg">
<g clip-path="url(#clip0_823_1987)">
<path d="M29.575 27.1564C28.566 27.2001 27.8243 27.2229 27.8243 27.2229L27.8657 28.576C27.8921 28.9623 28.1794 29.2724 28.4135 29.2688L29.6181 29.2497C30.1589 29.2412 30.5159 28.9556 30.5647 28.2275C30.6503 26.9494 30.6082 26.3733 30.6082 26.3733C30.2704 26.4102 30.184 27.13 29.575 27.1564ZM5.56816 26.3733C5.56816 26.3733 5.52612 26.9494 5.61168 28.2275C5.66043 28.9556 6.01748 29.2412 6.5583 29.2497L7.76289 29.2688C7.99695 29.2725 8.28429 28.9623 8.31063 28.576L8.35203 27.2229C8.35203 27.2229 7.61039 27.2001 6.60141 27.1564C5.99243 27.13 5.90601 26.4102 5.56816 26.3733ZM21.0138 10.5174C23.2425 10.5956 24.142 10.7346 24.3477 10.8944C24.6269 11.1111 26.5633 13.2989 27.0112 15.1667C27.5466 15.9006 27.5015 16.0236 27.8484 16.7053C27.951 16.9069 29.0693 17.822 29.2528 19.2465C29.4449 20.7378 29.2684 25.56 29.1805 25.7262C29.0927 25.8924 27.2526 25.9342 26.6619 25.9402C26.3367 25.9436 23.7487 25.9614 21.4877 25.9769C19.6102 25.9898 16.5663 25.9899 14.6888 25.9773C12.4277 25.9619 9.83975 25.9442 9.51455 25.9409C8.92379 25.935 7.08374 25.8934 6.9959 25.7272C6.90805 25.561 6.7311 20.7389 6.92305 19.2475C7.1064 17.8229 8.22457 16.9077 8.32716 16.7062C8.6741 16.0244 8.6289 15.9014 9.16427 15.1674C9.61194 13.2996 11.5483 11.1117 11.8274 10.8949C12.0331 10.7352 12.9326 10.5961 15.1612 10.5176C16.7767 10.4608 19.3984 10.4606 21.0138 10.5174ZM15.1614 8.9998C12.5793 9.10836 11.1352 9.31333 10.9253 9.47632C10.6462 9.69312 8.24862 12.7973 7.80096 14.6651C7.26559 15.399 7.3968 15.3799 7.04985 16.0617C6.94727 16.2632 5.61302 17.4803 5.42968 18.9049C5.23772 20.3963 5.47916 26.918 5.56702 27.0842C5.65485 27.2504 8.92379 27.4569 9.51455 27.4629C9.83975 27.4661 12.4278 27.4839 14.6889 27.4991C16.5663 27.5118 19.6103 27.5117 21.4877 27.4989C23.7489 27.4834 26.3368 27.4654 26.662 27.4622C27.2527 27.4562 30.5217 27.2493 30.6095 27.0831C30.6973 26.9169 30.9382 20.3951 30.7462 18.9038C30.5627 17.4792 29.2283 16.2622 29.1257 16.0607C28.7787 15.3789 28.9099 15.3981 28.3745 14.6642C27.9267 12.7964 25.5288 9.69247 25.2497 9.47569C25.0398 9.31273 23.5957 9.10788 21.0135 8.99953C19.3984 8.93234 16.7765 8.93246 15.1614 8.9998ZM28.7638 15.6142C29.8089 15.5133 30.5818 15.3702 30.6769 15.1309C30.7803 14.8708 30.8061 14.2538 30.6598 14.161C30.375 13.9802 29.4646 13.7657 29.0571 13.8655C28.6495 13.9653 28.8287 15.0374 28.7638 15.6142ZM7.1193 13.8655C6.71175 13.7657 5.80142 13.9802 5.51659 14.161C5.37033 14.2538 5.39614 14.8708 5.49944 15.1309C5.59459 15.3702 6.36754 15.5133 7.41258 15.6142C7.34768 15.0374 7.52684 13.9653 7.1193 13.8655ZM15.8312 24.7209C13.9605 24.6435 11.4255 24.4835 10.2534 24.164C9.3749 23.408 8.09831 23.3241 7.94532 23.3626C7.79228 23.401 7.77024 24.5572 7.77024 24.5572C7.77024 24.5572 9.78324 24.9293 10.7701 24.9716C11.3946 24.9983 14.1627 25.1052 16.1112 25.1801C17.2035 25.222 18.9743 25.222 20.0665 25.1801C22.0151 25.1052 24.7831 24.9983 25.4076 24.9716C26.3945 24.9293 28.4076 24.5572 28.4076 24.5572C28.4076 24.5572 28.3855 23.401 28.2325 23.3626C28.0795 23.3241 26.8029 23.408 25.9243 24.164C24.7523 24.4835 22.2172 24.6435 20.3465 24.7209C19.1002 24.7724 17.0776 24.7724 15.8312 24.7209ZM16.7589 19.8142C16.212 19.7932 15.5297 19.7603 14.7796 19.7092C12.9166 19.5821 11.3049 19.0163 11.3049 19.0163C11.3049 19.0163 7.7006 19.3196 7.71821 19.5597C7.73597 19.7998 11.8925 21.2057 12.3424 21.5043C12.7922 21.8027 13.6258 24.2373 14.9639 24.4241C15.7888 24.5394 16.7893 24.559 17.4345 24.5571C17.7959 24.5562 18.382 24.5562 18.7435 24.5571C19.3887 24.5589 20.3891 24.5393 21.2139 24.4241C22.552 24.2373 23.3856 21.8027 23.8354 21.5043C24.2853 21.2057 28.4418 19.7998 28.4596 19.5597C28.4773 19.3196 24.8729 19.0163 24.8729 19.0163C24.8729 19.0163 23.2612 19.5821 21.3982 19.7092C20.6479 19.7603 19.9655 19.7932 19.4185 19.8142C18.6845 19.8426 17.4931 19.8426 16.7589 19.8142Z" fill="#252524"/>
<path d="M23.3928 20.5744C23.3928 20.5744 28.0308 20.0408 28.4588 19.5593C28.697 19.2914 28.6869 17.9696 28.4343 17.7435C28.2705 17.5969 24.9874 18.9515 24.4801 19.2042C23.9726 19.457 23.3928 20.5744 23.3928 20.5744ZM12.7849 20.5744C12.7849 20.5744 12.2051 19.457 11.6977 19.2042C11.1903 18.9515 7.90714 17.5969 7.74342 17.7435C7.49084 17.9696 7.48066 19.2914 7.71892 19.5593C8.14689 20.0408 12.7849 20.5744 12.7849 20.5744Z" fill="#252524"/>
</g>
<defs>
<clipPath id="clip0_823_1987">
<rect width="25.4615" height="21.915" fill="white" transform="translate(5.35938 7.35547)"/>
</clipPath>
</defs>
</svg>
