<svg width="1024" height="1024" viewBox="0 0 1024 1024" fill="none" xmlns="http://www.w3.org/2000/svg">
<g clip-path="url(#clip0_485_12564)">
<g clip-path="url(#clip1_485_12564)">
<path d="M802.511 690.248C776.951 691.354 758.162 691.933 758.162 691.933L759.211 726.211C759.878 735.998 767.158 743.854 773.087 743.76L803.604 743.279C817.304 743.062 826.35 735.828 827.585 717.383C829.752 685.003 828.687 670.411 828.687 670.411C820.128 671.346 817.939 689.58 802.511 690.248ZM194.339 670.411C194.339 670.411 193.274 685.003 195.441 717.383C196.676 735.828 205.721 743.062 219.422 743.279L249.939 743.76C255.868 743.854 263.147 735.998 263.815 726.211L264.864 691.933C264.864 691.933 246.075 691.355 220.514 690.248C205.087 689.58 202.897 671.346 194.339 670.411ZM585.63 268.726C642.089 270.709 664.875 274.231 670.087 278.277C677.159 283.768 726.218 339.192 737.562 386.509C751.127 405.102 749.982 408.217 758.773 425.488C761.372 430.594 789.701 453.776 794.349 489.864C799.215 527.646 794.745 649.808 792.518 654.018C790.293 658.228 743.679 659.286 728.713 659.438C720.474 659.522 654.913 659.976 597.632 660.368C550.07 660.694 472.957 660.697 425.394 660.376C368.114 659.989 302.552 659.54 294.314 659.457C279.348 659.306 232.733 658.253 230.508 654.043C228.283 649.833 223.8 527.671 228.663 489.889C233.307 453.8 261.634 430.615 264.233 425.509C273.023 408.237 271.878 405.123 285.44 386.528C296.781 339.21 345.835 283.783 352.907 278.29C358.118 274.244 380.903 270.72 437.362 268.733C478.288 267.292 544.704 267.289 585.63 268.726ZM437.369 230.281C371.953 233.032 335.37 238.224 330.053 242.353C322.982 247.845 262.244 326.483 250.903 373.801C237.34 392.396 240.664 391.91 231.875 409.182C229.276 414.288 195.475 445.121 190.83 481.209C185.968 518.991 192.084 684.209 194.31 688.419C196.535 692.629 279.348 697.862 294.314 698.012C302.552 698.095 368.115 698.544 425.396 698.931C472.958 699.252 550.072 699.249 597.634 698.924C654.915 698.532 720.478 698.077 728.716 697.993C743.682 697.842 826.494 692.602 828.719 688.392C830.945 684.181 837.047 518.963 832.181 481.181C827.533 445.093 793.729 414.263 791.13 409.157C782.339 391.886 785.663 392.372 772.099 373.778C760.754 326.462 700.009 247.829 692.937 242.337C687.62 238.209 651.036 233.019 585.619 230.275C544.706 228.572 478.283 228.575 437.369 230.281ZM781.962 397.845C808.436 395.291 828.018 391.666 830.428 385.602C833.045 379.012 833.699 363.383 829.994 361.031C822.778 356.452 799.716 351.017 789.392 353.545C779.067 356.073 783.606 383.234 781.962 397.845ZM233.634 353.545C223.31 351.017 200.248 356.452 193.032 361.031C189.327 363.383 189.981 379.012 192.598 385.602C195.008 391.666 214.59 395.291 241.064 397.845C239.42 383.234 243.959 356.073 233.634 353.545ZM454.335 628.547C406.943 626.588 342.725 622.535 313.033 614.439C290.776 595.288 258.436 593.164 254.56 594.138C250.683 595.112 250.125 624.403 250.125 624.403C250.125 624.403 301.121 633.828 326.122 634.899C341.943 635.578 412.066 638.284 461.43 640.181C489.1 641.244 533.962 641.244 561.632 640.181C610.996 638.284 681.119 635.577 696.94 634.899C721.941 633.828 772.937 624.403 772.937 624.403C772.937 624.403 772.378 595.112 768.502 594.138C764.626 593.164 732.285 595.288 710.029 614.439C680.336 622.535 616.114 626.588 568.723 628.548C537.15 629.853 485.91 629.853 454.335 628.547ZM511.549 624.129C511.549 624.129 556.798 625.767 590.697 621.032C624.595 616.297 645.714 554.622 657.11 547.06C668.505 539.498 773.805 503.88 774.255 497.798C774.705 491.717 683.393 484.033 683.393 484.033C683.393 484.033 642.562 498.367 595.366 501.585C548.169 504.803 511.531 505.176 511.531 505.176C511.531 505.176 474.892 504.803 427.695 501.585C380.499 498.367 339.668 484.033 339.668 484.033C339.668 484.033 248.36 491.717 248.806 497.798C249.257 503.88 354.556 539.498 365.952 547.06C377.348 554.622 398.466 616.297 432.365 621.032C466.263 625.767 511.513 624.129 511.513 624.129" fill="#262625"/>
<path d="M645.879 523.516C645.879 523.516 763.376 509.994 774.218 497.799C780.254 491.012 779.996 457.525 773.597 451.797C769.45 448.084 686.277 482.401 673.423 488.803C660.568 495.205 645.88 523.516 645.88 523.516H645.879ZM377.146 523.516C377.146 523.516 362.458 495.205 349.603 488.803C336.749 482.401 253.576 448.084 249.428 451.797C243.029 457.525 242.772 491.012 248.808 497.799C259.65 509.994 377.147 523.516 377.147 523.516H377.146Z" fill="#262625"/>
</g>
</g>
<defs>
<clipPath id="clip0_485_12564">
<rect width="1024" height="1024" fill="white"/>
</clipPath>
<clipPath id="clip1_485_12564">
<rect width="1024" height="1024" fill="white" transform="translate(0 -26)"/>
</clipPath>
</defs>
</svg>
