<svg width="36" height="36" viewBox="0 0 36 36" fill="none" xmlns="http://www.w3.org/2000/svg">
<g clip-path="url(#clip0_257_8026)">
<path d="M29.2787 26.938C28.9404 26.938 27.1978 27.3433 27.1978 27.3433L27.2155 28.1121C27.2418 28.4985 27.5292 28.8058 27.7632 28.8048L29.2214 28.7985C29.7623 28.7961 30.0636 28.4951 30.1123 27.7671C30.1979 26.4888 30.2194 26.1928 30.2194 26.1928C29.6736 26.2525 29.618 26.938 29.2788 26.938H29.2787ZM6.31649 26.938H6.31637C5.97715 26.938 5.92154 26.2525 5.37576 26.1928C5.37576 26.1928 5.3972 26.4888 5.48282 27.7671C5.53157 28.4951 5.83285 28.7961 6.37373 28.7985L7.83193 28.8048C8.06599 28.8058 8.35333 28.4985 8.37967 28.1121L8.39743 27.3433C8.39743 27.3433 6.65471 26.938 6.31649 26.938ZM14.8704 11.347C16.4862 11.2985 19.1074 11.2984 20.7228 11.3467C22.2737 11.3931 22.4551 11.4639 23.193 11.5743C24.2492 11.7323 25.9535 14.763 26.7331 16.5136C27.4597 17.1115 28.9685 18.523 28.9954 20.2623C29.0204 21.9003 28.8838 25.2052 28.6316 25.4765C28.3796 25.7478 24.7858 26.2902 24.4166 26.3184C24.242 26.3317 22.7362 26.3555 21.1968 26.3769C19.3195 26.4029 16.2758 26.403 14.3987 26.3771C12.8592 26.3559 11.3532 26.3322 11.1786 26.319C10.8095 26.2908 7.21557 25.7488 6.96347 25.4775C6.71138 25.2061 6.57422 21.9012 6.59932 20.2632C6.62597 18.524 8.13469 17.1124 8.86121 16.5144C9.64078 14.7637 11.3448 11.7328 12.401 11.5747C13.1387 11.4643 13.3202 11.3935 14.8704 11.347ZM14.8703 9.83623C12.9529 9.89234 12.3731 9.9813 11.6123 10.0952C10.5561 10.2533 8.45679 13.7452 7.67722 15.4959C6.95069 16.0939 5.13112 17.8624 5.10438 19.6015C5.07927 21.2395 5.23982 26.7876 5.49191 27.0589C5.74401 27.3303 10.8095 27.8335 11.1786 27.8617C11.3532 27.8749 12.8592 27.8987 14.3987 27.9199C16.2759 27.9457 19.3196 27.9456 21.1969 27.9196C22.7363 27.8982 24.2422 27.8745 24.4168 27.8611C24.7859 27.8329 29.8513 27.3292 30.1034 27.0579C30.3554 26.7865 30.5155 21.2385 30.4903 19.6005C30.4633 17.8613 28.6436 16.0929 27.917 15.495C27.1374 13.7444 25.0378 10.2527 23.9815 10.0947C23.2207 9.98083 22.6409 9.89192 20.7233 9.83597C19.1076 9.78863 16.4862 9.78874 14.8703 9.83623ZM27.6307 13.867C27.5136 13.9963 27.9116 15.0421 27.6086 15.4212C27.7717 15.5934 28.0418 15.6732 28.1461 15.8702C28.6145 15.3403 28.7233 15.1457 28.8554 15.0882C29.0362 15.0096 29.1534 15.0361 29.2348 14.9456C29.455 14.7007 29.6582 14.31 29.5561 14.2063C29.2715 13.917 27.7478 13.7377 27.6307 13.867ZM7.96443 13.867C7.84736 13.7377 6.32369 13.917 6.03898 14.2063C5.93691 14.31 6.14022 14.7007 6.36034 14.9456C6.44177 15.0361 6.55904 15.0096 6.73966 15.0882C6.87183 15.1457 6.98067 15.3403 7.44899 15.8702C7.55331 15.6732 7.82344 15.5934 7.98651 15.4212C7.68355 15.0421 8.08147 13.9963 7.96443 13.867ZM15.5395 23.5435C14.0968 23.536 12.476 23.5341 12.3666 23.562C12.1669 23.6129 10.2328 25.5774 10.3756 25.6009C10.5157 25.624 17.5309 25.7316 17.7983 25.7357C18.0656 25.7316 25.0808 25.624 25.2209 25.6009C25.3637 25.5774 23.4296 23.6129 23.23 23.562C23.1205 23.5341 21.4994 23.536 20.0567 23.5435C18.8094 23.55 16.787 23.55 15.5395 23.5435ZM15.7966 20.0525C14.5169 20.0746 13.3139 20.1037 13.2044 20.1111C13.0349 20.1223 14.1098 21.4462 14.3877 21.5806C14.5083 21.6389 15.1675 21.6715 15.8754 21.6898C16.9371 21.7173 18.6595 21.7173 19.7212 21.6898C20.429 21.6715 21.0882 21.6389 21.2088 21.5806C21.4867 21.4462 22.5617 20.1223 22.3921 20.1111C22.2826 20.1037 21.0796 20.0746 19.7999 20.0525C18.6946 20.0335 16.902 20.0335 15.7966 20.0525Z" fill="#262625"/>
<path d="M11.6289 19.8291C10.082 19.476 8.52984 18.9635 7.57138 18.7491C7.60907 19.808 7.6913 20.8754 7.97004 21.0672C8.24881 21.2591 9.20254 20.8745 9.43338 20.9268C9.66422 20.9792 12.0702 21.371 12.5526 21.4471C12.1574 20.6693 11.6289 19.8291 11.6289 19.8291ZM23.9663 19.8291C25.5131 19.476 27.0653 18.9635 28.0237 18.7491C27.986 19.808 27.9038 20.8754 27.6251 21.0672C27.3463 21.2591 26.3925 20.8745 26.1618 20.9268C25.9309 20.9792 23.5249 21.371 23.0425 21.4471C23.4378 20.6693 23.9663 19.8291 23.9663 19.8291ZM10.3681 23.5388C9.74785 23.4647 7.77223 23.1875 7.09033 22.9041C7.12066 23.3557 7.19087 24.3615 7.22542 24.8345C7.97154 24.9299 9.05798 24.9231 9.1889 24.8856C9.31982 24.8481 10.1279 23.9107 10.3681 23.5388ZM25.227 23.5388C25.8473 23.4647 27.8228 23.1875 28.5048 22.9041C28.4744 23.3557 28.4042 24.3615 28.3697 24.8345C27.6236 24.9299 26.5371 24.9231 26.4062 24.8856C26.2753 24.8481 25.4672 23.9107 25.227 23.5388Z" fill="#262625"/>
</g>
<defs>
<clipPath id="clip0_257_8026">
<rect width="25.3914" height="21.8048" fill="white" transform="translate(5.10181 7)"/>
</clipPath>
</defs>
</svg>
