<svg width="1024" height="1024" viewBox="0 0 1024 1024" fill="none" xmlns="http://www.w3.org/2000/svg">
<g clip-path="url(#clip0_315_17018)">
<path d="M804.48 705.148C795.912 705.148 751.763 715.418 751.763 715.418L752.213 734.892C752.88 744.68 760.16 752.468 766.089 752.442L803.03 752.282C816.732 752.22 824.365 744.596 825.6 726.152C827.767 693.772 828.312 686.272 828.312 686.272C814.486 687.783 813.077 705.148 804.483 705.148H804.48ZM222.772 705.148H222.769C214.175 705.148 212.767 687.783 198.94 686.272C198.94 686.272 199.483 693.772 201.652 726.152C202.888 744.596 210.52 752.22 224.222 752.282L261.163 752.442C267.093 752.465 274.372 744.68 275.039 734.892L275.489 715.418C275.489 715.418 231.34 705.148 222.772 705.148ZM439.47 310.178C480.404 308.95 546.809 308.947 587.733 310.171C627.022 311.346 631.616 313.138 650.31 315.935C677.068 319.937 720.242 396.716 739.994 441.065C758.401 456.212 796.623 491.971 797.304 536.03C797.94 577.526 794.476 661.251 788.091 668.125C781.705 674.999 690.66 688.74 681.308 689.453C676.887 689.79 638.738 690.392 599.741 690.934C552.182 691.594 475.075 691.598 427.52 690.941C388.521 690.403 350.368 689.804 345.946 689.467C336.594 688.755 245.549 675.022 239.162 668.149C232.776 661.276 229.301 577.55 229.937 536.055C230.612 491.995 268.833 456.234 287.238 441.085C306.987 396.734 350.155 319.952 376.912 315.947C395.602 313.149 400.198 311.356 439.47 310.178ZM439.47 271.904C390.893 273.326 376.206 275.579 356.932 278.464C330.175 282.47 276.993 370.932 257.244 415.283C238.839 430.432 192.743 475.235 192.065 519.294C191.429 560.79 195.496 701.341 201.883 708.214C208.269 715.087 336.594 727.838 345.946 728.55C350.368 728.887 388.521 729.486 427.522 730.024C475.077 730.68 552.184 730.677 599.743 730.016C638.74 729.475 676.891 728.872 681.312 728.535C690.664 727.822 818.988 715.06 825.374 708.187C831.759 701.313 835.814 560.762 835.175 519.266C834.492 475.207 788.394 430.408 769.987 415.26C750.234 370.912 697.044 282.454 670.286 278.451C651.012 275.567 636.324 273.315 587.744 271.898C546.812 270.698 480.404 270.701 439.47 271.904ZM762.732 374.018C759.766 377.293 769.848 403.786 762.173 413.391C766.304 417.754 773.148 419.775 775.79 424.764C787.654 411.341 790.412 406.412 793.76 404.954C798.336 402.962 801.306 403.635 803.369 401.341C808.946 395.139 814.096 385.24 811.51 382.612C804.298 375.283 765.698 370.743 762.732 374.018ZM264.52 374.018C261.554 370.743 222.954 375.283 215.742 382.612C213.156 385.24 218.306 395.139 223.883 401.341C225.946 403.635 228.916 402.962 233.492 404.954C236.841 406.412 239.598 411.341 251.462 424.764C254.105 419.775 260.948 417.754 265.079 413.391C257.404 403.786 267.485 377.293 264.52 374.018ZM456.423 619.156C419.873 618.966 378.813 618.918 376.04 619.624C370.981 620.914 321.986 670.682 325.604 671.277C329.152 671.862 506.872 674.587 513.644 674.691C520.416 674.587 698.136 671.862 701.684 671.277C705.302 670.682 656.307 620.914 651.247 619.624C648.475 618.918 607.408 618.966 570.856 619.156C539.258 619.319 488.025 619.319 456.423 619.156ZM462.934 530.718C430.515 531.275 400.041 532.016 397.265 532.2C392.972 532.485 420.203 566.025 427.244 569.428C430.298 570.904 446.998 571.731 464.93 572.195C491.827 572.89 535.461 572.89 562.358 572.195C580.29 571.731 596.99 570.904 600.044 569.428C607.085 566.025 634.316 532.485 630.023 532.2C627.247 532.016 596.771 531.275 564.352 530.717C536.349 530.236 490.938 530.236 462.934 530.718Z" fill="#262625"/>
<path d="M357.353 525.055C318.165 516.107 278.845 503.126 254.563 497.696C255.518 524.52 257.601 551.56 264.663 556.42C271.725 561.28 295.886 551.535 301.734 552.863C307.582 554.19 368.533 564.117 380.753 566.045C370.742 546.338 357.353 525.055 357.353 525.055ZM669.899 525.055C709.087 516.107 748.408 503.126 772.689 497.696C771.734 524.52 769.651 551.56 762.59 556.42C755.528 561.28 731.367 551.535 725.519 552.863C719.671 554.19 658.719 564.117 646.5 566.045C656.511 546.338 669.899 525.055 669.899 525.055ZM325.413 619.033C309.7 617.155 259.652 610.133 242.377 602.954C243.145 614.396 244.924 639.877 245.799 651.857C264.701 654.275 292.224 654.102 295.54 653.153C298.857 652.203 319.329 628.456 325.413 619.033ZM701.839 619.033C717.552 617.155 767.601 610.133 784.876 602.954C784.108 614.396 782.329 639.877 781.454 651.857C762.552 654.275 735.029 654.102 731.712 653.153C728.395 652.203 707.923 628.456 701.839 619.033Z" fill="#262625"/>
</g>
<defs>
<clipPath id="clip0_315_17018">
<rect width="1024" height="1024" fill="white"/>
</clipPath>
</defs>
</svg>
