<svg width="1024" height="1024" viewBox="0 0 1024 1024" fill="none" xmlns="http://www.w3.org/2000/svg">
<g clip-path="url(#clip0_485_12571)">
<g clip-path="url(#clip1_485_12571)">
<path d="M804.48 696.148C795.912 696.148 751.763 706.418 751.763 706.418L752.213 725.892C752.88 735.68 760.16 743.468 766.089 743.442L803.03 743.282C816.732 743.22 824.365 735.596 825.6 717.152C827.767 684.772 828.312 677.272 828.312 677.272C814.486 678.783 813.077 696.148 804.483 696.148H804.48ZM222.772 696.148H222.769C214.175 696.148 212.767 678.783 198.94 677.272C198.94 677.272 199.483 684.772 201.652 717.152C202.888 735.596 210.52 743.22 224.222 743.282L261.163 743.442C267.093 743.465 274.372 735.68 275.039 725.892L275.489 706.418C275.489 706.418 231.34 696.148 222.772 696.148ZM439.47 301.178C480.404 299.95 546.809 299.947 587.733 301.171C627.022 302.346 631.616 304.138 650.31 306.935C677.068 310.937 720.242 387.716 739.994 432.065C758.401 447.212 796.623 482.971 797.304 527.03C797.94 568.526 794.476 652.251 788.091 659.125C781.705 665.999 690.66 679.74 681.308 680.453C676.887 680.79 638.738 681.392 599.741 681.934C552.182 682.594 475.075 682.598 427.52 681.941C388.521 681.403 350.368 680.804 345.946 680.467C336.594 679.755 245.549 666.022 239.162 659.149C232.776 652.276 229.301 568.55 229.937 527.055C230.612 482.995 268.833 447.234 287.238 432.085C306.987 387.734 350.155 310.952 376.912 306.947C395.602 304.149 400.198 302.356 439.47 301.178ZM439.47 262.904C390.893 264.326 376.206 266.579 356.932 269.464C330.175 273.47 276.993 361.932 257.244 406.283C238.839 421.432 192.743 466.235 192.065 510.294C191.429 551.79 195.496 692.341 201.883 699.214C208.269 706.087 336.594 718.838 345.946 719.55C350.368 719.887 388.521 720.486 427.522 721.024C475.077 721.68 552.184 721.677 599.743 721.016C638.74 720.475 676.891 719.872 681.312 719.535C690.664 718.822 818.988 706.06 825.374 699.187C831.759 692.313 835.814 551.762 835.175 510.266C834.492 466.207 788.394 421.408 769.987 406.26C750.234 361.912 697.044 273.454 670.286 269.451C651.012 266.567 636.324 264.315 587.744 262.898C546.812 261.698 480.404 261.701 439.47 262.904ZM762.732 365.018C759.766 368.293 769.848 394.786 762.173 404.391C766.304 408.754 773.148 410.775 775.79 415.764C787.654 402.341 790.412 397.412 793.76 395.954C798.336 393.962 801.306 394.635 803.369 392.341C808.946 386.139 814.096 376.24 811.51 373.612C804.298 366.283 765.698 361.743 762.732 365.018ZM264.52 365.018C261.554 361.743 222.954 366.283 215.742 373.612C213.156 376.24 218.306 386.139 223.883 392.341C225.946 394.635 228.917 393.962 233.492 395.954C236.841 397.412 239.598 402.341 251.462 415.764C254.105 410.775 260.948 408.754 265.079 404.391C257.404 394.786 267.485 368.293 264.52 365.018ZM456.423 610.156C419.873 609.966 378.813 609.918 376.04 610.624C370.981 611.914 321.986 661.682 325.604 662.277C329.152 662.862 506.872 665.587 513.644 665.691C520.416 665.587 698.136 662.862 701.684 662.277C705.302 661.682 656.307 611.914 651.247 610.624C648.475 609.918 607.408 609.966 570.856 610.156C539.258 610.319 488.025 610.319 456.423 610.156ZM462.934 521.718C430.515 522.275 400.041 523.016 397.265 523.2C392.972 523.485 420.203 557.025 427.244 560.428C430.298 561.904 446.998 562.731 464.93 563.195C491.827 563.89 535.461 563.89 562.358 563.195C580.29 562.731 596.99 561.904 600.044 560.428C607.085 557.025 634.316 523.485 630.023 523.2C627.247 523.016 596.771 522.275 564.352 521.717C536.349 521.236 490.938 521.236 462.934 521.718Z" fill="#262625"/>
<path d="M357.352 516.055C318.163 507.107 278.843 494.126 254.561 488.696C255.516 515.52 257.599 542.56 264.661 547.42C271.723 552.28 295.885 542.535 301.733 543.863C307.581 545.19 368.532 555.117 380.752 557.045C370.741 537.338 357.352 516.055 357.352 516.055ZM669.897 516.055C709.085 507.107 748.406 494.126 772.688 488.696C771.732 515.52 769.649 542.56 762.589 547.42C755.526 552.28 731.365 542.535 725.517 543.863C719.669 545.19 658.717 555.117 646.499 557.045C656.509 537.338 669.897 516.055 669.897 516.055ZM325.411 610.033C309.699 608.155 259.65 601.133 242.375 593.954C243.143 605.396 244.922 630.877 245.797 642.857C264.699 645.275 292.223 645.102 295.539 644.153C298.856 643.203 319.327 619.456 325.411 610.033ZM701.837 610.033C717.551 608.155 767.599 601.133 784.874 593.954C784.106 605.396 782.327 630.877 781.452 642.857C762.55 645.275 735.027 645.102 731.71 644.153C728.393 643.203 707.922 619.456 701.837 610.033Z" fill="#262625"/>
</g>
</g>
<defs>
<clipPath id="clip0_485_12571">
<rect width="1024" height="1024" fill="white"/>
</clipPath>
<clipPath id="clip1_485_12571">
<rect width="1024" height="1024" fill="white" transform="translate(0 -9)"/>
</clipPath>
</defs>
</svg>
