<svg width="36" height="36" viewBox="0 0 36 36" fill="none" xmlns="http://www.w3.org/2000/svg">
<g clip-path="url(#clip0_811_3211)">
<path d="M6.06276 26.1737C6.92023 26.388 7.86958 26.48 7.86958 26.48L7.83895 28.1643C7.83895 28.5011 7.50209 28.838 7.2571 28.838H5.26654C4.74593 28.838 4.43969 28.2867 4.34782 27.7967C4.1947 26.9086 4.16407 24.0912 4.16407 24.0912L4.28657 22.7132C4.28657 22.7132 4.47031 22.6212 4.65406 23.2644C4.86843 23.9687 4.99092 25.4693 5.14404 25.6224C5.41966 25.8675 5.78714 26.0818 6.06276 26.1737ZM30.2022 25.6224C30.3553 25.4693 30.5085 23.9687 30.6922 23.2644C30.9066 22.5906 31.0597 22.7132 31.0597 22.7132L31.1823 24.0912C31.1823 24.0912 31.1515 26.9086 30.9984 27.7967C30.9066 28.3174 30.6004 28.838 30.0797 28.838H28.0891C27.8442 28.838 27.5074 28.5011 27.5074 28.1643L27.4767 26.48C27.4767 26.48 28.4261 26.388 29.2835 26.1737C29.6203 26.0818 29.9879 25.8675 30.2022 25.6224ZM27.58 25.6338H7.82752C7.82752 25.6338 6.84755 25.9707 6.93942 25.2664C7.00067 24.8682 6.9088 24.2558 7.39878 24.2558C7.39878 24.2558 10.2468 24.4702 11.1962 24.5008C12.8192 24.562 22.6189 24.562 24.2419 24.5008C25.1914 24.4702 28.0393 24.2558 28.0393 24.2558C28.5293 24.2558 28.4681 24.8682 28.4987 25.2664C28.56 25.9401 27.58 25.6338 27.58 25.6338ZM29.3256 21.1016C29.2643 21.9284 29.2643 22.1121 29.1725 22.4183C29.0806 22.7859 28.8049 23.0921 28.4375 23.1839L25.9263 23.7046C25.0383 23.8883 19.0359 23.9189 17.7497 23.9189C16.4635 23.9189 10.4306 23.8883 9.57308 23.7046L7.06192 23.1839C6.69443 23.1227 6.41881 22.8165 6.32694 22.4183C6.23507 22.1121 6.23507 21.9284 6.17382 21.1016C6.1432 20.4584 6.29632 19.8153 6.29632 19.8153C6.29632 19.4784 6.60256 19.2028 6.93942 19.2334L11.7168 19.5396C11.8699 19.5396 12.023 19.5396 12.1455 19.509L12.2986 19.4478C12.4211 19.4172 12.5436 19.3865 12.6355 19.3865L17.7497 19.4172L22.8639 19.3865C22.9864 19.3865 23.1089 19.4172 23.2008 19.4478L23.3539 19.509C23.5071 19.5396 23.6602 19.5704 23.7826 19.5396L28.56 19.2334C28.8969 19.2028 29.2031 19.4784 29.2031 19.8153C29.2031 19.8153 29.3562 20.4584 29.3256 21.1016ZM9.05248 27.2482C7.76911 27.2482 5.91787 27.2482 4.94357 25.9288C3.8997 24.5202 4.11398 19.0335 4.13071 18.6934C4.28383 16.0541 6.03507 14.4729 7.30162 13.7548C7.89454 12.3045 9.13622 9.63727 10.5477 8.7659C11.3605 8.24812 12.7219 8.15625 14.7485 8.15625C16.2491 8.15625 19.2197 8.15625 20.7202 8.15625C22.7413 8.15625 24.0777 8.24812 24.9211 8.7659C26.3381 9.63727 27.5742 12.2794 28.1671 13.7548C29.4281 14.4729 31.1849 16.0792 31.338 18.6934C31.3548 19.0335 31.569 24.5202 30.5253 25.9288C29.5203 27.2482 27.669 27.2482 26.4163 27.2482C22.0371 27.2482 13.3705 27.2482 9.05248 27.2482ZM20.6896 9.77063C19.9546 9.77063 15.4529 9.77063 14.7179 9.77063C13.5542 9.77063 11.9311 9.80126 11.3799 10.1381C10.0631 10.965 8.56249 14.9155 8.56249 14.9155C8.56249 14.9155 5.89821 15.9567 5.74509 18.7741C5.62259 21.0096 5.83696 24.4089 6.23507 24.9602C6.72505 25.6338 8.07251 25.6338 9.05248 25.6338C10.7062 25.6338 24.7013 25.6338 26.355 25.6338C27.3351 25.6338 28.6518 25.6338 29.1725 24.9602C29.5705 24.4089 29.785 21.0096 29.6625 18.7741C29.5093 15.9567 26.845 14.9155 26.845 14.9155C26.845 14.9155 25.3445 10.965 24.0276 10.1381C23.4763 9.80126 21.8533 9.77063 20.6896 9.77063ZM7.1986 13.9497L6.86173 14.1334L6.73924 13.8272L6.37175 13.7966L6.64736 14.2865L6.40237 14.409L6.00426 13.7966C6.00426 13.7966 5.14678 13.6741 5.05491 13.2147C4.99366 13.031 5.17741 12.786 5.29991 12.6635C5.69802 12.296 6.24925 12.1429 6.70861 12.1735C6.89236 12.1735 7.10673 12.2041 7.13735 12.4491C7.16797 12.6635 7.32109 13.5822 6.9536 13.6434C6.98423 13.7353 7.1986 13.9497 7.1986 13.9497ZM28.5459 14.1028L28.2089 13.919C28.2089 13.919 28.4233 13.7047 28.4539 13.6128C28.0865 13.5516 28.2396 12.6328 28.2702 12.4185C28.3008 12.1735 28.5151 12.1429 28.699 12.1429C29.1583 12.1122 29.7095 12.2654 30.1077 12.6328C30.2302 12.7553 30.4139 13.0003 30.3526 13.1841C30.2608 13.6434 29.4033 13.7659 29.4033 13.7659L29.0052 14.3784L28.7602 14.2559L29.0358 13.7659L28.6683 13.7966L28.5459 14.1028Z" fill="#262625"/>
<path d="M10.4609 18.468C10.7059 18.0392 9.90964 16.6305 9.38903 16.3243C8.65406 15.8649 8.28657 15.8037 7.79658 15.8649C7.58222 15.8956 6.78599 16.2018 6.6635 17.1511C6.63287 17.4268 6.72474 18.1311 7.21473 18.2842C8.01095 18.5292 10.2465 18.8661 10.4609 18.468ZM28.1921 18.2536C28.6821 18.0699 28.774 17.3961 28.7434 17.1205C28.6515 16.1712 27.8247 15.8649 27.6103 15.8343C27.1203 15.7731 26.7529 15.8343 26.0179 16.2937C25.5279 16.5999 24.7317 18.0086 24.946 18.4373C25.1603 18.8661 27.3959 18.5292 28.1921 18.2536Z" fill="#262625"/>
</g>
<defs>
<clipPath id="clip0_811_3211">
<rect width="27.2934" height="21.8224" fill="white" transform="translate(4.07617 7.01562)"/>
</clipPath>
</defs>
</svg>
