<svg width="1024" height="1024" viewBox="0 0 1024 1024" fill="none" xmlns="http://www.w3.org/2000/svg">
<g clip-path="url(#clip0_485_12568)">
<g clip-path="url(#clip1_485_12568)">
<path d="M216.741 675.536C238.468 680.969 262.523 683.296 262.523 683.296L261.747 725.975C261.747 734.51 253.212 743.045 247.004 743.045H196.566C183.374 743.045 175.615 729.078 173.287 716.663C169.407 694.16 168.631 622.77 168.631 622.77L171.735 587.852C171.735 587.852 176.391 585.524 181.046 601.82C186.478 619.667 189.582 657.689 193.462 661.569C200.446 667.776 209.757 673.208 216.741 675.536ZM828.402 661.569C832.282 657.689 836.161 619.667 840.817 601.82C846.249 584.748 850.129 587.852 850.129 587.852L853.233 622.77C853.233 622.77 852.457 694.16 848.577 716.663C846.249 729.854 838.489 743.045 825.298 743.045H774.86C768.652 743.045 760.117 734.51 760.117 725.975L759.34 683.296C759.34 683.296 783.396 680.969 805.123 675.536C813.658 673.208 822.97 667.776 828.402 661.569ZM761.958 661.859H261.458C261.458 661.859 236.627 670.394 238.954 652.547C240.506 642.46 238.178 626.94 250.594 626.94C250.594 626.94 322.76 632.372 346.814 633.148C387.941 634.7 636.251 634.7 677.377 633.148C701.433 632.372 773.598 626.94 773.598 626.94C786.013 626.94 784.461 642.46 785.238 652.547C786.789 669.619 761.958 661.859 761.958 661.859ZM806.188 547.015C804.636 567.966 804.636 572.622 802.308 580.382C799.981 589.694 792.997 597.453 783.685 599.781L720.055 612.973C697.552 617.629 545.462 618.404 512.872 618.404C480.281 618.404 327.416 617.629 305.688 612.973L242.058 599.781C232.747 598.229 225.763 590.47 223.435 580.382C221.107 572.622 221.107 567.966 219.555 547.015C218.779 530.72 222.659 514.424 222.659 514.424C222.659 505.889 230.419 498.905 238.954 499.68L360.006 507.441C363.885 507.441 367.766 507.441 370.869 506.664L374.75 505.113C377.853 504.336 380.957 503.561 383.285 503.561L512.872 504.336L642.459 503.561C645.562 503.561 648.667 504.336 650.995 505.113L654.874 506.664C658.754 507.441 662.634 508.217 665.738 507.441L786.789 499.68C795.325 498.905 803.085 505.889 803.085 514.424C803.085 514.424 806.964 530.72 806.188 547.015ZM292.496 702.765C259.977 702.765 213.07 702.765 188.382 669.331C161.932 633.641 167.361 494.614 167.785 485.996C171.665 419.121 216.039 379.056 248.132 360.859C263.155 324.11 294.618 256.527 330.383 234.448C350.979 221.328 385.474 219 436.827 219C474.85 219 550.118 219 588.141 219C639.353 219 673.213 221.328 694.585 234.448C730.491 256.527 761.812 323.476 776.836 360.859C808.787 379.056 853.303 419.756 857.182 485.996C857.606 494.614 863.035 633.641 836.585 669.331C811.122 702.765 764.215 702.765 732.471 702.765C621.508 702.765 401.908 702.765 292.496 702.765ZM587.365 259.906C568.742 259.906 454.674 259.906 436.051 259.906C406.564 259.906 365.438 260.682 351.47 269.218C318.104 290.169 280.081 390.269 280.081 390.269C280.081 390.269 212.571 416.652 208.692 488.042C205.588 544.687 211.02 630.82 221.107 644.788C233.523 661.859 267.665 661.859 292.496 661.859C334.398 661.859 689.017 661.859 730.92 661.859C755.751 661.859 789.117 661.859 802.308 644.788C812.397 630.82 817.828 544.687 814.724 488.042C810.844 416.652 743.335 390.269 743.335 390.269C743.335 390.269 705.312 290.169 671.946 269.218C657.978 260.682 616.852 259.906 587.365 259.906ZM245.521 365.798L236.986 370.454L233.882 362.694L224.57 361.917L231.554 374.333L225.346 377.436L215.258 361.917C215.258 361.917 193.531 358.814 191.203 347.174C189.651 342.518 194.307 336.311 197.411 333.207C207.499 323.895 221.466 320.015 233.106 320.791C237.762 320.791 243.193 321.567 243.969 327.774C244.745 333.207 248.625 356.486 239.314 358.038C240.09 360.366 245.521 365.798 245.521 365.798ZM786.43 369.677L777.894 365.021C777.894 365.021 783.327 359.589 784.102 357.261C774.79 355.71 778.671 332.43 779.446 326.999C780.222 320.791 785.655 320.015 790.309 320.015C801.949 319.239 815.917 323.119 826.005 332.43C829.108 335.535 833.764 341.742 832.212 346.398C829.884 358.038 808.158 361.142 808.158 361.142L798.07 376.661L791.862 373.557L798.846 361.142L789.534 361.917L786.43 369.677Z" fill="#262625"/>
<path d="M328.191 480.282C334.398 469.417 314.223 433.723 301.032 425.964C282.408 414.324 273.097 412.771 260.681 414.324C255.249 415.099 235.074 422.86 231.97 446.914C231.194 453.898 233.522 471.745 245.938 475.626C266.113 481.833 322.759 490.369 328.191 480.282ZM777.476 474.849C789.892 470.194 792.22 453.123 791.444 446.139C789.116 422.083 768.166 414.324 762.734 413.548C750.319 411.996 741.007 413.548 722.383 425.187C709.967 432.948 689.792 468.642 695.224 479.505C700.656 490.369 757.301 481.833 777.476 474.849Z" fill="#262625"/>
</g>
</g>
<defs>
<clipPath id="clip0_485_12568">
<rect width="1024" height="1024" fill="white"/>
</clipPath>
<clipPath id="clip1_485_12568">
<rect width="1024" height="1024" fill="white" transform="translate(0 -31)"/>
</clipPath>
</defs>
</svg>
