<svg width="1024" height="1024" viewBox="0 0 1024 1024" fill="none" xmlns="http://www.w3.org/2000/svg">
<g clip-path="url(#clip0_315_16973)">
<path d="M216.739 706.536C238.466 711.969 262.521 714.296 262.521 714.296L261.745 756.975C261.745 765.51 253.21 774.045 247.002 774.045H196.564C183.372 774.045 175.613 760.078 173.285 747.663C169.405 725.16 168.629 653.77 168.629 653.77L171.733 618.852C171.733 618.852 176.389 616.524 181.044 632.82C186.476 650.667 189.58 688.689 193.46 692.569C200.444 698.776 209.755 704.208 216.739 706.536ZM828.4 692.569C832.28 688.689 836.159 650.667 840.815 632.82C846.247 615.748 850.127 618.852 850.127 618.852L853.231 653.77C853.231 653.77 852.455 725.16 848.575 747.663C846.247 760.854 838.487 774.045 825.296 774.045H774.858C768.65 774.045 760.115 765.51 760.115 756.975L759.338 714.296C759.338 714.296 783.394 711.969 805.121 706.536C813.656 704.208 822.968 698.776 828.4 692.569ZM761.956 692.859H261.456C261.456 692.859 236.625 701.394 238.952 683.547C240.504 673.46 238.176 657.94 250.592 657.94C250.592 657.94 322.758 663.372 346.812 664.148C387.939 665.7 636.249 665.7 677.375 664.148C701.431 663.372 773.596 657.94 773.596 657.94C786.011 657.94 784.459 673.46 785.236 683.547C786.787 700.619 761.956 692.859 761.956 692.859ZM806.187 578.015C804.634 598.966 804.634 603.622 802.306 611.382C799.979 620.694 792.995 628.453 783.683 630.781L720.053 643.973C697.55 648.629 545.46 649.404 512.87 649.404C480.279 649.404 327.414 648.629 305.686 643.973L242.056 630.781C232.745 629.229 225.761 621.47 223.433 611.382C221.105 603.622 221.105 598.966 219.553 578.015C218.777 561.72 222.657 545.424 222.657 545.424C222.657 536.889 230.417 529.905 238.952 530.68L360.004 538.441C363.883 538.441 367.764 538.441 370.867 537.664L374.748 536.113C377.851 535.336 380.955 534.561 383.283 534.561L512.87 535.336L642.457 534.561C645.56 534.561 648.665 535.336 650.993 536.113L654.872 537.664C658.753 538.441 662.632 539.217 665.736 538.441L786.787 530.68C795.323 529.905 803.083 536.889 803.083 545.424C803.083 545.424 806.962 561.72 806.187 578.015ZM292.494 733.765C259.975 733.765 213.068 733.765 188.38 700.331C161.93 664.641 167.36 525.614 167.783 516.996C171.663 450.121 216.037 410.056 248.13 391.859C263.154 355.11 294.616 287.527 330.381 265.448C350.977 252.328 385.472 250 436.825 250C474.848 250 550.116 250 588.139 250C639.351 250 673.211 252.328 694.583 265.448C730.489 287.527 761.81 354.476 776.834 391.859C808.785 410.056 853.301 450.756 857.18 516.996C857.604 525.614 863.033 664.641 836.583 700.331C811.12 733.765 764.213 733.765 732.469 733.765C621.506 733.765 401.906 733.765 292.494 733.765ZM587.363 290.906C568.74 290.906 454.673 290.906 436.049 290.906C406.562 290.906 365.436 291.682 351.468 300.218C318.102 321.169 280.079 421.269 280.079 421.269C280.079 421.269 212.569 447.652 208.69 519.042C205.586 575.687 211.018 661.82 221.105 675.788C233.521 692.859 267.663 692.859 292.494 692.859C334.396 692.859 689.015 692.859 730.918 692.859C755.749 692.859 789.115 692.859 802.306 675.788C812.395 661.82 817.826 575.687 814.722 519.042C810.842 447.652 743.333 421.269 743.333 421.269C743.333 421.269 705.31 321.169 671.944 300.218C657.976 291.682 616.85 290.906 587.363 290.906ZM245.519 396.798L236.984 401.454L233.88 393.694L224.568 392.917L231.552 405.333L225.344 408.436L215.257 392.917C215.257 392.917 193.529 389.814 191.202 378.174C189.649 373.518 194.305 367.311 197.409 364.207C207.497 354.895 221.464 351.015 233.104 351.791C237.76 351.791 243.192 352.567 243.967 358.774C244.743 364.207 248.623 387.486 239.312 389.038C240.088 391.366 245.519 396.798 245.519 396.798ZM786.428 400.677L777.892 396.021C777.892 396.021 783.325 390.589 784.1 388.261C774.788 386.71 778.669 363.43 779.444 357.999C780.22 351.791 785.653 351.015 790.307 351.015C801.947 350.239 815.915 354.119 826.003 363.43C829.106 366.535 833.762 372.742 832.21 377.398C829.882 389.038 808.156 392.142 808.156 392.142L798.068 407.661L791.86 404.557L798.844 392.142L789.532 392.917L786.428 400.677Z" fill="#262625"/>
<path d="M328.189 511.282C334.396 500.417 314.221 464.723 301.03 456.964C282.406 445.324 273.095 443.771 260.679 445.324C255.247 446.099 235.072 453.86 231.968 477.914C231.192 484.898 233.52 502.745 245.936 506.626C266.111 512.833 322.757 521.369 328.189 511.282ZM777.474 505.849C789.89 501.194 792.218 484.123 791.442 477.139C789.114 453.083 768.164 445.324 762.732 444.548C750.317 442.996 741.005 444.548 722.381 456.187C709.965 463.948 689.79 499.642 695.222 510.505C700.654 521.369 757.299 512.833 777.474 505.849Z" fill="#262625"/>
</g>
<defs>
<clipPath id="clip0_315_16973">
<rect width="1024" height="1024" fill="white"/>
</clipPath>
</defs>
</svg>
