<svg width="36" height="36" viewBox="0 0 36 36" fill="none" xmlns="http://www.w3.org/2000/svg">
<g clip-path="url(#clip0_825_2019)">
<path d="M29.0406 26.9747C28.0316 27.0184 27.29 27.0413 27.29 27.0413L27.3314 28.3943C27.3577 28.7807 27.6792 29.0898 27.9133 29.0871L29.5614 29.0681C30.1022 29.0619 30.3553 28.774 30.404 28.0458C30.4896 26.7677 30.4475 26.1917 30.4475 26.1917C30.1097 26.2287 29.6496 26.9484 29.0406 26.9747ZM7.16181 26.9747C6.55282 26.9484 6.09276 26.2287 5.75491 26.1917C5.75491 26.1917 5.71287 26.7677 5.79843 28.0458C5.84718 28.774 6.1002 29.0619 6.64104 29.0681L8.28917 29.0871C8.52323 29.0898 8.84469 28.7807 8.87103 28.3943L8.91243 27.0413C8.91243 27.0413 8.17078 27.0184 7.16181 26.9747ZM21.8213 11.1794C23.6178 11.2383 24.4664 11.3316 24.6486 11.4731C24.9278 11.6898 27.1598 14.4651 27.6077 16.3329C27.8112 16.4363 29.225 17.0802 29.3981 18.5739C29.571 20.0676 29.3781 24.7251 29.2902 25.1469C29.2025 25.5687 27.2657 25.8488 26.6749 25.8548C26.358 25.858 23.9121 25.8393 21.7142 25.8214C19.7187 25.8051 16.4837 25.8052 14.4883 25.8216C12.2903 25.8398 9.8445 25.8586 9.52756 25.8555C8.9368 25.8496 7.00001 25.5696 6.91218 25.1478C6.82432 24.726 6.63096 20.0686 6.8038 18.5749C6.97667 17.0812 8.39041 16.4371 8.59396 16.3337C9.04162 14.4659 11.2734 11.6904 11.5526 11.4736C11.7347 11.3322 12.5834 11.2388 14.3799 11.1797C16.434 11.1121 19.7671 11.1119 21.8213 11.1794ZM14.38 9.5871C12.3667 9.6628 11.254 9.80009 10.9187 10.0506C10.4156 10.4266 7.64334 13.4839 7.53896 15.3489C7.16188 15.4152 6.59093 15.5347 5.7721 16.9813C4.95325 18.4278 5.6213 26.109 5.70918 26.5308C5.79701 26.9526 8.9368 27.4601 9.52756 27.466C9.85222 27.4692 12.4102 27.4488 14.6489 27.4298C16.5556 27.4136 19.647 27.4134 21.5538 27.4295C23.7924 27.4484 26.3504 27.4685 26.675 27.4653C27.2658 27.4593 30.4056 26.9516 30.4933 26.5298C30.5811 26.108 31.2486 18.4267 30.4296 16.9802C29.6106 15.5338 29.0396 15.4142 28.6626 15.348C28.5581 13.483 25.7856 10.4259 25.2824 10.05C24.947 9.79949 23.8343 9.6623 21.821 9.58677C19.7672 9.51002 16.4337 9.51018 14.38 9.5871ZM28.9994 15.7849C29.7047 14.7997 30.4635 14.7178 30.6014 14.316C30.6923 14.0513 30.3579 13.8134 30.2117 13.7205C29.9268 13.5397 29.1189 13.2978 28.8492 13.3556C28.6695 13.3941 28.6537 13.9676 28.6231 14.2126C28.5924 14.427 28.7965 14.8365 28.7965 14.8365L28.4282 15.2409L28.9994 15.7849ZM7.77416 15.2409L7.40594 14.8365C7.40594 14.8365 7.61007 14.427 7.57932 14.2126C7.5487 13.9676 7.53287 13.3941 7.35323 13.3556C7.08344 13.2978 6.2756 13.5397 5.99077 13.7205C5.84451 13.8134 5.51019 14.0513 5.60102 14.316C5.73889 14.7178 6.49772 14.7997 7.20305 15.7849L7.77416 15.2409ZM16.9443 23.5139C15.8626 23.5132 14.2079 23.5214 12.8059 23.5686C12.1821 23.5898 10.8706 24.6999 10.2995 25.0419C9.47369 25.1484 7.83764 25.0209 6.84898 24.9063C6.87134 25.2478 6.88876 25.4502 6.91218 25.6348C7.27113 26.152 9.21798 26.3393 9.52756 26.3424C9.95739 26.3468 14.302 26.3106 16.6372 26.2906C17.4469 26.2836 18.7597 26.2836 19.5695 26.2906C21.9039 26.3106 26.2465 26.3468 26.6762 26.3424C26.9858 26.3393 28.9327 26.152 29.2916 25.6348C29.3153 25.4502 29.3325 25.2478 29.3549 24.9063C28.3662 25.0209 26.7301 25.1484 25.9044 25.0419C25.3332 24.6999 24.0217 23.5898 23.3979 23.5686C21.9957 23.5214 20.3409 23.5132 19.2593 23.5139C18.6201 23.5143 17.5836 23.5143 16.9443 23.5139ZM11.8366 20.8832C11.6825 20.467 8.99918 20.0986 8.28056 20.1742C7.56194 20.2497 6.96507 23.9156 7.10901 24.0248C7.25208 24.1332 8.34707 23.7466 8.57097 23.5923C8.8517 23.3988 9.97131 21.321 9.86162 21.1556C9.6115 20.778 8.50757 20.6328 8.55749 20.62C9.18911 20.4568 11.6707 21.0102 11.8366 20.8832ZM24.3659 20.8832C24.5199 20.467 27.2033 20.0986 27.9218 20.1742C28.6405 20.2497 29.2374 23.9156 29.0934 24.0248C28.9503 24.1332 27.8553 23.7466 27.6314 23.5923C27.3507 23.3988 26.2311 21.321 26.3408 21.1556C26.5909 20.778 27.6949 20.6328 27.645 20.62C27.0133 20.4568 24.5318 21.0102 24.3659 20.8832Z" fill="#252524"/>
<path d="M13.0905 19.6607C12.8508 19.2172 8.29655 17.3782 8.09603 17.3013C7.89549 17.2244 7.7964 17.1765 7.66443 17.3014C7.46315 17.4919 7.48067 18.4384 7.78127 18.7766C8.20923 19.2579 12.5083 19.6727 13.0905 19.6607ZM23.1124 19.6607C23.3521 19.2172 27.9063 17.3782 28.1068 17.3013C28.3074 17.2244 28.4065 17.1765 28.5385 17.3014C28.7397 17.4919 28.7222 18.4384 28.4216 18.7766C27.9937 19.2579 23.6946 19.6727 23.1124 19.6607Z" fill="#252524"/>
</g>
<defs>
<clipPath id="clip0_825_2019">
<rect width="25.4641" height="21.8758" fill="white" transform="translate(5.36914 7.21094)"/>
</clipPath>
</defs>
</svg>
