<svg width="1024" height="1024" viewBox="0 0 1024 1024" fill="none" xmlns="http://www.w3.org/2000/svg">
<g clip-path="url(#clip0_485_12562)">
<g clip-path="url(#clip1_485_12562)">
<path d="M788.806 690.044C763.241 691.151 744.448 691.729 744.448 691.729L745.497 726.014C746.165 735.804 754.31 743.636 760.241 743.567L802.002 743.086C815.706 742.927 822.117 735.633 823.353 717.185C825.52 684.799 824.455 670.203 824.455 670.203C815.895 671.138 804.237 689.375 788.806 690.044ZM234.428 690.044C218.997 689.375 207.339 671.138 198.779 670.203C198.779 670.203 197.713 684.799 199.882 717.185C201.117 735.633 207.528 742.927 221.232 743.086L262.993 743.567C268.924 743.637 277.07 735.804 277.737 726.014L278.786 691.729C278.786 691.729 259.994 691.15 234.428 690.044ZM605.878 289.81C651.4 291.305 672.904 293.669 677.52 297.252C684.593 302.745 741.151 373.066 752.498 420.393C757.655 423.013 793.479 439.329 797.862 477.178C802.245 515.027 797.358 633.04 795.131 643.729C792.906 654.417 743.832 661.513 728.863 661.664C720.831 661.746 658.858 661.273 603.164 660.819C552.604 660.406 470.631 660.411 420.071 660.826C364.377 661.286 302.404 661.764 294.373 661.683C279.403 661.533 230.328 654.441 228.103 643.754C225.876 633.065 220.977 515.052 225.356 477.203C229.737 439.353 265.559 423.035 270.716 420.413C282.06 373.086 338.61 302.76 345.683 297.266C350.299 293.682 371.803 291.317 417.323 289.818C469.373 288.105 553.83 288.101 605.878 289.81ZM417.327 249.465C366.313 251.383 338.119 254.861 329.621 261.209C316.873 270.736 246.629 348.205 243.984 395.46C234.43 397.14 219.963 400.17 199.214 436.823C178.466 473.476 195.393 668.107 197.62 678.795C199.846 689.483 279.403 702.341 294.373 702.491C302.599 702.575 367.416 702.057 424.14 701.573C472.453 701.162 550.785 701.159 599.1 701.566C655.823 702.044 720.64 702.556 728.866 702.472C743.835 702.322 823.392 689.456 825.617 678.767C827.842 668.08 844.752 473.447 824.001 436.796C803.25 400.144 788.782 397.117 779.228 395.437C776.578 348.182 706.328 270.719 693.578 261.193C685.081 254.846 656.885 251.37 605.87 249.456C553.833 247.511 469.365 247.516 417.327 249.465ZM787.762 406.508C805.634 381.545 824.861 379.468 828.354 369.289C830.656 362.581 822.185 356.553 818.479 354.2C811.261 349.619 790.793 343.488 783.956 344.953C779.405 345.93 779.003 360.462 778.227 366.67C777.449 372.102 782.621 382.477 782.621 382.477L773.29 392.724L787.762 406.508ZM249.944 392.724L240.613 382.477C240.613 382.477 245.786 372.102 245.007 366.67C244.231 360.462 243.83 345.93 239.278 344.953C232.442 343.488 211.972 349.619 204.755 354.2C201.049 356.553 192.578 362.581 194.879 369.289C198.373 379.468 217.6 381.545 235.473 406.508L249.944 392.724ZM482.302 602.352C454.894 602.333 412.967 602.541 377.441 603.739C361.635 604.272 328.404 632.402 313.931 641.066C293.008 643.768 251.552 640.535 226.501 637.632C227.067 646.286 227.509 651.415 228.103 656.092C237.198 669.198 286.528 673.943 294.373 674.022C305.264 674.132 415.351 673.215 474.521 672.707C495.038 672.532 528.303 672.533 548.82 672.709C607.974 673.216 718.008 674.132 728.897 674.022C736.741 673.944 786.072 669.198 795.167 656.092C795.765 651.415 796.202 646.286 796.769 637.632C771.718 640.535 730.262 643.768 709.338 641.066C694.866 632.402 661.635 604.272 645.828 603.739C610.3 602.54 568.368 602.332 540.961 602.352C524.765 602.362 498.501 602.362 482.302 602.352ZM352.881 535.691C348.977 525.145 280.984 515.812 262.775 517.725C244.566 519.639 229.443 612.529 233.09 615.294C236.715 618.043 264.461 608.246 270.134 604.337C277.247 599.435 305.617 546.787 302.837 542.592C296.5 533.026 268.527 529.349 269.792 529.022C285.797 524.889 348.675 538.91 352.881 535.691ZM670.353 535.691C674.257 525.145 742.25 515.812 760.459 517.725C778.668 519.639 793.792 612.529 790.144 615.294C786.519 618.043 758.774 608.246 753.101 604.337C745.988 599.435 717.618 546.787 720.398 542.592C726.734 533.026 754.707 529.349 753.442 529.022C737.437 524.889 674.559 538.91 670.353 535.691Z" fill="#262625"/>
<path d="M384.646 504.72C378.572 493.481 263.175 446.883 258.094 444.934C253.013 442.985 250.502 441.771 247.158 444.936C242.058 449.765 242.501 473.748 250.118 482.316C260.963 494.513 369.894 505.024 384.646 504.72ZM638.588 504.72C644.662 493.481 760.059 446.883 765.14 444.934C770.221 442.985 772.732 441.771 776.076 444.936C781.177 449.765 780.733 473.748 773.116 482.316C762.272 494.513 653.34 505.024 638.588 504.72Z" fill="#262625"/>
</g>
</g>
<defs>
<clipPath id="clip0_485_12562">
<rect width="1024" height="1024" fill="white"/>
</clipPath>
<clipPath id="clip1_485_12562">
<rect width="1024" height="1024" fill="white" transform="translate(0 -16)"/>
</clipPath>
</defs>
</svg>
