<svg width="1024" height="1024" viewBox="0 0 1024 1024" fill="none" xmlns="http://www.w3.org/2000/svg">
<g clip-path="url(#clip0_315_16987)">
<path d="M788.806 706.044C763.241 707.151 744.448 707.729 744.448 707.729L745.497 742.014C746.165 751.804 754.31 759.636 760.241 759.567L802.002 759.086C815.706 758.927 822.117 751.633 823.353 733.185C825.52 700.799 824.455 686.203 824.455 686.203C815.895 687.138 804.237 705.375 788.806 706.044ZM234.428 706.044C218.997 705.375 207.339 687.138 198.779 686.203C198.779 686.203 197.713 700.799 199.882 733.185C201.117 751.633 207.528 758.927 221.232 759.086L262.993 759.567C268.924 759.637 277.07 751.804 277.737 742.014L278.786 707.729C278.786 707.729 259.994 707.15 234.428 706.044ZM605.878 305.81C651.4 307.305 672.904 309.669 677.52 313.252C684.593 318.745 741.151 389.066 752.498 436.393C757.655 439.013 793.479 455.329 797.862 493.178C802.245 531.027 797.358 649.04 795.131 659.729C792.906 670.417 743.832 677.513 728.863 677.664C720.831 677.746 658.858 677.273 603.164 676.819C552.604 676.406 470.631 676.411 420.071 676.826C364.377 677.286 302.404 677.764 294.373 677.683C279.403 677.533 230.328 670.441 228.103 659.754C225.876 649.065 220.977 531.052 225.356 493.203C229.737 455.353 265.559 439.035 270.716 436.413C282.06 389.086 338.61 318.76 345.683 313.266C350.299 309.682 371.803 307.317 417.323 305.818C469.373 304.105 553.83 304.101 605.878 305.81ZM417.327 265.465C366.313 267.383 338.119 270.861 329.621 277.209C316.873 286.736 246.629 364.205 243.984 411.46C234.43 413.14 219.963 416.17 199.214 452.823C178.466 489.476 195.393 684.107 197.62 694.795C199.846 705.483 279.403 718.341 294.373 718.491C302.599 718.575 367.416 718.057 424.14 717.573C472.453 717.162 550.785 717.159 599.1 717.566C655.823 718.044 720.64 718.556 728.866 718.472C743.835 718.322 823.392 705.456 825.617 694.767C827.842 684.08 844.752 489.447 824.001 452.796C803.25 416.144 788.782 413.117 779.228 411.437C776.578 364.182 706.327 286.719 693.578 277.193C685.081 270.846 656.885 267.37 605.87 265.456C553.833 263.511 469.365 263.516 417.327 265.465ZM787.762 422.508C805.634 397.545 824.861 395.468 828.354 385.289C830.656 378.581 822.185 372.553 818.479 370.2C811.261 365.619 790.793 359.488 783.956 360.953C779.405 361.93 779.003 376.462 778.227 382.67C777.449 388.102 782.621 398.477 782.621 398.477L773.29 408.724L787.762 422.508ZM249.944 408.724L240.613 398.477C240.613 398.477 245.786 388.102 245.007 382.67C244.231 376.462 243.83 361.93 239.278 360.953C232.442 359.488 211.972 365.619 204.755 370.2C201.049 372.553 192.578 378.581 194.879 385.289C198.373 395.468 217.6 397.545 235.473 422.508L249.944 408.724ZM482.302 618.352C454.894 618.333 412.967 618.541 377.441 619.739C361.635 620.272 328.404 648.402 313.931 657.066C293.008 659.768 251.552 656.535 226.501 653.632C227.067 662.286 227.509 667.415 228.103 672.092C237.198 685.198 286.528 689.943 294.373 690.022C305.264 690.132 415.351 689.215 474.521 688.707C495.038 688.532 528.303 688.533 548.82 688.709C607.974 689.216 718.008 690.132 728.897 690.022C736.741 689.944 786.072 685.198 795.167 672.092C795.765 667.415 796.202 662.286 796.769 653.632C771.718 656.535 730.262 659.768 709.338 657.066C694.866 648.402 661.635 620.272 645.828 619.739C610.3 618.54 568.368 618.332 540.961 618.352C524.765 618.362 498.501 618.362 482.302 618.352ZM352.881 551.691C348.977 541.145 280.984 531.812 262.775 533.725C244.566 535.639 229.443 628.529 233.09 631.294C236.715 634.043 264.461 624.246 270.134 620.337C277.247 615.435 305.617 562.787 302.837 558.592C296.5 549.026 268.527 545.349 269.792 545.022C285.797 540.889 348.675 554.91 352.881 551.691ZM670.353 551.691C674.257 541.145 742.25 531.812 760.459 533.725C778.668 535.639 793.792 628.529 790.144 631.294C786.519 634.043 758.774 624.246 753.101 620.337C745.988 615.435 717.618 562.787 720.398 558.592C726.734 549.026 754.707 545.349 753.442 545.022C737.437 540.889 674.559 554.91 670.353 551.691Z" fill="#262625"/>
<path d="M384.646 520.72C378.572 509.481 263.175 462.883 258.094 460.934C253.013 458.985 250.502 457.771 247.158 460.936C242.058 465.765 242.501 489.748 250.118 498.316C260.963 510.513 369.894 521.024 384.646 520.72ZM638.588 520.72C644.662 509.481 760.059 462.883 765.14 460.934C770.221 458.985 772.732 457.771 776.076 460.936C781.177 465.765 780.733 489.748 773.116 498.316C762.272 510.513 653.34 521.024 638.588 520.72Z" fill="#262625"/>
</g>
<defs>
<clipPath id="clip0_315_16987">
<rect width="1024" height="1024" fill="white"/>
</clipPath>
</defs>
</svg>
