<svg width="1024" height="1024" viewBox="0 0 1024 1024" fill="none" xmlns="http://www.w3.org/2000/svg">
<g clip-path="url(#clip0_315_17041)">
<g clip-path="url(#clip1_315_17041)">
<path d="M253.57 416.704L234.944 414.376V389.545C234.944 383.337 228.736 377.905 222.528 379.458L201.574 384.889C196.918 386.44 193.038 389.545 191.486 394.201L186.053 410.496C185.277 413.599 186.829 416.704 189.933 417.48L250.465 426.015L253.57 416.704ZM770.336 416.704L773.44 426.015L833.973 417.48C837.077 416.704 839.405 413.599 837.852 410.496L832.42 394.201C830.868 389.545 826.988 385.665 822.332 384.889L801.379 379.458C795.17 377.905 788.962 382.561 788.962 389.545V414.376L770.336 416.704ZM458.864 248.39C406.447 250.718 352.549 253.822 342.461 258.195C283.977 282.53 247.644 417.197 247.644 417.197C247.644 417.197 195.014 449.788 180.551 480.683C164.606 515.958 165.102 604.132 165.737 628.963C166.513 653.794 165.598 685.113 188.451 714.595C205.308 736.248 316.847 740.904 413.712 742.88C468.036 743.797 556.505 743.797 610.829 742.88C708.329 740.411 819.867 736.389 836.089 714.595C858.943 684.478 858.168 653.794 858.804 628.963C859.438 604.132 859.441 516.593 843.989 480.683C828.892 449.788 776.897 417.197 776.897 417.197C776.897 417.197 740.563 282.672 682.079 258.195C671.991 253.681 617.459 250.577 565.676 248.39C535.693 247.473 488.354 247.473 458.864 248.39ZM458.864 284.712C488.354 283.936 535.693 283.936 564.406 284.712C611.746 286.264 657.533 288.592 666.846 294.024C714.185 322.735 742.123 443.01 742.123 443.01C742.123 443.01 792.566 470.945 805.758 494.224C824.384 541.558 817.399 602.86 816.624 627.691C815.848 652.522 815.071 671.922 807.311 686.665C801.879 697.528 701.768 701.409 609.419 703.737C555.095 705.288 466.624 705.288 412.301 703.737C319.951 701.409 219.064 697.528 214.408 686.665C207.423 671.145 205.871 652.522 205.095 627.691C204.319 602.86 198.111 541.558 215.96 494.224C229.153 470.945 279.596 443.01 279.596 443.01C279.596 443.01 307.534 322.735 354.873 294.024C365.738 288.592 411.525 286.264 458.864 284.712ZM176.108 683.07L179.706 734.202C180.482 741.186 181.399 747.395 183.586 753.602L186.69 764.465C188.242 770.673 193.675 774.552 199.883 774.552H275.936C279.04 774.552 282.145 773.001 282.921 769.898L284.473 767.57C286.025 764.465 286.801 761.361 287.576 758.258L290.682 729.829L176.108 683.07ZM847.304 683.07L733.366 729.829L736.47 758.258C736.47 761.361 738.022 764.465 739.575 767.57L741.126 769.898C742.679 772.226 745.007 774.552 748.111 774.552H824.164C830.372 774.552 835.804 770.673 837.357 764.465L840.461 753.602C842.013 747.395 843.565 740.411 844.342 734.202L847.304 683.07ZM237.689 667.407L229.929 638.696L280.372 645.679C285.028 646.455 288.909 645.679 293.566 644.128L307.534 639.472C308.31 639.472 308.31 637.92 307.534 637.144L226.049 623.176C224.497 623.176 222.944 624.729 222.944 626.28L229.153 658.095C229.929 660.423 230.705 661.975 232.257 663.527L236.913 667.407C236.913 668.959 238.324 668.818 237.689 667.407ZM786.358 667.407L794.118 638.696L743.674 645.679C739.019 646.455 735.138 645.679 730.482 644.128L716.514 639.472C715.737 639.472 715.737 637.92 716.514 637.144L797.998 623.176C799.55 623.176 801.103 624.729 801.103 626.28L794.894 658.095C794.118 660.423 793.342 661.975 791.79 663.527L787.134 667.407C787.134 668.959 785.581 668.818 786.358 667.407ZM367.29 662.61C361.082 662.61 355.649 664.938 350.993 668.818L333.92 682.785C333.143 683.56 333.143 685.113 334.696 685.113L428.598 689.769C439.463 690.544 451.104 690.544 461.968 690.544L489.906 691.321C504.651 691.321 519.396 691.321 534.141 691.321L562.078 690.544C572.944 690.544 584.585 689.769 595.449 689.769L689.352 685.113C690.127 685.113 690.903 683.56 690.127 682.785L673.054 668.818C668.398 664.938 662.965 662.61 656.758 662.61L533.365 664.162C519.396 664.162 505.427 664.162 491.458 664.162L367.29 662.61Z" fill="#262625"/>
<path d="M249.33 482.585C244.674 486.465 241.569 491.121 240.017 496.552L237.689 502.761C236.137 507.416 235.361 512.848 234.585 517.504L233.809 526.815C233.033 533.799 237.689 540.007 244.674 542.335L285.028 553.974C295.892 557.079 306.758 557.079 317.622 554.751L340.128 549.318C341.68 548.542 342.456 546.991 341.68 545.439L326.159 529.143C323.054 526.039 319.175 522.936 314.518 521.383L306.758 518.28C300.549 515.952 295.117 512.072 290.46 506.64L272.611 487.241C269.507 484.137 266.403 481.809 261.747 481.033L257.091 480.257C254.762 479.622 251.658 480.399 249.33 482.585ZM773.941 482.585C778.597 486.465 781.701 491.121 783.253 496.552L785.581 502.761C787.133 507.416 787.909 512.848 788.686 517.504L789.462 526.815C790.237 533.799 785.581 540.007 778.597 542.335L738.242 553.974C727.378 557.079 716.513 557.079 705.648 554.751L683.142 549.318C681.591 548.542 680.814 546.991 681.591 545.439L697.112 529.143C700.216 526.039 704.096 522.936 708.752 521.383L716.513 518.28C722.721 515.952 728.153 512.072 732.81 506.64L750.659 487.241C753.764 484.137 756.868 481.809 761.524 481.033L766.181 480.257C769.143 479.622 771.613 480.399 773.941 482.585Z" fill="#262625"/>
</g>
</g>
<defs>
<clipPath id="clip0_315_17041">
<rect width="1024" height="1024" fill="white"/>
</clipPath>
<clipPath id="clip1_315_17041">
<rect width="694" height="527" fill="white" transform="translate(165 248)"/>
</clipPath>
</defs>
</svg>
