<svg width="36" height="36" viewBox="0 0 36 36" fill="none" xmlns="http://www.w3.org/2000/svg">
<g clip-path="url(#clip0_826_2052)">
<path d="M8.19622 15.4218L7.70624 15.2993L7.46125 14.2581C7.43062 14.1662 7.36938 14.1356 7.2775 14.1356L6.32816 14.2581C6.14442 14.2887 5.96067 14.4112 5.89943 14.595L5.71568 15.0237C5.65443 15.1462 5.74631 15.2993 5.89943 15.3299L8.10435 15.6974L8.19622 15.4218ZM28.2015 15.4218L28.3185 15.6974L30.5234 15.3299C30.6765 15.2993 30.7433 15.1462 30.7071 15.0237L30.5234 14.595C30.4371 14.4112 30.2783 14.2887 30.0946 14.2581L29.1453 14.1356C29.0534 14.1356 28.9922 14.1662 28.9616 14.2581L28.7165 15.2993L28.2015 15.4218ZM18.1961 9.43359C15.7768 9.49484 13.9172 9.62292 11.7012 9.99314C9.93896 10.2827 8.69737 13.6233 8.25474 14.9485C8.16286 15.2547 7.86777 15.6027 7.59774 15.7865C7.35831 15.9452 7.02703 16.1651 6.69574 16.4351C6.29763 16.772 5.72967 17.4346 5.5654 17.944C5.38165 18.4618 5.26473 19.0909 5.17286 19.6393C5.06984 20.3687 5.10046 21.538 5.16171 22.273L5.30368 23.6344C5.3343 23.91 5.36492 24.1549 5.42617 24.4L5.7602 26.2259C5.79082 26.379 5.91332 26.5072 6.07202 26.5378L8.96173 26.9944C9.48234 27.0667 9.99738 27.1281 10.518 27.1281L18.1905 27.2199L25.8631 27.1281C26.3836 27.1281 26.9043 27.0918 27.4193 26.9944L30.3091 26.5378C30.4622 26.5072 30.6097 26.3847 30.6208 26.2259L30.9549 24.4C31.0161 24.1549 31.0467 23.8793 31.0774 23.6344L31.2194 22.273C31.2806 21.538 31.3112 20.3743 31.2082 19.6393C31.1163 19.0909 30.9994 18.4618 30.8157 17.944C30.6514 17.4541 30.0835 16.772 29.6853 16.4351C29.354 16.1595 29.0228 15.9396 28.7833 15.7865C28.5133 15.6278 28.2433 15.2547 28.1263 14.9485C27.7088 13.6233 26.4421 10.2771 24.6799 9.99314C22.4751 9.62292 20.6153 9.49484 18.1961 9.43359ZM16.4199 10.9923C17.3998 10.9311 19.0229 10.9311 20.0336 10.9923C21.6566 11.0842 23.0653 11.2067 24.229 11.421C25.454 11.6354 26.4339 14.4834 26.8015 15.7084C26.8933 16.0146 27.1689 16.4128 27.3833 16.5965L28.7001 17.6683C29.1901 18.0665 29.4963 18.6177 29.6188 19.1995L29.6494 19.4446C29.8025 20.302 29.8639 21.1901 29.8025 22.0476L29.7413 22.9969C29.7107 23.2726 29.6801 23.5175 29.6494 23.7931L29.4963 24.7731C29.4657 24.9262 29.3432 25.0793 29.1901 25.0793L27.2914 25.4163C26.7709 25.5081 26.2502 25.5694 25.7296 25.5694L20.4316 25.6612C18.931 25.6918 17.4611 25.6918 15.9605 25.6612L10.6626 25.5694C10.142 25.5694 9.62138 25.5081 9.10077 25.4163L7.20208 25.0793C7.04896 25.0487 6.92647 24.9262 6.89584 24.7731L6.74272 23.7931C6.7121 23.5481 6.68148 23.2726 6.65085 22.9969L6.5896 22.0476C6.52836 21.1595 6.55898 20.302 6.74272 19.4446L6.77335 19.1995C6.89584 18.5871 7.20208 18.0358 7.69207 17.6683L9.0089 16.5965C9.25389 16.4128 9.49888 15.984 9.59076 15.7084C9.95824 14.4834 10.9688 11.6354 12.1632 11.421C13.3575 11.2067 14.7662 11.0591 16.4199 10.9923ZM5.55982 24.6897L5.60992 26.4099C5.60992 26.6855 5.64054 26.9305 5.70179 27.2061L5.88553 27.9717C5.94678 28.2167 6.16115 28.3698 6.40614 28.3698H8.79481C8.9173 28.3698 9.0398 28.3086 9.07042 28.1861L9.13167 28.0942C9.19292 27.9717 9.22354 27.8493 9.25417 27.7267L9.35162 26.8859L5.55982 24.6897ZM30.863 24.6897L27.0767 26.8803L27.1742 27.7211C27.1993 27.8436 27.2355 27.9661 27.2967 28.0887L27.358 28.1805C27.4192 28.2724 27.5111 28.3643 27.6335 28.3643H30.0223C30.2673 28.3643 30.4816 28.2112 30.5428 27.9661L30.7267 27.2005C30.7879 26.9555 30.8185 26.68 30.8185 26.4043L30.863 24.6897ZM7.78394 24.2274L7.4777 23.0944L9.46826 23.37C9.652 23.4006 9.80512 23.37 9.98887 23.3087L10.5401 23.125C10.5707 23.125 10.5707 23.0638 10.5401 23.0331L7.32458 22.4819C7.26333 22.4819 7.20208 22.5431 7.20208 22.6044L7.44708 23.86C7.4777 23.9518 7.50832 24.0131 7.56957 24.0743L7.78394 24.2274C7.78394 24.2831 7.75332 24.2887 7.78394 24.2274ZM28.6389 24.2274L28.9451 23.0944L26.9546 23.37C26.7709 23.4006 26.6177 23.37 26.4339 23.3087L25.8827 23.125C25.8521 23.125 25.8521 23.0638 25.8827 23.0331L29.0983 22.4819C29.1595 22.4819 29.2208 22.5431 29.2208 22.6044L28.9757 23.86C28.9451 23.9518 28.9145 24.0131 28.8532 24.0743L28.6389 24.2274C28.6695 24.2887 28.6389 24.2831 28.6389 24.2274ZM12.5 23.9463C12.255 23.9463 12.0407 24.0382 11.8569 24.1913L11.1832 24.7425C11.1526 24.7731 11.1526 24.8344 11.2138 24.8344L14.9193 25.0181C15.3481 25.0487 15.8074 25.0487 16.2362 25.0487L17.3386 25.0793C17.9205 25.0793 18.5024 25.0793 19.0841 25.0793L20.1867 25.0487C20.6153 25.0487 21.0747 25.0181 21.5035 25.0181L25.2089 24.8344C25.2397 24.8344 25.2703 24.7731 25.2397 24.7425L24.5659 24.1913C24.3821 24.0382 24.1678 23.9463 23.9228 23.9463L19.0535 24.0075C18.5024 24.0075 17.9511 24.0075 17.3998 24.0075L12.5 23.9463Z" fill="#252524"/>
<path d="M8.24276 17.7661C8.05902 17.9192 7.93652 18.1029 7.87527 18.3173L7.7834 18.5623C7.72215 18.746 7.69153 18.9604 7.6609 19.1442L7.63028 19.5116C7.59966 19.7872 7.7834 20.0323 8.05902 20.1241L9.49834 20.6142C9.89646 20.7366 10.3558 20.7673 10.7539 20.6754L11.7951 20.4303C11.8564 20.3997 11.887 20.3385 11.8564 20.2772L11.2439 19.6341C11.1214 19.5116 10.9683 19.3892 10.7846 19.3279L10.4783 19.2054C10.2333 19.1136 10.019 18.9604 9.83521 18.746L9.13086 17.9804C9.00836 17.8579 8.88586 17.7661 8.70212 17.7355L8.51838 17.7048C8.45713 17.6686 8.33463 17.6993 8.24276 17.7661ZM28.1484 17.7661C28.3321 17.9192 28.4546 18.1029 28.5158 18.3173L28.6078 18.5623C28.669 18.746 28.6996 18.9604 28.7302 19.1442L28.7609 19.5116C28.7915 19.7872 28.6078 20.0323 28.3321 20.1241L26.8927 20.6142C26.4947 20.7366 26.0353 20.7673 25.6372 20.6754L24.5959 20.4303C24.5347 20.3997 24.5041 20.3385 24.5347 20.2772L25.1472 19.6341C25.2697 19.5116 25.4228 19.3892 25.6066 19.3279L25.9128 19.2054C26.1578 19.1136 26.3722 18.9604 26.5559 18.746L27.2603 17.9804C27.3828 17.8579 27.5052 17.7661 27.689 17.7355L27.8728 17.7048C27.934 17.6686 28.0565 17.6993 28.1484 17.7661Z" fill="#252524"/>
</g>
<defs>
<clipPath id="clip0_826_2052">
<rect width="26.2109" height="21.7222" fill="white" transform="translate(5.10742 6.64844)"/>
</clipPath>
</defs>
</svg>
