<svg width="1024" height="1024" viewBox="0 0 1024 1024" fill="none" xmlns="http://www.w3.org/2000/svg">
<g clip-path="url(#clip0_485_12573)">
<g clip-path="url(#clip1_485_12573)">
<path d="M257.823 414.733L245.408 411.63L239.2 385.246C238.424 382.918 236.872 382.143 234.544 382.143L210.489 385.246C205.833 386.022 201.178 389.127 199.626 393.783L194.97 404.646C193.418 407.749 195.746 411.63 199.626 412.405L255.495 421.717L257.823 414.733ZM764.73 414.733L767.694 421.717L823.563 412.405C827.443 411.63 829.136 407.749 828.219 404.646L823.563 393.783C821.376 389.127 817.356 386.022 812.7 385.246L788.644 382.143C786.316 382.143 784.765 382.918 783.988 385.246L777.781 411.63L764.73 414.733ZM511.207 263C449.905 264.552 402.784 267.797 346.633 277.178C301.981 284.514 270.521 369.162 259.306 402.739C256.978 410.499 249.501 419.317 242.658 423.973C236.592 427.995 228.198 433.567 219.803 440.41C209.716 448.945 195.324 465.734 191.162 478.644C186.506 491.762 183.543 507.704 181.215 521.6C178.605 540.081 179.381 569.71 180.933 588.333L184.53 622.828C185.306 629.811 186.082 636.019 187.634 642.226L196.098 688.495C196.874 692.375 199.978 695.62 203.999 696.396L277.22 707.967C290.412 709.801 303.462 711.353 316.653 711.353L511.065 713.681L705.477 711.353C718.668 711.353 731.859 710.435 744.91 707.967L818.131 696.396C822.012 695.62 825.75 692.517 826.032 688.495L834.496 642.226C836.048 636.019 836.824 629.035 837.6 622.828L841.197 588.333C842.75 569.71 843.525 540.223 840.915 521.6C838.587 507.704 835.624 491.762 830.969 478.644C826.805 466.228 812.415 448.945 802.327 440.41C793.932 433.426 785.538 427.853 779.471 423.973C772.63 419.952 765.787 410.499 762.824 402.739C752.243 369.162 720.148 284.373 675.497 277.178C619.629 267.797 572.507 264.552 511.207 263ZM466.2 302.496C491.031 300.944 532.157 300.944 557.765 302.496C598.891 304.824 634.585 307.927 664.072 313.359C695.112 318.791 719.943 390.956 729.253 421.995C731.581 429.755 738.565 439.842 743.997 444.498L777.364 471.657C789.78 481.745 797.539 495.712 800.643 510.455L801.42 516.664C805.299 538.391 806.851 560.894 805.299 582.62L803.747 606.676C802.971 613.66 802.195 619.867 801.42 626.851L797.539 651.682C796.764 655.562 793.659 659.441 789.78 659.441L741.669 667.978C728.478 670.306 715.287 671.857 702.095 671.857L567.853 674.185C529.829 674.961 492.583 674.961 454.561 674.185L320.318 671.857C307.127 671.857 293.935 670.306 280.743 667.978L232.633 659.441C228.753 658.666 225.649 655.562 224.873 651.682L220.994 626.851C220.218 620.644 219.442 613.66 218.666 606.676L217.114 582.62C215.562 560.117 216.338 538.391 220.994 516.664L221.77 510.455C224.873 494.936 232.633 480.968 245.049 471.657L278.415 444.498C284.623 439.842 290.831 428.979 293.159 421.995C302.471 390.956 328.077 318.791 358.34 313.359C388.604 307.927 424.298 304.189 466.2 302.496ZM191.02 649.568L192.29 693.156C192.29 700.14 193.066 706.347 194.618 713.331L199.273 732.73C200.826 738.939 206.257 742.818 212.465 742.818H272.991C276.095 742.818 279.198 741.265 279.974 738.162L281.526 735.834C283.078 732.73 283.854 729.627 284.63 726.523L287.099 705.217L191.02 649.568ZM832.168 649.568L736.23 705.076L738.699 726.382C739.335 729.485 740.252 732.589 741.804 735.693L743.355 738.021C744.908 740.349 747.236 742.676 750.339 742.676H810.865C817.073 742.676 822.505 738.797 824.057 732.589L828.712 713.189C830.264 706.982 831.04 699.998 831.04 693.014L832.168 649.568ZM247.377 637.855L239.617 609.145L290.055 616.129C294.711 616.905 298.59 616.129 303.246 614.577L317.214 609.921C317.99 609.921 317.99 608.37 317.214 607.593L235.737 593.626C234.185 593.626 232.633 595.177 232.633 596.73L238.841 628.545C239.617 630.873 240.393 632.424 241.945 633.976L247.377 637.855C247.377 639.266 246.601 639.408 247.377 637.855ZM775.812 637.855L783.571 609.145L733.134 616.129C728.478 616.905 724.599 616.129 719.943 614.577L705.975 609.921C705.199 609.921 705.199 608.37 705.975 607.593L787.452 593.626C789.004 593.626 790.555 595.177 790.555 596.73L784.348 628.545C783.571 630.873 782.796 632.424 781.243 633.976L775.812 637.855C776.589 639.408 775.812 639.266 775.812 637.855ZM366.876 630.731C360.668 630.731 355.236 633.059 350.58 636.938L333.509 650.906C332.733 651.682 332.733 653.234 334.286 653.234L428.177 657.89C439.041 658.666 450.68 658.666 461.544 658.666L489.479 659.441C504.223 659.441 518.966 659.441 533.71 659.441L561.644 658.666C572.507 658.666 584.147 657.89 595.012 657.89L688.903 653.234C689.68 653.234 690.456 651.682 689.68 650.906L672.608 636.938C667.952 633.059 662.521 630.731 656.313 630.731L532.934 632.282C518.966 632.282 504.998 632.282 491.032 632.282L366.876 630.731Z" fill="#262625"/>
<path d="M259.018 474.127C254.362 478.006 251.258 482.662 249.706 488.093L247.378 494.302C245.826 498.958 245.05 504.389 244.274 509.045L243.498 518.356C242.722 525.34 247.378 531.548 254.362 533.876L290.832 546.292C300.92 549.395 312.56 550.171 322.647 547.843L349.031 541.636C350.582 540.859 351.359 539.308 350.582 537.755L335.063 521.461C331.959 518.356 328.079 515.252 323.423 513.701L315.663 510.596C309.456 508.268 304.025 504.389 299.369 498.958L281.521 479.558C278.417 476.455 275.313 474.127 270.657 473.35L266.001 472.574C264.45 471.657 261.346 472.433 259.018 474.127ZM763.398 474.127C768.054 478.006 771.157 482.662 772.71 488.093L775.038 494.302C776.59 498.958 777.366 504.389 778.141 509.045L778.917 518.356C779.694 525.34 775.038 531.548 768.054 533.876L731.583 546.292C721.495 549.395 709.857 550.171 699.769 547.843L673.386 541.636C671.833 540.859 671.058 539.308 671.833 537.755L687.354 521.461C690.457 518.356 694.336 515.252 698.992 513.701L706.752 510.596C712.96 508.268 718.392 504.389 723.048 498.958L740.895 479.558C743.998 476.455 747.103 474.127 751.759 473.35L756.414 472.574C757.966 471.657 761.07 472.433 763.398 474.127Z" fill="#262625"/>
</g>
</g>
<defs>
<clipPath id="clip0_485_12573">
<rect width="1024" height="1024" fill="white"/>
</clipPath>
<clipPath id="clip1_485_12573">
<rect width="1024" height="1024" fill="white" transform="translate(0 -9)"/>
</clipPath>
</defs>
</svg>
