<svg width="1024" height="1024" viewBox="0 0 1024 1024" fill="none" xmlns="http://www.w3.org/2000/svg">
<g clip-path="url(#clip0_485_12572)">
<g clip-path="url(#clip1_485_12572)">
<g clip-path="url(#clip2_485_12572)">
<path d="M253.572 384.704L234.946 382.376V357.545C234.946 351.337 228.738 345.905 222.53 347.458L201.576 352.889C196.92 354.44 193.04 357.545 191.487 362.201L186.055 378.496C185.279 381.599 186.831 384.704 189.935 385.48L250.467 394.015L253.572 384.704ZM770.338 384.704L773.442 394.015L833.975 385.48C837.079 384.704 839.407 381.599 837.854 378.496L832.422 362.201C830.87 357.545 826.99 353.665 822.333 352.889L801.381 347.458C795.172 345.905 788.964 350.561 788.964 357.545V382.376L770.338 384.704ZM458.866 216.39C406.449 218.718 352.551 221.822 342.463 226.195C283.979 250.53 247.646 385.197 247.646 385.197C247.646 385.197 195.016 417.788 180.553 448.683C164.608 483.958 165.104 572.132 165.739 596.963C166.515 621.794 165.6 653.113 188.453 682.595C205.31 704.248 316.849 708.904 413.714 710.88C468.038 711.797 556.507 711.797 610.83 710.88C708.331 708.411 819.869 704.389 836.091 682.595C858.945 652.478 858.17 621.794 858.806 596.963C859.44 572.132 859.443 484.593 843.991 448.683C828.894 417.788 776.899 385.197 776.899 385.197C776.899 385.197 740.565 250.672 682.081 226.195C671.993 221.681 617.461 218.577 565.678 216.39C535.695 215.473 488.356 215.473 458.866 216.39ZM458.866 252.712C488.356 251.936 535.695 251.936 564.408 252.712C611.748 254.264 657.535 256.592 666.848 262.024C714.187 290.735 742.125 411.01 742.125 411.01C742.125 411.01 792.568 438.945 805.76 462.224C824.386 509.558 817.401 570.86 816.626 595.691C815.85 620.522 815.073 639.922 807.313 654.665C801.881 665.528 701.77 669.409 609.421 671.737C555.097 673.288 466.626 673.288 412.303 671.737C319.953 669.409 219.066 665.528 214.41 654.665C207.425 639.145 205.873 620.522 205.097 595.691C204.321 570.86 198.113 509.558 215.962 462.224C229.155 438.945 279.598 411.01 279.598 411.01C279.598 411.01 307.536 290.735 354.875 262.024C365.74 256.592 411.527 254.264 458.866 252.712ZM176.11 651.07L179.708 702.202C180.484 709.186 181.401 715.395 183.588 721.602L186.692 732.465C188.244 738.673 193.677 742.552 199.885 742.552H275.938C279.042 742.552 282.146 741.001 282.923 737.898L284.474 735.57C286.027 732.465 286.803 729.361 287.578 726.258L290.683 697.829L176.11 651.07ZM847.306 651.07L733.368 697.829L736.472 726.258C736.472 729.361 738.024 732.465 739.577 735.57L741.128 737.898C742.681 740.226 745.009 742.552 748.113 742.552H824.166C830.374 742.552 835.806 738.673 837.359 732.465L840.463 721.602C842.015 715.395 843.567 708.411 844.344 702.202L847.306 651.07ZM237.691 635.407L229.931 606.696L280.374 613.679C285.03 614.455 288.911 613.679 293.568 612.128L307.536 607.472C308.312 607.472 308.312 605.92 307.536 605.144L226.051 591.176C224.499 591.176 222.946 592.729 222.946 594.28L229.155 626.095C229.931 628.423 230.707 629.975 232.259 631.527L236.915 635.407C236.915 636.959 238.326 636.818 237.691 635.407ZM786.36 635.407L794.12 606.696L743.676 613.679C739.021 614.455 735.14 613.679 730.484 612.128L716.515 607.472C715.739 607.472 715.739 605.92 716.515 605.144L798 591.176C799.552 591.176 801.105 592.729 801.105 594.28L794.896 626.095C794.12 628.423 793.343 629.975 791.792 631.527L787.136 635.407C787.136 636.959 785.583 636.818 786.36 635.407ZM367.292 630.61C361.084 630.61 355.651 632.938 350.995 636.818L333.922 650.785C333.145 651.56 333.145 653.113 334.698 653.113L428.6 657.769C439.464 658.544 451.106 658.544 461.97 658.544L489.908 659.321C504.653 659.321 519.398 659.321 534.143 659.321L562.08 658.544C572.946 658.544 584.587 657.769 595.451 657.769L689.354 653.113C690.129 653.113 690.905 651.56 690.129 650.785L673.056 636.818C668.4 632.938 662.967 630.61 656.76 630.61L533.367 632.162C519.398 632.162 505.429 632.162 491.46 632.162L367.292 630.61Z" fill="#262625"/>
<path d="M249.332 450.585C244.676 454.465 241.571 459.121 240.019 464.552L237.691 470.761C236.139 475.416 235.363 480.848 234.587 485.504L233.811 494.815C233.035 501.799 237.691 508.007 244.676 510.335L285.03 521.974C295.894 525.079 306.76 525.079 317.624 522.751L340.13 517.318C341.682 516.542 342.458 514.991 341.682 513.439L326.161 497.143C323.056 494.039 319.177 490.936 314.52 489.383L306.76 486.28C300.551 483.952 295.119 480.072 290.462 474.64L272.613 455.241C269.509 452.137 266.405 449.809 261.749 449.033L257.092 448.257C254.764 447.622 251.66 448.399 249.332 450.585ZM773.943 450.585C778.599 454.465 781.703 459.121 783.255 464.552L785.583 470.761C787.135 475.416 787.911 480.848 788.688 485.504L789.464 494.815C790.239 501.799 785.583 508.007 778.599 510.335L738.244 521.974C727.379 525.079 716.515 525.079 705.65 522.751L683.144 517.318C681.593 516.542 680.816 514.991 681.593 513.439L697.114 497.143C700.218 494.039 704.098 490.936 708.754 489.383L716.515 486.28C722.723 483.952 728.155 480.072 732.812 474.64L750.661 455.241C753.766 452.137 756.87 449.809 761.526 449.033L766.182 448.257C769.145 447.622 771.615 448.399 773.943 450.585Z" fill="#262625"/>
</g>
</g>
</g>
<defs>
<clipPath id="clip0_485_12572">
<rect width="1024" height="1024" fill="white"/>
</clipPath>
<clipPath id="clip1_485_12572">
<rect width="1024" height="1024" fill="white" transform="translate(0 -32)"/>
</clipPath>
<clipPath id="clip2_485_12572">
<rect width="694" height="527" fill="white" transform="translate(165 216)"/>
</clipPath>
</defs>
</svg>
