<svg width="1024" height="1024" viewBox="0 0 1024 1024" fill="none" xmlns="http://www.w3.org/2000/svg">
<g clip-path="url(#clip0_315_17045)">
<path d="M257.825 423.733L245.41 420.63L239.202 394.246C238.426 391.918 236.874 391.143 234.546 391.143L210.491 394.246C205.835 395.022 201.18 398.127 199.628 402.783L194.972 413.646C193.42 416.749 195.748 420.63 199.628 421.405L255.497 430.717L257.825 423.733ZM764.732 423.733L767.696 430.717L823.565 421.405C827.445 420.63 829.138 416.749 828.221 413.646L823.565 402.783C821.378 398.127 817.358 395.022 812.702 394.246L788.646 391.143C786.318 391.143 784.767 391.918 783.99 394.246L777.783 420.63L764.732 423.733ZM511.209 272C449.906 273.552 402.786 276.797 346.635 286.178C301.983 293.514 270.523 378.162 259.308 411.739C256.98 419.499 249.503 428.317 242.66 432.973C236.594 436.995 228.199 442.567 219.805 449.41C209.718 457.945 195.326 474.734 191.164 487.644C186.508 500.762 183.545 516.704 181.217 530.6C178.607 549.081 179.383 578.71 180.935 597.333L184.532 631.828C185.308 638.811 186.084 645.019 187.636 651.226L196.1 697.495C196.876 701.375 199.98 704.62 204.001 705.396L277.222 716.967C290.414 718.801 303.464 720.353 316.655 720.353L511.067 722.681L705.479 720.353C718.67 720.353 731.861 719.435 744.912 716.967L818.133 705.396C822.014 704.62 825.751 701.517 826.034 697.495L834.498 651.226C836.05 645.019 836.826 638.035 837.602 631.828L841.199 597.333C842.752 578.71 843.527 549.222 840.917 530.6C838.589 516.704 835.626 500.762 830.97 487.644C826.807 475.228 812.417 457.945 802.329 449.41C793.934 442.426 785.54 436.853 779.473 432.973C772.632 428.952 765.789 419.499 762.826 411.739C752.245 378.162 720.15 293.373 675.499 286.178C619.631 276.797 572.509 273.552 511.209 272ZM466.202 311.496C491.033 309.944 532.159 309.944 557.767 311.496C598.893 313.824 634.587 316.927 664.074 322.359C695.113 327.791 719.945 399.956 729.255 430.995C731.583 438.755 738.567 448.842 743.999 453.498L777.366 480.657C789.782 490.745 797.541 504.712 800.645 519.455L801.422 525.664C805.301 547.391 806.853 569.894 805.301 591.62L803.748 615.676C802.973 622.66 802.197 628.867 801.422 635.851L797.541 660.682C796.766 664.562 793.661 668.442 789.782 668.442L741.671 676.978C728.48 679.306 715.289 680.857 702.097 680.857L567.855 683.185C529.831 683.961 492.585 683.961 454.562 683.185L320.32 680.857C307.129 680.857 293.937 679.306 280.745 676.978L232.635 668.442C228.755 667.666 225.651 664.562 224.875 660.682L220.996 635.851C220.22 629.644 219.444 622.66 218.668 615.676L217.116 591.62C215.564 569.117 216.34 547.391 220.996 525.664L221.771 519.455C224.875 503.936 232.635 489.968 245.051 480.657L278.417 453.498C284.625 448.842 290.833 437.979 293.161 430.995C302.473 399.956 328.079 327.791 358.342 322.359C388.606 316.927 424.3 313.189 466.202 311.496ZM191.022 658.568L192.292 702.156C192.292 709.14 193.068 715.347 194.62 722.331L199.275 741.73C200.827 747.939 206.259 751.818 212.467 751.818H272.993C276.096 751.818 279.2 750.265 279.976 747.162L281.528 744.834C283.08 741.73 283.856 738.627 284.632 735.523L287.101 714.217L191.022 658.568ZM832.17 658.568L736.232 714.076L738.701 735.382C739.337 738.485 740.254 741.589 741.806 744.693L743.357 747.021C744.91 749.349 747.238 751.676 750.341 751.676H810.867C817.075 751.676 822.507 747.797 824.059 741.589L828.714 722.189C830.266 715.982 831.042 708.998 831.042 702.014L832.17 658.568ZM247.379 646.855L239.619 618.145L290.057 625.129C294.713 625.905 298.592 625.129 303.248 623.577L317.216 618.921C317.992 618.921 317.992 617.37 317.216 616.593L235.739 602.626C234.187 602.626 232.635 604.177 232.635 605.73L238.843 637.545C239.619 639.873 240.395 641.424 241.947 642.976L247.379 646.855C247.379 648.266 246.603 648.408 247.379 646.855ZM775.814 646.855L783.573 618.145L733.136 625.129C728.48 625.905 724.6 625.129 719.945 623.577L705.977 618.921C705.201 618.921 705.201 617.37 705.977 616.593L787.454 602.626C789.006 602.626 790.557 604.177 790.557 605.73L784.35 637.545C783.573 639.873 782.798 641.424 781.245 642.976L775.814 646.855C776.591 648.408 775.814 648.266 775.814 646.855ZM366.878 639.731C360.67 639.731 355.238 642.059 350.582 645.938L333.511 659.906C332.735 660.682 332.735 662.234 334.288 662.234L428.179 666.89C439.043 667.666 450.682 667.666 461.546 667.666L489.481 668.442C504.225 668.442 518.968 668.442 533.712 668.442L561.646 667.666C572.509 667.666 584.149 666.89 595.014 666.89L688.905 662.234C689.682 662.234 690.457 660.682 689.682 659.906L672.61 645.938C667.954 642.059 662.523 639.731 656.315 639.731L532.936 641.282C518.968 641.282 505 641.282 491.033 641.282L366.878 639.731Z" fill="#262625"/>
<path d="M259.018 483.127C254.362 487.006 251.258 491.662 249.706 497.093L247.378 503.302C245.826 507.958 245.05 513.389 244.274 518.045L243.498 527.356C242.722 534.34 247.378 540.548 254.362 542.876L290.832 555.292C300.92 558.395 312.56 559.171 322.647 556.843L349.031 550.636C350.582 549.859 351.359 548.308 350.582 546.755L335.063 530.461C331.959 527.356 328.079 524.252 323.423 522.701L315.663 519.596C309.456 517.268 304.025 513.389 299.369 507.958L281.521 488.558C278.417 485.455 275.313 483.127 270.657 482.35L266.001 481.574C264.45 480.657 261.346 481.433 259.018 483.127ZM763.398 483.127C768.054 487.006 771.157 491.662 772.71 497.093L775.038 503.302C776.59 507.958 777.366 513.389 778.141 518.045L778.917 527.356C779.694 534.34 775.038 540.548 768.054 542.876L731.583 555.292C721.495 558.395 709.857 559.171 699.769 556.843L673.386 550.636C671.833 549.859 671.058 548.308 671.833 546.755L687.354 530.461C690.457 527.356 694.336 524.252 698.992 522.701L706.752 519.596C712.96 517.268 718.392 513.389 723.048 507.958L740.895 488.558C743.998 485.455 747.103 483.127 751.759 482.35L756.414 481.574C757.966 480.657 761.07 481.433 763.398 483.127Z" fill="#262625"/>
</g>
<defs>
<clipPath id="clip0_315_17045">
<rect width="1024" height="1024" fill="white"/>
</clipPath>
</defs>
</svg>
