<svg width="36" height="36" viewBox="0 0 36 36" fill="none" xmlns="http://www.w3.org/2000/svg">
<g clip-path="url(#clip0_826_2069)">
<path d="M7.91082 14.7146L7.17584 14.6228V13.6428C7.17584 13.3978 6.93085 13.1834 6.68586 13.2447L5.85901 13.4591C5.67527 13.5203 5.52214 13.6428 5.46089 13.8266L5.24653 14.4697C5.2159 14.5922 5.27715 14.7146 5.39965 14.7453L7.78832 15.0821L7.91082 14.7146ZM28.3031 14.7146L28.4256 15.0821L30.8143 14.7453C30.9368 14.7146 31.0286 14.5922 30.9674 14.4697L30.753 13.8266C30.6918 13.6428 30.5387 13.4897 30.3549 13.4591L29.528 13.2447C29.2831 13.1834 29.0381 13.3672 29.0381 13.6428V14.6228L28.3031 14.7146ZM16.012 8.07207C13.9436 8.16394 11.8167 8.28644 11.4186 8.45903C9.11072 9.41943 7.67698 14.7341 7.67698 14.7341C7.67698 14.7341 5.60012 16.0203 5.02942 17.2396C4.40021 18.6318 4.41977 22.1116 4.44482 23.0915C4.47544 24.0715 4.43933 25.3075 5.34114 26.4711C6.00636 27.3256 10.4078 27.5093 14.2302 27.5873C16.3739 27.6235 19.865 27.6235 22.0087 27.5873C25.8563 27.4899 30.2576 27.3312 30.8978 26.4711C31.7996 25.2825 31.7691 24.0715 31.7941 23.0915C31.8192 22.1116 31.8193 18.6568 31.2096 17.2396C30.6138 16.0203 28.562 14.7341 28.562 14.7341C28.562 14.7341 27.1283 9.42501 24.8204 8.45903C24.4223 8.28086 22.2704 8.15837 20.2269 8.07207C19.0437 8.03587 17.1757 8.03587 16.012 8.07207ZM16.012 9.50554C17.1757 9.47492 19.0437 9.47492 20.1769 9.50554C22.0449 9.56679 23.8518 9.65866 24.2192 9.87303C26.0873 11.0061 27.1898 15.7528 27.1898 15.7528C27.1898 15.7528 29.1804 16.8553 29.7009 17.774C30.4359 19.6421 30.1603 22.0614 30.1297 23.0413C30.0991 24.0214 30.0684 24.787 29.7621 25.3687C29.5478 25.7975 25.5973 25.9506 21.953 26.0425C19.8093 26.1037 16.3182 26.1037 14.1746 26.0425C10.5303 25.9506 6.54918 25.7975 6.36544 25.3687C6.08982 24.7563 6.02857 24.0214 5.99795 23.0413C5.96732 22.0614 5.72233 19.6421 6.42668 17.774C6.94729 16.8553 8.93785 15.7528 8.93785 15.7528C8.93785 15.7528 10.0403 11.0061 11.9084 9.87303C12.3371 9.65866 14.1439 9.56679 16.012 9.50554ZM4.85408 25.2269L4.99605 27.2449C5.02667 27.5205 5.06288 27.7655 5.14917 28.0105L5.27167 28.4392C5.33291 28.6842 5.54728 28.8373 5.79228 28.8373H8.79343C8.91593 28.8373 9.03842 28.7761 9.06905 28.6536L9.1303 28.5617C9.19154 28.4392 9.22217 28.3168 9.25279 28.1943L9.37529 27.0723L4.85408 25.2269ZM31.3404 25.2269L26.8442 27.0723L26.9667 28.1943C26.9667 28.3168 27.0279 28.4392 27.0893 28.5617L27.1505 28.6536C27.2117 28.7454 27.3036 28.8373 27.4261 28.8373H30.4272C30.6722 28.8373 30.8865 28.6842 30.9479 28.4392L31.0704 28.0105C31.1316 27.7655 31.1928 27.4899 31.2235 27.2449L31.3404 25.2269ZM7.28416 24.6088L6.97792 23.4756L8.96848 23.7513C9.15222 23.7819 9.30534 23.7513 9.48908 23.6901L10.0403 23.5063C10.0709 23.5063 10.0709 23.445 10.0403 23.4144L6.8248 22.8631C6.76355 22.8631 6.7023 22.9245 6.7023 22.9857L6.94729 24.2412C6.97792 24.3331 7.00854 24.3943 7.06979 24.4557L7.25353 24.6088C7.25353 24.67 7.30921 24.6645 7.28416 24.6088ZM28.9353 24.6088L29.2416 23.4756L27.251 23.7513C27.0673 23.7819 26.9142 23.7513 26.7305 23.6901L26.1792 23.5063C26.1486 23.5063 26.1486 23.445 26.1792 23.4144L29.3947 22.8631C29.4559 22.8631 29.5172 22.9245 29.5172 22.9857L29.2722 24.2412C29.2416 24.3331 29.211 24.3943 29.1497 24.4557L28.9659 24.6088C28.9659 24.67 28.9047 24.6645 28.9353 24.6088ZM12.3984 24.4194C12.1534 24.4194 11.939 24.5113 11.7553 24.6645L11.0815 25.2156C11.0509 25.2463 11.0509 25.3075 11.1122 25.3075L14.8177 25.4913C15.2464 25.5219 15.7058 25.5219 16.1345 25.5219L17.237 25.5526C17.8188 25.5526 18.4007 25.5526 18.9825 25.5526L20.085 25.5219C20.5137 25.5219 20.9731 25.4913 21.4019 25.4913L25.1073 25.3075C25.1379 25.3075 25.1685 25.2463 25.1379 25.2156L24.4643 24.6645C24.2805 24.5113 24.0661 24.4194 23.8212 24.4194L18.9519 24.4807C18.4007 24.4807 17.8495 24.4807 17.2982 24.4807L12.3984 24.4194Z" fill="#252524"/>
<path d="M7.74471 17.3152C7.56097 17.4683 7.43847 17.652 7.37723 17.8664L7.28535 18.1114C7.22411 18.2951 7.19348 18.5095 7.16286 18.6932L7.13223 19.0607C7.10161 19.3364 7.28535 19.5814 7.56097 19.6732L9.15342 20.1326C9.58215 20.2551 10.0109 20.2551 10.4396 20.1632L11.3277 19.9488C11.389 19.9182 11.4196 19.8569 11.389 19.7957L10.7765 19.1526C10.654 19.0301 10.5009 18.9076 10.3171 18.8464L10.0109 18.7239C9.7659 18.632 9.55153 18.4789 9.36779 18.2645L8.66343 17.4989C8.54094 17.3764 8.41844 17.2845 8.2347 17.2539L8.05095 17.2233C7.95908 17.1982 7.83659 17.2289 7.74471 17.3152ZM28.4466 17.3152C28.6303 17.4683 28.7528 17.652 28.814 17.8664L28.9059 18.1114C28.9671 18.2951 28.9977 18.5095 29.0285 18.6932L29.0591 19.0607C29.0897 19.3364 28.9059 19.5814 28.6303 19.6732L27.0379 20.1326C26.6091 20.2551 26.1804 20.2551 25.7516 20.1632L24.8635 19.9488C24.8023 19.9182 24.7717 19.8569 24.8023 19.7957L25.4148 19.1526C25.5373 19.0301 25.6904 18.9076 25.8741 18.8464L26.1804 18.7239C26.4254 18.632 26.6397 18.4789 26.8235 18.2645L27.5279 17.4989C27.6504 17.3764 27.7728 17.2845 27.9566 17.2539L28.1403 17.2233C28.2572 17.1982 28.3547 17.2289 28.4466 17.3152Z" fill="#252524"/>
</g>
<defs>
<clipPath id="clip0_826_2069">
<rect width="27.3862" height="21.8224" fill="white" transform="translate(4.41602 7.01562)"/>
</clipPath>
</defs>
</svg>
