<svg width="1024" height="1024" viewBox="0 0 1024 1024" fill="none" xmlns="http://www.w3.org/2000/svg">
<g clip-path="url(#clip0_1093_39450)">
<g clip-path="url(#clip1_1093_39450)">
<path d="M585.685 248.875C622.153 251.112 657.425 254.182 673.205 256.589C699.893 260.659 756.075 341.402 774.23 387.958C777.735 385.499 782.546 381.948 785.753 379.714C782.699 371.75 783.786 361.208 786.845 351.41H786.846L787.203 350.533C791.604 341.907 817.633 346.468 824.937 350.156C832.477 353.963 837.383 360.602 837.383 363.939C837.383 365.099 837.492 366.618 837.228 368.968C837.135 369.834 839.054 370.607 838.953 371.834C838.852 373.061 836.498 373.806 836.327 374.677C835.8 377.365 834.962 379.945 834.09 380.98C831.891 383.593 821.494 385.613 819.582 386.089C817.671 386.565 809.904 387.664 804.741 389.747C800.042 391.644 796.116 398.004 790.344 405.912C801.039 416.172 811.401 426.565 815.062 441.291C816.688 447.832 843.798 469.095 843.223 516.347C842.924 540.978 841.28 598.33 835.852 642.661C835.635 656.201 834.935 691.158 833.225 716.695C831.99 735.14 824.358 742.779 810.656 742.826L766.206 742.986C760.276 743.007 752.997 735.224 752.33 725.436L751.458 715.3C735.504 717.807 720.849 719.658 712.746 719.923C696.726 720.448 621.703 719.94 565.455 719.502C535.725 719.27 487.527 719.271 457.8 719.506C401.552 719.949 326.525 720.464 310.504 719.94C302.4 719.676 287.742 717.826 271.785 715.32L270.914 725.436C270.247 735.224 262.968 743.009 257.038 742.986L212.588 742.826C198.886 742.779 191.254 735.14 190.019 716.695C188.309 691.181 187.61 656.265 187.392 642.7C181.96 598.367 180.311 541.008 180.009 516.375C179.43 469.124 206.539 447.858 208.164 441.317C211.826 426.58 222.2 416.182 232.902 405.914C227.129 398.005 223.203 391.644 218.503 389.747C213.34 387.664 205.573 386.565 203.662 386.089C201.75 385.613 191.353 383.593 189.154 380.98C188.282 379.945 187.444 377.365 186.917 374.677C186.747 373.806 184.392 373.061 184.291 371.834C184.193 370.607 186.109 369.834 186.016 368.968C185.752 366.618 185.861 365.099 185.861 363.939C185.861 360.602 190.767 353.963 198.307 350.156C205.847 346.349 233.339 341.612 236.398 351.41H236.4C239.459 361.208 240.545 371.75 237.491 379.714C240.694 381.945 245.499 385.491 249.003 387.951C267.166 341.389 323.323 260.674 350.005 256.603C365.784 254.195 401.054 251.121 437.521 248.881C478.392 246.375 544.815 246.372 585.685 248.875ZM437.501 287.231C407.935 288.807 380.892 290.967 366.12 293.222C338.932 297.371 297.949 366.11 280.834 412.283C266.706 428.785 246.518 441.095 241.088 462.949C239.462 469.49 218.08 476.318 218.661 523.57C219.166 564.755 220.87 655.266 240.149 666.056C248.777 670.885 313.035 680.793 335.885 681.539C351.334 682.044 409.85 681.584 457.8 681.153C487.525 680.886 535.723 680.884 565.453 681.148C613.401 681.579 671.913 682.03 687.361 681.525C710.212 680.776 774.469 670.862 783.097 666.033C802.374 655.241 804.068 564.73 804.572 523.545C805.147 476.293 783.765 469.467 782.14 462.926C776.707 441.073 756.519 428.764 742.389 412.264C725.27 366.092 684.281 297.356 657.093 293.21C642.32 290.957 615.276 288.798 585.709 287.224C544.819 285.047 478.392 285.05 437.501 287.231ZM794.405 573.677C795.01 589.998 795.777 630.99 784.09 635.966C772.403 640.942 673.192 656.596 658.272 658.138C625.425 660.196 589.741 661.111 561.776 661.509C534.089 661.903 489.199 661.903 461.522 661.509C433.554 661.112 397.861 660.196 365.008 658.138C350.088 656.596 250.877 640.942 239.189 635.966C227.503 630.99 228.27 589.998 228.875 573.677C229.05 568.98 232.886 569.826 242.632 572.498C281.562 583.176 312.275 599.565 315.845 610.381C331.642 614.831 402.522 619.04 454.474 621.61L460.613 621.885C492.362 623.166 539.213 623.074 568.804 621.61C620.757 619.04 691.638 614.831 707.434 610.381C711.005 599.565 741.718 583.176 780.648 572.498C790.394 569.826 794.226 568.98 794.405 573.677ZM562.343 508.218C597.997 509.174 634.222 510.831 642.157 512.601C654.181 515.284 688.072 535.822 689.388 542.936C690.703 550.051 652.614 593.404 637.72 598.139C629.543 600.738 592.29 602.253 560.351 603.09C533.453 603.796 489.827 603.796 462.93 603.09C430.991 602.253 393.737 600.738 385.56 598.139C370.665 593.404 332.576 550.051 333.892 542.936C335.208 535.822 369.099 515.284 381.123 512.601C389.058 510.831 425.281 509.174 460.934 508.218L466.379 508.086C494.541 507.469 536.097 507.513 562.343 508.218Z" fill="#262625"/>
<path d="M347.559 507.084C348.608 505.934 349.49 502.06 345.758 501.072C328.089 496.394 283.46 484.061 263.223 476.784C246.273 470.688 245.747 465.003 242.867 465.666C239.987 466.329 236.104 476.702 235.077 482.376C234.049 488.049 232.777 503.973 235.348 506.84C237.919 509.707 252.901 517.23 271.158 519.793C289.416 522.356 314.336 526.571 320.202 525.233C326.068 523.896 342.161 513 347.559 507.084ZM675.685 507.084C674.636 505.934 673.754 502.06 677.486 501.072C695.155 496.394 739.784 484.061 760.021 476.784C776.971 470.688 777.498 465.003 780.377 465.666C783.257 466.329 787.14 476.702 788.167 482.376C789.195 488.049 790.468 503.973 787.896 506.84C785.325 509.707 770.343 517.23 752.086 519.793C733.828 522.356 708.908 526.571 703.043 525.233C697.176 523.896 681.082 513 675.684 507.084H675.685Z" fill="#262625"/>
</g>
</g>
<defs>
<clipPath id="clip0_1093_39450">
<rect width="1024" height="1024" fill="white"/>
</clipPath>
<clipPath id="clip1_1093_39450">
<rect width="1024" height="1024" fill="white" transform="translate(0 -17)"/>
</clipPath>
</defs>
</svg>
