<svg width="1024" height="1024" viewBox="0 0 1024 1024" fill="none" xmlns="http://www.w3.org/2000/svg">
<g clip-path="url(#clip0_1002_36155)">
<g clip-path="url(#clip1_1002_36155)">
<path d="M586.165 214.788C625.954 217.106 663.785 220.86 679.359 225.68C701.91 232.658 736.885 287.502 758.407 330.775C761.863 330.717 765.462 330.661 767.623 330.44C766.835 319.476 772.028 306.484 777.079 304.422C782.13 302.359 782.104 302.73 786.938 302.919L787.451 302.96C793.346 303.623 817.378 311.523 819.442 315.324C821.574 319.248 820.094 327.36 818.653 332.097C816.974 337.622 810.247 346.204 807.415 346.996C802.464 348.381 781.116 346.521 773.312 345.768C771.613 345.603 771.675 344.347 771.202 343.167C768.729 343.244 766.438 343.313 764.427 343.376C765.159 344.903 765.81 346.34 766.439 347.752C781.511 350.542 805.774 376.267 833.927 411.124C852.711 434.383 854.158 551.086 847.63 628.401C847.313 653.601 846.589 695.682 845.131 717.457C843.896 735.902 836.264 743.541 822.561 743.588L772.576 743.748C766.647 743.767 759.367 735.986 758.7 726.198L758.095 715.937C714.504 716.061 650.318 716.216 598.207 716.336C550.644 716.441 473.53 716.445 425.967 716.344C373.853 716.228 309.663 716.078 266.071 715.959L265.467 726.198C264.8 735.986 257.521 743.763 251.591 743.748L201.606 743.588C187.904 743.541 180.271 735.902 179.036 717.457C177.578 695.698 176.855 653.663 176.538 628.456C170.001 551.142 171.436 434.416 190.222 411.152C218.372 376.294 242.632 350.566 257.704 347.774C258.336 346.355 258.991 344.91 259.727 343.375C257.719 343.313 255.432 343.244 252.966 343.167C252.495 344.347 252.555 345.603 250.855 345.768C243.052 346.521 221.704 348.381 216.752 346.996C213.921 346.204 207.194 337.622 205.515 332.097C204.073 327.36 202.593 319.248 204.725 315.324C206.856 311.401 232.395 303.109 237.229 302.919C242.063 302.729 242.038 302.359 247.089 304.422C252.139 306.484 257.333 319.476 256.544 330.44C258.702 330.66 262.295 330.717 265.746 330.775C287.265 287.503 322.227 232.674 344.773 225.695C360.346 220.874 398.176 217.116 437.966 214.795L437.968 214.794C478.846 212.404 545.286 212.402 586.165 214.788ZM437.958 253.332C404.237 255.235 373.935 258.346 359.07 262.948C333.436 270.883 306.028 334.256 286.279 378.606C271.206 381.398 241.058 397.745 222.389 432.453C208.118 458.984 209.209 573.88 218.645 629.914C249.151 650.538 341.136 661.159 363.465 662.492C375.84 663.231 418.441 663.754 454.88 664.077C486.482 664.358 537.717 664.358 569.314 664.077C605.756 663.753 648.362 663.231 660.738 662.492C683.056 661.16 774.961 650.549 805.511 629.944C814.95 573.93 816.037 458.967 801.76 432.428C783.087 397.722 752.938 381.377 737.865 378.587C718.113 334.238 690.698 270.868 665.063 262.935C650.198 258.335 619.895 255.226 586.173 253.326C545.29 251.023 478.843 251.026 437.958 253.332ZM784.232 573.223C799.505 577.453 795.865 630.986 792.669 631.445C789.473 631.903 788.896 595.931 783.018 594.032C764.799 588.146 707.887 602.853 697.488 608.523C687.09 614.193 647.11 651.099 620.346 652.776C608.105 653.543 584.379 654.163 562.233 654.611C534.548 655.17 489.658 655.17 461.977 654.611C439.829 654.163 416.098 653.543 403.857 652.776C377.093 651.099 337.113 614.193 326.715 608.523C316.316 602.853 259.405 588.146 241.186 594.032C235.307 595.931 234.73 631.903 231.535 631.445C228.338 630.986 224.698 577.453 239.971 573.223C255.243 568.993 302.86 580.245 313.264 582.703C323.668 585.16 345.561 602.228 362.292 605.1C371.567 606.692 416.594 607.851 454.886 608.569L461.031 608.673C492.811 609.158 539.693 609.124 569.314 608.569C607.606 607.851 652.636 606.692 661.911 605.1C678.642 602.228 700.535 585.16 710.94 582.703C721.343 580.245 768.96 568.993 784.232 573.223ZM562.801 471.1C594.268 472.041 623.859 473.592 629.408 475.181C643.858 479.319 686.367 491.834 691.537 503.677C693.949 509.201 692.918 522.498 686.738 532.648C681.43 541.365 666.092 560.142 661.128 556.737C656.164 553.331 660.091 542.103 661.617 537.576C663.144 533.049 672.363 514.207 668.691 507.708C662.916 497.488 626.301 484.501 607.106 483.9C598.766 483.639 579.702 483.175 560.808 482.734C533.909 482.105 490.294 482.105 463.395 482.734C444.501 483.175 425.437 483.64 417.097 483.9C397.902 484.501 361.288 497.488 355.512 507.708C351.84 514.207 361.059 533.049 362.586 537.576C364.112 542.103 368.039 553.331 363.075 556.737C358.111 560.142 342.773 541.365 337.465 532.648C331.285 522.498 330.254 509.201 332.666 503.677C337.836 491.834 380.345 479.319 394.796 475.181C400.344 473.592 429.932 472.041 461.397 471.101L466.842 470.953C495.001 470.267 536.558 470.316 562.801 471.1Z" fill="#262625"/>
<path d="M374.742 471.72C374.742 471.72 278.221 450.592 249.355 440.401C232.369 434.404 229.517 426.61 229.517 426.61C229.517 426.61 223.171 436.6 223.244 447.118C223.322 457.635 222.887 472.153 229.915 475.18C236.944 478.207 255.264 482.306 274.684 484.326C285.797 485.482 310.66 492.743 324.576 491.659C326.948 491.474 323.932 487.589 325.659 487.248C335.15 485.37 374.742 471.72 374.742 471.72ZM649.426 471.72C649.426 471.72 745.946 450.592 774.813 440.401C791.798 434.404 794.65 426.61 794.65 426.61C794.65 426.61 800.997 436.6 800.923 447.118C800.846 457.635 801.28 472.153 794.252 475.18C787.223 478.207 768.903 482.306 749.483 484.326C738.371 485.482 713.508 492.743 699.592 491.659C697.219 491.474 700.236 487.589 698.508 487.248C689.018 485.37 649.426 471.72 649.426 471.72Z" fill="#262625"/>
</g>
</g>
<defs>
<clipPath id="clip0_1002_36155">
<rect width="1024" height="1024" fill="white"/>
</clipPath>
<clipPath id="clip1_1002_36155">
<rect width="1024" height="1024" fill="white" transform="translate(0 -34)"/>
</clipPath>
</defs>
</svg>
