<svg width="36" height="36" viewBox="0 0 36 36" fill="none" xmlns="http://www.w3.org/2000/svg">
<g clip-path="url(#clip0_820_1869)">
<path d="M6.26056 26.2254L5.89308 24.3268C5.89308 24.3268 5.61746 27.8179 6.01557 28.6447C6.10744 28.8284 6.41368 28.8898 6.62805 28.8898L9.01672 28.8284C9.26171 28.8284 9.29234 26.6848 9.29234 26.6848L6.29119 26.2867L6.26056 26.2254ZM30.0853 26.2254L27.0843 26.6236C27.0843 26.6236 27.0843 28.7672 27.3599 28.7672L29.7485 28.8284C29.9629 28.8284 30.2692 28.7672 30.361 28.5835C30.7591 27.7566 30.4835 24.2656 30.4835 24.2656L30.1161 26.1642L30.0853 26.2254ZM15.9959 12.2752C17.1902 12.2139 19.1501 12.2139 20.3445 12.2752C22.1207 12.3977 24.2338 12.5814 24.6012 12.7958C25.9181 13.6226 26.898 16.44 26.898 16.44C26.898 16.44 27.6942 16.44 27.9087 16.5013C28.1536 16.5932 28.6435 17.3588 29.2254 18.1244C29.4705 20.2987 29.2254 24.1879 28.8274 24.7392C28.3067 25.4129 27.2962 25.1372 26.3161 25.1372H20.3751C18.9358 25.1372 17.4658 25.1372 16.0265 25.1372H10.0855C9.10548 25.1372 8.09489 25.3823 7.57428 24.7085C7.17617 24.1573 6.93118 20.268 7.17617 18.0937C7.75803 17.2975 8.24801 16.5319 8.493 16.4707C8.67675 16.4094 9.5036 16.4094 9.5036 16.4094C9.5036 16.4094 10.4836 13.592 11.8004 12.7652C12.1679 12.5508 14.2809 12.3671 16.0571 12.2446L15.9959 12.2752ZM14.3784 10.9586C12.7749 11.0867 11.2382 11.3205 10.9375 11.4987C9.6207 12.3255 8.41804 15.0567 8.41804 15.0567C8.41804 15.0567 7.62182 15.0567 7.40745 15.1179C7.16246 15.2098 6.21879 16.7882 5.63693 17.5844C5.39194 19.7587 5.64808 25.51 6.0462 26.0612C6.5668 26.7349 7.60774 26.7628 8.58771 26.7572H14.5983C16.9564 26.7461 19.3144 26.7461 21.6725 26.7516H27.6831C28.6631 26.7628 29.704 26.7349 30.2247 26.0862C30.6227 25.535 30.8733 19.7782 30.6339 17.6094C30.052 16.8132 29.0777 15.2348 28.8634 15.143C28.6797 15.0817 27.8527 15.0817 27.8527 15.0817C27.8527 15.0817 26.6501 12.3506 25.3332 11.5238C25.0577 11.3456 23.5015 11.1368 21.8925 10.9837C19.81 10.7693 16.2298 10.8444 14.2977 10.9837L14.3784 10.9586ZM16.4914 23.0549H10.6729C10.5504 23.0549 9.6623 23.9429 9.6623 23.9429L11.7447 24.0042L12.9084 24.341H16.3077C17.5327 24.341 18.7883 24.341 20.0133 24.341H23.4125L24.5761 23.9736L26.6586 23.9123C26.6586 23.9123 25.7705 23.0242 25.648 23.0242H19.8601C18.727 23.0242 17.6245 23.0242 16.4914 23.0242V23.0549ZM17.5271 18.5169C16.149 18.5169 13.056 18.6088 12.6885 18.7313C12.2291 18.8844 10.8204 20.14 10.8204 20.385C10.8204 20.6299 11.3104 21.273 11.4635 21.273C11.586 21.273 14.4034 21.3037 16.6696 21.3037C17.4965 21.3037 18.8439 21.3037 19.6708 21.3037C21.937 21.3037 24.7543 21.3037 24.8769 21.273C25.03 21.273 25.5199 20.5993 25.5199 20.385C25.5199 20.14 24.1113 18.915 23.6519 18.7313C23.2843 18.6088 20.1913 18.5475 18.8133 18.5169C18.4458 18.5169 17.8639 18.5169 17.4965 18.5169H17.5271ZM8.49603 14.9397C8.49603 14.9397 7.76105 14.7866 7.73043 14.6641C7.6998 14.4804 7.8223 14.0823 7.73043 13.9292C7.6998 13.8679 7.63856 13.8373 7.57731 13.8373C7.33232 13.776 6.53609 13.8985 6.32172 13.9904C6.10735 14.0823 5.92361 14.6335 5.95423 14.756C5.95423 14.8785 6.01548 14.9704 6.13797 15.0622C6.26047 15.1541 7.42419 15.1541 7.42419 15.1541L8.43478 15.0929L8.49603 14.9397ZM27.85 14.9397L27.9112 15.0929L28.9218 15.1541C28.9218 15.1541 30.0855 15.1541 30.208 15.0622C30.3305 14.9704 30.3611 14.8785 30.3917 14.756C30.4223 14.6335 30.2386 14.0823 30.0243 13.9904C29.8098 13.8985 29.0136 13.776 28.7687 13.8373C28.7074 13.8373 28.6462 13.8679 28.6156 13.9292C28.5237 14.0823 28.6768 14.4804 28.6156 14.6641C28.5543 14.8479 27.85 14.9397 27.85 14.9397Z" fill="#262625"/>
<path d="M8.82991 19.6197C9.28927 19.6197 9.31989 19.589 10.208 19.6809C10.208 19.6809 11.3104 18.9153 11.3104 18.7622C11.3104 18.609 9.59551 18.3334 8.12555 18.2109C7.78869 18.2109 7.32933 18.8847 7.29871 19.0378C7.29871 19.099 7.23746 19.5278 7.29871 19.589C7.57432 19.8034 8.27867 19.8034 8.37055 19.834C8.55429 19.834 8.70741 19.6809 8.79928 19.6503L8.82991 19.6197ZM27.5162 19.6197C27.0568 19.6197 27.0261 19.589 26.1381 19.6809C26.1381 19.6809 25.0355 18.9153 25.0355 18.7622C25.0355 18.609 26.7506 18.3334 28.2205 18.2109C28.5573 18.2109 29.0167 18.8847 29.0474 19.0378C29.0474 19.099 29.1086 19.5278 29.0474 19.589C28.7717 19.8034 28.0673 19.8034 27.9755 19.834C27.7917 19.834 27.6386 19.6809 27.5468 19.6503L27.5162 19.6197ZM10.6423 22.0696C10.7342 21.9777 10.5504 21.6102 10.4586 21.4877C10.3667 21.3652 8.03926 21.2733 7.64115 21.2427C7.42678 21.2427 7.51865 21.6102 7.54928 21.7634C7.54928 21.8246 7.61053 21.7634 7.64115 21.8552C7.64115 21.9165 8.03926 23.8151 8.10051 23.8763C8.37613 24.0908 8.43737 22.0083 8.55987 22.0083C8.55987 22.0083 10.5504 22.1308 10.6117 22.0083L10.6423 22.0696ZM25.7037 22.0696C25.6119 21.9777 25.7956 21.6102 25.8874 21.4877C25.9793 21.3652 28.3067 21.2733 28.7049 21.2427C28.9192 21.2427 28.8274 21.6102 28.7967 21.7634C28.7967 21.8246 28.7355 21.7634 28.7049 21.8552C28.7049 21.9165 28.3067 23.8151 28.2455 23.8763C27.9699 24.0908 27.9087 22.0083 27.7862 22.0083C27.7862 22.0083 25.7956 22.1308 25.7343 22.0083L25.7037 22.0696Z" fill="#262625"/>
</g>
<defs>
<clipPath id="clip0_820_1869">
<rect width="25.2389" height="21.8335" fill="white" transform="translate(5.54297 7.05664)"/>
</clipPath>
</defs>
</svg>
