<svg width="1024" height="1024" viewBox="0 0 1024 1024" fill="none" xmlns="http://www.w3.org/2000/svg">
<g clip-path="url(#clip0_485_12552)">
<g clip-path="url(#clip1_485_12552)">
<path d="M210.69 678.602L201.378 630.493C201.378 630.493 194.394 718.954 204.482 739.904C206.81 744.56 214.569 746.112 220.001 746.112L280.527 744.56C286.735 744.56 287.511 690.242 287.511 690.242L211.466 680.155L210.69 678.602ZM814.377 678.602L738.333 688.69C738.333 688.69 738.333 743.008 745.316 743.008L805.842 744.56C811.274 744.56 819.033 743.008 821.361 738.352C831.449 717.401 824.465 628.94 824.465 628.94L815.154 677.051L814.377 678.602ZM457.369 325.122C487.632 323.57 537.294 323.57 567.556 325.122C612.564 328.226 666.105 332.881 675.417 338.314C708.783 359.265 733.614 430.654 733.614 430.654C733.614 430.654 753.789 430.654 759.222 432.205C765.429 434.533 777.845 453.933 792.588 473.332C798.795 528.426 792.588 626.975 782.501 640.941C769.31 658.013 743.702 651.029 718.871 651.029H568.333C531.862 651.029 494.616 651.029 458.145 651.029H307.607C282.776 651.029 257.169 657.237 243.977 640.166C233.89 626.198 227.682 527.65 233.89 472.557C248.633 452.382 261.049 432.982 267.256 431.43C271.912 429.877 292.863 429.877 292.863 429.877C292.863 429.877 317.695 358.489 351.061 337.537C360.373 332.105 413.915 327.45 458.921 324.346L457.369 325.122ZM416.385 291.762C375.753 295.007 336.816 300.933 329.198 305.447C295.831 326.398 265.357 395.601 265.357 395.601C265.357 395.601 245.182 395.601 239.75 397.152C233.542 399.48 209.631 439.474 194.888 459.649C188.68 514.743 195.17 660.473 205.258 674.441C218.449 691.512 244.825 692.218 269.656 692.077H421.957C481.707 691.795 541.457 691.795 601.206 691.936H753.507C778.338 692.218 804.714 691.512 817.905 675.075C827.993 661.108 834.342 515.237 828.275 460.285C813.532 440.109 788.844 400.116 783.413 397.788C778.757 396.236 757.806 396.236 757.806 396.236C757.806 396.236 727.332 327.033 693.966 306.082C686.982 301.567 647.551 296.277 606.779 292.397C554.014 286.965 463.297 288.869 414.339 292.397L416.385 291.762ZM469.926 598.263H322.492C319.388 598.263 296.885 620.766 296.885 620.766L349.651 622.319L379.138 630.854H465.27C496.309 630.854 528.124 630.854 559.162 630.854H645.296L674.781 621.543L727.548 619.991C727.548 619.991 705.045 597.488 701.94 597.488H555.282C526.572 597.488 498.637 597.488 469.926 597.488V598.263ZM496.168 483.278C461.249 483.278 382.876 485.606 373.564 488.71C361.925 492.59 326.23 524.405 326.23 530.613C326.23 536.821 338.645 553.116 342.526 553.116C345.629 553.116 417.019 553.891 474.44 553.891C495.391 553.891 529.534 553.891 550.486 553.891C607.908 553.891 679.296 553.891 682.401 553.116C686.28 553.116 698.696 536.044 698.696 530.613C698.696 524.405 663.001 493.366 651.361 488.71C642.049 485.606 563.677 484.054 528.759 483.278C519.447 483.278 504.703 483.278 495.391 483.278H496.168ZM267.333 392.638C267.333 392.638 248.71 388.759 247.934 385.655C247.158 380.999 250.262 370.912 247.934 367.031C247.158 365.48 245.606 364.703 244.054 364.703C237.846 363.152 217.671 366.256 212.239 368.584C206.807 370.912 202.152 384.878 202.928 387.983C202.928 391.087 204.479 393.415 207.583 395.743C210.687 398.071 240.174 398.071 240.174 398.071L265.781 396.518L267.333 392.638ZM757.734 392.638L759.286 396.518L784.893 398.071C784.893 398.071 814.38 398.071 817.483 395.743C820.588 393.415 821.364 391.087 822.139 387.983C822.916 384.878 818.26 370.912 812.829 368.584C807.396 366.256 787.221 363.152 781.014 364.703C779.461 364.703 777.91 365.48 777.133 367.031C774.805 370.912 778.686 380.999 777.133 385.655C775.582 390.31 757.734 392.638 757.734 392.638Z" fill="#262625"/>
<path d="M275.792 511.213C287.432 511.213 288.208 510.437 310.711 512.765C310.711 512.765 338.645 493.366 338.645 489.486C338.645 485.606 295.191 478.622 257.945 475.519C249.409 475.519 237.77 492.59 236.994 496.469C236.994 498.022 235.442 508.885 236.994 510.437C243.977 515.869 261.825 515.869 264.153 516.644C268.808 516.644 272.688 512.765 275.016 511.99L275.792 511.213ZM749.275 511.213C737.636 511.213 736.859 510.437 714.356 512.765C714.356 512.765 686.421 493.366 686.421 489.486C686.421 485.606 729.876 478.622 767.123 475.519C775.658 475.519 787.298 492.59 788.074 496.469C788.074 498.022 789.626 508.885 788.074 510.437C781.09 515.869 763.243 515.869 760.915 516.644C756.259 516.644 752.379 512.765 750.051 511.99L749.275 511.213ZM321.716 573.29C324.043 570.962 319.388 561.652 317.06 558.547C314.732 555.443 255.758 553.115 245.671 552.34C240.239 552.34 242.567 561.652 243.343 565.531C243.343 567.083 244.895 565.531 245.671 567.859C245.671 569.411 255.758 617.521 257.31 619.073C264.294 624.505 265.846 571.739 268.95 571.739C268.95 571.739 319.388 574.843 320.939 571.739L321.716 573.29ZM703.352 573.29C701.024 570.962 705.68 561.652 708.008 558.547C710.336 555.443 769.31 553.115 779.397 552.34C784.829 552.34 782.501 561.652 781.725 565.531C781.725 567.083 780.173 565.531 779.397 567.859C779.397 569.411 769.31 617.521 767.757 619.073C760.773 624.505 759.222 571.739 756.117 571.739C756.117 571.739 705.68 574.843 704.127 571.739L703.352 573.29Z" fill="#262625"/>
</g>
</g>
<defs>
<clipPath id="clip0_485_12552">
<rect width="1024" height="1024" fill="white"/>
</clipPath>
<clipPath id="clip1_485_12552">
<rect width="1024" height="1024" fill="white" transform="translate(0 6)"/>
</clipPath>
</defs>
</svg>
