<svg width="1024" height="1024" viewBox="0 0 1024 1024" fill="none" xmlns="http://www.w3.org/2000/svg">
<g clip-path="url(#clip0_315_16984)">
<path d="M210.69 672.602L201.378 624.493C201.378 624.493 194.394 712.954 204.482 733.904C206.81 738.56 214.569 740.112 220.001 740.112L280.527 738.56C286.735 738.56 287.511 684.242 287.511 684.242L211.466 674.155L210.69 672.602ZM814.377 672.602L738.333 682.69C738.333 682.69 738.333 737.008 745.316 737.008L805.842 738.56C811.274 738.56 819.033 737.008 821.361 732.352C831.449 711.401 824.465 622.94 824.465 622.94L815.154 671.051L814.377 672.602ZM457.369 319.122C487.632 317.57 537.294 317.57 567.556 319.122C612.564 322.226 666.105 326.881 675.417 332.314C708.783 353.265 733.614 424.654 733.614 424.654C733.614 424.654 753.789 424.654 759.222 426.205C765.429 428.533 777.845 447.933 792.588 467.332C798.795 522.426 792.588 620.975 782.501 634.941C769.31 652.013 743.702 645.029 718.871 645.029H568.333C531.862 645.029 494.616 645.029 458.145 645.029H307.607C282.776 645.029 257.169 651.237 243.977 634.166C233.89 620.198 227.682 521.65 233.89 466.557C248.633 446.382 261.049 426.982 267.256 425.43C271.912 423.877 292.863 423.877 292.863 423.877C292.863 423.877 317.695 352.489 351.061 331.537C360.373 326.105 413.915 321.45 458.921 318.346L457.369 319.122ZM416.385 285.762C375.753 289.007 336.816 294.933 329.198 299.447C295.831 320.398 265.357 389.601 265.357 389.601C265.357 389.601 245.182 389.601 239.75 391.153C233.542 393.48 209.631 433.474 194.888 453.649C188.68 508.743 195.17 654.473 205.258 668.441C218.449 685.512 244.825 686.218 269.656 686.077H421.957C481.707 685.795 541.457 685.795 601.206 685.936H753.507C778.338 686.218 804.714 685.512 817.905 669.075C827.993 655.108 834.342 509.237 828.275 454.285C813.532 434.109 788.844 394.116 783.413 391.788C778.757 390.236 757.806 390.236 757.806 390.236C757.806 390.236 727.332 321.033 693.966 300.082C686.982 295.567 647.551 290.277 606.779 286.397C554.014 280.965 463.297 282.869 414.339 286.397L416.385 285.762ZM469.926 592.263H322.492C319.388 592.263 296.885 614.766 296.885 614.766L349.651 616.319L379.138 624.854H465.27C496.309 624.854 528.124 624.854 559.162 624.854H645.296L674.781 615.543L727.548 613.991C727.548 613.991 705.045 591.488 701.94 591.488H555.282C526.572 591.488 498.637 591.488 469.926 591.488V592.263ZM496.168 477.278C461.249 477.278 382.876 479.606 373.564 482.71C361.925 486.59 326.23 518.405 326.23 524.613C326.23 530.821 338.645 547.116 342.526 547.116C345.629 547.116 417.019 547.891 474.44 547.891C495.391 547.891 529.534 547.891 550.486 547.891C607.908 547.891 679.296 547.891 682.401 547.116C686.28 547.116 698.696 530.044 698.696 524.613C698.696 518.405 663.001 487.366 651.361 482.71C642.049 479.606 563.677 478.054 528.759 477.278C519.447 477.278 504.703 477.278 495.391 477.278H496.168ZM267.333 386.638C267.333 386.638 248.71 382.759 247.934 379.655C247.158 374.999 250.262 364.912 247.934 361.031C247.158 359.48 245.606 358.703 244.054 358.703C237.846 357.152 217.671 360.256 212.239 362.584C206.807 364.912 202.152 378.878 202.928 381.983C202.928 385.087 204.479 387.415 207.583 389.743C210.687 392.071 240.174 392.071 240.174 392.071L265.781 390.518L267.333 386.638ZM757.734 386.638L759.286 390.518L784.893 392.071C784.893 392.071 814.38 392.071 817.483 389.743C820.588 387.415 821.364 385.087 822.139 381.983C822.916 378.878 818.26 364.912 812.829 362.584C807.396 360.256 787.221 357.152 781.014 358.703C779.461 358.703 777.91 359.48 777.133 361.031C774.805 364.912 778.686 374.999 777.133 379.655C775.582 384.31 757.734 386.638 757.734 386.638Z" fill="#262625"/>
<path d="M275.792 505.213C287.432 505.213 288.208 504.437 310.711 506.765C310.711 506.765 338.645 487.366 338.645 483.486C338.645 479.606 295.191 472.622 257.945 469.519C249.409 469.519 237.77 486.59 236.994 490.469C236.994 492.022 235.442 502.885 236.994 504.437C243.977 509.869 261.825 509.869 264.153 510.644C268.808 510.644 272.688 506.765 275.016 505.99L275.792 505.213ZM749.275 505.213C737.636 505.213 736.859 504.437 714.356 506.765C714.356 506.765 686.421 487.366 686.421 483.486C686.421 479.606 729.876 472.622 767.123 469.519C775.658 469.519 787.298 486.59 788.074 490.469C788.074 492.022 789.626 502.885 788.074 504.437C781.09 509.869 763.243 509.869 760.915 510.644C756.259 510.644 752.379 506.765 750.051 505.99L749.275 505.213ZM321.716 567.29C324.043 564.962 319.388 555.652 317.06 552.547C314.732 549.443 255.758 547.115 245.671 546.34C240.239 546.34 242.567 555.652 243.343 559.531C243.343 561.083 244.895 559.531 245.671 561.859C245.671 563.411 255.758 611.521 257.31 613.073C264.294 618.505 265.846 565.739 268.95 565.739C268.95 565.739 319.388 568.843 320.939 565.739L321.716 567.29ZM703.352 567.29C701.024 564.962 705.68 555.652 708.008 552.547C710.336 549.443 769.31 547.115 779.397 546.34C784.829 546.34 782.501 555.652 781.725 559.531C781.725 561.083 780.173 559.531 779.397 561.859C779.397 563.411 769.31 611.521 767.757 613.073C760.773 618.505 759.222 565.739 756.117 565.739C756.117 565.739 705.68 568.843 704.127 565.739L703.352 567.29Z" fill="#262625"/>
</g>
<defs>
<clipPath id="clip0_315_16984">
<rect width="1024" height="1024" fill="white"/>
</clipPath>
</defs>
</svg>
