<svg width="1024" height="1024" viewBox="0 0 1024 1024" fill="none" xmlns="http://www.w3.org/2000/svg">
<g clip-path="url(#clip0_886_51963)">
<g clip-path="url(#clip1_886_51963)">
<path d="M816.981 695.695C808.441 696.387 758.069 697.731 758.069 697.731L760.839 725.44C761.506 735.228 769.646 743.014 775.575 742.99L815.528 742.83C829.23 742.776 836.863 735.144 838.098 716.699C840.265 684.319 841.67 676.511 841.67 676.511C830.992 681.966 828.146 694.791 816.981 695.695ZM207.866 695.695C196.701 694.791 193.855 681.966 183.177 676.511C183.177 676.511 184.582 684.319 186.749 716.699C187.984 735.144 195.617 742.776 209.319 742.83L249.272 742.99C255.201 743.013 263.341 735.228 264.008 725.44L266.779 697.731C266.779 697.731 216.406 696.387 207.866 695.695ZM463.646 290.377C490.564 289.45 534.251 289.448 561.169 290.373C602.233 291.784 636.211 294.794 656.078 297.858C683.386 302.069 723.294 364.401 743.256 411.879C762.764 434.66 784.337 450.69 796.39 471.175C802.301 481.223 804.179 491.391 805.788 505.802C810.36 546.736 807.821 649.832 802.902 656.387C797.984 662.941 755.7 664.975 740.734 665.127C732.281 665.213 659.917 665.752 598.543 666.205C550.981 666.555 473.868 666.559 426.307 666.212C364.932 665.765 292.569 665.232 284.115 665.147C269.149 664.996 226.864 662.966 221.945 656.412C217.027 649.858 214.478 546.762 219.046 505.827C220.655 491.417 222.532 481.248 228.442 471.2C240.493 450.713 262.065 434.681 281.571 411.899C301.529 364.419 341.431 302.084 368.739 297.87C388.606 294.805 422.583 291.792 463.646 290.377ZM463.644 251.64C416.434 253.124 371.777 256.417 351.46 259.552C324.152 263.766 269.331 341.708 249.373 389.188C229.895 411.774 200.395 434.226 188.345 454.713C182.434 464.761 180.388 474.929 178.78 489.34C174.212 530.274 179.312 686.816 184.229 693.371C189.147 699.925 231.432 701.955 246.398 702.106C255.45 702.196 351.779 703.492 426.314 704.499C473.872 705.141 550.98 705.137 598.539 704.492C673.073 703.478 769.402 702.174 778.454 702.083C793.42 701.931 835.705 699.897 840.623 693.342C845.539 686.787 850.625 530.245 846.053 489.311C844.444 474.9 842.397 464.732 836.486 454.684C824.433 434.199 794.931 411.749 775.452 389.165C755.49 341.687 700.662 263.749 673.353 259.538C653.036 256.405 608.377 253.115 561.167 251.635C534.247 250.787 490.565 250.788 463.644 251.64ZM776.351 348.83C773.249 351.362 775.409 363.994 776.349 369.442C772.603 369.825 765.495 369.617 761.339 369.879C762.619 375.763 767.437 381.211 770.08 386.2C773.478 385.893 777.939 385.628 782.892 385.209C785.807 384.963 785.636 386.261 786.739 386.207C787.841 386.152 810.27 383.98 816.06 382.536C826.943 379.821 829.823 373.146 829.226 367.644C829.148 367.049 828.06 366.405 827.789 365.906C817.04 346.249 779.452 346.298 776.351 348.83ZM248.496 348.83C245.395 346.298 207.807 346.249 197.058 365.906C196.787 366.405 195.687 367.049 195.621 367.644C195.024 373.146 197.904 379.821 208.787 382.536C214.577 383.98 237.006 386.156 238.109 386.207C239.211 386.261 239.04 384.963 241.955 385.209C246.909 385.627 251.369 385.893 254.767 386.2C257.41 381.211 262.228 375.763 263.508 369.879C259.352 369.617 252.244 369.825 248.498 369.442C249.438 363.994 251.598 351.362 248.496 348.83ZM494.02 599.15C456.433 599.375 372.867 599.907 354.166 600.28C329.852 600.767 298.601 626.692 284.65 638.854C270.7 651.016 357.521 649.049 362.049 649.223C365.856 649.368 445.693 649.919 491.201 650.092C502.932 650.139 521.952 650.139 533.683 650.092C579.191 649.92 659.027 649.368 662.833 649.223C667.362 649.049 754.183 651.016 740.233 638.854C726.282 626.692 695.031 600.767 670.717 600.28C652.015 599.906 568.449 599.375 530.862 599.15C520.689 599.088 504.194 599.088 494.02 599.15ZM488.752 505.906C482.874 505.462 477.718 504.924 475.743 504.354C474.777 504.075 470.669 500.555 463.72 499.571C456.77 498.586 360.057 491.447 344.152 489.628C351.603 505.92 369.631 532.896 371.769 534.76C373.907 536.625 459.818 546.762 463.3 546.7C466.781 546.638 474.13 541.809 480.344 541.572C487.591 541.295 495.982 541.182 502.392 541.137C507.942 541.099 516.942 541.099 522.493 541.137C528.902 541.184 537.292 541.295 544.539 541.572C550.752 541.809 558.102 546.638 561.583 546.7C565.064 546.762 650.976 536.625 653.114 534.76C655.251 532.896 673.28 505.92 680.73 489.628C664.826 491.447 568.113 498.586 561.163 499.571C554.214 500.555 550.105 504.075 549.14 504.354C547.161 504.926 541.99 505.464 536.097 505.909C523.054 506.893 501.814 506.894 488.752 505.906ZM323.413 595.65C322.081 593.921 320.977 589.939 315.112 587.087C303.096 581.245 242.644 560.273 235.607 561.374C228.569 562.475 229.628 618.956 229.365 625.512C229.288 627.519 231.196 641.822 235.899 643.349C237.738 643.945 238.445 644.844 249.328 637.96C257.145 633.015 279.978 607.718 281.351 605.875C282.725 604.033 295.577 606.984 297.405 606.379C299.233 605.775 306.902 600.696 313.409 598.131C317.334 596.583 321.879 596.877 323.413 595.65ZM701.434 595.65C702.766 593.921 703.87 589.939 709.736 587.087C721.751 581.245 782.203 560.273 789.24 561.374C796.278 562.475 795.219 618.956 795.482 625.512C795.559 627.519 793.651 641.822 788.948 643.349C787.109 643.945 786.402 644.844 775.519 637.96C767.702 633.015 744.869 607.718 743.496 605.875C742.122 604.033 729.27 606.984 727.442 606.379C725.614 605.775 717.945 600.696 711.438 598.131C707.513 596.583 702.968 596.877 701.434 595.65Z" fill="#262625"/>
<path d="M680.284 489.911C680.284 489.911 659.207 524.245 656.773 530.839C671.519 530.555 681.484 527.27 694.491 525.917C701.545 525.183 714.543 535.593 727.835 534.706C741.127 533.819 767.405 517.247 773.204 506.777C779.001 496.307 781.002 486.005 780.816 478.075C780.63 470.146 772.772 457.862 772.772 457.862C772.772 457.862 764.036 468.115 747.491 475.237C718.925 487.533 680.284 489.911 680.284 489.911ZM344.564 489.911C344.564 489.911 305.922 487.533 277.356 475.237C260.811 468.115 252.074 457.862 252.074 457.862C252.074 457.862 244.214 470.146 244.031 478.075C243.845 486.005 245.845 496.307 251.643 506.777C257.441 517.247 283.72 533.819 297.012 534.706C310.304 535.593 323.302 525.183 330.356 525.917C343.363 527.27 353.328 530.555 368.074 530.839C365.64 524.245 344.564 489.911 344.564 489.911ZM311.307 596.116C301.398 592.754 244.253 576.852 241.194 578.136C238.135 579.419 237.271 584.926 237.656 592.013C251.472 596.125 292.428 607.451 297.754 605.691C301.672 604.397 307.233 599.377 311.307 596.116ZM713.54 596.116C723.449 592.754 780.594 576.852 783.653 578.136C786.712 579.419 787.575 584.926 787.191 592.013C773.374 596.125 732.419 607.451 727.093 605.691C723.175 604.397 717.614 599.377 713.54 596.116Z" fill="#262625"/>
</g>
</g>
<defs>
<clipPath id="clip0_886_51963">
<rect width="1024" height="1024" fill="white"/>
</clipPath>
<clipPath id="clip1_886_51963">
<rect width="1024" height="1024" fill="white" transform="translate(0 -15)"/>
</clipPath>
</defs>
</svg>
