<svg width="1024" height="1024" viewBox="0 0 1024 1024" fill="none" xmlns="http://www.w3.org/2000/svg">
<g clip-path="url(#clip0_485_12567)">
<g clip-path="url(#clip1_485_12567)">
<g clip-path="url(#clip2_485_12567)">
<path d="M834.116 689.41C844.228 684.742 846.561 675.41 846.561 675.41C846.561 675.41 847.34 717.481 839.561 733.037C837.227 737.704 831.783 743.148 826.338 743.148C819.338 743.148 784.336 743.148 770.336 743.148C756.335 743.148 753.224 701.925 753.224 701.925C753.224 701.925 790.559 703.48 803.004 702.702C811.56 702.702 827.116 692.521 834.116 689.41ZM221.279 703.48C233.724 704.258 271.059 702.702 271.059 702.702C271.059 702.702 268.726 743.926 253.947 743.926C239.946 743.926 205.722 743.926 197.944 743.926C192.5 743.926 187.055 738.481 184.721 733.814C176.943 718.258 177.721 676.187 177.721 676.187C177.721 676.187 180.055 685.521 190.166 690.187C197.944 692.521 213.501 702.702 221.279 703.48ZM292.409 713.662C211.817 713.662 185.079 690.97 176.379 680.148C151.916 647.554 152.339 523.461 168.037 468.872C183.168 417.113 229.626 393.357 255.786 384.095C270.493 359.843 302.313 311.333 327.345 287.999C340.919 275.698 361.987 267 435.526 267H587.201C660.74 267 681.667 275.698 695.382 287.999C721.192 311.333 752.376 359.843 767.082 384.237C793.243 393.498 839.7 417.255 854.832 468.237C870.741 521.551 871.378 647.907 846.49 680.148C821.249 712.601 753.795 713.025 731.097 713.025L292.409 713.662ZM292.409 672.658H730.318C730.318 672.658 800.322 672.658 813.546 655.546C824.435 641.545 831.435 536.54 815.1 480.538C801.1 433.091 739.653 419.09 739.653 419.09C739.653 419.09 696.873 345.197 667.316 318.752C657.982 310.195 616.758 308.64 587.201 308.64C568.533 308.64 454.972 308.64 435.526 308.64C405.969 308.64 364.746 310.195 355.412 318.752C326.632 345.197 283.075 419.09 283.075 419.09C283.075 419.09 221.627 432.312 207.626 480.538C191.292 536.54 199.07 641.545 209.182 655.546C222.405 672.658 292.409 672.658 292.409 672.658ZM795.655 625.989C789.433 635.323 782.432 639.99 753.654 644.656C699.206 653.213 573.2 655.546 512.53 655.546C451.861 655.546 326.632 653.213 271.407 644.656C241.85 639.99 235.628 635.323 229.405 625.989C223.96 617.433 216.96 583.209 220.071 569.208C220.849 565.32 223.96 562.986 233.294 562.207C260.518 559.874 321.965 562.986 339.855 569.208C347.633 571.542 364.746 590.21 364.746 590.21C364.746 590.21 475.973 591.765 512.53 591.765C549.088 591.765 660.315 590.21 660.315 590.21C660.315 590.21 677.427 572.319 685.205 569.208C702.317 562.986 764.543 559.874 791.766 562.207C801.1 562.986 804.211 566.097 804.989 569.208C808.1 583.209 801.101 617.433 795.655 625.989ZM796.004 398.449L770.336 392.226C770.336 392.226 775.781 383.67 776.558 381.337C777.335 376.67 772.67 361.114 774.224 355.669C775.781 350.225 778.892 347.891 783.559 347.891C792.893 347.112 817.004 353.336 824.782 360.336C827.894 363.447 832.561 368.892 831.783 372.003C831.005 375.115 820.116 383.67 811.56 384.448C807.671 385.226 796.004 398.449 796.004 398.449ZM253.947 393.004L228.279 399.226C228.279 399.226 216.612 386.004 212.723 385.226C204.167 383.67 193.277 375.892 192.5 372.781C191.722 369.669 196.389 364.225 199.5 361.114C207.278 354.89 231.39 347.891 240.724 348.668C245.391 348.668 248.502 351.002 250.058 356.447C251.614 361.891 246.947 377.447 247.725 382.114C248.502 384.448 253.947 393.004 253.947 393.004Z" fill="#262625"/>
<path d="M324.298 507.761C325.076 492.983 304.853 460.313 294.742 455.648C278.407 443.203 260.517 443.203 248.85 445.536C243.405 445.536 223.96 454.869 223.182 478.982C221.626 485.982 223.96 504.649 232.516 506.983C251.183 516.317 300.186 526.428 324.298 507.761ZM792.543 506.983C800.321 504.649 803.433 485.982 801.877 478.982C801.1 454.869 781.654 445.536 776.21 445.536C764.542 443.203 746.653 443.203 730.318 455.648C720.206 460.313 699.983 492.204 700.761 507.761C724.096 526.428 773.876 516.317 792.543 506.983Z" fill="#262625"/>
</g>
</g>
</g>
<defs>
<clipPath id="clip0_485_12567">
<rect width="1024" height="1024" fill="white"/>
</clipPath>
<clipPath id="clip1_485_12567">
<rect width="1024" height="1024" fill="white" transform="translate(0 -6)"/>
</clipPath>
<clipPath id="clip2_485_12567">
<rect width="710" height="477" fill="white" transform="translate(157 267)"/>
</clipPath>
</defs>
</svg>
