<svg width="1024" height="1024" viewBox="0 0 1024 1024" fill="none" xmlns="http://www.w3.org/2000/svg">
<g clip-path="url(#clip0_315_16971)">
<g clip-path="url(#clip1_315_16971)">
<path d="M834.116 695.41C844.228 690.742 846.561 681.41 846.561 681.41C846.561 681.41 847.34 723.481 839.561 739.037C837.227 743.704 831.783 749.149 826.338 749.149C819.338 749.149 784.336 749.149 770.336 749.149C756.335 749.149 753.224 707.925 753.224 707.925C753.224 707.925 790.559 709.48 803.004 708.702C811.56 708.702 827.116 698.521 834.116 695.41ZM221.279 709.48C233.724 710.258 271.059 708.702 271.059 708.702C271.059 708.702 268.726 749.926 253.947 749.926C239.946 749.926 205.722 749.926 197.944 749.926C192.5 749.926 187.055 744.481 184.721 739.814C176.943 724.258 177.721 682.187 177.721 682.187C177.721 682.187 180.055 691.521 190.166 696.187C197.944 698.521 213.501 708.702 221.279 709.48ZM292.409 719.662C211.817 719.662 185.079 696.97 176.379 686.148C151.916 653.554 152.339 529.461 168.037 474.872C183.168 423.113 229.626 399.357 255.786 390.095C270.493 365.843 302.313 317.333 327.345 293.999C340.919 281.698 361.987 273 435.526 273H587.201C660.74 273 681.667 281.698 695.382 293.999C721.192 317.333 752.376 365.843 767.082 390.237C793.243 399.498 839.7 423.255 854.832 474.237C870.741 527.551 871.378 653.907 846.49 686.148C821.249 718.601 753.795 719.025 731.097 719.025L292.409 719.662ZM292.409 678.658H730.319C730.319 678.658 800.322 678.658 813.546 661.546C824.435 647.545 831.435 542.54 815.1 486.538C801.1 439.091 739.653 425.09 739.653 425.09C739.653 425.09 696.873 351.197 667.316 324.752C657.982 316.195 616.758 314.64 587.201 314.64C568.533 314.64 454.972 314.64 435.526 314.64C405.969 314.64 364.746 316.195 355.412 324.752C326.632 351.197 283.075 425.09 283.075 425.09C283.075 425.09 221.627 438.312 207.626 486.538C191.292 542.54 199.07 647.545 209.182 661.546C222.405 678.658 292.409 678.658 292.409 678.658ZM795.655 631.989C789.433 641.323 782.432 645.99 753.654 650.656C699.206 659.213 573.2 661.546 512.53 661.546C451.861 661.546 326.632 659.213 271.407 650.656C241.85 645.99 235.628 641.323 229.405 631.989C223.96 623.433 216.96 589.209 220.071 575.208C220.849 571.32 223.96 568.986 233.294 568.207C260.518 565.874 321.965 568.986 339.855 575.208C347.634 577.542 364.746 596.21 364.746 596.21C364.746 596.21 475.973 597.765 512.53 597.765C549.088 597.765 660.315 596.21 660.315 596.21C660.315 596.21 677.427 578.319 685.205 575.208C702.317 568.986 764.543 565.874 791.766 568.207C801.1 568.986 804.211 572.097 804.989 575.208C808.1 589.209 801.101 623.433 795.655 631.989ZM796.004 404.449L770.336 398.226C770.336 398.226 775.781 389.67 776.558 387.337C777.335 382.67 772.67 367.114 774.225 361.669C775.781 356.225 778.892 353.891 783.559 353.891C792.893 353.112 817.004 359.336 824.782 366.336C827.894 369.447 832.561 374.892 831.783 378.003C831.005 381.115 820.116 389.67 811.56 390.448C807.671 391.226 796.004 404.449 796.004 404.449ZM253.947 399.004L228.279 405.226C228.279 405.226 216.612 392.004 212.723 391.226C204.167 389.67 193.277 381.892 192.5 378.781C191.722 375.669 196.389 370.225 199.5 367.114C207.278 360.89 231.39 353.891 240.724 354.668C245.391 354.668 248.502 357.002 250.058 362.447C251.614 367.891 246.947 383.447 247.725 388.114C248.502 390.448 253.947 399.004 253.947 399.004Z" fill="#262625"/>
<path d="M324.298 513.761C325.076 498.983 304.853 466.313 294.742 461.648C278.407 449.203 260.517 449.203 248.85 451.536C243.405 451.536 223.96 460.869 223.182 484.982C221.626 491.982 223.96 510.649 232.516 512.983C251.183 522.317 300.186 532.428 324.298 513.761ZM792.543 512.983C800.321 510.649 803.433 491.982 801.877 484.982C801.1 460.869 781.654 451.536 776.21 451.536C764.542 449.203 746.653 449.203 730.318 461.648C720.206 466.313 699.983 498.204 700.761 513.761C724.096 532.428 773.876 522.317 792.543 512.983Z" fill="#262625"/>
</g>
</g>
<defs>
<clipPath id="clip0_315_16971">
<rect width="1024" height="1024" fill="white"/>
</clipPath>
<clipPath id="clip1_315_16971">
<rect width="710" height="477" fill="white" transform="translate(157 273)"/>
</clipPath>
</defs>
</svg>
