<svg width="36" height="36" viewBox="0 0 36 36" fill="none" xmlns="http://www.w3.org/2000/svg">
<g clip-path="url(#clip0_173_8341)">
<path d="M30.7117 26.1906C30.3887 26.2909 28.3989 26.806 28.3989 26.806L28.4403 28.0632C28.4666 28.4496 28.754 28.7567 28.988 28.756L31.0407 28.7496C31.5816 28.7482 31.5943 28.4479 31.5921 27.7182C31.5885 26.44 31.6395 22.957 31.5186 22.4311C31.2853 22.3319 31.0356 26.09 30.7117 26.1906ZM6.00234 26.1906C5.67837 26.09 5.42866 22.3319 5.19546 22.4311C5.07446 22.957 5.12548 26.44 5.12181 27.7182C5.11874 28.4479 5.13252 28.7482 5.67331 28.7496L7.72594 28.756C7.96 28.7566 8.24735 28.4496 8.27369 28.0632L8.31509 26.806C8.31509 26.806 6.32536 26.2909 6.00234 26.1906ZM15.4294 10.8078C17.0459 10.7908 19.6668 10.7907 21.2832 10.8075C23.1878 10.8274 23.7445 10.8677 24.4729 11.0931C25.4849 11.4062 26.6491 13.5833 27.4289 15.3339C28.2683 15.9671 28.5247 16.4097 28.6933 16.5469C29.3162 17.0539 29.7672 17.4405 29.8818 18.4667C30.0621 20.0825 30.0921 24.5129 29.3747 24.8174C28.6573 25.1221 26.7302 25.3924 26.1395 25.3984C25.8319 25.4015 23.7155 25.3895 21.7565 25.3772C19.8789 25.3655 16.835 25.3656 14.9576 25.3775C12.9987 25.3898 10.8821 25.4021 10.5746 25.399C9.98381 25.3931 8.05675 25.123 7.33928 24.8184C6.6218 24.5138 6.65138 20.0836 6.83169 18.4677C6.94619 17.4415 7.39707 17.0548 8.01993 16.5478C8.18858 16.4105 8.44503 15.9679 9.28433 15.3347C10.0639 13.584 11.228 11.4068 12.2399 11.0936C12.9682 10.8681 13.525 10.8279 15.4294 10.8078ZM15.4295 9.30711C13.2228 9.34661 12.2736 9.42123 11.5299 9.65145C10.5181 9.96467 8.80277 12.9814 8.02322 14.7321C7.1839 15.3653 6.77473 15.6671 6.60608 15.8044C5.98321 16.3114 5.3827 17.074 5.26297 18.0567C5.0625 19.6696 5.00741 26.2476 5.7249 26.5522C6.44236 26.8567 9.98381 26.9429 10.5746 26.9488C10.8821 26.9519 12.9987 26.9396 14.9577 26.9273C16.8351 26.9154 19.8791 26.9153 21.7565 26.9269C23.7155 26.9392 25.8321 26.9513 26.1396 26.9482C26.7303 26.9422 30.2718 26.8558 30.9893 26.5511C31.7067 26.2465 31.6511 19.6685 31.4504 18.0556C31.3307 17.0729 30.7301 16.3104 30.1071 15.8034C29.9384 15.6661 29.5292 15.3644 28.6899 14.7312C27.9102 12.9806 26.1947 9.96401 25.1827 9.65087C24.4391 9.42071 23.4899 9.34618 21.2831 9.30687C19.6668 9.27814 17.0458 9.27825 15.4295 9.30711ZM28.9286 13.2551C28.7379 13.2551 28.9669 14.1865 29.0606 14.4858C29.1105 14.645 29.3582 14.5323 29.3534 14.6185C29.2055 14.6336 28.7615 14.7294 28.5974 14.7397C28.6479 14.972 28.9622 15.21 29.0665 15.4069C29.4714 15.2924 30.1397 14.9133 30.128 14.793C30.1173 14.6819 30.1217 14.6099 30.1217 14.6099C30.1217 14.6099 30.2971 14.6071 30.4118 14.5633C30.546 14.5121 30.7526 14.2972 30.7737 14.144C30.7931 14.0048 30.6827 13.798 30.6102 13.7155C30.4061 13.4833 29.906 13.2551 28.9286 13.2551ZM7.78535 13.2551C6.80793 13.2551 6.3079 13.4833 6.10383 13.7155C6.03131 13.798 5.92109 14.0048 5.94029 14.144C5.96143 14.2972 6.16798 14.5121 6.30224 14.5633C6.41686 14.607 6.5924 14.6099 6.5924 14.6099C6.5924 14.6099 6.59669 14.6819 6.58597 14.793C6.57434 14.9133 7.24261 15.2924 7.64752 15.4069C7.75183 15.21 8.06606 14.972 8.11659 14.7397C7.95256 14.7294 7.50849 14.6336 7.36064 14.6185C7.35573 14.5323 7.60346 14.645 7.65334 14.4858C7.74715 14.1865 7.97624 13.2551 7.78551 13.2551H7.78535ZM16.099 22.5486C14.1568 22.5349 11.3171 22.4696 9.03993 22.2329C8.87241 22.0268 8.01158 20.2117 7.82038 20.2446C7.6292 20.2776 7.61974 23.2836 7.70787 23.353C7.73849 23.3768 7.86057 23.4317 8.01877 23.3568C8.31784 23.2152 8.76146 22.874 8.92545 22.776C9.13066 22.7866 11.2681 22.972 11.4933 22.9724C11.3461 23.1373 10.7718 23.5469 10.8876 23.565C11.3063 23.6306 14.3101 23.695 16.3808 23.7324C17.4726 23.7521 19.2437 23.7521 20.3366 23.7323C22.4072 23.695 25.4093 23.6305 25.8278 23.565C25.9436 23.5469 25.3693 23.1373 25.2222 22.9724C25.4473 22.9721 27.5847 22.7866 27.7899 22.776C27.954 22.874 28.3976 23.2152 28.6967 23.3568C28.8548 23.4317 28.9769 23.3768 29.0076 23.353C29.0957 23.2836 29.0862 20.2776 28.895 20.2446C28.7039 20.2117 27.843 22.0268 27.6755 22.2329C25.3982 22.4696 22.5585 22.5349 20.6163 22.5486C19.3689 22.5575 17.3465 22.5575 16.099 22.5486ZM16.099 23.9941C11.875 23.9551 8.25353 23.8277 6.69376 23.3736C6.80505 24.5244 6.90274 24.8189 6.99087 24.8882C7.43734 24.9902 8.58458 25.261 9.02278 25.2997C9.46097 25.3385 11.2048 25.4375 11.7261 25.433C12.2462 25.4285 17.1927 25.4186 18.3577 25.4032C19.5227 25.4186 24.4692 25.4285 24.9894 25.433C25.5107 25.4375 27.2544 25.3385 27.6926 25.2997C28.1309 25.261 29.2781 24.9902 29.7246 24.8882C29.8127 24.8189 29.9103 24.5244 30.0217 23.3736C28.4618 23.8277 24.8405 23.9551 20.6163 23.9941C19.3689 24.0056 17.3465 24.0056 16.099 23.9941ZM16.3559 18.6536C14.5678 18.6524 12.4834 18.6462 12.1424 18.637C12.1274 19.4021 12.2546 19.6231 12.2697 19.8193C12.2847 20.0155 13.0731 20.4578 13.6611 20.6448C13.973 20.7439 15.2782 20.7895 16.4347 20.8104C17.4966 20.8297 19.2188 20.8297 20.2807 20.8104C21.4373 20.7895 22.7424 20.7439 23.0544 20.6448C23.6423 20.4578 24.4307 20.0155 24.4457 19.8193C24.4607 19.6231 24.588 19.4021 24.573 18.637C24.2321 18.6462 22.1477 18.6524 20.3595 18.6536C19.254 18.6545 17.4614 18.6545 16.3559 18.6536Z" fill="#262625"/>
<path d="M9.73757 17.91C9.3781 17.8008 7.59468 17.376 7.46873 17.4543C7.34277 17.5326 7.34878 18.8222 7.72683 19.3566C8.47295 19.452 9.51273 19.5383 9.7003 19.516C9.90012 19.4924 10.2504 19.1723 10.7802 18.9155C11.2175 18.9333 11.679 18.9536 11.679 18.9536L11.6836 18.5552C11.6836 18.5552 10.5392 18.4366 10.3997 18.3701C10.1583 18.2551 9.8668 17.9493 9.73757 17.91ZM26.9765 17.91C27.3359 17.8008 29.1193 17.376 29.2453 17.4543C29.3712 17.5326 29.3652 18.8222 28.9872 19.3566C28.241 19.452 27.2012 19.5383 27.0137 19.516C26.8139 19.4924 26.4636 19.1723 25.9338 18.9155C25.4965 18.9333 25.035 18.9536 25.035 18.9536L25.0304 18.5552C25.0304 18.5552 26.1749 18.4366 26.3143 18.3701C26.5557 18.2551 26.8472 17.9493 26.9765 17.91Z" fill="#262625"/>
</g>
<defs>
<clipPath id="clip0_173_8341">
<rect width="26.4857" height="21.8048" fill="white" transform="translate(5.11414 6.95105)"/>
</clipPath>
</defs>
</svg>
