<svg width="1024" height="1024" viewBox="0 0 1024 1024" fill="none" xmlns="http://www.w3.org/2000/svg">
<g clip-path="url(#clip0_485_12566)">
<g clip-path="url(#clip1_485_12566)">
<path d="M825.47 678.266C817.286 680.806 766.88 693.854 766.88 693.854L767.929 725.704C768.596 735.492 775.875 743.272 781.805 743.254L833.805 743.094C847.507 743.056 847.828 735.449 847.776 716.964C847.683 684.584 848.976 596.346 845.911 583.024C840.003 580.511 833.677 675.719 825.47 678.266ZM199.5 678.266C191.292 675.719 184.966 580.511 179.059 583.024C175.993 596.346 177.286 684.584 177.193 716.964C177.115 735.449 177.464 743.056 191.164 743.094L243.164 743.254C249.094 743.27 256.373 735.492 257.04 725.704L258.089 693.854C258.089 693.854 207.683 680.806 199.5 678.266ZM438.32 288.568C479.271 288.136 545.667 288.133 586.616 288.561C634.865 289.065 648.97 290.084 667.421 295.794C693.056 303.727 722.552 358.881 742.305 403.229C763.569 419.269 770.066 430.481 774.339 433.958C790.119 446.801 801.542 456.596 804.445 482.594C809.016 523.528 809.776 635.762 791.6 643.479C773.425 651.196 724.606 658.042 709.64 658.194C701.85 658.273 648.231 657.969 598.604 657.659C551.042 657.361 473.929 657.365 426.367 657.666C376.74 657.98 323.121 658.289 315.33 658.211C300.364 658.06 251.545 651.218 233.369 643.503C215.192 635.788 215.942 523.553 220.51 482.619C223.411 456.621 234.833 446.825 250.612 433.981C254.884 430.503 261.381 419.29 282.644 403.249C302.393 358.899 331.884 303.742 357.518 295.807C375.969 290.096 390.074 289.076 438.32 288.568ZM438.321 250.55C382.419 251.551 358.373 253.441 339.533 259.273C313.898 267.208 270.444 343.633 250.695 387.984C229.433 404.025 219.067 411.671 214.794 415.148C199.015 427.992 183.802 447.312 180.769 472.207C175.69 513.066 174.295 679.71 192.471 687.426C210.647 695.141 300.364 697.322 315.33 697.472C323.121 697.551 376.742 697.242 426.369 696.928C473.931 696.627 551.044 696.623 598.606 696.92C648.233 697.23 701.854 697.534 709.644 697.455C724.61 697.303 814.327 695.115 832.501 687.398C850.677 679.681 849.267 513.037 844.185 472.178C841.15 447.284 825.935 427.965 810.155 415.123C805.882 411.645 795.516 404.001 774.252 387.961C754.499 343.613 711.038 267.191 685.403 259.259C666.562 253.428 642.517 251.54 586.612 250.544C545.667 249.816 479.267 249.819 438.321 250.55ZM780.3 350.566H780.296C775.464 350.566 781.268 374.161 783.644 381.743C784.908 385.777 791.184 382.921 791.059 385.105C787.314 385.487 776.064 387.915 771.909 388.177C773.189 394.061 781.149 400.09 783.792 405.079C794.049 402.176 810.979 392.574 810.684 389.526C810.413 386.712 810.521 384.886 810.521 384.886C810.521 384.886 814.968 384.817 817.872 383.707C821.273 382.409 826.506 376.964 827.041 373.084C827.53 369.559 824.736 364.319 822.899 362.229C817.729 356.346 805.061 350.566 780.3 350.566ZM244.669 350.566C219.908 350.566 207.241 356.346 202.071 362.229C200.234 364.319 197.441 369.559 197.928 373.084C198.463 376.964 203.696 382.409 207.097 383.707C210.001 384.815 214.448 384.886 214.448 384.886C214.448 384.886 214.557 386.712 214.285 389.526C213.99 392.574 230.92 402.176 241.178 405.079C243.82 400.09 251.781 394.061 253.061 388.177C248.905 387.915 237.655 385.487 233.91 385.105C233.786 382.921 240.061 385.777 241.325 381.743C243.701 374.161 249.505 350.566 244.673 350.566H244.669ZM455.281 586.002C406.08 585.654 334.141 584.001 276.452 578.004C272.208 572.785 250.4 526.8 245.557 527.634C240.713 528.469 240.474 604.621 242.707 606.377C243.482 606.985 246.575 608.373 250.583 606.476C258.159 602.889 269.397 594.246 273.552 591.761C278.751 592.029 332.9 596.728 338.604 596.738C334.875 600.916 320.326 611.292 323.26 611.751C333.867 613.411 409.963 615.043 462.421 615.989C490.079 616.488 534.948 616.488 562.634 615.988C615.09 615.042 691.142 613.411 701.745 611.751C704.68 611.292 690.13 600.916 686.402 596.738C692.105 596.731 746.254 592.029 751.453 591.761C755.608 594.246 766.846 602.889 774.422 606.476C778.43 608.373 781.523 606.985 782.298 606.377C784.531 604.621 784.291 528.469 779.448 527.634C774.605 526.8 752.797 572.785 748.553 578.004C690.862 584.001 618.923 585.654 569.721 586.002C538.121 586.225 486.883 586.225 455.281 586.002ZM455.281 622.622C348.273 621.631 256.53 618.403 217.016 606.9C219.835 636.055 222.31 643.515 224.543 645.271C235.853 647.855 264.916 654.713 276.017 655.695C287.119 656.677 331.295 659.186 344.501 659.073C357.679 658.959 482.99 658.709 512.503 658.318C542.015 658.709 667.327 658.959 680.504 659.073C693.71 659.186 737.887 656.677 748.988 655.695C760.089 654.713 789.152 647.855 800.462 645.271C802.695 643.515 805.17 636.055 807.989 606.9C768.475 618.403 676.731 621.632 569.722 622.622C538.121 622.914 486.883 622.914 455.281 622.622ZM461.789 487.328C416.491 487.297 363.686 487.14 355.049 486.908C354.669 506.288 357.891 511.889 358.274 516.859C358.654 521.83 378.626 533.036 393.521 537.77C401.424 540.282 434.487 541.437 463.787 541.968C490.688 542.455 534.317 542.455 561.22 541.968C590.519 541.437 623.581 540.282 631.484 537.77C646.379 533.036 666.352 521.83 666.732 516.859C667.112 511.889 670.336 506.288 669.956 486.908C661.319 487.14 608.514 487.296 563.216 487.328C535.207 487.351 489.797 487.351 461.789 487.328Z" fill="#262625"/>
<path d="M294.125 468.494C285.018 465.727 239.839 454.964 236.648 456.948C233.457 458.931 233.609 491.602 243.186 505.141C262.088 507.558 288.429 509.744 293.181 509.18C298.243 508.578 307.117 500.472 320.539 493.965C331.617 494.415 343.307 494.93 343.307 494.93L343.424 484.838C343.424 484.838 314.432 481.833 310.898 480.149C304.782 477.235 297.397 469.488 294.123 468.494H294.125ZM730.843 468.494C739.949 465.727 785.129 454.964 788.32 456.948C791.511 458.931 791.359 491.602 781.781 505.141C762.88 507.558 736.539 509.744 731.787 509.18C726.725 508.578 717.85 500.472 704.429 493.965C693.35 494.415 681.66 494.93 681.66 494.93L681.544 484.838C681.544 484.838 710.535 481.833 714.07 480.149C720.185 477.235 727.57 469.488 730.844 468.494H730.843Z" fill="#262625"/>
</g>
</g>
<defs>
<clipPath id="clip0_485_12566">
<rect width="1024" height="1024" fill="white"/>
</clipPath>
<clipPath id="clip1_485_12566">
<rect width="1024" height="1024" fill="white" transform="translate(0 -15)"/>
</clipPath>
</defs>
</svg>
