<svg width="1024" height="1024" viewBox="0 0 1024 1024" fill="none" xmlns="http://www.w3.org/2000/svg">
<g clip-path="url(#clip0_315_17009)">
<path d="M825.47 693.266C817.286 695.806 766.88 708.854 766.88 708.854L767.929 740.704C768.596 750.492 775.875 758.272 781.805 758.254L833.805 758.094C847.507 758.056 847.828 750.449 847.776 731.964C847.683 699.584 848.976 611.346 845.911 598.024C840.003 595.511 833.677 690.719 825.47 693.266ZM199.5 693.266C191.292 690.719 184.966 595.511 179.059 598.024C175.993 611.346 177.286 699.584 177.193 731.964C177.115 750.449 177.464 758.056 191.164 758.094L243.164 758.254C249.094 758.27 256.373 750.492 257.04 740.704L258.089 708.854C258.089 708.854 207.683 695.806 199.5 693.266ZM438.32 303.568C479.271 303.136 545.667 303.133 586.616 303.561C634.865 304.065 648.97 305.084 667.421 310.794C693.056 318.727 722.552 373.881 742.305 418.229C763.569 434.269 770.066 445.481 774.339 448.958C790.119 461.801 801.542 471.596 804.445 497.594C809.016 538.528 809.776 650.762 791.6 658.479C773.425 666.196 724.606 673.042 709.64 673.194C701.85 673.273 648.231 672.969 598.604 672.659C551.042 672.361 473.929 672.365 426.367 672.666C376.74 672.98 323.121 673.289 315.33 673.211C300.364 673.06 251.545 666.218 233.369 658.503C215.192 650.788 215.942 538.553 220.51 497.619C223.411 471.621 234.833 461.825 250.612 448.981C254.884 445.503 261.381 434.29 282.644 418.249C302.393 373.899 331.884 318.742 357.518 310.807C375.969 305.096 390.074 304.076 438.32 303.568ZM438.321 265.55C382.419 266.551 358.373 268.441 339.533 274.273C313.898 282.208 270.444 358.633 250.695 402.984C229.433 419.025 219.067 426.671 214.794 430.148C199.015 442.992 183.802 462.312 180.769 487.207C175.69 528.066 174.295 694.71 192.471 702.426C210.647 710.141 300.364 712.322 315.33 712.472C323.121 712.551 376.742 712.242 426.369 711.928C473.931 711.627 551.044 711.623 598.606 711.92C648.233 712.23 701.854 712.534 709.644 712.455C724.61 712.303 814.327 710.115 832.501 702.398C850.677 694.681 849.267 528.037 844.185 487.178C841.15 462.284 825.935 442.965 810.155 430.123C805.882 426.645 795.516 419.001 774.252 402.961C754.499 358.613 711.038 282.191 685.403 274.259C666.562 268.428 642.517 266.54 586.612 265.544C545.667 264.816 479.267 264.819 438.321 265.55ZM780.3 365.566H780.296C775.464 365.566 781.268 389.161 783.644 396.743C784.908 400.777 791.184 397.921 791.059 400.105C787.314 400.487 776.064 402.915 771.909 403.177C773.189 409.061 781.149 415.09 783.792 420.079C794.049 417.176 810.979 407.574 810.684 404.526C810.413 401.712 810.521 399.886 810.521 399.886C810.521 399.886 814.968 399.817 817.872 398.707C821.273 397.409 826.506 391.964 827.041 388.084C827.53 384.559 824.736 379.319 822.899 377.229C817.729 371.346 805.061 365.566 780.3 365.566ZM244.669 365.566C219.908 365.566 207.241 371.346 202.071 377.229C200.234 379.319 197.441 384.559 197.928 388.084C198.463 391.964 203.696 397.409 207.097 398.707C210.001 399.815 214.448 399.886 214.448 399.886C214.448 399.886 214.557 401.712 214.285 404.526C213.99 407.574 230.92 417.176 241.178 420.079C243.82 415.09 251.781 409.061 253.061 403.177C248.905 402.915 237.655 400.487 233.91 400.105C233.786 397.921 240.061 400.777 241.325 396.743C243.701 389.161 249.505 365.566 244.673 365.566H244.669ZM455.281 601.002C406.08 600.654 334.141 599.001 276.452 593.004C272.208 587.785 250.4 541.8 245.557 542.634C240.713 543.469 240.474 619.621 242.707 621.377C243.482 621.985 246.575 623.373 250.583 621.476C258.159 617.889 269.397 609.246 273.552 606.761C278.751 607.029 332.9 611.728 338.604 611.738C334.875 615.916 320.326 626.292 323.26 626.751C333.867 628.411 409.963 630.043 462.421 630.989C490.079 631.488 534.948 631.488 562.634 630.988C615.09 630.042 691.142 628.411 701.745 626.751C704.68 626.292 690.13 615.916 686.402 611.738C692.105 611.731 746.254 607.029 751.453 606.761C755.608 609.246 766.846 617.889 774.422 621.476C778.43 623.373 781.523 621.985 782.298 621.377C784.531 619.621 784.291 543.469 779.448 542.634C774.605 541.8 752.797 587.785 748.553 593.004C690.862 599.001 618.923 600.654 569.721 601.002C538.121 601.225 486.883 601.225 455.281 601.002ZM455.281 637.622C348.273 636.631 256.53 633.403 217.016 621.9C219.835 651.055 222.31 658.515 224.543 660.271C235.853 662.855 264.916 669.713 276.017 670.695C287.119 671.677 331.295 674.186 344.501 674.073C357.679 673.959 482.99 673.709 512.503 673.318C542.015 673.709 667.327 673.959 680.504 674.073C693.71 674.186 737.887 671.677 748.988 670.695C760.089 669.713 789.152 662.855 800.462 660.271C802.695 658.515 805.17 651.055 807.989 621.9C768.475 633.403 676.731 636.632 569.722 637.622C538.121 637.914 486.883 637.914 455.281 637.622ZM461.789 502.328C416.491 502.297 363.686 502.14 355.049 501.908C354.669 521.288 357.891 526.889 358.274 531.859C358.654 536.83 378.626 548.036 393.521 552.77C401.424 555.282 434.487 556.437 463.787 556.968C490.688 557.455 534.317 557.455 561.22 556.968C590.519 556.437 623.581 555.282 631.484 552.77C646.379 548.036 666.352 536.83 666.732 531.859C667.112 526.889 670.336 521.288 669.956 501.908C661.319 502.14 608.514 502.296 563.216 502.328C535.207 502.351 489.797 502.351 461.789 502.328Z" fill="#262625"/>
<path d="M294.125 483.494C285.018 480.727 239.839 469.964 236.648 471.948C233.457 473.931 233.609 506.602 243.186 520.141C262.088 522.558 288.429 524.744 293.181 524.18C298.243 523.578 307.117 515.472 320.539 508.965C331.617 509.415 343.307 509.93 343.307 509.93L343.424 499.838C343.424 499.838 314.432 496.833 310.898 495.149C304.782 492.235 297.397 484.488 294.123 483.494H294.125ZM730.843 483.494C739.949 480.727 785.129 469.964 788.32 471.948C791.511 473.931 791.359 506.602 781.781 520.141C762.88 522.558 736.539 524.744 731.787 524.18C726.725 523.578 717.85 515.472 704.429 508.965C693.35 509.415 681.66 509.93 681.66 509.93L681.544 499.838C681.544 499.838 710.535 496.833 714.07 495.149C720.185 492.235 727.57 484.488 730.844 483.494H730.843Z" fill="#262625"/>
</g>
<defs>
<clipPath id="clip0_315_17009">
<rect width="1024" height="1024" fill="white"/>
</clipPath>
</defs>
</svg>
