<svg width="1024" height="1024" viewBox="0 0 1024 1024" fill="none" xmlns="http://www.w3.org/2000/svg">
<g clip-path="url(#clip0_1069_38266)">
<g clip-path="url(#clip1_1069_38266)">
<path d="M514.696 230.198L514.887 260.144C540.776 260.174 566.453 260.701 586.183 261.721C649.476 264.997 683.773 271.216 697.737 275.646C716.4 281.568 752.685 364.567 772.438 408.916C772.58 409.15 772.722 409.385 772.858 409.619C776.917 409.527 782.045 409.597 785.033 409.292C785.029 401.878 780.651 391.56 783.492 387.269L783.746 386.968C785.322 385.402 791.443 383.035 798.66 383.613C812.44 384.717 830.829 390.923 831.63 394.389C832.32 397.38 832.344 401.611 831.731 404.527C831.118 407.444 828.26 415.771 824.979 416.601C817.622 418.463 798.839 422.699 781.038 424.312C785.053 432.01 788.106 438.483 789.889 441.613C792.79 446.707 792.488 448.435 793.844 455.745C795.199 463.055 806.366 470.177 809.781 479.374C811.796 484.801 810.794 547.331 808.982 600.386C809.236 600.266 809.509 600.228 809.792 600.233C809.792 600.233 814.671 684.2 812.503 716.58C811.268 735.025 803.636 742.649 789.933 742.711L752.45 742.871C746.521 742.896 739.241 735.109 738.574 725.321L737.615 684.828C712 684.802 650.676 684.588 598.206 684.389C550.644 684.202 473.53 684.206 425.968 684.396C373.495 684.6 312.167 684.819 286.554 684.847L285.596 725.321C284.929 735.109 277.65 742.894 271.72 742.871L234.237 742.711C220.535 742.649 212.902 735.025 211.667 716.58C209.5 684.2 214.379 600.233 214.379 600.233C214.66 600.228 214.931 600.266 215.183 600.385C213.367 547.336 212.36 484.826 214.375 479.4C217.789 470.202 228.955 463.08 230.31 455.77C231.665 448.459 231.362 446.731 234.264 441.637C236.048 438.504 239.105 432.02 243.125 424.311C225.326 422.698 206.548 418.462 199.191 416.601C195.91 415.771 193.052 407.444 192.439 404.527C191.827 401.611 191.85 397.38 192.54 394.389C193.342 390.923 211.731 384.717 225.51 383.613C233.209 382.996 239.66 385.731 240.678 387.269L241.129 388.142C242.989 392.839 239.141 402.342 239.137 409.292C242.123 409.597 247.247 409.527 251.305 409.619C251.436 409.392 251.574 409.165 251.711 408.938C271.46 364.588 307.738 281.586 326.402 275.662C340.364 271.231 374.662 265.009 437.953 261.727C457.701 260.704 483.407 260.175 509.319 260.144L509.51 230.198C509.51 230.198 510.551 230 512.103 230C513.655 230 514.696 230.198 514.696 230.198ZM437.941 300.25L428.063 300.7C380.549 303.052 360.755 306.914 347.927 310.986C329.264 316.909 307.809 379.602 288.061 423.952C279.781 437.603 273.514 451.556 270.613 456.65C267.712 461.745 268.014 463.473 266.659 470.783C265.305 478.094 254.138 485.216 250.724 494.413C247.199 503.909 255.282 635.359 258.396 637.94C259.141 638.556 249.501 641.22 253.472 643.262C266.135 649.772 302.407 646.857 313.8 646.971C321.616 647.05 375.894 646.298 425.976 645.562C473.533 644.863 550.638 644.86 598.196 645.555C648.278 646.286 702.554 647.033 710.37 646.954C721.764 646.838 758.035 649.75 770.698 643.239C774.669 641.197 765.029 638.534 765.774 637.918C768.888 635.337 776.959 503.886 773.433 494.391C770.018 485.193 758.851 478.072 757.496 470.762C756.14 463.452 756.442 461.724 753.54 456.629C750.639 451.535 744.371 437.582 736.09 423.932C716.338 379.584 694.878 316.893 676.214 310.971C662.53 306.63 640.921 302.527 586.198 300.243C545.283 298.536 478.857 298.539 437.941 300.25ZM623.212 590.443C645.82 590.524 652.846 604.583 687.404 631.987C661.012 633.944 608.101 635.165 562.24 635.708C534.551 636.037 489.659 636.037 461.975 635.709C416.111 635.165 363.196 633.944 336.802 631.987C371.36 604.583 378.386 590.524 400.994 590.443C410.782 590.407 432.922 590.557 454.883 590.738L461.029 590.784C492.813 590.998 539.696 590.983 569.323 590.738C591.284 590.558 613.424 590.404 623.212 590.443ZM759.58 624.858C758.596 628.405 719.352 630.348 715.227 629.502C711.102 628.657 654.35 584.926 648.524 584.856C637.293 584.728 600.149 585.144 562.24 585.417C534.551 585.618 489.657 585.618 461.968 585.417C424.058 585.144 386.913 584.728 375.682 584.856C369.855 584.922 313.104 628.657 308.979 629.502C304.854 630.348 265.61 628.405 264.626 624.858C263.643 621.312 269.35 576.671 284.183 577.156C290.168 577.351 338.556 579.639 372.212 580.55C389.059 581.007 424.092 581.44 454.883 581.759L461.029 581.816C492.812 582.085 539.696 582.066 569.322 581.759C600.113 581.44 635.146 581.006 651.994 580.55C685.65 579.639 734.038 577.351 740.023 577.156C754.856 576.671 760.563 621.312 759.58 624.858ZM292.633 581.823C289.774 583.58 286.618 592.203 286.13 593.448C285.641 594.693 286.401 598.824 287.728 598.965C289.053 599.105 333.867 603.323 336.802 602.35C339.737 601.377 344.43 600.21 345.675 597.789C346.179 596.813 341.718 587.746 336.802 584.692C331.886 581.638 295.474 580.078 292.633 581.823ZM687.368 584.692C682.452 587.746 677.991 596.813 678.495 597.789C679.74 600.21 684.433 601.377 687.368 602.35C690.303 603.323 735.118 599.105 736.443 598.965C737.769 598.825 738.53 594.693 738.041 593.448C737.553 592.203 734.396 583.58 731.537 581.823C728.696 580.078 692.284 581.638 687.368 584.692ZM562.817 494.473C604.843 494.533 651.023 494.564 653.016 494.565C653.016 494.566 653.015 494.566 653.015 494.566C650.755 498.481 640.168 522.221 639.509 523.701L639.477 523.774L639.481 523.775L560.821 524.361C528.343 524.603 495.863 524.603 463.385 524.361L384.69 523.775L384.694 523.774C384.694 523.774 373.488 498.607 371.155 494.566C372.795 494.564 419.186 494.534 461.389 494.473L466.836 494.466C495.006 494.435 536.559 494.437 562.817 494.473Z" fill="#262625"/>
<path d="M639.479 523.774C639.479 523.774 664.625 532.786 668.966 533.162C673.309 533.537 690.157 532.543 706.37 530.856C722.584 529.169 744.184 527.729 748.311 523.686C752.436 519.643 750.064 497.757 747.543 487.843C745.405 479.434 742.378 471.592 721.948 475.134C707.126 477.704 657.35 492.44 653.017 494.566C650.684 498.607 639.479 523.774 639.479 523.774ZM384.696 523.774C384.696 523.774 373.49 498.607 371.157 494.566C366.824 492.44 317.048 477.704 302.226 475.134C281.797 471.592 278.769 479.434 276.631 487.843C274.111 497.757 271.738 519.643 275.863 523.686C279.99 527.729 301.59 529.169 317.804 530.856C334.017 532.543 350.866 533.537 355.208 533.162C359.549 532.786 384.696 523.774 384.696 523.774ZM678.497 597.789C677.993 596.813 682.454 587.746 687.37 584.692C692.286 581.638 728.698 580.078 731.539 581.823C734.398 583.58 737.555 592.203 738.043 593.448C738.532 594.693 737.771 598.825 736.445 598.965C735.12 599.105 690.305 603.323 687.37 602.35C684.435 601.377 679.742 600.21 678.497 597.789ZM345.677 597.789C344.432 600.21 339.739 601.377 336.804 602.35C333.869 603.323 289.055 599.105 287.73 598.965C286.403 598.824 285.643 594.693 286.132 593.448C286.621 592.203 289.777 583.58 292.635 581.823C295.476 580.078 331.888 581.638 336.804 584.692C341.72 587.746 346.181 596.813 345.677 597.789Z" fill="#262625"/>
</g>
</g>
<defs>
<clipPath id="clip0_1069_38266">
<rect width="1024" height="1024" fill="white"/>
</clipPath>
<clipPath id="clip1_1069_38266">
<rect width="1024" height="1024" fill="white" transform="translate(0 -26)"/>
</clipPath>
</defs>
</svg>
