<svg width="1024" height="1024" viewBox="0 0 1024 1024" fill="none" xmlns="http://www.w3.org/2000/svg">
<g clip-path="url(#clip0_1077_51901)">
<g clip-path="url(#clip1_1077_51901)">
<path d="M514.121 256.011C540.2 256.036 566.109 256.596 585.987 257.689C617.489 259.412 648.829 261.693 662.306 263.889C685.365 267.64 744.781 356.012 766.281 399.849C769.877 399.805 773.838 399.811 776.321 399.558L776.002 398.551C774.415 393.05 773.068 380.925 774.872 379.783C776.796 378.564 800.896 377.666 810.909 380.264C816.473 381.707 818.496 388.255 820.892 394.411C824.137 402.746 827.647 406.421 813.888 408.478C806.2 409.627 789.628 410.893 771.766 412.163C772.111 413.014 772.392 413.784 772.645 414.517C784.359 448.48 810.696 490.648 811.456 514.12C812.454 544.853 814.566 615.331 812.052 653.595C812.238 657.774 813.426 687.221 811.421 717.182C810.186 735.627 802.553 743.229 788.851 743.313L762.631 743.473C756.701 743.509 749.422 735.71 748.755 725.923L747.943 704.477C713.532 705.961 650.484 708.29 597.987 710.182C550.455 711.9 473.391 711.904 425.863 710.19C373.362 708.302 310.304 705.979 275.893 704.498L275.082 725.923C274.415 735.71 267.135 743.512 261.206 743.473L234.986 743.313C221.283 743.229 213.651 735.627 212.416 717.182C210.411 687.236 211.597 657.804 211.784 653.603C209.269 615.336 211.374 544.875 212.369 514.147C213.127 490.674 239.461 448.504 251.172 414.54C251.427 413.799 251.711 413.022 252.059 412.162C234.202 410.893 217.635 409.627 209.948 408.478C196.189 406.421 199.7 402.746 202.944 394.411C205.341 388.255 207.364 381.707 212.927 380.264C222.941 377.666 247.04 378.564 248.964 379.783L249.284 380.152C250.681 382.681 249.122 395.019 247.515 399.558C249.996 399.811 253.952 399.805 257.545 399.849C279.051 356.001 338.442 267.655 361.497 263.903C374.973 261.705 406.31 259.422 437.81 257.696L445.763 257.3C464.373 256.465 487 256.033 509.751 256.011V214L511.936 214.008L514.121 214V256.011ZM437.831 296.799C411.729 298.488 386.951 300.606 375.008 302.602C350.325 306.727 299.408 393.175 287.697 427.139C275.987 461.103 249.655 503.273 248.895 526.746C247.563 567.912 248.607 629.348 257.058 640.275C257.275 640.555 257.492 640.835 257.711 641.119C270.948 646.188 285.594 649.464 300.458 649.774C286.65 647.731 281.757 627.551 281.447 612.865C289.183 610.792 385.633 615.774 454.734 618.477L460.876 618.694C492.64 619.708 539.523 619.635 569.125 618.477C638.226 615.774 734.68 610.792 742.416 612.865C742.106 627.551 737.213 647.731 723.405 649.774C738.246 649.464 752.87 646.199 766.091 641.141C766.321 640.843 766.549 640.547 766.777 640.252C775.227 629.325 776.267 567.889 774.932 526.723C774.171 503.25 747.834 461.083 736.12 427.119C724.407 393.156 673.482 306.713 648.799 302.59C636.854 300.595 612.074 298.479 585.971 296.792L578.022 296.328C536.908 294.163 476.14 294.321 437.831 296.799ZM761.954 582.812C754.775 583.753 631.397 587.812 560.631 590.08C533.738 590.942 490.143 590.943 463.26 590.081C392.497 587.812 269.098 583.754 261.918 582.812C251.816 581.487 248.87 583.12 250.566 561.168C253.564 568.894 277.253 568.06 318.246 569.726C362.106 571.508 419.251 572.537 461.223 573.021L466.67 573.078C494.838 573.343 536.391 573.324 562.645 573.021C604.617 572.536 661.765 571.508 705.626 569.726C746.62 568.06 770.308 568.894 773.306 561.168C775.003 583.121 772.056 581.487 761.954 582.812ZM621.544 557.314C616.351 557.995 587.477 558.815 560.644 559.451C533.745 560.089 490.135 560.089 463.246 559.452C436.409 558.815 407.522 557.995 402.328 557.314C392.227 555.989 388.419 538.424 387.853 516.472C396.213 516.472 428.339 516.529 461.222 516.534C489.231 516.539 534.642 516.539 562.65 516.534C595.533 516.526 627.659 516.472 636.02 516.472C635.453 538.424 631.646 555.989 621.544 557.314Z" fill="#262625"/>
<path d="M380.931 530.097C380.931 521.807 377.775 510.05 360.427 510.245C343.079 510.441 338.192 521.961 338.192 531.781C338.192 541.602 343.871 550.643 359.347 550.643C374.824 550.643 380.931 538.388 380.931 530.097ZM642.906 530.097C642.906 521.807 646.062 510.05 663.41 510.245C680.757 510.441 685.644 521.961 685.644 531.781C685.644 541.602 679.965 550.643 664.489 550.643C649.013 550.643 642.906 538.388 642.906 530.097ZM332.198 516.474C332.198 490.961 315.353 483.54 297.603 483.741C279.853 483.941 263.43 498.083 263.43 518.277C263.43 538.471 274.393 550.643 293.196 550.643C312 550.643 332.198 541.988 332.198 516.474ZM691.639 516.474C691.639 490.961 708.483 483.54 726.234 483.741C743.984 483.941 760.407 498.083 760.407 518.277C760.407 538.471 749.444 550.643 730.641 550.643C711.837 550.643 691.639 541.988 691.639 516.474Z" fill="#262625"/>
</g>
</g>
<defs>
<clipPath id="clip0_1077_51901">
<rect width="1024" height="1024" fill="white"/>
</clipPath>
<clipPath id="clip1_1077_51901">
<rect width="1024" height="1024" fill="white" transform="translate(0 -33)"/>
</clipPath>
</defs>
</svg>
