<svg width="1024" height="1024" viewBox="0 0 1024 1024" fill="none" xmlns="http://www.w3.org/2000/svg">
<g clip-path="url(#clip0_562_39222)">
<g clip-path="url(#clip1_562_39222)">
<path d="M851.901 632.735C846.141 651.954 786.114 666.697 786.114 666.697L787.163 725.439C787.831 735.226 795.11 743.005 801.039 742.989L860.855 742.829C874.557 742.79 882.19 735.143 883.425 716.698C885.592 684.318 891.513 583.031 883.758 555.54C876.003 528.049 870.721 569.93 851.901 632.735ZM171.717 632.735C152.897 569.93 147.614 528.049 139.859 555.54C132.104 583.031 138.025 684.318 140.193 716.698C141.428 735.143 149.06 742.79 162.763 742.829L222.578 742.989C228.508 743.004 235.787 735.226 236.454 725.439L237.503 666.697C237.503 666.697 177.477 651.954 171.717 632.735ZM437.648 157.174C478.585 156.061 544.988 156.058 585.923 157.167C655.421 159.049 700.619 162.44 720.038 165.957C745.673 170.599 786.095 270.903 798.577 316.93C806.669 323.496 813.961 335.567 817.633 352.233C819.679 361.515 840.002 388.089 843.627 396.385C852.714 417.177 837.274 557.363 832.298 565.256C827.322 573.149 824.162 582.644 822.761 585.747C814.259 604.584 813.511 617.9 808.717 620.028C767.927 638.144 746.047 638.875 715.571 633.63C699.26 630.823 674.718 628.202 656.375 626.879C634.852 625.326 575.964 625.135 539.743 625.176C524.315 625.192 499.308 625.192 483.889 625.179C447.671 625.14 388.767 625.337 367.241 626.892C348.898 628.217 324.357 630.839 308.045 633.648C277.569 638.896 255.689 638.166 214.898 620.054C210.104 617.926 209.355 604.61 200.851 585.774C199.449 582.671 196.289 573.176 191.312 565.284C186.336 557.392 170.883 417.207 179.968 396.414C183.593 388.118 203.913 361.542 205.958 352.26C209.629 335.593 216.92 323.522 225.011 316.955C237.489 270.927 277.903 170.619 303.537 165.975C322.956 162.456 368.152 159.062 437.648 157.174ZM437.661 119.26C360.14 122.449 300.291 128.757 280.584 132.327C254.95 136.972 203.059 251.964 190.581 297.992C182.49 304.559 172.806 325.041 169.134 341.707C167.089 350.989 147.041 374.064 143.416 382.36C134.332 403.153 145.438 596.991 150.414 604.884C155.391 612.776 158.551 622.27 159.953 625.374C168.457 644.21 169.206 657.526 174 659.654C214.791 677.766 277.569 678.529 308.045 673.281C324.357 670.472 348.898 667.85 367.241 666.525C388.767 664.97 447.672 664.774 483.891 664.812C499.31 664.827 524.316 664.827 539.745 664.809C575.965 664.771 634.856 664.959 656.378 666.512C674.721 667.836 699.263 670.456 715.574 673.263C746.051 678.508 808.829 677.74 849.618 659.624C854.412 657.496 855.16 644.18 863.662 625.343C865.063 622.24 868.223 612.745 873.199 604.852C878.175 596.96 889.265 403.12 880.178 382.328C876.552 374.032 856.502 350.959 854.456 341.677C850.784 325.011 841.098 304.531 833.006 297.964C820.524 251.937 768.623 136.949 742.988 132.307C723.281 128.738 663.429 122.436 585.906 119.254C544.992 117.58 478.577 117.582 437.661 119.26ZM859.667 238.529H859.671C853.379 240.372 854.691 251.55 854.696 258.964C850.95 259.346 818.721 260.005 814.565 260.267C815.845 266.151 824.494 290.914 827.137 295.902C847.554 292.173 909.077 291.07 917.986 289.186C926.89 287.303 926.889 244.549 917.614 239.927C908.337 235.304 865.96 236.685 859.667 238.529ZM163.951 238.529C157.658 236.685 115.281 235.304 106.004 239.927C96.7287 244.549 96.7279 287.303 105.632 289.186C114.54 291.07 176.064 292.173 196.481 295.902C199.124 290.914 207.772 266.151 209.052 260.267C204.897 260.005 172.668 259.346 168.922 258.964C168.927 251.55 170.239 240.372 163.947 238.529H163.951ZM846.281 400.411H846.278C831.199 426.98 749.656 429.294 734.64 434.497C719.623 439.699 694.04 471.735 697.767 473.965C701.303 476.08 707.327 485.903 717.541 487.56C750.309 492.875 815.037 487.63 847.62 485.786C851.307 465.115 849.832 422.182 846.281 400.411ZM177.336 400.411C173.786 422.182 172.311 465.115 175.998 485.786C208.58 487.631 273.309 492.875 306.077 487.56C316.291 485.903 322.315 476.08 325.851 473.965C329.578 471.735 303.995 439.699 288.978 434.497C273.962 429.294 192.419 426.98 177.34 400.411H177.336ZM454.617 492.515C411.214 491.763 355.577 491.187 334.725 492.658C328.404 493.104 304.183 497.607 286.695 497.43C269.207 497.253 232.122 498.352 180.134 494.484C180.134 547.701 182.066 624.023 211.307 628.168C219.061 629.268 248.518 645.318 279.774 641.783C392.137 629.076 506.434 632.783 511.827 632.967C516.417 632.811 599.917 630.101 693.966 637.136C721.574 639.201 767.099 643.554 793.105 634.724C802.275 631.611 809.152 628.621 812.347 628.168C841.587 624.023 843.52 547.701 843.52 494.484C791.532 498.352 754.447 497.253 736.958 497.43C719.471 497.607 695.249 493.104 688.928 492.658C668.071 491.186 612.409 491.763 569.001 492.515C537.422 493.063 486.215 493.062 454.617 492.515ZM461.113 367.835C410.284 367.781 347.019 367.85 340.845 369.62C326.395 373.758 315.633 405.641 316.015 410.612C316.395 415.582 338.78 447.527 353.674 452.262C362.79 455.159 420.046 456.137 463.108 456.46C490.014 456.662 533.639 456.662 560.546 456.46C603.608 456.137 660.863 455.159 669.979 452.262C684.874 447.527 707.258 415.582 707.638 410.612C708.019 405.641 697.259 373.758 682.809 369.62C676.635 367.853 613.368 367.777 562.54 367.835C534.532 367.866 489.121 367.866 461.113 367.835ZM208.326 380.272L206.009 393.529C205.691 395.368 206.928 397.054 208.781 397.286C217.477 398.377 240.256 401.119 242.846 400.24C243.752 399.933 245.796 396.591 251.243 396.331C256.69 396.071 290.816 396.78 294.543 394.55C298.27 392.32 308.417 376.83 308.417 376.83C250.746 376.4 220.156 376.542 211.376 376.604C209.888 376.612 208.73 377.069 208.791 377.616L208.326 380.272ZM814.827 377.615L818.191 396.859C818.191 396.859 783.981 401.329 780.771 400.24C779.866 399.933 777.822 396.591 772.375 396.331C766.928 396.071 732.802 396.78 729.075 394.55C725.348 392.32 715.201 376.83 715.201 376.83C784.777 376.31 814.937 376.626 814.937 376.626L814.827 377.615Z" fill="#262625"/>
<path d="M796.502 377.615C780.078 377.615 774.707 377.612 774.707 386.494C774.707 395.377 775.804 396.395 796.096 396.395C815.193 396.395 812.747 394.44 812.894 386.494C813.034 378.549 812.894 377.615 796.502 377.615ZM227.12 377.615C243.543 377.615 248.914 377.612 248.914 386.494C248.914 395.377 247.818 396.395 227.525 396.395C208.429 396.395 210.875 394.44 210.728 386.494C210.588 378.549 210.728 377.615 227.12 377.615ZM747.302 378.549C730.878 378.549 728.954 378.81 728.954 386.183C728.954 393.557 727.034 394.44 747.327 394.44C766.423 394.44 763.408 393.903 763.555 386.506C763.703 379.107 763.726 378.549 747.302 378.549ZM276.32 378.549C292.744 378.549 294.668 378.81 294.668 386.183C294.668 393.557 296.588 394.44 276.295 394.44C257.198 394.44 260.214 393.903 260.067 386.506C259.919 379.107 259.896 378.549 276.32 378.549ZM790.144 517.935C805.469 517.935 807.4 517.625 807.4 523.791C807.4 529.959 806.764 530.369 790.454 530.369C774.146 530.369 769.838 531.82 769.838 524.288C769.838 516.757 774.82 517.935 790.144 517.935ZM233.477 517.935C248.802 517.935 253.784 516.757 253.784 524.288C253.784 531.82 249.476 530.369 233.168 530.369C216.858 530.369 216.222 529.958 216.222 523.791C216.222 517.625 218.153 517.935 233.477 517.935ZM694.083 565.586C709.408 565.586 711.897 565.164 711.897 569.32C711.897 573.476 711.038 573.44 694.728 573.44C678.42 573.44 677.463 573.662 677.463 569.259C677.463 564.855 678.759 565.586 694.083 565.586ZM329.539 565.586C344.863 565.586 346.159 564.856 346.159 569.259C346.159 573.662 345.202 573.44 328.894 573.44C312.584 573.44 311.725 573.479 311.725 569.32C311.725 565.164 314.214 565.586 329.539 565.586ZM250.114 412.239C252.652 411.748 263.993 399.328 260.05 398.046C248.431 394.268 245.181 400.932 243.655 400.866C221.453 399.905 205.276 397.39 199.561 395.955C196.81 396.72 197.273 398.884 197.619 402.73C197.968 406.575 246.189 412.997 250.114 412.239ZM773.662 412.239C771.123 411.748 759.783 399.328 763.725 398.046C775.344 394.268 778.594 400.932 780.121 400.866C802.322 399.905 818.5 397.39 824.214 395.955C826.965 396.72 826.502 398.884 826.156 402.73C825.807 406.575 777.587 412.997 773.662 412.239ZM310.923 375.83C310.923 375.83 315.614 372.684 314.445 370.888C313.277 369.092 208.656 368.65 207.085 369.538C205.514 370.425 204.859 374.41 206.868 375.078C208.877 375.746 309.208 376.148 310.92 375.83C312.632 375.512 310.923 375.83 310.923 375.83ZM712.853 375.83C712.853 375.83 708.162 372.684 709.33 370.888C710.499 369.092 815.119 368.65 816.69 369.538C818.261 370.425 818.916 374.41 816.908 375.078C814.899 375.746 714.568 376.148 712.855 375.83C711.143 375.512 712.853 375.83 712.853 375.83Z" fill="#262625"/>
</g>
</g>
<defs>
<clipPath id="clip0_562_39222">
<rect width="1024" height="1024" fill="white"/>
</clipPath>
<clipPath id="clip1_562_39222">
<rect width="1024" height="1024" fill="white" transform="translate(0 -45)"/>
</clipPath>
</defs>
</svg>
