<svg width="1024" height="1024" viewBox="0 0 1024 1024" fill="none" xmlns="http://www.w3.org/2000/svg">
<g clip-path="url(#clip0_843_12206)">
<path d="M816.836 648.902C808.652 651.442 751.361 677.888 751.361 677.888L752.41 711.914C753.077 721.701 761.899 742.811 771.11 742.777L813.26 742.617C826.962 742.562 834.595 734.931 835.83 716.486C837.997 684.106 838.542 629.515 838.542 629.515C824.716 631.026 825.043 646.355 816.836 648.902ZM206.538 648.902C198.331 646.355 198.658 631.026 184.832 629.515C184.832 629.515 185.375 684.106 187.544 716.486C188.779 734.931 196.412 742.562 210.114 742.617L252.264 742.777C261.475 742.815 270.297 721.701 270.964 711.914L272.013 677.888C272.013 677.888 214.722 651.442 206.538 648.902ZM437.533 229.34C478.462 227.951 544.874 227.948 585.799 229.333C637.63 231.088 655.356 233.819 668.672 235.537C686.973 237.898 724.334 316.551 743.792 349.753C749.9 356.886 754.662 363.703 759.81 373.671C764.542 382.834 764.189 391.531 773.157 402.584C776.948 407.255 782.795 418.2 794.626 426.128C806.458 434.056 805.775 507.72 805.971 526.054C806.11 539.201 800.338 587.246 801.683 611.382C802.28 622.185 791.523 627.549 786.382 629.732C768.207 637.448 772.706 655.096 757.739 655.142C722.507 655.252 665.275 656.099 597.786 655.351C550.227 654.823 473.154 654.826 425.602 655.358C358.108 656.113 300.87 655.27 265.635 655.164C250.669 655.118 255.166 637.471 236.99 629.757C231.849 627.574 221.091 622.211 221.688 611.408C223.03 587.272 217.253 539.228 217.393 526.08C217.587 507.747 216.896 434.083 228.729 426.154C240.559 418.224 246.405 407.279 250.195 402.607C259.163 391.554 258.808 382.857 263.54 373.694C268.687 363.725 273.449 356.907 279.556 349.774C299.012 316.57 336.365 237.914 354.667 235.551C367.981 233.833 385.706 231.099 437.533 229.34ZM437.545 191.165C377.339 193.91 347.816 198.664 334.22 200.419C315.919 202.781 268.238 289.408 250.37 321.121C244.262 328.254 239.164 335.023 234.017 344.992C229.285 354.155 229.891 363.156 220.923 374.21C217.133 378.881 209.03 394.821 197.2 402.75C185.369 410.679 176.07 476.56 179.023 519.041C179.964 532.153 182.133 600.339 180.791 624.475C180.193 635.278 193.633 647.345 198.774 649.527C216.949 657.242 228.113 683.597 243.079 683.747C247.328 683.786 267.854 686.402 284.51 686.71C301.165 687.018 294.677 674.202 300.428 673.812C300.84 673.781 306.41 673.312 310.495 674.972C315.475 676.996 316.728 679.956 326.628 680.766C334.056 681.374 380.765 681.853 425.584 682.172C473.138 682.49 550.245 682.487 597.806 682.165C642.622 681.841 689.322 681.358 696.749 680.75C706.649 679.94 707.902 676.979 712.881 674.955C716.967 673.295 722.537 673.763 722.948 673.794C728.699 674.183 722.211 687 738.867 686.69C755.523 686.381 776.049 683.763 780.298 683.725C795.264 683.572 806.425 657.217 824.6 649.5C829.741 647.318 843.18 635.25 842.582 624.447C841.237 600.311 843.402 532.124 844.339 519.012C847.289 476.531 837.984 410.652 826.153 402.723C814.322 394.795 806.217 378.856 802.427 374.185C793.459 363.132 794.063 354.131 789.33 344.968C784.182 335 779.084 328.231 772.976 321.099C755.105 289.387 707.416 202.765 689.115 200.404C675.518 198.65 645.994 193.898 585.782 191.159C544.878 189.305 478.452 189.308 437.545 191.165ZM787.037 301.106C778.319 304.855 788.567 327.603 788.572 335.017C784.827 335.399 785.955 335.192 781.8 335.454C783.08 341.338 785.245 344.58 787.887 349.568C806.834 348.215 827.909 346.522 837.356 341.125C846.802 335.729 847.679 332.832 847.306 325.456C847.128 321.995 845.172 322.668 845.001 319.796C844.837 317.007 846.566 317.926 846.31 315.665C846.054 313.404 841.431 309.94 840.253 308.864C831.75 301.106 795.755 297.357 787.037 301.106ZM236.337 301.106C227.619 297.357 191.624 301.106 183.121 308.864C181.943 309.94 177.318 313.404 177.064 315.665C176.808 317.926 178.54 317.007 178.373 319.796C178.202 322.668 176.244 321.995 176.068 325.456C175.695 332.832 176.572 335.729 186.018 341.125C195.465 346.522 216.54 348.215 235.487 349.568C238.129 344.58 240.294 341.338 241.574 335.454C237.419 335.192 238.548 335.399 234.802 335.017C234.807 327.603 245.055 304.855 236.337 301.106ZM454.652 511.356C409.748 507.896 352.37 503.491 337.653 502.43C312.575 500.621 284.534 593.522 269.262 597.752C253.989 601.982 220.772 586.698 220.772 586.698C220.772 586.698 210.934 621.268 214.002 621.368C216.642 621.455 240.999 664.085 243.954 664.198C266.214 665.048 283.182 666.759 314.115 667.492C337.332 668.042 405.227 666.95 461.591 665.599C489.271 664.935 534.141 664.935 561.824 665.599C618.187 666.95 686.079 668.042 709.295 667.492C740.228 666.759 757.196 665.048 779.456 664.198C782.411 664.085 806.767 621.455 809.408 621.368C812.476 621.268 802.638 586.698 802.638 586.698C802.638 586.698 769.421 601.982 754.148 597.752C738.876 593.522 710.836 500.621 685.757 502.43C671.04 503.491 613.662 507.896 568.758 511.356C537.248 513.783 486.162 513.783 454.652 511.356ZM461.058 432.828C418.791 429.629 370.726 423.907 357.121 420.262C357.765 423.952 359.102 423.572 360.648 426.018C384.535 428.809 428.555 433.135 463.147 436.231C489.937 438.629 533.478 438.628 560.275 436.23C594.866 433.134 638.878 428.808 662.762 426.018C664.308 423.572 665.646 423.952 666.289 420.262C652.683 423.908 604.615 429.629 562.347 432.829C534.428 434.942 488.98 434.942 461.058 432.828ZM559.949 463.403C555.119 471.58 551.914 476.93 548.779 483.783C546.817 488.072 624.193 473.359 632.721 466.478C636.062 458.261 635.625 462.242 642.769 450.84C627.036 453.91 596.341 458.448 559.949 463.403ZM463.425 463.403C427.033 458.448 396.338 453.91 380.605 450.84C387.75 462.242 387.313 458.261 390.653 466.478C399.182 473.359 476.557 488.072 474.596 483.783C471.461 476.93 468.255 471.58 463.425 463.403ZM567.639 439.198C565.086 447.911 563.89 453.127 563.032 456.631C571.817 455.85 633.623 447.278 649.652 443.478C652.993 435.261 655.369 437.635 662.514 426.233C646.78 429.303 603.629 434.912 567.639 439.198ZM455.735 439.198C419.745 434.912 376.594 429.303 360.861 426.233C368.005 437.635 370.382 435.261 373.722 443.478C389.751 447.278 451.557 455.85 460.343 456.631C459.485 453.127 458.288 447.911 455.735 439.198ZM639.921 194.937C638.295 197.639 638.876 197.389 641.67 198.064C647.482 193.121 652.533 187.564 658.786 188.105C661.242 188.318 658.786 199.481 661.692 199.05C675.451 196.993 689.253 208.604 682.344 194.86C671.792 173.869 649.711 178.661 639.921 194.937ZM383.454 194.937C373.663 178.661 351.582 173.869 341.03 194.86C334.122 208.604 347.923 196.993 361.682 199.05C364.564 199.481 362.132 188.318 364.588 188.105C370.841 187.564 375.893 193.121 381.704 198.064C384.499 197.389 385.079 197.639 383.454 194.937ZM509.842 176.473V190.793C509.842 191.607 510.502 192.267 511.315 192.267C511.315 192.267 511.315 192.267 511.316 192.267H513.965V175H511.316C510.502 175 509.842 175.659 509.842 176.473C509.842 176.473 509.842 176.473 509.842 176.473Z" fill="#262625"/>
<path d="M276.437 559.098C276.437 569.943 267.646 578.735 256.801 578.735C245.956 578.735 237.164 569.943 237.164 559.098C237.164 548.253 245.956 539.462 256.801 539.462C267.646 539.462 276.437 548.253 276.437 559.098ZM746.35 558.06C746.35 568.904 755.141 577.696 765.986 577.696C776.831 577.696 785.623 568.904 785.623 558.06C785.623 547.215 776.831 538.423 765.986 538.423C755.141 538.423 746.35 547.215 746.35 558.06ZM664.474 420.741H664.478C664.478 420.741 625.144 472.393 625.912 475.665C626.68 478.938 707.705 460.966 720.712 459.613C740.132 457.593 740.129 463.939 748.95 461.344C753.925 459.88 772.684 450.529 776.028 442.312C779.369 434.096 777.177 420.648 775.71 415.815C771.433 401.731 770.535 401.684 747.628 406.3C717.141 412.443 664.474 420.741 664.474 420.741ZM358.906 420.741C358.906 420.741 306.239 412.443 275.752 406.3C252.845 401.684 251.947 401.731 247.67 415.815C246.203 420.648 244.011 434.096 247.352 442.312C250.696 450.529 269.455 459.88 274.43 461.344C283.251 463.939 283.248 457.593 302.668 459.613C315.675 460.966 396.699 478.938 397.469 475.665C398.237 472.393 358.903 420.741 358.903 420.741H358.906Z" fill="#262625"/>
</g>
<defs>
<clipPath id="clip0_843_12206">
<rect width="1024" height="1024" fill="white"/>
</clipPath>
</defs>
</svg>
