<svg width="1024" height="1024" viewBox="0 0 1024 1024" fill="none" xmlns="http://www.w3.org/2000/svg">
<g clip-path="url(#clip0_861_14265)">
<g clip-path="url(#clip1_861_14265)">
<path d="M817.746 682.842C809.563 685.382 754.812 691.437 754.812 691.437L755.861 719.146C756.528 728.934 765.35 743.342 774.56 743.305L814.17 743.145C827.873 743.091 834.496 735.362 836.74 717.013C841.071 681.606 837.939 613.12 837.939 613.12C827.103 623.714 825.953 680.295 817.746 682.842ZM186.801 613.12C186.801 613.12 183.669 681.606 187.999 717.013C190.244 735.362 196.867 743.091 210.569 743.145L250.18 743.305C259.389 743.344 268.212 728.934 268.879 719.146L269.928 691.437C269.928 691.437 215.177 685.382 206.993 682.842C198.786 680.295 197.636 623.714 186.801 613.12ZM586.478 236.674C623.327 238.325 654.859 240.986 669.354 242.5C693.115 244.981 724.644 329.656 740.939 363.789C753.812 376.918 784.673 414.198 798.287 445.375C801.742 454.607 806.458 514.683 806.653 533.017C806.793 546.164 806.219 583.113 797.406 604.181C804.696 624.87 775.869 662.229 769.862 662.23C737.546 662.233 594.109 661.848 534.071 661.729C522.085 661.705 502.654 661.705 490.67 661.731C430.631 661.856 287.194 662.252 254.878 662.252C248.871 662.252 220.041 624.895 227.328 604.205C218.518 583.138 217.936 546.19 218.076 533.042C218.269 514.709 222.979 454.631 226.434 445.399C240.046 414.221 270.903 376.938 283.775 363.809C300.067 329.674 331.589 244.996 355.349 242.513C369.844 240.998 401.375 238.334 438.223 236.68C479.129 234.844 545.573 234.842 586.478 236.674ZM438.231 198.492C392.806 200.793 350.132 204.618 334.864 206.214C311.103 208.698 267.71 308.36 251.418 342.494C238.546 355.624 205.148 393.754 191.536 424.932C188.082 434.164 179.21 519.839 179.016 538.172C178.877 551.319 179.458 588.268 188.269 609.335C180.982 630.025 208.847 699.901 214.855 699.901C247.591 699.901 423.581 699.907 490.672 699.908C502.656 699.909 522.087 699.908 534.072 699.907C601.162 699.899 777.152 699.877 809.889 699.875C815.896 699.875 843.755 629.997 836.466 609.307C845.275 588.24 845.854 551.291 845.713 538.143C845.519 519.81 836.639 434.136 833.183 424.904C819.569 393.728 786.167 355.601 773.294 342.472C757 308.339 713.597 208.681 689.836 206.199C674.569 204.604 631.891 200.783 586.464 198.486C545.573 196.422 479.125 196.424 438.231 198.492ZM782.279 304.431C773.561 308.179 782.357 330.637 784.299 337.663C781.813 342.987 780.423 347.623 778.399 351.954C781.907 356.87 787.77 364.489 792.351 368.412C794.627 363.292 796.421 356.302 803.165 353.019C812.366 348.54 827.438 347.661 832.89 344.547C836.666 342.389 839.265 339.202 840.427 336.913C841.133 335.577 840.427 333.716 840.427 332.448C840.427 330.457 841.25 331.269 840.753 328.457C838.936 318.095 836.885 312.286 833.973 308.701C831.061 305.116 791.025 300.682 782.307 304.431H782.279ZM242.432 304.431C233.715 300.682 193.678 305.116 190.767 308.701C187.854 312.286 185.804 318.095 183.986 328.457C183.49 331.269 184.296 330.457 184.312 332.448C184.312 333.716 183.606 335.577 184.312 336.913C185.474 339.202 188.073 342.389 191.85 344.547C197.301 347.661 212.373 348.54 221.575 353.019C228.318 356.302 230.112 363.292 232.389 368.412C236.969 364.489 242.832 356.87 246.34 351.954C244.317 347.623 242.927 342.987 240.44 337.663C242.383 330.637 251.178 308.179 242.46 304.431H242.432ZM455.165 540.348C421.738 540.294 383.517 540.445 369.866 541.301C343.71 542.941 277.966 605.479 264.588 610.741C251.208 616.004 224.898 601.923 224.898 601.923C223.165 624.315 236.137 651.86 253.541 664.192C269.227 664.791 391.438 664.968 462.255 665.021C489.943 665.044 534.835 665.044 562.526 665.021C633.343 664.966 755.548 664.791 771.234 664.192C788.638 651.86 801.61 624.315 799.877 601.923C799.877 601.923 773.567 616.004 760.188 610.741C746.809 605.479 681.065 542.941 654.909 541.301C641.256 540.446 603.025 540.296 569.594 540.348C537.999 540.395 486.769 540.395 455.165 540.348ZM500.909 481.602C492.802 478.899 482.808 473.108 479.455 460.758C443.398 460.758 405.771 459.925 388.981 462.398C380.006 463.72 336.501 505.046 334.831 514.944C334.326 517.929 338.344 533.775 341.715 533.774C345.375 533.773 349.916 527.375 365.411 525.731C374.656 524.75 422.225 525.241 462.284 525.7C489.955 526.015 534.835 526.014 562.523 525.7C602.575 525.244 650.121 524.753 659.364 525.731C674.859 527.375 679.4 533.773 683.06 533.774C686.431 533.774 690.449 517.929 689.944 514.944C688.274 505.046 644.769 463.72 635.794 462.398C619.004 459.925 581.377 460.758 545.32 460.758C541.967 473.109 531.97 478.9 523.863 481.603C517.727 483.648 507.047 483.648 500.909 481.602ZM491.317 436.416C477.101 436.416 380.245 437.307 367.033 436.486C365.561 440.035 366.17 439.565 365.411 444.516C385.211 444.516 478.288 444.158 481.465 443.592C484.642 443.026 488.933 438.712 491.317 436.413V436.416ZM533.423 436.416C547.639 436.416 644.494 437.307 657.706 436.486C659.178 440.035 658.569 439.565 659.329 444.516C639.528 444.516 546.451 444.158 543.274 443.592C540.098 443.026 535.807 438.712 533.423 436.413V436.416ZM266.597 534.502C265.883 538.393 247.346 573.93 242.146 574.286C239.039 574.5 234.225 567.986 233.874 563.779C232.558 547.991 236.701 517.509 238.201 511.323C239.7 505.137 241.727 501.566 245.637 501.027C249.548 500.488 253.985 500.076 255.108 500.1C257.614 500.154 258.809 501.214 259.227 502.811C259.646 504.407 267.311 530.611 266.597 534.502ZM758.143 534.502C758.856 538.393 777.393 573.93 782.593 574.286C785.701 574.5 790.515 567.986 790.865 563.779C792.182 547.991 788.038 517.509 786.539 511.323C785.039 505.137 783.013 501.566 779.103 501.027C775.192 500.488 770.755 500.076 769.631 500.1C767.126 500.154 765.931 501.214 765.513 502.811C765.094 504.407 757.429 530.611 758.143 534.502ZM689.944 209.852C684.306 188.525 643.32 188.647 642.528 203.455C655.166 205.866 673.457 207.125 689.944 209.852ZM382.211 203.455C381.42 188.647 340.433 188.525 334.795 209.852C351.283 207.125 369.574 205.866 382.211 203.455Z" fill="#262625"/>
<path d="M368.996 436.863C355.442 431.815 263.207 412.469 262.861 399.627C255.535 403.062 246.893 427.161 245.426 431.994C243.959 436.827 244.891 440.475 248.119 444.304C253.467 450.642 313.421 473.24 321.314 474.986C331.798 471.952 356.764 445.111 365.745 444.672C367.612 441.399 368.251 440.502 368.996 436.863ZM655.743 436.863C669.297 431.815 761.532 412.469 761.878 399.627C769.205 403.062 777.847 427.161 779.314 431.994C780.781 436.827 779.849 440.475 776.62 444.304C771.272 450.642 711.319 473.24 703.426 474.986C692.941 471.952 667.976 445.111 658.994 444.672C657.127 441.399 656.488 440.502 655.743 436.863Z" fill="#262625"/>
</g>
</g>
<defs>
<clipPath id="clip0_861_14265">
<rect width="1024" height="1024" fill="white"/>
</clipPath>
<clipPath id="clip1_861_14265">
<rect width="1024" height="1024" fill="white" transform="translate(0 -44)"/>
</clipPath>
</defs>
</svg>
