<svg width="1024" height="1024" viewBox="0 0 1024 1024" fill="none" xmlns="http://www.w3.org/2000/svg">
<g clip-path="url(#clip0_485_12561)">
<g clip-path="url(#clip1_485_12561)">
<path d="M381.606 467.356C417.276 472.918 448.061 489.817 449.029 490.578C449.98 491.328 432.171 504.857 425.104 510.173C418.301 515.291 403.754 512.656 403.754 512.656L363.47 529.946L386.247 540.381L404.74 552.432C402.794 550.122 399.099 545.301 400.939 543.998C402.69 542.757 406.842 543.762 409.062 544.433L411.794 541.084C410.712 540.183 407.409 537.086 409.2 534.176C410.382 532.254 413.992 533.378 416.96 534.752L419.139 532.081C418.031 531.006 415.271 527.649 418.2 523.096C420.576 524.989 422.14 526.274 423.165 527.146L432.805 515.329C431.779 513.733 429.959 510.438 431.304 508.934C432.476 507.624 435.565 508.601 437.6 509.452L455.835 487.099L473.821 483.002L485.513 486.229L486.592 495.282C486.592 495.282 567.052 530.526 570.088 533.922C575.352 539.811 597.54 608.856 597.54 608.856L620.42 674.107H618.937L609.693 681.749L523.305 683.883L479.753 682.283L455.935 672.328L449.535 677.839L414.874 676.062C414.874 676.062 410.785 675.351 406.34 672.151C401.897 668.952 396.741 667.884 397.275 655.619C397.439 651.846 397.771 649.838 398.154 648.873L393.904 646.969C389.952 647.984 383.001 649.758 375.205 651.694C364.01 700.098 322.955 737.017 272.501 742.141L260.44 742.749C199.36 742.749 149.122 696.328 143.081 636.842L142.472 624.781C142.472 563.701 188.892 513.463 248.378 507.422L260.44 506.812C270.869 506.812 280.98 508.166 290.556 510.839L288.475 506.813H310.1L311.897 502.593L318.27 498.344L338.531 516.972C338.531 516.972 358.117 495.938 361.99 491.874C365.862 487.811 363.791 484.049 366.822 482.792C367.026 482.704 369.875 480.676 372.831 482.851C373.074 483.032 377.195 485.701 375.576 489.614C375.674 489.824 379.324 492.842 379.324 492.842L359.199 515.044L364.729 519.363L394.78 505.179C394.78 505.179 372.967 466.008 381.606 467.356ZM758.751 518.242L766.598 517.044L778.166 516.461C836.748 516.461 884.932 560.983 890.726 618.037L891.309 629.604C891.309 688.187 846.788 736.371 789.734 742.164L778.166 742.749C719.584 742.749 671.401 698.227 665.607 641.173L665.022 629.604C665.022 585.892 689.811 547.969 726.139 529.199L725.659 527.883C725.659 527.883 734.962 504.302 749.388 510.674L750.801 511.387C750.801 511.387 751.767 499.901 758.751 518.242ZM769.309 553.234C770.304 556.987 771.367 561.132 772.497 565.677L778.166 565.391C796.537 565.391 813.106 573.104 824.767 585.512C822.529 588.329 819.454 590.932 816.688 592.974C807.031 582.752 793.341 576.401 778.167 576.401H778.166L775.172 576.552C777.112 584.584 779.206 593.529 781.484 603.604C793.534 605.104 803.032 614.792 804.263 626.923L804.399 629.604C804.399 632.687 803.867 635.646 802.863 638.381L794.434 631.991L788.002 645.301L795.702 649.076C791.696 652.726 786.541 655.124 780.848 655.702L779.093 655.791C780.489 653.143 781.928 650.866 783.343 649.293C789.333 642.638 764.931 640.421 764.931 640.421C764.931 640.421 765.241 645.956 764.826 652.164C762.872 651.039 761.094 649.648 759.523 648.052C758.316 648.876 757.379 649.353 756.814 649.374C754.206 649.472 738.482 646.161 726.892 643.627C731.624 661.193 745.168 675.126 762.483 680.453C762.163 684.313 761.824 688.139 761.472 691.549C737.901 685.288 719.707 665.907 715.127 641.698L729.741 640.192L725.518 629.124C725.518 629.124 714.242 633.823 707.998 635.668C708.071 635.029 708.216 634.308 708.439 633.503C709.616 629.278 710.857 632.359 714.107 626.519L714.227 624.154C713.217 623.203 710.796 623.018 712.277 619.664C713.299 617.348 713.676 618.727 715.162 617.278C715.397 615.926 715.699 614.597 716.117 613.314C714.918 610.691 711.824 607.258 713.183 604.944C713.784 603.916 713.688 600.694 713.756 597.521C713.756 596.997 711.843 596.414 709.167 595.773C705.164 603.718 702.584 612.487 701.644 621.741L701.248 629.604L701.557 635.737C697.527 634.324 692.169 631.163 692.169 631.163L695.664 654.172L700.762 651.259L703.272 646.903C709.669 675.006 731.501 697.209 759.403 704.122C757.173 709.126 750.509 714.956 750.509 714.956L768.922 716.508L772.473 710.518C772.473 710.518 768.571 708.437 766.646 705.568L770.302 706.127L778.166 706.523C787.366 706.523 796.188 704.908 804.326 701.862C804.598 702.537 804.786 702.977 804.786 702.977L803.752 708.078L809.842 702.056C809.842 702.056 809.447 701.229 808.874 700.109C822.306 694.291 833.727 684.726 841.851 672.741C843.686 676.143 847.008 682.789 847.008 682.789L854.107 659.054C854.107 659.054 851.768 661.523 847.579 662.577C851.349 654.866 853.781 646.393 854.687 637.469L855.084 629.604C855.084 611.381 848.747 594.636 838.122 581.482L839.244 580.303L828.592 564.554C828.592 564.554 829.161 567.479 828.934 571.924C817.283 561.554 802.417 554.747 786.031 553.083L778.166 552.686C775.166 552.686 772.207 552.858 769.309 553.234ZM223.437 551.587C223.437 551.587 225.487 551.748 228.202 552.148C205.55 562.157 188.493 582.468 182.964 607.157C179.177 604.444 176.522 601.163 176.522 601.163L177.868 633.836C177.868 633.836 178.608 631.319 181.117 628.336C182.196 654.981 196.465 678.196 217.582 691.673C215.969 693.459 215.697 696.362 215.697 696.362L239.37 704.506C239.37 704.506 238.547 703.149 237.635 700.924C242.347 702.374 247.259 703.361 252.311 703.873L260.44 704.283C279.006 704.283 296.086 697.919 309.576 687.202C309.367 688.207 309.061 688.787 309.061 688.787L316.262 684.999L332.17 669.281H326.327C328.046 666.747 329.62 664.107 330.989 661.346C322.799 662.724 312.942 664.271 303.206 665.753C299.319 663.183 296.469 659.922 295.37 658.566C305.537 656.976 320.667 654.626 334.556 652.542C334.66 652.526 334.764 652.511 334.88 652.488C336.691 647.897 337.997 643.059 338.75 638.034L305.245 639.166C303.064 646.024 299.339 652.191 294.459 657.246L288.614 647.502L282.931 657.918C282.931 657.918 288.332 662.171 294.216 667.109C285.781 668.373 277.882 669.527 271.786 670.409C269.675 670.991 267.487 671.374 265.252 671.601L262.549 671.738C260.61 672.014 259.525 672.168 259.525 672.168L259.984 671.821C252.797 671.773 246 670.096 239.958 667.104C241.689 663.812 242.59 662.274 242.59 662.274L234.445 657.918L232.9 662.889C222.282 655.262 215.011 643.297 213.62 629.593L213.377 624.781C213.377 622.789 213.5 620.828 213.78 618.914C215.486 619.249 216.385 619.599 216.385 619.599L219.076 614.026C219.076 614.026 217.38 613.901 214.75 613.672C218.89 596.369 232.62 582.816 250.015 578.916C249.783 582.526 249.229 585.616 249.229 585.616L258.192 582.323L257.115 577.886L257.464 577.868L257.084 577.758L257.081 577.746L259.375 577.771L260.44 577.717L262.111 577.802L277.639 577.976C274.504 577.186 268.311 577.772 257.073 577.716L254.846 568.547C263.167 567.258 283.209 562.922 288.61 562.918C292.581 562.914 307.704 565.944 315.574 567.579C303.146 555.521 286.765 547.537 268.569 545.688L260.44 545.278C257.693 545.278 254.978 545.417 252.303 545.689C253.074 541.999 254.168 538.232 254.168 538.232L223.437 551.587ZM831.217 665.772C820.828 681.007 804.044 691.527 784.732 693.488L778.166 693.819C774.194 693.819 770.308 693.459 766.553 692.718C767.163 688.859 767.991 684.808 768.804 681.936L772.727 682.534L778.166 682.809C795.776 682.809 811.388 674.254 821.026 661.036C824.301 662.518 827.947 664.197 831.217 665.772ZM621.603 677.483L620.42 674.107H620.537L621.603 677.483ZM842.381 629.604C842.381 640.921 839.454 651.552 834.292 660.769C830.879 659.323 828.376 657.723 828.376 657.723L824.883 655.074C829.022 647.513 831.371 638.833 831.371 629.606C831.371 618.147 827.748 607.533 821.551 598.877L829.244 590.801C836.262 599.906 840.824 610.979 842.049 623.039L842.381 629.604ZM377.806 636.716C377.584 638.987 377.291 641.238 376.795 643.421C378.849 642.904 380.817 642.401 382.645 641.926L381.13 641.248L382.964 636.542L377.806 636.716ZM712.866 589.097C714.342 589.853 715.308 590.349 715.434 590.287C717.823 589.108 721.901 591.826 724.729 594.012C729.554 586.753 735.829 580.542 743.158 575.813L738.721 563.659C728.153 569.892 719.266 578.642 712.866 589.097ZM280.001 582.014L280.017 581.921L279.791 581.913L280.001 582.014ZM248.899 569.156C250.013 571.007 250.209 574.419 250.08 577.659C233.511 577.508 211.018 577.272 211.018 577.272L211.222 570.803C211.222 570.803 236.093 570.119 248.899 569.156ZM453.848 521.774C455.866 523.802 459.106 527.531 457.686 529.321C456.657 530.617 454.144 529.469 451.937 528.042C453.784 529.722 455.336 531.761 454.101 533.152C452.405 535.061 448.982 532.166 447.035 530.201L435.886 543.986C437.752 546.161 440.937 550.493 438.802 552.628C436.78 554.651 433.036 551.961 430.929 550.117L427.99 553.751L428.059 553.784C428.059 553.784 433.767 558.474 432.034 560.922C430.301 563.368 423.062 558.271 423.062 558.271C423.062 558.271 417.171 554.197 414.514 552.583C411.856 550.969 407.911 548.177 407.26 548.586C406.61 548.993 418.644 557.799 418.644 557.799C418.644 557.799 420.105 558.984 420.105 562.247C420.105 562.316 420.099 562.379 420.077 562.426L420.954 562.997L438.482 562.968C438.482 562.968 441.625 558.294 450.391 558.351C459.155 558.409 463.742 563.913 463.742 563.913L467.913 563.166L476.547 538.406C476.547 538.406 473.915 538.493 467.751 538.493C465.27 533.848 463.161 530.103 464.779 524.023C472.91 524.023 481.6 523.918 481.6 523.918L482.98 519.964L465.595 507.251L453.848 521.774ZM266.565 408.619L274.561 412.453C275.145 412.732 275.727 413.013 276.309 413.297L286.612 418.321C287.192 418.603 287.751 418.931 288.281 419.297L298.545 426.402C298.706 426.512 298.746 426.733 298.636 426.893C298.577 426.979 298.484 427.036 298.38 427.046L190.676 437.247C190.051 437.306 189.462 437.572 189.005 438.003L189.024 437.999L179.387 447.087C179.068 447.396 179.06 447.904 179.369 448.223C179.405 448.261 179.443 448.293 179.484 448.322L181.388 449.707C181.836 450.034 181.973 450.643 181.708 451.131L165.583 480.992C165.328 481.463 164.741 481.639 164.269 481.386L157.768 477.886C157.29 477.628 156.694 477.792 156.415 478.257L154.572 481.328C154.277 481.821 153.69 482.054 153.138 481.901L149.326 480.842C148.745 480.679 148.122 480.831 147.678 481.239L146.234 482.572C145.785 482.987 145.553 483.586 145.604 484.196L146.031 489.321C146.069 489.787 145.723 490.196 145.257 490.234C145.221 490.238 145.184 490.238 145.148 490.237L135.617 489.748C135.072 489.721 134.642 489.274 134.634 488.728L134.518 480.964C134.509 480.393 134.888 479.888 135.439 479.737L139.451 478.634C140.046 478.471 140.545 478.063 140.825 477.512L158.767 442.189C159.036 441.658 159.58 441.324 160.176 441.324H166.323C166.891 441.324 167.424 441.058 167.765 440.609L167.831 440.517C167.975 440.127 167.776 439.693 167.385 439.549C167.366 439.542 167.346 439.536 167.327 439.529L165.052 438.266C164.525 437.973 164.187 437.428 164.159 436.827L164.062 435.677C164.036 435.116 163.612 434.654 163.056 434.579L156.156 433.659C155.563 433.581 155.06 433.184 154.844 432.627L152.606 426.857C152.482 426.538 152.64 426.178 152.958 426.054C153.044 426.022 153.135 426.008 153.226 426.014L164.083 426.706C164.544 426.737 164.944 426.388 164.976 425.927C164.979 425.884 164.978 425.843 164.975 425.801L164.839 424.204C164.794 423.659 165.172 423.169 165.712 423.074L185.267 419.726C185.899 419.618 186.505 419.393 187.054 419.064L192.743 415.651C193.267 415.337 193.907 415.283 194.476 415.507L197.525 416.708C198.112 416.939 198.756 416.983 199.369 416.834L207.776 414.793C208.4 414.642 209.045 414.603 209.682 414.678L218.93 415.774C219.57 415.851 220.217 415.847 220.855 415.764L257.16 411.017C257.8 410.933 258.429 410.782 259.036 410.566L264.776 408.522C265.362 408.314 266.006 408.349 266.565 408.619ZM743.053 290.582L761.438 319.849C761.438 319.849 802.667 358.619 819.509 388.256C836.059 417.377 842.872 436.027 846.708 460.458C846.824 461.176 846.329 461.866 845.616 462.001L838.981 463.246C838.981 463.246 797.273 408.358 790.734 406.218C784.196 404.077 758.446 408.621 758.446 408.621L761.748 400.107L758.666 396.584L755.611 395.552L749.023 409.586C702.896 421.823 627.641 438.172 618.413 440.167L617.477 440.369L641.511 398.609C648.685 401.663 655.93 403.691 663.11 404.784L667.703 398.981L667.917 393.089C667.917 393.089 665.57 392.963 662.638 392.038C659.706 391.112 658.472 389.414 658.472 389.414L640.418 396.512C640.418 396.512 636.715 395.896 635.172 391.883C633.63 387.872 635.017 384.632 637.487 383.243C639.955 381.854 652.763 377.688 652.763 377.688C652.763 377.688 654.306 371.516 658.317 367.504C662.33 363.493 664.49 363.647 664.49 363.647C664.49 363.647 673.747 358.863 680.845 358.709C687.943 358.556 686.708 365.344 686.708 365.344C695.378 362.382 697.978 360.729 700.291 360.562C702.604 360.393 706.253 360.352 707.184 363.033C708.116 365.714 707.184 369.819 707.184 369.819L698.699 376.454L690.447 386.114L690.767 393.527L695.186 404.522C697.551 404.109 699.881 403.612 702.169 403.041L739.722 399.436L740.439 394.116C740.439 394.116 730.121 391.498 731.418 387.158C732.716 382.818 754.958 358.064 754.958 358.064C754.958 358.064 700.599 336.586 700.236 334.797C699.868 333.007 709.121 323.192 709.121 323.192C709.121 323.192 707.677 316.474 712.171 312.177C716.433 308.098 721.526 309.458 721.526 309.458L731.489 297.289C731.489 297.289 731.644 291.873 734.007 290.322C736.367 288.771 743.053 290.582 743.053 290.582Z" fill="#262625"/>
<path d="M177.866 633.836C177.866 633.836 180.748 624.035 194.393 620.191C208.039 616.347 216.382 619.6 216.382 619.6L219.074 614.026C219.074 614.026 193.173 612.117 187.26 609.621C181.345 607.127 176.52 601.164 176.52 601.164L177.866 633.836ZM223.435 551.587C223.435 551.587 232.765 552.32 237.888 554.515C243.01 556.71 246.367 564.955 248.897 569.156C251.426 573.359 249.226 585.616 249.226 585.616L258.19 582.324L253.434 562.747C253.434 562.747 251.382 554.601 251.565 550.576C251.75 546.552 254.166 538.232 254.166 538.232L223.435 551.587ZM239.368 704.506C239.368 704.506 236.148 699.204 235.391 692.386C234.634 685.569 234.135 678.561 237.474 671.932C240.813 665.305 242.587 662.275 242.587 662.275L234.443 657.919L224.785 688.977C224.785 688.977 224.979 690.302 220.619 690.302C216.263 690.302 215.695 696.362 215.695 696.362L239.368 704.506ZM309.059 688.787C309.059 688.787 310.764 685.569 308.874 681.212C306.98 676.856 282.929 657.919 282.929 657.919L288.611 647.502L294.86 657.919C294.86 657.919 303.193 669.281 313.609 669.281H332.168L316.26 685L309.059 688.787ZM700.76 651.26L705.71 642.669L729.738 640.192L725.516 629.125C725.516 629.125 708.041 636.406 704.546 636.406C701.051 636.406 692.167 631.164 692.167 631.164L695.662 654.172L700.76 651.26ZM839.242 580.304L803.528 617.794L798.87 604.706L809.961 597.385C809.961 597.385 825.489 588.734 827.707 580.082C829.926 571.431 828.589 564.555 828.589 564.555L839.242 580.304ZM854.105 659.055C854.105 659.055 850.112 663.269 843.236 663.047C836.36 662.825 828.373 657.724 828.373 657.724L794.432 631.991L788 645.301L811.07 656.615C811.07 656.615 839.686 669.037 841.017 671.255C842.348 673.474 847.006 682.79 847.006 682.79L854.105 659.055ZM772.471 710.519C772.471 710.519 765.816 706.97 765.595 702.755C765.372 698.54 767.37 686.34 769.145 680.794C770.918 675.249 777.351 655.949 783.341 649.294C789.331 642.639 764.928 640.421 764.928 640.421C764.928 640.421 765.375 648.406 764.482 655.949C763.6 663.491 761.598 698.54 759.602 703.642C757.606 708.745 750.507 714.956 750.507 714.956L768.92 716.509L772.471 710.519ZM804.783 702.977C804.783 702.977 801.835 696.071 802.38 695.104C802.923 694.137 803.9 693.657 805.092 694.147C806.283 694.636 809.84 702.056 809.84 702.056L803.75 708.079L804.783 702.977Z" fill="#262625"/>
<path d="M322.687 401.406C322.687 401.406 329.334 402.878 337.386 406.809C345.437 410.742 351.616 415.048 351.616 415.048L431.752 425.953L474.95 373.341L525.789 357.343C525.789 357.343 526.682 356.809 528.1 358.409C529.523 360.009 529.345 360.543 529.345 360.543L535.21 359.832L543.92 356.632L585.694 364.276L612.89 376.186C625.618 387.697 650.273 396.983 648.999 416.534C646.881 426.192 628.104 435.936 628.104 435.936C628.104 435.936 696.151 418.644 723.346 413.959C750.541 409.276 782.239 402.682 790.734 406.218C799.229 409.754 838.98 463.246 838.98 463.246C838.98 463.246 821.517 470.022 808.898 476.954C796.276 483.887 759.895 504.882 759.895 504.882C759.895 504.882 767.36 503.816 792.069 507.014C816.778 510.214 831.344 519.593 831.344 519.593L813.098 534.912L805.339 626.696L785.81 624.586L754.569 524.439C754.569 524.439 747.28 518.803 741.969 519.637C736.656 520.471 676.064 556.839 670.676 570.397C665.289 583.954 658.222 655.264 658.222 655.264L659.999 678.906L656.444 681.572L621.603 677.483C606.62 651.634 576.915 542.449 569.143 534.549C563.717 529.033 484.204 495.574 484.204 495.574C484.204 495.574 488.134 491.701 483.515 488.214C477.034 483.324 463.04 480.206 460.265 480.559C453.798 481.386 455.799 487.921 455.799 487.921C455.799 487.921 465.89 487.723 468.81 490.064C472.58 493.089 470.512 500.908 466.539 502.714C460.773 505.336 452.384 496.862 452.384 496.862L384.503 471.911L392.291 491.104C392.291 491.104 444.842 527.929 472.54 549.897L467.913 563.166C409.819 516.289 355.708 474.039 297.059 427.864L263.438 408.243L252.851 400.597C252.851 400.597 240.93 401.822 237.854 400.449C234.778 399.078 200.363 364.787 199.037 362.516C197.712 360.244 195.273 353.862 193.758 349.037C194.466 346.808 195.533 345.749 196.979 345.606C198.425 345.463 230.797 350.164 249.323 351.634C267.848 353.104 300.491 352.958 307.253 356.781C314.017 360.603 318.576 380.306 318.576 380.306L315.341 383.247L304.018 380.747L304.164 382.364L310.487 384.423L322.687 401.406Z" fill="#262625"/>
<path d="M144.098 474.84L158.78 446.539C159.013 446.091 159.565 445.916 160.013 446.149C160.029 446.156 160.044 446.165 160.06 446.174L166.227 449.851C166.696 450.131 166.87 450.726 166.625 451.215L152.522 479.354C152.288 479.819 151.721 480.007 151.255 479.774C151.248 479.77 151.24 479.766 151.233 479.762L144.506 476.159C144.032 475.905 143.851 475.317 144.098 474.84ZM136.689 479.801L134.157 479.831C133.62 479.837 133.188 480.276 133.188 480.814V490.021C133.188 490.557 133.622 490.991 134.157 490.991H136.587C137.123 490.991 137.56 490.559 137.565 490.021L137.662 480.755C137.667 480.231 137.246 479.802 136.722 479.797C136.715 479.797 136.709 479.797 136.702 479.797L136.689 479.801ZM773.071 361.321C773.75 359.659 778.731 360.967 780.294 361.321C781.856 361.674 788.536 366.151 790.294 367.987C792.052 369.825 801.962 395.459 806.221 402.62C810.481 409.782 829.557 437.994 831.965 443.55C834.372 449.106 833.817 453.365 833.817 453.365C833.817 453.365 798.88 410.93 794.844 407.781C790.809 404.631 785.109 404.657 785.109 404.657C785.109 404.657 772.397 362.984 773.071 361.321ZM824.947 398.11L824.792 415.466L844.327 462.244C844.327 462.244 844.986 462.14 845.62 462.001C846.25 461.862 846.807 461.391 846.712 460.459C846.615 459.525 843.767 438.704 840.08 428.019C836.334 417.392 831.629 406.162 824.952 398.11H824.947Z" fill="#262625"/>
</g>
</g>
<defs>
<clipPath id="clip0_485_12561">
<rect width="1024" height="1024" fill="white"/>
</clipPath>
<clipPath id="clip1_485_12561">
<rect width="1024" height="1024" fill="white" transform="translate(0 4)"/>
</clipPath>
</defs>
</svg>
