<svg width="1024" height="1024" viewBox="0 0 1024 1024" fill="none" xmlns="http://www.w3.org/2000/svg">
<g clip-path="url(#clip0_469_99666)">
<path d="M813.398 734.897C804.829 734.897 748.296 745.549 748.296 745.549C748.296 745.549 750.049 765.648 754.004 773.258C757.959 780.868 764.242 790.833 770.443 790.808L809.946 790.648C823.798 790.594 830.661 775.191 833.914 764.517C847.969 718.399 833.829 648.638 833.829 648.638C820.002 650.149 821.99 734.897 813.398 734.897ZM210.741 734.897C202.148 734.897 204.136 650.149 190.31 648.638C190.31 648.638 176.17 718.399 190.224 764.517C193.477 775.191 200.34 790.594 214.192 790.648L253.696 790.808C259.897 790.831 266.179 780.868 270.134 773.258C274.089 765.648 275.843 745.549 275.843 745.549C275.843 745.549 219.309 734.897 210.741 734.897ZM437.938 275.359C478.83 273.172 545.271 273.169 586.161 275.353C614.227 276.852 641.5 279.287 654.127 283.195C679.762 291.128 714.218 363.443 730.602 407.792C734.853 412.757 744.422 406.979 748.632 413.41C763.03 435.396 766.213 440.591 780.313 457.334C794.515 474.195 798.456 532.623 798.458 559.112C798.461 600.301 800.17 690.591 781.994 698.308C763.819 706.024 724.507 715.154 707.087 716.182C698.131 716.71 646.324 719.174 598.097 721.443C550.587 723.678 473.554 723.681 426.044 721.45C377.816 719.186 326.008 716.727 317.052 716.199C299.632 715.172 260.32 706.046 242.144 698.331C223.968 690.616 225.668 600.326 225.668 559.137C225.668 532.648 229.604 474.22 243.803 457.357C257.902 440.614 261.085 435.418 275.48 413.431C279.691 406.999 289.259 412.777 293.511 407.811C309.891 363.461 344.34 291.143 369.975 283.207C382.601 279.299 409.873 276.861 437.938 275.359ZM437.929 236.421C399.921 238.054 359.968 240.803 345.836 245.178C320.202 253.113 280.713 334.047 264.333 378.397C260.082 383.362 250.513 377.585 246.303 384.016C231.908 406.003 213.548 428.199 206.766 436.581C192.9 453.719 186.669 532.648 186.669 559.137C186.669 600.326 185.038 729.687 203.215 737.402C221.39 745.117 299.632 754.172 317.052 755.198C326.007 755.726 377.805 757.961 426.028 760.009C473.548 762.027 550.596 762.023 598.116 760.001C646.338 757.95 698.135 755.71 707.091 755.181C724.511 754.153 802.752 745.092 820.926 737.375C839.103 729.658 837.46 600.297 837.457 559.109C837.455 532.62 831.217 453.691 817.349 436.555C810.566 428.173 792.205 405.979 777.808 383.993C773.597 377.562 764.029 383.341 759.777 378.375C743.393 334.026 703.898 253.096 678.263 245.163C664.13 240.79 624.176 238.044 586.168 236.414C545.255 234.648 478.841 234.65 437.929 236.421ZM768.856 343.481C765.887 344.016 764.018 344.729 763.382 347.476C761.546 355.4 762.923 371.523 762.924 377.285C759.178 377.667 760.26 377.198 756.105 377.46C757.385 383.344 758.757 387.491 761.4 392.48C781.817 388.75 789.605 387.198 798.085 385.93C811.844 383.874 816.401 360.657 813.774 354.413C807.81 340.239 774.897 342.393 768.856 343.481ZM255.283 343.481C249.241 342.393 216.328 340.239 210.365 354.413C207.737 360.657 212.294 383.874 226.053 385.93C234.533 387.198 242.321 388.75 262.739 392.48C265.381 387.491 266.754 383.344 268.034 377.46C263.878 377.198 264.96 377.667 261.214 377.285C261.218 371.523 262.592 355.4 260.757 347.476C260.12 344.729 258.252 344.016 255.283 343.481ZM454.884 643.047C428.882 642.501 402.477 642.184 396.072 642.953C382.56 644.576 370.674 652.851 339.034 679.837C290.718 671.698 249.65 665.518 228.725 659.933C224.898 665.042 222.158 688.898 237.993 702.009C255.97 716.895 272.668 719.883 297.007 720.485C328.241 721.259 408.756 723.921 461.978 725.714C489.653 726.646 534.521 726.646 562.196 725.714C615.418 723.921 695.933 721.259 727.167 720.485C751.506 719.882 768.204 716.895 786.182 702.009C802.017 688.898 799.276 665.042 795.449 659.933C774.524 665.518 733.456 671.698 685.14 679.837C653.501 652.851 641.614 644.576 628.102 642.953C621.693 642.184 595.263 642.501 569.247 643.048C537.675 643.711 486.48 643.71 454.884 643.047ZM466.622 493.399C430.621 493.001 386.014 491.462 351.675 485.814C345.755 522.769 351.046 490.865 342.74 542.838C350.611 546.327 367.289 549.417 371.062 555.032C384.522 575.072 406.545 610.402 422.38 615.436C436.845 620.034 507.987 618.442 512.087 618.346C516.187 618.443 587.329 620.034 601.794 615.436C617.629 610.402 639.652 575.072 653.112 555.032C656.885 549.417 673.563 546.327 681.434 542.838C673.128 490.865 678.42 522.769 672.499 485.814C638.16 491.462 593.551 493.001 557.549 493.399C532.443 493.676 491.731 493.677 466.622 493.399ZM250.859 573.391C250.859 573.391 250.611 599.614 253.137 601.517C255.662 603.419 323.192 617.315 324.324 621.403C325.458 625.491 303.393 646.867 293.613 647.088C283.832 647.309 247.65 637.442 244.135 636.087C240.621 634.733 235.221 577.658 239.678 574.069C244.135 570.48 250.859 573.391 250.859 573.391ZM773.279 573.391C773.279 573.391 773.527 599.614 771.001 601.517C768.476 603.419 700.947 617.315 699.814 621.403C698.681 625.491 720.745 646.867 730.526 647.088C740.306 647.309 776.489 637.442 780.003 636.087C783.517 634.733 788.917 577.658 784.46 574.069C780.003 570.48 773.279 573.391 773.279 573.391ZM662.171 233.123C655.059 233.968 647.646 239.488 646.446 244.392C652.194 246.446 669.315 245.584 682.996 252.178C680.188 235.478 669.283 232.278 662.171 233.123ZM361.967 233.123C354.855 232.278 343.951 235.478 341.142 252.178C354.823 245.584 371.944 246.446 377.692 244.392C376.493 239.488 369.08 233.968 361.967 233.123Z" fill="#262625"/>
<path d="M783.047 363.664C784.625 362.509 808.958 359.339 814.397 357.244L814.475 359.611C811.433 361.537 803.525 363.426 797.197 364.334C796.817 364.389 797.414 365.544 797.771 365.768C793.979 366.728 789.663 366.667 788.608 366.712L783.047 363.664ZM241.09 363.664L235.529 366.712C234.474 366.666 230.157 366.728 226.366 365.768C226.723 365.544 227.32 364.389 226.94 364.334C220.612 363.426 212.704 361.537 209.662 359.611L209.74 357.244C215.179 359.339 239.512 362.509 241.09 363.664ZM289.435 624.987C273.838 620.683 253.121 614.965 244.135 612.532C245.244 623.42 244.135 612.532 245.872 628.759C260.867 631.664 275.95 635.789 281.149 634.485C286.349 633.18 287.106 629.186 289.435 624.987ZM734.701 624.987C750.299 620.683 771.016 614.965 780.002 612.532C778.893 623.42 780.002 612.532 778.265 628.759C763.269 631.664 748.187 635.789 742.987 634.485C737.787 633.18 737.03 629.186 734.701 624.987ZM664.412 486.936L636.472 530.233C636.472 530.233 641.395 533.727 678.874 543.846C692.226 539.69 718.581 530.818 742.504 521.249C745.951 521.467 750.327 521.943 753.136 521.711C755.944 521.479 775.22 506.35 777.264 503.254C779.311 500.159 780.592 493.171 779.73 483.263C779.419 479.746 776.206 467.337 772.68 468.127C735.089 476.55 703.154 480.678 664.412 486.936ZM359.724 486.936C320.982 480.678 289.047 476.55 251.457 468.127C247.931 467.337 244.714 479.746 244.407 483.263C243.545 493.171 244.826 500.159 246.873 503.254C248.917 506.35 268.193 521.479 271.001 521.711C273.81 521.943 278.186 521.467 281.633 521.249C305.556 530.818 331.911 539.69 345.263 543.846C382.742 533.727 387.664 530.233 387.664 530.233L359.724 486.936Z" fill="#262625"/>
</g>
<defs>
<clipPath id="clip0_469_99666">
<rect width="1024" height="1024" fill="white"/>
</clipPath>
</defs>
</svg>
