<svg width="1024" height="1024" viewBox="0 0 1024 1024" fill="none" xmlns="http://www.w3.org/2000/svg">
<g clip-path="url(#clip0_485_12565)">
<g clip-path="url(#clip1_485_12565)">
<path d="M813.398 686.897C804.829 686.897 748.296 697.549 748.296 697.549C748.296 697.549 750.049 717.648 754.004 725.258C757.959 732.868 764.242 742.833 770.443 742.808L809.946 742.648C823.798 742.594 830.661 727.191 833.914 716.517C847.969 670.399 833.829 600.638 833.829 600.638C820.002 602.149 821.99 686.897 813.398 686.897ZM210.741 686.897C202.148 686.897 204.136 602.149 190.31 600.638C190.31 600.638 176.17 670.399 190.224 716.517C193.477 727.191 200.34 742.594 214.192 742.648L253.696 742.808C259.897 742.831 266.179 732.868 270.134 725.258C274.089 717.648 275.843 697.549 275.843 697.549C275.843 697.549 219.309 686.897 210.741 686.897ZM437.938 227.359C478.83 225.172 545.271 225.169 586.161 227.353C614.227 228.852 641.5 231.287 654.127 235.195C679.762 243.128 714.218 315.443 730.602 359.792C734.853 364.757 744.422 358.979 748.632 365.41C763.03 387.396 766.213 392.591 780.313 409.334C794.515 426.195 798.456 484.623 798.458 511.112C798.461 552.301 800.17 642.591 781.994 650.308C763.819 658.024 724.507 667.154 707.087 668.182C698.131 668.71 646.324 671.174 598.097 673.443C550.587 675.678 473.554 675.681 426.044 673.45C377.816 671.186 326.008 668.727 317.052 668.199C299.632 667.172 260.32 658.046 242.144 650.331C223.968 642.616 225.668 552.326 225.668 511.137C225.668 484.648 229.604 426.22 243.803 409.357C257.902 392.614 261.085 387.418 275.48 365.431C279.691 358.999 289.259 364.777 293.511 359.811C309.891 315.461 344.34 243.143 369.975 235.207C382.601 231.299 409.873 228.861 437.938 227.359ZM437.929 188.421C399.921 190.054 359.968 192.803 345.836 197.178C320.202 205.113 280.713 286.047 264.333 330.397C260.082 335.362 250.513 329.585 246.303 336.016C231.908 358.003 213.548 380.199 206.766 388.581C192.9 405.719 186.669 484.648 186.669 511.137C186.669 552.326 185.038 681.687 203.215 689.402C221.39 697.117 299.632 706.172 317.052 707.198C326.007 707.726 377.805 709.961 426.028 712.009C473.548 714.027 550.596 714.023 598.116 712.001C646.338 709.95 698.135 707.71 707.091 707.181C724.511 706.153 802.752 697.092 820.926 689.375C839.103 681.658 837.46 552.297 837.457 511.109C837.455 484.62 831.217 405.691 817.349 388.555C810.566 380.173 792.205 357.979 777.808 335.993C773.597 329.562 764.029 335.341 759.777 330.375C743.393 286.026 703.898 205.096 678.263 197.163C664.13 192.79 624.176 190.044 586.168 188.414C545.255 186.648 478.841 186.65 437.929 188.421ZM768.856 295.481C765.887 296.016 764.018 296.729 763.382 299.476C761.546 307.4 762.923 323.523 762.924 329.285C759.178 329.667 760.26 329.198 756.105 329.46C757.385 335.344 758.757 339.491 761.4 344.48C781.817 340.75 789.605 339.198 798.085 337.93C811.844 335.874 816.401 312.657 813.774 306.413C807.81 292.239 774.897 294.393 768.856 295.481ZM255.283 295.481C249.241 294.393 216.328 292.239 210.365 306.413C207.737 312.657 212.294 335.874 226.053 337.93C234.533 339.198 242.321 340.75 262.739 344.48C265.381 339.491 266.754 335.344 268.034 329.46C263.878 329.198 264.96 329.667 261.214 329.285C261.218 323.523 262.592 307.4 260.757 299.476C260.12 296.729 258.252 296.016 255.283 295.481ZM454.884 595.047C428.882 594.501 402.477 594.184 396.072 594.953C382.56 596.576 370.674 604.851 339.034 631.837C290.718 623.698 249.65 617.518 228.725 611.933C224.898 617.042 222.158 640.898 237.993 654.009C255.97 668.895 272.668 671.883 297.007 672.485C328.241 673.259 408.756 675.921 461.978 677.714C489.653 678.646 534.521 678.646 562.196 677.714C615.418 675.921 695.933 673.259 727.167 672.485C751.506 671.882 768.204 668.895 786.182 654.009C802.017 640.898 799.276 617.042 795.449 611.933C774.524 617.518 733.456 623.698 685.14 631.837C653.501 604.851 641.614 596.576 628.102 594.953C621.693 594.184 595.263 594.501 569.247 595.048C537.675 595.711 486.48 595.71 454.884 595.047ZM466.622 445.399C430.621 445.001 386.014 443.462 351.675 437.814C345.755 474.769 351.046 442.865 342.74 494.838C350.611 498.327 367.289 501.417 371.062 507.032C384.522 527.072 406.545 562.402 422.38 567.436C436.845 572.034 507.987 570.442 512.087 570.346C516.187 570.443 587.329 572.034 601.794 567.436C617.629 562.402 639.652 527.072 653.112 507.032C656.885 501.417 673.563 498.327 681.434 494.838C673.128 442.865 678.42 474.769 672.499 437.814C638.16 443.462 593.551 445.001 557.549 445.399C532.443 445.676 491.731 445.677 466.622 445.399ZM250.859 525.391C250.859 525.391 250.611 551.614 253.137 553.517C255.662 555.419 323.192 569.315 324.324 573.403C325.458 577.491 303.393 598.867 293.613 599.088C283.832 599.309 247.65 589.442 244.135 588.087C240.621 586.733 235.221 529.658 239.678 526.069C244.135 522.48 250.859 525.391 250.859 525.391ZM773.279 525.391C773.279 525.391 773.527 551.614 771.001 553.517C768.476 555.419 700.947 569.315 699.814 573.403C698.681 577.491 720.745 598.867 730.526 599.088C740.306 599.309 776.489 589.442 780.003 588.087C783.517 586.733 788.917 529.658 784.46 526.069C780.003 522.48 773.279 525.391 773.279 525.391ZM662.171 185.123C655.059 185.968 647.646 191.488 646.446 196.392C652.194 198.446 669.315 197.584 682.996 204.178C680.188 187.478 669.283 184.278 662.171 185.123ZM361.967 185.123C354.855 184.278 343.951 187.478 341.142 204.178C354.823 197.584 371.944 198.446 377.692 196.392C376.493 191.488 369.08 185.968 361.967 185.123Z" fill="#262625"/>
<path d="M783.047 315.664C784.625 314.509 808.958 311.339 814.397 309.244L814.475 311.611C811.433 313.537 803.525 315.426 797.197 316.334C796.817 316.389 797.414 317.544 797.771 317.768C793.979 318.728 789.663 318.667 788.608 318.712L783.047 315.664ZM241.09 315.664L235.529 318.712C234.474 318.666 230.157 318.728 226.366 317.768C226.723 317.544 227.32 316.389 226.94 316.334C220.612 315.426 212.704 313.537 209.662 311.611L209.74 309.244C215.179 311.339 239.512 314.509 241.09 315.664ZM289.435 576.987C273.838 572.683 253.121 566.965 244.135 564.532C245.244 575.42 244.135 564.532 245.872 580.759C260.867 583.664 275.95 587.789 281.149 586.485C286.349 585.18 287.106 581.186 289.435 576.987ZM734.701 576.987C750.299 572.683 771.016 566.965 780.002 564.532C778.893 575.42 780.002 564.532 778.265 580.759C763.269 583.664 748.187 587.789 742.987 586.485C737.787 585.18 737.03 581.186 734.701 576.987ZM664.412 438.936L636.472 482.233C636.472 482.233 641.395 485.727 678.874 495.846C692.226 491.69 718.581 482.818 742.504 473.249C745.951 473.467 750.327 473.943 753.136 473.711C755.944 473.479 775.22 458.35 777.264 455.254C779.311 452.159 780.592 445.171 779.73 435.263C779.419 431.746 776.206 419.337 772.68 420.127C735.089 428.55 703.154 432.678 664.412 438.936ZM359.724 438.936C320.982 432.678 289.047 428.55 251.457 420.127C247.931 419.337 244.714 431.746 244.407 435.263C243.545 445.171 244.826 452.159 246.873 455.254C248.917 458.35 268.193 473.479 271.001 473.711C273.81 473.943 278.186 473.467 281.633 473.249C305.556 482.818 331.911 491.69 345.263 495.846C382.742 485.727 387.664 482.233 387.664 482.233L359.724 438.936Z" fill="#262625"/>
</g>
</g>
<defs>
<clipPath id="clip0_485_12565">
<rect width="1024" height="1024" fill="white"/>
</clipPath>
<clipPath id="clip1_485_12565">
<rect width="1024" height="1024" fill="white" transform="translate(0 -48)"/>
</clipPath>
</defs>
</svg>
