<svg width="36" height="36" viewBox="0 0 36 36" fill="none" xmlns="http://www.w3.org/2000/svg">
<g clip-path="url(#clip0_311_7079)">
<path d="M30.7346 25.7432C30.4115 25.8435 27.9201 26.3099 27.9201 26.3099L27.9615 28.2071C27.9879 28.5935 28.2752 28.9006 28.5093 28.8999L30.6772 28.8935C31.2182 28.8921 31.5194 28.5902 31.5682 27.8621C31.6538 26.584 31.6231 22.5099 31.6231 22.5099C31.0773 22.5695 31.0586 25.6426 30.7346 25.7432ZM5.27354 25.7432C4.94957 25.6426 4.93082 22.5695 4.38504 22.5099C4.38504 22.5099 4.35442 26.584 4.43998 27.8621C4.48874 28.5902 4.79001 28.8921 5.3309 28.8935L7.49886 28.8999C7.73292 28.9005 8.02026 28.5935 8.0466 28.2071L8.088 26.3099C8.088 26.3099 5.59656 25.8435 5.27354 25.7432ZM15.078 8.47045C16.6931 8.40328 19.3136 8.40317 20.9287 8.4702C23.0549 8.55844 24.0381 8.6643 24.7737 8.89198C25.7857 9.2051 27.1127 12.2463 27.8925 13.9969C29.0402 15.3372 29.5407 15.8983 29.9149 17.5969C30.2402 19.0738 30.5188 23.9506 29.4712 24.4116C28.4236 24.8727 26.1602 25.0464 25.5694 25.0524C25.2674 25.0556 23.2767 25.0908 21.403 25.1246C19.5259 25.1584 16.4823 25.1585 14.6052 25.1249C12.7315 25.0913 10.7408 25.0562 10.4387 25.0532C9.84796 25.0472 7.58445 24.8735 6.53683 24.4126C5.48921 23.9518 5.76741 19.0748 6.09259 17.598C6.46663 15.8993 6.96713 15.3382 8.11473 13.9978C8.89429 12.2471 10.2211 9.20579 11.233 8.89256C11.9687 8.66483 12.9518 8.55888 15.078 8.47045ZM15.0781 6.93872C12.6401 7.04856 11.2001 7.19371 10.4497 7.426C9.43781 7.73923 7.60471 11.5008 6.82515 13.2514C5.76238 14.5029 4.97903 15.2768 4.59203 16.9798C4.25714 18.4543 4.07484 25.5143 5.12246 25.9752C5.50057 26.1416 6.24287 26.2653 7.05099 26.356C8.91161 26.5848 11.9606 26.621 13.8379 26.6489C15.6586 26.6762 17.6013 26.7056 18.0041 26.7117C18.7649 26.7002 25.0149 26.6048 25.5695 26.5991C26.1603 26.5931 29.8382 26.4351 30.8858 25.9742C31.9334 25.5131 31.7504 18.4531 31.4153 16.9787C31.0282 15.2757 30.2449 14.5019 29.182 13.2505C28.4023 11.4999 26.5688 7.73848 25.5569 7.42534C24.8065 7.19311 23.3665 7.04809 20.9284 6.93847C19.3135 6.86599 16.693 6.86611 15.0781 6.93872ZM29.4533 11.3422C29.3005 11.3422 29.1879 11.4684 29.1638 11.619C29.1399 11.7673 29.164 12.3291 29.1695 12.7079C29.1695 12.7972 29.1901 12.7929 29.2393 12.8542C29.1335 13.0374 29.1681 13.1764 29.0041 13.1867C29.0546 13.419 29.4031 13.5897 29.5073 13.7866C29.6854 13.5671 29.854 13.2136 30.1894 13.0859C30.3169 13.0374 31.0083 12.9833 31.1842 12.9518C31.6372 12.8706 31.7873 12.5265 31.6153 12.1319C31.2446 11.2818 29.8948 11.3422 29.4533 11.3422ZM6.5548 11.3422C6.11335 11.3422 4.76363 11.2818 4.39292 12.1319C4.22085 12.5265 4.37087 12.8706 4.82389 12.9518C4.99989 12.9833 5.69135 13.0374 5.81868 13.0859C6.15408 13.2136 6.32273 13.5671 6.5008 13.7866C6.60511 13.5897 6.95352 13.419 7.00404 13.1867C6.84003 13.1764 6.87466 13.0374 6.76885 12.8542C6.8181 12.7929 6.83727 12.7972 6.83859 12.7079C6.84409 12.3291 6.86829 11.7673 6.84441 11.619C6.82021 11.4684 6.70774 11.3422 6.5548 11.3422ZM15.7461 22.5963C14.1168 22.5639 12.4944 22.4957 10.6756 22.4075C10.1324 22.7721 9.43441 23.5155 9.43554 23.7177C9.43554 23.9198 9.85739 24.1097 10.0425 24.1918C10.188 24.2564 13.3687 24.3636 16.0263 24.4359C17.1189 24.4656 18.8907 24.4656 19.9833 24.4359C22.6409 24.3636 25.8215 24.2564 25.9671 24.1918C26.1521 24.1097 26.5741 23.9198 26.5741 23.7177C26.5741 23.5155 25.8771 22.7721 25.334 22.4075C23.5151 22.4957 21.8927 22.5639 20.2634 22.5963C19.0162 22.6211 16.9934 22.6211 15.7461 22.5963ZM16.0031 17.2071C14.1441 17.2437 11.7914 17.3074 11.6128 17.3556C11.3513 17.4263 10.5823 17.7211 10.5454 17.7805C10.5454 18.151 10.5262 19.8016 10.5262 20.0315C10.7606 20.2053 11.9951 21.0345 12.583 21.2214C12.9207 21.3287 14.6611 21.3566 16.0817 21.3609C17.1437 21.364 18.8657 21.364 19.9279 21.3609C21.3484 21.3566 23.0889 21.3287 23.4266 21.2214C24.0145 21.0345 25.2489 20.2053 25.4834 20.0315C25.4834 19.8016 25.4641 18.151 25.4641 17.7805C25.4272 17.7211 24.6583 17.4263 24.3968 17.3556C24.2181 17.3074 21.8651 17.2437 20.0061 17.2071C18.9009 17.1853 17.1085 17.1853 16.0031 17.2071ZM28.7799 20.8661C28.7331 20.5463 29.1305 19.8026 29.1305 19.8026V22.2059C28.9078 21.5919 28.8796 21.5471 28.7799 20.8661ZM25.049 6.86821C24.6205 6.83029 23.9865 6.75011 24.0992 7.2101L25.6891 7.55919C25.6891 7.55919 25.3709 6.89669 25.049 6.86821ZM10.9592 6.86821C10.6373 6.89669 10.3192 7.55919 10.3192 7.55919L11.909 7.2101C12.0217 6.75011 11.3877 6.83029 10.9592 6.86821Z" fill="#262625"/>
<path d="M10.6205 17.0159C9.60067 16.7561 9.25031 16.7228 8.03425 16.3887C7.18744 16.1561 7.14028 15.8685 7.14028 15.8685C7.14028 15.8685 6.85793 16.5348 6.71118 16.9387C7.21871 16.8903 7.99595 17.0946 8.35143 17.1382C8.81992 17.1957 8.7154 17.183 9.48198 17.2628C9.90667 17.3069 10.3081 17.2024 10.6205 17.0159ZM25.3876 17.0159C26.4075 16.7561 26.7578 16.7228 27.9738 16.3887C28.8207 16.1561 28.8678 15.8685 28.8678 15.8685C28.8678 15.8685 29.1502 16.5348 29.297 16.9387C28.7894 16.8903 28.0121 17.0946 27.6567 17.1382C27.1882 17.1957 27.2927 17.183 26.5262 17.2628C26.1015 17.3069 25.7 17.2024 25.3876 17.0159ZM25.4819 20.0315C25.9491 19.8594 28.3061 19.8059 29.1128 19.5894C29.1128 19.0348 29.2271 18.0486 28.8806 17.9428C28.8524 17.9341 28.768 17.8862 28.6574 17.8841C28.0606 17.8719 26.5341 17.8716 25.8394 17.8728C25.5869 17.8731 25.4627 17.7804 25.4627 17.7804L25.4819 20.0315ZM10.5454 17.7804C10.5454 17.7804 10.4212 17.8732 10.1688 17.8728C9.47398 17.8716 7.94749 17.8719 7.3507 17.8841C7.24006 17.8862 7.15578 17.9341 7.12755 17.9428C6.78094 18.0486 6.89615 19.0348 6.89529 19.5894C7.70199 19.8059 10.059 19.8594 10.5262 20.0315L10.5454 17.7804Z" fill="#262625"/>
</g>
<defs>
<clipPath id="clip0_311_7079">
<rect width="27.361" height="22.3194" fill="white" transform="translate(4.32355 6.83777)"/>
</clipPath>
</defs>
</svg>
