<svg width="1024" height="1024" viewBox="0 0 1024 1024" fill="none" xmlns="http://www.w3.org/2000/svg">
<g clip-path="url(#clip0_485_12559)">
<g clip-path="url(#clip1_485_12559)">
<path d="M834.081 662.938C825.897 665.477 762.781 677.294 762.781 677.294L763.83 725.357C764.497 735.145 771.776 742.924 777.706 742.907L832.628 742.747C846.33 742.709 853.962 735.061 855.197 716.617C857.365 684.237 856.589 581.027 856.589 581.027C842.763 582.538 842.288 660.391 834.081 662.938ZM189.067 662.938C180.86 660.391 180.385 582.538 166.558 581.027C166.558 581.027 165.782 684.237 167.95 716.617C169.185 735.061 176.818 742.709 190.52 742.747L245.442 742.907C251.371 742.923 258.651 735.145 259.318 725.357L260.367 677.294C260.367 677.294 197.25 665.477 189.067 662.938ZM437.445 225.361C478.362 223.66 544.747 223.657 585.664 225.355C639.528 227.59 664.434 230.272 683.071 236.04C708.706 243.973 742.326 321.017 762.079 365.365C791.155 399.319 803.834 413.533 813.314 456.566C821.555 493.978 828.614 617.527 802.076 629.205C775.537 640.884 718.195 645.287 703.228 645.439C695.577 645.516 645.145 646.411 597.68 647.266C550.124 648.123 473.023 648.126 425.467 647.274C378.002 646.422 327.57 645.533 319.918 645.456C304.952 645.305 247.61 640.907 221.07 629.231C194.531 617.554 201.578 494.005 209.816 456.592C219.292 413.558 231.971 399.343 261.044 365.387C280.792 321.037 314.405 243.99 340.039 236.055C358.677 230.285 383.582 227.602 437.445 225.361ZM437.449 186.557C375.685 189.34 339.206 193.017 320.196 198.902C294.561 206.837 248.123 302.129 228.374 346.48C201.451 378.184 181.606 397.789 171.802 440.932C163.318 478.287 158.7 657.139 185.239 668.816C194.818 673.03 213.623 676.163 234.095 678.463C281.231 684.261 358.472 685.173 406.03 685.884C452.156 686.573 501.369 687.319 511.575 687.474C530.848 687.179 689.18 684.765 703.232 684.622C718.198 684.47 811.371 680.466 837.91 668.787C864.449 657.109 859.815 478.256 851.327 440.903C841.52 397.76 821.672 378.157 794.747 346.455C774.994 302.106 728.547 206.818 702.912 198.885C683.902 193.002 647.421 189.328 585.657 186.551C544.746 184.715 478.36 184.718 437.449 186.557ZM801.622 298.111H801.62C797.745 298.111 794.898 301.309 794.285 305.125C793.68 308.882 794.293 323.113 794.433 332.709C794.433 334.971 794.952 334.862 796.199 336.417C793.519 341.059 794.396 344.578 790.241 344.84C791.521 350.724 800.347 355.048 802.99 360.037C807.501 354.476 811.774 345.521 820.27 342.286C823.496 341.058 841.013 339.687 845.472 338.888C856.948 336.832 860.749 328.116 856.389 318.119C846.998 296.581 812.805 298.111 801.622 298.111ZM221.525 298.111C210.342 298.111 176.149 296.581 166.758 318.119C162.399 328.116 166.199 336.832 177.676 338.888C182.134 339.687 199.651 341.058 202.877 342.286C211.374 345.521 215.646 354.476 220.158 360.037C222.8 355.048 231.626 350.724 232.906 344.84C228.751 344.578 229.629 341.059 226.948 336.417C228.196 334.862 228.681 334.971 228.715 332.709C228.854 323.113 229.467 308.882 228.862 305.125C228.249 301.309 225.402 298.111 221.528 298.111H221.525ZM454.372 583.217C413.096 582.395 371.994 580.668 325.918 578.435C312.158 587.67 294.475 606.504 294.504 611.623C294.504 616.743 305.191 621.556 309.881 623.636C313.566 625.27 394.144 627.988 461.47 629.82C489.15 630.573 534.033 630.573 561.713 629.82C629.039 627.988 709.617 625.27 713.302 623.636C717.992 621.556 728.679 616.743 728.679 611.623C728.679 606.504 711.024 587.67 697.265 578.435C651.188 580.668 610.086 582.395 568.809 583.217C537.213 583.846 485.969 583.846 454.372 583.217ZM460.883 446.689C413.788 447.617 354.186 449.23 349.66 450.452C343.036 452.242 323.556 459.711 322.622 461.216C322.622 470.602 322.133 512.417 322.133 518.243C328.072 522.643 359.345 543.651 374.24 548.385C382.795 551.104 426.886 551.81 462.874 551.918C489.78 551.999 533.403 551.999 560.311 551.918C596.298 551.81 640.388 551.104 648.943 548.385C663.838 543.651 695.11 522.643 701.05 518.243C701.05 512.417 700.561 470.602 700.561 461.216C699.626 459.711 680.147 452.242 673.523 450.452C668.997 449.23 609.388 447.617 562.291 446.689C534.293 446.137 488.886 446.137 460.883 446.689ZM238.586 539.384C239.772 531.284 229.703 512.442 229.703 512.442V573.328C235.345 557.772 236.059 556.638 238.586 539.384ZM784.562 539.384C783.376 531.284 793.444 512.442 793.444 512.442V573.328C787.802 557.772 787.089 556.638 784.562 539.384ZM690.044 184.771C679.19 183.811 663.128 181.779 665.982 193.432L706.258 202.276C706.258 202.276 698.199 185.493 690.044 184.771ZM333.103 184.771C324.948 185.493 316.889 202.276 316.889 202.276L357.166 193.432C360.019 181.779 343.957 183.811 333.103 184.771Z" fill="#262625"/>
<path d="M324.524 441.847C298.688 435.266 289.812 434.421 259.005 425.959C237.553 420.067 236.358 412.781 236.358 412.781C236.358 412.781 229.205 429.659 225.487 439.891C238.345 438.665 258.035 443.841 267.04 444.947C278.909 446.403 276.261 446.081 295.681 448.101C306.44 449.221 316.611 446.572 324.524 441.847ZM698.623 441.847C724.459 435.266 733.335 434.421 764.142 425.959C785.594 420.067 786.789 412.781 786.789 412.781C786.789 412.781 793.942 429.659 797.66 439.891C784.802 438.665 765.112 443.841 756.107 444.947C744.238 446.403 746.886 446.081 727.466 448.101C716.707 449.221 706.536 446.572 698.623 441.847ZM701.013 518.243C712.848 513.884 772.559 512.527 792.996 507.041C792.996 492.991 795.892 468.009 787.112 465.328C786.398 465.109 784.262 463.895 781.459 463.841C766.34 463.532 727.669 463.524 710.068 463.555C703.672 463.563 700.525 461.216 700.525 461.216L701.013 518.243ZM322.622 461.216C322.622 461.216 319.475 463.567 313.079 463.555C295.478 463.524 256.807 463.532 241.689 463.841C238.886 463.895 236.751 465.109 236.035 465.328C227.255 468.009 230.173 492.991 230.151 507.041C250.588 512.527 310.299 513.884 322.134 518.243L322.622 461.216Z" fill="#262625"/>
</g>
</g>
<defs>
<clipPath id="clip0_485_12559">
<rect width="1024" height="1024" fill="white"/>
</clipPath>
<clipPath id="clip1_485_12559">
<rect width="1024" height="1024" fill="white" transform="translate(0 -45)"/>
</clipPath>
</defs>
</svg>
