<svg width="1024" height="1024" viewBox="0 0 1024 1024" fill="none" xmlns="http://www.w3.org/2000/svg">
<g clip-path="url(#clip0_315_17020)">
<path d="M834.081 707.938C825.897 710.477 762.781 722.294 762.781 722.294L763.83 770.357C764.497 780.145 771.776 787.924 777.706 787.907L832.628 787.747C846.33 787.709 853.962 780.061 855.197 761.617C857.365 729.237 856.589 626.027 856.589 626.027C842.763 627.538 842.288 705.391 834.081 707.938ZM189.067 707.938C180.86 705.391 180.385 627.538 166.558 626.027C166.558 626.027 165.782 729.237 167.95 761.617C169.185 780.061 176.818 787.709 190.52 787.747L245.442 787.907C251.371 787.923 258.651 780.145 259.318 770.357L260.367 722.294C260.367 722.294 197.25 710.477 189.067 707.938ZM437.445 270.361C478.362 268.66 544.747 268.657 585.664 270.355C639.528 272.59 664.434 275.272 683.071 281.04C708.706 288.973 742.326 366.017 762.079 410.365C791.155 444.319 803.834 458.533 813.314 501.566C821.555 538.978 828.614 662.527 802.076 674.205C775.537 685.884 718.195 690.287 703.228 690.439C695.577 690.516 645.145 691.411 597.68 692.266C550.124 693.123 473.023 693.126 425.467 692.274C378.002 691.422 327.57 690.533 319.918 690.456C304.952 690.305 247.61 685.907 221.07 674.231C194.531 662.554 201.578 539.005 209.816 501.592C219.292 458.558 231.971 444.343 261.044 410.387C280.792 366.037 314.405 288.99 340.039 281.055C358.677 275.285 383.582 272.602 437.445 270.361ZM437.449 231.557C375.685 234.34 339.206 238.017 320.196 243.902C294.561 251.837 248.123 347.129 228.374 391.48C201.451 423.184 181.606 442.789 171.802 485.932C163.318 523.287 158.7 702.139 185.239 713.816C194.818 718.03 213.623 721.163 234.095 723.463C281.231 729.261 358.472 730.173 406.03 730.884C452.156 731.573 501.369 732.319 511.575 732.474C530.848 732.179 689.18 729.765 703.232 729.622C718.198 729.47 811.371 725.466 837.91 713.787C864.449 702.109 859.815 523.256 851.327 485.903C841.52 442.76 821.672 423.157 794.747 391.455C774.994 347.106 728.547 251.818 702.912 243.885C683.902 238.002 647.421 234.328 585.657 231.551C544.746 229.715 478.36 229.718 437.449 231.557ZM801.622 343.111H801.62C797.745 343.111 794.898 346.309 794.285 350.125C793.68 353.882 794.293 368.113 794.433 377.709C794.433 379.971 794.952 379.862 796.199 381.417C793.519 386.059 794.396 389.578 790.241 389.84C791.521 395.724 800.347 400.048 802.99 405.037C807.501 399.476 811.774 390.521 820.27 387.286C823.496 386.058 841.013 384.687 845.472 383.888C856.948 381.832 860.749 373.116 856.389 363.119C846.998 341.581 812.805 343.111 801.622 343.111ZM221.525 343.111C210.342 343.111 176.149 341.581 166.758 363.119C162.399 373.116 166.199 381.832 177.676 383.888C182.134 384.687 199.651 386.058 202.877 387.286C211.374 390.521 215.646 399.476 220.158 405.037C222.8 400.048 231.626 395.724 232.906 389.84C228.751 389.578 229.629 386.059 226.948 381.417C228.196 379.862 228.681 379.971 228.715 377.709C228.854 368.113 229.467 353.882 228.862 350.125C228.249 346.309 225.402 343.111 221.528 343.111H221.525ZM454.372 628.217C413.096 627.395 371.994 625.668 325.918 623.435C312.158 632.67 294.475 651.504 294.504 656.623C294.504 661.743 305.191 666.556 309.881 668.636C313.566 670.27 394.144 672.988 461.47 674.82C489.15 675.573 534.033 675.573 561.713 674.82C629.039 672.988 709.617 670.27 713.302 668.636C717.992 666.556 728.679 661.743 728.679 656.623C728.679 651.504 711.024 632.67 697.265 623.435C651.188 625.668 610.086 627.395 568.809 628.217C537.213 628.846 485.969 628.846 454.372 628.217ZM460.883 491.689C413.788 492.617 354.186 494.23 349.66 495.452C343.036 497.242 323.556 504.711 322.622 506.216C322.622 515.602 322.133 557.417 322.133 563.243C328.072 567.643 359.345 588.651 374.24 593.385C382.795 596.104 426.886 596.81 462.874 596.918C489.78 596.999 533.403 596.999 560.311 596.918C596.298 596.81 640.388 596.104 648.943 593.385C663.838 588.651 695.11 567.643 701.05 563.243C701.05 557.417 700.561 515.602 700.561 506.216C699.626 504.711 680.147 497.242 673.523 495.452C668.997 494.23 609.388 492.617 562.291 491.689C534.293 491.137 488.886 491.137 460.883 491.689ZM238.586 584.384C239.772 576.284 229.703 557.442 229.703 557.442V618.328C235.345 602.772 236.059 601.638 238.586 584.384ZM784.562 584.384C783.376 576.284 793.444 557.442 793.444 557.442V618.328C787.802 602.772 787.089 601.638 784.562 584.384ZM690.044 229.771C679.19 228.811 663.128 226.779 665.982 238.432L706.258 247.276C706.258 247.276 698.199 230.493 690.044 229.771ZM333.103 229.771C324.948 230.493 316.889 247.276 316.889 247.276L357.166 238.432C360.019 226.779 343.957 228.811 333.103 229.771Z" fill="#262625"/>
<path d="M324.524 486.847C298.688 480.266 289.812 479.421 259.005 470.959C237.553 465.067 236.358 457.781 236.358 457.781C236.358 457.781 229.205 474.659 225.487 484.891C238.345 483.665 258.035 488.841 267.04 489.947C278.909 491.403 276.261 491.081 295.681 493.101C306.44 494.221 316.611 491.572 324.524 486.847ZM698.623 486.847C724.459 480.266 733.335 479.421 764.142 470.959C785.594 465.067 786.789 457.781 786.789 457.781C786.789 457.781 793.942 474.659 797.66 484.891C784.802 483.665 765.112 488.841 756.107 489.947C744.238 491.403 746.886 491.081 727.466 493.101C716.707 494.221 706.536 491.572 698.623 486.847ZM701.013 563.243C712.848 558.884 772.559 557.527 792.996 552.041C792.996 537.991 795.892 513.009 787.112 510.328C786.398 510.109 784.262 508.895 781.459 508.841C766.34 508.532 727.669 508.524 710.068 508.555C703.672 508.563 700.525 506.216 700.525 506.216L701.013 563.243ZM322.622 506.216C322.622 506.216 319.475 508.567 313.079 508.555C295.478 508.524 256.807 508.532 241.689 508.841C238.886 508.895 236.751 510.109 236.035 510.328C227.255 513.009 230.173 537.991 230.151 552.041C250.588 557.527 310.299 558.884 322.134 563.243L322.622 506.216Z" fill="#262625"/>
</g>
<defs>
<clipPath id="clip0_315_17020">
<rect width="1024" height="1024" fill="white"/>
</clipPath>
</defs>
</svg>
