<svg width="1024" height="1024" viewBox="0 0 1024 1024" fill="none" xmlns="http://www.w3.org/2000/svg">
<g clip-path="url(#clip0_485_12576)">
<g clip-path="url(#clip1_485_12576)">
<path d="M824.22 580.856C816.037 583.395 755.385 605.008 755.385 605.008L756.434 725.815C757.101 735.602 764.381 743.383 770.31 743.365L822.767 743.205C836.469 743.166 844.102 735.519 845.337 717.074C847.504 684.694 849.317 560.651 846.243 554.191C843.169 547.73 832.427 578.309 824.22 580.856ZM198.911 580.856C190.704 578.309 179.962 547.73 176.888 554.191C173.814 560.651 175.627 684.694 177.794 717.074C179.029 735.519 186.662 743.166 200.364 743.205L252.821 743.365C258.75 743.38 266.03 735.602 266.697 725.815L267.746 605.008C267.746 605.008 207.094 583.395 198.911 580.856ZM437.398 206.813C478.348 206.382 544.744 206.379 585.693 206.807C638.837 207.361 659.104 208.434 677.812 214.223C703.447 222.156 725.874 282.746 741.725 330.217C752.663 342.99 760.172 360.217 780.004 375.463C805.286 394.899 794.208 436.311 797.258 463.63C801.829 504.564 803.396 545.615 785.22 553.331C767.045 561.048 723.68 580.007 708.714 580.159C700.922 580.238 647.294 581.362 597.663 582.422C550.111 583.437 473.014 583.44 425.462 582.429C375.831 581.374 322.202 580.255 314.411 580.176C299.445 580.026 256.078 561.07 237.902 553.355C219.726 545.64 221.288 504.589 225.856 463.655C228.904 436.336 217.822 394.925 243.103 375.486C262.934 360.238 270.441 343.011 281.378 330.237C297.225 282.765 319.647 222.173 345.281 214.238C363.988 208.447 384.255 207.372 437.398 206.813ZM437.401 168.688C374.637 170.095 340.431 172.78 321.284 178.707C295.65 186.642 264.105 263.424 248.258 310.896C237.322 323.67 231.542 338.975 213.308 349.872C187.168 365.469 190.277 428.401 187.229 455.72C182.661 496.654 179.147 585.263 197.323 592.978C215.499 600.693 299.445 619.354 314.411 619.504C322.202 619.583 375.828 620.541 425.458 621.442C473.013 622.305 550.115 622.302 597.671 621.434C647.3 620.529 700.927 619.566 708.717 619.487C723.683 619.335 807.628 600.667 825.802 592.951C843.978 585.234 840.457 496.626 835.885 455.692C832.835 428.373 835.941 365.441 809.797 349.846C791.562 338.951 785.781 323.646 774.843 310.873C758.992 263.402 727.441 186.624 701.806 178.691C682.658 172.765 648.452 170.083 585.687 168.681C544.745 167.77 478.343 167.773 437.401 168.688ZM789.329 274.536C781.287 277.609 785.527 297.588 787.333 305.453C783.587 305.835 773.551 306.753 769.396 307.016C770.676 312.899 774.976 318.623 777.618 323.612C802.541 320.783 832.195 314.682 840.645 313.223C851.251 311.392 855.034 301.183 853.954 295.536C852.937 290.226 850.193 281.63 844.181 278.601C826.951 269.919 795.291 272.258 789.329 274.536ZM233.802 274.536C227.84 272.258 196.18 269.919 178.95 278.601C172.938 281.63 170.194 290.226 169.177 295.536C168.097 301.183 171.88 311.392 182.486 313.223C190.936 314.682 220.59 320.783 245.513 323.612C248.155 318.623 252.455 312.899 253.735 307.016C249.58 306.753 239.544 305.835 235.798 305.453C237.604 297.588 241.844 277.609 233.802 274.536ZM454.395 530.216C408.614 530.27 360.239 528.596 347.426 530.162C321.309 533.348 318.908 570.56 314.606 581.198C362.475 589.486 412.232 587.722 461.472 586.052C489.141 585.114 534.03 585.114 561.704 586.052C610.941 587.722 660.695 589.485 708.561 581.198C704.259 570.56 701.857 533.348 675.74 530.162C662.926 528.599 614.536 530.273 568.749 530.216C537.165 530.177 485.992 530.177 454.395 530.216ZM454.368 504.716C414.041 504.02 364.802 503.059 350.664 502.312C345.723 502.051 335.005 493.156 328.131 481.25C302.631 479.115 265.935 476.269 262.627 477.938C259.319 479.607 258.772 507.808 263.766 514.907C268.761 522.006 304.683 525.813 328.462 530.547C331.2 528.507 345.732 520.858 350.928 520.837C375.324 520.737 424 520.364 461.448 520.061C489.137 519.836 534.03 519.836 561.719 520.061C599.167 520.364 647.843 520.737 672.238 520.837C677.435 520.86 691.966 528.507 694.704 530.547C718.484 525.813 754.406 522.006 759.4 514.907C764.395 507.808 763.848 479.607 760.54 477.938C757.232 476.269 720.536 479.115 695.036 481.25C688.162 493.156 677.443 502.051 672.503 502.312C658.364 503.059 609.122 504.019 568.794 504.716C537.198 505.263 485.967 505.263 454.368 504.716ZM460.87 383.714C425.819 383.617 390.902 383.706 385.21 385.334C370.759 389.472 339.135 442.826 339.518 447.797C339.898 452.767 350.75 480.494 365.645 485.229C374.449 488.028 423.899 488.329 462.868 488.108C489.774 487.955 533.393 487.955 560.299 488.108C599.268 488.329 648.718 488.028 657.522 485.229C672.417 480.494 683.269 452.767 683.649 447.797C684.029 442.826 652.407 389.472 637.957 385.334C632.265 383.704 597.346 383.617 562.296 383.714C534.288 383.791 488.878 383.791 460.87 383.714ZM831.593 452.316C830.825 458.514 835.537 513.977 835.289 537.942C835.017 563.547 831.114 569.747 838.149 565.207C851.77 556.418 847.237 437.241 844.695 428.593C842.153 419.946 838.414 414.235 833.911 414.012C829.407 413.79 833.748 434.86 831.593 452.316ZM191.538 452.316C189.382 434.86 193.725 413.79 189.22 414.012C184.717 414.235 180.978 419.946 178.436 428.593C175.894 437.241 171.361 556.418 184.982 565.207C192.017 569.747 188.112 563.547 187.842 537.942C187.594 513.977 192.304 458.514 191.538 452.316Z" fill="#262625"/>
<path d="M726.451 501.236C726.551 493.139 733.675 489.3 739.267 489.3C744.86 489.3 752.693 491.861 752.693 500.858C752.693 509.856 745.436 513.586 740.071 513.586C734.707 513.586 726.348 509.332 726.451 501.236ZM296.682 501.236C296.783 509.332 288.426 513.586 283.062 513.586C277.697 513.586 270.44 509.856 270.44 500.858C270.44 491.861 278.273 489.3 283.866 489.3C289.458 489.3 296.582 493.139 296.682 501.236ZM344.214 398.763C343.578 385.86 260.987 380.615 256.483 380.837C251.979 381.06 244.523 381.615 238.825 390.42C233.128 399.225 232.219 425.27 245.84 434.06C259.46 442.85 272.11 439.817 279.051 440.089C280.757 440.158 283.726 439.443 283.766 443.474C294.056 443.754 305.866 443.816 314.327 444.069C315.847 436.231 322.989 433.508 325.229 431.831C330.227 428.089 344.853 411.666 344.214 398.763ZM678.919 398.763C679.555 385.86 762.146 380.615 766.65 380.837C771.153 381.06 778.61 381.615 784.307 390.42C790.005 399.225 790.913 425.27 777.293 434.06C763.672 442.85 751.023 439.817 744.082 440.089C742.376 440.158 739.407 439.443 739.367 443.474C729.077 443.754 717.267 443.816 708.806 444.069C707.286 436.231 700.144 433.508 697.904 431.831C692.906 428.089 678.28 411.666 678.919 398.763Z" fill="#262625"/>
</g>
</g>
<defs>
<clipPath id="clip0_485_12576">
<rect width="1024" height="1024" fill="white"/>
</clipPath>
<clipPath id="clip1_485_12576">
<rect width="1024" height="1024" fill="white" transform="translate(0 -56)"/>
</clipPath>
</defs>
</svg>
