<svg width="1024" height="1024" viewBox="0 0 1024 1024" fill="none" xmlns="http://www.w3.org/2000/svg">
<g clip-path="url(#clip0_425_19013)">
<path d="M824.22 636.856C816.037 639.395 755.385 661.008 755.385 661.008L756.434 781.815C757.101 791.602 764.381 799.383 770.31 799.365L822.767 799.205C836.469 799.166 844.102 791.519 845.337 773.074C847.504 740.694 849.317 616.651 846.243 610.191C843.169 603.73 832.427 634.309 824.22 636.856ZM198.911 636.856C190.704 634.309 179.962 603.73 176.888 610.191C173.814 616.651 175.627 740.694 177.794 773.074C179.029 791.519 186.662 799.166 200.364 799.205L252.821 799.365C258.75 799.38 266.03 791.602 266.697 781.815L267.746 661.008C267.746 661.008 207.094 639.395 198.911 636.856ZM437.398 262.813C478.348 262.382 544.744 262.379 585.693 262.807C638.837 263.361 659.104 264.434 677.812 270.223C703.447 278.156 725.874 338.746 741.725 386.217C752.663 398.99 760.172 416.217 780.004 431.463C805.286 450.899 794.208 492.311 797.258 519.63C801.829 560.564 803.396 601.615 785.22 609.331C767.045 617.048 723.68 636.007 708.714 636.159C700.922 636.238 647.294 637.362 597.663 638.422C550.111 639.437 473.014 639.44 425.462 638.429C375.831 637.374 322.202 636.255 314.411 636.176C299.445 636.026 256.078 617.07 237.902 609.355C219.726 601.64 221.288 560.589 225.856 519.655C228.904 492.336 217.822 450.925 243.103 431.486C262.934 416.238 270.441 399.011 281.378 386.237C297.225 338.765 319.647 278.173 345.281 270.238C363.988 264.447 384.255 263.372 437.398 262.813ZM437.401 224.688C374.637 226.095 340.431 228.78 321.284 234.707C295.65 242.643 264.105 319.424 248.258 366.896C237.322 379.67 231.542 394.975 213.308 405.872C187.168 421.469 190.277 484.401 187.229 511.72C182.661 552.654 179.147 641.263 197.323 648.978C215.499 656.693 299.445 675.354 314.411 675.504C322.202 675.583 375.828 676.541 425.458 677.442C473.013 678.305 550.115 678.302 597.671 677.434C647.3 676.529 700.927 675.566 708.717 675.487C723.683 675.335 807.628 656.667 825.802 648.951C843.978 641.234 840.457 552.626 835.885 511.692C832.835 484.373 835.941 421.441 809.797 405.846C791.562 394.951 785.781 379.646 774.843 366.873C758.992 319.402 727.441 242.624 701.806 234.691C682.658 228.765 648.452 226.083 585.687 224.681C544.745 223.77 478.343 223.773 437.401 224.688ZM789.329 330.536C781.287 333.609 785.527 353.588 787.333 361.453C783.587 361.835 773.551 362.753 769.396 363.016C770.676 368.899 774.976 374.623 777.618 379.612C802.541 376.783 832.195 370.682 840.645 369.223C851.251 367.392 855.034 357.183 853.954 351.536C852.937 346.226 850.193 337.63 844.181 334.601C826.951 325.919 795.291 328.258 789.329 330.536ZM233.802 330.536C227.84 328.258 196.18 325.919 178.95 334.601C172.938 337.63 170.194 346.226 169.177 351.536C168.097 357.183 171.88 367.392 182.486 369.223C190.936 370.682 220.59 376.783 245.513 379.612C248.155 374.623 252.455 368.899 253.735 363.016C249.58 362.753 239.544 361.835 235.798 361.453C237.604 353.588 241.844 333.609 233.802 330.536ZM454.395 586.216C408.614 586.27 360.239 584.596 347.426 586.162C321.309 589.348 318.908 626.56 314.606 637.198C362.475 645.486 412.232 643.722 461.472 642.052C489.141 641.114 534.03 641.114 561.704 642.052C610.941 643.722 660.695 645.485 708.561 637.198C704.259 626.56 701.857 589.348 675.74 586.162C662.926 584.599 614.536 586.273 568.749 586.216C537.165 586.177 485.992 586.177 454.395 586.216ZM454.368 560.716C414.041 560.02 364.802 559.059 350.664 558.312C345.723 558.051 335.005 549.156 328.131 537.25C302.631 535.115 265.935 532.269 262.627 533.938C259.319 535.607 258.772 563.808 263.766 570.907C268.761 578.006 304.683 581.813 328.462 586.547C331.2 584.507 345.732 576.858 350.928 576.837C375.324 576.737 424 576.364 461.448 576.061C489.137 575.836 534.03 575.836 561.719 576.061C599.167 576.364 647.843 576.737 672.238 576.837C677.435 576.86 691.966 584.507 694.704 586.547C718.484 581.813 754.406 578.006 759.4 570.907C764.395 563.808 763.848 535.607 760.54 533.938C757.232 532.269 720.536 535.115 695.036 537.25C688.162 549.156 677.443 558.051 672.503 558.312C658.364 559.059 609.122 560.019 568.794 560.716C537.198 561.263 485.967 561.263 454.368 560.716ZM460.87 439.714C425.819 439.617 390.902 439.706 385.21 441.334C370.759 445.472 339.135 498.826 339.518 503.797C339.898 508.767 350.75 536.494 365.645 541.229C374.449 544.028 423.899 544.329 462.868 544.108C489.774 543.955 533.393 543.955 560.299 544.108C599.268 544.329 648.718 544.028 657.522 541.229C672.417 536.494 683.269 508.767 683.649 503.797C684.029 498.826 652.407 445.472 637.957 441.334C632.265 439.704 597.346 439.617 562.296 439.714C534.288 439.791 488.878 439.791 460.87 439.714ZM831.593 508.316C830.825 514.514 835.537 569.977 835.289 593.942C835.017 619.547 831.114 625.747 838.149 621.207C851.77 612.418 847.237 493.241 844.695 484.593C842.153 475.946 838.414 470.235 833.911 470.012C829.407 469.79 833.748 490.86 831.593 508.316ZM191.538 508.316C189.382 490.86 193.725 469.79 189.22 470.012C184.717 470.235 180.978 475.946 178.436 484.593C175.894 493.241 171.361 612.418 184.982 621.207C192.017 625.747 188.112 619.547 187.842 593.942C187.594 569.977 192.304 514.514 191.538 508.316Z" fill="#262625"/>
<path d="M726.451 557.236C726.551 549.139 733.675 545.3 739.267 545.3C744.86 545.3 752.693 547.861 752.693 556.858C752.693 565.856 745.436 569.586 740.071 569.586C734.707 569.586 726.348 565.332 726.451 557.236ZM296.682 557.236C296.783 565.332 288.426 569.586 283.062 569.586C277.697 569.586 270.44 565.856 270.44 556.858C270.44 547.861 278.273 545.3 283.866 545.3C289.458 545.3 296.582 549.139 296.682 557.236ZM344.214 454.763C343.578 441.86 260.987 436.615 256.483 436.837C251.979 437.06 244.523 437.615 238.825 446.42C233.128 455.225 232.219 481.27 245.84 490.06C259.46 498.85 272.11 495.817 279.051 496.089C280.757 496.158 283.726 495.443 283.766 499.474C294.056 499.754 305.866 499.816 314.327 500.069C315.847 492.231 322.989 489.508 325.229 487.831C330.227 484.089 344.853 467.666 344.214 454.763ZM678.919 454.763C679.555 441.86 762.146 436.615 766.65 436.837C771.153 437.06 778.61 437.615 784.307 446.42C790.005 455.225 790.913 481.27 777.293 490.06C763.672 498.85 751.023 495.817 744.082 496.089C742.376 496.158 739.407 495.443 739.367 499.474C729.077 499.754 717.267 499.816 708.806 500.069C707.286 492.231 700.144 489.508 697.904 487.831C692.906 484.089 678.28 467.666 678.919 454.763Z" fill="#262625"/>
</g>
<defs>
<clipPath id="clip0_425_19013">
<rect width="1024" height="1024" fill="white"/>
</clipPath>
</defs>
</svg>
