<svg width="36" height="36" viewBox="0 0 36 36" fill="none" xmlns="http://www.w3.org/2000/svg">
<g clip-path="url(#clip0_805_3159)">
<path d="M5.51336 26.803L10.575 27.2039C10.575 27.2039 10.575 28.838 10.33 28.838C8.24759 28.838 6.28765 28.838 4.97082 28.838C4.75645 28.838 4.41958 28.746 4.32771 28.5623C3.9296 27.7355 3.96022 24.3056 3.96022 24.3056L5.51336 26.803ZM31.51 24.275C31.51 24.275 31.5406 27.7049 31.1424 28.5317C31.0506 28.7154 30.7137 28.8074 30.4993 28.8074C29.1825 28.8074 27.2226 28.8074 25.1401 28.8074C24.8951 28.8074 24.8951 27.1733 24.8951 27.1733L29.9568 26.7724L31.51 24.275ZM27.841 26.5526L17.7351 26.6139L7.62915 26.5526C7.62915 26.5526 7.50666 25.2664 7.72103 24.9296C7.99664 24.562 8.63975 24.072 9.80346 24.072C11.6103 24.072 17.7045 24.072 17.7045 24.072C17.7045 24.072 23.7987 24.072 25.6055 24.072C26.7691 24.072 27.4122 24.562 27.6879 24.9296C27.9635 25.297 27.841 26.5526 27.841 26.5526ZM28.1472 28.1669C27.7547 28.1669 27.3928 28.1363 27.0559 28.1363C26.8109 28.1363 26.5909 28.1057 26.4323 28.1057H9.06848C8.88474 28.1057 8.6648 28.1057 8.44485 28.1363C8.11357 28.1669 7.74608 28.1669 7.35354 28.1669C6.71318 28.1669 5.21837 28.1502 4.40834 27.0924C3.44519 25.8148 3.64557 20.0159 4.25805 17.9529C4.80371 16.0709 6.57441 15.2554 7.90779 14.9325C8.87084 12.7976 10.0456 11.6781 10.5637 11.3383C11.6994 10.6034 14.1686 10.5449 14.7645 10.5449H20.7363C21.3573 10.5449 23.8014 10.5979 24.9371 11.3383C25.4802 11.6781 26.6299 12.7976 27.5929 14.9325C28.9264 15.2554 30.6971 16.0709 31.2427 17.9529C31.8552 20.0159 32.0611 25.7954 31.0924 27.0924C30.2824 28.1502 28.8126 28.1669 28.1472 28.1669ZM26.4267 26.4914C27.3761 26.4914 29.3053 26.7976 29.826 26.1238C30.2241 25.6032 30.3772 20.6422 29.7035 18.4066C29.1828 16.6917 26.9167 16.416 26.5186 16.3854C26.488 16.3854 26.4574 16.3548 26.4267 16.3242C26.2735 15.9261 25.2936 13.4455 24.0687 12.6799C23.5174 12.343 21.8944 12.1593 20.7306 12.1593C19.9956 12.1593 15.494 12.1593 14.759 12.1593C13.5953 12.1593 11.9722 12.343 11.421 12.6799C10.221 13.4455 9.21603 15.8954 9.06291 16.3242C9.06291 16.3548 9.03229 16.3854 8.97104 16.3854C8.57293 16.416 6.27613 16.661 5.78615 18.4066C5.14304 20.6115 5.26554 25.5726 5.66365 26.1238C6.18426 26.7976 8.08295 26.4914 9.06291 26.4914C10.7472 26.4914 24.748 26.4914 26.4267 26.4914ZM6.55605 15.4645C6.55605 15.4645 5.78984 15.1577 5.66735 15.0658C5.57547 14.974 5.45298 14.8515 5.39173 14.729C5.36111 14.6065 5.39173 14.3921 5.51423 14.2696C5.82047 14.0246 6.64731 13.8715 7.0148 13.9327C7.07605 13.9327 7.22917 14.0246 7.25979 14.0859C7.35167 14.239 7.22917 14.6371 7.25979 14.8208C7.25979 14.9127 7.50479 15.2496 7.50479 15.2496L6.55605 15.4645ZM28.9327 15.4655L27.9904 15.2496C27.9904 15.2496 28.2048 14.9127 28.2354 14.8208C28.266 14.6371 28.1435 14.239 28.2354 14.0859C28.266 14.0246 28.4191 13.9327 28.4805 13.9327C28.8479 13.8715 29.6747 14.0246 29.9809 14.2696C30.1035 14.3921 30.1341 14.6065 30.1035 14.729C30.0729 14.8515 29.9503 14.974 29.8278 15.0658C29.7054 15.1577 28.9327 15.4655 28.9327 15.4655Z" fill="black" fill-opacity="0.85"/>
<path d="M7.04747 20.3048C7.50683 20.2742 9.71176 20.4886 10.5999 20.5804C10.8448 20.611 11.5492 20.8254 11.5492 20.8254C11.5492 20.8254 10.2017 19.1105 9.58926 18.7736C9.16053 18.5286 8.18056 18.4368 7.7212 18.4368C7.50683 18.4368 7.0781 18.3755 6.86373 18.4368C6.77186 18.4674 6.55749 18.5592 6.49067 18.6511C6.33755 18.8349 6.21506 19.1411 6.15381 19.3554C6.03131 19.9985 6.03131 20.6723 6.06194 21.4379C6.09256 22.0198 6.2763 23.2754 6.42942 23.7959C6.46005 23.8878 6.55192 24.041 6.64379 24.0716C6.76629 24.1328 6.85816 24.1022 6.95003 24.041C7.01128 23.9796 7.13378 23.9184 7.10315 23.7959C7.0419 23.214 6.82754 22.081 6.82754 21.4073C6.82754 21.1623 6.76629 20.6417 6.85816 20.4579C6.86373 20.3661 6.9556 20.3355 7.04747 20.3048ZM28.6624 20.4273C28.7293 20.611 28.693 21.1317 28.693 21.3766C28.6624 22.0198 28.4481 23.1834 28.4174 23.7653C28.3868 23.8572 28.5093 23.949 28.5705 24.0104C28.6624 24.0716 28.7544 24.1328 28.8768 24.041C28.9381 24.0104 29.0606 23.8572 29.0912 23.7653C29.2443 23.2448 29.428 21.9891 29.4586 21.4073C29.4892 20.611 29.4892 19.9679 29.3668 19.3248C29.3361 19.1411 29.183 18.8042 29.0299 18.6205C28.9687 18.5592 28.7544 18.4368 28.6624 18.4061C28.4481 18.3449 28.0194 18.4061 27.8049 18.4061C27.315 18.4368 26.335 18.5286 25.9369 18.743C25.355 19.0798 23.9769 20.7948 23.9769 20.7948C23.9769 20.7948 24.6813 20.5498 24.9264 20.5498C25.8144 20.4579 28.0194 20.2742 28.4787 20.2742C28.515 20.3355 28.6318 20.3661 28.6624 20.4273Z" fill="black" fill-opacity="0.85"/>
</g>
<defs>
<clipPath id="clip0_805_3159">
<rect width="28.0206" height="21.8224" fill="white" transform="translate(3.74219 7.01562)"/>
</clipPath>
</defs>
</svg>
