<svg width="1024" height="1024" viewBox="0 0 1024 1024" fill="none" xmlns="http://www.w3.org/2000/svg">
<g clip-path="url(#clip0_315_16968)">
<path d="M201.818 691.958L330.073 702.116C330.073 702.116 330.073 743.52 323.866 743.52C271.1 743.52 221.438 743.52 188.071 743.52C182.639 743.52 174.104 741.193 171.776 736.537C161.688 715.585 162.464 628.676 162.464 628.676L201.818 691.958ZM860.536 627.901C860.536 627.901 861.312 714.809 851.224 735.76C848.896 740.416 840.361 742.744 834.929 742.744C801.562 742.744 751.9 742.744 699.134 742.744C692.926 742.744 692.926 701.34 692.926 701.34L821.181 691.183L860.536 627.901ZM767.57 685.612L511.5 687.164L255.43 685.612C255.43 685.612 252.326 653.021 257.758 644.485C264.742 635.174 281.037 622.759 310.524 622.759C356.306 622.759 510.724 622.759 510.724 622.759C510.724 622.759 665.142 622.759 710.924 622.759C740.411 622.759 756.707 635.174 763.69 644.485C770.674 653.797 767.57 685.612 767.57 685.612ZM775.329 726.518C765.383 726.518 756.214 725.742 747.677 725.742C741.47 725.742 735.896 724.967 731.876 724.967H291.9C287.244 724.967 281.672 724.967 276.099 725.742C267.704 726.518 258.392 726.518 248.446 726.518C232.22 726.518 194.344 726.094 173.819 699.293C149.414 666.917 154.491 519.981 170.011 467.708C183.837 420.022 228.704 399.355 262.49 391.174C286.893 337.079 316.66 308.713 329.786 300.103C358.564 281.482 421.131 280 436.231 280H587.545C603.28 280 665.212 281.341 693.99 300.103C707.751 308.713 736.883 337.079 761.285 391.174C795.072 399.355 839.939 420.022 853.765 467.708C869.285 519.981 874.503 666.424 849.957 699.293C829.432 726.094 792.19 726.518 775.329 726.518ZM731.734 684.06C755.79 684.06 804.675 691.819 817.867 674.749C827.955 661.557 831.834 535.85 814.762 479.204C801.571 435.749 744.15 428.766 734.062 427.99C733.287 427.99 732.51 427.214 731.734 426.438C727.854 416.351 703.023 353.496 671.984 334.098C658.017 325.562 616.891 320.906 587.404 320.906C568.78 320.906 454.713 320.906 436.089 320.906C406.602 320.906 365.477 325.562 351.509 334.098C321.105 353.496 295.639 415.574 291.759 426.438C291.759 427.214 290.984 427.99 289.431 427.99C279.344 428.766 221.146 434.974 208.73 479.204C192.435 535.073 195.539 660.781 205.626 674.749C218.818 691.819 266.928 684.06 291.759 684.06C334.437 684.06 689.197 684.06 731.734 684.06ZM228.239 404.656C228.239 404.656 208.824 396.881 205.72 394.553C203.392 392.225 200.288 389.122 198.736 386.018C197.96 382.913 198.736 377.482 201.84 374.378C209.6 368.171 230.551 364.291 239.863 365.843C241.415 365.843 245.295 368.171 246.071 369.722C248.398 373.603 245.295 383.69 246.071 388.346C246.071 390.674 252.278 399.209 252.278 399.209L228.239 404.656ZM795.234 404.68L771.356 399.209C771.356 399.209 776.788 390.674 777.563 388.346C778.34 383.69 775.237 373.603 777.563 369.722C778.34 368.171 782.219 365.843 783.772 365.843C793.084 364.291 814.034 368.171 821.794 374.378C824.899 377.482 825.674 382.913 824.899 386.018C824.122 389.122 821.018 392.225 817.915 394.553C814.81 396.881 795.234 404.68 795.234 404.68Z" fill="#262625"/>
<path d="M240.687 527.313C252.326 526.538 308.196 531.969 330.7 534.297C336.907 535.073 354.754 540.506 354.754 540.506C354.754 540.506 320.612 497.051 305.092 488.516C294.229 482.307 269.398 479.979 257.758 479.979C252.326 479.979 241.463 478.428 236.031 479.979C233.703 480.756 228.271 483.084 226.578 485.411C222.698 490.067 219.594 497.826 218.042 503.259C214.938 519.554 214.938 536.625 215.714 556.025C216.49 570.768 221.146 602.583 225.026 615.774C225.802 618.102 228.13 621.982 230.458 622.758C233.562 624.31 235.889 623.534 238.217 621.982C239.769 620.43 242.873 618.878 242.097 615.774C240.545 601.031 235.114 572.319 235.114 555.249C235.114 549.041 233.562 535.85 235.889 531.194C236.031 528.866 238.359 528.09 240.687 527.313ZM788.38 530.418C790.073 535.073 789.156 548.265 789.156 554.472C788.38 570.768 782.949 600.255 782.172 614.999C781.396 617.327 784.5 619.654 786.052 621.206C788.38 622.758 790.708 624.31 793.812 621.982C795.364 621.206 798.468 617.327 799.244 614.999C803.124 601.807 807.78 569.991 808.555 555.249C809.331 535.073 809.331 518.778 806.227 502.482C805.452 497.826 801.571 489.291 797.691 484.635C796.14 483.084 790.708 479.979 788.38 479.204C782.949 477.651 772.084 479.204 766.653 479.204C754.237 479.979 729.406 482.307 719.319 487.739C704.575 496.275 669.657 539.729 669.657 539.729C669.657 539.729 687.504 533.522 693.712 533.522C716.215 531.194 772.084 526.538 783.724 526.538C784.641 528.09 787.604 528.866 788.38 530.418Z" fill="#262625"/>
<path d="M428.898 488.022C428.898 492.748 432.213 496.062 437.08 496.062H503.46L468.259 591.295C464.027 603.709 476.44 609.844 483.987 600.112L590.647 466.435C592.692 463.613 593.468 461.567 593.468 458.746C593.468 454.021 590.154 450.706 585.287 450.706H518.906L554.107 355.473C558.973 343.06 545.926 336.924 538.379 346.657L431.861 480.335C430.308 483.156 428.898 485.201 428.898 488.022Z" fill="#262625"/>
</g>
<defs>
<clipPath id="clip0_315_16968">
<rect width="1024" height="1024" fill="white"/>
</clipPath>
</defs>
</svg>
