<svg width="1024" height="1024" viewBox="0 0 1024 1024" fill="none" xmlns="http://www.w3.org/2000/svg">
<g clip-path="url(#clip0_315_17000)">
<path d="M821.684 700.651C813.501 703.19 749.062 703.079 749.062 703.079L749.852 730.788C750.519 740.575 761.95 749.14 767.879 749.116L807.934 748.956C821.637 748.902 832.383 740.232 833.618 721.788C835.786 689.408 837.169 678.593 837.169 678.593C823.343 680.104 829.891 698.104 821.684 700.651ZM202.984 700.651C194.776 698.104 201.325 680.104 187.498 678.593C187.498 678.593 188.882 689.408 191.049 721.788C192.284 740.232 203.031 748.902 216.733 748.956L256.788 749.116C262.718 749.139 274.148 740.575 274.816 730.788L275.605 703.079C275.605 703.079 211.167 703.19 202.984 700.651ZM438.168 313.526C479.121 313.456 545.515 313.456 586.465 313.519C631.23 313.589 641.334 313.885 659.586 319.533C685.221 327.466 712.695 375.806 732.448 420.155C761.523 454.109 797.888 471.12 802.779 514.912C807.35 555.846 810.8 663.934 792.628 671.65C774.453 679.367 724.455 674.844 709.489 674.996C701.699 675.075 648.08 674.771 598.453 674.461C550.891 674.164 473.778 674.167 426.216 674.468C376.589 674.782 322.97 675.091 315.179 675.013C300.213 674.862 250.216 679.389 232.041 671.674C213.867 663.959 217.308 555.871 221.876 514.937C226.763 471.144 263.126 454.13 292.199 420.174C311.948 375.823 339.417 327.481 365.051 319.546C383.304 313.896 393.407 313.6 438.168 313.525V313.526ZM438.169 275.387C383.055 276.067 360.062 277.347 341.261 283.167C315.627 291.102 277.701 357.727 257.952 402.077C228.879 436.034 187.74 461.32 182.853 505.112C178.285 546.047 177.166 696.423 195.34 704.138C213.515 711.853 300.213 714.279 315.179 714.43C322.97 714.508 376.591 714.114 426.219 713.717C473.78 713.338 550.892 713.334 598.454 713.71C648.081 714.102 701.703 714.492 709.493 714.413C724.459 714.261 811.157 711.828 829.332 704.111C847.504 696.394 846.372 546.018 841.8 505.084C836.91 461.292 795.768 436.009 766.693 402.055C746.94 357.707 709.009 291.085 683.374 283.153C664.571 277.334 641.578 276.056 586.463 275.381C545.515 274.871 479.118 274.873 438.169 275.387ZM774.255 369.646C770.071 370.34 772.188 384.345 772.193 392.331C768.448 392.714 761.928 393.094 757.772 393.356C759.053 399.24 765.572 402.799 768.214 407.787C789.367 405.97 807.53 408.63 816.157 405.892C829.418 401.684 825.123 388.691 824.65 379.503C824.177 370.316 778.438 368.951 774.255 369.646ZM250.413 369.646C246.229 368.951 200.489 370.316 200.017 379.503C199.544 388.691 195.25 401.684 208.51 405.892C217.138 408.63 235.301 405.97 256.454 407.787C259.096 402.799 265.615 399.24 266.895 393.356C262.74 393.094 256.22 392.714 252.475 392.331C252.48 384.345 254.597 370.34 250.413 369.646ZM455.192 650.171C441.64 649.299 429.314 648.227 423.085 646.981C403.331 643.03 394.766 613.613 388.647 612.818C363.712 609.58 257.744 591.823 249.666 594.024C241.588 596.224 230.632 636.883 232.786 641.777C234.94 646.67 251.635 650.006 264.57 651.449C277.505 652.892 338.373 656.77 351.056 657.056C358.832 657.232 417.778 658.498 462.225 659.451C489.909 660.045 534.794 660.045 562.478 659.451C606.926 658.498 665.872 657.232 673.648 657.056C686.331 656.77 747.199 652.892 760.134 651.449C773.068 650.006 789.764 646.67 791.917 641.777C794.071 636.883 783.115 596.224 775.037 594.024C766.959 591.823 660.991 609.58 636.057 612.818C629.938 613.613 621.372 643.03 601.618 646.981C595.387 648.227 583.057 649.3 569.501 650.172C537.97 652.201 486.728 652.201 455.192 650.171ZM463.647 504.037C422.406 502.593 376.882 500.449 370.896 502.163C356.446 506.301 394.575 548.964 394.958 553.935C395.338 558.905 453.924 575.072 467.57 578.808C476.788 581.332 494.068 584.105 504.314 585.639C508.75 586.303 515.962 586.302 520.408 585.636C530.655 584.101 547.921 581.331 557.133 578.808C570.779 575.072 629.365 558.905 629.745 553.935C630.126 548.964 668.257 506.301 653.807 502.163C647.821 500.449 602.296 502.593 561.053 504.037C534.166 504.978 490.537 504.978 463.647 504.037Z" fill="#262625"/>
<path d="M343.51 506.01C343.51 506.01 300.063 499.564 271.274 493.053C253.705 489.08 249.284 487.463 241.02 481.314C237.997 486.093 232.675 497.746 232.6 505.434C232.507 515.379 243.668 530.167 246.877 527.162C257.544 517.171 277.343 523.008 295.848 526.151C328.727 531.735 362.075 534.307 362.075 534.307C355.652 523.832 349.132 514.525 343.51 506.01ZM681.157 506.01C681.157 506.01 724.605 499.564 753.394 493.053C770.963 489.08 775.384 487.463 783.648 481.314C786.67 486.093 791.993 497.746 792.068 505.434C792.161 515.379 781 530.167 777.791 527.162C767.124 517.171 747.325 523.008 728.819 526.151C695.94 531.735 662.592 534.307 662.592 534.307C669.015 523.832 675.536 514.525 681.157 506.01Z" fill="#262625"/>
</g>
<defs>
<clipPath id="clip0_315_17000">
<rect width="1024" height="1024" fill="white"/>
</clipPath>
</defs>
</svg>
