<svg width="36" height="36" viewBox="0 0 36 36" fill="none" xmlns="http://www.w3.org/2000/svg">
<g clip-path="url(#clip0_105_5106)">
<path d="M30.5312 26.8917C30.2082 26.992 27.6646 26.9876 27.6646 26.9876L27.6957 28.0814C27.7221 28.4678 28.1733 28.8058 28.4073 28.8048L29.9884 28.7985C30.5294 28.7964 30.9536 28.4542 31.0023 27.726C31.0879 26.4479 31.1425 26.021 31.1425 26.021C30.5967 26.0807 30.8552 26.7912 30.5312 26.8917ZM6.10884 26.8917C5.78487 26.7912 6.04337 26.0807 5.49759 26.021C5.49759 26.021 5.55219 26.4479 5.63776 27.726C5.68651 28.4542 6.11071 28.7964 6.6516 28.7985L8.23272 28.8048C8.46678 28.8058 8.91799 28.4678 8.94433 28.0814L8.97549 26.9876C8.97549 26.9876 6.43186 26.992 6.10884 26.8917ZM15.3924 11.6105C17.009 11.6077 19.6298 11.6077 21.2463 11.6102C23.0133 11.613 23.4121 11.6246 24.1327 11.8476C25.1445 12.1608 26.2291 14.0689 27.0087 15.8195C28.1565 17.1598 29.592 17.8313 29.7849 19.5599C29.9654 21.1757 30.1016 25.4423 29.3842 25.747C28.6669 26.0516 26.6932 25.873 26.1025 25.879C25.795 25.8821 23.6785 25.8701 21.7195 25.8579C19.8421 25.8462 16.7981 25.8464 14.9207 25.8582C12.9617 25.8706 10.8452 25.8828 10.5376 25.8797C9.94686 25.8737 7.97329 26.0525 7.25583 25.748C6.53847 25.4434 6.67429 21.1768 6.8546 19.5609C7.0475 17.8323 8.4829 17.1607 9.63051 15.8203C10.4101 14.0696 11.4944 12.1613 12.5063 11.8481C13.2267 11.6251 13.6256 11.6134 15.3924 11.6105ZM15.3925 10.105C13.2169 10.1318 12.3093 10.1824 11.5672 10.4121C10.5553 10.7253 9.05821 13.3553 8.27865 15.1059C7.13104 16.4463 5.50713 17.4445 5.31423 19.1732C5.13392 20.789 5.08974 26.7249 5.80711 27.0294C6.52456 27.3339 9.94686 27.4296 10.5376 27.4356C10.8452 27.4388 12.9618 27.4232 14.9208 27.4076C16.7982 27.3926 19.8421 27.3923 21.7195 27.4072C23.6785 27.4227 25.7952 27.438 26.1026 27.4349C26.6934 27.4289 30.1156 27.3329 30.8331 27.0284C31.5505 26.7237 31.5057 20.7878 31.3254 19.172C31.1323 17.4433 29.5082 16.4454 28.3605 15.1051C27.5808 13.3545 26.0835 10.7247 25.0716 10.4115C24.3294 10.1819 23.4218 10.1314 21.2462 10.1047C19.6298 10.0846 17.0089 10.0847 15.3925 10.105ZM28.659 13.8257C28.4938 13.8531 28.5775 14.406 28.5776 14.7212C28.4298 14.7363 28.1725 14.7513 28.0084 14.7617C28.059 14.9939 28.3162 15.1344 28.4205 15.3313C29.2556 15.2596 29.9725 15.3646 30.313 15.2565C30.8365 15.0904 30.667 14.5775 30.6483 14.2148C30.6296 13.8522 28.8242 13.7983 28.659 13.8257ZM7.98106 13.8257C7.81591 13.7983 6.01038 13.8522 5.99176 14.2148C5.97308 14.5775 5.80358 15.0904 6.327 15.2565C6.66757 15.3646 7.38454 15.2596 8.2195 15.3313C8.32381 15.1344 8.58115 14.9939 8.63167 14.7617C8.46765 14.7513 8.21029 14.7363 8.06244 14.7212C8.06265 14.406 8.14622 13.8531 7.98106 13.8257ZM16.0644 24.8991C15.5295 24.8646 15.0429 24.8224 14.7971 24.7732C14.0173 24.6172 13.6792 23.4561 13.4377 23.4246C12.4534 23.2968 8.27044 22.5959 7.95158 22.6828C7.63273 22.7697 7.20025 24.3746 7.28527 24.5678C7.37028 24.761 8.0293 24.8926 8.53987 24.9496C9.05047 25.0065 11.4532 25.1596 11.9538 25.1709C12.2607 25.1778 14.5876 25.2278 16.3421 25.2654C17.4349 25.2888 19.2067 25.2888 20.2994 25.2654C22.0539 25.2278 24.3807 25.1778 24.6877 25.1709C25.1883 25.1596 27.5911 25.0065 28.1017 24.9496C28.6122 24.8926 29.2712 24.761 29.3563 24.5678C29.4412 24.3746 29.0088 22.7697 28.6899 22.6828C28.3711 22.5959 24.1881 23.2968 23.2039 23.4246C22.9623 23.4561 22.6242 24.6172 21.8444 24.7732C21.5985 24.8224 21.1118 24.8648 20.5766 24.8991C19.332 24.9792 17.3092 24.9792 16.0644 24.8991ZM16.3982 19.1307C14.7703 19.0737 12.9733 18.989 12.737 19.0566C12.1666 19.2201 13.6717 20.9042 13.6868 21.1002C13.7018 21.2964 16.0144 21.9347 16.5531 22.0822C16.9169 22.1818 17.599 22.2912 18.0034 22.3517C18.1785 22.378 18.4633 22.378 18.6387 22.3517C19.0432 22.2911 19.7248 22.1817 20.0884 22.0822C20.6271 21.9347 22.9398 21.2964 22.9548 21.1002C22.9698 20.9042 24.4749 19.2201 23.9046 19.0566C23.6682 18.989 21.8712 19.0737 20.2431 19.1307C19.1818 19.1678 17.4596 19.1678 16.3982 19.1307Z" fill="#262625"/>
<path d="M11.656 19.2086C11.656 19.2086 9.94092 18.9541 8.80452 18.6972C8.11102 18.5403 7.93649 18.4765 7.61028 18.2338C7.49096 18.4224 7.28086 18.8824 7.27792 19.1858C7.27424 19.5785 7.7148 20.1622 7.84146 20.0436C8.26254 19.6492 9.0441 19.8796 9.77458 20.0036C11.0724 20.2241 12.3888 20.3256 12.3888 20.3256C12.1353 19.9121 11.8779 19.5448 11.656 19.2086ZM24.9841 19.2086C24.9841 19.2086 26.6991 18.9541 27.8355 18.6972C28.5291 18.5403 28.7036 18.4765 29.0298 18.2338C29.1492 18.4224 29.3593 18.8824 29.3622 19.1858C29.3659 19.5785 28.9252 20.1622 28.7986 20.0436C28.3776 19.6492 27.596 19.8796 26.8656 20.0036C25.5676 20.2241 24.2512 20.3256 24.2512 20.3256C24.5048 19.9121 24.7622 19.5448 24.9841 19.2086Z" fill="#262625"/>
</g>
<defs>
<clipPath id="clip0_105_5106">
<rect width="26.2368" height="21.8048" fill="white" transform="translate(5.2016 7)"/>
</clipPath>
</defs>
</svg>
