<svg width="1024" height="1024" viewBox="0 0 1024 1024" fill="none" xmlns="http://www.w3.org/2000/svg">
<g clip-path="url(#clip0_1049_53256)">
<g clip-path="url(#clip1_1049_53256)">
<path d="M360.75 694.317L371.406 694.57L371.409 694.931L371.057 707.071C371.057 707.071 371.057 714.701 365.681 715.222C360.305 715.742 316.601 714.528 300.993 714.701C285.384 714.875 131.207 707.937 122.709 707.591C114.211 707.244 82.8203 706.897 84.0343 704.642C85.2482 702.388 88.7171 700.653 93.5729 700.133C98.4287 699.613 124.096 698.746 146.642 699.266C169.188 699.786 360.651 698.573 360.651 698.573L360.749 694.137L360.75 694.317ZM159.99 676.373L360.663 676.703L360.733 690.942L324.227 691.115C324.227 691.115 272.025 689.207 250.173 688.34C228.32 687.473 150.278 684.004 139.525 683.31C128.773 682.617 120.275 681.056 120.275 681.056C120.275 681.056 117.154 679.148 124.958 677.414C132.762 675.68 159.99 676.373 159.99 676.373Z" fill="#262625"/>
<path d="M470.818 742.784C448.399 742.784 428.772 730.831 418.023 712.909L524.64 711.217C514.101 730.063 493.945 742.784 470.818 742.784ZM845.019 698.579L849.321 705.351C844.243 726.83 824.939 742.784 801.909 742.784C776.644 742.784 755.862 723.583 753.363 698.976L753.111 693.987L753.32 689.845L845.019 698.579Z" fill="#262625"/>
<path d="M933.312 679.523C933.312 679.523 909.441 694.895 904.198 697.969C898.953 701.043 870.561 723.829 870.561 723.829L859.349 722.201L859.17 711.018L852.503 710.36L845.019 698.579L747.872 689.326C750.579 677.746 755.994 664.189 766.817 656.403C788.424 640.878 808.401 643.794 815.741 643.794C823.082 643.794 903.697 643.636 903.697 643.636L934.034 631.239C934.034 631.239 934.071 631.225 934.143 631.197C933.952 651.062 933.312 679.523 933.312 679.523ZM414.539 172.005V178.045H456.767L470.843 186.584L471.347 195.13H462.298L463.304 249.925L465.314 251.433L465.819 258.471L451.743 261.487L451.239 273.552L447.72 274.557L449.731 420.845L451.239 503.288H458.276L459.784 522.894L452.747 533.954L453.753 555.067L457.631 554.883C465.205 519.352 475.494 470.886 475.777 468.489C476.225 464.683 478.91 465.355 478.91 465.355L489.879 461.549C489.879 461.549 505.772 397.977 506.891 392.605C508.01 387.233 530.417 317.177 530.417 317.177L526.104 314.613L527.037 312.399L524.24 311L540.091 269.275L542.771 271.023L543.469 268.809C543.469 268.809 537.991 267.993 536.593 267.993C535.194 267.993 534.261 264.613 534.261 264.613L534.378 262.631C534.378 262.631 527.384 262.165 523.305 262.165C519.226 262.165 519.342 257.503 519.342 257.503C519.342 257.503 519.459 225.801 519.342 222.654C519.226 219.508 523.888 218.575 523.888 218.575C523.888 218.575 536.942 218.575 540.438 218.459C543.936 218.342 544.401 221.256 544.401 221.256L547.081 227.666C547.081 227.666 549.646 226.617 552.093 227.433C554.542 228.249 555.24 230.346 555.24 230.346L560.019 238.388L572.373 217.992L570.858 194.682L572.955 192.701L706.989 184.309L710.602 187.456L770.205 183.139L786.49 181.867C786.49 181.867 789.542 179.577 792.342 178.56C795.14 177.542 810.406 178.305 812.442 178.56C814.477 178.814 815.239 182.885 815.495 186.956C815.749 191.027 815.24 195.861 812.696 197.897C810.152 199.932 805.572 197.642 805.572 197.642L802.519 200.441C802.519 200.441 816.004 280.588 819.821 299.925C821.136 306.59 822.677 333.159 824.133 365.124C828.036 362.892 839.295 360.68 848.187 360.157C857.831 359.59 865.772 363.702 865.772 363.702C865.772 363.702 873.571 357.605 875.414 356.896C877.258 356.186 878.818 357.179 878.818 357.179C878.818 357.179 893.282 377.883 894.558 380.01C895.834 382.137 898.389 395.892 898.529 397.594C898.671 399.295 895.409 401.139 895.409 401.139L895.27 417.588C895.27 417.588 895.13 436.449 895.27 437.867C895.412 439.285 893.003 440.986 893.142 442.83C893.284 444.673 891.299 444.91 891.299 444.91L891.159 447.368L888.324 446.517L888.471 453.567C888.471 453.567 902.229 454.279 910.293 454.12C918.358 453.962 927.442 459.479 930.584 463.859C933.726 468.238 934.674 491.087 934.868 494.419C935.062 497.751 934.868 498.513 934.395 499.941C933.919 501.369 925.827 503.368 925.827 503.368C925.827 503.368 924.589 509.842 924.589 512.222C924.589 514.602 928.775 540.688 929.349 543.83C929.92 546.972 936.751 543.094 936.674 548.242C936.673 548.313 936.668 548.382 936.647 548.442C936.627 548.384 936.604 548.329 936.58 548.275C936.008 546.985 928.236 550.176 922.343 549.029C921.942 548.933 921.554 548.837 921.186 548.742C920.095 548.4 919.099 547.871 918.264 547.091C915.439 544.452 904.899 495.655 901.969 484.962C901.578 483.537 901.239 481.034 900.06 478.703C899.65 477.575 898.909 476.457 897.605 475.532C895.995 474.176 893.705 473.241 890.396 473.207C880.304 473.105 850.686 472.455 828.301 472.455L828.319 473.473H828.296L828.344 474.881L828.883 505.599L790.992 508.562L672.952 573.684L468.74 590.868C464.798 591.146 461.386 591.384 458.585 591.58L458.563 591.725L449.364 592.499L445.782 607.944C445.782 607.944 443.096 610.406 447.573 611.302C452.05 612.197 473.091 614.66 481.821 616.226C490.551 617.793 511.593 626.747 519.204 637.492C526.814 648.236 536.216 659.652 537.111 673.755C537.873 685.769 538.44 705.475 538.59 710.996L417.554 712.917H386.89L387.394 687.782L381.864 686.776V694.819L360.75 694.317L359.242 390.682L361.253 381.131L384.377 381.634L382.367 171L414.539 172.005ZM622.396 220.358C599.794 223.322 589.587 242.129 585.962 249.629C582.337 257.128 562.297 311.611 562.297 311.611L576.823 334.477L571.719 353.125L599.01 368.281L609.928 375.072L611.288 373.015C611.288 373.015 609.235 369.302 611.286 367.13C613.336 364.957 616.444 366.399 618.531 367.95C620.616 369.5 623.624 372.939 622.028 374.493C618.455 377.97 616.47 375.605 616.47 375.605L614.617 377.828L633.88 391.418C633.88 391.418 637.589 393.76 636.478 397.095C635.366 400.429 631.66 398.577 631.66 398.577L615.729 389.684L611.941 395.483L607.577 394.13L604.613 396.724C604.613 396.724 606.006 397.914 606.419 398.868C606.833 399.822 607.307 400.621 606.833 402.282C606.358 403.943 597.932 419.273 596.458 420.437C594.985 421.601 587.222 422.038 587.222 422.038L572.209 446.754C572.209 446.754 564.052 457.639 563.853 459.712C563.654 461.785 566.625 467.962 565.437 470.79C564.249 473.618 545.358 502.779 545.358 502.779C545.358 502.779 542.028 501.965 539.432 503.164C536.835 504.362 532.934 508.743 531.618 511.214C531.48 512.726 536.532 515.574 538.582 516.985C540.174 518.08 541.758 517.448 542.744 516.737C543.73 516.029 544.258 515.459 544.258 514.772C544.258 513.885 542.686 514.111 542.548 513.601C542.41 513.09 543.514 510.632 544.315 510.685C545.117 510.739 553.82 514.812 554.478 515.479C555.137 516.146 554.225 517.927 553.651 517.957C553.077 517.988 549.71 516.924 549.71 516.924C549.71 516.924 549.633 517.733 549.166 518.604C555.554 519.991 560.871 526.36 560.718 527.011C560.412 528.271 559.617 530.249 558.389 530.019C557.162 529.79 552.673 524.474 550.931 524.726C550.154 524.839 550.337 525.807 549.947 526.198C549.488 526.657 555.843 531.464 555.43 531.951C553.747 533.95 553.38 536.735 553.38 536.735L564.064 551.341L622.762 550.444C622.762 550.444 630.131 520.341 635.359 505.286C639.166 494.323 649.15 488.517 657.586 482.969C658.095 483.149 658.613 483.268 659.134 483.315L659.901 483.354C670.507 483.718 762.54 482.653 764.618 482.258C765.521 482.086 766.57 476.691 767.65 470.467C779.645 470.08 787.641 469.904 787.641 469.904C787.647 469.919 788.001 417.103 786.632 371.623C789.289 360.578 791.43 351.335 791.43 349.62C791.43 344.961 787.937 341.7 787.937 341.7C787.937 341.7 786.839 340.561 785.217 339.197C784.671 330.496 784.005 323 783.196 317.434C777.965 281.465 765.994 211.191 765.994 211.191L766 211.191C766 211.191 644.998 217.394 622.396 220.358ZM540.097 541.652L554.454 546.908L543.686 534.73L540.097 541.652ZM528.945 537.166L538.943 540.819L541.378 535.499C541.378 535.499 539.071 533.705 537.148 533.192C535.226 532.679 529.073 532.679 529.073 532.679L528.945 537.166ZM573.297 374.318C571.771 374.862 568.939 376.279 567.959 377.695C566.978 379.111 561.421 388.153 561.421 388.153L557.282 402.207C557.282 402.207 556.083 404.277 554.122 405.149C552.161 406.02 549.329 407.327 549.329 407.327L530.264 438.921L533.532 439.574C533.532 439.574 551.835 414.408 555.975 409.942C560.114 405.475 578.962 385.756 578.962 385.756L580.051 385.975L583.319 384.232L585.957 380.31L584.082 378.893C584.082 378.893 584.672 376.714 585.957 375.298C587.241 373.882 588.33 373.337 588.33 373.337L585.39 370.723C585.39 370.723 574.822 373.773 573.297 374.318ZM566.651 371.703C566.651 371.703 570.573 369.088 572.861 367.999L573.296 367.797C575.505 366.804 578.09 366.038 578.09 366.038L569.483 359.937L566.651 371.703Z" fill="#262625"/>
<path d="M890.397 473.207C900.489 473.31 901.102 481.797 901.97 484.962C904.9 495.655 915.44 544.452 918.265 547.091C923.681 552.151 935.859 546.647 936.581 548.275C937.31 549.902 937.108 552.393 937.108 552.393C937.108 552.393 939.46 623.824 939.46 626.537C939.46 629.25 934.035 631.239 934.035 631.239L903.698 643.636C903.698 643.636 823.083 643.794 815.742 643.794C808.402 643.794 788.425 640.878 766.818 656.403C745.238 671.927 745.16 710.396 745.16 710.396L538.642 712.558L538.632 712.559C538.632 712.559 538.007 687.857 537.112 673.755C536.217 659.652 526.815 648.236 519.205 637.492C511.594 626.747 490.552 617.793 481.822 616.226C473.092 614.66 452.051 612.197 447.574 611.302C443.097 610.406 445.783 607.944 445.783 607.944L449.365 592.499L672.953 573.684L790.993 508.562L828.884 505.599L828.302 472.455C850.687 472.455 880.305 473.105 890.397 473.207Z" fill="#262625"/>
<path d="M659.132 483.315C653.791 482.842 648.915 474.706 647.72 474.231C646.525 473.755 639.567 475.803 637.936 472.455C636.307 469.107 633.977 457.694 633.977 454.2C633.977 450.706 637.471 441.958 644.925 441.958C652.377 441.958 654.586 443.031 660.875 443.031C667.164 443.031 675.424 441.156 683.822 440.691C692.219 440.224 736.927 438.827 736.927 438.827C736.927 438.827 732.418 435.693 731.498 425.351C730.474 413.826 733.019 413.336 730.689 406.582C728.359 399.827 725.047 392.477 725.047 384.092C725.047 375.707 732.5 364.061 739.721 360.567C746.941 357.073 748.593 359.41 754.678 353.707C760.887 347.888 771.397 337.974 771.397 337.974C771.397 337.974 772.562 334.014 777.22 334.713C781.879 335.412 787.935 341.7 787.935 341.7C787.935 341.7 791.428 344.961 791.428 349.62C791.428 353.672 779.482 399.715 777.048 412.22C776.68 414.092 779.359 411.96 779.068 417.406C778.777 422.852 777.214 443.637 776.376 447.27C775.536 450.903 774.202 451.12 771.967 451.547C769.732 451.975 766.76 481.85 764.616 482.258C762.471 482.666 664.473 483.787 659.132 483.315Z" fill="#262625"/>
<path d="M802.477 204.2L807.996 205.542C808.78 205.733 809.366 206.387 809.47 207.187L811.306 221.26C811.422 222.152 810.862 222.992 809.995 223.229L805.427 224.475L802.477 204.2Z" fill="#262625"/>
<path d="M524.372 311.612L516.143 304.167C514.756 302.912 514.286 300.932 514.961 299.187L526.312 269.847C526.797 268.594 528.051 267.811 529.39 267.926L540.452 268.878L524.372 311.612Z" fill="#262625"/>
</g>
</g>
<defs>
<clipPath id="clip0_1049_53256">
<rect width="1024" height="1024" fill="white"/>
</clipPath>
<clipPath id="clip1_1049_53256">
<rect width="1024" height="1024" fill="white" transform="translate(0 -55)"/>
</clipPath>
</defs>
</svg>
