<svg width="1024" height="1024" viewBox="0 0 1024 1024" fill="none" xmlns="http://www.w3.org/2000/svg">
<g clip-path="url(#clip0_655_28493)">
<g clip-path="url(#clip1_655_28493)">
<path d="M833.444 681.348C825.26 683.888 765.349 697.687 765.349 697.687L766.397 725.396C767.065 735.184 774.344 742.965 780.274 742.946L831.99 742.786C845.693 742.748 853.325 735.1 854.56 716.656C856.728 684.276 854.56 588.256 854.56 588.256C845.666 586.807 841.651 678.801 833.444 681.348ZM168.743 588.256C168.743 588.256 166.575 684.276 168.743 716.656C169.978 735.1 177.61 742.748 191.312 742.786L243.029 742.946C248.959 742.962 256.238 735.184 256.906 725.396L257.954 697.687C257.954 697.687 198.043 683.888 189.859 681.348C181.652 678.801 177.637 586.807 168.743 588.256ZM669.099 244.902C698.643 247.883 736.865 337.504 756.618 381.852C773.275 412.332 822.552 434.381 819.014 478.304C816.12 514.236 822.681 601.369 802.112 638.559C787.962 664.142 722.985 663.612 701.942 663.614C686.931 663.615 596.483 664.446 545.882 664.922C526.987 665.1 496.352 665.102 477.457 664.926C426.848 664.454 336.375 663.63 321.361 663.63C300.319 663.63 235.341 664.166 221.19 638.585C200.618 601.396 207.171 514.262 204.273 478.33C200.732 434.408 250.007 412.355 266.661 381.873C286.41 337.523 324.624 247.899 354.168 244.916C383.712 241.933 399.565 240.947 511.634 239.915C623.702 240.937 639.555 241.921 669.099 244.902ZM511.632 201.488C399.564 202.521 363.603 205.898 334.059 208.881C304.516 211.864 251.847 319.446 232.098 363.796C215.445 394.278 163.631 420.319 167.173 464.241C170.071 500.173 162.441 639.953 183.013 677.141C197.165 702.723 259.778 702.187 280.82 702.187C296.496 702.187 417.127 703.085 477.458 703.542C496.353 703.686 526.988 703.685 545.884 703.539C606.207 703.076 726.813 702.168 742.487 702.167C763.53 702.165 826.142 702.696 840.291 677.113C860.86 639.923 853.219 500.144 856.113 464.211C859.651 420.289 807.835 394.252 791.18 363.772C771.427 319.423 718.749 211.846 689.204 208.865C659.661 205.885 623.699 202.511 511.632 201.488ZM794.265 316.143C792.448 319.994 793.374 337.079 793.378 344.493C789.633 344.876 783.539 344.668 779.384 344.93C780.664 350.814 779.981 351.404 782.626 356.393C786.292 356.242 795.746 356.306 799.018 355.936C801.42 355.664 799.608 358.495 802.501 358.394C808.393 358.19 829.907 357.479 835.429 356.533C840.575 355.651 856.705 340.411 854.625 335.052C846.122 313.149 796.083 312.292 794.265 316.143ZM229.038 316.144C227.22 312.293 177.181 313.149 168.678 335.052C166.598 340.411 182.728 355.651 187.874 356.533C193.396 357.479 214.91 358.19 220.802 358.394C223.694 358.495 221.883 355.664 224.284 355.936C227.557 356.306 237.011 356.242 240.676 356.393C243.319 351.404 242.639 350.814 243.919 344.93C239.764 344.668 233.67 344.876 229.924 344.493C229.929 337.079 230.855 319.995 229.038 316.144ZM454.482 591.445C414.279 590.478 363.574 590.209 339.75 593.935C297.025 600.615 242.222 615.176 234.507 613.803C226.791 612.429 211.847 604.417 207.425 601.717C212.604 620.419 221.014 650.644 223.441 652.328C232.672 658.734 271.893 666.867 287.053 666.996C298.804 667.096 393.146 667.8 461.533 668.266C489.222 668.454 534.117 668.454 561.806 668.266C630.193 667.8 724.535 667.097 736.285 666.996C751.446 666.867 790.666 658.734 799.897 652.328C802.324 650.644 810.735 620.419 815.914 601.717C811.491 604.417 796.548 612.429 788.832 613.803C781.117 615.176 726.314 600.615 683.588 593.935C659.765 590.209 609.058 590.478 568.855 591.445C537.262 592.204 486.075 592.204 454.482 591.445ZM293.014 551.551C293.704 547.954 284.931 510.652 278.001 509.114C270.26 507.395 236.117 514.531 231.72 516.252C223.614 522.933 218.959 577.85 221.778 605.25C234.167 589.404 286.384 566.081 293.014 551.551ZM730.289 551.551C729.598 547.954 738.372 510.652 745.302 509.114C753.043 507.395 787.186 514.531 791.582 516.252C799.689 522.933 804.344 577.85 801.525 605.25C789.135 589.404 736.919 566.081 730.289 551.551ZM460.956 463.531C413.867 463.477 357.543 463.306 347.955 463.215C334.296 463.086 241.129 451.408 228.392 447.347C214.563 479.242 291.59 492.744 306.484 500.275C312.315 503.223 352.997 553.908 364.301 556.022C371.072 557.288 422.675 558.213 462.971 558.751C489.865 559.11 533.481 559.11 560.385 558.751C600.679 558.213 652.267 557.288 659.038 556.022C670.341 553.908 711.024 503.223 716.854 500.275C731.749 492.744 808.776 479.242 794.946 447.347C782.21 451.408 689.043 463.086 675.383 463.215C665.796 463.306 609.472 463.478 562.383 463.531C534.375 463.562 488.964 463.562 460.956 463.531ZM675.869 212.35C682.295 212.35 693.2 214.048 691.12 208.689C682.618 186.786 651.913 201.683 643.195 205.432C634.477 209.181 667.294 212.35 675.869 212.35ZM380.108 205.432C371.39 201.683 340.685 186.786 332.183 208.689C330.102 214.048 341.008 212.35 347.434 212.35C356.009 212.35 388.826 209.181 380.108 205.432Z" fill="#262625"/>
<path d="M735.056 464.24C735.056 464.24 758.894 459.874 778.21 456.03C778.21 462.359 777.322 466.142 731.359 480.816C732.827 474.224 733.749 470.754 735.056 464.24ZM291.946 480.816C245.983 466.142 245.095 462.359 245.095 456.03C264.411 459.874 288.248 464.24 288.248 464.24C289.556 470.754 290.478 474.224 291.946 480.816ZM779.857 577.851C778.738 552.559 778.225 540.005 777.206 518.991C772.81 517.271 756.467 511.681 748.726 513.399C741.796 514.938 732.979 545.901 733.669 549.498C740.299 564.028 764.632 570.825 779.857 577.851ZM243.448 577.851C244.567 552.559 245.08 540.005 246.099 518.991C250.495 517.271 266.838 511.681 274.579 513.399C281.509 514.938 290.326 545.901 289.636 549.498C283.006 564.028 258.673 570.825 243.448 577.851ZM677.736 470.462C677.736 470.462 710.178 466.493 730.288 464.767C730.42 471.493 719.472 476.468 673.377 486.111C674.844 479.519 676.429 476.976 677.736 470.462ZM349.928 486.111C303.833 476.468 292.885 471.493 293.017 464.767C313.127 466.493 345.569 470.462 345.569 470.462C346.876 476.976 348.46 479.519 349.928 486.111ZM671.249 491.642C671.249 491.642 703.161 488.6 723.272 486.875C723.404 493.601 702.792 499.237 666.89 507.292C668.358 500.7 669.942 498.157 671.249 491.642ZM356.415 507.292C320.513 499.237 299.901 493.601 300.033 486.875C320.143 488.6 352.056 491.642 352.056 491.642C353.363 498.157 354.947 500.7 356.415 507.292ZM664.895 512.294C664.895 512.294 680.128 510.84 700.238 509.115C700.502 513.075 668.109 525.448 660.536 527.943C662.004 521.351 663.588 518.808 664.895 512.294ZM362.769 527.943C355.196 525.448 322.803 513.075 323.067 509.115C343.177 510.84 358.409 512.294 358.409 512.294C359.717 518.808 361.301 521.351 362.769 527.943ZM249.525 474.039C225.654 464.767 230.051 456.26 230.051 449.931C232.978 451.409 236.589 453.24 242.363 456.03C242.363 465.635 257.542 470.244 261.685 472.236C256.575 473.077 254.834 473.41 249.525 474.039Z" fill="#262625"/>
</g>
</g>
<defs>
<clipPath id="clip0_655_28493">
<rect width="1024" height="1024" fill="white"/>
</clipPath>
<clipPath id="clip1_655_28493">
<rect width="1024" height="1024" fill="white" transform="translate(0 -42)"/>
</clipPath>
</defs>
</svg>
