<svg width="1024" height="1024" viewBox="0 0 1024 1024" fill="none" xmlns="http://www.w3.org/2000/svg">
<g clip-path="url(#clip0_528_9904)">
<g clip-path="url(#clip1_528_9904)">
<path d="M815.155 696.075C806.919 698.386 752.17 698.11 752.17 698.11L753.219 725.819C753.886 735.607 764.204 743.391 770.133 743.369L813.702 743.209C827.404 743.163 835.036 735.523 836.272 717.079C838.439 684.699 838.984 607.421 838.984 607.421C825.157 608.932 824.669 693.566 815.155 696.075ZM209.13 696.075C199.615 693.566 199.127 608.932 185.301 607.421C185.301 607.421 185.844 684.699 188.013 717.079C189.248 735.523 196.88 743.163 210.583 743.209L254.151 743.369C260.081 743.392 270.398 735.607 271.065 725.819L272.114 698.11C272.114 698.11 217.365 698.386 209.13 696.075ZM437.98 245.884C478.923 244.994 545.326 244.991 586.268 245.877C634.517 246.921 648.623 248.904 667.074 254.614C692.709 262.547 723.741 352.155 752.387 392.438C757.634 396.738 766.115 405.513 771.89 411.887C787.488 429.1 798.557 448.619 801.57 481.504C805.329 522.521 810.167 650.767 791.991 658.483C773.816 666.2 724.264 663.288 709.298 663.44C701.508 663.519 647.888 663.215 598.262 662.904C550.699 662.607 473.586 662.611 426.024 662.912C376.398 663.226 322.778 663.535 314.988 663.457C300.022 663.306 250.47 666.223 232.294 658.507C214.118 650.792 218.945 522.546 222.7 481.529C225.71 448.643 236.777 429.123 252.373 411.909C258.147 405.535 266.628 396.759 271.875 392.458C300.517 352.173 331.541 262.562 357.175 254.627C375.626 248.916 389.731 246.932 437.98 245.884ZM437.996 208.733C382.474 211.168 358.859 215.605 339.479 220.203C313.084 226.465 275.552 322.459 246.91 362.744C241.663 367.045 233.182 375.821 227.408 382.195C211.812 399.41 191.116 429.803 186.092 462.442C182.654 484.783 178.269 687.052 196.445 694.767C214.621 702.482 258.799 704.313 273.765 704.463C282.388 704.55 361.075 704.13 426.026 703.756C473.588 703.479 550.701 703.476 598.263 703.749C663.214 704.116 741.901 704.53 750.525 704.442C765.491 704.29 809.668 702.456 827.843 694.739C846.019 687.022 841.616 484.754 838.176 462.413C833.149 429.774 812.45 399.383 796.853 382.17C791.078 375.797 782.597 367.022 777.349 362.721C748.704 322.439 711.163 226.448 684.768 220.188C665.388 215.592 641.772 211.156 586.249 208.726C545.338 206.947 478.907 206.95 437.996 208.733ZM782.407 324.93C778.085 327.879 780.611 340.418 780.615 347.832C776.87 348.214 769.761 348.006 765.606 348.268C766.886 354.152 768.258 358.299 770.901 363.288C792.117 363.234 813.717 361.811 822.198 360.543C835.961 358.486 837.536 349.394 835.635 341.628C832.155 327.414 791.496 318.726 782.407 324.93ZM241.878 324.93C232.788 318.726 192.129 327.414 188.65 341.628C186.748 349.394 188.324 358.486 202.087 360.543C210.567 361.811 232.167 363.236 253.384 363.288C256.026 358.299 257.399 354.152 258.679 348.268C254.524 348.006 247.415 348.214 243.669 347.832C243.674 340.418 246.199 327.879 241.878 324.93ZM454.953 619.282C426.396 618.668 395.52 618.093 383.99 618.195C360.399 618.404 347.637 630.634 324.53 649.574C376.733 651.601 414.224 652.467 462.021 652.769C489.712 652.944 534.608 652.944 562.297 652.769C610.096 652.467 647.587 651.601 699.79 649.574C676.683 630.634 663.921 618.404 640.33 618.195C628.799 618.093 597.922 618.667 569.364 619.282C537.77 619.963 486.549 619.963 454.953 619.282ZM461.449 492.818C422.255 492.287 380.729 491.656 375.334 492.6C367.342 493.998 349.486 501.928 338.066 509.121C339.229 517.809 388.049 562.558 395.312 586.079C403.126 588.563 434.955 589.904 463.449 590.617C490.346 591.29 533.974 591.29 560.873 590.617C589.366 589.903 621.194 588.563 629.008 586.079C636.271 562.558 685.091 517.809 686.254 509.121C674.835 501.928 656.979 493.998 648.986 492.6C643.589 491.655 602.029 492.287 562.82 492.819C534.842 493.198 489.454 493.198 461.449 492.818ZM298.783 559.545C293.478 554.118 242.564 545.699 230.794 543.3C230.794 555.577 231.027 562.78 231.653 573.697C251.852 581.484 304.916 592.679 318.155 589.506C322.168 588.545 304.087 564.971 298.783 559.545ZM725.502 559.545C730.807 554.118 781.72 545.699 793.491 543.3C793.491 555.577 793.258 562.78 792.631 573.697C772.433 581.484 719.368 592.679 706.129 589.506C702.117 588.545 720.198 564.971 725.502 559.545ZM316.561 607.509C303.009 605 252.444 592.788 236.106 587.978C238.01 600.256 245.498 608.271 248.893 610.508C252.288 612.746 288.544 620.866 300.007 618.581C304.053 617.774 313.871 613.697 316.561 607.509ZM707.723 607.509C721.275 605 771.84 592.788 788.179 587.978C786.275 600.256 778.787 608.271 775.392 610.508C771.996 612.746 735.74 620.866 724.278 618.581C720.231 617.774 710.413 613.697 707.723 607.509ZM643.299 214.127C643.299 219.359 655.662 220.493 664.109 221.965C673.204 223.55 691.443 226.779 675.959 213.693C667.304 206.378 643.299 203.122 643.299 214.127ZM380.986 214.127C380.986 203.122 356.981 206.378 348.326 213.693C332.841 226.779 351.081 223.55 360.175 221.965C368.622 220.493 380.986 219.359 380.986 214.127Z" fill="#262625"/>
<path d="M360.576 480.595C360.576 480.595 281.67 449.329 262.597 422.405C255.973 422.688 249.446 422.467 246.697 425.395C233.434 439.517 232.001 477.247 237.46 480.647C250.892 489.011 305.278 501.769 314.352 499.714C323.787 497.577 360.576 480.595 360.576 480.595ZM663.709 480.595C663.709 480.595 742.615 449.329 761.688 422.405C768.312 422.688 774.839 422.467 777.587 425.395C790.85 439.517 792.283 477.247 786.824 480.647C773.392 489.011 719.007 501.769 709.933 499.714C700.498 497.577 663.709 480.595 663.709 480.595Z" fill="#262625"/>
</g>
</g>
<defs>
<clipPath id="clip0_528_9904">
<rect width="1024" height="1024" fill="white"/>
</clipPath>
<clipPath id="clip1_528_9904">
<rect width="1024" height="1024" fill="white" transform="translate(0 -37)"/>
</clipPath>
</defs>
</svg>
