<svg width="1024" height="1024" viewBox="0 0 1024 1024" fill="none" xmlns="http://www.w3.org/2000/svg">
<g clip-path="url(#clip0_588_28439)">
<g clip-path="url(#clip1_588_28439)">
<path d="M831.364 512.032C821.714 510.715 780.807 512.455 754.324 513.423C737.74 560.845 751.946 725.27 751.946 725.27C752.613 735.057 763.319 742.838 769.249 742.82L821.706 742.66C835.408 742.621 843.04 734.974 844.275 716.529C846.443 684.149 849.157 631.339 846.988 606.871C844.819 582.404 841.013 513.348 831.364 512.032ZM192.423 512.032C182.774 513.348 178.968 582.404 176.799 606.871C174.63 631.339 177.342 684.149 179.512 716.529C180.747 734.974 188.379 742.621 202.081 742.66L254.538 742.82C260.468 742.835 271.174 735.057 271.841 725.27C271.841 725.27 286.047 560.845 269.463 513.423C242.98 512.455 202.073 510.715 192.423 512.032ZM586.015 186.002C630.538 186.924 679.131 188.426 690.414 190.642C709.768 194.444 727.231 339.28 731.138 391.956C753.407 395.369 782.112 396.548 788.844 399.929C792.762 401.896 806.82 419.592 808.79 432.899C809.294 436.31 810.798 478.743 807.956 481.912C804.029 486.29 740.846 487.195 724.868 487.914C708.891 488.634 670.872 622.123 663.301 628.602C659.997 631.43 630.36 632.793 598.01 633.431C550.457 634.369 473.329 634.372 425.776 633.438C393.426 632.803 363.789 631.443 360.484 628.615C352.913 622.137 314.882 488.651 298.905 487.933C282.927 487.215 219.744 486.316 215.816 481.938C212.975 478.769 214.474 436.336 214.978 432.925C216.947 419.618 231.004 401.921 234.922 399.953C241.652 396.572 270.357 395.39 292.627 391.976C296.528 339.299 313.979 194.461 333.333 190.658C344.615 188.441 393.208 186.934 437.731 186.008C478.674 185.157 545.072 185.154 586.015 186.002ZM437.726 147.033C383.84 147.876 320.15 149.344 308.179 151.696C288.826 155.499 261.285 305.359 257.384 358.035C235.114 361.45 207.166 362.794 200.435 366.175C196.518 368.143 179.51 386.543 177.541 399.85C177.037 403.261 175.664 494.223 178.506 497.391C181.348 500.56 213.966 542.941 217.734 555.632C221.5 568.323 201.043 574.176 197.215 581.83C193.388 589.484 192.533 596.058 195.77 601.937C197.885 605.779 258.547 594.931 277.265 598.107C281.596 598.841 301.86 598.86 307.734 600.565C308.909 600.907 337.396 635.928 344.968 642.406C348.556 645.476 386.67 646.816 425.776 647.377C473.333 648.059 550.455 648.055 598.012 647.369C637.118 646.805 675.231 645.462 678.819 642.391C686.389 635.913 714.873 600.889 716.048 600.547C721.922 598.842 742.186 598.821 746.517 598.086C765.235 594.909 825.898 605.752 828.013 601.91C831.25 596.03 830.382 589.456 826.566 581.803C822.738 574.149 802.28 568.297 806.045 555.606C809.811 542.915 842.426 500.531 845.268 497.362C848.109 494.193 846.729 403.232 846.224 399.821C844.254 386.514 827.245 368.115 823.326 366.148C816.596 362.767 788.648 361.426 766.378 358.013C762.472 305.337 734.918 155.479 715.564 151.678C703.593 149.327 639.902 147.865 586.017 147.026C545.069 146.387 478.674 146.39 437.726 147.033ZM768.347 243.722C766.72 243.722 766.333 243.988 766.333 246.051C766.333 248.113 765.969 275.474 766.457 289.894C766.535 291.157 767.839 290.676 767.839 291.67C767.917 292.999 767.917 294.003 767.917 294.724C764.171 295.106 759.892 295.272 755.737 295.534C757.017 301.418 755.822 308.134 758.463 313.123C778.881 309.393 774.622 309.095 783.102 307.827C785.643 307.448 786.646 303.088 788.818 298.526C790.332 295.344 784.086 296.86 786.429 293.956C787.44 292.702 806.826 297.218 810.775 291.498C814.725 285.777 811.651 248.79 811.496 247.299C811.139 243.929 806.984 243.903 806.309 243.841C801.269 243.395 769.975 243.722 768.347 243.722ZM255.44 243.722C253.812 243.722 222.518 243.395 217.478 243.841C216.803 243.903 212.648 243.929 212.291 247.299C212.136 248.79 209.062 285.777 213.013 291.498C216.961 297.218 236.347 292.702 237.358 293.956C239.701 296.86 233.455 295.344 234.969 298.526C237.141 303.088 238.144 307.447 240.685 307.827C249.165 309.095 244.906 309.393 265.324 313.123C267.966 308.134 266.77 301.418 268.05 295.534C263.895 295.272 259.616 295.106 255.87 294.724C255.871 294.003 255.87 292.999 255.948 291.67C255.948 290.676 257.288 291.157 257.33 289.894C257.819 275.474 257.454 248.113 257.454 246.051C257.454 243.988 257.067 243.722 255.44 243.722ZM251.803 359.748C251.803 359.748 254.953 359.581 258.63 360.468C261.273 355.48 260.509 343.063 261.789 337.179C257.634 336.917 254.92 336.786 254.92 336.786L263.63 131L261.462 131.016L251.803 359.748ZM454.693 511.21C442.181 511.056 431.747 510.939 428.744 510.939C419.837 510.939 414.694 503.632 412.106 503.632C400.412 503.632 386.514 502.649 372.779 502.497C361.308 502.369 355.505 509.916 351.816 509.977C343.195 510.12 336.096 513.831 317.453 511.414C298.809 508.996 233.692 504.848 208.806 499.745C217.561 512.986 206.776 521.474 203.393 536.7C205.069 552.592 289.445 577.268 309.097 595.386C328.747 613.504 339.324 618.708 345.027 618.718C347.765 616.678 357.505 635.751 362.691 636.076C388.5 637.693 429.341 637.76 461.807 637.47C489.481 637.224 534.354 637.224 562.042 637.471C594.504 637.759 635.33 637.692 661.132 636.076C666.318 635.751 676.058 616.678 678.795 618.718C684.499 618.711 695.076 613.504 714.726 595.386C734.377 577.268 818.753 552.592 820.43 536.7C817.047 521.474 806.261 512.986 815.016 499.745C790.131 504.848 725.013 508.996 706.37 511.414C687.726 513.831 680.628 510.12 672.006 509.977C668.318 509.915 662.515 502.369 651.044 502.497C637.309 502.649 623.41 503.632 611.717 503.632C609.129 503.632 603.986 510.939 595.079 510.939C592.076 510.939 581.641 511.056 569.129 511.21C537.528 511.6 486.294 511.6 454.693 511.21ZM509.655 393.834C506.336 393.745 502.039 393.67 499.96 395.343C497.361 397.433 498.279 492.828 500.612 496.056C502.747 499.011 510.603 498.454 511.911 498.339C513.22 498.454 521.075 499.011 523.211 496.056C525.544 492.828 526.462 397.433 523.863 395.343C521.783 393.67 517.485 393.745 514.165 393.834C512.921 393.865 510.901 393.865 509.655 393.834ZM462.194 397.379C461.737 403.989 460.309 490.712 464.26 496.432C468.209 502.153 487.644 501.788 489.572 497.015C491.499 492.242 491.748 402.265 490.324 397.094C488.901 391.924 463.171 393.252 462.192 397.379C461.213 401.506 462.194 397.379 462.194 397.379ZM561.593 397.379C562.05 403.989 563.478 490.712 559.527 496.432C555.578 502.153 536.143 501.788 534.215 497.015C532.288 492.242 532.039 402.265 533.463 397.094C534.886 391.924 560.616 393.252 561.595 397.379C562.574 401.506 561.593 397.379 561.593 397.379ZM428.651 397.379C428.193 403.989 426.766 490.712 430.716 496.432C434.665 502.153 451.841 501.788 453.768 497.015C455.696 492.242 455.945 402.265 454.521 397.094C453.097 391.924 429.628 393.252 428.649 397.379C427.669 401.506 428.651 397.379 428.651 397.379ZM595.136 397.379C595.594 403.989 597.021 490.712 593.071 496.432C589.122 502.153 571.946 501.788 570.019 497.015C568.091 492.242 567.842 402.265 569.266 397.094C570.69 391.924 594.159 393.252 595.138 397.379C596.118 401.506 595.136 397.379 595.136 397.379ZM393.619 397.379C393.534 397.379 393.115 401.505 393.386 407.311C393.674 413.304 398.56 417.752 398.447 427.477C398.331 437.201 393.066 447.5 393.004 452.13C392.694 475.417 392.391 493.564 394.371 496.432C398.321 502.152 416.844 501.788 418.772 497.015C420.699 492.242 420.948 402.265 419.524 397.094C418.101 391.924 394.596 393.252 393.617 397.379C392.638 401.506 393.619 397.379 393.619 397.379ZM630.168 397.379C630.253 397.379 630.672 401.505 630.4 407.311C630.113 413.304 625.227 417.752 625.34 427.477C625.456 437.201 630.721 447.5 630.783 452.13C631.093 475.417 631.396 493.564 629.416 496.432C625.466 502.152 606.943 501.788 605.015 497.015C603.088 492.242 602.839 402.265 604.263 397.094C605.686 391.924 629.191 393.252 630.17 397.379C631.149 401.506 630.168 397.379 630.168 397.379ZM712.592 381.442C707.428 381.898 704.246 383.309 705.29 385.26C706.334 387.212 716.23 412.885 716.572 415.629C716.913 418.374 727.13 411.919 725.627 406.966C724.125 402.012 717.756 380.985 712.592 381.442ZM311.195 381.442C306.031 380.985 299.662 402.012 298.16 406.966C296.657 411.919 306.877 418.374 307.215 415.629C307.557 412.885 317.453 387.212 318.497 385.26C319.541 383.309 316.359 381.897 311.195 381.442ZM509.655 384.224C490.667 384.24 360.86 384.286 349.275 385.736C347.107 386.007 335.986 387.498 330.074 391.225C321.551 396.598 319.294 401.874 318.798 404.382C318.41 406.345 316.944 426.492 317.635 431.173C318.326 435.862 320.989 445.241 322.682 450.472C326.654 462.741 336.421 492.434 342.252 500.659C348.083 508.884 357.561 512.04 358.305 511.312C358.802 510.83 347.56 501.508 345.412 499.117C344.776 498.414 342.405 496.922 336.062 479.799C330.897 465.856 321.561 436.449 320.671 431.528C319.782 426.608 320.803 407.843 321.628 405.402C323.781 399.055 330.415 394.839 332.368 393.724C338.927 389.981 349.217 388.548 351.826 388.248C362.236 387.049 505.973 387.711 511.911 387.739C517.849 387.708 661.586 387.049 671.997 388.248C674.605 388.548 684.896 389.981 691.455 393.724C693.408 394.839 700.042 399.055 702.195 405.402C703.02 407.843 704.041 426.608 703.152 431.528C702.262 436.449 692.925 465.856 687.761 479.799C681.418 496.922 679.047 498.414 678.411 499.117C676.263 501.508 665.021 510.83 665.517 511.312C666.262 512.04 675.739 508.884 681.57 500.659C687.401 492.434 697.169 462.741 701.14 450.472C702.834 445.241 705.497 435.862 706.188 431.173C706.878 426.492 705.412 406.345 705.025 404.382C704.528 401.874 702.271 396.598 693.749 391.225C687.837 387.498 676.715 386.007 674.548 385.736C662.956 384.287 533.013 384.237 514.136 384.224C512.907 384.223 510.901 384.223 509.655 384.224ZM702.858 404.414L703.191 406.296C703.191 406.296 726.695 408.161 732.837 390.588C731.562 389.917 732.759 390.112 730.612 389.592C723.786 406.316 702.862 404.414 702.862 404.414H702.858ZM320.929 404.414C320.929 404.414 300.005 406.316 293.178 389.592C291.023 390.112 292.229 389.917 290.954 390.588C297.096 408.161 320.599 406.296 320.599 406.296L320.929 404.414ZM550.425 149.924C555.656 149.924 564.315 149.796 571.615 149.796C571.615 140.882 572.111 140.666 561.293 140.666C550.503 140.666 550.425 140.588 550.425 149.924ZM473.362 149.924C473.362 140.59 473.284 140.666 462.494 140.666C451.673 140.666 452.172 140.882 452.172 149.796C459.472 149.796 468.131 149.924 473.362 149.924ZM597.604 151.386C602.834 151.386 611.494 151.257 618.793 151.257C618.793 142.343 619.29 142.127 608.472 142.127C597.681 142.127 597.604 142.049 597.604 151.386ZM426.183 151.386C426.183 142.052 426.106 142.127 415.315 142.127C404.495 142.127 404.994 142.343 404.994 151.257C412.293 151.257 420.953 151.386 426.183 151.386ZM643.465 151.913C648.696 151.913 657.355 151.785 664.655 151.785C664.655 142.871 665.151 142.655 654.333 142.655C643.543 142.655 643.465 142.577 643.465 151.913ZM380.322 151.913C380.322 142.58 380.244 142.655 369.454 142.655C358.633 142.655 359.132 142.871 359.132 151.785C366.432 151.785 375.091 151.913 380.322 151.913ZM685.996 153.457C691.226 153.457 699.886 153.329 707.185 153.329C707.185 144.415 707.682 144.199 696.864 144.199C686.073 144.199 685.996 144.121 685.996 153.457ZM337.791 153.457C337.791 144.123 337.714 144.199 326.923 144.199C316.103 144.199 316.602 144.415 316.602 153.329C323.901 153.329 332.561 153.457 337.791 153.457ZM719.763 156.601C719.553 159.436 720.712 160.742 722.529 164.349C725.162 163.535 730.911 162.317 729.679 158.214C728.446 154.111 724.997 155.94 719.763 156.601ZM304.024 156.601C298.79 155.94 295.341 154.111 294.108 158.214C292.876 162.317 298.625 163.535 301.258 164.349C303.075 160.742 304.237 159.436 304.024 156.601ZM509.655 139.935C506.693 139.959 503.329 140.047 501.677 140.642C499.581 141.396 501.328 150.491 501.328 150.491L511.911 150.608L522.495 150.491C522.495 150.491 524.241 141.396 522.146 140.642C520.49 140.046 517.115 139.955 514.147 139.935C512.912 139.928 510.901 139.927 509.655 139.935Z" fill="#262625"/>
<path d="M289.143 441.188L223.547 439.577L218.713 436.645C218.713 436.645 215.846 453.705 219.917 457.118C223.989 460.53 285.728 460.754 288.522 459.199C291.316 457.645 289.143 441.188 289.143 441.188ZM734.642 441.188L800.238 439.577L805.073 436.645C805.073 436.645 807.939 453.705 803.868 457.118C799.796 460.53 738.057 460.754 735.263 459.199C732.469 457.645 734.642 441.188 734.642 441.188ZM677.694 551.735C677.694 560.303 683.417 565.809 691.313 565.809C699.209 565.809 705.815 560.516 705.815 552.479C705.815 544.442 699.936 538.216 691.628 538.216C683.319 538.216 677.694 543.166 677.694 551.735ZM346.091 551.735C346.091 543.166 340.466 538.216 332.157 538.216C323.849 538.216 317.97 544.442 317.97 552.479C317.97 560.516 324.576 565.809 332.472 565.809C340.368 565.809 346.091 560.303 346.091 551.735ZM391.826 427.219C391.826 411.261 381.834 395.353 358.519 395.636C335.204 395.92 328.216 414.234 328.216 428.249C328.216 442.264 342.083 459.064 360.345 459.064C378.606 459.064 391.826 443.177 391.826 427.219ZM631.959 427.219C631.959 411.261 641.951 395.353 665.266 395.636C688.581 395.92 695.569 414.234 695.569 428.249C695.569 442.264 681.702 459.064 663.44 459.064C645.179 459.064 631.959 443.177 631.959 427.219Z" fill="#262625"/>
<path d="M641.892 502.059H641.891C640.595 499.377 635.021 499.316 633.033 501.393C631.045 503.47 632.327 520.309 632.327 520.309L643.104 519.61C643.104 519.61 643.189 504.74 641.892 502.059ZM381.897 502.059C380.601 504.74 380.685 519.61 380.685 519.61L391.462 520.309C391.462 520.309 392.744 503.47 390.756 501.393C388.768 499.316 383.193 499.377 381.897 502.059Z" fill="#007AFF"/>
</g>
</g>
<defs>
<clipPath id="clip0_588_28439">
<rect width="1024" height="1024" fill="white"/>
</clipPath>
<clipPath id="clip1_588_28439">
<rect width="1024" height="1024" fill="white" transform="translate(0 -75)"/>
</clipPath>
</defs>
</svg>
