<svg width="1024" height="1024" viewBox="0 0 1024 1024" fill="none" xmlns="http://www.w3.org/2000/svg">
<g clip-path="url(#clip0_485_12549)">
<g clip-path="url(#clip1_485_12549)">
<path d="M821.602 669.525C813.419 672.065 754.576 671.561 754.576 671.561L755.625 725.779C756.292 735.567 763.572 743.348 769.501 743.329L820.149 743.169C833.851 743.123 840.66 735.409 842.719 717.038C847.902 670.788 844.527 565.356 844.527 565.356C830.7 566.867 829.809 666.978 821.602 669.525ZM179.601 565.356C179.601 565.356 176.225 670.788 181.408 717.038C183.467 735.409 190.276 743.123 203.978 743.169L254.626 743.329C260.556 743.345 267.835 735.567 268.502 725.779L269.551 671.561C269.551 671.561 210.708 672.065 202.525 669.525C194.318 666.978 193.427 566.867 179.601 565.356ZM437.923 213.956C478.823 211.921 545.26 211.918 586.15 213.949C635.982 216.424 652.048 220.636 671.032 223.815C697.282 228.211 737.559 323.126 750.189 352.838C764.561 369.621 766.664 377.982 775.833 388.665C785.214 399.594 803.442 418.431 807.833 430.748C821.661 469.545 801.909 629.34 784.922 634.343C767.933 639.345 724.692 641.1 709.726 641.251C701.924 641.331 648.009 641.275 598.184 641.197C550.621 641.127 473.506 641.127 425.944 641.205C376.118 641.283 322.202 641.347 314.4 641.267C299.434 641.116 256.194 639.365 239.205 634.364C222.217 629.363 202.45 469.57 216.276 430.772C220.665 418.455 238.892 399.616 248.272 388.686C257.44 378.003 259.542 369.641 273.912 352.857C286.54 323.144 326.808 228.225 353.058 223.827C372.04 220.647 388.104 216.434 437.923 213.954V213.956ZM437.92 175.394C377.569 178.123 346.962 183.025 327.463 186.292C301.213 190.689 249.489 305.549 236.861 335.262C222.491 352.046 220.389 360.408 211.221 371.091C201.841 382.021 182.424 404.303 176.05 417.413C158.042 454.457 184.348 667.523 201.336 672.524C218.325 677.525 299.434 679.564 314.4 679.715C322.203 679.793 376.119 679.756 425.945 679.704C473.508 679.65 550.623 679.65 598.186 679.696C648.011 679.748 701.927 679.778 709.73 679.699C724.696 679.547 805.805 677.501 822.793 672.498C839.781 667.495 866.068 454.427 848.057 417.386C841.682 404.275 822.264 381.996 812.882 371.066C803.713 360.384 801.611 352.022 787.239 335.24C774.608 305.527 722.874 190.673 696.624 186.277C677.124 183.012 646.516 178.112 586.161 175.388C545.256 173.535 478.828 173.538 437.92 175.395V175.394ZM794.234 324.612C790.488 324.994 784.22 324.787 780.065 325.049C781.345 330.933 782.718 335.08 785.36 340.068C806.018 340.063 817.422 340.957 825.833 339.289C839.231 336.632 847.846 337.105 846.846 322.976C846.063 311.908 840.769 302.488 830.932 297.036C819.937 290.944 801.755 287.517 798.782 291.548C795.714 295.702 794.6 316.98 794.234 324.612ZM225.345 291.548C222.372 287.517 204.19 290.944 193.195 297.036C183.358 302.488 178.064 311.908 177.281 322.976C176.281 337.105 184.896 336.632 198.294 339.289C206.705 340.957 218.109 340.063 238.767 340.068C241.41 335.08 242.782 330.933 244.062 325.049C239.907 324.787 233.639 324.994 229.893 324.612C229.527 316.98 228.413 295.702 225.345 291.548ZM389.896 546.957C362.713 546.552 340.792 547.652 325.255 549.489C309.716 551.327 281.404 600.494 281.404 600.494C281.746 601.872 210.955 594.549 221.996 598.91C229.344 601.812 226.109 638.944 249.061 638.987C251.799 636.947 345.855 646.197 351.052 646.208C378.161 646.27 425.569 644.899 461.983 643.686C489.654 642.764 534.512 642.765 562.186 643.687C598.6 644.9 646.004 646.267 673.111 646.208C678.308 646.201 772.364 636.947 775.102 638.987C798.054 638.94 794.819 601.812 802.167 598.91C813.207 594.549 742.417 601.872 742.759 600.494C742.759 600.494 714.447 551.327 698.908 549.489C683.371 547.652 661.45 546.552 634.267 546.957M508.363 434.07C501.878 433.026 503.246 428.721 493.514 423.775C477.241 415.503 388.854 420.468 384.275 421.78C369.825 425.918 364.517 431.064 364.6 433.818C365.606 467.464 370.074 497.839 383.538 508.163C401.35 521.821 458.164 514.503 480.995 514.991C500.975 515.418 495.738 500.709 507.82 497.666C510.12 497.086 514.043 497.086 516.344 497.666C528.425 500.71 523.188 515.418 543.168 514.991C565.999 514.503 622.813 521.821 640.625 508.163C654.089 497.839 658.557 467.464 659.563 433.818C659.649 431.064 654.338 425.918 639.888 421.78C635.309 420.468 546.922 415.503 530.649 423.775C520.916 428.722 522.285 433.027 515.798 434.07C513.767 434.397 510.395 434.397 508.363 434.07ZM262.738 540.267C263.49 536.579 244.43 504.421 234.141 499.059C231.251 513.908 230.267 544.071 231.136 562.74C231.454 569.57 234.203 579.402 236.02 586.535C241.098 586.496 237.793 586.347 242.503 586.481C248.406 577.545 260.366 551.913 262.738 540.266V540.267ZM761.39 540.267C760.637 536.579 779.697 504.421 789.986 499.059C792.877 513.908 793.86 544.071 792.991 562.74C792.673 569.57 789.924 579.402 788.107 586.535C783.029 586.496 786.334 586.347 781.624 586.481C775.721 577.545 763.761 551.913 761.39 540.266V540.267ZM702.117 191.99C699 181.983 697.401 178.397 690.232 176.443C680.441 173.775 671.379 179.291 673.355 183.893C677.054 192.507 702.714 193.906 702.117 191.99ZM350.773 183.893C352.749 179.291 343.687 173.775 333.895 176.443C326.727 178.397 325.127 181.983 322.01 191.99C321.413 193.906 347.074 192.507 350.773 183.893Z" fill="#262625"/>
<path d="M343.733 428.34C343.733 428.34 288.09 416.377 262.765 409.551C245.373 404.863 230.189 412.695 224.177 425.429C219.932 434.423 221.203 450.868 226.662 454.268C236.812 460.589 304.921 461.583 324.544 461.991C332.496 462.157 347.051 452.598 348.341 447.985C349.631 443.372 343.733 428.34 343.733 428.34ZM680.394 428.34C680.394 428.34 736.037 416.377 761.362 409.551C778.754 404.863 793.938 412.695 799.95 425.429C804.195 434.423 802.924 450.868 797.465 454.268C787.315 460.589 719.206 461.583 699.583 461.991C691.631 462.157 677.076 452.598 675.786 447.985C674.496 443.372 680.394 428.34 680.394 428.34Z" fill="#262625"/>
</g>
</g>
<defs>
<clipPath id="clip0_485_12549">
<rect width="1024" height="1024" fill="white"/>
</clipPath>
<clipPath id="clip1_485_12549">
<rect width="1024" height="1024" fill="white" transform="translate(0 -53)"/>
</clipPath>
</defs>
</svg>
