<svg width="1024" height="1024" viewBox="0 0 1024 1024" fill="none" xmlns="http://www.w3.org/2000/svg">
<g clip-path="url(#clip0_403_17130)">
<path d="M821.602 722.525C813.419 725.065 754.576 724.561 754.576 724.561L755.625 778.779C756.292 788.567 763.572 796.348 769.501 796.329L820.149 796.169C833.851 796.123 840.66 788.409 842.719 770.038C847.902 723.788 844.527 618.356 844.527 618.356C830.7 619.867 829.809 719.978 821.602 722.525ZM179.601 618.356C179.601 618.356 176.225 723.788 181.408 770.038C183.467 788.409 190.276 796.123 203.978 796.169L254.626 796.329C260.556 796.345 267.835 788.567 268.502 778.779L269.551 724.561C269.551 724.561 210.708 725.065 202.525 722.525C194.318 719.978 193.427 619.867 179.601 618.356ZM437.923 266.956C478.823 264.921 545.26 264.918 586.15 266.949C635.982 269.424 652.048 273.636 671.032 276.815C697.282 281.211 737.559 376.126 750.189 405.838C764.561 422.621 766.664 430.982 775.833 441.665C785.214 452.594 803.442 471.431 807.833 483.748C821.661 522.545 801.909 682.34 784.922 687.343C767.933 692.345 724.692 694.1 709.726 694.251C701.924 694.331 648.009 694.275 598.184 694.197C550.621 694.127 473.506 694.127 425.944 694.205C376.118 694.283 322.202 694.347 314.4 694.267C299.434 694.116 256.194 692.365 239.205 687.364C222.217 682.363 202.45 522.57 216.276 483.772C220.665 471.455 238.892 452.616 248.272 441.686C257.44 431.003 259.542 422.641 273.912 405.857C286.54 376.144 326.808 281.225 353.058 276.827C372.04 273.647 388.104 269.434 437.923 266.954V266.956ZM437.92 228.394C377.569 231.123 346.962 236.025 327.463 239.292C301.213 243.689 249.489 358.549 236.861 388.262C222.491 405.046 220.389 413.408 211.221 424.091C201.841 435.021 182.424 457.303 176.05 470.413C158.042 507.457 184.348 720.523 201.336 725.524C218.325 730.525 299.434 732.564 314.4 732.715C322.203 732.793 376.119 732.756 425.945 732.704C473.508 732.65 550.623 732.65 598.186 732.696C648.011 732.748 701.927 732.778 709.73 732.699C724.696 732.547 805.805 730.501 822.793 725.498C839.781 720.495 866.068 507.427 848.057 470.386C841.682 457.275 822.264 434.996 812.882 424.066C803.713 413.384 801.611 405.022 787.239 388.24C774.608 358.527 722.874 243.673 696.624 239.277C677.124 236.012 646.516 231.112 586.161 228.388C545.256 226.535 478.828 226.538 437.92 228.395V228.394ZM794.234 377.612C790.488 377.994 784.22 377.787 780.065 378.049C781.345 383.933 782.718 388.08 785.36 393.068C806.018 393.063 817.422 393.957 825.833 392.289C839.231 389.632 847.846 390.105 846.846 375.976C846.063 364.908 840.769 355.488 830.932 350.036C819.937 343.944 801.755 340.517 798.782 344.548C795.714 348.702 794.6 369.98 794.234 377.612ZM225.345 344.548C222.372 340.517 204.19 343.944 193.195 350.036C183.358 355.488 178.064 364.908 177.281 375.976C176.281 390.105 184.896 389.632 198.294 392.289C206.705 393.957 218.109 393.063 238.767 393.068C241.41 388.08 242.782 383.933 244.062 378.049C239.907 377.787 233.639 377.994 229.893 377.612C229.527 369.98 228.413 348.702 225.345 344.548ZM389.896 599.957C362.713 599.552 340.792 600.652 325.255 602.489C309.716 604.327 281.404 653.494 281.404 653.494C281.746 654.872 210.955 647.549 221.996 651.91C229.344 654.812 226.109 691.944 249.061 691.987C251.799 689.947 345.855 699.197 351.052 699.208C378.161 699.27 425.569 697.899 461.983 696.686C489.654 695.764 534.512 695.765 562.186 696.687C598.6 697.9 646.004 699.267 673.111 699.208C678.308 699.201 772.364 689.947 775.102 691.987C798.054 691.94 794.819 654.812 802.167 651.91C813.207 647.549 742.417 654.872 742.759 653.494C742.759 653.494 714.447 604.327 698.908 602.489C683.371 600.652 661.45 599.552 634.267 599.957M508.363 487.07C501.878 486.026 503.246 481.721 493.514 476.775C477.241 468.503 388.854 473.468 384.275 474.78C369.825 478.918 364.517 484.064 364.6 486.818C365.606 520.464 370.074 550.839 383.538 561.163C401.35 574.821 458.164 567.503 480.995 567.991C500.975 568.418 495.738 553.709 507.82 550.666C510.12 550.086 514.043 550.086 516.344 550.666C528.425 553.71 523.188 568.418 543.168 567.991C565.999 567.503 622.813 574.821 640.625 561.163C654.089 550.839 658.557 520.464 659.563 486.818C659.649 484.064 654.338 478.918 639.888 474.78C635.309 473.468 546.922 468.503 530.649 476.775C520.916 481.722 522.285 486.027 515.798 487.07C513.767 487.397 510.395 487.397 508.363 487.07ZM262.738 593.267C263.49 589.579 244.43 557.421 234.141 552.059C231.251 566.908 230.267 597.071 231.136 615.74C231.454 622.57 234.203 632.402 236.02 639.535C241.098 639.496 237.793 639.347 242.503 639.481C248.406 630.545 260.366 604.913 262.738 593.266V593.267ZM761.39 593.267C760.637 589.579 779.697 557.421 789.986 552.059C792.877 566.908 793.86 597.071 792.991 615.74C792.673 622.57 789.924 632.402 788.107 639.535C783.029 639.496 786.334 639.347 781.624 639.481C775.721 630.545 763.761 604.913 761.39 593.266V593.267ZM702.117 244.99C699 234.983 697.401 231.397 690.232 229.443C680.441 226.775 671.379 232.291 673.355 236.893C677.054 245.507 702.714 246.906 702.117 244.99ZM350.773 236.893C352.749 232.291 343.687 226.775 333.895 229.443C326.727 231.397 325.127 234.983 322.01 244.99C321.413 246.906 347.074 245.507 350.773 236.893Z" fill="#262625"/>
<path d="M343.733 481.34C343.733 481.34 288.09 469.377 262.765 462.551C245.373 457.863 230.189 465.695 224.177 478.429C219.932 487.423 221.203 503.868 226.662 507.268C236.812 513.589 304.921 514.583 324.544 514.991C332.496 515.157 347.051 505.598 348.341 500.985C349.631 496.372 343.733 481.34 343.733 481.34ZM680.394 481.34C680.394 481.34 736.037 469.377 761.362 462.551C778.754 457.863 793.938 465.695 799.95 478.429C804.195 487.423 802.924 503.868 797.465 507.268C787.315 513.589 719.206 514.583 699.583 514.991C691.631 515.157 677.076 505.598 675.786 500.985C674.496 496.372 680.394 481.34 680.394 481.34Z" fill="#262625"/>
</g>
<defs>
<clipPath id="clip0_403_17130">
<rect width="1024" height="1024" fill="white"/>
</clipPath>
</defs>
</svg>
