<svg width="1024" height="1024" viewBox="0 0 1024 1024" fill="none" xmlns="http://www.w3.org/2000/svg">
<g clip-path="url(#clip0_485_12550)">
<g clip-path="url(#clip1_485_12550)">
<path d="M821.602 669.525C813.419 672.065 754.576 671.561 754.576 671.561L755.625 725.779C756.292 735.567 763.572 743.348 769.501 743.329L820.149 743.169C833.851 743.123 840.66 735.409 842.719 717.038C847.902 670.788 844.527 565.356 844.527 565.356C830.7 566.867 829.809 666.978 821.602 669.525ZM179.601 565.356C179.601 565.356 176.225 670.788 181.408 717.038C183.467 735.409 190.276 743.123 203.978 743.169L254.626 743.329C260.556 743.345 267.835 735.567 268.502 725.779L269.551 671.561C269.551 671.561 210.708 672.065 202.525 669.525C194.318 666.978 193.427 566.867 179.601 565.356ZM586.15 213.949C635.982 216.424 652.048 220.636 671.032 223.815C697.282 228.211 737.559 323.126 750.189 352.838C764.561 369.621 766.664 377.982 775.833 388.665C785.214 399.594 803.442 418.431 807.833 430.748C821.661 469.545 801.909 629.34 784.922 634.343C767.933 639.345 724.692 641.1 709.726 641.251C701.924 641.331 648.009 641.275 598.184 641.197C550.621 641.127 473.506 641.127 425.944 641.205C376.118 641.283 322.202 641.347 314.4 641.267C299.434 641.116 256.194 639.365 239.205 634.364C222.217 629.363 202.45 469.57 216.276 430.772C220.665 418.455 238.892 399.616 248.272 388.686C257.44 378.003 259.542 369.641 273.912 352.857C286.54 323.144 326.808 228.225 353.058 223.827C372.04 220.647 388.104 216.434 437.923 213.954C478.823 211.919 545.26 211.916 586.15 213.947V213.949ZM437.92 175.394C377.569 178.123 346.962 183.025 327.463 186.292C301.213 190.689 249.489 305.549 236.861 335.262C222.491 352.046 220.389 360.408 211.221 371.091C201.841 382.021 182.424 404.303 176.05 417.413C158.042 454.457 184.348 667.523 201.336 672.524C218.325 677.525 299.434 679.564 314.4 679.715C322.203 679.793 376.119 679.756 425.945 679.704C473.508 679.65 550.623 679.65 598.186 679.696C648.011 679.748 701.927 679.778 709.73 679.699C724.696 679.547 805.805 677.501 822.793 672.498C839.781 667.495 866.068 454.427 848.057 417.386C841.682 404.275 822.264 381.996 812.882 371.066C803.713 360.384 801.611 352.022 787.239 335.24C774.608 305.527 722.874 190.673 696.624 186.277C677.124 183.012 646.516 178.112 586.161 175.388C545.256 173.535 478.828 173.538 437.92 175.395V175.394ZM794.234 324.612C790.488 324.994 784.22 324.787 780.065 325.049C781.345 330.933 782.718 335.08 785.36 340.068C806.018 340.063 817.422 340.957 825.833 339.289C839.231 336.632 847.846 337.105 846.846 322.976C846.063 311.908 840.769 302.488 830.932 297.036C819.937 290.944 801.755 287.517 798.782 291.548C795.714 295.702 794.6 316.98 794.234 324.612ZM225.345 291.548C222.372 287.517 204.19 290.944 193.195 297.036C183.358 302.488 178.064 311.908 177.281 322.976C176.281 337.105 184.896 336.632 198.294 339.289C206.705 340.957 218.109 340.063 238.767 340.068C241.41 335.08 242.782 330.933 244.062 325.049C239.907 324.787 233.639 324.994 229.893 324.612C229.527 316.98 228.413 295.702 225.345 291.548ZM475.096 528.554C434.55 529.366 379.806 531.136 376.006 531.532C370.721 532.083 354.274 540.027 351.556 548.796C347.612 561.524 363.542 586.746 367.68 591.783C374.005 599.484 390.157 611.901 403.637 613.023C412.418 613.753 455.924 614.137 484.992 614.316C499.939 614.408 524.178 614.408 539.131 614.315C568.199 614.137 611.695 613.753 620.475 613.023C633.955 611.901 650.107 599.484 656.432 591.783C660.57 586.746 676.5 561.524 672.556 548.796C669.838 540.027 653.391 532.083 648.106 531.532C644.305 531.136 589.552 529.365 549.006 528.553C528.602 528.145 495.505 528.145 475.096 528.554ZM491.904 428.343C478.844 420.125 387.191 424.788 384.516 425.995C377.615 429.11 368.591 432.347 365.269 438.153C360.33 446.786 374.829 501.033 389.159 509.077C403.489 517.12 476.56 520.918 495.704 508.941C510.221 499.857 508.864 450.119 503.992 438.752C501.202 432.239 495.06 430.328 491.904 428.343ZM532.22 428.343C545.281 420.125 636.934 424.788 639.609 425.995C646.51 429.11 655.533 432.347 658.856 438.153C663.795 446.786 649.296 501.033 634.966 509.077C620.636 517.12 547.564 520.918 528.421 508.941C513.903 499.857 515.261 450.119 520.132 438.752C522.923 432.239 529.064 430.328 532.22 428.343ZM540.059 432.142C536.372 434.583 527.263 437.262 524.616 443.44C520.232 453.671 518.132 495.977 531.198 504.153C548.427 514.932 619.458 508.881 630.775 502.168C642.092 495.456 653.561 451.724 649.116 443.955C646.125 438.73 638.707 434.763 632.496 431.96C630.088 430.873 547.101 427.479 540.059 432.142ZM484.065 432.142C487.752 434.583 496.861 437.262 499.509 443.44C503.893 453.671 505.993 495.977 492.927 504.153C475.698 514.932 404.667 508.881 393.35 502.168C382.033 495.456 370.564 451.724 375.009 443.955C377.999 438.73 385.418 434.763 391.629 431.96C394.036 430.873 477.023 427.479 484.065 432.142ZM702.117 191.99C699 181.983 697.401 178.397 690.232 176.443C680.441 173.775 671.379 179.291 673.355 183.893C677.054 192.507 702.714 193.906 702.117 191.99ZM350.773 183.893C352.749 179.291 343.687 173.775 333.895 176.443C326.727 178.397 325.127 181.983 322.01 191.99C321.413 193.906 347.074 192.507 350.773 183.893Z" fill="#262625"/>
<path d="M343.028 432.878C343.028 432.878 287.385 420.915 262.06 414.089C253.583 411.804 245.742 410.951 239.181 413.912C232.28 417.027 227.343 425.44 224.02 431.246C219.082 439.879 223.501 460.073 232.11 465.392C240.723 470.711 299.29 470.812 318.912 471.221C326.864 471.386 346.346 457.136 347.636 452.523C348.926 447.91 343.028 432.878 343.028 432.878ZM681.096 432.878C681.096 432.878 736.739 420.915 762.064 414.089C770.541 411.804 778.382 410.951 784.943 413.912C791.844 417.027 796.781 425.44 800.104 431.246C805.043 439.879 800.624 460.073 792.015 465.392C783.402 470.711 724.835 470.812 705.212 471.221C697.26 471.386 677.779 457.136 676.489 452.523C675.198 447.91 681.096 432.878 681.096 432.878ZM320.881 548.772C320.881 548.772 327.716 531.686 305.638 521.383C288.666 513.463 244.78 505.832 238.849 513.501C232.917 521.171 234.565 548.686 235.434 567.355C235.752 574.185 238.031 588.737 242.366 593.197C246.7 597.657 252.737 596.08 257.447 596.214C259.062 586.239 263.999 546.646 263.999 546.646C263.999 546.646 266.777 545.233 320.881 548.772ZM703.244 548.772C703.244 548.772 696.409 531.686 718.487 521.383C735.458 513.463 779.344 505.832 785.275 513.501C791.207 521.171 789.559 548.686 788.691 567.355C788.372 574.185 786.093 588.737 781.759 593.197C777.424 597.657 771.388 596.08 766.678 596.214C765.063 586.239 760.125 546.646 760.125 546.646C760.125 546.646 757.348 545.233 703.244 548.772Z" fill="#262625"/>
</g>
</g>
<defs>
<clipPath id="clip0_485_12550">
<rect width="1024" height="1024" fill="white"/>
</clipPath>
<clipPath id="clip1_485_12550">
<rect width="1024" height="1024" fill="white" transform="translate(0 -53)"/>
</clipPath>
</defs>
</svg>
