<svg width="1024" height="1024" viewBox="0 0 1024 1024" fill="none" xmlns="http://www.w3.org/2000/svg">
<g clip-path="url(#clip0_411_17740)">
<path d="M821.602 722.525C813.419 725.065 754.576 724.561 754.576 724.561L755.625 778.779C756.292 788.567 763.572 796.348 769.501 796.329L820.149 796.169C833.851 796.123 840.66 788.409 842.719 770.038C847.902 723.788 844.527 618.356 844.527 618.356C830.7 619.867 829.809 719.978 821.602 722.525ZM179.601 618.356C179.601 618.356 176.225 723.788 181.408 770.038C183.467 788.409 190.276 796.123 203.978 796.169L254.626 796.329C260.556 796.345 267.835 788.567 268.502 778.779L269.551 724.561C269.551 724.561 210.708 725.065 202.525 722.525C194.318 719.978 193.427 619.867 179.601 618.356ZM586.15 266.949C635.982 269.424 652.048 273.636 671.032 276.815C697.282 281.211 737.559 376.126 750.189 405.838C764.561 422.621 766.664 430.982 775.833 441.665C785.214 452.594 803.442 471.431 807.833 483.748C821.661 522.545 801.909 682.34 784.922 687.343C767.933 692.345 724.692 694.1 709.726 694.251C701.924 694.331 648.009 694.275 598.184 694.197C550.621 694.127 473.506 694.127 425.944 694.205C376.118 694.283 322.202 694.347 314.4 694.267C299.434 694.116 256.194 692.365 239.205 687.364C222.217 682.363 202.45 522.57 216.276 483.772C220.665 471.455 238.892 452.616 248.272 441.686C257.44 431.003 259.542 422.641 273.912 405.857C286.54 376.144 326.808 281.225 353.058 276.827C372.04 273.647 388.104 269.434 437.923 266.954C478.823 264.919 545.26 264.916 586.15 266.947V266.949ZM437.92 228.394C377.569 231.123 346.962 236.025 327.463 239.292C301.213 243.689 249.489 358.549 236.861 388.262C222.491 405.046 220.389 413.408 211.221 424.091C201.841 435.021 182.424 457.303 176.05 470.413C158.042 507.457 184.348 720.523 201.336 725.524C218.325 730.525 299.434 732.564 314.4 732.715C322.203 732.793 376.119 732.756 425.945 732.704C473.508 732.65 550.623 732.65 598.186 732.696C648.011 732.748 701.927 732.778 709.73 732.699C724.696 732.547 805.805 730.501 822.793 725.498C839.781 720.495 866.068 507.427 848.057 470.386C841.682 457.275 822.264 434.996 812.882 424.066C803.713 413.384 801.611 405.022 787.239 388.24C774.608 358.527 722.874 243.673 696.624 239.277C677.124 236.012 646.516 231.112 586.161 228.388C545.256 226.535 478.828 226.538 437.92 228.395V228.394ZM794.234 377.612C790.488 377.994 784.22 377.787 780.065 378.049C781.345 383.933 782.718 388.08 785.36 393.068C806.018 393.063 817.422 393.957 825.833 392.289C839.231 389.632 847.846 390.105 846.846 375.976C846.063 364.908 840.769 355.488 830.932 350.036C819.937 343.944 801.755 340.517 798.782 344.548C795.714 348.702 794.6 369.98 794.234 377.612ZM225.345 344.548C222.372 340.517 204.19 343.944 193.195 350.036C183.358 355.488 178.064 364.908 177.281 375.976C176.281 390.105 184.896 389.632 198.294 392.289C206.705 393.957 218.109 393.063 238.767 393.068C241.41 388.08 242.782 383.933 244.062 378.049C239.907 377.787 233.639 377.994 229.893 377.612C229.527 369.98 228.413 348.702 225.345 344.548ZM475.096 581.554C434.55 582.366 379.806 584.136 376.006 584.532C370.721 585.083 354.274 593.027 351.556 601.796C347.612 614.524 363.542 639.746 367.68 644.783C374.005 652.484 390.157 664.901 403.637 666.023C412.418 666.753 455.924 667.137 484.992 667.316C499.939 667.408 524.178 667.408 539.131 667.315C568.199 667.137 611.695 666.753 620.475 666.023C633.955 664.901 650.107 652.484 656.432 644.783C660.57 639.746 676.5 614.524 672.556 601.796C669.838 593.027 653.391 585.083 648.106 584.532C644.305 584.136 589.552 582.365 549.006 581.553C528.602 581.145 495.505 581.145 475.096 581.554ZM491.904 481.343C478.844 473.125 387.191 477.788 384.516 478.995C377.615 482.11 368.591 485.347 365.269 491.153C360.33 499.786 374.829 554.033 389.159 562.077C403.489 570.12 476.56 573.918 495.704 561.941C510.221 552.857 508.864 503.119 503.992 491.752C501.202 485.239 495.06 483.328 491.904 481.343ZM532.22 481.343C545.281 473.125 636.934 477.788 639.609 478.995C646.51 482.11 655.533 485.347 658.856 491.153C663.795 499.786 649.296 554.033 634.966 562.077C620.636 570.12 547.564 573.918 528.421 561.941C513.903 552.857 515.261 503.119 520.132 491.752C522.923 485.239 529.064 483.328 532.22 481.343ZM540.059 485.142C536.372 487.583 527.263 490.262 524.616 496.44C520.232 506.671 518.132 548.977 531.198 557.153C548.427 567.932 619.458 561.881 630.775 555.168C642.092 548.456 653.561 504.724 649.116 496.955C646.125 491.73 638.707 487.763 632.496 484.96C630.088 483.873 547.101 480.479 540.059 485.142ZM484.065 485.142C487.752 487.583 496.861 490.262 499.509 496.44C503.893 506.671 505.993 548.977 492.927 557.153C475.698 567.932 404.667 561.881 393.35 555.168C382.033 548.456 370.564 504.724 375.009 496.955C377.999 491.73 385.418 487.763 391.629 484.96C394.036 483.873 477.023 480.479 484.065 485.142ZM702.117 244.99C699 234.983 697.401 231.397 690.232 229.443C680.441 226.775 671.379 232.291 673.355 236.893C677.054 245.507 702.714 246.906 702.117 244.99ZM350.773 236.893C352.749 232.291 343.687 226.775 333.895 229.443C326.727 231.397 325.127 234.983 322.01 244.99C321.413 246.906 347.074 245.507 350.773 236.893Z" fill="#262625"/>
<path d="M343.028 485.878C343.028 485.878 287.385 473.915 262.06 467.089C253.583 464.804 245.742 463.951 239.181 466.912C232.28 470.027 227.343 478.44 224.02 484.246C219.082 492.879 223.501 513.073 232.11 518.392C240.723 523.711 299.29 523.812 318.912 524.221C326.864 524.386 346.346 510.136 347.636 505.523C348.926 500.91 343.028 485.878 343.028 485.878ZM681.096 485.878C681.096 485.878 736.739 473.915 762.064 467.089C770.541 464.804 778.382 463.951 784.943 466.912C791.844 470.027 796.781 478.44 800.104 484.246C805.043 492.879 800.624 513.073 792.015 518.392C783.402 523.711 724.835 523.812 705.212 524.221C697.26 524.386 677.779 510.136 676.489 505.523C675.198 500.91 681.096 485.878 681.096 485.878ZM320.881 601.772C320.881 601.772 327.716 584.686 305.638 574.383C288.666 566.463 244.78 558.832 238.849 566.501C232.917 574.171 234.565 601.686 235.434 620.355C235.752 627.185 238.031 641.737 242.366 646.197C246.7 650.657 252.737 649.08 257.447 649.214C259.062 639.239 263.999 599.646 263.999 599.646C263.999 599.646 266.777 598.233 320.881 601.772ZM703.244 601.772C703.244 601.772 696.409 584.686 718.487 574.383C735.458 566.463 779.344 558.832 785.275 566.501C791.207 574.171 789.559 601.686 788.691 620.355C788.372 627.185 786.093 641.737 781.759 646.197C777.424 650.657 771.388 649.08 766.678 649.214C765.063 639.239 760.125 599.646 760.125 599.646C760.125 599.646 757.348 598.233 703.244 601.772Z" fill="#262625"/>
</g>
<defs>
<clipPath id="clip0_411_17740">
<rect width="1024" height="1024" fill="white"/>
</clipPath>
</defs>
</svg>
