<svg width="633" height="768" viewBox="0 0 633 768" fill="none" xmlns="http://www.w3.org/2000/svg">
<g clip-path="url(#clip0_1544_78941)">
<path d="M385.205 200.581C385.205 227.038 400.808 242.897 427.266 242.897H609.936L610.212 532.914C610.212 582.793 583.775 609.292 533.918 609.292H488.677V403.454C488.698 384.171 481.158 368.253 463.508 350.562L278.196 165.318C258.13 145.19 240.362 135.102 206.198 135.102H166.161L166.137 98.3017C166.137 48.673 193.699 22.0908 242.707 22.0908H385.205V200.581ZM420.699 36.1034L591.28 207.403C595.894 211.995 600.195 216.167 601.148 220.421H427.937C414.405 220.421 407.723 213.993 407.723 200.441L407.702 26.5321C411.935 27.7196 416.403 31.766 420.699 36.1034Z" fill="#262625"/>
<path d="M270.584 381.004H458.696C457.915 375.776 452.744 370.886 447.964 366.341L262.376 180.821C257.575 176.02 252.368 171.256 247.713 170.199V358.133C247.713 373.748 254.968 381.004 270.584 381.004ZM98.7231 744.732H389.934C439.791 744.732 466.228 718.233 466.228 668.355V403.454H267.016C239.21 403.454 225.263 388.933 225.263 361.149V157.531H98.7231C49.7149 157.531 22.429 184.009 22.429 233.908V668.355C22.429 718.254 48.8866 744.732 98.7231 744.732Z" fill="#262625"/>
</g>
<defs>
<clipPath id="clip0_1544_78941">
<rect width="632.365" height="767.161" fill="white"/>
</clipPath>
</defs>
</svg>
